<svg width="175" height="181" viewBox="0 0 175 181" fill="none" xmlns="http://www.w3.org/2000/svg">
<path fill-rule="evenodd" clip-rule="evenodd" d="M87.9923 6.44629C42.0554 6.44629 4.77539 43.7346 4.77539 89.6753C4.77539 135.614 42.0554 172.895 87.9923 172.895C133.929 172.895 171.219 135.614 171.219 89.6753C171.219 43.7346 133.929 6.44629 87.9923 6.44629ZM87.9923 12.9308C88.7085 12.9308 89.4224 12.9403 90.1338 12.9594C90.1362 12.969 90.1386 12.9809 90.141 12.9905L89.8879 12.969C89.494 16.1372 92.2014 19.0238 96.1622 19.6684C100.357 20.3488 104.399 18.2168 105.182 14.9077L104.838 14.8551C104.86 14.8289 104.881 14.8002 104.9 14.774C106.564 15.1416 108.207 15.5618 109.83 16.0346C109.823 16.068 109.818 16.1038 109.816 16.1396L109.651 16.0799C108.45 19.0405 110.32 22.5334 113.98 24.1808C117.855 25.9261 122.309 24.9066 123.923 21.9127L123.67 21.8028C123.682 21.7813 123.692 21.7622 123.699 21.7408C123.72 21.7002 123.732 21.6524 123.744 21.6071C125.131 22.3257 126.497 23.0778 127.834 23.8752C126.048 26.4251 126.97 30.183 130.019 32.6732C133.311 35.3592 137.876 35.5335 140.211 33.06L140.046 32.9263C140.051 32.9215 140.058 32.9167 140.063 32.912C141.488 34.1965 142.87 35.5311 144.195 36.9182C144.171 36.9373 144.147 36.954 144.128 36.9779L143.971 36.7917C141.452 38.7542 141.318 42.7032 143.665 45.9598C146.148 49.4097 150.512 50.7611 153.408 48.9752L153.253 48.7508L153.268 48.7436C153.315 48.7078 153.356 48.6624 153.394 48.6171C154.323 50.0663 155.204 51.5442 156.035 53.0555C153.234 54.3806 152.16 58.0764 153.552 61.7484C155.034 65.6616 158.806 68.0754 162.034 67.2159C162.485 68.6818 162.901 70.1645 163.264 71.6638C160.182 72.1843 158.159 75.5053 158.556 79.4376C158.978 83.6134 162.01 86.9272 165.36 86.9129C165.393 87.8321 165.413 88.7489 165.413 89.6753C165.413 90.2937 165.405 90.9096 165.391 91.5256C162.268 91.2152 159.446 93.9036 158.811 97.8143C158.136 101.966 160.22 105.963 163.474 106.806C163.128 108.31 162.729 109.797 162.294 111.266C159.356 110.148 155.925 112.006 154.297 115.623C152.575 119.45 153.544 123.845 156.452 125.51C155.727 126.868 154.967 128.208 154.163 129.516C151.613 127.694 147.831 128.599 145.329 131.665C142.682 134.907 142.474 139.386 144.828 141.752C143.496 143.18 142.111 144.562 140.674 145.885C138.69 143.437 134.789 143.332 131.563 145.653C128.223 148.06 126.853 152.238 128.393 155.129C127.13 155.898 125.838 156.633 124.527 157.33C123.255 154.439 119.499 153.315 115.777 154.726C111.879 156.206 109.463 159.954 110.293 163.173C108.828 163.61 107.345 164.008 105.846 164.359C105.285 161.318 101.988 159.331 98.0864 159.725C93.9824 160.141 90.7092 163.082 90.6113 166.367C89.7423 166.396 88.8685 166.41 87.9923 166.41C87.0779 166.41 86.1683 166.389 85.2611 166.358C85.0605 163.144 81.8279 160.291 77.7931 159.883C73.9684 159.494 70.7263 161.401 70.0721 164.345C68.8044 164.047 67.5486 163.712 66.3047 163.352C67.3289 160.439 65.4739 157.08 61.9023 155.473C58.0752 153.752 53.6823 154.714 52.0182 157.622C50.4425 156.8 48.9002 155.927 47.3914 155.003V154.957L47.6014 155.108C49.5257 152.558 48.6281 148.707 45.5196 146.169C43.7696 144.741 41.6639 144.015 39.7229 144.027C38.0087 144.037 36.421 144.622 35.3276 145.782L35.5138 145.93V146.064C34.1959 144.858 32.9186 143.607 31.6867 142.311H31.7536V142.208L31.9016 142.387C34.4227 140.422 34.554 136.466 32.2096 133.209C30.4238 130.731 27.6663 129.337 25.1809 129.411C24.2092 129.442 23.2793 129.7 22.465 130.203L22.6739 130.492H22.4351C21.5272 129.065 20.6667 127.603 19.8536 126.114C22.644 124.784 23.7129 121.086 22.3231 117.423C20.8472 113.529 17.1078 111.12 13.8926 111.939C13.4456 110.475 13.036 108.995 12.6764 107.498C15.7247 106.944 17.7189 103.645 17.3243 99.7387C16.907 95.6059 13.9267 92.3111 10.6172 92.2562C10.5886 91.3967 10.5724 90.5396 10.5724 89.6753C10.5724 88.9996 10.5774 88.3311 10.5948 87.6602C13.6741 87.899 16.4424 85.2297 17.0708 81.3619C17.7364 77.2673 15.718 73.3184 12.542 72.4016C12.8899 70.9046 13.2862 69.4243 13.7209 67.9632C16.6276 68.9707 19.9741 67.106 21.5771 63.5463C23.2695 59.7859 22.3685 55.4836 19.5776 53.7574C20.5132 52.0097 21.5126 50.3027 22.5767 48.6386C25.126 50.551 28.965 49.6533 31.5005 46.5495C34.1076 43.3574 34.3487 38.9667 32.1045 36.5744C33.0953 35.5502 34.1243 34.5594 35.17 33.59C37.1444 36.073 41.0765 36.1924 44.3163 33.8598C47.6898 31.4293 49.0554 27.1938 47.4439 24.3002C48.7522 23.5004 50.082 22.734 51.4429 22.0105C51.4476 22.032 51.4548 22.0559 51.4643 22.0774C51.4787 22.1084 51.5002 22.1347 51.524 22.161L51.3163 22.2565C52.5602 25.1979 56.3514 26.3511 60.1045 24.9281C64.0772 23.4216 66.5124 19.5466 65.536 16.2877L65.3115 16.3688C65.3139 16.3402 65.3092 16.3068 65.3044 16.2805C66.9804 15.7719 68.6778 15.3207 70.4016 14.922C70.4111 14.9483 70.4231 14.9721 70.4374 14.9984L69.9909 15.0724C70.4302 18.2359 73.7941 20.325 77.786 19.9215C82.0141 19.4941 85.3685 16.3903 85.2706 12.9905L85.0152 13.012C85.0199 13.0048 85.0271 12.9976 85.0319 12.9905C86.0131 12.9523 87.0015 12.9308 87.9923 12.9308ZM163.892 104.836L163.899 104.843C163.892 104.877 163.885 104.912 163.877 104.946L163.892 104.836Z" fill="#FF9500" stroke="#FF9500" stroke-width="0.334608"/>
<path fill-rule="evenodd" clip-rule="evenodd" d="M91.2369 89.6703C91.2369 90.5298 90.8955 91.354 90.2878 91.9618C89.68 92.5695 88.8558 92.9109 87.9964 92.9109C87.1369 92.9109 86.3127 92.5695 85.705 91.9618C85.0973 91.354 84.7559 90.5298 84.7559 89.6703C84.7559 88.8108 85.0973 87.9866 85.705 87.3788C86.3127 86.7711 87.1369 86.4297 87.9964 86.4297C88.8558 86.4297 89.68 86.7711 90.2878 87.3788C90.8955 87.9866 91.2369 88.8108 91.2369 89.6703Z" fill="#FF9500" stroke="#FF9500" stroke-width="0.334606"/>
<path d="M95.4142 89.6727C95.4205 90.6509 95.2333 91.6207 94.8633 92.5262C94.4933 93.4317 93.9479 94.2552 93.2585 94.9491C92.569 95.643 91.7491 96.1937 90.846 96.5694C89.9429 96.9452 88.9744 97.1387 87.9963 97.1387C87.0181 97.1387 86.0496 96.9452 85.1465 96.5694C84.2434 96.1937 83.4235 95.643 82.734 94.9491C82.0446 94.2552 81.4992 93.4317 81.1292 92.5262C80.7592 91.6207 80.572 90.6509 80.5783 89.6727C80.572 88.6946 80.7592 87.7248 81.1292 86.8193C81.4992 85.9137 82.0446 85.0903 82.734 84.3964C83.4235 83.7025 84.2434 83.1518 85.1465 82.776C86.0496 82.4003 87.0181 82.2068 87.9963 82.2068C88.9744 82.2068 89.9429 82.4003 90.846 82.776C91.7491 83.1518 92.569 83.7025 93.2585 84.3964C93.9479 85.0903 94.4933 85.9137 94.8633 86.8193C95.2333 87.7248 95.4205 88.6946 95.4142 89.6727Z" stroke="#FF9500" stroke-width="0.334606"/>
<path fill-rule="evenodd" clip-rule="evenodd" d="M88.1323 12.9302L86.6855 67.0147L88.1347 82.0537L89.5457 66.9813L88.1323 12.9302Z" fill="#FF9500" stroke="#FF9500" stroke-width="0.334608"/>
<path fill-rule="evenodd" clip-rule="evenodd" d="M107.948 15.5447L92.5511 67.4112L90.0586 82.3117L95.3229 68.1203L107.948 15.5447Z" fill="#FF9500" stroke="#FF9500" stroke-width="0.334608"/>
<path fill-rule="evenodd" clip-rule="evenodd" d="M126.172 22.5996L98.1167 69.3115L91.8496 83.0588L100.609 70.7129L126.172 22.5996Z" fill="#FF9500" stroke="#FF9500" stroke-width="0.334608"/>
<path fill-rule="evenodd" clip-rule="evenodd" d="M142.024 34.6519L102.999 72.5872L93.3867 84.2455L105.042 74.5855L142.024 34.6519Z" fill="#FF9500" stroke="#FF9500" stroke-width="0.334608"/>
<path fill-rule="evenodd" clip-rule="evenodd" d="M154.902 50.5098L106.867 77.016L94.5664 85.7902L108.323 79.4752L154.902 50.5098Z" fill="#FF9500" stroke="#FF9500" stroke-width="0.334608"/>
<path fill-rule="evenodd" clip-rule="evenodd" d="M162.905 69.5742L109.457 82.2925L95.3047 87.5857L110.229 85.0477L162.905 69.5742Z" fill="#FF9500" stroke="#FF9500" stroke-width="0.334608"/>
<path fill-rule="evenodd" clip-rule="evenodd" d="M165.39 89.5077L110.591 88.0632L95.5527 89.5101L110.625 90.9211L165.39 89.5077Z" fill="#FF9500" stroke="#FF9500" stroke-width="0.334608"/>
<path fill-rule="evenodd" clip-rule="evenodd" d="M162.777 109.324L110.193 93.9269L95.293 91.4343L109.486 96.6988L162.777 109.324Z" fill="#FF9500" stroke="#FF9500" stroke-width="0.334608"/>
<path fill-rule="evenodd" clip-rule="evenodd" d="M155.243 127.667L108.294 99.4921L94.5469 93.2273L106.892 101.985L155.243 127.667Z" fill="#FF9500" stroke="#FF9500" stroke-width="0.334608"/>
<path fill-rule="evenodd" clip-rule="evenodd" d="M142.717 143.64L105.019 104.375L93.3613 94.7649L103.021 106.418L142.717 143.64Z" fill="#FF9500" stroke="#FF9500" stroke-width="0.334608"/>
<path fill-rule="evenodd" clip-rule="evenodd" d="M126.379 155.804L100.592 108.242L91.8184 95.9419L98.1308 109.699L126.379 155.804Z" fill="#FF9500" stroke="#FF9500" stroke-width="0.334608"/>
<path fill-rule="evenodd" clip-rule="evenodd" d="M107.915 163.447L95.314 110.833L90.0234 96.6797L92.5613 111.604L107.915 163.447Z" fill="#FF9500" stroke="#FF9500" stroke-width="0.334608"/>
<path fill-rule="evenodd" clip-rule="evenodd" d="M88.0989 166.41L89.5457 111.967L88.0965 96.928L86.6855 112L88.0989 166.41Z" fill="#FF9500" stroke="#FF9500" stroke-width="0.334608"/>
<path fill-rule="evenodd" clip-rule="evenodd" d="M68.166 164.036L83.6797 111.573L86.1722 96.6702L80.9102 110.864L68.166 164.036Z" fill="#FF9500" stroke="#FF9500" stroke-width="0.334608"/>
<path fill-rule="evenodd" clip-rule="evenodd" d="M49.7012 156.384L78.1166 109.673L84.3813 95.9229L75.6241 108.271L49.7012 156.384Z" fill="#FF9500" stroke="#FF9500" stroke-width="0.334608"/>
<path fill-rule="evenodd" clip-rule="evenodd" d="M33.4902 144.093L73.2341 106.397L82.8436 94.7361L71.1881 104.396L33.4902 144.093Z" fill="#FF9500" stroke="#FF9500" stroke-width="0.334608"/>
<path fill-rule="evenodd" clip-rule="evenodd" d="M21.0898 128.116L69.3664 101.968L81.6642 93.1938L67.9077 99.5088L21.0898 128.116Z" fill="#FF9500" stroke="#FF9500" stroke-width="0.334608"/>
<path fill-rule="evenodd" clip-rule="evenodd" d="M13.0859 109.649L66.7749 96.6892L80.9253 91.3984L66.0037 93.9364L13.0859 109.649Z" fill="#FF9500" stroke="#FF9500" stroke-width="0.334608"/>
<path fill-rule="evenodd" clip-rule="evenodd" d="M10.6016 89.5936L65.6394 90.9211L80.678 89.4719L65.606 88.0632L10.6016 89.5936Z" fill="#FF9500" stroke="#FF9500" stroke-width="0.334608"/>
<path fill-rule="evenodd" clip-rule="evenodd" d="M13.2148 69.8987L66.0348 85.0547L80.9348 87.5472L66.7438 82.2851L13.2148 69.8987Z" fill="#FF9500" stroke="#FF9500" stroke-width="0.334608"/>
<path fill-rule="evenodd" clip-rule="evenodd" d="M21.1055 51.3169L67.9353 79.492L81.6822 85.7569L69.3367 76.9995L21.1055 51.3169Z" fill="#FF9500" stroke="#FF9500" stroke-width="0.334608"/>
<path fill-rule="evenodd" clip-rule="evenodd" d="M33.3945 35.2224L71.2117 74.6094L82.8696 84.2191L73.21 72.5632L33.3945 35.2224Z" fill="#FF9500" stroke="#FF9500" stroke-width="0.334608"/>
<path fill-rule="evenodd" clip-rule="evenodd" d="M49.2559 23.1797L75.6396 70.7415L84.4134 83.042L78.101 69.2827L49.2559 23.1797Z" fill="#FF9500" stroke="#FF9500" stroke-width="0.334608"/>
<path fill-rule="evenodd" clip-rule="evenodd" d="M67.8398 15.5349L80.9183 68.1511L86.2089 82.3019L83.671 67.3799L67.8398 15.5349Z" fill="#FF9500" stroke="#FF9500" stroke-width="0.334608"/>
<path d="M127.816 102.092C121.052 124.009 97.8007 136.292 75.8821 129.529C53.9739 122.766 41.6895 99.5134 48.454 77.5981C55.2148 55.6787 78.4654 43.3926 100.377 50.1558C122.295 56.9193 134.579 80.1745 127.816 102.092Z" fill="white"/>
<path d="M48.4111 77.5278C55.1719 55.6085 78.4219 43.3223 100.334 50.0854C122.251 56.849 134.536 80.104 127.772 102.022C121.009 123.939 97.7574 136.222 75.8389 129.458C53.9307 122.696 41.6468 99.4431 48.4111 77.5278ZM85.5986 70.0239C84.6209 69.7439 83.6611 69.4667 82.7305 69.1802L82.7373 69.1577L76.5469 67.2446L75.0684 72.0386C75.0684 72.0386 78.3946 72.9963 78.3291 73.0425C80.1467 73.6041 80.4139 74.8423 80.3037 75.8062L77.7119 84.2075C77.8371 84.2469 77.9994 84.3027 78.1768 84.3853L77.7031 84.2397L74.0693 96.0073C73.813 96.5549 73.1947 97.363 71.9238 96.9731C71.9654 97.0414 68.6928 95.9753 68.6621 95.9653L66.1152 101.052L71.958 102.855C73.0446 103.192 74.1087 103.54 75.1553 103.871L72.8555 111.331L77.3389 112.715L79.6172 105.336C80.839 105.742 82.0271 106.119 83.1904 106.477L80.9219 113.822L85.4102 115.206L87.71 107.761C95.3894 109.657 101.259 109.386 104.099 102.503C106.389 96.9611 104.492 93.5867 100.526 91.2349C103.538 90.7102 105.886 88.877 106.706 84.8696C107.834 79.3957 103.795 76.1975 98.1582 73.9019L100.434 66.5278L95.9434 65.1431L93.7285 72.3228C92.5499 71.9589 91.3365 71.61 90.1309 71.2642L92.3613 64.0366L87.876 62.6519L85.5986 70.0239ZM84.4453 90.0571C87.4878 90.9969 97.2938 93.0654 95.5039 98.8784C93.7852 104.452 84.44 100.875 81.3955 99.938L84.4453 90.0571ZM88.6064 76.5718C91.1421 77.3537 99.3506 79.0048 97.7178 84.2935C96.1514 89.3634 88.3749 86.3155 85.8398 85.5337L88.6064 76.5718Z" fill="#FF9500"/>
</svg>
