<?xml version="1.0" encoding="UTF-8" standalone="yes"?>
<svg width="722" height="722" viewBox="0 0 722 722" fill="none" version="1.2" baseProfile="tiny-ps" xmlns="http://www.w3.org/2000/svg">
  <title>bimi-svg-tiny-12-ps</title>
  <path fill-rule="evenodd" d="M352.907 25.854C168.669 25.854 19.1504 175.406 19.1504 359.659C19.1504 543.903 168.669 693.426 352.907 693.426C537.146 693.426 686.702 543.903 686.702 359.659C686.702 175.406 537.146 25.854 352.907 25.854ZM352.907 51.8613C355.78 51.8613 358.643 51.8996 361.496 51.9762C361.506 52.0145 361.515 52.0624 361.525 52.1007L360.51 52.0145C358.93 64.7214 369.788 76.2983 385.674 78.8837C402.498 81.6127 418.709 73.0617 421.849 59.7899L420.471 59.5793C420.557 59.4739 420.643 59.359 420.72 59.2537C427.394 60.7283 433.981 62.4136 440.493 64.3096C440.464 64.4437 440.445 64.5873 440.435 64.7309L439.774 64.4915C434.958 76.3653 442.455 90.3744 457.134 96.9815C472.675 103.981 490.543 99.8925 497.016 87.8847L496.001 87.4442C496.048 87.3581 496.087 87.2815 496.115 87.1953C496.202 87.0325 496.25 86.841 496.297 86.659C501.861 89.5413 507.338 92.5576 512.7 95.7559C505.538 105.983 509.234 121.055 521.461 131.042C534.666 141.814 552.974 142.513 562.338 132.593L561.678 132.057C561.697 132.038 561.725 132.019 561.745 131.999C567.461 137.151 573.005 142.504 578.319 148.067C578.224 148.144 578.128 148.211 578.051 148.307L577.419 147.56C567.318 155.431 566.781 171.269 576.194 184.33C586.152 198.167 603.656 203.587 615.271 196.424L614.648 195.524L614.706 195.495C614.897 195.352 615.06 195.17 615.213 194.988C618.938 200.8 622.471 206.727 625.803 212.789C614.572 218.103 610.263 232.926 615.845 247.654C621.791 263.348 636.92 273.029 649.866 269.582C651.676 275.461 653.342 281.408 654.797 287.421C642.436 289.508 634.325 302.828 635.915 318.599C637.61 335.347 649.77 348.638 663.205 348.58C663.339 352.267 663.415 355.944 663.415 359.659C663.415 362.139 663.386 364.61 663.329 367.08C650.805 365.836 639.487 376.618 636.94 392.303C634.23 408.954 642.589 424.984 655.64 428.364C654.252 434.397 652.653 440.362 650.91 446.251C639.123 441.77 625.363 449.22 618.833 463.727C611.929 479.077 615.816 496.705 627.479 503.379C624.568 508.828 621.523 514.2 618.296 519.447C608.07 512.141 592.903 515.77 582.868 528.065C572.249 541.069 571.416 559.033 580.857 568.522C575.514 574.248 569.96 579.793 564.196 585.098C556.239 575.283 540.593 574.861 527.657 584.169C514.261 593.821 508.764 610.578 514.941 622.174C509.875 625.258 504.695 628.207 499.438 631.003C494.335 619.407 479.273 614.897 464.345 620.556C448.708 626.493 439.018 641.527 442.35 654.434C436.471 656.187 430.525 657.786 424.511 659.193C422.261 646.994 409.038 639.027 393.392 640.607C376.932 642.273 363.804 654.071 363.411 667.247C359.926 667.362 356.421 667.419 352.907 667.419C349.24 667.419 345.592 667.333 341.953 667.208C341.149 654.32 328.184 642.877 312.002 641.239C296.662 639.678 283.659 647.329 281.035 659.136C275.951 657.939 270.914 656.599 265.925 655.153C270.033 643.47 262.593 629.998 248.268 623.553C232.919 616.649 215.301 620.508 208.627 632.171C202.307 628.877 196.121 625.373 190.07 621.667V621.485L190.912 622.088C198.63 611.861 195.03 596.416 182.563 586.237C175.544 580.511 167.098 577.6 159.314 577.648C152.439 577.686 146.071 580.032 141.686 584.686L142.432 585.28V585.816C137.147 580.98 132.024 575.962 127.083 570.763H127.351V570.351L127.945 571.069C138.057 563.189 138.583 547.322 129.18 534.261C122.018 524.321 110.958 518.729 100.991 519.026C97.0934 519.15 93.3638 520.185 90.0977 522.205L90.9355 523.364H89.978C86.3365 517.637 82.8855 511.777 79.6242 505.802C90.8158 500.468 95.1027 485.636 89.5289 470.947C83.6094 455.329 68.6116 445.667 55.7166 448.952C53.9241 443.082 52.2809 437.145 50.8389 431.141C63.0647 428.92 71.0629 415.686 69.4801 400.02C67.8063 383.445 55.8535 370.231 42.5802 370.011C42.4653 366.563 42.4002 363.126 42.4002 359.659C42.4002 356.949 42.4203 354.268 42.4902 351.577C54.8404 352.535 65.943 341.83 68.4632 326.317C71.1328 309.895 63.0378 294.057 50.2998 290.38C51.6949 284.376 53.2844 278.439 55.0281 272.579C66.686 276.62 80.1077 269.141 86.5366 254.864C93.3245 239.782 89.7108 222.527 78.5173 215.604C82.2698 208.595 86.2781 201.748 90.5458 195.074C100.77 202.744 116.167 199.144 126.336 186.695C136.793 173.893 137.76 156.283 128.759 146.688C132.733 142.581 136.86 138.607 141.054 134.719C148.972 144.678 164.743 145.156 177.737 135.801C191.266 126.053 196.744 109.066 190.28 97.4603C195.528 94.2525 200.861 91.1787 206.319 88.2773C206.338 88.3635 206.367 88.4593 206.405 88.5454C206.463 88.6699 206.549 88.7753 206.644 88.8806L205.811 89.2636C210.8 101.061 226.006 105.686 241.058 99.9787C256.991 93.9365 266.758 78.3953 262.842 65.3246L261.942 65.6502C261.951 65.5353 261.932 65.4012 261.913 65.2959C268.635 63.2563 275.443 61.4465 282.356 59.8474C282.395 59.9527 282.443 60.0485 282.5 60.1538L280.709 60.4506C282.471 73.1383 295.963 81.5169 311.973 79.8987C328.931 78.1846 342.384 65.7364 341.991 52.1007L340.967 52.1869C340.986 52.1582 341.015 52.1294 341.034 52.1007C344.969 51.9475 348.933 51.8613 352.907 51.8613ZM657.316 420.464L657.344 420.493C657.316 420.627 657.287 420.771 657.258 420.905L657.316 420.464Z" fill="#FF9500" stroke="#FF9500" stroke-width="1.34201"/>
  <path fill-rule="evenodd" d="M365.927 359.64C365.927 363.087 364.558 366.393 362.12 368.83C359.683 371.268 356.377 372.637 352.93 372.637C349.483 372.637 346.178 371.268 343.74 368.83C341.303 366.393 339.934 363.087 339.934 359.64C339.934 356.193 341.303 352.887 343.74 350.45C346.178 348.012 349.483 346.643 352.93 346.643C356.377 346.643 359.683 348.012 362.12 350.45C364.558 352.887 365.927 356.193 365.927 359.64Z" fill="#FF9500" stroke="#FF9500" stroke-width="1.342"/>
  <path d="M382.675 359.649C382.7 363.572 381.949 367.461 380.465 371.093C378.981 374.725 376.794 378.028 374.029 380.811C371.264 383.594 367.975 385.802 364.353 387.309C360.731 388.817 356.847 389.593 352.924 389.593C349.001 389.593 345.116 388.817 341.494 387.309C337.872 385.802 334.584 383.594 331.819 380.811C329.053 378.028 326.866 374.725 325.382 371.093C323.898 367.461 323.147 363.572 323.172 359.649C323.147 355.726 323.898 351.836 325.382 348.205C326.866 344.573 329.053 341.27 331.819 338.487C334.584 335.704 337.872 333.496 341.494 331.988C345.116 330.481 349.001 329.705 352.924 329.705C356.847 329.705 360.731 330.481 364.353 331.988C367.975 333.496 371.264 335.704 374.029 338.487C376.794 341.27 378.981 344.573 380.465 348.205C381.949 351.836 382.7 355.726 382.675 359.649Z" stroke="#FF9500" stroke-width="1.342"/>
  <path fill-rule="evenodd" d="M353.471 51.8591L347.668 268.775L353.48 329.092L359.139 268.641L353.471 51.8591Z" fill="#FF9500" stroke="#FF9500" stroke-width="1.34201"/>
  <path fill-rule="evenodd" d="M432.943 62.3441L371.192 270.364L361.195 330.126L382.309 273.208L432.943 62.3441Z" fill="#FF9500" stroke="#FF9500" stroke-width="1.34201"/>
  <path fill-rule="evenodd" d="M506.034 90.6404L393.514 277.987L368.379 333.123L403.511 283.608L506.034 90.6404Z" fill="#FF9500" stroke="#FF9500" stroke-width="1.34201"/>
  <path fill-rule="evenodd" d="M569.613 138.978L413.095 291.124L374.545 337.882L421.292 299.139L569.613 138.978Z" fill="#FF9500" stroke="#FF9500" stroke-width="1.34201"/>
  <path fill-rule="evenodd" d="M621.262 202.579L428.607 308.887L379.275 344.078L434.448 318.75L621.262 202.579Z" fill="#FF9500" stroke="#FF9500" stroke-width="1.34201"/>
  <path fill-rule="evenodd" d="M653.357 279.04L438.995 330.049L382.232 351.278L442.088 341.099L653.357 279.04Z" fill="#FF9500" stroke="#FF9500" stroke-width="1.34201"/>
  <path fill-rule="evenodd" d="M663.325 358.987L443.543 353.193L383.229 358.996L443.677 364.655L663.325 358.987Z" fill="#FF9500" stroke="#FF9500" stroke-width="1.34201"/>
  <path fill-rule="evenodd" d="M652.851 438.464L441.955 376.711L382.195 366.714L439.121 387.829L652.851 438.464Z" fill="#FF9500" stroke="#FF9500" stroke-width="1.34201"/>
  <path fill-rule="evenodd" d="M622.63 512.033L434.332 399.032L379.197 373.906L428.711 409.029L622.63 512.033Z" fill="#FF9500" stroke="#FF9500" stroke-width="1.34201"/>
  <path fill-rule="evenodd" d="M572.39 576.094L421.196 418.614L374.439 380.072L413.181 426.811L572.39 576.094Z" fill="#FF9500" stroke="#FF9500" stroke-width="1.34201"/>
  <path fill-rule="evenodd" d="M506.866 624.882L403.443 434.126L368.254 384.793L393.571 439.968L506.866 624.882Z" fill="#FF9500" stroke="#FF9500" stroke-width="1.34201"/>
  <path fill-rule="evenodd" d="M432.81 655.533L382.272 444.516L361.053 387.752L371.231 447.609L432.81 655.533Z" fill="#FF9500" stroke="#FF9500" stroke-width="1.34201"/>
  <path fill-rule="evenodd" d="M353.337 667.417L359.139 449.065L353.327 388.748L347.668 449.199L353.337 667.417Z" fill="#FF9500" stroke="#FF9500" stroke-width="1.34201"/>
  <path fill-rule="evenodd" d="M273.393 657.899L335.613 447.484L345.61 387.714L324.506 444.64L273.393 657.899Z" fill="#FF9500" stroke="#FF9500" stroke-width="1.34201"/>
  <path fill-rule="evenodd" d="M199.336 627.209L313.301 439.862L338.427 384.716L303.305 434.241L199.336 627.209Z" fill="#FF9500" stroke="#FF9500" stroke-width="1.34201"/>
  <path fill-rule="evenodd" d="M134.32 577.914L293.72 426.725L332.261 379.957L285.514 418.7L134.32 577.914Z" fill="#FF9500" stroke="#FF9500" stroke-width="1.34201"/>
  <path fill-rule="evenodd" d="M84.582 513.834L278.204 408.962L327.527 373.771L272.354 399.099L84.582 513.834Z" fill="#FF9500" stroke="#FF9500" stroke-width="1.34201"/>
  <path fill-rule="evenodd" d="M52.4883 439.766L267.818 387.79L324.571 366.571L264.725 376.749L52.4883 439.766Z" fill="#FF9500" stroke="#FF9500" stroke-width="1.34201"/>
  <path fill-rule="evenodd" d="M42.5215 359.331L263.261 364.655L323.576 358.843L263.127 353.193L42.5215 359.331Z" fill="#FF9500" stroke="#FF9500" stroke-width="1.34201"/>
  <path fill-rule="evenodd" d="M53.002 280.342L264.846 341.128L324.605 351.125L267.69 330.021L53.002 280.342Z" fill="#FF9500" stroke="#FF9500" stroke-width="1.34201"/>
  <path fill-rule="evenodd" d="M84.6504 205.815L272.47 318.817L327.605 343.943L278.091 308.82L84.6504 205.815Z" fill="#FF9500" stroke="#FF9500" stroke-width="1.34201"/>
  <path fill-rule="evenodd" d="M133.936 141.267L285.608 299.235L332.365 337.777L293.623 291.029L133.936 141.267Z" fill="#FF9500" stroke="#FF9500" stroke-width="1.34201"/>
  <path fill-rule="evenodd" d="M197.545 92.9669L303.362 283.722L338.551 333.056L313.234 277.872L197.545 92.9669Z" fill="#FF9500" stroke="#FF9500" stroke-width="1.34201"/>
  <path fill-rule="evenodd" d="M272.078 62.3058L324.532 273.333L345.751 330.087L335.572 270.24L272.078 62.3058Z" fill="#FF9500" stroke="#FF9500" stroke-width="1.34201"/>
  <path d="M512.625 409.46C485.5 497.361 392.244 546.626 304.336 519.499C216.469 492.375 167.2 399.116 194.33 311.221C221.446 223.309 314.696 174.033 402.579 201.159C490.482 228.285 539.75 321.554 512.625 409.46Z" fill="white"/>
  <path d="M194.173 310.939C221.288 223.028 314.539 173.752 402.422 200.877C490.325 228.003 539.593 321.272 512.468 409.178C485.343 497.078 392.087 546.344 304.179 519.218C216.312 492.094 167.043 398.835 194.173 310.939ZM343.322 280.843C339.4 279.72 335.55 278.611 331.817 277.462L331.844 277.369L307.018 269.698L301.089 288.927C301.159 288.947 314.454 292.774 314.164 292.952C321.455 295.205 322.527 300.17 322.085 304.036L311.688 337.729C312.191 337.888 312.841 338.111 313.553 338.442L311.655 337.858L297.08 385.056C296.052 387.252 293.574 390.495 288.477 388.932C288.636 389.204 275.403 384.893 275.392 384.89L265.18 405.29L288.612 412.52C292.97 413.87 297.237 415.268 301.435 416.594L292.211 446.514L310.192 452.065L319.33 422.471C324.231 424.096 328.997 425.61 333.663 427.045L324.564 456.502L342.566 462.056L351.786 432.199C382.586 439.803 406.127 438.715 417.518 411.11C426.704 388.88 419.095 375.347 403.188 365.914C415.266 363.81 424.687 356.46 427.976 340.387C432.5 318.432 416.301 305.604 393.692 296.396L402.819 266.821L384.812 261.268L375.927 290.063C371.199 288.604 366.333 287.205 361.497 285.817L370.445 256.831L352.453 251.278L343.322 280.843ZM338.696 361.19C350.899 364.96 390.228 373.257 383.048 396.572C376.154 418.928 338.67 404.579 326.461 400.82L338.696 361.19ZM355.382 307.105C365.549 310.241 398.474 316.862 391.925 338.074C385.643 358.409 354.456 346.185 344.288 343.049L355.382 307.105Z" fill="#FF9500"/>
</svg>