<svg width="1382" height="326" viewBox="0 0 1382 326" fill="none" xmlns="http://www.w3.org/2000/svg">
<path d="M70.3781 279.813C61.3858 279.792 52.1699 279.397 42.7303 278.626C33.2907 277.856 24.7517 276.638 17.1132 274.972L53.5351 124.433C62.0827 122.804 71.0034 121.7 80.2971 121.121C89.7408 120.543 98.3593 120.262 106.153 120.28C115.145 120.3 122.86 121.292 129.299 123.255C135.888 125.068 141.201 127.553 145.238 130.709C149.425 133.866 152.486 137.619 154.421 141.97C156.506 146.171 157.542 150.67 157.528 155.465C157.518 158.763 157.133 162.209 156.373 165.804C155.762 169.399 154.403 172.993 152.294 176.585C150.335 180.028 147.552 183.319 143.946 186.458C140.49 189.598 135.91 192.435 130.207 194.97C136.942 197.983 141.876 202.115 145.007 207.368C148.139 212.47 149.696 218.169 149.677 224.464C149.655 231.657 148.21 238.623 145.343 245.361C142.475 251.949 137.886 257.858 131.576 263.09C125.266 268.171 117.086 272.274 107.035 275.399C96.9846 278.374 84.7656 279.845 70.3781 279.813ZM67.4417 209.666L57.6534 250.109C60.0499 250.564 63.0462 250.946 66.6422 251.254C70.3885 251.412 73.8353 251.495 76.9826 251.502C81.4787 251.512 85.9008 251.222 90.2489 250.632C94.7472 249.893 98.7226 248.628 102.175 246.837C105.777 245.047 108.707 242.581 110.965 239.439C113.222 236.296 114.359 232.252 114.373 227.307C114.38 225.208 113.936 223.109 113.043 221.009C112.3 218.909 111.032 217.033 109.239 215.38C107.445 213.728 105.051 212.373 102.057 211.318C99.2127 210.262 95.7672 209.73 91.7207 209.721L67.4417 209.666ZM74.0401 183.379L96.0711 183.428C105.063 183.448 111.738 181.515 116.096 177.628C120.604 173.742 122.866 169.101 122.883 163.705C122.891 160.858 122.224 158.458 120.881 156.507C119.688 154.406 118.045 152.754 115.95 151.55C113.855 150.347 111.46 149.517 108.764 149.061C106.068 148.456 103.296 148.15 100.449 148.143C97.3013 148.136 93.9287 148.278 90.3309 148.57C86.7336 148.712 84.0352 148.931 82.2359 149.226L74.0401 183.379ZM197.22 278.074L163.949 278L192.405 159.815L225.901 159.89L197.22 278.074ZM213.805 145.476C209.159 145.465 204.967 144.107 201.228 141.401C197.49 138.545 195.63 134.269 195.647 128.574C195.656 125.427 196.264 122.506 197.471 119.811C198.829 116.966 200.56 114.572 202.664 112.629C204.768 110.535 207.171 108.892 209.872 107.699C212.723 106.507 215.723 105.914 218.87 105.921C223.516 105.931 227.708 107.365 231.446 110.221C235.185 112.927 237.046 117.127 237.029 122.822C237.019 125.97 236.336 128.965 234.978 131.81C233.771 134.505 232.115 136.899 230.011 138.993C227.907 140.936 225.429 142.504 222.578 143.697C219.877 144.89 216.953 145.483 213.805 145.476ZM260.206 130.518L295.067 125.201L286.42 160.027L323.738 160.11L316.911 187.522L279.818 187.438L269.802 228.78C268.893 232.225 268.284 235.446 267.975 238.443C267.816 241.44 268.183 244.063 269.075 246.313C270.118 248.414 271.836 250.066 274.231 251.271C276.625 252.475 279.92 253.082 284.117 253.091C287.714 253.1 291.162 252.808 294.461 252.216C297.91 251.474 301.36 250.508 304.81 249.316L307.206 274.95C302.705 276.588 297.83 278.001 292.581 279.188C287.332 280.375 281.111 280.961 273.917 280.945C263.576 280.921 255.562 279.405 249.876 276.394C244.19 273.234 240.157 269.029 237.774 263.778C235.393 258.377 234.362 252.23 234.683 245.337C235.003 238.444 236.074 231.177 237.895 223.538L260.206 130.518ZM324.731 231.152C324.761 220.961 326.439 211.373 329.763 202.388C333.087 193.403 337.832 185.545 343.997 178.815C350.162 172.085 357.596 166.781 366.301 162.904C375.155 159.027 384.977 157.101 395.768 157.125C402.512 157.14 408.505 157.828 413.746 159.189C419.138 160.4 424.004 162.059 428.344 164.167L416.8 190.219C413.806 189.013 410.662 187.957 407.368 187.051C404.224 185.994 400.328 185.461 395.682 185.451C384.442 185.425 375.588 189.227 369.121 196.856C362.654 204.335 359.401 214.594 359.362 227.633C359.339 235.276 360.969 241.499 364.251 246.303C367.534 250.956 373.597 253.293 382.44 253.313C386.786 253.322 390.984 252.882 395.033 251.992C399.082 251.102 402.682 249.986 405.834 248.644L408.226 275.402C404.025 277.041 399.374 278.454 394.275 279.642C389.325 280.979 383.254 281.64 376.06 281.624C366.768 281.603 358.904 280.236 352.467 277.524C346.031 274.812 340.721 271.203 336.539 266.698C332.356 262.042 329.3 256.64 327.37 250.491C325.59 244.342 324.71 237.896 324.731 231.152ZM473.643 281.843C465.7 281.825 458.81 280.611 452.972 278.2C447.134 275.789 442.273 272.406 438.39 268.051C434.656 263.696 431.824 258.594 429.893 252.745C427.963 246.746 427.009 240.149 427.03 232.955C427.057 223.963 428.508 214.974 431.383 205.988C434.407 197.003 438.778 188.92 444.494 181.739C450.211 174.558 457.198 168.728 465.454 164.251C473.711 159.623 483.16 157.322 493.801 157.346C501.594 157.363 508.409 158.577 514.247 160.988C520.235 163.4 525.095 166.783 528.829 171.138C532.713 175.493 535.62 180.67 537.55 186.669C539.481 192.518 540.435 199.04 540.414 206.233C540.387 215.226 538.936 224.215 536.061 233.201C533.187 242.186 528.966 250.27 523.399 257.451C517.832 264.633 510.845 270.537 502.439 275.164C494.182 279.641 484.584 281.868 473.643 281.843ZM490.568 185.664C485.622 185.653 481.272 187.067 477.517 189.906C473.761 192.745 470.603 196.335 468.042 200.675C465.481 205.016 463.519 209.807 462.154 215.05C460.94 220.143 460.326 225.012 460.312 229.658C460.289 237.301 461.47 243.224 463.855 247.426C466.241 251.478 470.581 253.511 476.876 253.525C481.821 253.536 486.172 252.122 489.927 249.283C493.683 246.444 496.841 242.854 499.402 238.513C501.962 234.173 503.85 229.456 505.064 224.363C506.429 219.121 507.118 214.177 507.132 209.531C507.155 201.887 505.974 196.04 503.588 191.988C501.203 187.786 496.863 185.678 490.568 185.664ZM582.508 278.941L549.237 278.866L577.693 160.681L611.189 160.757L582.508 278.941ZM599.093 146.342C594.447 146.331 590.255 144.973 586.516 142.267C582.778 139.411 580.917 135.136 580.934 129.441C580.944 126.293 581.552 123.372 582.759 120.677C584.116 117.833 585.847 115.439 587.951 113.495C590.056 111.402 592.459 109.758 595.16 108.565C598.011 107.373 601.01 106.78 604.158 106.787C608.804 106.798 612.996 108.231 616.734 111.087C620.472 113.793 622.333 117.994 622.316 123.689C622.307 126.836 621.623 129.832 620.266 132.676C619.059 135.371 617.403 137.765 615.298 139.859C613.194 141.803 610.717 143.371 607.866 144.563C605.164 145.756 602.24 146.349 599.093 146.342ZM640.443 166.218C642.993 165.474 645.768 164.656 648.769 163.764C651.919 162.722 655.369 161.83 659.118 161.089C663.017 160.199 667.29 159.534 671.938 159.095C676.735 158.506 682.132 158.219 688.126 158.232C705.811 158.272 717.935 163.395 724.499 173.601C731.063 183.807 732.145 197.747 727.745 215.422L712.267 279.233L678.771 279.157L693.796 216.695C694.707 212.8 695.392 209.055 695.853 205.459C696.463 201.714 696.473 198.491 695.882 195.792C695.291 192.943 693.874 190.692 691.631 189.039C689.538 187.235 686.244 186.329 681.747 186.319C677.401 186.309 672.979 186.748 668.48 187.638L646.399 279.084L612.902 279.009L640.443 166.218ZM875.081 140.443C875.362 146.588 875.716 153.558 876.142 161.352C876.718 169.147 877.293 177.241 877.868 185.636C878.592 193.88 879.317 202.125 880.041 210.369C880.766 218.614 881.492 226.259 882.221 233.304C886.14 225.67 890.136 217.436 894.21 208.603C898.283 199.769 902.357 190.636 906.432 181.204C910.506 171.771 914.507 162.188 918.433 152.455C922.509 142.723 926.359 133.215 929.984 123.931L967.077 124.014C955.301 152.463 943.305 179.563 931.088 205.313C918.871 230.914 905.758 255.688 891.748 279.636L858.926 279.562C857.752 271.317 856.652 263.446 855.625 255.95C854.749 248.305 853.872 240.809 852.995 233.464C852.268 226.118 851.541 218.698 850.814 211.203C850.237 203.708 849.661 195.913 849.086 187.819C840.495 203.686 831.981 219.253 823.542 234.521C815.254 249.64 806.366 264.607 796.88 279.423L764.058 279.349C762.901 265.408 762.043 251.618 761.485 237.979C761.076 224.339 760.893 210.476 760.935 196.388C760.972 184.249 761.233 172.185 761.719 160.196C762.205 148.057 762.841 135.844 763.627 123.557L798.922 123.636C798.133 136.823 797.345 149.785 796.557 162.522C795.92 175.11 795.58 188.223 795.539 201.861C795.524 206.957 795.508 212.127 795.493 217.373C795.477 222.618 795.611 227.864 795.895 233.11C800.113 225.776 804.558 217.993 809.229 209.76C813.9 201.528 818.495 193.295 823.016 185.063C827.537 176.83 831.832 168.896 835.902 161.262C839.972 153.478 843.44 146.517 846.306 140.378L875.081 140.443ZM1057.36 228.977C1055.24 237.515 1054.61 246.131 1055.49 254.826C1056.36 263.37 1058.06 271.018 1060.59 277.768L1030.68 281.972C1029.78 280.171 1028.96 278.446 1028.22 276.796C1027.47 275.145 1026.73 273.27 1025.99 271.17C1021.78 274.608 1017.13 277.445 1012.02 279.682C1006.92 281.918 1001.22 283.03 994.928 283.015C987.434 282.999 980.994 281.71 975.606 279.15C970.369 276.441 966.033 272.909 962.599 268.555C959.315 264.052 956.933 258.876 955.452 253.027C953.971 247.029 953.241 240.658 953.261 233.914C953.292 223.573 955.12 213.835 958.745 204.701C962.519 195.567 967.638 187.636 974.103 180.906C980.718 174.027 988.453 168.649 997.307 164.772C1006.16 160.895 1015.76 158.969 1026.1 158.992C1027.45 158.995 1029.77 159.075 1033.07 159.232C1036.51 159.39 1040.41 159.774 1044.75 160.383C1049.1 160.842 1053.67 161.677 1058.46 162.886C1063.25 164.096 1067.82 165.755 1072.16 167.863L1057.36 228.977ZM1034.11 187.56C1032.16 187.256 1030.36 187.027 1028.71 186.874C1027.21 186.721 1025.34 186.642 1023.09 186.636C1018 186.625 1013.2 187.888 1008.69 190.426C1004.34 192.964 1000.51 196.327 997.199 200.516C993.89 204.555 991.253 209.27 989.288 214.661C987.474 220.053 986.558 225.671 986.54 231.516C986.518 238.709 987.7 244.407 990.086 248.609C992.471 252.811 996.886 254.919 1003.33 254.933C1006.78 254.941 1009.85 254.274 1012.55 252.931C1015.4 251.588 1018.41 249.347 1021.57 246.207C1021.88 242.461 1022.34 238.565 1022.95 234.52C1023.71 230.325 1024.47 226.505 1025.23 223.06L1034.11 187.56ZM1127.54 282.414C1116.9 282.39 1108.51 281.023 1102.38 278.311C1096.39 275.45 1092.05 271.619 1089.37 266.817C1086.84 262.015 1085.58 256.542 1085.6 250.397C1085.77 244.103 1086.69 237.436 1088.36 230.396L1117.27 111.088L1152.13 105.771L1120.49 235.189C1119.88 237.885 1119.5 240.357 1119.34 242.605C1119.34 244.853 1119.78 246.877 1120.67 248.678C1121.57 250.328 1123.06 251.681 1125.16 252.734C1127.4 253.789 1130.47 254.47 1134.37 254.778L1127.54 282.414ZM1257.58 229.427C1255.46 237.965 1254.83 246.582 1255.7 255.276C1256.58 263.821 1258.28 271.468 1260.81 278.218L1230.89 282.422C1230 280.621 1229.18 278.896 1228.44 277.246C1227.69 275.596 1226.95 273.72 1226.2 271.621C1222 275.058 1217.34 277.895 1212.24 280.132C1207.14 282.368 1201.44 283.48 1195.15 283.466C1187.65 283.449 1181.21 282.16 1175.82 279.6C1170.59 276.891 1166.25 273.359 1162.82 269.005C1159.53 264.502 1157.15 259.326 1155.67 253.477C1154.19 247.479 1153.46 241.108 1153.48 234.364C1153.51 224.023 1155.34 214.285 1158.96 205.151C1162.74 196.018 1167.86 188.086 1174.32 181.356C1180.94 174.477 1188.67 169.099 1197.52 165.222C1206.38 161.346 1215.98 159.419 1226.32 159.442C1227.67 159.445 1229.99 159.525 1233.29 159.683C1236.73 159.84 1240.63 160.224 1244.97 160.833C1249.32 161.292 1253.89 162.127 1258.68 163.337C1263.47 164.546 1268.04 166.205 1272.38 168.313L1257.58 229.427ZM1234.32 188.011C1232.38 187.707 1230.58 187.478 1228.93 187.324C1227.43 187.171 1225.56 187.092 1223.31 187.087C1218.22 187.075 1213.42 188.338 1208.91 190.876C1204.56 193.414 1200.73 196.778 1197.42 200.966C1194.11 205.006 1191.47 209.721 1189.51 215.112C1187.69 220.503 1186.78 226.121 1186.76 231.966C1186.74 239.16 1187.92 244.857 1190.3 249.059C1192.69 253.261 1197.1 255.369 1203.55 255.384C1207 255.391 1210.07 254.724 1212.77 253.381C1215.62 252.039 1218.63 249.797 1221.78 246.657C1222.09 242.911 1222.56 239.015 1223.17 234.97C1223.93 230.776 1224.69 226.956 1225.45 223.51L1234.32 188.011Z" fill="white"/>
<path d="M1295.77 6.41113L1285.69 47.8262C1292.43 49.4026 1299.2 50.9927 1305.8 52.6738L1315.8 11.5312L1340.89 17.9414L1330.61 60.2012C1362.29 71.3833 1385.46 88.153 1380.9 119.349C1377.61 142.187 1365.26 153.245 1348.87 157.116C1371.38 169.135 1382.83 187.558 1371.92 219.5C1358.38 259.171 1326.21 262.52 1283.43 254.219L1262.67 249.412L1267.98 217.585C1289.89 222.304 1318.06 224.506 1323.58 201.768C1330.2 174.557 1295.03 163.824 1272.66 158.433C1269.41 157.075 1266.04 155.954 1262.55 155.073C1257.75 153.864 1253.19 153.03 1248.84 152.57C1244.5 151.961 1240.6 151.578 1237.15 151.42C1233.86 151.263 1231.53 151.182 1230.19 151.179C1224.75 151.167 1219.53 151.693 1214.51 152.757L1221.36 124.608L1233.06 76.4688C1233.37 71.0067 1231.53 64.1147 1221.37 61.5127C1221.76 61.2405 1203.15 56.8662 1203.15 56.8662L1209.82 29.3887L1244.42 38.248L1244.39 38.3809C1249.6 39.7063 1254.95 40.9686 1260.42 42.2451L1270.7 0L1295.77 6.41113ZM1227.18 178.823C1229.43 178.828 1231.3 178.908 1232.8 179.062C1234.45 179.215 1236.25 179.444 1238.19 179.748L1235.9 188.926H1205.71L1206.03 187.584C1208.12 185.674 1210.37 184.017 1212.78 182.613C1217.28 180.076 1222.08 178.812 1227.18 178.823ZM1266.44 129.562C1280.61 133.182 1324.27 147.942 1331.34 118.889C1338.71 88.5789 1293.09 81.8265 1278.94 78.2061L1266.44 129.562Z" fill="white"/>
</svg>
