<svg xmlns="http://www.w3.org/2000/svg" xmlns:xlink="http://www.w3.org/1999/xlink" width="400" zoomAndPan="magnify" viewBox="0 0 300 299.999988" height="400" preserveAspectRatio="xMidYMid meet" version="1.0"><defs><g/><clipPath id="acb8f6fa07"><path d="M 0 0 L 300 0 L 300 300 L 0 300 Z M 0 0 " clip-rule="nonzero"/></clipPath><clipPath id="aaa6898a64"><rect x="0" width="226" y="0" height="200"/></clipPath><clipPath id="95e8db44db"><path d="M 0 19 L 4 19 L 4 280 L 0 280 Z M 0 19 " clip-rule="nonzero"/></clipPath><clipPath id="76dc2478c0"><path d="M 0 19 L 236 19 L 236 24 L 0 24 Z M 0 19 " clip-rule="nonzero"/></clipPath><clipPath id="845185f45c"><path d="M 0 273 L 278 273 L 278 278 L 0 278 Z M 0 273 " clip-rule="nonzero"/></clipPath><clipPath id="9a5322f3c3"><rect x="0" width="300" y="0" height="300"/></clipPath></defs><rect x="-30" width="360" fill="#ffffff" y="-29.999999" height="359.999986" fill-opacity="1"/><g transform="matrix(1, 0, 0, 1, 0, 0)"><g clip-path="url(#9a5322f3c3)"><g clip-path="url(#acb8f6fa07)"><rect x="-66" width="432" fill="#fffcfa" height="431.999983" y="-65.999997" fill-opacity="1"/></g><g transform="matrix(1, 0, 0, 1, 28, 48)"><g clip-path="url(#aaa6898a64)"><g fill="#000000" fill-opacity="1"><g transform="translate(1.292982, 58.702115)"><g><path d="M 1.90625 -0.015625 L 1.890625 -2.328125 C 3.191406 -2.367188 4.238281 -2.488281 5.03125 -2.6875 C 5.820312 -2.882812 6.4375 -3.21875 6.875 -3.6875 C 7.3125 -4.15625 7.601562 -4.8125 7.75 -5.65625 C 7.894531 -6.5 7.960938 -7.597656 7.953125 -8.953125 L 7.734375 -35.609375 C 7.722656 -36.953125 7.65625 -38.035156 7.53125 -38.859375 C 7.414062 -39.691406 7.171875 -40.34375 6.796875 -40.8125 C 6.429688 -41.289062 5.929688 -41.613281 5.296875 -41.78125 C 4.660156 -41.945312 3.820312 -42.070312 2.78125 -42.15625 L 2.765625 -44.46875 L 21.296875 -44.609375 C 27.109375 -44.648438 31.582031 -43.75 34.71875 -41.90625 C 37.863281 -40.0625 39.453125 -37.410156 39.484375 -33.953125 C 39.523438 -29.378906 36.265625 -26.125 29.703125 -24.1875 L 29.703125 -23.953125 C 31.816406 -23.972656 33.734375 -23.6875 35.453125 -23.09375 C 37.171875 -22.507812 38.628906 -21.6875 39.828125 -20.625 C 41.035156 -19.5625 41.96875 -18.300781 42.625 -16.84375 C 43.289062 -15.382812 43.628906 -13.789062 43.640625 -12.0625 C 43.660156 -10.09375 43.203125 -8.375 42.265625 -6.90625 C 41.335938 -5.445312 39.992188 -4.207031 38.234375 -3.1875 C 34.828125 -1.238281 30.125 -0.238281 24.125 -0.1875 Z M 24.5 -3.703125 C 30.6875 -3.753906 33.757812 -6.570312 33.71875 -12.15625 C 33.6875 -15.570312 32.550781 -18.0625 30.3125 -19.625 C 29.15625 -20.414062 27.660156 -20.976562 25.828125 -21.3125 C 23.992188 -21.65625 21.75 -21.816406 19.09375 -21.796875 L 16.328125 -21.765625 L 16.421875 -10.21875 C 16.441406 -7.832031 17.070312 -6.144531 18.3125 -5.15625 C 19.550781 -4.164062 21.613281 -3.679688 24.5 -3.703125 Z M 19.703125 -25.25 C 21.429688 -25.257812 22.929688 -25.429688 24.203125 -25.765625 C 25.472656 -26.109375 26.546875 -26.59375 27.421875 -27.21875 C 29.253906 -28.5 30.160156 -30.488281 30.140625 -33.1875 C 30.117188 -35.988281 29.410156 -38.007812 28.015625 -39.25 C 26.617188 -40.488281 24.382812 -41.097656 21.3125 -41.078125 L 17.21875 -41.046875 C 16.519531 -41.035156 16.175781 -40.707031 16.1875 -40.0625 L 16.296875 -25.21875 Z M 19.703125 -25.25 "/></g></g></g><g fill="#000000" fill-opacity="1"><g transform="translate(47.275379, 58.340001)"><g><path d="M 14.75 -9.578125 C 14.757812 -8.035156 14.828125 -6.804688 14.953125 -5.890625 C 15.078125 -4.972656 15.316406 -4.265625 15.671875 -3.765625 C 16.023438 -3.265625 16.523438 -2.925781 17.171875 -2.75 C 17.828125 -2.582031 18.710938 -2.488281 19.828125 -2.46875 L 19.84375 -0.15625 L 1.671875 -0.015625 L 1.65625 -2.328125 C 2.738281 -2.367188 3.613281 -2.5 4.28125 -2.71875 C 4.945312 -2.9375 5.460938 -3.285156 5.828125 -3.765625 C 6.191406 -4.242188 6.4375 -4.914062 6.5625 -5.78125 C 6.6875 -6.65625 6.742188 -7.765625 6.734375 -9.109375 L 6.6875 -16.203125 C 6.664062 -18.429688 6.609375 -20.265625 6.515625 -21.703125 C 6.429688 -23.148438 6.332031 -24.144531 6.21875 -24.6875 C 6.007812 -25.644531 5.566406 -26.273438 4.890625 -26.578125 C 4.210938 -26.878906 2.988281 -27.023438 1.21875 -27.015625 L 1.203125 -28.984375 L 14.578125 -31.265625 Z M 6 -43.4375 C 5.988281 -44.707031 6.410156 -45.78125 7.265625 -46.65625 C 8.128906 -47.53125 9.179688 -47.96875 10.421875 -47.96875 C 11.679688 -47.976562 12.75 -47.554688 13.625 -46.703125 C 14.5 -45.847656 14.941406 -44.785156 14.953125 -43.515625 C 14.960938 -42.285156 14.535156 -41.234375 13.671875 -40.359375 C 12.804688 -39.484375 11.742188 -39.039062 10.484375 -39.03125 C 9.242188 -39.03125 8.1875 -39.457031 7.3125 -40.3125 C 6.445312 -41.164062 6.007812 -42.207031 6 -43.4375 Z M 6 -43.4375 "/></g></g></g><g fill="#000000" fill-opacity="1"><g transform="translate(68.103044, 58.175981)"><g><path d="M 1.21875 -27.421875 L 1.203125 -30.015625 C 3.503906 -30.679688 5.425781 -31.6875 6.96875 -33.03125 C 8.519531 -34.375 9.675781 -35.910156 10.4375 -37.640625 L 13.375 -37.671875 L 13.4375 -30.6875 L 20.078125 -30.734375 L 20.09375 -27.5625 L 13.453125 -27.515625 L 13.59375 -9.796875 C 13.613281 -7.410156 13.882812 -5.71875 14.40625 -4.71875 C 14.9375 -3.726562 15.816406 -3.238281 17.046875 -3.25 C 18.546875 -3.257812 19.675781 -3.957031 20.4375 -5.34375 L 21.671875 -3.6875 C 20.609375 -0.945312 18.078125 0.4375 14.078125 0.46875 C 11.421875 0.488281 9.347656 -0.109375 7.859375 -1.328125 C 6.367188 -2.546875 5.617188 -4.273438 5.609375 -6.515625 L 5.4375 -27.453125 Z M 1.21875 -27.421875 "/></g></g></g><g fill="#000000" fill-opacity="1"><g transform="translate(90.142288, 58.002421)"><g><path d="M 30.4375 -5.03125 C 28.988281 -3.394531 27.175781 -2.128906 25 -1.234375 C 22.832031 -0.335938 20.484375 0.117188 17.953125 0.140625 C 15.597656 0.160156 13.457031 -0.191406 11.53125 -0.921875 C 9.601562 -1.660156 7.941406 -2.695312 6.546875 -4.03125 C 5.148438 -5.363281 4.066406 -6.976562 3.296875 -8.875 C 2.535156 -10.78125 2.144531 -12.882812 2.125 -15.1875 C 2.113281 -17.570312 2.503906 -19.75 3.296875 -21.71875 C 4.085938 -23.6875 5.207031 -25.378906 6.65625 -26.796875 C 8.101562 -28.210938 9.84375 -29.3125 11.875 -30.09375 C 13.90625 -30.882812 16.15625 -31.289062 18.625 -31.3125 C 20.351562 -31.320312 21.957031 -31.160156 23.4375 -30.828125 C 24.925781 -30.492188 26.203125 -30.023438 27.265625 -29.421875 C 28.328125 -28.816406 29.164062 -28.101562 29.78125 -27.28125 C 30.40625 -26.457031 30.722656 -25.5625 30.734375 -24.59375 C 30.742188 -23.476562 30.4375 -22.59375 29.8125 -21.9375 C 29.1875 -21.28125 28.332031 -20.945312 27.25 -20.9375 C 26.363281 -20.925781 25.582031 -21.144531 24.90625 -21.59375 C 24.226562 -22.050781 23.554688 -22.800781 22.890625 -23.84375 C 22.304688 -24.757812 21.8125 -25.484375 21.40625 -26.015625 C 21 -26.554688 20.617188 -26.96875 20.265625 -27.25 C 19.921875 -27.539062 19.570312 -27.734375 19.21875 -27.828125 C 18.875 -27.921875 18.453125 -27.960938 17.953125 -27.953125 C 15.722656 -27.929688 14 -26.878906 12.78125 -24.796875 C 11.570312 -22.710938 10.984375 -19.804688 11.015625 -16.078125 C 11.046875 -12.078125 11.804688 -9.003906 13.296875 -6.859375 C 14.796875 -4.710938 16.929688 -3.648438 19.703125 -3.671875 C 21.273438 -3.679688 22.847656 -3.992188 24.421875 -4.609375 C 25.992188 -5.222656 27.488281 -6.09375 28.90625 -7.21875 Z M 30.4375 -5.03125 "/></g></g></g><g fill="#000000" fill-opacity="1"><g transform="translate(122.681899, 57.746169)"><g><path d="M 18.671875 -31.3125 C 20.984375 -31.320312 23.171875 -30.941406 25.234375 -30.171875 C 27.296875 -29.398438 29.113281 -28.328125 30.6875 -26.953125 C 32.257812 -25.585938 33.503906 -23.953125 34.421875 -22.046875 C 35.335938 -20.148438 35.804688 -18.066406 35.828125 -15.796875 C 35.847656 -13.453125 35.410156 -11.296875 34.515625 -9.328125 C 33.628906 -7.359375 32.410156 -5.65625 30.859375 -4.21875 C 29.316406 -2.78125 27.519531 -1.648438 25.46875 -0.828125 C 23.414062 -0.00390625 21.234375 0.410156 18.921875 0.421875 C 16.648438 0.441406 14.492188 0.0664062 12.453125 -0.703125 C 10.410156 -1.472656 8.613281 -2.5625 7.0625 -3.96875 C 5.519531 -5.382812 4.296875 -7.078125 3.390625 -9.046875 C 2.492188 -11.023438 2.035156 -13.1875 2.015625 -15.53125 C 1.992188 -17.800781 2.421875 -19.898438 3.296875 -21.828125 C 4.171875 -23.765625 5.367188 -25.429688 6.890625 -26.828125 C 8.410156 -28.222656 10.1875 -29.3125 12.21875 -30.09375 C 14.25 -30.882812 16.398438 -31.289062 18.671875 -31.3125 Z M 18.703125 -27.96875 C 17.554688 -27.957031 16.503906 -27.648438 15.546875 -27.046875 C 14.585938 -26.441406 13.773438 -25.597656 13.109375 -24.515625 C 12.453125 -23.429688 11.941406 -22.128906 11.578125 -20.609375 C 11.222656 -19.085938 11.050781 -17.40625 11.0625 -15.5625 C 11.082031 -13.632812 11.28125 -11.898438 11.65625 -10.359375 C 12.039062 -8.828125 12.570312 -7.523438 13.25 -6.453125 C 13.9375 -5.378906 14.753906 -4.546875 15.703125 -3.953125 C 16.648438 -3.367188 17.71875 -3.082031 18.90625 -3.09375 C 20.101562 -3.09375 21.1875 -3.394531 22.15625 -4 C 23.132812 -4.613281 23.960938 -5.46875 24.640625 -6.5625 C 25.328125 -7.664062 25.859375 -8.988281 26.234375 -10.53125 C 26.609375 -12.082031 26.785156 -13.800781 26.765625 -15.6875 C 26.753906 -17.53125 26.550781 -19.195312 26.15625 -20.6875 C 25.757812 -22.1875 25.207031 -23.484375 24.5 -24.578125 C 23.800781 -25.671875 22.957031 -26.507812 21.96875 -27.09375 C 20.988281 -27.675781 19.898438 -27.96875 18.703125 -27.96875 Z M 18.703125 -27.96875 "/></g></g></g><g fill="#000000" fill-opacity="1"><g transform="translate(160.760185, 57.446301)"><g><path d="M 14.75 -9.578125 C 14.757812 -8.035156 14.828125 -6.804688 14.953125 -5.890625 C 15.078125 -4.972656 15.316406 -4.265625 15.671875 -3.765625 C 16.023438 -3.265625 16.523438 -2.925781 17.171875 -2.75 C 17.828125 -2.582031 18.710938 -2.488281 19.828125 -2.46875 L 19.84375 -0.15625 L 1.671875 -0.015625 L 1.65625 -2.328125 C 2.738281 -2.367188 3.613281 -2.5 4.28125 -2.71875 C 4.945312 -2.9375 5.460938 -3.285156 5.828125 -3.765625 C 6.191406 -4.242188 6.4375 -4.914062 6.5625 -5.78125 C 6.6875 -6.65625 6.742188 -7.765625 6.734375 -9.109375 L 6.6875 -16.203125 C 6.664062 -18.429688 6.609375 -20.265625 6.515625 -21.703125 C 6.429688 -23.148438 6.332031 -24.144531 6.21875 -24.6875 C 6.007812 -25.644531 5.566406 -26.273438 4.890625 -26.578125 C 4.210938 -26.878906 2.988281 -27.023438 1.21875 -27.015625 L 1.203125 -28.984375 L 14.578125 -31.265625 Z M 6 -43.4375 C 5.988281 -44.707031 6.410156 -45.78125 7.265625 -46.65625 C 8.128906 -47.53125 9.179688 -47.96875 10.421875 -47.96875 C 11.679688 -47.976562 12.75 -47.554688 13.625 -46.703125 C 14.5 -45.847656 14.941406 -44.785156 14.953125 -43.515625 C 14.960938 -42.285156 14.535156 -41.234375 13.671875 -40.359375 C 12.804688 -39.484375 11.742188 -39.039062 10.484375 -39.03125 C 9.242188 -39.03125 8.1875 -39.457031 7.3125 -40.3125 C 6.445312 -41.164062 6.007812 -42.207031 6 -43.4375 Z M 6 -43.4375 "/></g></g></g><g fill="#000000" fill-opacity="1"><g transform="translate(181.587849, 57.282281)"><g><path d="M 14.75 -9.515625 C 14.757812 -7.941406 14.816406 -6.703125 14.921875 -5.796875 C 15.035156 -4.898438 15.253906 -4.210938 15.578125 -3.734375 C 15.910156 -3.253906 16.414062 -2.9375 17.09375 -2.78125 C 17.769531 -2.632812 18.679688 -2.53125 19.828125 -2.46875 L 19.84375 -0.15625 L 1.671875 -0.015625 L 1.65625 -2.328125 C 2.769531 -2.410156 3.660156 -2.53125 4.328125 -2.6875 C 5.003906 -2.851562 5.523438 -3.164062 5.890625 -3.625 C 6.253906 -4.082031 6.488281 -4.734375 6.59375 -5.578125 C 6.707031 -6.429688 6.753906 -7.585938 6.734375 -9.046875 L 6.6875 -16.265625 C 6.664062 -18.535156 6.609375 -20.367188 6.515625 -21.765625 C 6.429688 -23.171875 6.332031 -24.125 6.21875 -24.625 C 6.09375 -25.125 5.929688 -25.535156 5.734375 -25.859375 C 5.546875 -26.191406 5.253906 -26.441406 4.859375 -26.609375 C 4.472656 -26.773438 3.988281 -26.882812 3.40625 -26.9375 C 2.832031 -26.988281 2.101562 -27.015625 1.21875 -27.015625 L 1.203125 -28.984375 L 12.328125 -31.25 L 13.125 -26.1875 L 13.359375 -26.1875 C 14.617188 -27.8125 16.109375 -29.070312 17.828125 -29.96875 C 19.546875 -30.863281 21.445312 -31.320312 23.53125 -31.34375 C 25.988281 -31.363281 27.976562 -31.039062 29.5 -30.375 C 31.03125 -29.71875 32.398438 -28.609375 33.609375 -27.046875 C 34.265625 -26.171875 34.847656 -25.03125 35.359375 -23.625 C 35.867188 -22.21875 36.132812 -20.285156 36.15625 -17.828125 L 36.21875 -9.6875 C 36.226562 -8.113281 36.285156 -6.875 36.390625 -5.96875 C 36.492188 -5.0625 36.710938 -4.367188 37.046875 -3.890625 C 37.378906 -3.421875 37.875 -3.109375 38.53125 -2.953125 C 39.1875 -2.804688 40.070312 -2.703125 41.1875 -2.640625 L 41.203125 -0.328125 L 23.140625 -0.1875 L 23.125 -2.5 C 24.28125 -2.539062 25.191406 -2.648438 25.859375 -2.828125 C 26.535156 -3.015625 27.039062 -3.335938 27.375 -3.796875 C 27.71875 -4.253906 27.945312 -4.914062 28.0625 -5.78125 C 28.175781 -6.644531 28.222656 -7.789062 28.203125 -9.21875 L 28.15625 -17.0625 C 28.132812 -19.03125 28 -20.6875 27.75 -22.03125 C 27.507812 -23.375 27.128906 -24.457031 26.609375 -25.28125 C 26.085938 -26.101562 25.398438 -26.691406 24.546875 -27.046875 C 23.691406 -27.410156 22.628906 -27.585938 21.359375 -27.578125 C 20.128906 -27.566406 19.070312 -27.210938 18.1875 -26.515625 C 17.3125 -25.816406 16.550781 -24.847656 15.90625 -23.609375 C 15.570312 -22.921875 15.28125 -22.023438 15.03125 -20.921875 C 14.789062 -19.816406 14.675781 -18.671875 14.6875 -17.484375 Z M 14.75 -9.515625 "/></g></g></g><g fill="#000000" fill-opacity="1"><g transform="translate(1.786204, 121.333004)"><g><path d="M 16.484375 -9.421875 C 16.492188 -7.953125 16.597656 -6.769531 16.796875 -5.875 C 17.003906 -4.976562 17.40625 -4.289062 18 -3.8125 C 18.601562 -3.332031 19.453125 -3 20.546875 -2.8125 C 21.648438 -2.625 23.125 -2.523438 24.96875 -2.515625 L 24.984375 -0.203125 L 2.015625 -0.015625 L 2 -2.328125 C 3.269531 -2.367188 4.304688 -2.488281 5.109375 -2.6875 C 5.921875 -2.882812 6.535156 -3.21875 6.953125 -3.6875 C 7.367188 -4.15625 7.648438 -4.8125 7.796875 -5.65625 C 7.953125 -6.5 8.023438 -7.597656 8.015625 -8.953125 L 7.796875 -35.609375 C 7.785156 -36.953125 7.707031 -38.035156 7.5625 -38.859375 C 7.425781 -39.691406 7.160156 -40.34375 6.765625 -40.8125 C 6.378906 -41.289062 5.832031 -41.613281 5.125 -41.78125 C 4.414062 -41.945312 3.484375 -42.066406 2.328125 -42.140625 L 2.3125 -44.453125 L 37.625 -44.734375 L 38.40625 -32.546875 L 35.984375 -32.53125 C 35.734375 -34.1875 35.382812 -35.578125 34.9375 -36.703125 C 34.488281 -37.835938 33.859375 -38.757812 33.046875 -39.46875 C 32.234375 -40.175781 31.1875 -40.675781 29.90625 -40.96875 C 28.632812 -41.269531 27.078125 -41.414062 25.234375 -41.40625 L 17.265625 -41.34375 C 16.578125 -41.332031 16.238281 -41 16.25 -40.34375 L 16.375 -23.671875 C 18.71875 -23.691406 20.628906 -23.800781 22.109375 -24 C 23.597656 -24.207031 24.78125 -24.59375 25.65625 -25.15625 C 26.53125 -25.726562 27.15625 -26.492188 27.53125 -27.453125 C 27.914062 -28.410156 28.175781 -29.679688 28.3125 -31.265625 L 30.453125 -31.28125 L 30.59375 -13.21875 L 28.453125 -13.203125 C 28.210938 -14.816406 27.878906 -16.113281 27.453125 -17.09375 C 27.023438 -18.070312 26.375 -18.816406 25.5 -19.328125 C 24.625 -19.835938 23.457031 -20.179688 22 -20.359375 C 20.539062 -20.546875 18.675781 -20.628906 16.40625 -20.609375 Z M 16.484375 -9.421875 "/></g></g></g><g fill="#000000" fill-opacity="1"><g transform="translate(39.345221, 121.037225)"><g><path d="M 18.671875 -31.3125 C 20.984375 -31.320312 23.171875 -30.941406 25.234375 -30.171875 C 27.296875 -29.398438 29.113281 -28.328125 30.6875 -26.953125 C 32.257812 -25.585938 33.503906 -23.953125 34.421875 -22.046875 C 35.335938 -20.148438 35.804688 -18.066406 35.828125 -15.796875 C 35.847656 -13.453125 35.410156 -11.296875 34.515625 -9.328125 C 33.628906 -7.359375 32.410156 -5.65625 30.859375 -4.21875 C 29.316406 -2.78125 27.519531 -1.648438 25.46875 -0.828125 C 23.414062 -0.00390625 21.234375 0.410156 18.921875 0.421875 C 16.648438 0.441406 14.492188 0.0664062 12.453125 -0.703125 C 10.410156 -1.472656 8.613281 -2.5625 7.0625 -3.96875 C 5.519531 -5.382812 4.296875 -7.078125 3.390625 -9.046875 C 2.492188 -11.023438 2.035156 -13.1875 2.015625 -15.53125 C 1.992188 -17.800781 2.421875 -19.898438 3.296875 -21.828125 C 4.171875 -23.765625 5.367188 -25.429688 6.890625 -26.828125 C 8.410156 -28.222656 10.1875 -29.3125 12.21875 -30.09375 C 14.25 -30.882812 16.398438 -31.289062 18.671875 -31.3125 Z M 18.703125 -27.96875 C 17.554688 -27.957031 16.503906 -27.648438 15.546875 -27.046875 C 14.585938 -26.441406 13.773438 -25.597656 13.109375 -24.515625 C 12.453125 -23.429688 11.941406 -22.128906 11.578125 -20.609375 C 11.222656 -19.085938 11.050781 -17.40625 11.0625 -15.5625 C 11.082031 -13.632812 11.28125 -11.898438 11.65625 -10.359375 C 12.039062 -8.828125 12.570312 -7.523438 13.25 -6.453125 C 13.9375 -5.378906 14.753906 -4.546875 15.703125 -3.953125 C 16.648438 -3.367188 17.71875 -3.082031 18.90625 -3.09375 C 20.101562 -3.09375 21.1875 -3.394531 22.15625 -4 C 23.132812 -4.613281 23.960938 -5.46875 24.640625 -6.5625 C 25.328125 -7.664062 25.859375 -8.988281 26.234375 -10.53125 C 26.609375 -12.082031 26.785156 -13.800781 26.765625 -15.6875 C 26.753906 -17.53125 26.550781 -19.195312 26.15625 -20.6875 C 25.757812 -22.1875 25.207031 -23.484375 24.5 -24.578125 C 23.800781 -25.671875 22.957031 -26.507812 21.96875 -27.09375 C 20.988281 -27.675781 19.898438 -27.96875 18.703125 -27.96875 Z M 18.703125 -27.96875 "/></g></g></g><g fill="#000000" fill-opacity="1"><g transform="translate(77.423493, 120.737356)"><g><path d="M 14.8125 -9.0625 C 14.832031 -7.5625 14.910156 -6.378906 15.046875 -5.515625 C 15.191406 -4.648438 15.476562 -3.988281 15.90625 -3.53125 C 16.332031 -3.070312 16.945312 -2.78125 17.75 -2.65625 C 18.5625 -2.53125 19.640625 -2.472656 20.984375 -2.484375 L 21 -0.171875 L 1.734375 -0.015625 L 1.71875 -2.328125 C 2.875 -2.410156 3.796875 -2.53125 4.484375 -2.6875 C 5.179688 -2.851562 5.695312 -3.164062 6.03125 -3.625 C 6.375 -4.082031 6.585938 -4.742188 6.671875 -5.609375 C 6.765625 -6.472656 6.800781 -7.640625 6.78125 -9.109375 L 6.734375 -16.140625 C 6.710938 -18.523438 6.640625 -20.429688 6.515625 -21.859375 C 6.390625 -23.285156 6.128906 -24.378906 5.734375 -25.140625 C 5.347656 -25.910156 4.796875 -26.414062 4.078125 -26.65625 C 3.367188 -26.90625 2.4375 -27.023438 1.28125 -27.015625 L 1.265625 -29.046875 L 12.796875 -31.265625 L 13.78125 -24.640625 L 14 -24.640625 C 15.019531 -26.679688 16.367188 -28.300781 18.046875 -29.5 C 19.734375 -30.707031 21.519531 -31.320312 23.40625 -31.34375 C 24.863281 -31.351562 26.054688 -30.992188 26.984375 -30.265625 C 27.921875 -29.546875 28.394531 -28.628906 28.40625 -27.515625 C 28.414062 -26.285156 28.066406 -25.242188 27.359375 -24.390625 C 26.648438 -23.535156 25.679688 -23.101562 24.453125 -23.09375 C 23.878906 -23.09375 23.359375 -23.203125 22.890625 -23.421875 C 22.429688 -23.648438 22.019531 -23.910156 21.65625 -24.203125 C 21.289062 -24.492188 20.921875 -24.757812 20.546875 -25 C 20.179688 -25.25 19.804688 -25.375 19.421875 -25.375 C 18.679688 -25.363281 17.988281 -24.875 17.34375 -23.90625 C 16.707031 -22.9375 16.179688 -21.644531 15.765625 -20.03125 C 15.472656 -18.875 15.234375 -17.570312 15.046875 -16.125 C 14.867188 -14.6875 14.785156 -13.257812 14.796875 -11.84375 Z M 14.8125 -9.0625 "/></g></g></g><g fill="#000000" fill-opacity="1"><g transform="translate(106.155283, 120.511091)"><g><path d="M 26.65625 -21.34375 C 26.644531 -22.875 26.597656 -24.085938 26.515625 -24.984375 C 26.429688 -25.890625 26.210938 -26.582031 25.859375 -27.0625 C 25.515625 -27.539062 25.003906 -27.863281 24.328125 -28.03125 C 23.660156 -28.195312 22.75 -28.335938 21.59375 -28.453125 L 21.578125 -30.75 L 34.625 -30.859375 L 34.75 -13.375 C 34.769531 -11.03125 34.8125 -9.191406 34.875 -7.859375 C 34.945312 -6.535156 35.0625 -5.546875 35.21875 -4.890625 C 35.332031 -4.390625 35.46875 -3.992188 35.625 -3.703125 C 35.78125 -3.421875 36.035156 -3.195312 36.390625 -3.03125 C 36.742188 -2.863281 37.21875 -2.753906 37.8125 -2.703125 C 38.40625 -2.648438 39.179688 -2.625 40.140625 -2.625 L 40.15625 -0.375 L 28.671875 0.421875 L 28.015625 -4.71875 L 27.78125 -4.71875 C 26.789062 -3.09375 25.394531 -1.832031 23.59375 -0.9375 C 21.789062 -0.0390625 19.773438 0.414062 17.546875 0.4375 C 13.429688 0.46875 10.285156 -0.96875 8.109375 -3.875 C 6.429688 -6.09375 5.578125 -9.257812 5.546875 -13.375 L 5.484375 -21.171875 C 5.472656 -22.742188 5.425781 -23.984375 5.34375 -24.890625 C 5.257812 -25.796875 5.050781 -26.472656 4.71875 -26.921875 C 4.382812 -27.378906 3.890625 -27.691406 3.234375 -27.859375 C 2.585938 -28.023438 1.6875 -28.164062 0.53125 -28.28125 L 0.515625 -30.578125 L 13.4375 -30.6875 L 13.5625 -14.359375 C 13.59375 -10.472656 14.09375 -7.65625 15.0625 -5.90625 C 16.039062 -4.164062 17.585938 -3.304688 19.703125 -3.328125 C 21.972656 -3.347656 23.71875 -4.40625 24.9375 -6.5 C 26.144531 -8.507812 26.734375 -11.457031 26.703125 -15.34375 Z M 26.65625 -21.34375 "/></g></g></g><g fill="#000000" fill-opacity="1"><g transform="translate(147.060581, 120.188959)"><g><path d="M 14.8125 -9.640625 C 14.820312 -8.023438 14.867188 -6.753906 14.953125 -5.828125 C 15.046875 -4.910156 15.265625 -4.210938 15.609375 -3.734375 C 15.960938 -3.253906 16.46875 -2.9375 17.125 -2.78125 C 17.78125 -2.632812 18.679688 -2.53125 19.828125 -2.46875 L 19.84375 -0.15625 L 1.609375 -0.015625 L 1.59375 -2.328125 C 2.75 -2.410156 3.671875 -2.53125 4.359375 -2.6875 C 5.054688 -2.851562 5.578125 -3.164062 5.921875 -3.625 C 6.265625 -4.082031 6.488281 -4.742188 6.59375 -5.609375 C 6.707031 -6.472656 6.753906 -7.640625 6.734375 -9.109375 L 6.6875 -16.265625 C 6.664062 -18.453125 6.617188 -20.273438 6.546875 -21.734375 C 6.484375 -23.203125 6.375 -24.207031 6.21875 -24.75 C 6.09375 -25.25 5.941406 -25.640625 5.765625 -25.921875 C 5.597656 -26.210938 5.328125 -26.441406 4.953125 -26.609375 C 4.578125 -26.773438 4.101562 -26.882812 3.53125 -26.9375 C 2.957031 -26.988281 2.207031 -27.015625 1.28125 -27.015625 L 1.265625 -28.984375 L 12.390625 -31.25 L 13.125 -26.25 L 13.46875 -26.25 C 15.0625 -28.0625 16.671875 -29.359375 18.296875 -30.140625 C 19.929688 -30.929688 21.828125 -31.332031 23.984375 -31.34375 C 26.523438 -31.363281 28.625 -30.9375 30.28125 -30.0625 C 31.945312 -29.195312 33.210938 -27.941406 34.078125 -26.296875 L 34.296875 -26.296875 C 35.671875 -27.921875 37.316406 -29.191406 39.234375 -30.109375 C 41.148438 -31.023438 43.203125 -31.492188 45.390625 -31.515625 C 47.703125 -31.535156 49.710938 -31.257812 51.421875 -30.6875 C 53.140625 -30.125 54.488281 -29.3125 55.46875 -28.25 C 56.25 -27.375 56.828125 -26.222656 57.203125 -24.796875 C 57.578125 -23.378906 57.773438 -21.398438 57.796875 -18.859375 L 57.859375 -9.96875 C 57.867188 -8.394531 57.925781 -7.144531 58.03125 -6.21875 C 58.132812 -5.300781 58.363281 -4.59375 58.71875 -4.09375 C 59.070312 -3.601562 59.570312 -3.28125 60.21875 -3.125 C 60.875 -2.976562 61.78125 -2.875 62.9375 -2.8125 L 62.953125 -0.5 L 44.71875 -0.359375 L 44.703125 -2.671875 C 45.859375 -2.703125 46.769531 -2.804688 47.4375 -2.984375 C 48.113281 -3.171875 48.628906 -3.503906 48.984375 -3.984375 C 49.347656 -4.472656 49.578125 -5.140625 49.671875 -5.984375 C 49.765625 -6.828125 49.800781 -7.984375 49.78125 -9.453125 L 49.734375 -17.015625 C 49.710938 -19.015625 49.578125 -20.707031 49.328125 -22.09375 C 49.085938 -23.476562 48.710938 -24.585938 48.203125 -25.421875 C 47.703125 -26.265625 47.035156 -26.863281 46.203125 -27.21875 C 45.378906 -27.582031 44.367188 -27.757812 43.171875 -27.75 C 41.828125 -27.738281 40.722656 -27.40625 39.859375 -26.75 C 39.003906 -26.09375 38.289062 -25.238281 37.71875 -24.1875 C 36.726562 -22.363281 36.242188 -20.109375 36.265625 -17.421875 L 36.328125 -9.796875 C 36.335938 -8.222656 36.382812 -6.972656 36.46875 -6.046875 C 36.5625 -5.128906 36.785156 -4.421875 37.140625 -3.921875 C 37.492188 -3.429688 38.003906 -3.109375 38.671875 -2.953125 C 39.347656 -2.804688 40.28125 -2.703125 41.46875 -2.640625 L 41.484375 -0.328125 L 23.203125 -0.1875 L 23.1875 -2.5 C 24.332031 -2.582031 25.242188 -2.703125 25.921875 -2.859375 C 26.597656 -3.023438 27.113281 -3.335938 27.46875 -3.796875 C 27.832031 -4.253906 28.054688 -4.914062 28.140625 -5.78125 C 28.234375 -6.644531 28.269531 -7.8125 28.25 -9.28125 L 28.203125 -16.84375 C 28.179688 -18.84375 28.050781 -20.535156 27.8125 -21.921875 C 27.570312 -23.304688 27.1875 -24.414062 26.65625 -25.25 C 26.132812 -26.09375 25.445312 -26.691406 24.59375 -27.046875 C 23.75 -27.410156 22.691406 -27.585938 21.421875 -27.578125 C 20.148438 -27.566406 19.101562 -27.25 18.28125 -26.625 C 17.457031 -26.007812 16.785156 -25.175781 16.265625 -24.125 C 15.765625 -23.207031 15.382812 -22.148438 15.125 -20.953125 C 14.863281 -19.765625 14.738281 -18.535156 14.75 -17.265625 Z M 14.8125 -9.640625 "/></g></g></g><g fill="#000000" fill-opacity="1"><g transform="translate(2.279426, 183.963894)"><g><path d="M 22.671875 -0.171875 L 2.078125 -0.015625 L 2.0625 -2.328125 C 3.375 -2.367188 4.421875 -2.5 5.203125 -2.71875 C 5.984375 -2.9375 6.582031 -3.335938 7 -3.921875 C 7.425781 -4.503906 7.710938 -5.320312 7.859375 -6.375 C 8.003906 -7.4375 8.070312 -8.875 8.0625 -10.6875 L 7.875 -33.875 C 7.863281 -35.488281 7.785156 -36.820312 7.640625 -37.875 C 7.492188 -38.9375 7.222656 -39.769531 6.828125 -40.375 C 6.441406 -40.988281 5.890625 -41.414062 5.171875 -41.65625 C 4.460938 -41.90625 3.515625 -42.066406 2.328125 -42.140625 L 2.3125 -44.453125 L 21.75 -44.609375 L 21.765625 -42.296875 C 20.578125 -42.203125 19.625 -42.023438 18.90625 -41.765625 C 18.195312 -41.515625 17.648438 -41.082031 17.265625 -40.46875 C 16.890625 -39.851562 16.640625 -39.015625 16.515625 -37.953125 C 16.398438 -36.890625 16.347656 -35.550781 16.359375 -33.9375 L 16.546875 -10.75 C 16.554688 -8.9375 16.628906 -7.503906 16.765625 -6.453125 C 16.910156 -5.398438 17.203125 -4.582031 17.640625 -4 C 18.085938 -3.425781 18.707031 -3.035156 19.5 -2.828125 C 20.300781 -2.617188 21.351562 -2.503906 22.65625 -2.484375 Z M 22.671875 -0.171875 "/></g></g></g><g fill="#000000" fill-opacity="1"><g transform="translate(27.030307, 183.768979)"><g><path d="M 14.75 -9.515625 C 14.757812 -7.941406 14.816406 -6.703125 14.921875 -5.796875 C 15.035156 -4.898438 15.253906 -4.210938 15.578125 -3.734375 C 15.910156 -3.253906 16.414062 -2.9375 17.09375 -2.78125 C 17.769531 -2.632812 18.679688 -2.53125 19.828125 -2.46875 L 19.84375 -0.15625 L 1.671875 -0.015625 L 1.65625 -2.328125 C 2.769531 -2.410156 3.660156 -2.53125 4.328125 -2.6875 C 5.003906 -2.851562 5.523438 -3.164062 5.890625 -3.625 C 6.253906 -4.082031 6.488281 -4.734375 6.59375 -5.578125 C 6.707031 -6.429688 6.753906 -7.585938 6.734375 -9.046875 L 6.6875 -16.265625 C 6.664062 -18.535156 6.609375 -20.367188 6.515625 -21.765625 C 6.429688 -23.171875 6.332031 -24.125 6.21875 -24.625 C 6.09375 -25.125 5.929688 -25.535156 5.734375 -25.859375 C 5.546875 -26.191406 5.253906 -26.441406 4.859375 -26.609375 C 4.472656 -26.773438 3.988281 -26.882812 3.40625 -26.9375 C 2.832031 -26.988281 2.101562 -27.015625 1.21875 -27.015625 L 1.203125 -28.984375 L 12.328125 -31.25 L 13.125 -26.1875 L 13.359375 -26.1875 C 14.617188 -27.8125 16.109375 -29.070312 17.828125 -29.96875 C 19.546875 -30.863281 21.445312 -31.320312 23.53125 -31.34375 C 25.988281 -31.363281 27.976562 -31.039062 29.5 -30.375 C 31.03125 -29.71875 32.398438 -28.609375 33.609375 -27.046875 C 34.265625 -26.171875 34.847656 -25.03125 35.359375 -23.625 C 35.867188 -22.21875 36.132812 -20.285156 36.15625 -17.828125 L 36.21875 -9.6875 C 36.226562 -8.113281 36.285156 -6.875 36.390625 -5.96875 C 36.492188 -5.0625 36.710938 -4.367188 37.046875 -3.890625 C 37.378906 -3.421875 37.875 -3.109375 38.53125 -2.953125 C 39.1875 -2.804688 40.070312 -2.703125 41.1875 -2.640625 L 41.203125 -0.328125 L 23.140625 -0.1875 L 23.125 -2.5 C 24.28125 -2.539062 25.191406 -2.648438 25.859375 -2.828125 C 26.535156 -3.015625 27.039062 -3.335938 27.375 -3.796875 C 27.71875 -4.253906 27.945312 -4.914062 28.0625 -5.78125 C 28.175781 -6.644531 28.222656 -7.789062 28.203125 -9.21875 L 28.15625 -17.0625 C 28.132812 -19.03125 28 -20.6875 27.75 -22.03125 C 27.507812 -23.375 27.128906 -24.457031 26.609375 -25.28125 C 26.085938 -26.101562 25.398438 -26.691406 24.546875 -27.046875 C 23.691406 -27.410156 22.628906 -27.585938 21.359375 -27.578125 C 20.128906 -27.566406 19.070312 -27.210938 18.1875 -26.515625 C 17.3125 -25.816406 16.550781 -24.847656 15.90625 -23.609375 C 15.570312 -22.921875 15.28125 -22.023438 15.03125 -20.921875 C 14.789062 -19.816406 14.675781 -18.671875 14.6875 -17.484375 Z M 14.75 -9.515625 "/></g></g></g><g fill="#000000" fill-opacity="1"><g transform="translate(68.9741, 183.438669)"><g><path d="M 27.71875 -3.90625 L 27.5 -3.90625 C 24.863281 -1.039062 21.429688 0.40625 17.203125 0.4375 C 15.003906 0.457031 12.988281 0.09375 11.15625 -0.65625 C 9.320312 -1.414062 7.734375 -2.484375 6.390625 -3.859375 C 5.054688 -5.234375 4.015625 -6.867188 3.265625 -8.765625 C 2.523438 -10.660156 2.144531 -12.765625 2.125 -15.078125 C 2.113281 -17.378906 2.472656 -19.515625 3.203125 -21.484375 C 3.941406 -23.453125 4.945312 -25.160156 6.21875 -26.609375 C 7.5 -28.066406 9.03125 -29.207031 10.8125 -30.03125 C 12.59375 -30.851562 14.519531 -31.269531 16.59375 -31.28125 C 18.519531 -31.300781 20.222656 -31.023438 21.703125 -30.453125 C 23.191406 -29.890625 24.5 -28.921875 25.625 -27.546875 L 25.859375 -27.546875 L 25.828125 -32.453125 C 25.804688 -34.722656 25.757812 -36.675781 25.6875 -38.3125 C 25.625 -39.945312 25.53125 -41.015625 25.40625 -41.515625 C 25.21875 -42.328125 24.628906 -42.910156 23.640625 -43.265625 C 22.648438 -43.617188 21.140625 -43.789062 19.109375 -43.78125 L 19.09375 -45.734375 L 33.671875 -48.15625 L 33.921875 -15.15625 C 33.953125 -12.269531 34 -10.046875 34.0625 -8.484375 C 34.132812 -6.929688 34.253906 -5.75 34.421875 -4.9375 C 34.492188 -4.4375 34.609375 -4.035156 34.765625 -3.734375 C 34.921875 -3.429688 35.15625 -3.191406 35.46875 -3.015625 C 35.78125 -2.847656 36.191406 -2.738281 36.703125 -2.6875 C 37.222656 -2.632812 37.890625 -2.613281 38.703125 -2.625 L 38.71875 -0.375 L 27.75 0.359375 Z M 25.84375 -16.765625 C 25.832031 -18.222656 25.664062 -19.578125 25.34375 -20.828125 C 25.03125 -22.078125 24.5625 -23.179688 23.9375 -24.140625 C 23.226562 -25.253906 22.332031 -26.09375 21.25 -26.65625 C 20.164062 -27.21875 19.007812 -27.492188 17.78125 -27.484375 C 15.507812 -27.460938 13.785156 -26.410156 12.609375 -24.328125 C 11.429688 -22.253906 10.859375 -19.234375 10.890625 -15.265625 C 10.921875 -11.265625 11.539062 -8.191406 12.75 -6.046875 C 13.96875 -3.898438 15.695312 -2.835938 17.9375 -2.859375 C 19.195312 -2.867188 20.398438 -3.203125 21.546875 -3.859375 C 22.703125 -4.523438 23.640625 -5.414062 24.359375 -6.53125 C 24.890625 -7.382812 25.273438 -8.4375 25.515625 -9.6875 C 25.753906 -10.945312 25.867188 -12.554688 25.859375 -14.515625 Z M 25.84375 -16.765625 "/></g></g></g><g fill="#000000" fill-opacity="1"><g transform="translate(109.013984, 183.123352)"><g><path d="M 14.75 -9.578125 C 14.757812 -8.035156 14.828125 -6.804688 14.953125 -5.890625 C 15.078125 -4.972656 15.316406 -4.265625 15.671875 -3.765625 C 16.023438 -3.265625 16.523438 -2.925781 17.171875 -2.75 C 17.828125 -2.582031 18.710938 -2.488281 19.828125 -2.46875 L 19.84375 -0.15625 L 1.671875 -0.015625 L 1.65625 -2.328125 C 2.738281 -2.367188 3.613281 -2.5 4.28125 -2.71875 C 4.945312 -2.9375 5.460938 -3.285156 5.828125 -3.765625 C 6.191406 -4.242188 6.4375 -4.914062 6.5625 -5.78125 C 6.6875 -6.65625 6.742188 -7.765625 6.734375 -9.109375 L 6.6875 -16.203125 C 6.664062 -18.429688 6.609375 -20.265625 6.515625 -21.703125 C 6.429688 -23.148438 6.332031 -24.144531 6.21875 -24.6875 C 6.007812 -25.644531 5.566406 -26.273438 4.890625 -26.578125 C 4.210938 -26.878906 2.988281 -27.023438 1.21875 -27.015625 L 1.203125 -28.984375 L 14.578125 -31.265625 Z M 6 -43.4375 C 5.988281 -44.707031 6.410156 -45.78125 7.265625 -46.65625 C 8.128906 -47.53125 9.179688 -47.96875 10.421875 -47.96875 C 11.679688 -47.976562 12.75 -47.554688 13.625 -46.703125 C 14.5 -45.847656 14.941406 -44.785156 14.953125 -43.515625 C 14.960938 -42.285156 14.535156 -41.234375 13.671875 -40.359375 C 12.804688 -39.484375 11.742188 -39.039062 10.484375 -39.03125 C 9.242188 -39.03125 8.1875 -39.457031 7.3125 -40.3125 C 6.445312 -41.164062 6.007812 -42.207031 6 -43.4375 Z M 6 -43.4375 "/></g></g></g><g fill="#000000" fill-opacity="1"><g transform="translate(129.841642, 182.959333)"><g><path d="M 19.71875 -16.609375 C 16.5 -15.117188 14.078125 -13.738281 12.453125 -12.46875 C 10.828125 -11.207031 10.019531 -9.90625 10.03125 -8.5625 C 10.039062 -7.445312 10.351562 -6.5625 10.96875 -5.90625 C 11.59375 -5.257812 12.367188 -4.941406 13.296875 -4.953125 C 14.222656 -4.953125 15.085938 -5.117188 15.890625 -5.453125 C 16.691406 -5.796875 17.378906 -6.238281 17.953125 -6.78125 C 18.523438 -7.320312 18.96875 -7.96875 19.28125 -8.71875 C 19.601562 -9.46875 19.757812 -10.269531 19.75 -11.125 Z M 19.6875 -19.65625 L 19.671875 -22.078125 C 19.648438 -24.316406 19.242188 -25.941406 18.453125 -26.953125 C 17.660156 -27.960938 16.4375 -28.460938 14.78125 -28.453125 C 13.664062 -28.441406 12.820312 -28.132812 12.25 -27.53125 C 11.675781 -26.9375 11.144531 -25.941406 10.65625 -24.546875 C 10.3125 -23.585938 9.820312 -22.832031 9.1875 -22.28125 C 8.5625 -21.738281 7.691406 -21.460938 6.578125 -21.453125 C 5.503906 -21.453125 4.675781 -21.773438 4.09375 -22.421875 C 3.507812 -23.078125 3.210938 -24 3.203125 -25.1875 C 3.191406 -27.03125 4.191406 -28.5 6.203125 -29.59375 C 8.210938 -30.6875 11.253906 -31.25 15.328125 -31.28125 C 19.640625 -31.3125 22.722656 -30.554688 24.578125 -29.015625 C 26.441406 -27.472656 27.382812 -24.875 27.40625 -21.21875 L 27.515625 -8.578125 C 27.535156 -5.316406 28.203125 -3.691406 29.515625 -3.703125 C 30.242188 -3.703125 30.914062 -3.957031 31.53125 -4.46875 L 32.40625 -2.78125 C 31.875 -1.820312 31.039062 -1.054688 29.90625 -0.484375 C 28.78125 0.078125 27.503906 0.363281 26.078125 0.375 C 24.304688 0.382812 22.957031 -0.140625 22.03125 -1.203125 C 21.101562 -2.273438 20.628906 -3.789062 20.609375 -5.75 L 20.328125 -5.75 C 19.234375 -3.738281 17.800781 -2.207031 16.03125 -1.15625 C 14.269531 -0.113281 12.253906 0.414062 9.984375 0.4375 C 7.554688 0.457031 5.609375 -0.207031 4.140625 -1.5625 C 2.671875 -2.914062 1.929688 -4.6875 1.921875 -6.875 C 1.898438 -8.570312 2.632812 -10.164062 4.125 -11.65625 C 5.613281 -13.144531 8.101562 -14.617188 11.59375 -16.078125 Z M 19.6875 -19.65625 "/></g></g></g><g fill="#000000" fill-opacity="1"><g transform="translate(162.958209, 182.698538)"><g><path d="M 3.078125 -3.71875 C 3.066406 -4.957031 3.472656 -6.007812 4.296875 -6.875 C 5.117188 -7.75 6.144531 -8.191406 7.375 -8.203125 C 8.644531 -8.210938 9.707031 -7.785156 10.5625 -6.921875 C 11.414062 -6.066406 11.847656 -5.019531 11.859375 -3.78125 C 11.867188 -2.59375 11.453125 -1.582031 10.609375 -0.75 C 9.765625 0.0820312 8.707031 0.503906 7.4375 0.515625 C 6.207031 0.523438 5.175781 0.117188 4.34375 -0.703125 C 3.507812 -1.523438 3.085938 -2.53125 3.078125 -3.71875 Z M 3.078125 -3.71875 "/></g></g></g></g></g><path stroke-linecap="butt" transform="matrix(0.750002, 0.000000000000000144, -0.000000000000000144, 0.750002, 30.378277, 242.644303)" fill="none" stroke-linejoin="miter" d="M 0.000838519 2.500297 L 296.703057 2.500297 " stroke="#ff6501" stroke-width="5" stroke-opacity="1" stroke-miterlimit="4"/><path fill="#ff6501" d="M 298.351562 42.585938 C 294.261719 59 277.636719 68.988281 261.222656 64.894531 C 244.8125 60.800781 234.824219 44.179688 238.917969 27.765625 C 243.007812 11.351562 259.632812 1.359375 276.042969 5.453125 C 292.457031 9.546875 302.445312 26.171875 298.351562 42.585938 Z M 298.351562 42.585938 " fill-opacity="1" fill-rule="nonzero"/><path fill="#ffffff" d="M 282.144531 30.808594 C 282.753906 26.734375 279.648438 24.542969 275.40625 23.078125 L 276.78125 17.558594 L 273.421875 16.71875 L 272.082031 22.097656 C 271.195312 21.875 270.289062 21.667969 269.386719 21.460938 L 270.738281 16.050781 L 267.378906 15.210938 L 266 20.734375 C 265.269531 20.566406 264.550781 20.402344 263.851562 20.226562 L 263.855469 20.210938 L 259.222656 19.054688 L 258.328125 22.644531 C 258.328125 22.644531 260.820312 23.214844 260.769531 23.25 C 262.128906 23.589844 262.375 24.492188 262.335938 25.207031 L 260.765625 31.496094 C 260.859375 31.519531 260.980469 31.554688 261.117188 31.609375 C 261.003906 31.582031 260.882812 31.550781 260.761719 31.519531 L 258.5625 40.332031 C 258.394531 40.746094 257.972656 41.367188 257.023438 41.132812 C 257.054688 41.179688 254.578125 40.523438 254.578125 40.523438 L 252.910156 44.371094 L 257.285156 45.460938 C 258.097656 45.664062 258.894531 45.878906 259.679688 46.078125 L 258.289062 51.664062 L 261.648438 52.503906 L 263.023438 46.976562 C 263.941406 47.226562 264.832031 47.453125 265.703125 47.671875 L 264.332031 53.171875 L 267.691406 54.007812 L 269.082031 48.433594 C 274.816406 49.519531 279.125 49.082031 280.941406 43.898438 C 282.402344 39.722656 280.867188 37.316406 277.851562 35.746094 C 280.046875 35.238281 281.703125 33.792969 282.144531 30.808594 Z M 274.464844 41.578125 C 273.425781 45.753906 266.394531 43.496094 264.117188 42.929688 L 265.964844 35.53125 C 268.242188 36.101562 275.550781 37.226562 274.464844 41.578125 Z M 275.503906 30.75 C 274.554688 34.546875 268.707031 32.617188 266.808594 32.144531 L 268.480469 25.433594 C 270.378906 25.90625 276.492188 26.789062 275.503906 30.75 Z M 275.503906 30.75 " fill-opacity="1" fill-rule="nonzero"/><g clip-path="url(#95e8db44db)"><path stroke-linecap="butt" transform="matrix(0, 0.750002, -0.750002, 0, 3.738402, 21.081043)" fill="none" stroke-linejoin="miter" d="M 0.00131809 2.500153 L 342.031523 2.500153 " stroke="#ff6501" stroke-width="5" stroke-opacity="1" stroke-miterlimit="4"/></g><path stroke-linecap="butt" transform="matrix(0.000000001309, 0.750002, -0.750002, 0.000000001309, 275.681907, 72.527468)" fill="none" stroke-linejoin="miter" d="M -0.000166306 2.497743 L 273.43129 2.497743 " stroke="#ff6501" stroke-width="5" stroke-opacity="1" stroke-miterlimit="4"/><g clip-path="url(#76dc2478c0)"><path stroke-linecap="butt" transform="matrix(-0.750002, 0, 0, -0.750002, 233.333116, 23.650302)" fill="none" stroke-linejoin="miter" d="M 0.00144599 2.502478 L 311.109871 2.502478 " stroke="#ff6501" stroke-width="5" stroke-opacity="1" stroke-miterlimit="4"/></g><g clip-path="url(#845185f45c)"><path stroke-linecap="butt" transform="matrix(-0.750002, 0, 0, -0.750002, 275.696527, 277.582653)" fill="none" stroke-linejoin="miter" d="M 0.00161997 2.500821 L 367.599456 2.500821 " stroke="#ff6501" stroke-width="5" stroke-opacity="1" stroke-miterlimit="4"/></g></g></g></svg>