<svg width="6994" height="9936" viewBox="0 0 6994 9936" fill="none" xmlns="http://www.w3.org/2000/svg">
<mask id="mask0_1_1460" style="mask-type:luminance" maskUnits="userSpaceOnUse" x="866" y="2734" width="4404" height="3948">
<path d="M5269.01 2734.96H866.473V6681.21H5269.01V2734.96Z" fill="white"/>
</mask>
<g mask="url(#mask0_1_1460)">
<path d="M920.833 3887.87L920.5 3842.34C946.025 3841.33 966.471 3838.9 981.794 3834.95C997.201 3831.04 1009.19 3824.53 1017.77 3815.46C1026.43 3806.3 1032.18 3793.37 1035.09 3776.65C1037.97 3759.85 1039.3 3738.17 1039.09 3711.63L1034.93 3185.42C1034.68 3158.79 1033.43 3137.32 1031.1 3121.07C1028.76 3104.73 1023.98 3091.83 1016.77 3082.43C1009.53 3072.93 999.658 3066.55 987.124 3063.27C974.674 3059.91 958.309 3057.56 937.989 3056.22L937.656 3010.52L1300.09 3007.66C1413.77 3006.78 1501.46 3024.55 1563.09 3060.92C1624.72 3097.21 1655.78 3149.55 1656.37 3217.84C1657.03 3308.23 1593.16 3372.54 1464.82 3410.72V3415.26C1506.21 3414.92 1543.69 3420.59 1577.25 3432.23C1610.89 3443.78 1639.46 3460.07 1663.03 3481.12C1686.55 3502.08 1704.83 3526.98 1717.83 3555.88C1730.82 3584.7 1737.4 3616.16 1737.65 3650.3C1737.98 3688.95 1729.03 3722.8 1710.83 3751.78C1692.59 3780.81 1666.23 3805.34 1631.71 3825.37C1565.09 3863.8 1473.02 3883.5 1355.56 3884.51L920.833 3887.87ZM1362.89 3814.79C1484.14 3813.9 1544.31 3758.42 1543.44 3648.29C1542.85 3580.75 1520.66 3531.6 1476.81 3500.77C1454.04 3484.98 1424.72 3473.85 1388.87 3467.34C1353.1 3460.75 1309.29 3457.68 1257.45 3458.1L1203.15 3458.6L1204.99 3686.43C1205.32 3733.47 1217.56 3766.74 1241.8 3786.22C1266.11 3805.71 1306.46 3815.25 1362.89 3814.79ZM1269.28 3389.72C1303.13 3389.38 1332.45 3385.94 1357.22 3379.3C1382.08 3372.58 1403.11 3363.09 1420.35 3350.74C1456.2 3325.45 1473.98 3286.22 1473.65 3233.13C1473.19 3177.69 1459.32 3137.79 1432.01 3113.34C1404.69 3088.81 1360.89 3076.8 1300.59 3077.22L1220.48 3077.89C1206.9 3078.02 1200.2 3084.53 1200.32 3097.38L1202.65 3390.22L1269.28 3389.72Z" fill="black"/>
<path d="M2072.24 3691.88C2072.45 3722.25 2073.78 3746.57 2076.24 3764.79C2078.65 3783.07 2083.28 3797.14 2090.06 3806.97C2096.93 3816.71 2106.8 3823.26 2119.71 3826.62C2132.58 3829.9 2149.9 3831.83 2171.68 3832.5L2172.01 3878.03L1816.4 3880.72L1816.07 3835.19C1837.06 3834.31 1854.09 3831.75 1867.2 3827.46C1880.4 3823.09 1890.56 3816.16 1897.68 3806.63C1904.76 3797.14 1909.55 3783.86 1912.01 3766.81C1914.42 3749.67 1915.59 3727.83 1915.51 3701.29L1914.34 3561.17C1914.01 3517.06 1912.92 3480.77 1911.18 3452.29C1909.51 3423.86 1907.51 3404.33 1905.18 3393.66C1901.27 3374.63 1892.69 3362.16 1879.36 3356.19C1866.12 3350.27 1842.22 3347.45 1807.58 3347.79L1807.24 3308.98L2068.91 3263.62L2072.24 3691.88ZM1901.18 3023.36C1900.93 2998.41 1909.22 2977.33 1926 2960.19C1942.86 2942.97 1963.35 2934.23 1987.46 2933.98C2012.32 2933.77 2033.27 2942.17 2050.25 2959.18C2067.33 2976.11 2075.99 2997.07 2076.24 3022.02C2076.45 3046.34 2068.12 3067.13 2051.25 3084.35C2034.47 3101.61 2013.65 3110.35 1988.79 3110.56C1964.68 3110.81 1944.07 3102.41 1927 3085.36C1910.01 3068.35 1901.39 3047.68 1901.18 3023.36Z" fill="black"/>
<path d="M2215.26 3336.66L2214.76 3285.24C2259.81 3271.93 2297.54 3252.06 2327.85 3225.6C2358.17 3199.18 2380.69 3168.81 2395.48 3134.54L2453.11 3134.03L2454.27 3271.97L2584.19 3270.96L2584.69 3333.63L2454.77 3334.64L2457.44 3684.27C2457.77 3731.31 2463.1 3764.71 2473.43 3784.41C2483.75 3804.15 2500.95 3813.89 2525.06 3813.64C2554.38 3813.43 2576.44 3799.61 2591.35 3772.14L2615.34 3804.9C2594.68 3859 2545.21 3886.39 2466.93 3887.06C2414.96 3887.48 2374.36 3875.72 2345.17 3851.61C2315.94 3827.54 2301.2 3793.48 2300.87 3749.46L2297.71 3335.98L2215.26 3336.66Z" fill="black"/>
<path d="M3218.29 3775.1C3189.85 3807.27 3154.42 3832.22 3112.03 3850.03C3069.6 3867.84 3023.58 3876.91 2973.95 3877.25C2927.98 3877.67 2886.09 3870.65 2848.36 3856.08C2810.59 3841.55 2778.07 3821.09 2750.76 3794.75C2723.44 3768.46 2702.29 3736.58 2687.3 3699.16C2672.31 3661.65 2664.64 3620.11 2664.31 3574.49C2663.98 3527.45 2671.52 3484.52 2686.96 3445.63C2702.5 3406.78 2724.44 3373.38 2752.76 3345.49C2781.15 3317.52 2815.26 3295.76 2855.02 3280.3C2894.87 3264.76 2938.89 3256.78 2987.11 3256.45C3020.96 3256.11 3052.4 3259.26 3081.38 3265.86C3110.44 3272.49 3135.39 3281.77 3156.17 3293.75C3177.03 3305.76 3193.52 3319.87 3205.63 3336.08C3217.83 3352.21 3224 3369.81 3224.12 3388.84C3224.33 3410.81 3218.29 3428.32 3205.97 3441.43C3193.64 3454.45 3176.9 3461.04 3155.83 3461.25C3138.59 3461.38 3123.35 3456.97 3110.03 3447.98C3096.79 3438.91 3083.71 3424.21 3070.72 3403.79C3059.27 3385.56 3049.57 3371.2 3041.57 3360.78C3033.58 3350.28 3026.16 3342.22 3019.42 3336.59C3012.63 3330.88 3005.8 3327.1 2998.93 3325.16C2992.14 3323.27 2983.86 3322.39 2974.11 3322.48C2930.35 3322.81 2896.58 3343.6 2872.85 3384.81C2849.19 3426.05 2837.62 3483.51 2838.2 3557.19C2838.87 3636.15 2853.86 3696.8 2883.17 3739.14C2912.49 3781.4 2954.21 3802.27 3008.43 3801.81C3039.28 3801.6 3070.1 3795.51 3100.87 3783.5C3131.6 3771.4 3160.87 3754.26 3188.64 3732.09L3218.29 3775.1Z" fill="black"/>
<path d="M3625.21 3251.22C3670.39 3250.88 3713.15 3258.4 3753.46 3273.73C3793.85 3288.98 3829.41 3310.15 3860.06 3337.24C3890.79 3364.25 3915.19 3396.51 3933.18 3434.01C3951.17 3471.44 3960.37 3512.56 3960.83 3557.34C3961.16 3603.71 3952.58 3646.34 3935.18 3685.19C3917.73 3723.96 3893.87 3757.56 3863.56 3786C3833.32 3814.35 3798.18 3836.65 3758.12 3852.87C3718.02 3869.12 3675.38 3877.4 3630.2 3877.73C3585.77 3878.15 3543.51 3870.76 3503.45 3855.55C3463.35 3840.22 3428.17 3818.68 3397.85 3790.87C3367.54 3762.98 3343.55 3729.55 3325.9 3690.57C3308.32 3651.59 3299.41 3608.91 3299.08 3562.54C3298.62 3517.77 3306.91 3476.31 3323.9 3438.22C3340.97 3400.16 3364.46 3367.31 3394.35 3339.76C3424.21 3312.12 3459.02 3290.53 3498.79 3275.08C3538.64 3259.62 3580.78 3251.68 3625.21 3251.22ZM3625.71 3317.25C3603.05 3317.5 3582.32 3323.59 3563.58 3335.56C3544.92 3347.45 3529.1 3364.08 3516.11 3385.46C3503.12 3406.88 3493.12 3432.63 3486.13 3462.74C3479.22 3492.78 3475.97 3526 3476.3 3562.38C3476.51 3600.35 3480.34 3634.54 3487.79 3664.86C3495.21 3695.1 3505.62 3720.81 3518.94 3741.98C3532.27 3763.15 3548.17 3779.57 3566.74 3791.21C3585.27 3802.76 3606.22 3808.43 3629.54 3808.18C3652.86 3808.09 3674.05 3802.09 3693.16 3790.2C3712.36 3778.23 3728.64 3761.38 3741.97 3739.63C3755.37 3717.91 3765.7 3691.83 3772.95 3661.33C3780.15 3630.88 3783.65 3597.07 3783.44 3559.86C3783.11 3523.48 3779.03 3490.47 3771.28 3460.9C3763.62 3431.33 3752.88 3405.79 3739.13 3384.28C3725.48 3362.69 3708.99 3346.1 3689.67 3334.55C3670.34 3322.92 3649.02 3317.16 3625.71 3317.25Z" fill="black"/>
<path d="M4293.6 3674.23C4293.81 3704.6 4295.14 3728.92 4297.6 3747.15C4300.02 3765.42 4304.64 3779.49 4311.43 3789.32C4318.3 3799.06 4328.17 3805.62 4341.07 3808.98C4353.94 3812.25 4371.26 3814.18 4393.04 3814.86L4393.37 3860.39L4037.77 3863.08L4037.43 3817.54C4058.42 3816.66 4075.45 3814.1 4088.57 3809.82C4101.77 3805.45 4111.93 3798.52 4119.05 3788.98C4126.13 3779.49 4130.92 3766.22 4133.37 3749.16C4135.79 3732.03 4136.95 3710.19 4136.87 3683.64L4135.7 3543.52C4135.37 3499.42 4134.29 3463.13 4132.54 3434.65C4130.87 3406.21 4128.88 3386.68 4126.54 3376.01C4122.63 3356.98 4114.05 3344.51 4100.73 3338.55C4087.48 3332.62 4063.58 3329.81 4028.94 3330.14L4028.61 3291.33L4290.27 3245.97L4293.6 3674.23ZM4122.55 3005.71C4122.3 2980.77 4130.58 2959.68 4147.36 2942.54C4164.23 2925.32 4184.71 2916.58 4208.82 2916.33C4233.68 2916.12 4254.63 2924.52 4271.62 2941.53C4288.69 2958.46 4297.35 2979.42 4297.6 3004.37C4297.81 3028.69 4289.48 3049.48 4272.62 3066.7C4255.84 3083.97 4235.02 3092.7 4210.16 3092.91C4186.05 3093.16 4165.44 3084.76 4148.36 3067.71C4131.37 3050.7 4122.75 3030.03 4122.55 3005.71Z" fill="black"/>
<path d="M4701.28 3672.17C4701.49 3703.33 4702.62 3727.86 4704.61 3745.76C4706.7 3763.57 4710.99 3777.18 4717.44 3786.58C4723.98 3795.99 4733.85 3802.17 4747.09 3805.07C4760.29 3808.01 4778.15 3810.19 4800.72 3811.62L4801.05 3857.15L4445.45 3859.84L4445.11 3814.31C4466.85 3812.63 4484.3 3810.23 4497.41 3807.08C4510.61 3803.97 4520.73 3797.8 4527.73 3788.6C4534.81 3779.44 4539.43 3766.51 4541.55 3749.79C4543.76 3733.11 4544.76 3710.31 4544.55 3681.41L4543.38 3539.1C4543.05 3494.33 4541.97 3458.08 4540.22 3430.4C4538.55 3402.64 4536.55 3383.82 4534.22 3373.95C4531.89 3364.12 4528.77 3355.97 4524.9 3349.59C4521.11 3343.12 4515.44 3338.16 4507.91 3334.8C4500.33 3331.44 4490.92 3329.26 4479.59 3328.25C4468.26 3327.16 4453.94 3326.7 4436.62 3326.91L4436.29 3288.09L4653.98 3243.07L4669.47 3343.2L4673.97 3343.03C4698.62 3311.11 4727.77 3286.33 4761.41 3268.61C4795.14 3250.8 4832.37 3241.72 4873.01 3241.39C4921.19 3241.05 4960.2 3247.39 4990.1 3260.37C5019.96 3273.39 5046.65 3295.4 5070.22 3326.4C5083.08 3343.79 5094.53 3366.3 5104.53 3393.94C5114.6 3421.5 5119.89 3459.59 5120.35 3508.19L5121.52 3668.81C5121.72 3699.97 5122.85 3724.5 5124.85 3742.4C5126.93 3760.21 5131.22 3773.82 5137.67 3783.22C5144.09 3792.63 5153.7 3798.81 5166.49 3801.7C5179.35 3804.65 5196.72 3806.83 5218.62 3808.26L5218.95 3853.79L4865.51 3856.64L4865.18 3811.11C4887.71 3810.11 4905.53 3807.88 4918.65 3804.39C4931.72 3800.82 4941.67 3794.44 4948.46 3785.24C4955.21 3776.08 4959.66 3762.98 4961.78 3745.93C4963.87 3728.79 4964.82 3706.19 4964.62 3678.05L4963.28 3523.14C4963.03 3484.42 4960.54 3451.74 4955.79 3425.19C4951.12 3398.65 4943.63 3377.27 4933.3 3361.01C4923.06 3344.8 4909.65 3333.12 4892.99 3326.07C4876.34 3319.01 4855.6 3315.61 4830.87 3315.82C4806.76 3316.07 4786.1 3323.04 4768.91 3336.82C4751.67 3350.59 4736.76 3369.71 4724.1 3394.11C4717.44 3407.89 4711.69 3425.61 4706.95 3447.2C4702.16 3468.83 4699.87 3491.39 4700.12 3514.91L4701.28 3672.17Z" fill="black"/>
<path d="M1215.81 4938.84C1216.01 4967.74 1218.06 4991.09 1221.97 5008.9C1225.97 5026.71 1233.8 5040.32 1245.45 5049.73C1257.2 5059.05 1273.81 5065.52 1295.26 5069.21C1316.78 5072.83 1345.64 5074.89 1381.87 5075.43L1382.2 5120.96L932.653 5124.49L932.32 5078.96C957.18 5077.95 977.5 5075.52 993.282 5071.57C1009.02 5067.66 1021.01 5061.15 1029.26 5052.08C1037.46 5042.92 1043 5029.98 1045.91 5013.27C1048.79 4996.47 1050.12 4974.79 1049.91 4948.25L1045.75 4422.04C1045.5 4395.41 1044 4373.94 1041.25 4357.69C1038.59 4341.35 1033.42 4328.45 1025.76 4319.04C1018.18 4309.55 1007.44 4303.17 993.448 4299.89C979.457 4296.53 961.177 4294.26 938.65 4293L938.317 4247.3L1629.38 4241.76L1644.87 4482.02L1597.4 4482.35C1592.61 4449.76 1585.78 4422.33 1576.91 4400.03C1568.12 4377.64 1555.76 4359.49 1539.77 4345.59C1523.86 4331.73 1503.5 4321.86 1478.64 4316.02C1453.74 4310.1 1423.26 4307.24 1387.2 4307.45L1231.3 4308.8C1217.72 4308.92 1211.02 4315.43 1211.14 4328.29L1213.64 4657.59C1259.49 4657.17 1296.92 4654.9 1325.9 4650.87C1354.89 4646.83 1377.95 4639.27 1395.19 4628.19C1412.39 4617.01 1424.67 4601.89 1432 4582.82C1439.41 4563.8 1444.54 4538.72 1447.33 4507.55L1489.13 4507.22L1491.96 4863.91L1450.16 4864.24C1445.37 4832.32 1438.75 4806.74 1430.34 4787.46C1421.88 4768.1 1409.18 4753.35 1392.19 4743.27C1375.21 4733.11 1352.39 4726.26 1323.74 4722.78C1295.09 4719.21 1258.53 4717.57 1214.14 4717.9L1215.81 4938.84Z" fill="black"/>
<path d="M1993.96 4500.87C2039.14 4500.54 2081.91 4508.05 2122.22 4523.39C2162.61 4538.63 2198.17 4559.8 2228.82 4586.89C2259.55 4613.9 2283.95 4646.16 2301.94 4683.67C2319.92 4721.09 2329.13 4762.21 2329.58 4806.99C2329.92 4853.36 2321.34 4895.99 2303.93 4934.84C2286.49 4973.61 2262.63 5007.22 2232.31 5035.65C2202.08 5064 2166.94 5086.31 2126.88 5102.52C2086.78 5118.78 2044.14 5127.05 1998.96 5127.39C1954.53 5127.81 1912.27 5120.41 1872.21 5105.21C1832.11 5089.88 1796.92 5068.33 1766.61 5040.52C1736.29 5012.63 1712.31 4979.2 1694.65 4940.22C1677.08 4901.24 1668.17 4858.57 1667.84 4812.2C1667.38 4767.42 1675.67 4725.97 1692.66 4687.87C1709.73 4649.81 1733.21 4616.97 1763.11 4589.41C1792.97 4561.78 1827.78 4540.19 1867.54 4524.73C1907.39 4509.27 1949.53 4501.33 1993.96 4500.87ZM1994.46 4566.9C1971.81 4567.15 1951.07 4573.24 1932.34 4585.21C1913.68 4597.1 1897.86 4613.73 1884.87 4635.11C1871.88 4656.53 1861.88 4682.28 1854.89 4712.4C1847.97 4742.43 1844.73 4775.65 1845.06 4812.03C1845.27 4850 1849.1 4884.19 1856.55 4914.52C1863.96 4944.76 1874.37 4970.46 1887.7 4991.63C1901.02 5012.8 1916.93 5029.23 1935.5 5040.86C1954.03 5052.41 1974.98 5058.08 1998.29 5057.83C2021.61 5057.75 2042.81 5051.74 2061.92 5039.85C2081.12 5027.88 2097.4 5011.04 2110.72 4989.28C2124.13 4967.57 2134.46 4941.48 2141.7 4910.99C2148.91 4880.54 2152.41 4846.72 2152.2 4809.51C2151.86 4773.13 2147.78 4740.12 2140.04 4710.55C2132.38 4680.98 2121.63 4655.44 2107.89 4633.94C2094.23 4612.35 2077.74 4595.76 2058.42 4584.21C2039.1 4572.57 2017.78 4566.82 1994.46 4566.9Z" fill="black"/>
<path d="M2663.69 4934.13C2663.9 4963.83 2665.4 4987.22 2668.19 5004.36C2670.94 5021.41 2676.52 5034.44 2684.85 5043.51C2693.17 5052.5 2705.25 5058.25 2721.16 5060.81C2737.02 5063.29 2758.13 5064.47 2784.45 5064.34L2784.78 5109.87L2407.52 5112.73L2407.19 5067.2C2429.84 5065.52 2447.87 5063.12 2461.32 5059.97C2474.85 5056.87 2484.97 5050.69 2491.63 5041.49C2498.38 5032.34 2502.67 5019.23 2504.46 5002.18C2506.21 4985.04 2507 4962.11 2506.79 4933.29L2505.63 4794.18C2505.29 4747.14 2503.84 4709.59 2501.3 4681.44C2498.84 4653.34 2493.8 4631.71 2486.14 4616.59C2478.56 4601.47 2467.82 4591.52 2453.83 4586.69C2439.83 4581.9 2421.51 4579.59 2398.86 4579.8L2398.53 4539.98L2624.05 4495.96L2643.21 4626.84H2647.7C2667.69 4586.31 2694.17 4554.18 2727.15 4530.4C2760.13 4506.67 2795.03 4494.62 2831.92 4494.28C2860.44 4494.07 2883.8 4501.13 2902.04 4515.45C2920.24 4529.69 2929.44 4547.83 2929.69 4569.88C2929.77 4594.2 2922.94 4614.74 2909.2 4631.55C2895.42 4648.26 2876.47 4656.7 2852.41 4656.91C2841.08 4657.04 2830.84 4654.86 2821.76 4650.36C2812.76 4645.91 2804.64 4640.87 2797.44 4635.24C2790.2 4629.53 2782.99 4624.28 2775.79 4619.45C2768.67 4614.53 2761.34 4612.14 2753.8 4612.22C2739.48 4612.35 2725.99 4621.97 2713.33 4641.12C2700.67 4660.19 2690.34 4685.64 2682.35 4717.57C2676.43 4740.42 2671.73 4766.12 2668.19 4794.68C2664.61 4823.16 2662.94 4851.43 2663.19 4879.53L2663.69 4934.13Z" fill="black"/>
<path d="M3457.95 4687.56C3457.7 4657.11 3456.78 4632.96 3455.12 4615.15C3453.53 4597.34 3449.33 4583.73 3442.46 4574.32C3435.54 4564.83 3425.51 4558.45 3412.31 4555.17C3399.07 4551.81 3381.2 4549.12 3358.68 4547.1L3358.34 4501.57L3613.51 4499.56L3616.18 4844.65C3616.51 4891.02 3617.35 4927.31 3618.68 4953.52C3620.01 4979.65 3622.26 4999.14 3625.51 5011.99C3627.71 5021.86 3630.34 5029.63 3633.34 5035.35C3636.42 5040.97 3641.37 5045.43 3648.16 5048.79C3655.03 5052.15 3664.32 5054.41 3675.97 5055.51C3687.63 5056.51 3702.87 5056.98 3721.78 5056.85L3722.11 5101.21L3497.59 5116.66L3484.26 5015.35H3479.77C3460.45 5047.53 3433.13 5072.48 3397.82 5090.28C3362.59 5108.01 3323.2 5117 3279.56 5117.33C3199.03 5117.88 3137.4 5089.53 3094.68 5032.15C3061.91 4988.39 3045.25 4925.89 3044.71 4844.65L3043.38 4690.92C3043.13 4659.8 3042.21 4635.31 3040.55 4617.5C3038.96 4599.61 3034.92 4586.08 3028.39 4577.01C3021.93 4567.94 3012.31 4561.81 2999.57 4558.53C2986.79 4555.17 2969.09 4552.44 2946.44 4550.3L2946.11 4504.77L3199.11 4502.75L3201.61 4825C3202.15 4901.73 3211.98 4957.35 3231.09 4991.83C3250.16 5026.23 3280.43 5043.24 3321.87 5042.91C3366.26 5042.57 3400.36 5021.82 3424.13 4980.57C3447.87 4940.84 3459.49 4882.62 3458.95 4806.01L3457.95 4687.56Z" fill="black"/>
<path d="M4026.61 4911.88C4026.82 4943.8 4027.78 4968.92 4029.44 4987.15C4031.11 5005.42 4035.31 5019.24 4042.1 5028.65C4048.97 5038.06 4058.84 5044.23 4071.75 5047.13C4084.62 5050.07 4102.31 5052.25 4124.88 5053.68L4125.22 5099.21L3768.44 5102.07L3768.11 5056.54C3790.64 5054.77 3808.63 5052.3 3822.07 5049.15C3835.61 5046.04 3845.73 5039.86 3852.39 5030.66C3859.13 5021.51 3863.59 5008.4 3865.71 4991.35C3867.92 4974.21 3868.92 4951.28 3868.71 4922.47L3867.55 4781.17C3867.21 4737.82 3866.38 4701.78 3865.05 4672.97C3863.72 4644.07 3861.47 4624.33 3858.39 4613.66C3855.93 4603.83 3852.97 4596.1 3849.56 4590.48C3846.23 4584.76 3840.94 4580.23 3833.73 4576.87C3826.49 4573.51 3817.24 4571.32 3805.92 4570.31C3794.68 4569.22 3780.02 4568.76 3761.95 4568.97L3761.61 4530.16L3979.31 4485.13L3993.63 4584.26L4000.46 4584.09C4031.77 4548.14 4063.34 4522.51 4095.23 4507.14C4127.09 4491.68 4164.11 4483.79 4206.33 4483.45C4255.97 4483.03 4297.02 4491.43 4329.59 4508.65C4362.11 4525.79 4386.76 4550.61 4403.54 4583.08H4408.04C4435.02 4550.95 4467.21 4525.88 4504.64 4507.81C4542.16 4489.67 4582.34 4480.43 4625.23 4480.09C4670.41 4479.76 4709.76 4485.13 4743.32 4496.22C4776.97 4507.31 4803.28 4523.4 4822.27 4544.44C4837.35 4561.83 4848.59 4584.55 4855.92 4612.65C4863.33 4640.67 4867.29 4679.69 4867.74 4729.76L4869.08 4905.16C4869.28 4936.33 4870.41 4961.02 4872.41 4979.25C4874.49 4997.52 4878.94 5011.6 4885.73 5021.42C4892.6 5031.17 4902.47 5037.51 4915.38 5040.41C4928.25 5043.35 4945.94 5045.53 4968.51 5046.96L4968.85 5092.49L4611.91 5095.35L4611.57 5049.82C4634.23 5048.81 4652.09 5046.58 4665.21 5043.1C4678.28 5039.53 4688.4 5032.97 4695.52 5023.44C4702.6 5013.95 4707.05 5000.84 4708.84 4984.13C4710.59 4967.32 4711.38 4944.56 4711.18 4915.74L4710.01 4766.38C4709.68 4726.98 4707.1 4693.63 4702.35 4666.42C4697.68 4639.11 4690.36 4617.11 4680.36 4600.39C4670.45 4583.71 4657.42 4571.83 4641.22 4564.77C4624.98 4557.71 4605.24 4554.31 4581.93 4554.52C4555.48 4554.77 4533.83 4561.37 4516.97 4574.35C4500.06 4587.37 4486.07 4604.17 4474.99 4624.75C4455.67 4660.62 4446.22 4705.06 4446.68 4758.15L4447.84 4908.52C4448.05 4939.69 4449.01 4964.38 4450.68 4982.61C4452.34 5000.88 4456.55 5014.96 4463.33 5024.78C4470.2 5034.53 4480.24 5040.87 4493.48 5043.77C4506.81 5046.71 4525.13 5048.89 4548.45 5050.32L4548.78 5095.85L4190.84 5098.71L4190.51 5053.18C4213.03 5051.41 4230.86 5048.94 4243.97 5045.79C4257.05 5042.68 4267.17 5036.5 4274.29 5027.3C4281.37 5018.15 4285.82 5005.04 4287.61 4987.99C4289.36 4970.85 4290.15 4947.92 4289.94 4919.11L4288.78 4769.74C4288.45 4730.34 4285.86 4696.95 4281.12 4669.61C4276.45 4642.31 4268.96 4620.34 4258.63 4603.75C4248.39 4587.07 4234.98 4575.19 4218.32 4568.13C4201.67 4561.07 4180.89 4557.67 4156.03 4557.88C4131.25 4558.13 4110.77 4564.35 4094.57 4576.53C4078.45 4588.75 4065.25 4605.22 4054.93 4625.93C4045.27 4644.07 4037.85 4664.99 4032.77 4688.59C4027.65 4712.24 4025.2 4736.56 4025.45 4761.51L4026.61 4911.88Z" fill="black"/>
<path d="M1346.72 6357.92L943.474 6361.11L943.141 6315.58C968.791 6314.57 989.278 6311.97 1004.6 6307.68C1020.01 6303.31 1031.83 6295.42 1040.08 6283.99C1048.28 6272.57 1053.78 6256.4 1056.57 6235.44C1059.44 6214.52 1060.73 6186.17 1060.4 6150.42L1056.9 5692.59C1056.57 5660.67 1054.99 5634.29 1052.24 5613.46C1049.57 5592.63 1044.41 5576.16 1036.75 5564.07C1029.09 5551.97 1018.26 5543.53 1004.27 5538.7C990.277 5533.91 971.623 5530.88 948.304 5529.62L947.971 5483.92L1328.56 5480.9L1328.9 5526.6C1305.58 5528.2 1286.96 5531.47 1273.1 5536.51C1259.19 5541.55 1248.53 5550.2 1241.12 5562.39C1233.66 5574.61 1228.67 5591.2 1226.13 5612.12C1223.67 5633.08 1222.63 5659.5 1222.96 5691.42L1226.46 6149.25C1226.79 6184.99 1228.33 6213.26 1231.12 6234.09C1233.87 6254.93 1239.62 6271.01 1248.28 6282.31C1257.02 6293.65 1269.14 6301.38 1284.59 6305.5C1300.12 6309.53 1320.73 6311.84 1346.38 6312.39L1346.72 6357.92Z" fill="black"/>
<path d="M1675.96 6169.59C1676.17 6200.76 1677.29 6225.29 1679.29 6243.18C1681.37 6260.99 1685.66 6274.6 1692.12 6284.01C1698.65 6293.42 1708.52 6299.59 1721.76 6302.49C1734.96 6305.43 1752.83 6307.61 1775.4 6309.04L1775.73 6354.57L1420.12 6357.26L1419.79 6311.73C1441.52 6310.05 1458.97 6307.66 1472.09 6304.51C1485.29 6301.4 1495.41 6295.22 1502.4 6286.02C1509.48 6276.87 1514.1 6263.93 1516.23 6247.21C1518.43 6230.54 1519.43 6207.73 1519.23 6178.83L1518.06 6036.53C1517.73 5991.75 1516.64 5955.5 1514.89 5927.83C1513.23 5900.06 1511.23 5881.24 1508.9 5871.37C1506.57 5861.54 1503.44 5853.4 1499.57 5847.01C1495.78 5840.54 1490.12 5835.59 1482.58 5832.23C1475 5828.87 1465.59 5826.68 1454.27 5825.67C1442.94 5824.58 1428.62 5824.12 1411.29 5824.33L1410.96 5785.52L1628.66 5740.49L1644.15 5840.63L1648.64 5840.46C1673.29 5808.54 1702.44 5783.76 1736.09 5766.03C1769.82 5748.22 1807.04 5739.15 1847.68 5738.81C1895.86 5738.48 1934.88 5744.82 1964.78 5757.8C1994.63 5770.82 2021.32 5792.83 2044.89 5823.83C2057.76 5841.22 2069.21 5863.73 2079.2 5891.37C2089.28 5918.92 2094.57 5957.02 2095.03 6005.61L2096.19 6166.23C2096.4 6197.4 2097.52 6221.93 2099.52 6239.82C2101.61 6257.63 2105.89 6271.24 2112.35 6280.65C2118.76 6290.06 2128.38 6296.23 2141.16 6299.13C2154.03 6302.07 2171.39 6304.25 2193.3 6305.68L2193.63 6351.21L1840.19 6354.07L1839.85 6308.54C1862.38 6307.53 1880.2 6305.3 1893.32 6301.82C1906.4 6298.25 1916.35 6291.86 1923.14 6282.66C1929.88 6273.51 1934.34 6260.4 1936.46 6243.35C1938.54 6226.21 1939.5 6203.62 1939.29 6175.47L1937.96 6020.57C1937.71 5981.84 1935.21 5949.16 1930.46 5922.62C1925.8 5896.07 1918.31 5874.69 1907.98 5858.44C1897.73 5842.22 1884.33 5830.55 1867.67 5823.49C1851.01 5816.43 1830.28 5813.03 1805.54 5813.24C1781.43 5813.49 1760.78 5820.47 1743.58 5834.24C1726.34 5848.02 1711.44 5867.13 1698.78 5891.53C1692.12 5905.31 1686.37 5923.04 1681.62 5944.63C1676.83 5966.26 1674.54 5988.81 1674.79 6012.33L1675.96 6169.59Z" fill="black"/>
<path d="M2750.98 6273.79L2746.48 6273.96C2694.93 6330.54 2627.77 6359.14 2544.94 6359.81C2502.05 6360.15 2462.66 6352.84 2426.69 6337.97C2390.79 6323.1 2359.77 6302.1 2333.58 6274.97C2307.47 6247.75 2287.11 6215.45 2272.45 6178.02C2257.79 6140.51 2250.3 6098.97 2249.96 6053.36C2249.63 6007.91 2256.63 5965.74 2270.95 5926.85C2285.36 5887.99 2305.1 5854.22 2330.08 5825.54C2355.06 5796.89 2384.96 5774.42 2419.86 5758.16C2454.83 5741.95 2492.64 5733.63 2533.28 5733.3C2570.93 5733.09 2604.28 5738.59 2633.39 5749.76C2662.45 5760.85 2688.02 5779.96 2710.01 5807.05H2714.67L2713.84 5710.28C2713.5 5665.51 2712.59 5626.95 2711.17 5594.69C2709.71 5562.43 2707.88 5541.39 2705.67 5531.52C2701.76 5515.51 2690.18 5503.96 2670.86 5496.91C2651.63 5489.85 2622.1 5486.49 2582.25 5486.83L2581.92 5448.18L2867.24 5400.47L2872.24 6052.02C2872.65 6108.93 2873.61 6152.74 2875.07 6183.4C2876.48 6214.1 2878.77 6237.46 2881.9 6253.46C2883.31 6263.33 2885.56 6271.27 2888.56 6277.32C2891.64 6283.37 2896.26 6288.07 2902.38 6291.43C2908.46 6294.79 2916.58 6297.06 2926.7 6298.15C2936.9 6299.16 2949.89 6299.62 2965.68 6299.5L2966.01 6343.85L2751.65 6358.13L2750.98 6273.79ZM2714 6020.09C2713.75 5991.32 2710.55 5964.61 2704.34 5939.95C2698.1 5915.34 2688.89 5893.54 2676.69 5874.6C2662.91 5852.75 2645.42 5836.25 2624.23 5825.03C2603.11 5813.73 2580.5 5808.15 2556.44 5808.23C2512.01 5808.57 2478.24 5829.4 2455.17 5870.73C2432.18 5911.98 2421.02 5971.66 2421.69 6049.83C2422.35 6128.8 2434.43 6189.45 2458 6231.79C2481.65 6274.04 2515.34 6294.96 2559.1 6294.62C2583.84 6294.54 2607.49 6287.9 2630.06 6274.8C2652.58 6261.69 2670.91 6244.05 2685.02 6221.87C2695.43 6205.2 2703.01 6184.49 2707.67 6159.71C2712.34 6134.97 2714.54 6103.26 2714.34 6064.62L2714 6020.09Z" fill="black"/>
<path d="M3280.72 6155.67C3280.93 6186.04 3282.26 6210.36 3284.71 6228.59C3287.13 6246.86 3291.75 6260.93 3298.54 6270.76C3305.41 6280.5 3315.28 6287.05 3328.19 6290.41C3341.05 6293.69 3358.38 6295.62 3380.15 6296.3L3380.49 6341.83L3024.88 6344.51L3024.55 6298.98C3045.53 6298.1 3062.56 6295.54 3075.68 6291.25C3088.88 6286.89 3099.04 6279.96 3106.16 6270.42C3113.24 6260.93 3118.03 6247.66 3120.49 6230.6C3122.9 6213.47 3124.07 6191.62 3123.98 6165.08L3122.82 6024.96C3122.48 5980.85 3121.4 5944.56 3119.65 5916.09C3117.99 5887.65 3115.99 5868.12 3113.66 5857.45C3109.74 5838.42 3101.16 5825.95 3087.84 5819.98C3074.6 5814.06 3050.7 5811.25 3016.05 5811.58L3015.72 5772.77L3277.39 5727.41L3280.72 6155.67ZM3109.66 5487.15C3109.41 5462.2 3117.7 5441.12 3134.48 5423.98C3151.34 5406.76 3171.83 5398.02 3195.94 5397.77C3220.8 5397.56 3241.74 5405.96 3258.73 5422.97C3275.8 5439.9 3284.46 5460.86 3284.71 5485.81C3284.92 5510.13 3276.59 5530.92 3259.73 5548.14C3242.95 5565.4 3222.13 5574.14 3197.27 5574.35C3173.16 5574.6 3152.55 5566.2 3135.48 5549.15C3118.49 5532.14 3109.87 5511.47 3109.66 5487.15Z" fill="black"/>
<path d="M3785.67 6013.99C3722.71 6043.22 3675.28 6070.36 3643.43 6095.31C3611.53 6120.3 3595.71 6146.05 3595.96 6172.59C3596.17 6194.68 3602.33 6212.07 3614.45 6224.84C3626.65 6237.61 3641.8 6243.95 3659.92 6243.83C3677.99 6243.62 3694.94 6240.26 3710.72 6233.75C3726.46 6227.15 3739.91 6218.54 3751.02 6207.87C3762.23 6197.12 3770.93 6184.35 3777.18 6169.57C3783.5 6154.7 3786.59 6138.9 3786.5 6122.19L3785.67 6013.99ZM3785.17 5953.5L3784.84 5905.79C3784.5 5861.69 3776.51 5829.64 3760.85 5809.69C3745.28 5789.65 3721.38 5779.74 3689.06 5779.95C3667.16 5780.2 3650.63 5786.25 3639.43 5798.09C3628.19 5809.85 3617.82 5829.47 3608.28 5856.9C3601.7 5875.97 3592.21 5890.84 3579.8 5901.59C3567.47 5912.34 3550.36 5917.84 3528.5 5918.05C3507.39 5918.18 3491.11 5911.84 3479.7 5899.07C3468.37 5886.22 3462.62 5867.99 3462.54 5844.47C3462.21 5807.96 3481.7 5778.94 3521 5757.44C3560.4 5735.85 3620.02 5724.76 3699.89 5724.17C3784.17 5723.5 3844.47 5738.41 3880.78 5768.86C3917.17 5799.23 3935.74 5850.47 3936.41 5922.59L3938.24 6172.09C3938.78 6236.6 3951.81 6268.82 3977.38 6268.69C3991.71 6268.61 4004.86 6263.57 4016.86 6253.57L4034.01 6286.5C4023.56 6305.57 4007.28 6320.69 3985.21 6331.87C3963.1 6343.04 3938.16 6348.75 3910.42 6349C3875.78 6349.21 3849.3 6338.84 3830.97 6317.75C3812.74 6296.58 3803.49 6266.64 3803.16 6227.87H3797.5C3776.05 6267.64 3748.07 6297.93 3713.55 6318.76C3678.99 6339.51 3639.51 6350.01 3595.12 6350.35C3547.7 6350.68 3509.6 6337.54 3480.86 6310.86C3452.09 6284.11 3437.56 6249.04 3437.22 6205.69C3436.89 6172.34 3451.26 6140.92 3480.36 6111.43C3509.43 6081.99 3558.15 6052.92 3626.44 6024.24L3785.17 5953.5Z" fill="black"/>
<path d="M4108.47 6263.04C4108.22 6238.76 4116.13 6218.01 4132.12 6200.88C4148.19 6183.66 4168.3 6174.92 4192.41 6174.67C4217.15 6174.46 4237.93 6182.86 4254.71 6199.87C4271.45 6216.8 4279.94 6237.42 4280.19 6261.7C4280.27 6285.22 4272.11 6305.21 4255.71 6321.68C4239.26 6338.14 4218.65 6346.46 4193.91 6346.71C4169.8 6346.92 4149.52 6338.9 4133.12 6322.68C4116.79 6306.47 4108.55 6286.56 4108.47 6263.04Z" fill="#FF6501"/>
</g>
<path d="M905.059 6609H5260.06" stroke="#FF6501" stroke-width="40"/>
<path d="M6150.11 2622.35C6070.05 2946.47 5744.72 3143.74 5423.5 3062.87C5102.37 2982.09 4906.91 2653.81 4987.01 2329.72C5067.06 2005.56 5392.36 1808.29 5713.53 1889.11C6034.75 1969.89 6230.2 2298.22 6150.11 2622.35Z" fill="#FF6501"/>
<path d="M5832.57 2389.93C5844.46 2309.46 5783.79 2266.2 5700.82 2237.31L5727.73 2128.28L5662.03 2111.78L5635.83 2217.91C5618.53 2213.58 5600.81 2209.46 5583.18 2205.39L5609.54 2098.55L5543.88 2082L5516.93 2190.98C5502.67 2187.71 5488.61 2184.47 5474.97 2181.03L5475.06 2180.7L5384.44 2157.85L5366.98 2228.74C5366.98 2228.74 5415.71 2240 5414.68 2240.71C5441.29 2247.43 5446.11 2265.19 5445.32 2279.31L5414.63 2403.54C5416.46 2404 5418.88 2404.67 5421.5 2405.72C5419.29 2405.17 5416.96 2404.59 5414.55 2404L5371.55 2578C5368.31 2586.14 5360.03 2598.41 5341.44 2593.74C5342.11 2594.71 5293.7 2581.69 5293.7 2581.69L5261.06 2657.67L5346.56 2679.21C5362.49 2683.24 5378.08 2687.44 5393.43 2691.43L5366.23 2801.68L5431.85 2818.22L5458.8 2709.11C5476.72 2714.03 5494.15 2718.56 5511.15 2722.85L5484.33 2831.45L5550.04 2848L5577.23 2737.92C5689.31 2759.34 5773.56 2750.69 5809.03 2648.34C5837.6 2565.94 5807.62 2518.4 5748.65 2487.36C5791.56 2477.37 5823.92 2448.85 5832.57 2389.93ZM5682.4 2602.56C5662.11 2685.01 5524.71 2640.45 5480.17 2629.27L5516.23 2483.16C5560.81 2494.38 5703.65 2516.64 5682.4 2602.56ZM5702.74 2388.75C5684.19 2463.72 5569.83 2425.63 5532.74 2416.3L5565.46 2283.8C5602.56 2293.12 5722.03 2310.55 5702.74 2388.75Z" fill="white"/>
<path d="M310.059 2231.53L365 7280" stroke="#FF6501" stroke-width="40"/>
<path d="M5667.06 3213L5670 7262" stroke="#FF6501" stroke-width="40"/>
<path d="M4877.06 2239L288 2231.99" stroke="#FF6501" stroke-width="40"/>
<path d="M5666.84 7242.28L347.094 7261.52" stroke="#FF6501" stroke-width="40"/>
</svg>
