<svg width="5124" height="5073" viewBox="0 0 5124 5073" fill="none" xmlns="http://www.w3.org/2000/svg">
<g clip-path="url(#clip0_3_114)">
<mask id="mask0_3_114" style="mask-type:luminance" maskUnits="userSpaceOnUse" x="0" y="0" width="5125" height="4948">
<path d="M5124.12 0H0.0625V4947.3H5124.12V0Z" fill="white"/>
</mask>
<g mask="url(#mask0_3_114)">
<mask id="mask1_3_114" style="mask-type:luminance" maskUnits="userSpaceOnUse" x="41" y="303" width="4679" height="4606">
<path d="M41.4863 303.736H4719.61V4908.97H41.4863V303.736Z" fill="white"/>
</mask>
<g mask="url(#mask1_3_114)">
<mask id="mask2_3_114" style="mask-type:luminance" maskUnits="userSpaceOnUse" x="40" y="296" width="4684" height="4619">
<path d="M4723.47 296.149H40.2734V4914.65H4723.47V296.149Z" fill="white"/>
</mask>
<g mask="url(#mask2_3_114)">
<mask id="mask3_3_114" style="mask-type:luminance" maskUnits="userSpaceOnUse" x="41" y="303" width="4679" height="4606">
<path d="M41.4863 303.736H4719.61V4908.97H41.4863V303.736Z" fill="white"/>
</mask>
<g mask="url(#mask3_3_114)">
<path d="M41.5332 -132.366H5124V4908.82H41.5332V-132.366Z" fill="white"/>
</g>
</g>
</g>
<mask id="mask4_3_114" style="mask-type:luminance" maskUnits="userSpaceOnUse" x="524" y="793" width="3817" height="3587">
<path d="M4340.43 793.173H524.492V4379.39H4340.43V793.173Z" fill="white"/>
</mask>
<g mask="url(#mask4_3_114)">
<path d="M570.831 1840.7L570.492 1799.24C592.682 1798.38 610.467 1796.2 623.792 1792.67C637.174 1789.09 647.62 1783.11 655.073 1774.75C662.526 1766.39 667.494 1754.62 669.979 1739.38C672.463 1724.18 673.592 1704.5 673.366 1680.36L669.866 1201.86C669.696 1177.66 668.567 1158.13 666.478 1143.31C664.445 1128.5 660.267 1116.79 653.943 1108.19C647.676 1099.59 639.15 1093.79 628.309 1090.74C617.525 1087.73 603.353 1085.61 585.737 1084.41L585.398 1042.95L899.667 1040.32C998.193 1039.55 1074.19 1055.68 1127.66 1088.71C1181.1 1121.78 1208.06 1169.36 1208.51 1231.49C1209.11 1313.69 1153.77 1372.17 1042.52 1406.88V1411.06C1078.34 1410.76 1110.84 1415.84 1139.97 1426.35C1169.1 1436.81 1193.83 1451.62 1214.16 1470.8C1234.54 1489.92 1250.41 1512.56 1261.7 1538.66C1272.99 1564.8 1278.75 1593.38 1278.98 1624.45C1279.26 1659.66 1271.53 1690.49 1255.72 1716.92C1239.91 1743.3 1217.1 1765.61 1187.29 1783.83C1129.38 1818.81 1049.55 1836.7 947.773 1837.47L570.831 1840.7ZM954.096 1774.27C1059.17 1773.41 1111.34 1722.9 1110.61 1622.77C1110.16 1561.36 1090.88 1516.65 1052.79 1488.6C1033.14 1474.26 1007.76 1464.11 976.681 1458.14C945.655 1452.16 907.6 1449.38 862.515 1449.77L815.538 1450.13L817.119 1657.3C817.401 1700.08 828.073 1730.39 849.077 1748.23C870.137 1766 905.144 1774.69 954.096 1774.27ZM872.904 1387.52C902.264 1387.29 927.672 1384.18 949.128 1378.21C970.64 1372.17 988.877 1363.51 1003.78 1352.28C1035.01 1329.28 1050.45 1293.59 1050.08 1245.23C1049.69 1194.81 1037.66 1158.49 1013.95 1136.26C990.289 1114.04 952.402 1103.14 900.231 1103.53L830.67 1104.13C818.926 1104.21 813.082 1110.1 813.167 1121.81L815.086 1388L872.904 1387.52Z" fill="black"/>
<path d="M1569.11 1662.39C1569.34 1690.05 1570.47 1712.15 1572.5 1728.7C1574.59 1745.28 1578.63 1758.06 1584.58 1767.05C1590.51 1775.99 1599.04 1781.96 1610.11 1784.98C1621.23 1787.93 1636.25 1789.7 1655.16 1790.23L1655.5 1831.69L1347.1 1834.2L1346.77 1792.74C1365.06 1791.97 1379.88 1789.61 1391.26 1785.69C1402.69 1781.81 1411.47 1775.51 1417.57 1766.82C1423.72 1758.06 1427.9 1745.91 1430.1 1730.37C1432.28 1714.84 1433.27 1695.01 1433.04 1670.88L1432.14 1543.51C1431.83 1503.46 1430.92 1470.48 1429.43 1444.59C1427.9 1418.72 1426.15 1400.92 1424.12 1391.18C1420.73 1374.06 1413.28 1362.8 1401.76 1357.37C1390.3 1351.87 1369.6 1349.24 1339.65 1349.48L1339.43 1314.24L1566.18 1273.02L1569.11 1662.39ZM1420.73 1054.61C1420.51 1031.85 1427.65 1012.65 1442.19 997.026C1456.78 981.344 1474.51 973.429 1495.37 973.25C1516.89 973.1 1535.04 980.747 1549.8 996.189C1564.63 1011.57 1572.16 1030.66 1572.39 1053.42C1572.53 1075.49 1565.3 1094.37 1550.71 1110.05C1536.17 1125.67 1518.13 1133.56 1496.62 1133.71C1475.75 1133.89 1457.91 1126.27 1443.09 1110.89C1428.33 1095.44 1420.87 1076.69 1420.73 1054.61Z" fill="black"/>
<path d="M1693.05 1339.25L1692.71 1292.65C1731.7 1280.65 1764.34 1262.63 1790.62 1238.65C1816.87 1214.61 1836.41 1186.92 1849.23 1155.61L1899.25 1155.25L1900.15 1280.59L2012.63 1279.63L2013.08 1336.62L1900.61 1337.58L1902.98 1655.62C1903.26 1698.4 1907.86 1728.74 1916.75 1746.67C1925.7 1764.53 1940.61 1773.37 1961.47 1773.19C1986.91 1772.95 2006.08 1760.38 2018.95 1735.43L2039.84 1765.18C2021.92 1814.41 1979 1839.29 1911.11 1839.86C1866.08 1840.25 1830.93 1829.52 1805.64 1807.6C1780.34 1785.7 1767.53 1754.73 1767.24 1714.65L1764.53 1338.65L1693.05 1339.25Z" fill="black"/>
<path d="M2562.3 1738.05C2537.74 1767.39 2507.08 1790.12 2470.26 1806.28C2433.51 1822.37 2393.62 1830.59 2350.56 1831.01C2310.73 1831.31 2274.45 1824.91 2241.71 1811.77C2209.01 1798.57 2180.84 1779.96 2157.13 1755.98C2133.47 1732.02 2115.15 1702.99 2102.13 1668.88C2089.17 1634.8 2082.54 1597.04 2082.26 1555.61C2081.95 1512.84 2088.5 1473.77 2101.91 1438.41C2115.37 1403.04 2134.43 1372.66 2159.05 1347.25C2183.66 1321.86 2213.19 1302.14 2247.69 1288.1C2282.16 1274.01 2320.3 1266.81 2362.08 1266.48C2391.44 1266.24 2418.69 1269.11 2443.84 1275.08C2468.97 1281.05 2490.59 1289.51 2508.66 1300.41C2526.73 1311.34 2541.01 1324.16 2551.57 1338.88C2562.1 1353.64 2567.44 1369.65 2567.61 1386.91C2567.75 1406.92 2562.47 1422.84 2551.8 1434.7C2541.1 1446.59 2526.61 1452.59 2508.32 1452.74C2493.24 1452.83 2480 1448.8 2468.57 1440.68C2457.11 1432.49 2445.79 1419.11 2434.58 1400.53C2424.64 1384.04 2416.2 1370.99 2409.29 1361.34C2402.34 1351.73 2395.9 1344.35 2389.98 1339.24C2384.02 1334.07 2378.12 1330.7 2372.25 1329.08C2366.37 1327.41 2359.2 1326.58 2350.79 1326.58C2312.9 1326.9 2283.66 1345.81 2263.05 1383.33C2242.41 1420.78 2232.36 1472.99 2232.9 1539.96C2233.41 1611.74 2246.39 1666.85 2271.86 1705.32C2297.29 1743.79 2333.51 1762.85 2380.49 1762.43C2407.2 1762.19 2433.9 1756.63 2460.55 1745.7C2487.26 1734.71 2512.64 1719.15 2536.66 1698.98L2562.3 1738.05Z" fill="black"/>
<path d="M2915.12 1261.88C2954.33 1261.58 2991.45 1268.33 3026.46 1282.19C3061.47 1295.99 3092.24 1315.23 3118.83 1339.9C3145.48 1364.51 3166.6 1393.87 3182.18 1427.95C3197.82 1461.97 3205.81 1499.34 3206.12 1540.02C3206.4 1582.17 3199.01 1620.91 3183.88 1656.27C3168.8 1691.64 3148.14 1722.22 3121.88 1748.03C3095.68 1773.78 3065.19 1794.03 3030.41 1808.84C2995.63 1823.66 2958.62 1831.22 2919.41 1831.54C2880.93 1831.84 2844.34 1825.09 2809.64 1811.23C2774.92 1797.31 2744.43 1777.66 2718.18 1752.33C2691.89 1727 2671.11 1696.63 2655.84 1661.17C2640.54 1625.75 2632.75 1586.95 2632.47 1544.8C2632.16 1504.12 2639.38 1466.42 2654.15 1431.77C2668.88 1397.13 2689.21 1367.26 2715.13 1342.17C2741.02 1317.08 2771.19 1297.54 2805.69 1283.5C2840.16 1269.41 2876.64 1262.21 2915.12 1261.88ZM2915.57 1321.98C2895.98 1322.15 2878.08 1327.65 2861.82 1338.46C2845.61 1349.22 2831.89 1364.33 2820.6 1383.75C2809.31 1403.19 2800.64 1426.61 2794.63 1454C2788.67 1481.33 2785.85 1511.56 2786.16 1544.68C2786.38 1579.18 2789.69 1610.21 2796.09 1637.75C2802.47 1665.32 2811.45 1688.74 2822.97 1708.01C2834.54 1727.21 2848.41 1742.12 2864.53 1752.69C2880.62 1763.29 2898.77 1768.52 2918.96 1768.34C2939.2 1768.1 2957.58 1762.58 2974.06 1751.73C2990.61 1740.92 3004.69 1725.63 3016.3 1705.85C3027.96 1686.11 3036.96 1662.37 3043.29 1634.65C3049.61 1606.93 3052.66 1576.19 3052.43 1542.41C3052.12 1509.29 3048.59 1479.3 3041.82 1452.44C3035.1 1425.53 3025.81 1402.26 3013.93 1382.67C3002.01 1363.08 2987.73 1348.02 2971.01 1337.51C2954.3 1326.93 2935.81 1321.74 2915.57 1321.98Z" fill="black"/>
<path d="M3494.71 1646.35C3494.94 1674.01 3496.07 1696.11 3498.1 1712.66C3500.19 1729.24 3504.23 1742.02 3510.18 1751.01C3516.11 1759.94 3524.64 1765.91 3535.7 1768.93C3546.83 1771.89 3561.85 1773.65 3580.76 1774.19L3581.1 1815.65L3272.7 1818.16L3272.36 1776.7C3290.66 1775.92 3305.48 1773.56 3316.86 1769.65C3328.29 1765.77 3337.07 1759.46 3343.17 1750.77C3349.32 1742.02 3353.5 1729.86 3355.7 1714.33C3357.88 1698.8 3358.86 1678.97 3358.64 1654.83L3357.73 1527.47C3357.42 1487.41 3356.52 1454.44 3355.02 1428.54C3353.5 1402.67 3351.75 1384.87 3349.72 1375.14C3346.33 1358.02 3338.88 1346.76 3327.36 1341.32C3315.9 1335.83 3295.2 1333.2 3265.25 1333.44L3265.02 1298.19L3491.78 1256.97L3494.71 1646.35ZM3346.33 1038.57C3346.1 1015.81 3353.25 996.603 3367.78 980.981C3382.38 965.3 3400.11 957.384 3420.97 957.205C3442.48 957.056 3460.64 964.702 3475.4 980.145C3490.22 995.527 3497.76 1014.61 3497.99 1037.37C3498.13 1059.45 3490.9 1078.32 3476.3 1094.01C3461.77 1109.63 3443.73 1117.51 3422.21 1117.66C3401.35 1117.84 3383.51 1110.23 3368.69 1094.84C3353.92 1079.4 3346.47 1060.64 3346.33 1038.57Z" fill="black"/>
<path d="M3848.11 1644.48C3848.34 1672.77 3849.3 1695.02 3851.05 1711.27C3852.77 1727.52 3856.47 1739.94 3862.12 1748.54C3867.76 1757.15 3876.26 1762.82 3887.64 1765.51C3899.07 1768.14 3914.57 1770.05 3934.16 1771.24L3934.5 1812.7L3626.1 1815.21L3625.77 1773.75C3644.74 1772.26 3659.9 1770.11 3671.27 1767.3C3682.71 1764.43 3691.49 1758.82 3697.59 1750.46C3703.74 1742.03 3707.75 1730.23 3709.56 1715.09C3711.42 1699.89 3712.27 1679.19 3712.04 1652.96L3711.14 1523.45C3710.83 1482.77 3709.92 1449.82 3708.43 1424.64C3706.9 1399.4 3705.15 1382.29 3703.12 1373.27C3701.09 1364.37 3698.4 1356.99 3695.1 1351.16C3691.85 1345.28 3686.91 1340.83 3680.31 1337.78C3673.76 1334.77 3665.57 1332.76 3655.8 1331.81C3646.01 1330.85 3633.61 1330.43 3618.65 1330.49L3618.43 1295.25L3807.01 1254.39L3820.45 1345.43H3824.29C3845.57 1316.28 3870.87 1293.67 3900.17 1277.57C3929.45 1261.41 3961.72 1253.16 3996.95 1252.83C4038.65 1252.54 4072.44 1258.3 4098.35 1270.16C4124.24 1281.96 4147.39 1301.94 4167.8 1330.14C4179.01 1345.91 4188.95 1366.4 4197.61 1391.55C4206.34 1416.64 4210.86 1451.29 4211.17 1495.49L4212.3 1641.49C4212.52 1669.78 4213.48 1692.03 4215.23 1708.28C4216.95 1724.53 4220.65 1736.95 4226.3 1745.56C4231.94 1754.16 4240.3 1759.77 4251.37 1762.4C4262.43 1765.03 4277.45 1766.94 4296.42 1768.14L4296.76 1809.6L3990.29 1812.23L3989.95 1770.77C4009.51 1769.99 4025.01 1767.99 4036.47 1764.79C4047.91 1761.54 4056.52 1755.71 4062.33 1747.35C4068.12 1738.99 4071.93 1727.04 4073.74 1711.51C4075.6 1695.97 4076.45 1675.48 4076.22 1649.98L4075.2 1509.11C4074.98 1473.93 4072.78 1444.24 4068.66 1420.1C4064.59 1395.91 4058.07 1376.43 4049.12 1361.68C4040.23 1346.86 4028.57 1336.23 4014.11 1329.78C3999.71 1323.33 3981.76 1320.19 3960.25 1320.34C3939.39 1320.58 3921.46 1327 3906.5 1339.57C3891.59 1352.09 3878.66 1369.44 3867.76 1391.67C3861.95 1404.18 3856.98 1420.28 3852.86 1439.94C3848.79 1459.62 3846.82 1480.17 3846.98 1501.59L3848.11 1644.48Z" fill="black"/>
<path d="M826.618 2796.14C826.843 2822.43 828.65 2843.69 832.038 2859.94C835.426 2876.13 842.201 2888.5 852.364 2897.1C862.528 2905.64 876.897 2911.55 895.502 2914.9C914.162 2918.19 939.147 2919.98 970.483 2920.28L970.822 2961.74L581.12 2965.08L580.781 2923.62C602.293 2922.76 619.91 2920.52 633.63 2916.93C647.407 2913.35 657.824 2907.43 664.91 2899.13C671.968 2890.77 676.767 2879 679.251 2863.76C681.792 2848.47 682.978 2828.76 682.752 2804.62L679.251 2326.12C679.082 2301.92 677.812 2282.45 675.412 2267.69C672.984 2252.88 668.467 2241.17 661.861 2232.57C655.311 2223.97 645.967 2218.2 633.856 2215.24C621.716 2212.23 605.879 2210.11 586.315 2208.91L585.976 2167.45L1185.04 2162.43L1198.48 2380.84L1157.37 2381.2C1153.22 2351.57 1147.32 2326.6 1139.64 2306.28C1132.02 2285.97 1121.29 2269.49 1107.46 2256.82C1093.68 2244.16 1075.98 2235.17 1054.39 2229.82C1032.76 2224.41 1006.31 2221.87 975 2222.17L839.943 2223.25C828.199 2223.34 822.355 2229.28 822.439 2241.05L824.698 2540.34C864.504 2540.04 896.97 2538.04 922.039 2534.37C947.108 2530.72 967.096 2523.82 982.002 2513.7C996.964 2503.6 1007.66 2489.89 1014.07 2472.6C1020.45 2455.24 1024.86 2432.39 1027.28 2404.02L1063.53 2403.78L1066.02 2727.92L1029.77 2728.16C1025.62 2699.24 1019.86 2676.04 1012.49 2658.5C1005.18 2640.91 994.141 2627.53 979.404 2618.36C964.639 2609.13 944.849 2602.92 920.006 2599.72C895.219 2596.46 863.6 2595 825.15 2595.3L826.618 2796.14Z" fill="black"/>
<path d="M1501.07 2398.11C1540.28 2397.81 1577.4 2404.56 1612.41 2418.42C1647.42 2432.22 1678.19 2451.46 1704.78 2476.13C1731.43 2500.74 1752.55 2530.1 1768.13 2564.18C1783.77 2598.2 1791.76 2635.57 1792.07 2676.25C1792.36 2718.4 1784.96 2757.14 1769.83 2792.5C1754.75 2827.87 1734.09 2858.45 1707.83 2884.26C1681.63 2910.01 1651.14 2930.26 1616.36 2945.07C1581.58 2959.89 1544.57 2967.45 1505.36 2967.78C1466.88 2968.07 1430.29 2961.32 1395.6 2947.46C1360.87 2933.55 1330.38 2913.89 1304.13 2888.56C1277.84 2863.23 1257.07 2832.86 1241.79 2797.4C1226.49 2761.98 1218.7 2723.18 1218.42 2681.03C1218.11 2640.35 1225.33 2602.65 1240.1 2568.01C1254.84 2533.36 1275.16 2503.49 1301.08 2478.4C1326.97 2453.31 1357.15 2433.77 1391.64 2419.73C1426.11 2405.64 1462.59 2398.44 1501.07 2398.11ZM1501.52 2458.21C1481.93 2458.39 1464.03 2463.88 1447.77 2474.69C1431.56 2485.45 1417.84 2500.56 1406.55 2519.98C1395.26 2539.42 1386.59 2562.84 1380.58 2590.23C1374.62 2617.56 1371.8 2647.79 1372.11 2680.91C1372.33 2715.41 1375.64 2746.44 1382.05 2773.98C1388.43 2801.55 1397.4 2824.97 1408.92 2844.24C1420.5 2863.44 1434.36 2878.35 1450.48 2888.92C1466.57 2899.52 1484.72 2904.75 1504.91 2904.57C1525.15 2904.33 1543.53 2898.81 1560.01 2887.96C1576.56 2877.15 1590.64 2861.86 1602.25 2842.09C1613.91 2822.34 1622.91 2798.6 1629.24 2770.88C1635.56 2743.16 1638.61 2712.42 1638.38 2678.64C1638.07 2645.52 1634.54 2615.53 1627.77 2588.68C1621.05 2561.76 1611.76 2538.49 1599.88 2518.9C1587.96 2499.31 1573.68 2484.25 1556.97 2473.74C1540.25 2463.16 1521.76 2457.97 1501.52 2458.21Z" fill="black"/>
<path d="M2081.68 2791.9C2081.91 2818.84 2083.18 2840.11 2085.52 2855.7C2087.92 2871.23 2092.75 2883.12 2099.97 2891.3C2107.26 2899.52 2117.76 2904.77 2131.48 2907.07C2145.17 2909.4 2163.47 2910.42 2186.36 2910.18L2186.7 2951.64L1859.67 2954.39L1859.33 2912.93C1878.9 2911.44 1894.56 2909.22 1906.31 2906.36C1918.05 2903.49 1926.8 2897.87 1932.62 2889.51C1938.41 2881.15 1942.05 2869.2 1943.57 2853.67C1945.15 2838.14 1945.83 2817.29 1945.61 2791.06L1944.7 2664.66C1944.39 2621.88 1943.15 2587.71 1940.98 2562.14C1938.86 2536.58 1934.45 2516.95 1927.76 2503.24C1921.13 2489.56 1911.76 2480.51 1899.65 2476.12C1887.51 2471.67 1871.67 2469.52 1852.1 2469.67L1851.88 2433.35L2047.35 2393.56L2063.95 2512.44H2067.9C2085.21 2475.64 2108.13 2446.46 2136.67 2424.87C2165.27 2403.21 2195.54 2392.25 2227.47 2392.01C2252.31 2391.77 2272.58 2398.16 2288.33 2411.13C2304.14 2424.12 2312.1 2440.64 2312.27 2460.71C2312.41 2482.78 2306.51 2501.45 2294.54 2516.74C2282.57 2532.04 2266.14 2539.77 2245.31 2539.92C2235.51 2540.01 2226.67 2538.01 2218.77 2533.95C2210.92 2529.89 2203.89 2525.32 2197.65 2520.21C2191.39 2515.04 2185.15 2510.26 2178.91 2505.87C2172.64 2501.42 2166.26 2499.24 2159.71 2499.3C2147.35 2499.39 2135.69 2508.11 2124.7 2525.47C2113.78 2542.76 2104.83 2565.94 2097.83 2595C2092.69 2615.79 2088.62 2639.15 2085.63 2665.01C2082.61 2690.91 2081.17 2716.63 2081.34 2742.2L2081.68 2791.9Z" fill="black"/>
<path d="M2770.2 2567.64C2769.98 2540.01 2769.13 2518.12 2767.72 2501.93C2766.28 2485.77 2762.58 2473.37 2756.65 2464.77C2750.7 2456.17 2742 2450.37 2730.57 2447.33C2719.19 2444.31 2703.72 2441.83 2684.15 2439.92L2683.82 2398.46L2905.04 2396.67L2907.41 2710.54C2907.69 2752.68 2908.42 2785.66 2909.55 2809.46C2910.68 2833.3 2912.63 2851.01 2915.42 2862.63C2917.37 2871.65 2919.66 2878.73 2922.31 2883.9C2924.94 2889.09 2929.2 2893.19 2935.07 2896.2C2941 2899.25 2949.02 2901.22 2959.13 2902.18C2969.29 2903.13 2982.53 2903.55 2998.88 2903.37L2999.21 2943.75L2804.42 2957.85L2793.01 2865.86H2789.06C2772.35 2895.01 2748.69 2917.68 2718.15 2933.84C2687.57 2949.94 2653.35 2958.12 2615.5 2958.45C2545.71 2959.08 2492.3 2933.3 2455.26 2881.03C2427.03 2841.21 2412.6 2784.34 2412.01 2710.42L2410.99 2570.63C2410.77 2542.37 2409.92 2520.15 2408.51 2503.96C2407.07 2487.71 2403.54 2475.49 2397.89 2467.28C2392.3 2459.01 2383.95 2453.36 2372.82 2450.32C2361.76 2447.3 2346.43 2444.82 2326.86 2442.91L2326.52 2401.45L2545.82 2399.66L2547.97 2692.85C2548.48 2762.57 2557 2813.05 2573.49 2844.35C2590.03 2875.59 2616.29 2891.07 2652.2 2890.83C2690.65 2890.53 2720.23 2871.59 2740.96 2834.07C2761.51 2797.99 2771.5 2745.12 2770.99 2675.41L2770.2 2567.64Z" fill="black"/>
<path d="M3263.28 2771.78C3263.5 2800.78 3264.29 2823.57 3265.65 2840.12C3267.06 2856.7 3270.76 2869.27 3276.71 2877.87C3282.64 2886.48 3291.17 2892.15 3302.23 2894.84C3313.36 2897.47 3328.72 2899.38 3348.31 2900.58L3348.65 2942.03L3039.35 2944.54L3039.01 2903.08C3058.57 2901.59 3074.24 2899.44 3085.98 2896.63C3097.73 2893.77 3106.48 2888.15 3112.3 2879.79C3118.08 2871.36 3121.89 2859.36 3123.7 2843.82C3125.56 2828.29 3126.41 2807.44 3126.19 2781.22L3125.28 2652.78C3124.97 2613.44 3124.21 2580.68 3123.02 2554.45C3121.89 2528.17 3119.97 2510.21 3117.26 2500.57C3115.23 2491.67 3112.69 2484.62 3109.7 2479.42C3106.76 2474.25 3102.16 2470.16 3095.92 2467.11C3089.74 2464.1 3081.72 2462.1 3071.87 2461.14C3062.07 2460.18 3049.34 2459.77 3033.7 2459.83L3033.47 2424.58L3222.17 2383.72L3234.59 2473.68H3240.47C3267.62 2440.95 3295.04 2417.59 3322.67 2403.55C3350.28 2389.54 3382.35 2382.37 3418.89 2382.05C3461.94 2381.75 3497.54 2389.42 3525.71 2405.1C3553.94 2420.73 3575.31 2443.28 3589.85 2472.73H3593.81C3617.07 2443.58 3644.96 2420.76 3677.48 2404.27C3710 2387.78 3744.84 2379.39 3782.05 2379.06C3821.18 2378.76 3855.34 2383.66 3884.47 2393.75C3913.61 2403.88 3936.42 2418.55 3952.9 2437.72C3966.06 2453.49 3975.86 2474.13 3982.27 2499.61C3988.65 2525.03 3992 2560.54 3992.32 2606.18L3993.56 2765.69C3993.78 2793.97 3994.74 2816.4 3996.49 2832.95C3998.22 2849.53 4002.06 2862.31 4008.01 2871.3C4013.94 2880.23 4022.47 2886.06 4033.53 2888.75C4044.66 2891.38 4060.01 2893.29 4079.61 2894.48L4079.94 2935.94L3770.53 2938.45L3770.19 2896.99C3789.84 2896.21 3805.34 2894.21 3816.72 2891.02C3828.15 2887.85 3836.93 2881.91 3843.03 2873.22C3849.18 2864.46 3853.02 2852.49 3854.55 2837.25C3856.04 2822.05 3856.69 2801.35 3856.47 2775.12L3855.45 2639.4C3855.23 2603.56 3853.02 2573.21 3848.9 2548.36C3844.84 2523.51 3838.51 2503.55 3829.93 2488.5C3821.35 2473.39 3810 2462.57 3795.94 2456.12C3781.85 2449.67 3764.69 2446.53 3744.45 2446.68C3721.64 2446.86 3702.92 2452.87 3688.32 2464.72C3673.7 2476.61 3661.59 2491.9 3651.96 2510.6C3635.16 2543.19 3626.95 2583.66 3627.34 2631.99L3628.36 2768.79C3628.59 2797.08 3629.4 2819.51 3630.84 2836.06C3632.26 2852.64 3635.95 2865.39 3641.91 2874.29C3647.84 2883.22 3656.51 2889.05 3667.88 2891.73C3679.32 2894.36 3695.16 2896.27 3715.42 2897.47L3715.76 2938.93L3405.45 2941.56L3405.11 2900.1C3424.67 2898.6 3440.14 2896.39 3451.52 2893.53C3462.95 2890.66 3471.73 2885.04 3477.83 2876.68C3483.99 2868.32 3487.83 2856.37 3489.35 2840.84C3490.85 2825.25 3491.5 2804.34 3491.27 2778.11L3490.25 2642.39C3490.03 2606.54 3487.83 2576.2 3483.7 2551.34C3479.64 2526.49 3473.12 2506.54 3464.17 2491.49C3455.28 2476.37 3443.64 2465.56 3429.27 2459.11C3414.88 2452.66 3396.92 2449.52 3375.41 2449.67C3353.87 2449.91 3336.11 2455.64 3322.11 2466.87C3308.16 2478.05 3296.73 2492.98 3287.78 2511.68C3279.34 2528.26 3272.9 2547.25 3268.47 2568.67C3264.09 2590.11 3262.03 2612.22 3262.26 2634.98L3263.28 2771.78Z" fill="black"/>
<path d="M940.006 4086.47L590.505 4089.46L590.166 4048C612.356 4047.14 630.141 4044.75 643.466 4040.83C656.791 4036.86 666.983 4029.69 674.069 4019.33C681.211 4008.9 686.039 3994.18 688.523 3975.12C691.007 3956.09 692.08 3930.38 691.798 3897.94L688.749 3481.56C688.523 3452.59 687.196 3428.6 684.797 3409.64C682.369 3390.7 677.852 3375.71 671.246 3364.71C664.611 3353.72 655.239 3346.05 643.128 3341.65C631.073 3337.29 614.925 3334.49 594.683 3333.29L594.344 3291.83L924.196 3289.08L924.535 3330.54C904.265 3332.07 888.117 3335.14 876.091 3339.74C864.121 3344.28 854.889 3352.14 848.424 3363.28C841.931 3374.36 837.64 3389.42 835.551 3408.44C833.433 3427.41 832.502 3451.39 832.728 3480.37L835.777 3896.74C836.059 3929.18 837.386 3954.9 839.729 3973.93C842.129 3992.89 847.125 4007.5 854.748 4017.77C862.342 4028.05 872.844 4035.07 886.254 4038.8C899.635 4042.48 917.449 4044.54 939.667 4045.02L940.006 4086.47Z" fill="black"/>
<path d="M1225.6 3915.23C1225.82 3943.51 1226.78 3965.77 1228.53 3982.02C1230.25 3998.27 1233.95 4010.69 1239.6 4019.29C1245.25 4027.9 1253.74 4033.57 1265.12 4036.26C1276.55 4038.89 1292.05 4040.8 1311.64 4041.99L1311.98 4083.45L1003.59 4085.96L1003.25 4044.5C1022.22 4043.01 1037.38 4040.86 1048.76 4038.05C1060.19 4035.18 1068.97 4029.57 1075.07 4021.2C1081.22 4012.78 1085.23 4000.98 1087.04 3985.84C1088.9 3970.64 1089.75 3949.94 1089.52 3923.71L1088.62 3794.2C1088.31 3753.52 1087.41 3720.57 1085.91 3695.39C1084.38 3670.15 1082.63 3653.04 1080.6 3644.02C1078.57 3635.11 1075.89 3627.74 1072.58 3621.91C1069.34 3616.03 1064.4 3611.58 1057.79 3608.53C1051.24 3605.51 1043.05 3603.51 1033.29 3602.56C1023.49 3601.6 1011.1 3601.18 996.134 3601.24L995.908 3566L1184.49 3525.14L1197.93 3616.18H1201.77C1223.06 3587.03 1248.35 3564.41 1277.65 3548.32C1306.93 3532.16 1339.2 3523.91 1374.43 3523.58C1416.13 3523.28 1449.92 3529.05 1475.84 3540.91C1501.72 3552.71 1524.87 3572.69 1545.29 3600.88C1556.49 3616.66 1566.43 3637.15 1575.1 3662.3C1583.82 3687.39 1588.34 3722.03 1588.65 3766.24L1589.78 3912.24C1590 3940.53 1590.96 3962.78 1592.71 3979.03C1594.44 3995.28 1598.13 4007.7 1603.78 4016.31C1609.43 4024.91 1617.78 4030.52 1628.85 4033.15C1639.92 4035.78 1654.93 4037.69 1673.91 4038.89L1674.25 4080.35L1367.77 4082.97L1367.43 4041.52C1386.99 4040.74 1402.49 4038.74 1413.95 4035.54C1425.39 4032.29 1434 4026.46 1439.81 4018.1C1445.6 4009.73 1449.41 3997.79 1451.22 3982.26C1453.08 3966.72 1453.93 3946.23 1453.7 3920.72L1452.69 3779.86C1452.46 3744.68 1450.26 3714.99 1446.14 3690.85C1442.07 3666.66 1435.55 3647.18 1426.6 3632.43C1417.71 3617.61 1406.05 3606.98 1391.6 3600.53C1377.2 3594.07 1359.24 3590.94 1337.73 3591.09C1316.87 3591.33 1298.94 3597.75 1283.98 3610.32C1269.07 3622.84 1256.14 3640.19 1245.25 3662.42C1239.43 3674.93 1234.46 3691.03 1230.34 3710.68C1226.27 3730.37 1224.3 3750.92 1224.47 3772.33L1225.6 3915.23Z" fill="black"/>
<path d="M2157.38 4010.02H2153.43C2108.77 4061.57 2050.56 4087.62 1978.74 4088.27C1941.53 4088.57 1907.4 4081.97 1876.32 4068.44C1845.21 4054.82 1818.3 4035.71 1795.58 4011.09C1772.91 3986.42 1755.2 3957.03 1742.5 3922.92C1729.85 3888.84 1723.36 3851.05 1723.08 3809.54C1722.77 3768.14 1728.84 3729.78 1741.26 3694.48C1753.74 3659.2 1770.84 3628.53 1792.53 3602.48C1814.21 3576.38 1840.12 3555.95 1870.33 3541.19C1900.59 3526.46 1933.34 3518.94 1968.58 3518.61C2001.24 3518.37 2030.15 3523.33 2055.3 3533.42C2080.51 3543.55 2102.73 3560.96 2121.93 3585.64H2125.77L2125.09 3497.58C2124.78 3456.9 2124.02 3421.89 2122.83 3392.56C2121.62 3363.17 2120.01 3344.02 2117.97 3335.09C2114.64 3320.61 2104.65 3310.12 2087.94 3303.67C2071.22 3297.22 2045.53 3294.17 2010.92 3294.47L2010.7 3259.22L2258.11 3215.85L2262.52 3808.22C2262.97 3860.07 2263.76 3899.98 2264.89 3927.94C2266.07 3955.89 2267.99 3977.1 2270.65 3991.5C2272.06 4000.52 2274.09 4007.75 2276.75 4013.24C2279.37 4018.74 2283.32 4023.01 2288.6 4026.03C2293.85 4029.07 2300.91 4031.11 2309.72 4032.12C2318.53 4033.08 2329.76 4033.49 2343.48 4033.32L2343.82 4073.7L2157.95 4086.72L2157.38 4010.02ZM2125.2 3779.31C2125.03 3753.11 2122.27 3728.83 2116.85 3706.43C2111.42 3683.97 2103.46 3664.13 2093.02 3646.93C2081.1 3627.09 2065.97 3612.1 2047.62 3601.88C2029.24 3591.7 2009.62 3586.68 1988.79 3586.83C1950.23 3587.16 1920.98 3606.04 1901.05 3643.46C1881.09 3680.92 1871.38 3735.19 1871.91 3806.31C1872.42 3878.17 1882.92 3933.37 1903.42 3971.9C1923.97 4010.38 1953.16 4029.46 1991.05 4029.13C2012.56 4028.98 2033.06 4022.92 2052.48 4010.97C2071.96 3999.03 2087.85 3982.99 2100.13 3962.82C2109.17 3947.62 2115.72 3928.77 2119.78 3906.31C2123.9 3883.79 2125.82 3854.91 2125.54 3819.69L2125.2 3779.31Z" fill="black"/>
<path d="M2616.69 3902.56C2616.91 3930.22 2618.04 3952.33 2620.08 3968.87C2622.17 3985.45 2626.2 3998.24 2632.16 4007.23C2638.09 4016.16 2646.61 4022.13 2657.68 4025.15C2668.8 4028.1 2683.82 4029.87 2702.74 4030.4L2703.08 4071.86L2394.68 4074.37L2394.34 4032.91C2412.63 4032.14 2427.46 4029.78 2438.83 4025.86C2450.27 4021.98 2459.05 4015.68 2465.14 4006.99C2471.3 3998.24 2475.48 3986.08 2477.68 3970.55C2479.85 3955.01 2480.84 3935.18 2480.61 3911.05L2479.71 3783.68C2479.4 3743.63 2478.5 3710.65 2477 3684.76C2475.48 3658.89 2473.73 3641.09 2471.69 3631.35C2468.31 3614.24 2460.85 3602.98 2449.33 3597.54C2437.87 3592.04 2417.18 3589.41 2387.23 3589.65L2387 3554.41L2613.75 3513.19L2616.69 3902.56ZM2468.31 3294.78C2468.08 3272.02 2475.22 3252.82 2489.76 3237.2C2504.36 3221.52 2522.09 3213.6 2542.95 3213.42C2564.46 3213.27 2582.61 3220.92 2597.38 3236.36C2612.2 3251.74 2619.74 3270.83 2619.96 3293.59C2620.1 3315.66 2612.88 3334.54 2598.28 3350.22C2583.74 3365.84 2565.7 3373.73 2544.19 3373.88C2523.33 3374.06 2505.49 3366.44 2490.66 3351.06C2475.9 3335.62 2468.45 3316.86 2468.31 3294.78Z" fill="black"/>
<path d="M3054.33 3773.69C2999.68 3800.39 2958.57 3825.07 2931.02 3847.77C2903.46 3870.41 2889.74 3893.82 2889.91 3918.02C2890.05 3938.03 2895.36 3953.86 2905.84 3965.57C2916.37 3977.22 2929.49 3982.95 2945.25 3982.77C2960.89 3982.71 2975.54 3979.67 2989.17 3973.69C3002.87 3967.66 3014.58 3959.78 3024.29 3950.04C3034 3940.33 3041.57 3928.74 3046.99 3915.27C3052.47 3901.74 3055.15 3887.37 3055.01 3872.14L3054.33 3773.69ZM3053.88 3718.85L3053.54 3675.36C3053.23 3635.31 3046.31 3606.18 3032.76 3588.02C3019.27 3569.8 2998.49 3560.78 2970.43 3561.02C2951.51 3561.2 2937.23 3566.64 2927.52 3577.39C2917.81 3588.14 2908.8 3606 2900.53 3630.92C2894.8 3648.3 2886.58 3661.86 2875.91 3671.66C2865.21 3681.39 2850.39 3686.32 2831.42 3686.47C2813.18 3686.65 2799.12 3680.92 2789.18 3669.27C2779.25 3657.56 2774.19 3641.01 2774.05 3619.56C2773.83 3586.44 2790.77 3560.07 2824.87 3540.47C2859.03 3520.88 2910.72 3510.81 2979.91 3510.24C3053 3509.62 3105.32 3523.15 3136.88 3550.87C3168.41 3578.52 3184.42 3625.12 3184.87 3690.65L3186.57 3917.54C3187.02 3976.26 3198.34 4005.53 3220.56 4005.36C3232.89 4005.3 3244.27 4000.7 3254.66 3991.62L3269.57 4021.6C3260.59 4038.9 3246.53 4052.64 3227.33 4062.82C3208.13 4073.01 3186.45 4078.18 3162.29 4078.36C3132.31 4078.6 3109.44 4069.13 3093.63 4049.92C3077.82 4030.74 3069.75 4003.53 3069.46 3968.32H3064.49C3045.89 4004.4 3021.64 4031.88 2991.77 4050.76C2961.87 4069.63 2927.69 4079.22 2889.24 4079.55C2848.13 4079.85 2815.07 4067.93 2790.09 4043.71C2765.08 4019.42 2752.43 3987.55 2752.15 3948.13C2751.92 3917.78 2764.4 3889.19 2789.64 3862.34C2814.93 3835.52 2857.17 3809.11 2916.34 3783.13L3053.88 3718.85Z" fill="black"/>
<path d="M3334.07 4000.2C3333.85 3978.15 3340.68 3959.3 3354.63 3943.68C3368.54 3928 3385.93 3920.09 3406.8 3919.91C3428.31 3919.76 3446.32 3927.4 3460.77 3942.85C3475.29 3958.23 3482.68 3976.96 3482.91 3999C3483.05 4020.45 3475.96 4038.64 3461.68 4053.6C3447.45 4068.57 3429.55 4076.12 3408.04 4076.3C3387.18 4076.45 3369.67 4069.16 3355.53 4054.44C3341.36 4039.71 3334.21 4021.64 3334.07 4000.2Z" fill="#FF6501"/>
</g>
<path d="M556.955 4315.11H4332.78" stroke="#FF6501" stroke-width="40"/>
<mask id="mask5_3_114" style="mask-type:luminance" maskUnits="userSpaceOnUse" x="4073" y="5" width="1048" height="1110">
<path d="M4073.03 5.79102H5120.6V1114.33H4073.03V5.79102Z" fill="white"/>
</mask>
<g mask="url(#mask5_3_114)">
<path d="M5103.94 689.916C5034.52 984.576 4752.44 1163.91 4473.91 1090.43C4195.5 1016.95 4026 718.501 4095.44 423.841C4164.86 129.151 4446.95 -50.184 4725.39 23.2644C5003.92 96.7427 5173.39 395.226 5103.94 689.916Z" fill="#FF6501"/>
</g>
<path d="M4828.92 478.501C4839.25 405.292 4786.6 365.954 4714.58 339.699L4737.93 240.563L4680.9 225.539L4658.15 322.047C4643.16 318.104 4627.74 314.37 4612.44 310.666L4635.36 213.502L4578.34 198.478L4554.96 297.584C4542.57 294.597 4530.37 291.64 4518.54 288.533L4518.6 288.205L4439.95 267.446L4424.79 331.903C4424.79 331.903 4467.11 342.148 4466.2 342.776C4489.3 348.899 4493.47 365.058 4492.77 377.872L4466.17 490.837C4467.76 491.256 4469.82 491.883 4472.1 492.839C4470.21 492.331 4468.18 491.793 4466.06 491.256L4428.77 649.473C4425.95 656.91 4418.77 668.052 4402.63 663.81C4403.19 664.706 4361.18 652.878 4361.18 652.878L4332.87 721.966L4407.09 741.53C4420.89 745.204 4434.41 749.027 4447.74 752.641L4424.14 852.912L4481.11 867.936L4504.48 768.741C4520.07 773.221 4535.17 777.343 4549.96 781.226L4526.65 879.974L4583.7 894.998L4607.3 794.906C4704.56 814.381 4777.7 806.525 4808.48 713.453C4833.29 638.511 4807.26 595.29 4756.08 567.094C4793.34 558.013 4821.41 532.057 4828.92 478.501ZM4698.57 671.845C4680.96 746.787 4561.71 706.284 4523.03 696.129L4554.34 563.27C4593.02 573.486 4717.01 593.677 4698.57 671.845ZM4716.22 477.396C4700.15 545.588 4600.89 510.939 4568.68 502.457L4597.08 381.964C4629.27 390.447 4732.99 406.308 4716.22 477.396Z" fill="white"/>
<mask id="mask6_3_114" style="mask-type:luminance" maskUnits="userSpaceOnUse" x="33" y="320" width="80" height="4631">
<path d="M33.0449 320.9H112.544V4950.94H33.0449V320.9Z" fill="white"/>
</mask>
<g mask="url(#mask6_3_114)">
<path d="M73.1895 303.736C73.1895 2102.19 73.1895 3110.52 73.1895 4908.97" stroke="#FF6501" stroke-width="40"/>
</g>
<mask id="mask7_3_114" style="mask-type:luminance" maskUnits="userSpaceOnUse" x="4643" y="1183" width="81" height="3768">
<path d="M4643.97 1183.15H4723.47V4950.94H4643.97V1183.15Z" fill="white"/>
</mask>
<g mask="url(#mask7_3_114)">
<path d="M4684.91 1227.38L4684.91 4909" stroke="#FF6501" stroke-width="40"/>
</g>
<path d="M4000.62 340.386H54.07" stroke="#FF6501" stroke-width="40"/>
<path d="M4704.48 4914.23L54.0695 4912.25" stroke="#FF6501" stroke-width="40"/>
</g>
</g>
<defs>
<clipPath id="clip0_3_114">
<rect width="5124" height="5073" fill="white"/>
</clipPath>
</defs>
</svg>
