<svg width="2801" height="949" viewBox="0 0 2801 949" fill="none" xmlns="http://www.w3.org/2000/svg">
<mask id="mask0_159_1591" style="mask-type:luminance" maskUnits="userSpaceOnUse" x="507" y="597" width="133" height="53">
<path d="M507.563 597.499H639.325V649.345H507.563V597.499Z" fill="white"/>
</mask>
<g mask="url(#mask0_159_1591)">
<mask id="mask1_159_1591" style="mask-type:luminance" maskUnits="userSpaceOnUse" x="508" y="597" width="131" height="52">
<path d="M637.711 627.925C610.029 619.659 582.312 611.112 556.459 597.851C555.791 597.464 555.158 597.605 554.489 598.133C541.088 608.615 525.752 616.107 509.22 620.292C508.411 620.574 508.024 621.101 508.024 621.735C508.024 622.403 508.306 623.177 509.22 623.317C524.697 626.87 542.143 635.136 551.851 648.01C552.273 648.537 552.906 648.924 553.715 648.783C580.729 639.744 608.833 633.694 637.324 631.056C639.013 630.95 639.54 628.453 637.711 627.925Z" fill="white"/>
</mask>
<g mask="url(#mask1_159_1591)">
<mask id="mask2_159_1591" style="mask-type:luminance" maskUnits="userSpaceOnUse" x="504" y="597" width="136" height="55">
<path d="M639.333 597.078H504.265V651.105H639.333V597.078Z" fill="white"/>
</mask>
<g mask="url(#mask2_159_1591)">
<mask id="mask3_159_1591" style="mask-type:luminance" maskUnits="userSpaceOnUse" x="507" y="597" width="133" height="53">
<path d="M507.575 597.499H639.337V649.346H507.575V597.499Z" fill="white"/>
</mask>
<g mask="url(#mask3_159_1591)">
<mask id="mask4_159_1591" style="mask-type:luminance" maskUnits="userSpaceOnUse" x="508" y="597" width="131" height="52">
<path d="M637.723 627.925C610.041 619.659 582.324 611.112 556.471 597.851C555.803 597.464 555.17 597.605 554.502 598.132C541.1 608.614 525.764 616.106 509.233 620.292C508.424 620.573 508.037 621.101 508.037 621.734C508.037 622.402 508.318 623.176 509.233 623.317C524.709 626.87 542.155 635.135 551.863 648.009C552.286 648.537 552.919 648.924 553.728 648.783C580.741 639.743 608.845 633.693 637.336 631.055C639.025 630.95 639.552 628.452 637.723 627.925Z" fill="white"/>
</mask>
<g mask="url(#mask4_159_1591)">
<path d="M7509.81 -2527.05H-4160.09V3599.65H7509.81V-2527.05Z" fill="#FF9500"/>
</g>
</g>
</g>
</g>
</g>
<mask id="mask5_159_1591" style="mask-type:luminance" maskUnits="userSpaceOnUse" x="48" y="613" width="48" height="20">
<path d="M48.5012 613.4H95.3179V632.605H48.5012V613.4Z" fill="white"/>
</mask>
<g mask="url(#mask5_159_1591)">
<mask id="mask6_159_1591" style="mask-type:luminance" maskUnits="userSpaceOnUse" x="48" y="614" width="48" height="19">
<path d="M94.6813 623.319C94.6813 623.319 94.6813 623.319 94.7868 623.319C94.9275 623.179 95.0682 623.073 95.0682 622.792C95.0682 622.545 94.9275 622.405 94.7868 622.264C94.7868 622.264 94.7868 622.264 94.6813 622.264C94.5406 622.264 94.6813 622.264 94.5406 622.264C88.4907 620.576 83.3905 617.938 78.3957 614.28C78.255 614.139 78.0088 614.139 77.8681 614.28C68.6877 618.852 58.839 622.018 48.9902 624.902C48.3219 625.043 48.4626 625.957 49.1309 626.063C59.2259 627.013 69.2153 629.229 78.7826 632.394C78.9233 632.394 79.1696 632.394 79.3103 632.254C83.1091 627.505 88.7721 624.902 94.5406 623.319" fill="white"/>
</mask>
<g mask="url(#mask6_159_1591)">
<mask id="mask7_159_1591" style="mask-type:luminance" maskUnits="userSpaceOnUse" x="45" y="606" width="55" height="28">
<path d="M99.0476 606.082H45.0203V633.096H99.0476V606.082Z" fill="white"/>
</mask>
<g mask="url(#mask7_159_1591)">
<mask id="mask8_159_1591" style="mask-type:luminance" maskUnits="userSpaceOnUse" x="48" y="613" width="48" height="20">
<path d="M48.5022 613.398H95.3189V632.533H48.5022V613.398Z" fill="white"/>
</mask>
<g mask="url(#mask8_159_1591)">
<mask id="mask9_159_1591" style="mask-type:luminance" maskUnits="userSpaceOnUse" x="48" y="614" width="48" height="19">
<path d="M94.6825 623.317C94.6825 623.317 94.6825 623.317 94.7881 623.317C94.9288 623.176 95.0695 623.071 95.0695 622.79C95.0695 622.543 94.9288 622.403 94.7881 622.262C94.7881 622.262 94.7881 622.262 94.6825 622.262C94.5418 622.262 94.6825 622.262 94.5418 622.262C88.4919 620.574 83.3917 617.935 78.397 614.277C78.2563 614.137 78.01 614.137 77.8694 614.277C68.6889 618.85 58.8402 622.016 48.9914 624.9C48.3231 625.041 48.4638 625.955 49.1321 626.061C59.2271 627.01 69.2165 629.226 78.7839 632.392C78.9246 632.392 79.1708 632.392 79.3115 632.251C83.1103 627.503 88.7733 624.9 94.5418 623.317" fill="white"/>
</mask>
<g mask="url(#mask9_159_1591)">
<path d="M7509.79 -2527.05H-4160.12V3599.65H7509.79V-2527.05Z" fill="#FF9500"/>
</g>
</g>
</g>
</g>
</g>
<mask id="mask10_159_1591" style="mask-type:luminance" maskUnits="userSpaceOnUse" x="93" y="580" width="14" height="31">
<path d="M93.6653 580.794H106.187V610.059H93.6653V580.794Z" fill="white"/>
</mask>
<g mask="url(#mask10_159_1591)">
<mask id="mask11_159_1591" style="mask-type:luminance" maskUnits="userSpaceOnUse" x="94" y="581" width="12" height="29">
<path d="M97.9605 602.989C98.4881 603.376 98.875 603.763 99.1564 604.149C99.4026 604.536 99.6489 604.677 99.7896 604.958C99.1564 604.29 98.4881 603.622 97.9605 602.989ZM94.4079 581.322C94.1617 581.322 94.021 581.568 94.021 581.849C94.9356 588.286 95.2169 594.828 94.6893 601.406C94.6893 601.547 94.7949 601.652 94.7949 601.652C98.3474 603.376 100.704 606.401 102.674 609.813C102.674 609.813 102.815 609.918 102.955 609.918C103.061 609.918 103.061 609.918 103.201 609.813C103.201 609.813 103.342 609.672 103.342 609.531C103.483 605.486 104.257 601.934 105.84 598.24C105.84 598.135 105.84 597.994 105.699 597.853C101.372 592.753 97.9605 587.231 94.5486 581.462C94.4079 581.322 94.4079 581.322 94.2672 581.322H94.4079Z" fill="white"/>
</mask>
<g mask="url(#mask11_159_1591)">
<mask id="mask12_159_1591" style="mask-type:luminance" maskUnits="userSpaceOnUse" x="90" y="579" width="19" height="37">
<path d="M108.058 579.07H90.0491V615.088H108.058V579.07Z" fill="white"/>
</mask>
<g mask="url(#mask12_159_1591)">
<mask id="mask13_159_1591" style="mask-type:luminance" maskUnits="userSpaceOnUse" x="93" y="580" width="14" height="31">
<path d="M93.6767 580.794H106.199V610.059H93.6767V580.794Z" fill="white"/>
</mask>
<g mask="url(#mask13_159_1591)">
<mask id="mask14_159_1591" style="mask-type:luminance" maskUnits="userSpaceOnUse" x="94" y="581" width="12" height="29">
<path d="M97.9714 602.99C98.4991 603.377 98.886 603.764 99.1674 604.15C99.4136 604.537 99.6598 604.678 99.8005 604.959C99.1674 604.291 98.4991 603.623 97.9714 602.99ZM94.4189 581.323C94.1726 581.323 94.032 581.569 94.032 581.85C94.9465 588.287 95.2279 594.829 94.7003 601.407C94.7003 601.548 94.8058 601.653 94.8058 601.653C98.3584 603.377 100.715 606.402 102.685 609.813C102.685 609.813 102.825 609.919 102.966 609.919C103.072 609.919 103.072 609.919 103.212 609.813C103.212 609.813 103.353 609.673 103.353 609.532C103.494 605.487 104.268 601.935 105.85 598.241C105.85 598.136 105.85 597.995 105.71 597.854C101.383 592.754 97.9714 587.232 94.5596 581.463C94.4189 581.323 94.4189 581.323 94.2782 581.323H94.4189Z" fill="white"/>
</mask>
<g mask="url(#mask14_159_1591)">
<path d="M7509.81 -2527.05H-4160.09V3599.65H7509.81V-2527.05Z" fill="#FF9500"/>
</g>
</g>
</g>
</g>
</g>
<mask id="mask15_159_1591" style="mask-type:luminance" maskUnits="userSpaceOnUse" x="88" y="635" width="17" height="26">
<path d="M88.6395 635.982H104.538V660.111H88.6395V635.982Z" fill="white"/>
</mask>
<g mask="url(#mask15_159_1591)">
<mask id="mask16_159_1591" style="mask-type:luminance" maskUnits="userSpaceOnUse" x="89" y="636" width="16" height="25">
<path d="M104.396 636.581C104.255 636.581 104.255 636.581 104.115 636.721C101.125 639.219 97.8185 641.048 94.0197 642.208C93.879 642.208 93.7735 642.349 93.7735 642.49C92.8238 648.54 91.1355 654.308 89.1657 660.077H90.9948C94.7936 655.891 99.0144 652.198 103.482 648.786C103.587 648.645 103.728 648.54 103.587 648.399C102.567 644.706 103.341 640.766 104.537 637.249C104.537 637.249 104.537 637.108 104.537 636.967C104.537 636.827 104.396 636.721 104.255 636.721L104.396 636.581Z" fill="white"/>
</mask>
<g mask="url(#mask16_159_1591)">
<mask id="mask17_159_1591" style="mask-type:luminance" maskUnits="userSpaceOnUse" x="81" y="633" width="28" height="28">
<path d="M108.056 633.098H81.0426V660.112H108.056V633.098Z" fill="white"/>
</mask>
<g mask="url(#mask17_159_1591)">
<mask id="mask18_159_1591" style="mask-type:luminance" maskUnits="userSpaceOnUse" x="88" y="635" width="17" height="26">
<path d="M88.6407 635.982H104.539V660.111H88.6407V635.982Z" fill="white"/>
</mask>
<g mask="url(#mask18_159_1591)">
<mask id="mask19_159_1591" style="mask-type:luminance" maskUnits="userSpaceOnUse" x="89" y="636" width="16" height="25">
<path d="M104.397 636.581C104.257 636.581 104.257 636.581 104.116 636.721C101.126 639.219 97.8197 641.048 94.0209 642.208C93.8802 642.208 93.7747 642.349 93.7747 642.49C92.825 648.54 91.1367 654.308 89.1669 660.077H90.996C94.7948 655.891 99.0157 652.198 103.483 648.786C103.588 648.645 103.729 648.54 103.588 648.399C102.568 644.706 103.342 640.766 104.538 637.249C104.538 637.249 104.538 637.108 104.538 636.967C104.538 636.827 104.397 636.721 104.257 636.721L104.397 636.581Z" fill="white"/>
</mask>
<g mask="url(#mask19_159_1591)">
<path d="M7509.8 -2527.05H-4160.1V3599.65H7509.8V-2527.05Z" fill="#FF9500"/>
</g>
</g>
</g>
</g>
</g>
<mask id="mask20_159_1591" style="mask-type:luminance" maskUnits="userSpaceOnUse" x="97" y="617" width="378" height="10">
<path d="M97.015 617.585H474.96V626.765H97.015V617.585Z" fill="white"/>
</mask>
<g mask="url(#mask20_159_1591)">
<mask id="mask21_159_1591" style="mask-type:luminance" maskUnits="userSpaceOnUse" x="97" y="617" width="378" height="10">
<path d="M471.934 617.796C375.697 617.796 279.496 618.324 183.401 619.238C155.86 619.519 128.143 619.766 100.601 620.188C96.6617 620.188 96.6617 626.202 100.601 626.202C196.802 625.042 293.003 624.233 389.099 623.987C416.675 623.846 444.357 623.846 471.934 623.846C475.873 623.846 475.873 617.796 471.934 617.796Z" fill="white"/>
</mask>
<g mask="url(#mask21_159_1591)">
<mask id="mask22_159_1591" style="mask-type:luminance" maskUnits="userSpaceOnUse" x="90" y="615" width="388" height="19">
<path d="M477.244 615.086H90.0478V633.095H477.244V615.086Z" fill="white"/>
</mask>
<g mask="url(#mask22_159_1591)">
<mask id="mask23_159_1591" style="mask-type:luminance" maskUnits="userSpaceOnUse" x="97" y="617" width="378" height="10">
<path d="M97.0132 617.584H474.958V626.765H97.0132V617.584Z" fill="white"/>
</mask>
<g mask="url(#mask23_159_1591)">
<mask id="mask24_159_1591" style="mask-type:luminance" maskUnits="userSpaceOnUse" x="97" y="617" width="378" height="10">
<path d="M471.932 617.795C375.696 617.795 279.495 618.323 183.399 619.238C155.858 619.519 128.141 619.765 100.599 620.187C96.6599 620.187 96.6599 626.202 100.599 626.202C196.8 625.041 293.001 624.232 389.097 623.986C416.673 623.845 444.355 623.845 471.932 623.845C475.871 623.845 475.871 617.795 471.932 617.795Z" fill="white"/>
</mask>
<g mask="url(#mask24_159_1591)">
<path d="M7509.8 -2527.05H-4160.11V3599.65H7509.8V-2527.05Z" fill="#FF9500"/>
</g>
</g>
</g>
</g>
</g>
<mask id="mask25_159_1591" style="mask-type:luminance" maskUnits="userSpaceOnUse" x="479" y="612" width="17" height="17">
<path d="M479.137 612.556H495.001V628.455H479.137V612.556Z" fill="white"/>
</mask>
<g mask="url(#mask25_159_1591)">
<mask id="mask26_159_1591" style="mask-type:luminance" maskUnits="userSpaceOnUse" x="479" y="613" width="16" height="16">
<path d="M487.267 613.224C483.081 613.224 479.81 616.636 479.81 620.681C479.81 624.761 483.222 628.173 487.267 628.173C491.347 628.173 494.759 624.761 494.759 620.681C494.759 616.636 491.347 613.224 487.267 613.224Z" fill="white"/>
</mask>
<g mask="url(#mask26_159_1591)">
<mask id="mask27_159_1591" style="mask-type:luminance" maskUnits="userSpaceOnUse" x="477" y="606" width="19" height="28">
<path d="M495.248 606.082H477.239V633.096H495.248V606.082Z" fill="white"/>
</mask>
<g mask="url(#mask27_159_1591)">
<mask id="mask28_159_1591" style="mask-type:luminance" maskUnits="userSpaceOnUse" x="479" y="613" width="17" height="16">
<path d="M479.138 613.119H495.002V628.244H479.138V613.119Z" fill="white"/>
</mask>
<g mask="url(#mask28_159_1591)">
<mask id="mask29_159_1591" style="mask-type:luminance" maskUnits="userSpaceOnUse" x="479" y="613" width="16" height="16">
<path d="M487.268 613.224C483.083 613.224 479.811 616.636 479.811 620.681C479.811 624.761 483.223 628.173 487.268 628.173C491.349 628.173 494.76 624.761 494.76 620.681C494.76 616.636 491.349 613.224 487.268 613.224Z" fill="white"/>
</mask>
<g mask="url(#mask29_159_1591)">
<path d="M7509.8 -2527.05H-4160.1V3599.65H7509.8V-2527.05Z" fill="#FF9500"/>
</g>
</g>
</g>
</g>
</g>
<mask id="mask30_159_1591" style="mask-type:luminance" maskUnits="userSpaceOnUse" x="2184" y="597" width="133" height="53">
<path d="M2316.59 597.499H2184.83V649.345H2316.59V597.499Z" fill="white"/>
</mask>
<g mask="url(#mask30_159_1591)">
<mask id="mask31_159_1591" style="mask-type:luminance" maskUnits="userSpaceOnUse" x="2185" y="597" width="132" height="52">
<path d="M2186.44 627.925C2214.13 619.659 2241.84 611.112 2267.7 597.851C2268.37 597.464 2269 597.605 2269.67 598.133C2283.07 608.615 2298.4 616.107 2314.94 620.292C2315.74 620.574 2316.13 621.101 2316.13 621.735C2316.13 622.403 2315.85 623.177 2314.94 623.317C2299.46 626.87 2282.01 635.136 2272.3 648.01C2271.88 648.537 2271.25 648.924 2270.44 648.783C2243.43 639.744 2215.32 633.694 2186.83 631.056C2185.14 630.95 2184.62 628.453 2186.44 627.925Z" fill="white"/>
</mask>
<g mask="url(#mask31_159_1591)">
<mask id="mask32_159_1591" style="mask-type:luminance" maskUnits="userSpaceOnUse" x="2184" y="597" width="136" height="55">
<path d="M2184.82 597.078H2319.89V651.105H2184.82V597.078Z" fill="white"/>
</mask>
<g mask="url(#mask32_159_1591)">
<mask id="mask33_159_1591" style="mask-type:luminance" maskUnits="userSpaceOnUse" x="2184" y="597" width="133" height="53">
<path d="M2316.58 597.499H2184.82V649.346H2316.58V597.499Z" fill="white"/>
</mask>
<g mask="url(#mask33_159_1591)">
<mask id="mask34_159_1591" style="mask-type:luminance" maskUnits="userSpaceOnUse" x="2185" y="597" width="132" height="52">
<path d="M2186.43 627.925C2214.11 619.66 2241.83 611.112 2267.68 597.852C2268.35 597.465 2268.99 597.605 2269.65 598.133C2283.06 608.615 2298.39 616.107 2314.92 620.293C2315.73 620.574 2316.12 621.102 2316.12 621.735C2316.12 622.403 2315.84 623.177 2314.92 623.318C2299.45 626.87 2282 635.136 2272.29 648.01C2271.87 648.537 2271.24 648.924 2270.43 648.784C2243.41 639.744 2215.31 633.694 2186.82 631.056C2185.13 630.95 2184.6 628.453 2186.43 627.925Z" fill="white"/>
</mask>
<g mask="url(#mask34_159_1591)">
<path d="M-4685.66 -2527.05H6984.25V3599.65H-4685.66V-2527.05Z" fill="#FF9500"/>
</g>
</g>
</g>
</g>
</g>
<mask id="mask35_159_1591" style="mask-type:luminance" maskUnits="userSpaceOnUse" x="2728" y="613" width="48" height="20">
<path d="M2775.65 613.4H2728.84V632.605H2775.65V613.4Z" fill="white"/>
</mask>
<g mask="url(#mask35_159_1591)">
<mask id="mask36_159_1591" style="mask-type:luminance" maskUnits="userSpaceOnUse" x="2729" y="614" width="47" height="19">
<path d="M2729.47 623.319C2729.47 623.319 2729.47 623.319 2729.37 623.319C2729.23 623.179 2729.09 623.073 2729.09 622.792C2729.09 622.545 2729.23 622.405 2729.37 622.264C2729.37 622.264 2729.37 622.264 2729.47 622.264C2729.61 622.264 2729.47 622.264 2729.61 622.264C2735.66 620.576 2740.76 617.938 2745.76 614.28C2745.9 614.139 2746.15 614.139 2746.29 614.28C2755.47 618.852 2765.32 622.018 2775.16 624.902C2775.83 625.043 2775.69 625.957 2775.02 626.063C2764.93 627.013 2754.94 629.229 2745.37 632.394C2745.23 632.394 2744.99 632.394 2744.84 632.254C2741.05 627.505 2735.38 624.902 2729.61 623.319" fill="white"/>
</mask>
<g mask="url(#mask36_159_1591)">
<mask id="mask37_159_1591" style="mask-type:luminance" maskUnits="userSpaceOnUse" x="2725" y="606" width="55" height="28">
<path d="M2725.11 606.083H2779.13V633.097H2725.11V606.083Z" fill="white"/>
</mask>
<g mask="url(#mask37_159_1591)">
<mask id="mask38_159_1591" style="mask-type:luminance" maskUnits="userSpaceOnUse" x="2728" y="613" width="48" height="20">
<path d="M2775.65 613.4H2728.83V632.534H2775.65V613.4Z" fill="white"/>
</mask>
<g mask="url(#mask38_159_1591)">
<mask id="mask39_159_1591" style="mask-type:luminance" maskUnits="userSpaceOnUse" x="2729" y="614" width="47" height="19">
<path d="M2729.47 623.317C2729.47 623.317 2729.47 623.317 2729.37 623.317C2729.22 623.176 2729.08 623.071 2729.08 622.79C2729.08 622.543 2729.22 622.403 2729.37 622.262C2729.37 622.262 2729.37 622.262 2729.47 622.262C2729.61 622.262 2729.47 622.262 2729.61 622.262C2735.66 620.574 2740.76 617.935 2745.76 614.277C2745.9 614.137 2746.14 614.137 2746.28 614.277C2755.46 618.85 2765.31 622.016 2775.16 624.9C2775.83 625.041 2775.69 625.955 2775.02 626.061C2764.93 627.01 2754.94 629.226 2745.37 632.392C2745.23 632.392 2744.98 632.392 2744.84 632.251C2741.04 627.503 2735.38 624.9 2729.61 623.317" fill="white"/>
</mask>
<g mask="url(#mask39_159_1591)">
<path d="M-4685.63 -2527.05H6984.27V3599.65H-4685.63V-2527.05Z" fill="#FF9500"/>
</g>
</g>
</g>
</g>
</g>
<mask id="mask40_159_1591" style="mask-type:luminance" maskUnits="userSpaceOnUse" x="2717" y="580" width="14" height="31">
<path d="M2730.49 580.794H2717.97V610.059H2730.49V580.794Z" fill="white"/>
</mask>
<g mask="url(#mask40_159_1591)">
<mask id="mask41_159_1591" style="mask-type:luminance" maskUnits="userSpaceOnUse" x="2718" y="581" width="13" height="29">
<path d="M2726.2 602.989C2725.67 603.376 2725.28 603.763 2725 604.15C2724.75 604.537 2724.51 604.678 2724.37 604.959C2725 604.291 2725.67 603.623 2726.2 602.989ZM2729.75 581.322C2729.99 581.322 2730.13 581.568 2730.13 581.85C2729.22 588.287 2728.94 594.829 2729.47 601.407C2729.47 601.547 2729.36 601.653 2729.36 601.653C2725.81 603.376 2723.45 606.401 2721.48 609.813C2721.48 609.813 2721.34 609.919 2721.2 609.919C2721.1 609.919 2721.1 609.919 2720.95 609.813C2720.95 609.813 2720.81 609.673 2720.81 609.532C2720.67 605.487 2719.9 601.934 2718.32 598.241C2718.32 598.135 2718.32 597.995 2718.46 597.854C2722.78 592.754 2726.2 587.232 2729.61 581.463C2729.75 581.322 2729.75 581.322 2729.89 581.322H2729.75Z" fill="white"/>
</mask>
<g mask="url(#mask41_159_1591)">
<mask id="mask42_159_1591" style="mask-type:luminance" maskUnits="userSpaceOnUse" x="2716" y="579" width="19" height="37">
<path d="M2716.1 579.07H2734.11V615.088H2716.1V579.07Z" fill="white"/>
</mask>
<g mask="url(#mask42_159_1591)">
<mask id="mask43_159_1591" style="mask-type:luminance" maskUnits="userSpaceOnUse" x="2717" y="580" width="14" height="31">
<path d="M2730.48 580.795H2717.96V610.06H2730.48V580.795Z" fill="white"/>
</mask>
<g mask="url(#mask43_159_1591)">
<mask id="mask44_159_1591" style="mask-type:luminance" maskUnits="userSpaceOnUse" x="2718" y="581" width="13" height="29">
<path d="M2726.18 602.989C2725.65 603.376 2725.27 603.763 2724.99 604.15C2724.74 604.537 2724.49 604.678 2724.35 604.959C2724.99 604.291 2725.65 603.623 2726.18 602.989ZM2729.73 581.322C2729.98 581.322 2730.12 581.568 2730.12 581.85C2729.21 588.287 2728.93 594.829 2729.45 601.407C2729.45 601.547 2729.35 601.653 2729.35 601.653C2725.8 603.376 2723.44 606.401 2721.47 609.813C2721.47 609.813 2721.33 609.919 2721.19 609.919C2721.08 609.919 2721.08 609.919 2720.94 609.813C2720.94 609.813 2720.8 609.673 2720.8 609.532C2720.66 605.487 2719.89 601.934 2718.3 598.241C2718.3 598.135 2718.3 597.995 2718.44 597.854C2722.77 592.754 2726.18 587.232 2729.59 581.463C2729.73 581.322 2729.73 581.322 2729.88 581.322H2729.73Z" fill="white"/>
</mask>
<g mask="url(#mask44_159_1591)">
<path d="M-4685.66 -2527.05H6984.25V3599.65H-4685.66V-2527.05Z" fill="#FF9500"/>
</g>
</g>
</g>
</g>
</g>
<mask id="mask45_159_1591" style="mask-type:luminance" maskUnits="userSpaceOnUse" x="2719" y="635" width="17" height="26">
<path d="M2735.52 635.982H2719.62V660.111H2735.52V635.982Z" fill="white"/>
</mask>
<g mask="url(#mask45_159_1591)">
<mask id="mask46_159_1591" style="mask-type:luminance" maskUnits="userSpaceOnUse" x="2719" y="636" width="16" height="25">
<path d="M2719.76 636.581C2719.9 636.581 2719.9 636.581 2720.04 636.721C2723.03 639.219 2726.34 641.048 2730.14 642.208C2730.28 642.208 2730.38 642.349 2730.38 642.49C2731.33 648.54 2733.02 654.308 2734.99 660.077H2733.16C2729.36 655.891 2725.14 652.198 2720.67 648.786C2720.57 648.645 2720.43 648.54 2720.57 648.399C2721.59 644.706 2720.81 640.766 2719.62 637.249C2719.62 637.249 2719.62 637.108 2719.62 636.967C2719.62 636.827 2719.76 636.721 2719.9 636.721L2719.76 636.581Z" fill="white"/>
</mask>
<g mask="url(#mask46_159_1591)">
<mask id="mask47_159_1591" style="mask-type:luminance" maskUnits="userSpaceOnUse" x="2716" y="633" width="28" height="28">
<path d="M2716.1 633.098H2743.12V660.112H2716.1V633.098Z" fill="white"/>
</mask>
<g mask="url(#mask47_159_1591)">
<mask id="mask48_159_1591" style="mask-type:luminance" maskUnits="userSpaceOnUse" x="2719" y="635" width="17" height="26">
<path d="M2735.52 635.982H2719.62V660.111H2735.52V635.982Z" fill="white"/>
</mask>
<g mask="url(#mask48_159_1591)">
<mask id="mask49_159_1591" style="mask-type:luminance" maskUnits="userSpaceOnUse" x="2719" y="636" width="16" height="25">
<path d="M2719.76 636.581C2719.9 636.581 2719.9 636.581 2720.04 636.721C2723.03 639.219 2726.34 641.048 2730.14 642.208C2730.28 642.208 2730.38 642.349 2730.38 642.49C2731.33 648.54 2733.02 654.308 2734.99 660.077H2733.16C2729.36 655.891 2725.14 652.198 2720.68 648.786C2720.57 648.645 2720.43 648.54 2720.57 648.399C2721.59 644.706 2720.82 640.766 2719.62 637.249C2719.62 637.249 2719.62 637.108 2719.62 636.967C2719.62 636.827 2719.76 636.721 2719.9 636.721L2719.76 636.581Z" fill="white"/>
</mask>
<g mask="url(#mask49_159_1591)">
<path d="M-4685.64 -2527.05H6984.26V3599.65H-4685.64V-2527.05Z" fill="#FF9500"/>
</g>
</g>
</g>
</g>
</g>
<mask id="mask50_159_1591" style="mask-type:luminance" maskUnits="userSpaceOnUse" x="2349" y="617" width="379" height="10">
<path d="M2727.14 617.585H2349.19V626.765H2727.14V617.585Z" fill="white"/>
</mask>
<g mask="url(#mask50_159_1591)">
<mask id="mask51_159_1591" style="mask-type:luminance" maskUnits="userSpaceOnUse" x="2349" y="617" width="378" height="10">
<path d="M2352.22 617.796C2448.46 617.796 2544.66 618.324 2640.75 619.238C2668.3 619.519 2696.01 619.766 2723.55 620.188C2727.49 620.188 2727.49 626.202 2723.55 626.202C2627.35 625.042 2531.15 624.233 2435.06 623.987C2407.48 623.846 2379.8 623.846 2352.22 623.846C2348.28 623.846 2348.28 617.796 2352.22 617.796Z" fill="white"/>
</mask>
<g mask="url(#mask51_159_1591)">
<mask id="mask52_159_1591" style="mask-type:luminance" maskUnits="userSpaceOnUse" x="2346" y="615" width="389" height="19">
<path d="M2346.91 615.087H2734.11V633.096H2346.91V615.087Z" fill="white"/>
</mask>
<g mask="url(#mask52_159_1591)">
<mask id="mask53_159_1591" style="mask-type:luminance" maskUnits="userSpaceOnUse" x="2349" y="617" width="379" height="10">
<path d="M2727.14 617.585H2349.2V626.765H2727.14V617.585Z" fill="white"/>
</mask>
<g mask="url(#mask53_159_1591)">
<mask id="mask54_159_1591" style="mask-type:luminance" maskUnits="userSpaceOnUse" x="2349" y="617" width="378" height="10">
<path d="M2352.22 617.796C2448.46 617.796 2544.66 618.324 2640.75 619.238C2668.3 619.519 2696.01 619.766 2723.55 620.188C2727.49 620.188 2727.49 626.202 2723.55 626.202C2627.35 625.042 2531.15 624.233 2435.06 623.987C2407.48 623.846 2379.8 623.846 2352.22 623.846C2348.28 623.846 2348.28 617.796 2352.22 617.796Z" fill="white"/>
</mask>
<g mask="url(#mask54_159_1591)">
<path d="M-4685.64 -2527.05H6984.26V3599.65H-4685.64V-2527.05Z" fill="#FF9500"/>
</g>
</g>
</g>
</g>
</g>
<mask id="mask55_159_1591" style="mask-type:luminance" maskUnits="userSpaceOnUse" x="2329" y="612" width="17" height="17">
<path d="M2345.02 612.556H2329.15V628.455H2345.02V612.556Z" fill="white"/>
</mask>
<g mask="url(#mask55_159_1591)">
<mask id="mask56_159_1591" style="mask-type:luminance" maskUnits="userSpaceOnUse" x="2329" y="613" width="16" height="16">
<path d="M2336.89 613.225C2341.07 613.225 2344.34 616.636 2344.34 620.682C2344.34 624.762 2340.93 628.174 2336.89 628.174C2332.81 628.174 2329.4 624.762 2329.4 620.682C2329.4 616.636 2332.81 613.225 2336.89 613.225Z" fill="white"/>
</mask>
<g mask="url(#mask56_159_1591)">
<mask id="mask57_159_1591" style="mask-type:luminance" maskUnits="userSpaceOnUse" x="2328" y="606" width="19" height="28">
<path d="M2328.91 606.083H2346.92V633.097H2328.91V606.083Z" fill="white"/>
</mask>
<g mask="url(#mask57_159_1591)">
<mask id="mask58_159_1591" style="mask-type:luminance" maskUnits="userSpaceOnUse" x="2329" y="613" width="17" height="16">
<path d="M2345.02 613.12H2329.15V628.244H2345.02V613.12Z" fill="white"/>
</mask>
<g mask="url(#mask58_159_1591)">
<mask id="mask59_159_1591" style="mask-type:luminance" maskUnits="userSpaceOnUse" x="2329" y="613" width="16" height="16">
<path d="M2336.89 613.226C2341.07 613.226 2344.34 616.637 2344.34 620.682C2344.34 624.763 2340.93 628.175 2336.89 628.175C2332.81 628.175 2329.39 624.763 2329.39 620.682C2329.39 616.637 2332.81 613.226 2336.89 613.226Z" fill="white"/>
</mask>
<g mask="url(#mask59_159_1591)">
<path d="M-4685.65 -2527.05H6984.26V3599.65H-4685.65V-2527.05Z" fill="#FF9500"/>
</g>
</g>
</g>
</g>
</g>
<mask id="mask60_159_1591" style="mask-type:luminance" maskUnits="userSpaceOnUse" x="682" y="499" width="1504" height="235">
<path d="M2185.86 499.753H682.095V733.871H2185.86V499.753Z" fill="white"/>
</mask>
<g mask="url(#mask60_159_1591)">
<path d="M740.472 668.363C729.498 668.363 720.141 665.936 712.474 661.047C704.876 656.193 699.459 649.51 696.293 641.068C693.093 632.556 692.565 622.777 694.746 611.803C696.891 601.321 700.936 592.07 706.846 584.086C712.755 576.137 720.001 569.946 728.654 565.514C737.377 561.117 746.874 558.901 757.215 558.901C766.29 558.901 774.38 560.66 781.415 564.107C788.52 567.484 794.148 572.338 798.298 578.599C802.414 584.789 804.665 592.07 805.052 600.407H780.711C779.867 594.603 777.229 589.995 772.832 586.619C768.506 583.242 763.124 581.553 756.652 581.553C750.356 581.553 744.587 582.96 739.346 585.774C734.07 588.588 729.674 592.457 726.121 597.311C722.533 602.201 720.106 607.828 718.805 614.195C717.679 620.386 717.855 625.873 719.368 630.656C720.95 635.37 723.729 639.063 727.669 641.771C731.608 644.409 736.533 645.711 742.442 645.711C749.266 645.711 755.702 643.987 761.717 640.505C767.697 636.953 772.48 632.134 776.068 626.013H800.971C797.489 634.948 792.706 642.545 786.62 648.806C780.5 655.102 773.571 659.921 765.797 663.298C757.989 666.675 749.547 668.363 740.472 668.363Z" fill="white"/>
<path d="M905.592 668.363C894.231 668.363 884.629 665.936 876.75 661.047C868.941 656.193 863.419 649.51 860.147 641.068C856.947 632.556 856.384 622.777 858.459 611.803C860.605 601.392 864.72 592.211 870.84 584.227C877.031 576.277 884.664 570.087 893.774 565.655C902.849 561.153 912.697 558.901 923.32 558.901C934.646 558.901 944.213 561.364 952.022 566.218C959.901 571.001 965.458 577.684 968.765 586.196C972.036 594.638 972.599 604.417 970.453 615.461C968.272 625.873 964.122 635.088 957.931 643.038C951.811 651.022 944.213 657.248 935.138 661.75C926.134 666.182 916.285 668.363 905.592 668.363ZM882.659 614.054C881.533 620.245 881.744 625.732 883.362 630.516C885.051 635.299 887.935 639.063 892.085 641.771C896.306 644.409 901.442 645.711 907.562 645.711C913.823 645.711 919.662 644.374 925.008 641.631C930.425 638.817 934.998 634.983 938.656 630.094C942.384 625.134 944.917 619.506 946.253 613.21C947.449 606.844 947.238 601.321 945.55 596.608C943.862 591.93 940.907 588.272 936.686 585.634C932.536 582.925 927.435 581.553 921.35 581.553C915.16 581.553 909.321 582.96 903.904 585.774C898.452 588.518 893.844 592.317 890.116 597.171C886.458 602.06 883.96 607.688 882.659 614.054Z" fill="white"/>
<path d="M1021.72 666.253L1042.82 561.012H1062.24L1096.29 626.155L1099.8 608.849L1109.23 561.012H1133.15L1112.19 666.253H1092.77L1058.58 601.392L1055.63 616.447L1045.64 666.253H1021.72Z" fill="white"/>
<path d="M1180 666.252L1201.11 561.012H1267.09L1262.87 582.679H1221.08L1215.88 608.989H1253.73L1249.51 629.953H1211.66L1204.34 666.252H1180Z" fill="white"/>
<path d="M1307.93 666.253L1329.04 561.012H1398.26L1394.32 581.132H1349.16L1344.8 602.94H1385.88L1381.8 622.919H1340.86L1336.21 645.993H1382.92L1378.84 666.253H1307.93Z" fill="white"/>
<path d="M1441.74 666.253L1462.84 561.012H1506.46C1514.79 561.012 1521.69 562.63 1527.14 565.796C1532.56 568.891 1536.35 573.323 1538.53 579.022C1540.79 584.649 1541.1 591.332 1539.52 599C1538.01 606.422 1535.02 612.789 1530.52 618.135C1526.01 623.482 1520.31 627.421 1513.49 629.954L1527.84 666.253H1500.83L1488.59 633.471H1472.41L1465.79 666.253H1441.74ZM1476.07 613.351H1493.23C1499.49 613.351 1504.52 611.944 1508.29 609.131C1512.01 606.246 1514.41 602.201 1515.46 597.031C1516.59 592.177 1515.88 588.378 1513.35 585.634C1510.89 582.82 1506.49 581.413 1500.12 581.413H1482.54L1476.07 613.351Z" fill="white"/>
<path d="M1589.96 666.253L1611.06 561.012H1680.28L1676.34 581.132H1631.18L1626.82 602.94H1667.9L1663.82 622.919H1622.88L1618.24 645.993H1664.95L1660.87 666.253H1589.96Z" fill="white"/>
<path d="M1723.76 666.252L1744.86 561.012H1764.28L1798.33 626.154L1801.84 608.848L1811.27 561.012H1835.19L1814.22 666.252H1794.81L1760.62 601.392L1757.66 616.446L1747.67 666.252H1723.76Z" fill="white"/>
<path d="M1932.41 668.363C1921.44 668.363 1912.08 665.936 1904.41 661.047C1896.81 656.193 1891.4 649.51 1888.23 641.068C1885.03 632.556 1884.5 622.777 1886.68 611.803C1888.83 601.321 1892.88 592.07 1898.78 584.086C1904.69 576.137 1911.94 569.946 1920.59 565.514C1929.32 561.117 1938.81 558.901 1949.15 558.901C1958.23 558.901 1966.32 560.66 1973.35 564.107C1980.46 567.484 1986.09 572.338 1990.24 578.599C1994.35 584.789 1996.6 592.07 1996.99 600.407H1972.65C1971.81 594.603 1969.17 589.995 1964.77 586.619C1960.44 583.242 1955.06 581.553 1948.59 581.553C1942.29 581.553 1936.53 582.96 1931.29 585.774C1926.01 588.588 1921.61 592.457 1918.06 597.311C1914.47 602.201 1912.05 607.828 1910.74 614.195C1909.62 620.386 1909.79 625.873 1911.31 630.656C1912.89 635.37 1915.67 639.063 1919.61 641.771C1923.55 644.409 1928.47 645.711 1934.38 645.711C1941.2 645.711 1947.64 643.987 1953.66 640.505C1959.64 636.953 1964.42 632.134 1968.01 626.013H1992.91C1989.43 634.948 1984.64 642.545 1978.56 648.806C1972.44 655.102 1965.51 659.921 1957.74 663.298C1949.93 666.675 1941.49 668.363 1932.41 668.363Z" fill="white"/>
<path d="M2045.9 666.252L2067.01 561.012H2136.23L2132.29 581.131H2087.13L2082.77 602.939H2123.85L2119.77 622.918H2078.83L2074.18 645.992H2120.89L2116.81 666.252H2045.9Z" fill="white"/>
</g>
<mask id="mask61_159_1591" style="mask-type:luminance" maskUnits="userSpaceOnUse" x="0" y="0" width="2801" height="577">
<path d="M2800.42 0H0.000976562V576.292H2800.42V0Z" fill="white"/>
</mask>
<g mask="url(#mask61_159_1591)">
<path d="M215.994 207.611C232.034 207.611 245.892 210.496 257.64 216.194C269.353 221.822 279.061 229.525 286.765 239.268C294.432 248.941 300.131 260.302 303.789 273.317C307.447 286.366 309.276 300.436 309.276 315.525C309.276 338.6 304.985 360.408 296.473 380.949C288.031 401.491 276.423 419.43 261.721 434.695C246.983 449.89 229.572 461.955 209.522 470.854C189.438 479.648 167.665 484.079 144.239 484.079C141.214 484.079 135.973 483.974 128.481 483.798C120.954 483.587 112.336 482.848 102.593 481.547C92.9203 480.21 82.6495 478.241 71.7807 475.638C60.8768 472.929 50.6059 469.236 40.9683 464.523L127.778 99.6975L205.442 87.7383L174.348 217.179C180.996 214.189 187.644 211.832 194.327 210.144C201.081 208.456 208.291 207.611 215.994 207.611ZM150.852 422.314C162.459 422.314 173.434 419.5 183.775 413.872C194.186 408.174 203.121 400.576 210.648 391.079C218.245 381.512 224.19 370.749 228.516 358.719C232.913 346.619 235.129 334.062 235.129 321.013C235.129 304.973 232.456 292.451 227.109 283.447C221.763 274.372 211.844 269.799 197.422 269.799C192.709 269.799 186.624 270.643 179.132 272.332C171.605 274.02 164.851 277.537 158.872 282.884L125.667 420.344C127.707 420.731 129.501 421.118 131.014 421.47C132.491 421.751 134.039 421.997 135.657 422.173C137.345 422.279 139.35 422.314 141.707 422.314C144.028 422.314 147.088 422.314 150.852 422.314Z" fill="white"/>
<path d="M403.547 477.044H329.4L392.01 213.098H466.86L403.547 477.044ZM439.706 181.019C429.365 181.019 420.008 177.924 411.566 171.733C403.195 165.542 399.045 156.116 399.045 143.453C399.045 136.418 400.451 129.805 403.265 123.615C406.15 117.424 409.948 112.078 414.662 107.575C419.34 103.073 424.792 99.4854 430.983 96.7418C437.173 94.0334 443.786 92.6616 450.821 92.6616C461.127 92.6616 470.448 95.7569 478.819 101.948C487.156 108.138 491.341 117.635 491.341 130.368C491.341 137.403 489.934 144.016 487.12 150.206C484.306 156.397 480.543 161.743 475.865 166.246C471.151 170.748 465.735 174.371 459.544 177.079C453.353 179.717 446.741 181.019 439.706 181.019Z" fill="white"/>
<path d="M543.124 147.394L620.788 135.434L601.794 213.099H685.087L670.032 274.301H587.162L565.073 366.598C563.103 374.301 561.837 381.512 561.274 388.265C560.782 394.948 561.626 400.717 563.807 405.571C566.058 410.46 569.856 414.259 575.203 416.967C580.549 419.605 587.901 420.907 597.292 420.907C605.242 420.907 612.98 420.168 620.507 418.656C628.105 417.178 635.737 415.068 643.441 412.324L648.928 469.588C638.868 473.246 627.999 476.412 616.286 479.014C604.538 481.723 590.679 483.095 574.64 483.095C551.566 483.095 533.627 479.648 520.894 472.824C508.231 466 499.227 456.609 493.88 444.685C488.534 432.796 486.177 419.148 486.846 403.742C487.479 388.371 489.835 372.156 493.88 355.061L543.124 147.394Z" fill="white"/>
<path d="M695.088 371.664C695.088 348.977 698.746 327.591 706.063 307.507C713.449 287.458 724.001 269.906 737.719 254.887C751.402 239.797 768.004 227.873 787.526 219.15C807.118 210.427 828.961 206.065 853.09 206.065C868.074 206.065 881.546 207.542 893.47 210.427C905.359 213.24 916.157 217.004 925.83 221.682L900.223 279.93C893.54 277.222 886.611 274.795 879.4 272.614C872.155 270.469 863.396 269.378 853.09 269.378C827.941 269.378 808.208 277.82 793.857 294.704C779.506 311.587 772.331 334.591 772.331 363.645C772.331 380.739 775.989 394.563 783.305 405.15C790.691 415.667 804.269 420.908 823.966 420.908C833.604 420.908 842.96 419.923 851.965 417.953C861.039 415.913 869.13 413.381 876.164 410.356L881.651 470.011C872.26 473.669 861.954 476.905 850.698 479.719C839.513 482.603 825.936 484.081 809.896 484.081C789.144 484.081 771.557 481.056 757.135 475.076C742.784 469.096 730.896 460.971 721.539 450.736C712.253 440.535 705.5 428.576 701.279 414.858C697.128 401.175 695.088 386.789 695.088 371.664Z" fill="white"/>
<path d="M1040.13 484.081C1022.41 484.081 1007 481.407 993.985 476.061C980.935 470.714 970.137 463.222 961.625 453.55C953.078 443.806 946.641 432.304 942.349 419.079C938.023 405.854 935.877 391.221 935.877 375.182C935.877 355.133 939.113 335.048 945.585 314.964C952.128 294.915 961.766 276.835 974.428 260.796C987.161 244.756 1002.74 231.636 1021.14 221.401C1039.5 211.2 1060.57 206.065 1084.31 206.065C1101.76 206.065 1117.02 208.738 1130.18 214.085C1143.4 219.431 1154.27 226.994 1162.82 236.737C1171.33 246.41 1177.77 257.841 1182.1 271.067C1186.49 284.292 1188.71 298.924 1188.71 314.964C1188.71 335.048 1185.51 355.133 1179.14 375.182C1172.74 395.266 1163.38 413.31 1151 429.35C1138.62 445.389 1123.14 458.544 1104.57 468.745C1086.07 478.945 1064.61 484.081 1040.13 484.081ZM1077.28 269.378C1066.3 269.378 1056.59 272.579 1048.15 278.946C1039.78 285.242 1032.75 293.261 1027.05 303.005C1021.42 312.677 1017.13 323.265 1014.25 334.802C1011.43 346.339 1010.02 357.313 1010.02 367.725C1010.02 384.714 1012.7 397.834 1018.04 407.12C1023.39 416.335 1033.1 420.908 1047.17 420.908C1058.21 420.908 1067.92 417.742 1076.29 411.341C1084.63 404.974 1091.63 396.955 1097.26 387.282C1102.95 377.538 1107.25 366.881 1110.06 355.344C1112.94 343.807 1114.42 332.903 1114.42 322.561C1114.42 305.502 1111.75 292.382 1106.4 283.166C1101.05 273.986 1091.35 269.378 1077.28 269.378Z" fill="white"/>
<path d="M1282.9 477.044H1208.76L1271.37 213.098H1346.22L1282.9 477.044ZM1319.06 181.019C1308.72 181.019 1299.36 177.924 1290.92 171.733C1282.55 165.542 1278.4 156.116 1278.4 143.453C1278.4 136.418 1279.81 129.805 1282.62 123.615C1285.51 117.424 1289.3 112.078 1294.02 107.575C1298.7 103.073 1304.15 99.4854 1310.34 96.7418C1316.53 94.0334 1323.14 92.6616 1330.18 92.6616C1340.48 92.6616 1349.8 95.7569 1358.18 101.948C1366.51 108.138 1370.7 117.635 1370.7 130.368C1370.7 137.403 1369.29 144.016 1366.48 150.206C1363.66 156.397 1359.9 161.743 1355.22 166.246C1350.51 170.748 1345.09 174.371 1338.9 177.079C1332.71 179.717 1326.1 181.019 1319.06 181.019Z" fill="white"/>
<path d="M1411.35 225.197C1417.05 223.509 1423.35 221.61 1430.2 219.429C1437.03 217.283 1444.73 215.278 1453.28 213.379C1461.79 211.515 1471.32 210.002 1481.84 208.877C1492.32 207.681 1504.28 207.048 1517.72 207.048C1557.18 207.048 1584.3 218.444 1599.04 241.237C1613.74 263.959 1616.24 295.053 1606.5 334.518L1572.45 477.044H1497.6L1530.8 337.614C1532.77 328.891 1534.32 320.449 1535.45 312.288C1536.64 304.058 1536.61 296.812 1535.31 290.621C1533.97 284.431 1530.87 279.436 1526.02 275.567C1521.13 271.733 1513.67 269.798 1503.65 269.798C1493.98 269.798 1484.13 270.853 1474.1 272.893L1425.42 477.044H1350.71L1411.35 225.197Z" fill="white"/>
<path d="M1720.88 129.383H1799.25L1715.39 477.044H1637.59L1720.88 129.383Z" fill="#FF9500"/>
<path d="M1852.34 225.197C1858.04 223.508 1864.34 221.609 1871.2 219.428C1878.02 217.283 1885.72 215.278 1894.27 213.378C1902.78 211.514 1912.31 210.001 1922.83 208.876C1933.31 207.68 1945.27 207.047 1958.71 207.047C1998.17 207.047 2025.29 218.443 2040.03 241.236C2054.73 263.958 2057.23 295.052 2047.49 334.518L2013.44 477.043H1938.59L1971.79 337.613C1973.76 328.89 1975.31 320.448 1976.44 312.288C1977.63 304.057 1977.6 296.811 1976.3 290.62C1974.96 284.43 1971.86 279.435 1967.01 275.566C1962.12 271.732 1954.66 269.797 1944.64 269.797C1934.97 269.797 1925.12 270.853 1915.09 272.893L1866.41 477.043H1791.7L1852.34 225.197Z" fill="#FF9500"/>
<path d="M2184.88 484.079C2168.17 484.079 2153.85 481.266 2141.96 475.638C2130.14 469.94 2120.44 462.131 2112.84 452.282C2105.31 442.363 2099.82 430.826 2096.38 417.671C2092.9 404.445 2091.17 390.305 2091.17 375.181C2091.17 352.493 2095.25 331.002 2103.41 310.742C2111.57 290.482 2122.83 272.859 2137.18 257.84C2151.6 242.75 2168.7 230.897 2188.39 222.244C2208.16 213.521 2229.76 209.159 2253.11 209.159C2259.2 209.159 2264.83 209.511 2270 210.144C2275.13 210.812 2280.41 211.797 2285.75 213.099L2312.91 99.6975L2390.57 87.7383L2324.45 363.221C2319.73 382.286 2318.4 401.42 2320.37 420.625C2322.41 439.866 2326.27 456.995 2331.9 471.98L2265.21 481.547C2263.24 477.502 2261.41 473.668 2259.73 470.01C2258.04 466.352 2256.35 462.201 2254.66 457.488C2245.27 465.191 2234.82 471.558 2223.29 476.623C2211.75 481.582 2198.94 484.079 2184.88 484.079ZM2271.26 272.894C2269.19 272.543 2267.39 272.191 2265.92 271.91C2264.4 271.558 2262.89 271.276 2261.41 271.065C2259.9 270.89 2257.97 270.784 2255.65 270.784C2253.29 270.784 2250.3 270.784 2246.64 270.784C2234.89 270.784 2224.02 273.563 2214 279.085C2203.94 284.643 2195.32 292.1 2188.11 301.456C2180.97 310.847 2175.38 321.505 2171.37 333.394C2167.32 345.212 2165.32 357.312 2165.32 369.693C2165.32 385.733 2168.06 398.36 2173.62 407.541C2179.14 416.756 2189.1 421.329 2203.45 421.329C2211.12 421.329 2218.15 419.852 2224.55 416.827C2230.92 413.837 2237.64 408.807 2244.67 401.772C2245.3 393.436 2246.39 384.678 2247.91 375.462C2249.38 366.282 2251 357.84 2252.69 350.137L2271.26 272.894Z" fill="#FF9500"/>
<path d="M2446.22 477.044H2372.07L2434.68 213.098H2509.53L2446.22 477.044ZM2482.38 181.019C2472.04 181.019 2462.68 177.924 2454.24 171.733C2445.87 165.542 2441.72 156.116 2441.72 143.453C2441.72 136.418 2443.12 129.805 2445.94 123.615C2448.82 117.424 2452.62 112.078 2457.33 107.575C2462.01 103.073 2467.46 99.4854 2473.66 96.7418C2479.85 94.0334 2486.46 92.6616 2493.49 92.6616C2503.8 92.6616 2513.12 95.7569 2521.49 101.948C2529.83 108.138 2534.01 117.635 2534.01 130.368C2534.01 137.403 2532.61 144.016 2529.79 150.206C2526.98 156.397 2523.22 161.743 2518.54 166.246C2513.82 170.748 2508.41 174.371 2502.22 177.079C2496.03 179.717 2489.41 181.019 2482.38 181.019Z" fill="#FF9500"/>
<mask id="mask62_159_1591" style="mask-type:luminance" maskUnits="userSpaceOnUse" x="2521" y="207" width="279" height="280">
<path d="M2521.28 207.104H2799.58V486.246H2521.28V207.104Z" fill="white"/>
</mask>
<g mask="url(#mask62_159_1591)">
<path d="M2761.38 363.22C2756.67 382.284 2755.33 401.419 2757.3 420.624C2759.34 439.864 2763.21 456.994 2768.84 471.978L2702.15 481.545C2700.07 477.5 2698.21 473.666 2696.52 470.008C2694.9 466.35 2693.28 462.199 2691.6 457.486C2682.2 465.189 2671.83 471.556 2660.5 476.621C2649.14 481.58 2636.44 484.078 2622.37 484.078C2605.67 484.078 2591.35 481.158 2579.46 475.355C2567.54 469.445 2557.83 461.566 2550.34 451.718C2542.81 441.869 2537.39 430.332 2534.02 417.106C2530.71 403.881 2529.09 389.776 2529.09 374.757C2529.09 351.612 2533.17 329.839 2541.33 309.474C2549.49 289.038 2560.82 271.204 2575.38 256.009C2590.01 240.814 2607.18 228.855 2626.88 220.132C2646.57 211.408 2667.96 207.047 2691.03 207.047C2694.13 207.047 2699.4 207.258 2706.93 207.61C2714.42 207.997 2723.01 208.806 2732.68 210.001C2742.42 211.127 2752.66 213.062 2763.35 215.77C2774.04 218.408 2784.21 222.066 2793.88 226.744L2761.38 363.22ZM2709.18 270.782C2704.75 270.149 2700.81 269.657 2697.36 269.375C2693.88 269.024 2689.63 268.813 2684.56 268.813C2673.2 268.813 2662.54 271.697 2652.62 277.395C2642.77 283.023 2634.19 290.445 2626.88 299.625C2619.56 308.841 2613.79 319.463 2609.57 331.563C2605.35 343.593 2603.24 356.114 2603.24 369.129C2603.24 385.168 2605.91 397.901 2611.26 407.258C2616.6 416.649 2626.49 421.327 2640.95 421.327C2648.61 421.327 2655.58 419.85 2661.77 416.825C2667.96 413.835 2674.57 408.805 2681.61 401.77C2682.24 393.434 2683.33 384.676 2684.84 375.46C2686.32 366.28 2687.94 357.838 2689.63 350.135L2709.18 270.782Z" fill="#FF9500"/>
</g>
</g>
<path d="M685.226 837.551C693.664 837.57 700.106 839.239 704.552 842.557C709.065 845.875 711.313 850.605 711.294 856.749C711.28 861.61 710.322 865.759 708.421 869.198C706.588 872.569 704.015 875.331 700.7 877.484C697.453 879.637 693.533 881.215 688.939 882.217C684.413 883.152 679.416 883.614 673.948 883.601L668.48 883.589L662.43 908.385L649.671 908.357L666.385 839.23C669.628 838.563 672.869 838.131 676.11 837.936C679.352 837.673 682.39 837.545 685.226 837.551ZM683.978 848.282C682.695 848.28 681.48 848.311 680.332 848.376C679.184 848.44 678.036 848.539 676.888 848.672L671.043 872.861L676.208 872.872C679.043 872.879 681.778 872.649 684.413 872.182C687.047 871.715 689.378 870.944 691.407 869.869C693.436 868.725 695.06 867.21 696.281 865.323C697.502 863.368 698.117 860.905 698.126 857.934C698.137 854.491 696.861 852.024 694.3 850.533C691.807 849.043 688.366 848.292 683.978 848.282ZM749.793 866.456C748.444 865.98 746.994 865.605 745.442 865.332C743.89 865.058 742.068 864.919 739.975 864.915C738.827 864.912 737.612 865.01 736.329 865.21C735.046 865.342 733.965 865.542 733.086 865.81L722.73 908.521L710.477 908.493L722.781 857.99C725.619 857.051 728.693 856.248 732.003 855.58C735.313 854.845 738.893 854.482 742.741 854.49C743.551 854.492 744.462 854.562 745.474 854.699C746.487 854.769 747.465 854.872 748.41 855.01C749.422 855.147 750.333 855.318 751.143 855.522C752.02 855.727 752.761 855.964 753.368 856.236L749.793 866.456ZM753.412 889.451C753.425 884.928 754.147 880.575 755.577 876.393C757.075 872.143 759.179 868.401 761.89 865.166C764.667 861.865 767.983 859.239 771.837 857.29C775.691 855.341 780.015 854.372 784.808 854.383C789.939 854.394 793.918 855.719 796.745 858.359C799.573 860.998 800.98 864.377 800.968 868.495C800.955 872.748 799.898 876.188 797.798 878.817C795.697 881.445 792.957 883.498 789.577 884.975C786.264 886.453 782.481 887.457 778.226 887.988C774.039 888.518 769.785 888.846 765.464 888.972C765.396 889.107 765.361 889.241 765.361 889.376L765.358 890.389C765.34 896.532 769.212 899.613 776.976 899.63C781.566 899.641 786.16 898.706 790.756 896.826L791.739 906.752C790.117 907.491 787.819 908.228 784.846 908.964C781.874 909.7 778.497 910.064 774.717 910.056C770.936 910.047 767.697 909.5 765 908.413C762.303 907.327 760.08 905.837 758.33 903.943C756.648 902.049 755.405 899.886 754.603 897.453C753.8 894.954 753.403 892.286 753.412 889.451ZM782.955 864.404C780.93 864.399 779.004 864.8 777.179 865.606C775.354 866.412 773.731 867.522 772.309 868.937C770.887 870.351 769.633 872.036 768.547 873.991C767.528 875.879 766.779 877.937 766.3 880.163C774.402 879.912 780.278 878.946 783.929 877.266C787.647 875.587 789.511 873.06 789.521 869.684C789.525 868.334 789.023 867.118 788.013 866.035C787.071 864.953 785.385 864.409 782.955 864.404ZM819.246 900.13C822.487 900.138 825.053 899.637 826.947 898.629C828.84 897.553 829.79 895.935 829.797 893.774C829.802 892.019 829.199 890.634 827.987 889.619C826.775 888.536 824.652 887.282 821.618 885.857C820 885.111 818.483 884.331 817.068 883.518C815.72 882.705 814.542 881.757 813.532 880.675C812.523 879.592 811.717 878.342 811.113 876.922C810.51 875.436 810.212 873.68 810.218 871.655C810.234 866.389 812.17 862.208 816.028 859.111C819.885 856.014 825.459 854.474 832.75 854.49C836.126 854.498 839.129 854.876 841.76 855.624C844.458 856.306 846.481 857.019 847.829 857.765L843.446 867.274C842.3 866.596 840.648 865.951 838.49 865.339C836.332 864.659 834.071 864.316 831.708 864.311C830.561 864.308 829.413 864.407 828.264 864.607C827.183 864.807 826.204 865.142 825.325 865.613C824.445 866.083 823.701 866.757 823.091 867.633C822.548 868.442 822.275 869.454 822.271 870.669C822.267 872.222 822.87 873.506 824.083 874.521C825.362 875.469 827.182 876.486 829.542 877.572C831.766 878.589 833.654 879.572 835.204 880.521C836.754 881.47 838.033 882.553 839.042 883.77C840.051 884.92 840.79 886.238 841.258 887.724C841.726 889.143 841.957 890.865 841.951 892.89C841.944 895.388 841.43 897.716 840.411 899.874C839.392 901.965 837.902 903.784 835.939 905.333C834.044 906.813 831.678 907.99 828.84 908.861C826.002 909.732 822.76 910.164 819.115 910.155C816.617 910.15 814.356 909.976 812.332 909.634C810.375 909.292 808.654 908.917 807.17 908.508C805.687 908.032 804.439 907.557 803.428 907.082C802.417 906.607 801.641 906.201 801.102 905.862L805.486 896.251C805.957 896.523 806.631 896.895 807.508 897.37C808.452 897.777 809.497 898.184 810.643 898.592C811.857 899 813.172 899.374 814.589 899.715C816.074 899.988 817.626 900.127 819.246 900.13ZM850.819 889.67C850.833 885.147 851.555 880.794 852.985 876.612C854.483 872.362 856.587 868.62 859.297 865.385C862.075 862.084 865.391 859.458 869.245 857.509C873.099 855.56 877.422 854.591 882.216 854.602C887.346 854.613 891.326 855.938 894.153 858.578C896.98 861.217 898.388 864.596 898.376 868.714C898.363 872.967 897.306 876.407 895.205 879.036C893.105 881.664 890.364 883.717 886.984 885.194C883.672 886.672 879.888 887.676 875.634 888.207C871.446 888.737 867.192 889.065 862.871 889.191C862.803 889.326 862.769 889.46 862.769 889.595L862.766 890.608C862.747 896.751 866.62 899.832 874.383 899.849C878.974 899.86 883.568 898.925 888.164 897.045L889.147 906.971C887.524 907.71 885.227 908.448 882.254 909.183C879.281 909.919 875.905 910.283 872.124 910.275C868.344 910.266 865.105 909.719 862.408 908.632C859.711 907.546 857.487 906.056 855.738 904.162C854.056 902.268 852.813 900.105 852.01 897.672C851.208 895.173 850.811 892.505 850.819 889.67ZM880.363 864.623C878.337 864.618 876.412 865.019 874.587 865.825C872.762 866.631 871.138 867.741 869.716 869.156C868.294 870.57 867.04 872.255 865.954 874.21C864.936 876.098 864.187 878.156 863.708 880.382C871.81 880.131 877.686 879.165 881.337 877.485C885.055 875.806 886.919 873.279 886.929 869.903C886.933 868.553 886.431 867.337 885.421 866.254C884.479 865.172 882.793 864.628 880.363 864.623ZM913.641 858.216C916.344 857.412 919.418 856.677 922.863 856.009C926.376 855.275 930.191 854.912 934.309 854.921C940.52 854.935 945.073 856.464 947.966 859.509C950.86 862.553 952.299 866.641 952.284 871.772C952.28 873.189 952.14 874.708 951.865 876.328C951.658 877.88 951.383 879.499 951.04 881.186L944.273 909.019L932.02 908.992L938.378 882.474C938.72 880.99 939.062 879.472 939.405 877.92C939.747 876.368 939.954 874.883 940.026 873.466C940.1 871.103 939.532 869.144 938.322 867.588C937.179 866.033 934.886 865.252 931.443 865.244C928.54 865.237 926.041 865.535 923.947 866.138L913.59 908.95L901.337 908.923L913.641 858.216ZM973.282 842.148L986.047 840.152L982.151 856.143L999.467 856.182L997.006 866.303L979.69 866.264L974.564 887.214C974.222 888.698 973.982 889.947 973.844 890.959C973.706 891.904 973.636 892.781 973.633 893.592C973.631 894.402 973.696 895.212 973.829 896.022C974.029 896.765 974.364 897.441 974.835 898.05C975.374 898.591 976.115 899.065 977.059 899.473C978.07 899.812 979.42 899.984 981.108 899.988C982.931 899.992 984.687 899.76 986.376 899.291C988.065 898.822 989.552 898.319 990.836 897.782L991.718 907.607C990.163 908.278 988.203 908.915 985.839 909.518C983.474 910.12 980.705 910.417 977.532 910.41C971.726 910.397 967.578 909.139 965.088 906.636C962.598 904.065 961.359 900.585 961.372 896.197C961.377 894.577 961.484 892.923 961.691 891.236C961.967 889.481 962.343 887.625 962.822 885.669L973.282 842.148ZM1001.53 890.009C1001.54 885.486 1002.26 881.133 1003.7 876.95C1005.19 872.701 1007.3 868.959 1010.01 865.724C1012.79 862.422 1016.1 859.797 1019.95 857.848C1023.81 855.899 1028.13 854.93 1032.93 854.94C1038.06 854.952 1042.04 856.277 1044.86 858.917C1047.69 861.556 1049.1 864.934 1049.09 869.053C1049.07 873.306 1048.02 876.746 1045.92 879.374C1043.81 882.003 1041.07 884.056 1037.69 885.533C1034.38 887.011 1030.6 888.015 1026.34 888.546C1022.16 889.076 1017.9 889.404 1013.58 889.53C1013.51 889.664 1013.48 889.799 1013.48 889.934L1013.48 890.947C1013.46 897.09 1017.33 900.171 1025.09 900.188C1029.68 900.199 1034.28 899.264 1038.87 897.384L1039.86 907.31C1038.23 908.049 1035.94 908.786 1032.96 909.522C1029.99 910.258 1026.61 910.622 1022.83 910.613C1019.05 910.605 1015.81 910.058 1013.12 908.971C1010.42 907.885 1008.2 906.395 1006.45 904.501C1004.77 902.607 1003.52 900.444 1002.72 898.011C1001.92 895.512 1001.52 892.844 1001.53 890.009ZM1031.07 864.961C1029.05 864.957 1027.12 865.358 1025.3 866.164C1023.47 866.97 1021.85 868.08 1020.43 869.494C1019 870.909 1017.75 872.594 1016.66 874.549C1015.65 876.437 1014.9 878.495 1014.42 880.721C1022.52 880.47 1028.4 879.504 1032.05 877.824C1035.76 876.145 1037.63 873.617 1037.64 870.242C1037.64 868.892 1037.14 867.676 1036.13 866.593C1035.19 865.511 1033.5 864.967 1031.07 864.961ZM1072.3 910.725C1069.12 910.718 1066.39 910.205 1064.1 909.187C1061.81 908.102 1059.92 906.646 1058.44 904.82C1057.03 902.994 1055.99 900.832 1055.32 898.332C1054.65 895.833 1054.32 893.132 1054.33 890.229C1054.35 885.706 1055.14 881.353 1056.7 877.171C1058.33 872.921 1060.61 869.213 1063.52 866.047C1066.5 862.813 1070.12 860.256 1074.38 858.375C1078.64 856.427 1083.47 855.459 1088.87 855.471C1089.54 855.473 1090.35 855.508 1091.3 855.578C1092.24 855.648 1093.29 855.819 1094.43 856.091L1100.07 832.813L1112.84 830.816L1098.79 888.202C1098.45 889.754 1098.18 891.34 1097.97 892.96C1097.83 894.512 1097.76 895.997 1097.75 897.415C1097.75 899.238 1097.91 901.061 1098.24 902.884C1098.58 904.708 1099.11 906.599 1099.85 908.559L1088.9 910.154C1088.17 908.735 1087.53 907.012 1087 904.986C1085.3 906.467 1083.24 907.813 1080.81 909.022C1078.37 910.164 1075.54 910.732 1072.3 910.725ZM1091.97 866.01C1090.69 865.737 1089.14 865.598 1087.32 865.594C1084.21 865.587 1081.37 866.256 1078.81 867.6C1076.24 868.877 1074.04 870.628 1072.21 872.851C1070.38 875.008 1068.95 877.502 1067.93 880.335C1066.98 883.169 1066.5 886.104 1066.49 889.142C1066.48 890.695 1066.61 892.147 1066.88 893.497C1067.21 894.848 1067.72 896.031 1068.39 897.045C1069.06 898.059 1069.93 898.871 1071.01 899.481C1072.16 900.092 1073.54 900.398 1075.16 900.402C1077.32 900.407 1079.21 899.972 1080.84 899.098C1082.53 898.225 1084.12 897.013 1085.61 895.464C1085.68 894.046 1085.82 892.561 1086.03 891.009C1086.3 889.457 1086.61 887.938 1086.95 886.454L1091.97 866.01ZM1168.82 855.347C1171.93 855.354 1174.59 855.9 1176.82 856.985C1179.11 858.003 1181 859.425 1182.48 861.251C1183.96 863.077 1185.06 865.24 1185.8 867.74C1186.53 870.172 1186.9 872.805 1186.89 875.641C1186.87 880.299 1186.05 884.753 1184.42 889.002C1182.78 893.252 1180.44 896.993 1177.4 900.227C1174.42 903.461 1170.76 906.052 1166.44 908C1162.11 909.88 1157.25 910.814 1151.85 910.802C1151.04 910.8 1149.96 910.764 1148.61 910.694C1147.26 910.623 1145.77 910.451 1144.15 910.177C1142.53 909.904 1140.88 909.529 1139.19 909.052C1137.51 908.576 1135.96 907.965 1134.54 907.219L1152.49 832.931L1165.25 830.934L1158.69 858.059C1160.18 857.319 1161.76 856.682 1163.45 856.145C1165.14 855.609 1166.93 855.343 1168.82 855.347ZM1153.5 900.477C1156.6 900.484 1159.44 899.849 1162.01 898.572C1164.65 897.228 1166.88 895.444 1168.71 893.22C1170.61 890.996 1172.07 888.468 1173.09 885.635C1174.11 882.734 1174.62 879.731 1174.63 876.626C1174.64 875.073 1174.51 873.655 1174.24 872.372C1173.97 871.021 1173.51 869.872 1172.83 868.926C1172.16 867.912 1171.25 867.133 1170.11 866.591C1168.96 865.98 1167.51 865.673 1165.75 865.669C1164.27 865.666 1162.65 865.932 1160.89 866.469C1159.13 867.005 1157.51 867.845 1156.02 868.989L1148.54 899.959C1149.14 900.096 1149.82 900.232 1150.56 900.369C1151.37 900.438 1152.35 900.474 1153.5 900.477ZM1242.69 856.728C1241.33 860.573 1239.84 864.587 1238.2 868.769C1236.57 872.883 1234.73 877.031 1232.7 881.212C1230.73 885.393 1228.59 889.574 1226.28 893.755C1223.97 897.867 1221.5 901.879 1218.85 905.788C1216.88 908.754 1214.85 911.585 1212.75 914.281C1210.65 917.044 1208.35 919.469 1205.84 921.556C1203.4 923.644 1200.7 925.325 1197.72 926.601C1194.75 927.877 1191.37 928.511 1187.59 928.503C1185.5 928.498 1183.64 928.258 1182.03 927.781C1180.34 927.305 1178.92 926.762 1177.78 926.152L1181.76 916.338C1182.7 916.88 1183.74 917.321 1184.89 917.661C1186.11 918.002 1187.42 918.173 1188.84 918.176C1192.01 918.184 1194.78 917.346 1197.15 915.664C1199.59 914.049 1201.79 911.826 1203.75 908.995C1201.61 901.497 1199.82 893.358 1198.36 884.578C1196.9 875.798 1195.95 866.48 1195.51 856.622L1207.86 856.65C1207.92 859.486 1208.04 862.625 1208.24 866.069C1208.5 869.512 1208.79 873.057 1209.12 876.703C1209.51 880.282 1209.97 883.828 1210.5 887.339C1211.03 890.851 1211.63 894.093 1212.29 897.065C1214.33 893.829 1216.23 890.424 1218 886.85C1219.76 883.276 1221.39 879.735 1222.89 876.228C1224.38 872.653 1225.68 869.213 1226.77 865.908C1227.93 862.535 1228.91 859.465 1229.73 856.699L1242.69 856.728Z" fill="white"/>
<path d="M1327.91 917.89C1321.76 917.876 1315.46 917.606 1309 917.078C1302.54 916.551 1296.7 915.718 1291.48 914.579L1316.39 811.602C1322.24 810.488 1328.34 809.733 1334.7 809.337C1341.16 808.941 1347.05 808.749 1352.38 808.761C1358.54 808.775 1363.81 809.454 1368.22 810.796C1372.72 812.037 1376.36 813.736 1379.12 815.895C1381.98 818.055 1384.08 820.623 1385.4 823.599C1386.83 826.472 1387.54 829.549 1387.53 832.83C1387.52 835.086 1387.26 837.443 1386.74 839.902C1386.32 842.362 1385.39 844.82 1383.95 847.277C1382.61 849.632 1380.7 851.883 1378.24 854.031C1375.87 856.178 1372.74 858.119 1368.84 859.853C1373.45 861.914 1376.82 864.741 1378.96 868.334C1381.11 871.824 1382.17 875.723 1382.16 880.028C1382.14 884.949 1381.15 889.714 1379.19 894.323C1377.23 898.83 1374.09 902.872 1369.78 906.451C1365.46 909.927 1359.86 912.733 1352.99 914.871C1346.11 916.906 1337.75 917.912 1327.91 917.89ZM1325.9 869.906L1319.21 897.571C1320.85 897.883 1322.9 898.144 1325.36 898.354C1327.92 898.462 1330.28 898.519 1332.43 898.524C1335.51 898.531 1338.53 898.332 1341.51 897.929C1344.58 897.423 1347.3 896.558 1349.66 895.333C1352.13 894.109 1354.13 892.421 1355.68 890.272C1357.22 888.123 1358 885.356 1358.01 881.973C1358.01 880.538 1357.71 879.102 1357.1 877.665C1356.59 876.229 1355.72 874.945 1354.5 873.815C1353.27 872.684 1351.63 871.758 1349.58 871.036C1347.64 870.314 1345.28 869.95 1342.51 869.944L1325.9 869.906ZM1330.42 851.924L1345.49 851.958C1351.64 851.972 1356.21 850.649 1359.19 847.991C1362.27 845.332 1363.82 842.157 1363.83 838.467C1363.83 836.519 1363.38 834.877 1362.46 833.543C1361.64 832.106 1360.52 830.975 1359.09 830.152C1357.65 829.329 1356.02 828.761 1354.17 828.449C1352.33 828.035 1350.43 827.826 1348.48 827.821C1346.33 827.817 1344.02 827.914 1341.56 828.113C1339.1 828.21 1337.26 828.36 1336.02 828.562L1330.42 851.924ZM1414.68 916.701L1391.92 916.65L1411.39 835.806L1434.3 835.857L1414.68 916.701ZM1426.02 825.997C1422.85 825.989 1419.98 825.06 1417.42 823.209C1414.86 821.256 1413.59 818.331 1413.6 814.435C1413.61 812.282 1414.03 810.284 1414.85 808.441C1415.78 806.495 1416.96 804.857 1418.4 803.528C1419.84 802.096 1421.49 800.972 1423.33 800.156C1425.28 799.34 1427.34 798.934 1429.49 798.939C1432.67 798.946 1435.53 799.927 1438.09 801.88C1440.65 803.731 1441.92 806.605 1441.91 810.501C1441.9 812.653 1441.44 814.703 1440.51 816.649C1439.68 818.492 1438.55 820.13 1437.11 821.562C1435.67 822.891 1433.98 823.964 1432.03 824.78C1430.18 825.596 1428.18 826.001 1426.02 825.997ZM1457.77 815.765L1481.61 812.128L1475.7 835.95L1501.22 836.008L1496.55 854.758L1471.18 854.701L1464.33 882.981C1463.71 885.338 1463.29 887.541 1463.08 889.591C1462.97 891.641 1463.22 893.436 1463.83 894.975C1464.55 896.412 1465.72 897.542 1467.36 898.366C1469 899.19 1471.25 899.605 1474.12 899.611C1476.58 899.617 1478.94 899.417 1481.2 899.012C1483.56 898.505 1485.92 897.844 1488.28 897.029L1489.92 914.563C1486.84 915.684 1483.5 916.651 1479.91 917.463C1476.32 918.275 1472.06 918.675 1467.14 918.664C1460.07 918.648 1454.59 917.611 1450.7 915.552C1446.81 913.39 1444.05 910.513 1442.42 906.921C1440.79 903.227 1440.09 899.022 1440.31 894.307C1440.52 889.591 1441.26 884.621 1442.5 879.395L1457.77 815.765ZM1501.9 884.603C1501.92 877.632 1503.07 871.073 1505.35 864.927C1507.62 858.781 1510.87 853.406 1515.08 848.802C1519.3 844.198 1524.38 840.57 1530.34 837.918C1536.4 835.266 1543.11 833.949 1550.5 833.965C1555.11 833.976 1559.21 834.446 1562.79 835.377C1566.48 836.206 1569.81 837.341 1572.78 838.783L1564.88 856.603C1562.84 855.779 1560.68 855.056 1558.43 854.436C1556.28 853.713 1553.62 853.349 1550.44 853.341C1542.75 853.324 1536.69 855.925 1532.27 861.143C1527.84 866.259 1525.62 873.277 1525.59 882.196C1525.58 887.425 1526.69 891.682 1528.94 894.967C1531.18 898.151 1535.33 899.749 1541.38 899.763C1544.35 899.769 1547.22 899.468 1549.99 898.859C1552.76 898.25 1555.23 897.487 1557.38 896.569L1559.02 914.873C1556.14 915.994 1552.96 916.961 1549.48 917.773C1546.09 918.688 1541.94 919.14 1537.02 919.129C1530.66 919.115 1525.28 918.18 1520.88 916.325C1516.47 914.469 1512.84 912.001 1509.98 908.919C1507.12 905.734 1505.03 902.039 1503.71 897.832C1502.49 893.626 1501.89 889.217 1501.9 884.603ZM1603.77 919.279C1598.33 919.267 1593.62 918.436 1589.63 916.787C1585.63 915.137 1582.31 912.823 1579.65 909.844C1577.1 906.865 1575.16 903.375 1573.84 899.374C1572.52 895.27 1571.87 890.758 1571.88 885.837C1571.9 879.686 1572.89 873.537 1574.86 867.39C1576.93 861.244 1579.92 855.714 1583.83 850.802C1587.74 845.89 1592.52 841.903 1598.17 838.84C1603.81 835.674 1610.28 834.1 1617.56 834.116C1622.89 834.128 1627.55 834.959 1631.54 836.608C1635.64 838.258 1638.96 840.572 1641.52 843.551C1644.17 846.53 1646.16 850.071 1647.48 854.175C1648.8 858.176 1649.46 862.637 1649.44 867.558C1649.42 873.709 1648.43 879.858 1646.46 886.005C1644.5 892.152 1641.61 897.681 1637.8 902.594C1633.99 907.506 1629.22 911.545 1623.46 914.71C1617.82 917.773 1611.25 919.296 1603.77 919.279ZM1615.34 853.487C1611.96 853.48 1608.99 854.447 1606.42 856.389C1603.85 858.331 1601.69 860.787 1599.94 863.756C1598.18 866.725 1596.84 870.003 1595.91 873.589C1595.08 877.073 1594.66 880.404 1594.65 883.582C1594.63 888.81 1595.44 892.861 1597.07 895.736C1598.7 898.507 1601.67 899.898 1605.98 899.908C1609.36 899.915 1612.34 898.948 1614.91 897.006C1617.47 895.064 1619.64 892.608 1621.39 889.639C1623.14 886.67 1624.43 883.444 1625.26 879.96C1626.19 876.374 1626.67 872.992 1626.68 869.814C1626.69 864.585 1625.88 860.585 1624.25 857.813C1622.62 854.939 1619.65 853.497 1615.34 853.487ZM1678.24 917.294L1655.48 917.242L1674.94 836.398L1697.86 836.45L1678.24 917.294ZM1689.58 826.589C1686.4 826.582 1683.54 825.653 1680.98 823.802C1678.42 821.848 1677.15 818.923 1677.16 815.028C1677.17 812.875 1677.58 810.877 1678.41 809.033C1679.34 807.087 1680.52 805.45 1681.96 804.12C1683.4 802.688 1685.04 801.564 1686.89 800.748C1688.84 799.932 1690.89 799.527 1693.05 799.532C1696.22 799.539 1699.09 800.519 1701.65 802.473C1704.21 804.324 1705.48 807.197 1705.47 811.093C1705.46 813.246 1704.99 815.295 1704.06 817.241C1703.24 819.085 1702.11 820.722 1700.67 822.154C1699.23 823.484 1697.53 824.557 1695.58 825.372C1693.73 826.188 1691.73 826.594 1689.58 826.589ZM1717.87 840.185C1719.61 839.677 1721.51 839.117 1723.56 838.507C1725.72 837.794 1728.08 837.184 1730.64 836.677C1733.31 836.068 1736.23 835.613 1739.41 835.313C1742.69 834.91 1746.38 834.713 1750.48 834.723C1762.58 834.75 1770.88 838.254 1775.37 845.236C1779.86 852.217 1780.6 861.753 1777.59 873.844L1767 917.493L1744.08 917.442L1754.36 874.714C1754.99 872.05 1755.45 869.488 1755.77 867.028C1756.19 864.466 1756.19 862.262 1755.79 860.416C1755.39 858.467 1754.42 856.927 1752.88 855.796C1751.45 854.562 1749.2 853.942 1746.12 853.935C1743.15 853.929 1740.12 854.229 1737.05 854.838L1721.94 917.392L1699.03 917.34L1717.87 840.185ZM1878.37 822.554C1878.56 826.758 1878.81 831.525 1879.1 836.857C1879.49 842.189 1879.88 847.726 1880.28 853.468C1880.77 859.108 1881.27 864.747 1881.76 870.387C1882.26 876.027 1882.76 881.256 1883.25 886.076C1885.94 880.853 1888.67 875.221 1891.46 869.179C1894.24 863.136 1897.03 856.889 1899.82 850.436C1902.6 843.984 1905.34 837.429 1908.03 830.771C1910.81 824.114 1913.45 817.609 1915.93 811.259L1941.3 811.316C1933.25 830.776 1925.04 849.314 1916.68 866.929C1908.33 884.441 1899.36 901.388 1889.77 917.769L1867.32 917.719C1866.52 912.078 1865.76 906.694 1865.06 901.567C1864.46 896.337 1863.86 891.21 1863.26 886.185C1862.77 881.16 1862.27 876.084 1861.77 870.957C1861.38 865.83 1860.98 860.498 1860.59 854.962C1854.71 865.815 1848.89 876.464 1843.12 886.908C1837.45 897.25 1831.37 907.488 1824.88 917.623L1802.43 917.573C1801.63 908.037 1801.05 898.604 1800.67 889.273C1800.39 879.943 1800.26 870.46 1800.29 860.823C1800.31 852.519 1800.49 844.267 1800.83 836.066C1801.16 827.763 1801.59 819.408 1802.13 811.003L1826.27 811.057C1825.73 820.078 1825.2 828.944 1824.66 837.657C1824.22 846.268 1823.99 855.238 1823.96 864.567C1823.95 868.053 1823.94 871.59 1823.93 875.178C1823.92 878.766 1824.01 882.355 1824.2 885.943C1827.09 880.926 1830.13 875.602 1833.32 869.971C1836.52 864.339 1839.66 858.708 1842.76 853.076C1845.85 847.444 1848.79 842.018 1851.57 836.795C1854.35 831.471 1856.73 826.709 1858.69 822.51L1878.37 822.554ZM2003.06 883.116C2001.61 888.956 2001.18 894.85 2001.78 900.798C2002.37 906.643 2003.54 911.874 2005.27 916.491L1984.81 919.367C1984.19 918.135 1983.63 916.955 1983.12 915.826C1982.62 914.697 1982.11 913.415 1981.6 911.978C1978.72 914.33 1975.54 916.27 1972.05 917.8C1968.56 919.33 1964.66 920.09 1960.35 920.081C1955.23 920.069 1950.82 919.188 1947.14 917.437C1943.55 915.583 1940.59 913.168 1938.24 910.189C1935.99 907.109 1934.36 903.568 1933.35 899.567C1932.34 895.464 1931.84 891.106 1931.85 886.493C1931.87 879.419 1933.12 872.758 1935.6 866.51C1938.18 860.262 1941.68 854.836 1946.11 850.233C1950.63 845.527 1955.92 841.848 1961.98 839.196C1968.04 836.545 1974.6 835.227 1981.68 835.242C1982.6 835.245 1984.19 835.299 1986.44 835.407C1988.8 835.515 1991.46 835.777 1994.44 836.194C1997.41 836.508 2000.53 837.079 2003.81 837.906C2007.09 838.734 2010.21 839.869 2013.18 841.311L2003.06 883.116ZM1987.15 854.785C1985.82 854.577 1984.59 854.42 1983.46 854.315C1982.44 854.21 1981.16 854.156 1979.62 854.153C1976.13 854.145 1972.85 855.009 1969.77 856.745C1966.79 858.481 1964.17 860.782 1961.91 863.647C1959.64 866.41 1957.84 869.635 1956.49 873.323C1955.25 877.011 1954.63 880.854 1954.61 884.852C1954.6 889.773 1955.41 893.671 1957.04 896.545C1958.67 899.419 1961.69 900.861 1966.1 900.871C1968.46 900.877 1970.56 900.42 1972.41 899.501C1974.36 898.583 1976.41 897.05 1978.57 894.902C1978.79 892.339 1979.1 889.675 1979.52 886.908C1980.04 884.038 1980.56 881.425 1981.08 879.068L1987.15 854.785ZM2051.07 919.67C2043.79 919.653 2038.05 918.718 2033.85 916.863C2029.76 914.906 2026.79 912.285 2024.96 909C2023.22 905.716 2022.36 901.972 2022.38 897.768C2022.49 893.463 2023.12 888.902 2024.26 884.086L2044.04 802.474L2067.88 798.837L2046.24 887.365C2045.83 889.209 2045.57 890.9 2045.46 892.438C2045.45 893.976 2045.76 895.361 2046.37 896.592C2046.98 897.721 2048 898.646 2049.44 899.367C2050.97 900.088 2053.07 900.554 2055.74 900.765L2051.07 919.67ZM2140.02 883.424C2138.57 889.264 2138.14 895.158 2138.74 901.106C2139.33 906.951 2140.5 912.182 2142.23 916.799L2121.76 919.675C2121.15 918.443 2120.59 917.263 2120.08 916.134C2119.57 915.005 2119.07 913.723 2118.56 912.286C2115.68 914.638 2112.5 916.578 2109.01 918.108C2105.52 919.638 2101.62 920.398 2097.31 920.389C2092.19 920.377 2087.78 919.496 2084.09 917.745C2080.51 915.891 2077.55 913.475 2075.2 910.497C2072.95 907.416 2071.32 903.876 2070.31 899.875C2069.29 895.772 2068.8 891.414 2068.81 886.801C2068.83 879.727 2070.08 873.066 2072.56 866.818C2075.14 860.57 2078.64 855.144 2083.07 850.541C2087.59 845.835 2092.88 842.156 2098.94 839.504C2105 836.852 2111.56 835.534 2118.63 835.55C2119.56 835.552 2121.15 835.607 2123.4 835.715C2125.76 835.823 2128.42 836.085 2131.4 836.502C2134.37 836.816 2137.49 837.387 2140.77 838.214C2144.05 839.042 2147.17 840.177 2150.14 841.619L2140.02 883.424ZM2124.11 855.093C2122.78 854.885 2121.55 854.728 2120.42 854.623C2119.4 854.518 2118.12 854.464 2116.58 854.461C2113.09 854.453 2109.81 855.317 2106.73 857.053C2103.75 858.789 2101.13 861.09 2098.87 863.955C2096.6 866.718 2094.8 869.943 2093.45 873.631C2092.21 877.319 2091.59 881.162 2091.57 885.16C2091.56 890.081 2092.37 893.979 2094 896.853C2095.63 899.727 2098.65 901.169 2103.06 901.179C2105.42 901.185 2107.52 900.728 2109.37 899.809C2111.32 898.891 2113.37 897.358 2115.53 895.21C2115.75 892.647 2116.06 889.983 2116.48 887.215C2117 884.346 2117.52 881.733 2118.04 879.376L2124.11 855.093Z" fill="white"/>
<path d="M2166.12 730.572L2159.23 758.902C2163.84 759.981 2168.47 761.069 2172.98 762.219L2179.82 734.074L2196.99 738.46L2189.95 767.367C2211.62 775.016 2227.47 786.488 2224.36 807.827C2222.11 823.45 2213.66 831.014 2202.45 833.662C2217.84 841.884 2225.68 854.486 2218.21 876.336C2208.95 903.473 2186.94 905.763 2157.68 900.085L2143.48 896.798L2147.11 875.025C2162.1 878.253 2181.37 879.76 2185.15 864.206C2189.87 844.798 2163.51 837.644 2148.4 834.109C2146.77 833.51 2145.11 832.993 2143.39 832.562C2140.12 831.734 2136.99 831.164 2134.02 830.85C2131.05 830.433 2128.38 830.17 2126.03 830.062C2123.77 829.955 2122.18 829.9 2121.26 829.897C2117.52 829.889 2113.92 830.254 2110.46 830.992L2115.22 811.425L2123.22 778.495C2123.44 774.759 2122.18 770.045 2115.23 768.265C2115.5 768.079 2102.8 765.095 2102.76 765.086L2107.33 746.29L2131 752.351L2130.98 752.441C2134.54 753.348 2138.2 754.212 2141.94 755.085L2148.97 726.187L2166.12 730.572ZM2119.2 848.808C2120.74 848.811 2122.02 848.866 2123.05 848.971C2124.17 849.076 2125.4 849.232 2126.74 849.44L2125.24 855.421H2104.51L2104.64 854.885C2106.1 853.543 2107.67 852.382 2109.35 851.4C2112.43 849.665 2115.72 848.8 2119.2 848.808ZM2146.06 814.813C2155.75 817.29 2185.62 827.387 2190.45 807.513C2195.49 786.78 2164.29 782.16 2154.61 779.684L2146.06 814.813Z" fill="white"/>
</svg>
