<svg width="2085" height="1536" viewBox="0 0 2085 1536" fill="none" xmlns="http://www.w3.org/2000/svg">
<path d="M115.379 368.357L115.763 345.971C115.763 345.971 147.292 316.727 150.199 316.727C153.105 316.782 178.822 335.107 181.673 340.978C184.47 346.794 184.854 369.893 184.854 369.893L115.379 368.357Z" fill="white"/>
<path d="M117.353 394.857C117.353 394.857 154.256 377.464 181.893 397.491L184.689 436.117C184.689 436.117 146.305 425.089 113.24 439.135L117.353 394.857Z" fill="white"/>
<path d="M115.762 470.025C116.255 468.543 157.052 447.365 185.73 469.86L191.872 666.996L105.508 666.008L115.762 470.025Z" fill="white"/>
<path d="M100.408 445.17C100.408 445.17 156.065 424.046 200.151 448.462L200.645 462.563C200.645 462.563 148.882 442.097 104.795 464.373L100.408 445.17Z" fill="white"/>
<path d="M91.5811 668.806L206.623 670.836L206.294 689.985L91.6908 686.858L91.1973 669.849L91.5811 668.806Z" fill="white"/>
<path d="M101.999 705.018C102.492 703.592 152.994 680.054 192.639 706.993L198.397 866.107L214.299 869.124L212.928 893.211L196.478 898.368C196.478 898.368 158.807 870.935 98.5989 896.832L81.3262 887.944L82.0938 869.673L98.4892 870.277L101.999 705.018Z" fill="white"/>
<path d="M1043.88 76.7402C1050.85 76.795 1056.44 82.5012 1056.39 89.3595C1056.28 96.2178 1050.52 101.814 1043.5 101.65C1036.54 101.595 1030.94 95.8886 1031 89.0303C1031.16 82.2268 1036.87 76.6853 1043.88 76.7402Z" fill="white"/>
<path d="M1043.67 107.74C1048.71 107.795 1052.82 112.129 1052.77 117.396C1052.71 122.664 1048.49 126.943 1043.45 126.888C1038.4 126.833 1034.29 122.499 1034.34 117.232C1034.4 111.91 1038.62 107.685 1043.67 107.74Z" fill="white"/>
<path d="M1044.71 39.4308C1049.53 39.4856 1053.32 43.3263 1053.26 48.0448C1053.21 52.7634 1049.26 56.5492 1044.49 56.4394C1039.66 56.3846 1035.88 52.5439 1035.93 47.8254C1035.99 43.1068 1039.88 39.3759 1044.71 39.4308Z" fill="white"/>
<path d="M1044.93 4.9198C1048.87 4.97466 1052.05 8.76046 1052 13.4241C1051.95 18.0878 1048.66 21.7639 1044.71 21.709C1040.76 21.6541 1037.58 17.8683 1037.63 13.2047C1037.69 8.541 1040.98 4.86493 1044.93 4.9198Z" fill="white"/>
<path d="M1041.91 0.859619L1048.38 0.969355L1046.08 150.92L1039.61 150.81L1041.91 0.859619Z" fill="white"/>
<path d="M941.729 212.206C941.729 212.206 1032.7 152.566 1043.5 131.991C1054.3 111.416 1131.84 199.532 1146.15 204.415C1160.57 209.298 1148.23 209.463 1148.23 209.463C1148.23 209.463 1086.87 182.084 941.729 212.206Z" fill="white"/>
<path d="M813.361 487.088C812.868 485.662 806.068 427.229 806.068 427.229C806.068 427.229 806.946 371.758 821.367 344.983C835.788 318.209 856.022 288.526 873.13 272.34C890.239 256.209 942.386 220.601 950.172 214.401C958.014 208.201 1124 201.397 1140.17 215.059C1156.4 228.776 1185.08 244.962 1194.13 254.234C1203.18 263.452 1234.16 282.655 1244.03 300.541C1253.84 318.538 1268.1 336.479 1272.1 357.274C1276.05 378.068 1280.99 400.783 1280.22 423.882C1279.34 447.035 1279.73 457.625 1277.48 474.414C1275.23 491.258 1273.8 492.191 1272.27 496.086C1270.79 499.927 1248.47 478.035 1226.37 471.945C1204.27 465.964 1141.1 465.69 1130.52 464.593C1119.94 463.55 1079.91 459.71 1060.11 459.929C1040.32 460.203 964.045 465.087 951.105 465.91C938.054 466.733 870.444 472.219 855.858 476.389C841.327 480.559 813.306 487.966 813.306 487.966L813.361 487.088Z" fill="white"/>
<path d="M1296.01 901.222L1384.73 902.209V837.686C1384.73 837.686 1361.87 819.141 1347.45 816.014C1332.97 812.941 1303.52 845.422 1296.72 852.006C1289.92 858.755 1296.01 901.222 1296.01 901.222Z" fill="white"/>
<path d="M1467.92 904.952L1525.05 906.324L1526.48 812.392C1526.48 812.392 1517.43 789.842 1514.58 786.934C1511.73 784.026 1465.5 873.075 1467.92 904.952Z" fill="white"/>
<path d="M1255.71 588.043C1255.22 588.975 1255.16 555.507 1259.99 547.99C1264.81 540.528 1311.09 496.854 1324.25 488.021L1326.39 438.531L1329.68 437.873L1331.76 488.13C1331.76 488.13 1381.66 513.589 1393.62 536.139C1405.57 558.689 1404.42 582.172 1404.75 589.03C1404.97 595.889 1262.4 575.862 1255.71 588.043Z" fill="white"/>
<path d="M556.408 623.102C556.408 622.06 557.67 563.792 557.67 563.792C557.67 563.792 553.338 563.024 552.625 561.542C551.967 560.116 555.038 547.88 560.905 541.406C566.827 534.987 578.397 556.385 577.958 562.2C577.465 567.961 568.582 563.517 568.582 563.517L566.937 623.925L556.408 623.102Z" fill="white"/>
<path d="M586.35 625.956L597.92 626.065L596.823 602.912L601.539 602.582C601.539 602.582 593.423 585.19 592.436 581.569C591.449 577.892 579.166 599.51 579.824 602.034C580.482 604.558 586.679 604.283 586.679 604.283L586.35 625.956Z" fill="white"/>
<path d="M847.578 550.185C847.578 550.185 1084.68 512.382 1239.7 548.868L1239.04 593.694L848.291 600.059L847.578 550.185Z" fill="white"/>
<path d="M919.027 703.537L918.533 831.431L927.91 832.968C927.91 832.968 938.603 797.688 945.895 791.269C953.188 784.85 1025.35 749.515 1037.03 740.298C1048.71 731.08 1041.42 737.445 1041.42 737.445C1041.42 737.445 1103.16 767.786 1118.24 775.851C1133.26 784.027 1150.98 810.198 1154.43 820.348L1157.88 830.554L1163.64 829.127L1165.56 703.373L919.027 703.537Z" fill="white"/>
<path d="M1008.63 898.259C1008.63 898.259 1049.26 886.463 1059.57 875.709C1069.82 864.955 1082.76 873.788 1089.95 876.751C1097.13 879.769 1153.12 911.482 1153.12 911.482L1161.01 914.499L1157.01 1085.74L953.738 1086.34L954.177 960.587C954.177 960.587 959.66 936.062 972.108 923.936C984.555 911.701 1006.43 898.917 1008.63 898.259Z" fill="white"/>
<path d="M1255.87 626.12L1254.5 681.59L1271.39 680.328C1271.39 680.328 1268.37 628.15 1272.27 625.352C1276.16 622.499 1255.87 626.12 1255.87 626.12Z" fill="white"/>
<path d="M1294.09 679.56L1312.41 680.328L1312.02 640.77C1312.02 640.77 1321.4 622.554 1331.54 619.865C1341.74 617.067 1347.34 631.113 1351.06 638.355C1354.79 645.598 1352.82 680.822 1352.82 680.822L1370.2 681.481L1371.13 654.486L1385.06 656.077C1385.06 656.077 1371.63 620.249 1365.87 617.78C1360.11 615.311 1300.78 616.518 1300.78 616.518C1300.78 616.518 1290.53 624.584 1285.7 624.474C1280.88 624.419 1293.65 640.001 1294.53 643.842C1295.46 647.738 1294.09 679.56 1294.09 679.56Z" fill="white"/>
<path d="M1405.68 637.971C1405.24 636.49 1405.02 681.371 1405.02 681.371L1387.64 681.7L1388.96 658.053C1388.96 658.053 1406.12 639.453 1405.68 637.971Z" fill="white"/>
<path d="M1430.36 599.729L1415.71 614.982L1421.97 616.957L1422.79 683.95L1433.92 684.059L1434.25 628.644L1434.47 615.641L1442.64 614.324L1430.36 599.729Z" fill="white"/>
<path d="M1252.03 687.79L1431.45 686.967C1431.45 686.967 1534.98 699.696 1539.26 704.525C1543.53 709.408 1545.34 716.156 1545.34 716.156L1247.37 710.834L1246.28 688.174L1252.03 687.79Z" fill="white"/>
<path d="M1912.57 357.054L1912.95 334.723C1912.95 334.723 1944.48 305.479 1947.33 305.479C1950.24 305.534 1976.01 323.86 1978.81 329.676C1981.66 335.492 1982.04 358.645 1982.04 358.645L1912.57 357.054Z" fill="white"/>
<path d="M1914.49 383.5C1914.49 383.5 1951.44 366.107 1979.03 386.133L1981.82 424.759C1981.82 424.759 1943.44 413.731 1910.43 427.777L1914.49 383.5Z" fill="white"/>
<path d="M1912.9 458.722C1913.39 457.241 1954.19 436.062 1982.86 458.557L1989.01 655.803L1902.75 654.816L1912.9 458.722Z" fill="white"/>
<path d="M1897.6 433.813C1897.6 433.813 1953.25 412.689 1997.34 437.105L1997.89 451.205C1997.89 451.205 1946.13 430.795 1902.04 453.016L1897.6 433.813Z" fill="white"/>
<path d="M1888.77 657.449L2003.7 659.534L2003.43 678.627L1888.82 675.555L1888.38 658.546L1888.77 657.449Z" fill="white"/>
<path d="M1899.13 693.716C1899.68 692.234 1950.24 668.751 1989.77 695.636L1995.53 854.749L2011.43 857.767L2010.12 881.854L1993.61 887.011C1993.61 887.011 1955.94 859.578 1895.79 885.475L1878.52 876.586L1879.34 858.316L1895.73 858.919L1899.13 693.716Z" fill="white"/>
<path d="M1893.21 895.515C1893.21 895.515 1951.94 869.728 1997.83 897.655L2010.61 1260.16C2010.61 1260.16 1936.64 1177.91 1920.79 1171.93C1904.95 1165.95 1872.26 1162.22 1871.28 1162.22C1870.29 1162.22 1882.08 1149.82 1882.08 1149.82L1893.21 896.448V895.515Z" fill="white"/>
<path d="M1691.7 580.361L1691.04 574.162L1703.32 574.271C1703.32 574.271 1702.5 555.452 1702.88 554.08C1703.32 552.599 1725.64 533.725 1725.64 533.725L1727.94 504.81L1731.18 505.194L1732.93 534.822C1732.93 534.822 1757.39 545.96 1757.39 570.54C1757.39 595.121 1757.33 573.448 1757.33 573.448L1767.48 574.6L1767.8 578.935C1767.7 579.045 1697.51 578.99 1691.7 580.361Z" fill="white"/>
<path d="M1702.5 585.574C1702.5 585.574 1740.99 578.112 1755.85 586.397L1756.35 624.913L1701.02 624.858L1702.5 585.574Z" fill="white"/>
<path d="M1689.56 628.425C1689.56 628.425 1764.13 626.065 1766.98 629.522L1767.04 635.283L1756.07 642.964L1758.98 796.042L1694.16 796.536L1700.36 654.047L1700.85 646.311L1694.27 639.398L1690.43 637.532L1689.56 628.425Z" fill="white"/>
<path d="M1682.76 800.212C1682.76 800.212 1772.14 798.456 1774.22 801.364L1773.12 816.178L1761.88 818.647L1764.46 954.936L1689.45 953.949L1694.11 817.934L1683.31 814.697L1682.92 800.761" fill="white"/>
<path d="M703.639 972.439C706.929 973.262 734.51 938.86 750.028 942.591C765.546 946.377 796.144 977.102 796.144 977.102C796.144 977.102 798.556 1012.49 795.65 1011.45C792.799 1010.35 762.366 991.532 761.214 994.111C760.118 996.58 749.535 1001.52 739.007 1003.6C728.478 1005.63 714.77 1025 714.77 1025L714.002 1074.27L830.415 1073.34L831.512 682.962L658.894 682.907L537.162 695.033L538.039 1075.7L698.923 1074.33L703.639 972.439ZM601.702 768.06C616.178 765.317 624.513 788.526 631.148 796.317C637.838 804.053 630.545 834.833 630.545 834.833L612.559 817.331C612.559 817.331 595.231 811.35 591.448 810.363C587.555 809.375 572.256 803.394 572.256 803.394C572.256 803.394 587.171 770.804 601.702 768.06ZM631.422 1012.11C631.422 1012.11 625.774 1000.09 617.549 995.318C609.269 990.545 600.167 993.672 590.845 989.557C581.523 985.552 573.353 973.865 573.353 973.865C573.353 973.865 585.252 954.113 599.07 947.09C612.943 940.012 623.526 957.789 629.448 973.426C635.37 989.063 631.422 1012.11 631.422 1012.11ZM701.5 800.048C704.735 779.802 752.276 759.117 752.276 759.117C784.793 776.894 797.898 803.01 797.898 803.01C797.898 803.01 799.324 834.833 796.418 833.845C793.566 832.858 783.258 814.423 761.982 817.001C740.706 819.635 714.167 853.159 714.167 853.159L712.412 903.197L699.91 901.167C699.965 901.222 698.265 820.293 701.5 800.048Z" fill="white"/>
<path d="M864.851 650.865L863.426 1029.61L882.892 1032.79L899.123 683.072L1188.43 685.65L1190.73 913.292L1201.31 932.166C1201.31 932.166 1201.7 1002.29 1199.45 1007.33C1197.2 1012.33 1208.55 1029.12 1208.55 1029.12L1214.36 1028.51L1220.78 652.676L864.851 650.865Z" fill="white"/>
<path d="M848.511 1055.45L847.469 1077.84L907.512 1079.92L909.212 1057.54L848.511 1055.45Z" fill="white"/>
<path d="M1174.72 1056.99L1235.53 1055.51L1235.2 1077.89L1174.45 1079.43L1174.72 1056.99Z" fill="white"/>
<path d="M1256.42 1060.06L1275.23 1059.57L1275.67 1079.81L1256.15 1080.36L1256.42 1060.06Z" fill="white"/>
<path d="M1244.96 726.032L1242.55 1072.95L1247.54 1074.44L1255.82 726.142L1244.96 726.032Z" fill="white"/>
<path d="M1453 695.91L1501.86 626.285L1555.32 629.083L1554.01 718.68L1453 695.91Z" fill="white"/>
<path d="M758.802 440.012L765.382 440.451L765.711 487.801L756.992 487.637L758.802 440.012Z" fill="white"/>
<path d="M686.641 594.572L687.628 553.038C687.628 553.038 759.899 487.692 761.105 480.888C762.257 474.03 763.244 481.272 763.244 481.272C763.244 481.272 813.965 520.886 823.89 537.291L833.706 553.696L832.335 595.614L686.641 594.572Z" fill="white"/>
<path d="M827.674 623.322L827.51 614.269L833.651 614.324L832.829 599.51L684.174 598.138C684.174 598.138 671.123 600.882 666.736 606.258L686.367 624.2L685.873 677.64L832.335 678.957L832.829 623.706L827.674 623.322ZM777.337 673.69L737.582 673.635C737.582 673.635 737.637 645.433 738.076 640.715C738.514 635.996 756.445 620.688 756.445 620.688C771.25 623.432 776.076 639.727 776.076 639.727C776.076 639.727 770.318 635.338 764.506 634.131C758.748 633.033 747.068 642.635 747.068 642.635L748.001 651.359L778.762 652.017L777.337 673.69Z" fill="white"/>
<path d="M534.586 627.766L547.253 603.68L555.807 625.462L555.478 622.718L597.7 625.023L598.577 640.934L620.292 662.332L621.059 674.951L629.12 680.658L629.394 687.9L590.572 695.746L538.15 698.983L540.782 632.869C540.673 632.814 534.86 629.357 534.586 627.766Z" fill="white"/>
<path d="M662.348 599.016C662.348 599.016 650.394 614.159 650.339 615.641C650.284 617.122 650.449 618.439 650.449 618.439L656.426 618.768L655.274 687.626L666.954 688.229L668.38 618.603C668.38 618.603 673.26 617.342 673.863 616.848C674.521 616.354 662.458 599.181 662.348 599.016Z" fill="white"/>
<path d="M1553.84 725.923L1554.99 1075.81L1526.1 1076.19L1536.95 739.475L1541.5 730.806L1553.84 725.923Z" fill="white"/>
<path d="M1526.64 754.508L1529.11 736.457L1432.99 728.172L1431.95 1079.43L1455.09 1079.7L1455.85 936.611L1523.85 938.092L1522.7 917.133L1454.81 912.744L1455.2 794.232C1455.2 794.232 1483.11 769.981 1488.1 769.267C1493.14 768.609 1493.41 753.411 1493.41 753.411L1526.64 754.508Z" fill="white"/>
<path d="M1516.01 976.279C1516.01 976.279 1466 1030.65 1468.08 1079.04L1517.98 1079.59L1516.01 976.279Z" fill="white"/>
<path d="M1295.24 1080.09L1386.49 1076.8L1386.65 1014.69C1386.65 1014.69 1353.64 999.159 1344.98 996.854C1336.31 994.605 1297.6 1023.08 1296.01 1031.75C1294.37 1040.25 1295.24 1080.09 1295.24 1080.09Z" fill="white"/>
<path d="M1285.21 933.977C1283.73 936.062 1285.87 980.284 1285.87 980.284C1285.87 980.284 1321.84 945.28 1334.89 945.389C1347.94 945.499 1380.84 965.416 1385.72 977.047L1390 934.416L1285.21 933.977Z" fill="white"/>
<path d="M1288.66 797.359C1288.66 797.359 1328.97 764.549 1339.82 763.287C1350.74 761.915 1384.35 787.593 1387.09 794.89C1389.94 802.187 1391.42 750.832 1391.42 750.832L1284.39 748.857L1288.66 797.359Z" fill="white"/>
<path d="M1527.47 558.908L1537.61 559.018L1536.24 647.134L1526.1 647.079L1527.47 558.908Z" fill="white"/>
<path d="M1494.9 604.997L1502.13 605.106L1501.53 646.037L1494.29 645.982L1494.9 604.997Z" fill="white"/>
<path d="M1499.01 606.807C1499.01 606.807 1488.92 604.722 1487.99 603.021C1487.05 601.32 1499.5 590.841 1500.21 587.988C1501.04 585.135 1510.19 601.595 1510.58 602.802C1511.13 604.009 1499.01 606.807 1499.01 606.807Z" fill="white"/>
<path d="M1532.02 563.023C1532.02 563.023 1521.87 560.993 1520.94 559.293C1520.01 557.537 1532.46 547.112 1533.23 544.259C1533.99 541.406 1543.1 557.866 1543.59 559.073C1544.08 560.225 1532.02 563.023 1532.02 563.023Z" fill="white"/>
<path d="M1547.1 630.18C1547.1 630.18 1537.01 628.15 1536.08 626.395C1535.14 624.749 1547.59 614.269 1548.3 611.361C1549.13 608.453 1558.28 624.968 1558.67 626.175C1559.22 627.437 1547.1 630.18 1547.1 630.18Z" fill="white"/>
<path d="M926.924 1535.97L1027.16 1261.53C1025.73 1263.67 969.694 1382.84 898.026 1535.59L926.924 1535.97ZM1233.45 1261.92L1152.57 1264.93L1621.51 1535.26H2084.42C1954.3 1494.66 1233.45 1261.92 1233.45 1261.92ZM828.606 1259.17L0.171875 1535.26H388.069L903.674 1266.25L828.606 1259.17Z" fill="white"/>
<path d="M90.0449 1044.53C114.665 1025.38 136.051 1002.07 163.577 999.927C184.25 998.336 196.094 993.562 203.442 989.337L200.591 908.958C154.694 880.976 95.967 906.818 95.967 906.818V907.806L90.0449 1044.53Z" fill="white"/>
<path d="M1673.27 1149.44C1673.71 1151.25 1673.66 1149.6 1673.16 1145.98C1673.05 1147.35 1673.05 1148.56 1673.27 1149.44ZM1569.2 1140.55C1569.2 1140.55 1569.09 1140.22 1568.7 1139.62C1552.97 1170.12 1569.2 1140.55 1569.2 1140.55ZM1004.19 1251.66H1003.75C1002.43 1265.7 1004.19 1251.66 1004.19 1251.66ZM1760.73 976.883C1757 967.171 1689.45 974.14 1689.45 974.14L1685.77 1085.9L405.342 1084.81L406.164 971.122L417.351 963.989L417.076 950.931L403.532 949.34L400.681 821.171L414.335 811.679L412.086 796.701L397.665 794.616L393.224 647.573L405.89 637.094L407.042 623.103L395.472 624.474C395.472 624.474 395.965 621.073 395.581 617.726C395.143 614.324 396.075 615.312 395.636 612.952C395.143 610.538 396.568 581.569 396.568 581.569L408.193 577.838L405.89 571.089L397.226 569.992L396.788 566.645C393.717 552.105 368.438 530.213 368.438 530.213C343.105 546.289 339.322 571.802 339.322 571.802L329.177 575.588L330.493 587.604L341.515 590.622L342.502 622.938L332.303 624.749L332.687 634.405L341.186 647.957L335.538 795.878L324.461 795.329L323.694 811.24L332.741 817.605L328.793 951.041L319.143 951.425L319.526 962.014L329.068 971.78L325.832 1086.4L330.822 1090.13L339.925 1098.96C355.991 1125.9 367.616 1159.42 362.736 1197.17C364.71 1194.26 365.806 1182.74 364.984 1176.05C364.107 1169.3 372.825 1163.59 374.854 1160.69C376.828 1157.83 374.086 1147.19 372.277 1139.45C370.467 1131.77 370.632 1121.13 370.742 1113.45C370.851 1107.25 378.528 1101.05 384.56 1096.93L394.43 1096.49C399.42 1101.43 404.519 1111.91 404.519 1111.91L406.274 1124.47L409.838 1143.79L406.439 1178.46L416.199 1169.85L424.972 1159.31C424.972 1159.31 422.45 1136.16 421.573 1131.28C420.695 1126.45 423.821 1110.15 423.821 1110.15C423.821 1110.15 433.636 1097.7 436.542 1096.77C439.449 1095.83 451.073 1095.94 455.844 1097.04C460.615 1098.03 466.153 1115.48 466.153 1115.48L464.727 1147.3L463.192 1186.86L491.157 1185.21C491.157 1185.21 492.309 1171.71 492.473 1164.97C492.583 1158.27 493.789 1141.87 495.873 1134.19C497.902 1126.5 512.488 1117.95 516.326 1118.99C520.165 1119.98 530.528 1132.59 533.434 1130.73C536.341 1128.86 546.156 1118.33 554.655 1131.88C563.154 1145.43 557.123 1158.93 557.123 1158.93L573.518 1160.08C573.518 1160.08 575.602 1149.49 588.323 1138.14C600.99 1126.67 610.476 1141.32 610.476 1141.32L617.714 1175.12L604.335 1227.95L622.266 1254.18L657.963 1253.63C657.963 1253.63 658.018 1188.12 660.211 1172.7C662.349 1157.28 668.491 1131.39 683.844 1142.14C699.143 1152.9 696.73 1183.73 696.73 1183.73L698.54 1255.99L884.811 1249.41L1003.91 1251.76C1004.02 1250.23 1004.24 1248.31 1004.46 1245.95C1006.76 1222.85 1033.69 1227.02 1033.69 1227.02C1054.91 1227.29 1060.34 1250.45 1060.34 1250.45L1253.35 1243.1L1253.02 1262.35L1374.59 1257.96C1374.59 1257.96 1369.16 1232.84 1373.93 1175.06C1378.65 1117.34 1410.78 1160.08 1410.78 1160.08C1417.14 1121.57 1438.03 1141.1 1438.03 1141.1C1446.26 1110.32 1513.32 1140.06 1513.32 1140.06C1535.64 1084.92 1564.64 1132.59 1568.76 1139.78C1569.58 1138.3 1570.35 1136.76 1571.28 1134.9C1591.13 1096.6 1609.99 1123.76 1612.08 1114.16C1614.16 1104.56 1652.76 1103.08 1660.49 1103.13C1666.36 1103.19 1671.79 1134.68 1673.16 1146.15C1674.2 1135.23 1685.23 1110.26 1698.99 1103.57C1714.51 1096.11 1721.53 1144.34 1721.53 1144.34L1739.02 1134.84C1739.02 1134.84 1747.3 1098.36 1753.16 1092.6C1759.03 1086.89 1764.84 1083.1 1764.84 1083.1C1764.84 1083.1 1764.52 986.649 1760.73 976.883Z" fill="white"/>
</svg>
