<svg xmlns="http://www.w3.org/2000/svg" xmlns:xlink="http://www.w3.org/1999/xlink" width="1500" zoomAndPan="magnify" viewBox="0 0 1125 374.999991" height="500" preserveAspectRatio="xMidYMid meet" version="1.0"><defs><g/><clipPath id="25765e9486"><rect x="0" width="666" y="0" height="59"/></clipPath></defs><g transform="matrix(1, 0, 0, 1, 222, 174)"><g clip-path="url(#25765e9486)"><g fill="#000000" fill-opacity="1"><g transform="translate(1.501625, 45.740674)"><g><path d="M 40.65625 -8.890625 L 46.84375 -26.578125 C 47.570312 -28.628906 47.9375 -30.15625 47.9375 -31.15625 C 47.9375 -32.101562 47.609375 -32.722656 46.953125 -33.015625 C 46.296875 -33.304688 45.28125 -33.453125 43.90625 -33.453125 L 43.90625 -35.28125 L 56.921875 -35.28125 L 56.921875 -33.453125 C 55.753906 -33.453125 54.703125 -33.171875 53.765625 -32.609375 C 52.835938 -32.046875 52.128906 -31.09375 51.640625 -29.75 L 40.609375 0.453125 L 36.53125 0.453125 L 28.546875 -23.734375 L 19.484375 0.453125 L 15.671875 0.453125 L 5.953125 -26.3125 C 5.378906 -27.863281 4.847656 -29.113281 4.359375 -30.0625 C 3.867188 -31.007812 3.347656 -31.726562 2.796875 -32.21875 C 2.242188 -32.707031 1.644531 -33.023438 1 -33.171875 C 0.363281 -33.328125 -0.394531 -33.40625 -1.28125 -33.40625 L -1.28125 -35.28125 L 16.046875 -35.28125 L 16.046875 -33.40625 C 14.484375 -33.40625 13.410156 -33.257812 12.828125 -32.96875 C 12.253906 -32.675781 11.96875 -32.195312 11.96875 -31.53125 C 11.96875 -31.28125 11.976562 -31.039062 12 -30.8125 C 12.03125 -30.582031 12.09375 -30.320312 12.1875 -30.03125 C 12.28125 -29.75 12.394531 -29.394531 12.53125 -28.96875 C 12.664062 -28.539062 12.859375 -28.003906 13.109375 -27.359375 L 19.515625 -8.890625 L 26.953125 -29.140625 C 26.640625 -29.972656 26.332031 -30.644531 26.03125 -31.15625 C 25.726562 -31.675781 25.367188 -32.085938 24.953125 -32.390625 C 24.535156 -32.703125 24.066406 -32.925781 23.546875 -33.0625 C 23.035156 -33.195312 22.410156 -33.3125 21.671875 -33.40625 L 21.671875 -35.28125 L 37.859375 -35.28125 L 37.859375 -33.40625 C 36.566406 -33.40625 35.613281 -33.242188 35 -32.921875 C 34.394531 -32.609375 34.09375 -31.992188 34.09375 -31.078125 C 34.09375 -30.617188 34.160156 -30.082031 34.296875 -29.46875 C 34.441406 -28.851562 34.632812 -28.148438 34.875 -27.359375 Z M 40.65625 -8.890625 "/></g></g></g><g fill="#000000" fill-opacity="1"><g transform="translate(59.01587, 45.740674)"><g><path d="M 11.1875 -7.515625 C 11.1875 -6.265625 11.222656 -5.28125 11.296875 -4.5625 C 11.367188 -3.84375 11.535156 -3.285156 11.796875 -2.890625 C 12.054688 -2.492188 12.453125 -2.234375 12.984375 -2.109375 C 13.523438 -1.984375 14.253906 -1.890625 15.171875 -1.828125 L 15.171875 0 L 0.734375 0 L 0.734375 -1.828125 C 1.648438 -1.890625 2.382812 -1.984375 2.9375 -2.109375 C 3.488281 -2.234375 3.898438 -2.476562 4.171875 -2.84375 C 4.441406 -3.207031 4.613281 -3.734375 4.6875 -4.421875 C 4.769531 -5.109375 4.8125 -6.03125 4.8125 -7.1875 L 4.8125 -26.03125 C 4.8125 -27.863281 4.785156 -29.304688 4.734375 -30.359375 C 4.691406 -31.410156 4.609375 -32.210938 4.484375 -32.765625 C 4.398438 -33.160156 4.296875 -33.472656 4.171875 -33.703125 C 4.046875 -33.929688 3.851562 -34.113281 3.59375 -34.25 C 3.332031 -34.394531 2.976562 -34.488281 2.53125 -34.53125 C 2.09375 -34.570312 1.539062 -34.59375 0.875 -34.59375 L 0.875 -36.296875 L 11.09375 -38.03125 L 11.09375 -21.125 L 11.28125 -21.125 C 12.21875 -22.375 13.273438 -23.289062 14.453125 -23.875 C 15.628906 -24.457031 17.046875 -24.75 18.703125 -24.75 C 21.691406 -24.75 24.007812 -23.832031 25.65625 -22 C 26.457031 -21.082031 27.085938 -19.972656 27.546875 -18.671875 C 28.003906 -17.378906 28.234375 -16.03125 28.234375 -14.625 L 28.234375 -7.515625 C 28.234375 -6.234375 28.257812 -5.234375 28.3125 -4.515625 C 28.375 -3.796875 28.535156 -3.242188 28.796875 -2.859375 C 29.054688 -2.484375 29.445312 -2.234375 29.96875 -2.109375 C 30.488281 -1.984375 31.207031 -1.890625 32.125 -1.828125 L 32.125 0 L 17.78125 0 L 17.78125 -1.828125 C 18.695312 -1.859375 19.421875 -1.941406 19.953125 -2.078125 C 20.492188 -2.222656 20.90625 -2.476562 21.1875 -2.84375 C 21.476562 -3.207031 21.660156 -3.734375 21.734375 -4.421875 C 21.816406 -5.109375 21.859375 -6.03125 21.859375 -7.1875 L 21.859375 -12.828125 C 21.859375 -16.066406 21.503906 -18.359375 20.796875 -19.703125 C 20.097656 -21.046875 18.894531 -21.71875 17.1875 -21.71875 C 15.351562 -21.71875 13.898438 -21.046875 12.828125 -19.703125 C 12.304688 -19.003906 11.898438 -18.132812 11.609375 -17.09375 C 11.328125 -16.050781 11.1875 -14.890625 11.1875 -13.609375 Z M 11.1875 -7.515625 "/></g></g></g><g fill="#000000" fill-opacity="1"><g transform="translate(91.737116, 45.740674)"><g><path d="M 24.75 -4.265625 C 21.96875 -1.117188 18.5 0.453125 14.34375 0.453125 C 12.445312 0.453125 10.726562 0.15625 9.1875 -0.4375 C 7.644531 -1.03125 6.320312 -1.867188 5.21875 -2.953125 C 4.125 -4.035156 3.269531 -5.328125 2.65625 -6.828125 C 2.039062 -8.328125 1.734375 -9.992188 1.734375 -11.828125 C 1.734375 -13.722656 2.054688 -15.457031 2.703125 -17.03125 C 3.347656 -18.601562 4.253906 -19.960938 5.421875 -21.109375 C 6.597656 -22.253906 7.988281 -23.144531 9.59375 -23.78125 C 11.195312 -24.425781 12.960938 -24.75 14.890625 -24.75 C 18.128906 -24.75 20.648438 -23.875 22.453125 -22.125 C 24.253906 -20.382812 25.15625 -17.941406 25.15625 -14.796875 C 25.15625 -14.304688 25.078125 -14.007812 24.921875 -13.90625 C 24.773438 -13.800781 24.347656 -13.75 23.640625 -13.75 L 8.890625 -13.75 C 8.765625 -13.476562 8.703125 -12.972656 8.703125 -12.234375 C 8.703125 -9.242188 9.351562 -6.875 10.65625 -5.125 C 11.957031 -3.382812 13.722656 -2.515625 15.953125 -2.515625 C 17.234375 -2.515625 18.503906 -2.804688 19.765625 -3.390625 C 21.035156 -3.972656 22.269531 -4.796875 23.46875 -5.859375 Z M 15.859375 -16.3125 C 17.078125 -16.3125 17.863281 -16.378906 18.21875 -16.515625 C 18.570312 -16.660156 18.75 -16.988281 18.75 -17.5 C 18.75 -18.84375 18.363281 -19.941406 17.59375 -20.796875 C 16.832031 -21.660156 15.867188 -22.09375 14.703125 -22.09375 C 13.390625 -22.09375 12.222656 -21.546875 11.203125 -20.453125 C 10.179688 -19.367188 9.519531 -17.988281 9.21875 -16.3125 Z M 15.859375 -16.3125 "/></g></g></g><g fill="#000000" fill-opacity="1"><g transform="translate(118.546535, 45.740674)"><g><path d="M 11.828125 -7.109375 C 11.828125 -5.910156 11.878906 -4.96875 11.984375 -4.28125 C 12.085938 -3.59375 12.304688 -3.066406 12.640625 -2.703125 C 12.984375 -2.335938 13.472656 -2.097656 14.109375 -1.984375 C 14.753906 -1.878906 15.613281 -1.828125 16.6875 -1.828125 L 16.6875 0 L 1.375 0 L 1.375 -1.828125 C 2.289062 -1.890625 3.023438 -1.984375 3.578125 -2.109375 C 4.128906 -2.234375 4.539062 -2.476562 4.8125 -2.84375 C 5.082031 -3.207031 5.253906 -3.734375 5.328125 -4.421875 C 5.410156 -5.109375 5.453125 -6.03125 5.453125 -7.1875 L 5.453125 -12.78125 C 5.453125 -14.675781 5.40625 -16.1875 5.3125 -17.3125 C 5.21875 -18.445312 5.019531 -19.320312 4.71875 -19.9375 C 4.414062 -20.550781 3.976562 -20.957031 3.40625 -21.15625 C 2.84375 -21.351562 2.101562 -21.453125 1.1875 -21.453125 L 1.1875 -23.046875 L 10.359375 -24.75 L 11.09375 -19.484375 L 11.28125 -19.484375 C 12.101562 -21.097656 13.1875 -22.378906 14.53125 -23.328125 C 15.875 -24.273438 17.296875 -24.75 18.796875 -24.75 C 19.953125 -24.75 20.894531 -24.457031 21.625 -23.875 C 22.363281 -23.289062 22.734375 -22.554688 22.734375 -21.671875 C 22.734375 -20.691406 22.445312 -19.863281 21.875 -19.1875 C 21.3125 -18.519531 20.539062 -18.1875 19.5625 -18.1875 C 19.101562 -18.1875 18.691406 -18.28125 18.328125 -18.46875 C 17.960938 -18.65625 17.632812 -18.863281 17.34375 -19.09375 C 17.050781 -19.320312 16.757812 -19.535156 16.46875 -19.734375 C 16.1875 -19.929688 15.890625 -20.03125 15.578125 -20.03125 C 14.992188 -20.03125 14.441406 -19.644531 13.921875 -18.875 C 13.410156 -18.113281 12.988281 -17.09375 12.65625 -15.8125 C 12.40625 -14.894531 12.203125 -13.863281 12.046875 -12.71875 C 11.898438 -11.570312 11.828125 -10.429688 11.828125 -9.296875 Z M 11.828125 -7.109375 "/></g></g></g><g fill="#000000" fill-opacity="1"><g transform="translate(141.09395, 45.740674)"><g><path d="M 24.75 -4.265625 C 21.96875 -1.117188 18.5 0.453125 14.34375 0.453125 C 12.445312 0.453125 10.726562 0.15625 9.1875 -0.4375 C 7.644531 -1.03125 6.320312 -1.867188 5.21875 -2.953125 C 4.125 -4.035156 3.269531 -5.328125 2.65625 -6.828125 C 2.039062 -8.328125 1.734375 -9.992188 1.734375 -11.828125 C 1.734375 -13.722656 2.054688 -15.457031 2.703125 -17.03125 C 3.347656 -18.601562 4.253906 -19.960938 5.421875 -21.109375 C 6.597656 -22.253906 7.988281 -23.144531 9.59375 -23.78125 C 11.195312 -24.425781 12.960938 -24.75 14.890625 -24.75 C 18.128906 -24.75 20.648438 -23.875 22.453125 -22.125 C 24.253906 -20.382812 25.15625 -17.941406 25.15625 -14.796875 C 25.15625 -14.304688 25.078125 -14.007812 24.921875 -13.90625 C 24.773438 -13.800781 24.347656 -13.75 23.640625 -13.75 L 8.890625 -13.75 C 8.765625 -13.476562 8.703125 -12.972656 8.703125 -12.234375 C 8.703125 -9.242188 9.351562 -6.875 10.65625 -5.125 C 11.957031 -3.382812 13.722656 -2.515625 15.953125 -2.515625 C 17.234375 -2.515625 18.503906 -2.804688 19.765625 -3.390625 C 21.035156 -3.972656 22.269531 -4.796875 23.46875 -5.859375 Z M 15.859375 -16.3125 C 17.078125 -16.3125 17.863281 -16.378906 18.21875 -16.515625 C 18.570312 -16.660156 18.75 -16.988281 18.75 -17.5 C 18.75 -18.84375 18.363281 -19.941406 17.59375 -20.796875 C 16.832031 -21.660156 15.867188 -22.09375 14.703125 -22.09375 C 13.390625 -22.09375 12.222656 -21.546875 11.203125 -20.453125 C 10.179688 -19.367188 9.519531 -17.988281 9.21875 -16.3125 Z M 15.859375 -16.3125 "/></g></g></g><g fill="#000000" fill-opacity="1"><g transform="translate(167.90338, 45.740674)"><g/></g></g><g fill="#000000" fill-opacity="1"><g transform="translate(180.093648, 45.740674)"><g><path d="M 18.015625 0 L 1.65625 0 L 1.65625 -1.828125 C 2.6875 -1.859375 3.515625 -1.957031 4.140625 -2.125 C 4.773438 -2.300781 5.257812 -2.617188 5.59375 -3.078125 C 5.925781 -3.535156 6.15625 -4.179688 6.28125 -5.015625 C 6.40625 -5.859375 6.46875 -7 6.46875 -8.4375 L 6.46875 -26.859375 C 6.46875 -28.140625 6.410156 -29.195312 6.296875 -30.03125 C 6.191406 -30.875 5.984375 -31.539062 5.671875 -32.03125 C 5.367188 -32.519531 4.9375 -32.863281 4.375 -33.0625 C 3.8125 -33.257812 3.054688 -33.390625 2.109375 -33.453125 L 2.109375 -35.28125 L 17.546875 -35.28125 L 17.546875 -33.453125 C 16.597656 -33.390625 15.84375 -33.257812 15.28125 -33.0625 C 14.71875 -32.863281 14.28125 -32.519531 13.96875 -32.03125 C 13.664062 -31.539062 13.460938 -30.875 13.359375 -30.03125 C 13.253906 -29.195312 13.203125 -28.140625 13.203125 -26.859375 L 13.203125 -8.4375 C 13.203125 -7 13.253906 -5.859375 13.359375 -5.015625 C 13.460938 -4.179688 13.691406 -3.535156 14.046875 -3.078125 C 14.398438 -2.617188 14.890625 -2.300781 15.515625 -2.125 C 16.140625 -1.957031 16.972656 -1.859375 18.015625 -1.828125 Z M 18.015625 0 "/></g></g></g><g fill="#000000" fill-opacity="1"><g transform="translate(199.753889, 45.740674)"><g><path d="M 11.78125 -7.46875 C 11.78125 -6.21875 11.816406 -5.234375 11.890625 -4.515625 C 11.960938 -3.796875 12.128906 -3.242188 12.390625 -2.859375 C 12.648438 -2.484375 13.046875 -2.234375 13.578125 -2.109375 C 14.117188 -1.984375 14.847656 -1.890625 15.765625 -1.828125 L 15.765625 0 L 1.328125 0 L 1.328125 -1.828125 C 2.210938 -1.890625 2.921875 -1.984375 3.453125 -2.109375 C 3.992188 -2.234375 4.40625 -2.476562 4.6875 -2.84375 C 4.976562 -3.207031 5.171875 -3.722656 5.265625 -4.390625 C 5.359375 -5.066406 5.40625 -5.988281 5.40625 -7.15625 L 5.40625 -12.875 C 5.40625 -14.675781 5.375 -16.132812 5.3125 -17.25 C 5.25 -18.363281 5.175781 -19.117188 5.09375 -19.515625 C 5 -19.921875 4.875 -20.25 4.71875 -20.5 C 4.5625 -20.757812 4.332031 -20.957031 4.03125 -21.09375 C 3.726562 -21.238281 3.347656 -21.332031 2.890625 -21.375 C 2.429688 -21.425781 1.847656 -21.453125 1.140625 -21.453125 L 1.140625 -23 L 9.984375 -24.75 L 10.59375 -20.71875 L 10.765625 -20.71875 C 11.773438 -22 12.96875 -22.988281 14.34375 -23.6875 C 15.71875 -24.394531 17.226562 -24.75 18.875 -24.75 C 20.832031 -24.75 22.414062 -24.476562 23.625 -23.9375 C 24.832031 -23.40625 25.910156 -22.515625 26.859375 -21.265625 C 27.378906 -20.554688 27.835938 -19.644531 28.234375 -18.53125 C 28.628906 -17.414062 28.828125 -15.882812 28.828125 -13.9375 L 28.828125 -7.46875 C 28.828125 -6.21875 28.863281 -5.234375 28.9375 -4.515625 C 29.019531 -3.796875 29.1875 -3.242188 29.4375 -2.859375 C 29.695312 -2.484375 30.085938 -2.234375 30.609375 -2.109375 C 31.128906 -1.984375 31.832031 -1.890625 32.71875 -1.828125 L 32.71875 0 L 18.375 0 L 18.375 -1.828125 C 19.289062 -1.859375 20.015625 -1.941406 20.546875 -2.078125 C 21.085938 -2.222656 21.492188 -2.476562 21.765625 -2.84375 C 22.046875 -3.207031 22.226562 -3.734375 22.3125 -4.421875 C 22.40625 -5.109375 22.453125 -6.019531 22.453125 -7.15625 L 22.453125 -13.375 C 22.453125 -14.9375 22.359375 -16.25 22.171875 -17.3125 C 21.992188 -18.382812 21.695312 -19.25 21.28125 -19.90625 C 20.875 -20.5625 20.332031 -21.035156 19.65625 -21.328125 C 18.988281 -21.617188 18.148438 -21.765625 17.140625 -21.765625 C 16.160156 -21.765625 15.316406 -21.488281 14.609375 -20.9375 C 13.910156 -20.394531 13.300781 -19.632812 12.78125 -18.65625 C 12.507812 -18.101562 12.273438 -17.390625 12.078125 -16.515625 C 11.878906 -15.648438 11.78125 -14.742188 11.78125 -13.796875 Z M 11.78125 -7.46875 "/></g></g></g><g fill="#000000" fill-opacity="1"><g transform="translate(233.070917, 45.740674)"><g><path d="M 22.046875 -2.9375 L 21.859375 -2.9375 C 19.753906 -0.675781 17.019531 0.453125 13.65625 0.453125 C 11.914062 0.453125 10.316406 0.148438 8.859375 -0.453125 C 7.410156 -1.066406 6.160156 -1.921875 5.109375 -3.015625 C 4.054688 -4.117188 3.238281 -5.425781 2.65625 -6.9375 C 2.070312 -8.457031 1.78125 -10.132812 1.78125 -11.96875 C 1.78125 -13.789062 2.078125 -15.484375 2.671875 -17.046875 C 3.273438 -18.609375 4.085938 -19.960938 5.109375 -21.109375 C 6.128906 -22.253906 7.347656 -23.144531 8.765625 -23.78125 C 10.191406 -24.425781 11.726562 -24.75 13.375 -24.75 C 14.90625 -24.75 16.257812 -24.519531 17.4375 -24.0625 C 18.613281 -23.601562 19.644531 -22.820312 20.53125 -21.71875 L 20.71875 -21.71875 L 20.71875 -25.625 C 20.71875 -27.425781 20.691406 -28.972656 20.640625 -30.265625 C 20.597656 -31.566406 20.53125 -32.414062 20.4375 -32.8125 C 20.28125 -33.457031 19.8125 -33.921875 19.03125 -34.203125 C 18.257812 -34.492188 17.0625 -34.640625 15.4375 -34.640625 L 15.4375 -36.203125 L 27.03125 -38.03125 L 27.03125 -11.828125 C 27.03125 -9.535156 27.050781 -7.769531 27.09375 -6.53125 C 27.144531 -5.289062 27.234375 -4.351562 27.359375 -3.71875 C 27.421875 -3.3125 27.507812 -2.988281 27.625 -2.75 C 27.75 -2.507812 27.929688 -2.316406 28.171875 -2.171875 C 28.421875 -2.035156 28.75 -1.941406 29.15625 -1.890625 C 29.570312 -1.847656 30.101562 -1.828125 30.75 -1.828125 L 30.75 -0.046875 L 22.046875 0.453125 Z M 20.625 -13.15625 C 20.625 -14.3125 20.5 -15.382812 20.25 -16.375 C 20.007812 -17.375 19.644531 -18.253906 19.15625 -19.015625 C 18.601562 -19.898438 17.898438 -20.570312 17.046875 -21.03125 C 16.191406 -21.488281 15.273438 -21.71875 14.296875 -21.71875 C 12.492188 -21.71875 11.117188 -20.890625 10.171875 -19.234375 C 9.222656 -17.585938 8.75 -15.191406 8.75 -12.046875 C 8.75 -8.867188 9.222656 -6.425781 10.171875 -4.71875 C 11.117188 -3.007812 12.476562 -2.15625 14.25 -2.15625 C 15.257812 -2.15625 16.222656 -2.414062 17.140625 -2.9375 C 18.054688 -3.457031 18.804688 -4.160156 19.390625 -5.046875 C 19.816406 -5.710938 20.128906 -6.539062 20.328125 -7.53125 C 20.523438 -8.53125 20.625 -9.804688 20.625 -11.359375 Z M 20.625 -13.15625 "/></g></g></g><g fill="#000000" fill-opacity="1"><g transform="translate(264.875586, 45.740674)"><g><path d="M 11.78125 -7.515625 C 11.78125 -6.296875 11.820312 -5.316406 11.90625 -4.578125 C 12 -3.847656 12.179688 -3.285156 12.453125 -2.890625 C 12.734375 -2.492188 13.132812 -2.222656 13.65625 -2.078125 C 14.175781 -1.941406 14.878906 -1.859375 15.765625 -1.828125 L 15.765625 0 L 1.328125 0 L 1.328125 -1.828125 C 2.179688 -1.859375 2.875 -1.957031 3.40625 -2.125 C 3.945312 -2.300781 4.363281 -2.578125 4.65625 -2.953125 C 4.945312 -3.335938 5.144531 -3.875 5.25 -4.5625 C 5.351562 -5.25 5.40625 -6.125 5.40625 -7.1875 L 5.40625 -12.828125 C 5.40625 -14.597656 5.375 -16.054688 5.3125 -17.203125 C 5.25 -18.347656 5.175781 -19.132812 5.09375 -19.5625 C 4.9375 -20.332031 4.585938 -20.835938 4.046875 -21.078125 C 3.515625 -21.328125 2.546875 -21.453125 1.140625 -21.453125 L 1.140625 -23 L 11.78125 -24.75 Z M 5.046875 -34.46875 C 5.046875 -35.46875 5.390625 -36.3125 6.078125 -37 C 6.765625 -37.6875 7.59375 -38.03125 8.5625 -38.03125 C 9.570312 -38.03125 10.421875 -37.6875 11.109375 -37 C 11.796875 -36.3125 12.140625 -35.46875 12.140625 -34.46875 C 12.140625 -33.488281 11.796875 -32.65625 11.109375 -31.96875 C 10.421875 -31.28125 9.570312 -30.9375 8.5625 -30.9375 C 7.59375 -30.9375 6.765625 -31.28125 6.078125 -31.96875 C 5.390625 -32.65625 5.046875 -33.488281 5.046875 -34.46875 Z M 5.046875 -34.46875 "/></g></g></g><g fill="#000000" fill-opacity="1"><g transform="translate(281.419524, 45.740674)"><g><path d="M 15.765625 -13.0625 C 13.203125 -11.894531 11.269531 -10.816406 9.96875 -9.828125 C 8.664062 -8.835938 8.015625 -7.804688 8.015625 -6.734375 C 8.015625 -5.847656 8.257812 -5.144531 8.75 -4.625 C 9.238281 -4.101562 9.851562 -3.84375 10.59375 -3.84375 C 11.320312 -3.84375 12.003906 -3.972656 12.640625 -4.234375 C 13.285156 -4.492188 13.835938 -4.835938 14.296875 -5.265625 C 14.753906 -5.691406 15.113281 -6.203125 15.375 -6.796875 C 15.632812 -7.398438 15.765625 -8.035156 15.765625 -8.703125 Z M 15.765625 -15.484375 L 15.765625 -17.421875 C 15.765625 -19.191406 15.453125 -20.476562 14.828125 -21.28125 C 14.203125 -22.09375 13.234375 -22.5 11.921875 -22.5 C 11.035156 -22.5 10.363281 -22.257812 9.90625 -21.78125 C 9.445312 -21.3125 9.015625 -20.53125 8.609375 -19.4375 C 8.335938 -18.664062 7.945312 -18.066406 7.4375 -17.640625 C 6.9375 -17.210938 6.242188 -17 5.359375 -17 C 4.503906 -17 3.847656 -17.257812 3.390625 -17.78125 C 2.929688 -18.300781 2.703125 -19.035156 2.703125 -19.984375 C 2.703125 -21.453125 3.503906 -22.613281 5.109375 -23.46875 C 6.710938 -24.320312 9.132812 -24.75 12.375 -24.75 C 15.789062 -24.75 18.234375 -24.128906 19.703125 -22.890625 C 21.171875 -21.648438 21.90625 -19.582031 21.90625 -16.6875 L 21.90625 -6.640625 C 21.90625 -4.046875 22.425781 -2.75 23.46875 -2.75 C 24.039062 -2.75 24.570312 -2.945312 25.0625 -3.34375 L 25.75 -2.015625 C 25.320312 -1.253906 24.65625 -0.648438 23.75 -0.203125 C 22.851562 0.234375 21.84375 0.453125 20.71875 0.453125 C 19.3125 0.453125 18.238281 0.0234375 17.5 -0.828125 C 16.769531 -1.679688 16.40625 -2.890625 16.40625 -4.453125 L 16.171875 -4.453125 C 15.285156 -2.859375 14.140625 -1.648438 12.734375 -0.828125 C 11.328125 -0.00390625 9.722656 0.40625 7.921875 0.40625 C 6.003906 0.40625 4.460938 -0.132812 3.296875 -1.21875 C 2.140625 -2.300781 1.5625 -3.710938 1.5625 -5.453125 C 1.5625 -6.796875 2.15625 -8.054688 3.34375 -9.234375 C 4.53125 -10.410156 6.515625 -11.5625 9.296875 -12.6875 Z M 15.765625 -15.484375 "/></g></g></g><g fill="#000000" fill-opacity="1"><g transform="translate(307.724857, 45.740674)"><g/></g></g><g fill="#000000" fill-opacity="1"><g transform="translate(319.915125, 45.740674)"><g><path d="M 26.625 -8.5625 L 37.21875 -35.28125 L 50.59375 -35.28125 L 50.59375 -33.453125 C 49.582031 -33.453125 48.765625 -33.351562 48.140625 -33.15625 C 47.515625 -32.957031 47.03125 -32.597656 46.6875 -32.078125 C 46.351562 -31.554688 46.132812 -30.84375 46.03125 -29.9375 C 45.925781 -29.039062 45.875 -27.90625 45.875 -26.53125 L 45.875 -8.75 C 45.875 -7.226562 45.929688 -6.019531 46.046875 -5.125 C 46.171875 -4.238281 46.414062 -3.550781 46.78125 -3.0625 C 47.15625 -2.582031 47.6875 -2.265625 48.375 -2.109375 C 49.0625 -1.953125 49.96875 -1.859375 51.09375 -1.828125 L 51.09375 0 L 33.859375 0 L 33.859375 -1.828125 C 34.992188 -1.859375 35.90625 -1.957031 36.59375 -2.125 C 37.28125 -2.300781 37.8125 -2.617188 38.1875 -3.078125 C 38.570312 -3.535156 38.828125 -4.179688 38.953125 -5.015625 C 39.078125 -5.859375 39.140625 -7 39.140625 -8.4375 L 39.140625 -29.875 L 38.90625 -29.875 L 26.578125 0.453125 L 23.1875 0.453125 L 10.453125 -29.875 L 10.265625 -29.875 L 10.265625 -8.75 C 10.265625 -7.226562 10.320312 -6.019531 10.4375 -5.125 C 10.5625 -4.238281 10.804688 -3.550781 11.171875 -3.0625 C 11.546875 -2.582031 12.078125 -2.265625 12.765625 -2.109375 C 13.453125 -1.953125 14.359375 -1.859375 15.484375 -1.828125 L 15.484375 0 L 1.375 0 L 1.375 -1.828125 C 2.507812 -1.859375 3.425781 -1.957031 4.125 -2.125 C 4.820312 -2.300781 5.363281 -2.617188 5.75 -3.078125 C 6.132812 -3.535156 6.382812 -4.179688 6.5 -5.015625 C 6.625 -5.859375 6.6875 -7 6.6875 -8.4375 L 6.6875 -26.859375 C 6.6875 -28.140625 6.625 -29.207031 6.5 -30.0625 C 6.382812 -30.914062 6.15625 -31.59375 5.8125 -32.09375 C 5.476562 -32.601562 5 -32.957031 4.375 -33.15625 C 3.75 -33.351562 2.914062 -33.453125 1.875 -33.453125 L 1.875 -35.28125 L 15.765625 -35.28125 L 26.4375 -8.5625 Z M 26.625 -8.5625 "/></g></g></g><g fill="#000000" fill-opacity="1"><g transform="translate(371.380036, 45.740674)"><g><path d="M 24.75 -4.265625 C 21.96875 -1.117188 18.5 0.453125 14.34375 0.453125 C 12.445312 0.453125 10.726562 0.15625 9.1875 -0.4375 C 7.644531 -1.03125 6.320312 -1.867188 5.21875 -2.953125 C 4.125 -4.035156 3.269531 -5.328125 2.65625 -6.828125 C 2.039062 -8.328125 1.734375 -9.992188 1.734375 -11.828125 C 1.734375 -13.722656 2.054688 -15.457031 2.703125 -17.03125 C 3.347656 -18.601562 4.253906 -19.960938 5.421875 -21.109375 C 6.597656 -22.253906 7.988281 -23.144531 9.59375 -23.78125 C 11.195312 -24.425781 12.960938 -24.75 14.890625 -24.75 C 18.128906 -24.75 20.648438 -23.875 22.453125 -22.125 C 24.253906 -20.382812 25.15625 -17.941406 25.15625 -14.796875 C 25.15625 -14.304688 25.078125 -14.007812 24.921875 -13.90625 C 24.773438 -13.800781 24.347656 -13.75 23.640625 -13.75 L 8.890625 -13.75 C 8.765625 -13.476562 8.703125 -12.972656 8.703125 -12.234375 C 8.703125 -9.242188 9.351562 -6.875 10.65625 -5.125 C 11.957031 -3.382812 13.722656 -2.515625 15.953125 -2.515625 C 17.234375 -2.515625 18.503906 -2.804688 19.765625 -3.390625 C 21.035156 -3.972656 22.269531 -4.796875 23.46875 -5.859375 Z M 15.859375 -16.3125 C 17.078125 -16.3125 17.863281 -16.378906 18.21875 -16.515625 C 18.570312 -16.660156 18.75 -16.988281 18.75 -17.5 C 18.75 -18.84375 18.363281 -19.941406 17.59375 -20.796875 C 16.832031 -21.660156 15.867188 -22.09375 14.703125 -22.09375 C 13.390625 -22.09375 12.222656 -21.546875 11.203125 -20.453125 C 10.179688 -19.367188 9.519531 -17.988281 9.21875 -16.3125 Z M 15.859375 -16.3125 "/></g></g></g><g fill="#000000" fill-opacity="1"><g transform="translate(398.189466, 45.740674)"><g><path d="M 24.75 -4.265625 C 21.96875 -1.117188 18.5 0.453125 14.34375 0.453125 C 12.445312 0.453125 10.726562 0.15625 9.1875 -0.4375 C 7.644531 -1.03125 6.320312 -1.867188 5.21875 -2.953125 C 4.125 -4.035156 3.269531 -5.328125 2.65625 -6.828125 C 2.039062 -8.328125 1.734375 -9.992188 1.734375 -11.828125 C 1.734375 -13.722656 2.054688 -15.457031 2.703125 -17.03125 C 3.347656 -18.601562 4.253906 -19.960938 5.421875 -21.109375 C 6.597656 -22.253906 7.988281 -23.144531 9.59375 -23.78125 C 11.195312 -24.425781 12.960938 -24.75 14.890625 -24.75 C 18.128906 -24.75 20.648438 -23.875 22.453125 -22.125 C 24.253906 -20.382812 25.15625 -17.941406 25.15625 -14.796875 C 25.15625 -14.304688 25.078125 -14.007812 24.921875 -13.90625 C 24.773438 -13.800781 24.347656 -13.75 23.640625 -13.75 L 8.890625 -13.75 C 8.765625 -13.476562 8.703125 -12.972656 8.703125 -12.234375 C 8.703125 -9.242188 9.351562 -6.875 10.65625 -5.125 C 11.957031 -3.382812 13.722656 -2.515625 15.953125 -2.515625 C 17.234375 -2.515625 18.503906 -2.804688 19.765625 -3.390625 C 21.035156 -3.972656 22.269531 -4.796875 23.46875 -5.859375 Z M 15.859375 -16.3125 C 17.078125 -16.3125 17.863281 -16.378906 18.21875 -16.515625 C 18.570312 -16.660156 18.75 -16.988281 18.75 -17.5 C 18.75 -18.84375 18.363281 -19.941406 17.59375 -20.796875 C 16.832031 -21.660156 15.867188 -22.09375 14.703125 -22.09375 C 13.390625 -22.09375 12.222656 -21.546875 11.203125 -20.453125 C 10.179688 -19.367188 9.519531 -17.988281 9.21875 -16.3125 Z M 15.859375 -16.3125 "/></g></g></g><g fill="#000000" fill-opacity="1"><g transform="translate(424.998896, 45.740674)"><g><path d="M 1.140625 -21.765625 L 1.140625 -23.828125 C 2.972656 -24.347656 4.507812 -25.132812 5.75 -26.1875 C 6.988281 -27.238281 7.914062 -28.453125 8.53125 -29.828125 L 10.859375 -29.828125 L 10.859375 -24.28125 L 16.125 -24.28125 L 16.125 -21.765625 L 10.859375 -21.765625 L 10.859375 -7.703125 C 10.859375 -5.804688 11.0625 -4.457031 11.46875 -3.65625 C 11.882812 -2.863281 12.582031 -2.46875 13.5625 -2.46875 C 14.757812 -2.46875 15.660156 -3.019531 16.265625 -4.125 L 17.234375 -2.796875 C 16.378906 -0.628906 14.363281 0.453125 11.1875 0.453125 C 9.070312 0.453125 7.425781 -0.03125 6.25 -1 C 5.070312 -1.976562 4.484375 -3.351562 4.484375 -5.125 L 4.484375 -21.765625 Z M 1.140625 -21.765625 "/></g></g></g><g fill="#000000" fill-opacity="1"><g transform="translate(442.505211, 45.740674)"><g><path d="M 3.890625 0 L 2.46875 0 L 2.46875 -8.34375 L 4.40625 -8.34375 C 4.914062 -6.144531 5.660156 -4.539062 6.640625 -3.53125 C 7.617188 -2.519531 8.890625 -2.015625 10.453125 -2.015625 C 11.578125 -2.015625 12.453125 -2.25 13.078125 -2.71875 C 13.703125 -3.195312 14.015625 -3.847656 14.015625 -4.671875 C 14.015625 -5.523438 13.632812 -6.359375 12.875 -7.171875 C 12.113281 -7.984375 10.878906 -8.847656 9.171875 -9.765625 C 6.847656 -11.015625 5.179688 -12.257812 4.171875 -13.5 C 3.160156 -14.738281 2.65625 -16.132812 2.65625 -17.6875 C 2.65625 -18.695312 2.84375 -19.632812 3.21875 -20.5 C 3.601562 -21.375 4.125 -22.128906 4.78125 -22.765625 C 5.445312 -23.410156 6.238281 -23.910156 7.15625 -24.265625 C 8.070312 -24.617188 9.0625 -24.796875 10.125 -24.796875 C 11.070312 -24.796875 12.007812 -24.65625 12.9375 -24.375 C 13.875 -24.101562 14.691406 -23.722656 15.390625 -23.234375 L 16.21875 -24.328125 L 17.421875 -24.328125 L 17.421875 -17.421875 L 15.625 -17.421875 C 14.925781 -19.160156 14.203125 -20.410156 13.453125 -21.171875 C 12.703125 -21.929688 11.789062 -22.3125 10.71875 -22.3125 C 9.863281 -22.3125 9.179688 -22.082031 8.671875 -21.625 C 8.171875 -21.164062 7.921875 -20.554688 7.921875 -19.796875 C 7.921875 -18.941406 8.296875 -18.128906 9.046875 -17.359375 C 9.796875 -16.597656 11.039062 -15.757812 12.78125 -14.84375 C 14.007812 -14.175781 15.066406 -13.519531 15.953125 -12.875 C 16.835938 -12.238281 17.550781 -11.585938 18.09375 -10.921875 C 18.644531 -10.265625 19.050781 -9.578125 19.3125 -8.859375 C 19.570312 -8.148438 19.703125 -7.378906 19.703125 -6.546875 C 19.703125 -5.484375 19.503906 -4.523438 19.109375 -3.671875 C 18.710938 -2.816406 18.144531 -2.082031 17.40625 -1.46875 C 16.675781 -0.851562 15.800781 -0.378906 14.78125 -0.046875 C 13.757812 0.285156 12.617188 0.453125 11.359375 0.453125 C 10.046875 0.453125 8.820312 0.28125 7.6875 -0.0625 C 6.5625 -0.414062 5.632812 -0.929688 4.90625 -1.609375 Z M 3.890625 0 "/></g></g></g><g fill="#000000" fill-opacity="1"><g transform="translate(463.861076, 45.740674)"><g/></g></g><g fill="#000000" fill-opacity="1"><g transform="translate(476.051344, 45.740674)"><g><path d="M 1.515625 0 L 1.515625 -1.828125 C 2.554688 -1.859375 3.390625 -1.953125 4.015625 -2.109375 C 4.640625 -2.265625 5.125 -2.523438 5.46875 -2.890625 C 5.820312 -3.253906 6.0625 -3.769531 6.1875 -4.4375 C 6.3125 -5.113281 6.375 -5.988281 6.375 -7.0625 L 6.375 -28.234375 C 6.375 -29.296875 6.328125 -30.15625 6.234375 -30.8125 C 6.140625 -31.476562 5.945312 -32 5.65625 -32.375 C 5.363281 -32.757812 4.96875 -33.019531 4.46875 -33.15625 C 3.96875 -33.289062 3.300781 -33.390625 2.46875 -33.453125 L 2.46875 -35.28125 L 17.1875 -35.28125 C 21.800781 -35.28125 25.351562 -34.539062 27.84375 -33.0625 C 30.332031 -31.582031 31.578125 -29.46875 31.578125 -26.71875 C 31.578125 -23.082031 28.960938 -20.515625 23.734375 -19.015625 L 23.734375 -18.828125 C 25.421875 -18.828125 26.941406 -18.59375 28.296875 -18.125 C 29.660156 -17.65625 30.8125 -16.988281 31.75 -16.125 C 32.695312 -15.269531 33.429688 -14.257812 33.953125 -13.09375 C 34.472656 -11.9375 34.734375 -10.671875 34.734375 -9.296875 C 34.734375 -7.742188 34.359375 -6.382812 33.609375 -5.21875 C 32.859375 -4.0625 31.785156 -3.085938 30.390625 -2.296875 C 27.671875 -0.765625 23.925781 0 19.15625 0 Z M 19.484375 -2.796875 C 24.398438 -2.796875 26.859375 -5.007812 26.859375 -9.4375 C 26.859375 -12.15625 25.972656 -14.140625 24.203125 -15.390625 C 23.285156 -16.035156 22.097656 -16.492188 20.640625 -16.765625 C 19.191406 -17.046875 17.414062 -17.1875 15.3125 -17.1875 L 13.109375 -17.1875 L 13.109375 -8.015625 C 13.109375 -6.117188 13.597656 -4.773438 14.578125 -3.984375 C 15.554688 -3.191406 17.191406 -2.796875 19.484375 -2.796875 Z M 15.8125 -19.9375 C 17.1875 -19.9375 18.375 -20.066406 19.375 -20.328125 C 20.382812 -20.585938 21.242188 -20.960938 21.953125 -21.453125 C 23.421875 -22.453125 24.15625 -24.023438 24.15625 -26.171875 C 24.15625 -28.398438 23.601562 -30.007812 22.5 -31 C 21.40625 -31.988281 19.632812 -32.484375 17.1875 -32.484375 L 13.9375 -32.484375 C 13.382812 -32.484375 13.109375 -32.226562 13.109375 -31.71875 L 13.109375 -19.9375 Z M 15.8125 -19.9375 "/></g></g></g><g fill="#000000" fill-opacity="1"><g transform="translate(512.576353, 45.740674)"><g><path d="M 11.78125 -7.515625 C 11.78125 -6.296875 11.820312 -5.316406 11.90625 -4.578125 C 12 -3.847656 12.179688 -3.285156 12.453125 -2.890625 C 12.734375 -2.492188 13.132812 -2.222656 13.65625 -2.078125 C 14.175781 -1.941406 14.878906 -1.859375 15.765625 -1.828125 L 15.765625 0 L 1.328125 0 L 1.328125 -1.828125 C 2.179688 -1.859375 2.875 -1.957031 3.40625 -2.125 C 3.945312 -2.300781 4.363281 -2.578125 4.65625 -2.953125 C 4.945312 -3.335938 5.144531 -3.875 5.25 -4.5625 C 5.351562 -5.25 5.40625 -6.125 5.40625 -7.1875 L 5.40625 -12.828125 C 5.40625 -14.597656 5.375 -16.054688 5.3125 -17.203125 C 5.25 -18.347656 5.175781 -19.132812 5.09375 -19.5625 C 4.9375 -20.332031 4.585938 -20.835938 4.046875 -21.078125 C 3.515625 -21.328125 2.546875 -21.453125 1.140625 -21.453125 L 1.140625 -23 L 11.78125 -24.75 Z M 5.046875 -34.46875 C 5.046875 -35.46875 5.390625 -36.3125 6.078125 -37 C 6.765625 -37.6875 7.59375 -38.03125 8.5625 -38.03125 C 9.570312 -38.03125 10.421875 -37.6875 11.109375 -37 C 11.796875 -36.3125 12.140625 -35.46875 12.140625 -34.46875 C 12.140625 -33.488281 11.796875 -32.65625 11.109375 -31.96875 C 10.421875 -31.28125 9.570312 -30.9375 8.5625 -30.9375 C 7.59375 -30.9375 6.765625 -31.28125 6.078125 -31.96875 C 5.390625 -32.65625 5.046875 -33.488281 5.046875 -34.46875 Z M 5.046875 -34.46875 "/></g></g></g><g fill="#000000" fill-opacity="1"><g transform="translate(529.120268, 45.740674)"><g><path d="M 1.140625 -21.765625 L 1.140625 -23.828125 C 2.972656 -24.347656 4.507812 -25.132812 5.75 -26.1875 C 6.988281 -27.238281 7.914062 -28.453125 8.53125 -29.828125 L 10.859375 -29.828125 L 10.859375 -24.28125 L 16.125 -24.28125 L 16.125 -21.765625 L 10.859375 -21.765625 L 10.859375 -7.703125 C 10.859375 -5.804688 11.0625 -4.457031 11.46875 -3.65625 C 11.882812 -2.863281 12.582031 -2.46875 13.5625 -2.46875 C 14.757812 -2.46875 15.660156 -3.019531 16.265625 -4.125 L 17.234375 -2.796875 C 16.378906 -0.628906 14.363281 0.453125 11.1875 0.453125 C 9.070312 0.453125 7.425781 -0.03125 6.25 -1 C 5.070312 -1.976562 4.484375 -3.351562 4.484375 -5.125 L 4.484375 -21.765625 Z M 1.140625 -21.765625 "/></g></g></g><g fill="#000000" fill-opacity="1"><g transform="translate(546.626583, 45.740674)"><g><path d="M 24.203125 -3.796875 C 23.035156 -2.515625 21.585938 -1.519531 19.859375 -0.8125 C 18.140625 -0.113281 16.269531 0.234375 14.25 0.234375 C 12.382812 0.234375 10.6875 -0.0625 9.15625 -0.65625 C 7.632812 -1.257812 6.320312 -2.09375 5.21875 -3.15625 C 4.125 -4.226562 3.273438 -5.519531 2.671875 -7.03125 C 2.078125 -8.539062 1.78125 -10.210938 1.78125 -12.046875 C 1.78125 -13.941406 2.101562 -15.664062 2.75 -17.21875 C 3.394531 -18.78125 4.296875 -20.117188 5.453125 -21.234375 C 6.609375 -22.347656 7.992188 -23.210938 9.609375 -23.828125 C 11.234375 -24.441406 13.023438 -24.75 14.984375 -24.75 C 16.359375 -24.75 17.632812 -24.609375 18.8125 -24.328125 C 19.988281 -24.054688 20.992188 -23.675781 21.828125 -23.1875 C 22.671875 -22.695312 23.335938 -22.125 23.828125 -21.46875 C 24.316406 -20.8125 24.5625 -20.101562 24.5625 -19.34375 C 24.5625 -18.457031 24.304688 -17.753906 23.796875 -17.234375 C 23.296875 -16.710938 22.617188 -16.453125 21.765625 -16.453125 C 21.066406 -16.453125 20.445312 -16.632812 19.90625 -17 C 19.375 -17.363281 18.847656 -17.960938 18.328125 -18.796875 C 17.867188 -19.523438 17.476562 -20.101562 17.15625 -20.53125 C 16.84375 -20.957031 16.546875 -21.285156 16.265625 -21.515625 C 15.992188 -21.742188 15.71875 -21.894531 15.4375 -21.96875 C 15.164062 -22.050781 14.832031 -22.09375 14.4375 -22.09375 C 12.664062 -22.09375 11.289062 -21.265625 10.3125 -19.609375 C 9.332031 -17.960938 8.84375 -15.65625 8.84375 -12.6875 C 8.84375 -9.507812 9.429688 -7.066406 10.609375 -5.359375 C 11.785156 -3.648438 13.472656 -2.796875 15.671875 -2.796875 C 16.921875 -2.796875 18.171875 -3.03125 19.421875 -3.5 C 20.679688 -3.976562 21.875 -4.660156 23 -5.546875 Z M 24.203125 -3.796875 "/></g></g></g><g fill="#000000" fill-opacity="1"><g transform="translate(572.473659, 45.740674)"><g><path d="M 15.03125 -24.75 C 16.863281 -24.75 18.597656 -24.4375 20.234375 -23.8125 C 21.867188 -23.1875 23.300781 -22.320312 24.53125 -21.21875 C 25.769531 -20.113281 26.75 -18.804688 27.46875 -17.296875 C 28.1875 -15.785156 28.546875 -14.128906 28.546875 -12.328125 C 28.546875 -10.460938 28.1875 -8.75 27.46875 -7.1875 C 26.75 -5.632812 25.769531 -4.289062 24.53125 -3.15625 C 23.300781 -2.03125 21.867188 -1.144531 20.234375 -0.5 C 18.597656 0.132812 16.863281 0.453125 15.03125 0.453125 C 13.226562 0.453125 11.515625 0.140625 9.890625 -0.484375 C 8.273438 -1.109375 6.851562 -1.984375 5.625 -3.109375 C 4.40625 -4.242188 3.445312 -5.597656 2.75 -7.171875 C 2.050781 -8.742188 1.703125 -10.460938 1.703125 -12.328125 C 1.703125 -14.128906 2.050781 -15.789062 2.75 -17.3125 C 3.445312 -18.84375 4.40625 -20.15625 5.625 -21.25 C 6.851562 -22.351562 8.273438 -23.210938 9.890625 -23.828125 C 11.515625 -24.441406 13.226562 -24.75 15.03125 -24.75 Z M 15.03125 -22.09375 C 14.113281 -22.09375 13.269531 -21.851562 12.5 -21.375 C 11.738281 -20.90625 11.09375 -20.242188 10.5625 -19.390625 C 10.03125 -18.535156 9.617188 -17.503906 9.328125 -16.296875 C 9.035156 -15.085938 8.890625 -13.75 8.890625 -12.28125 C 8.890625 -10.75 9.035156 -9.375 9.328125 -8.15625 C 9.617188 -6.9375 10.03125 -5.898438 10.5625 -5.046875 C 11.09375 -4.191406 11.734375 -3.523438 12.484375 -3.046875 C 13.234375 -2.578125 14.082031 -2.34375 15.03125 -2.34375 C 15.976562 -2.34375 16.84375 -2.578125 17.625 -3.046875 C 18.40625 -3.523438 19.066406 -4.195312 19.609375 -5.0625 C 20.160156 -5.9375 20.585938 -6.984375 20.890625 -8.203125 C 21.203125 -9.421875 21.359375 -10.78125 21.359375 -12.28125 C 21.359375 -13.75 21.203125 -15.078125 20.890625 -16.265625 C 20.585938 -17.460938 20.160156 -18.492188 19.609375 -19.359375 C 19.066406 -20.234375 18.40625 -20.90625 17.625 -21.375 C 16.84375 -21.851562 15.976562 -22.09375 15.03125 -22.09375 Z M 15.03125 -22.09375 "/></g></g></g><g fill="#000000" fill-opacity="1"><g transform="translate(602.720176, 45.740674)"><g><path d="M 11.78125 -7.515625 C 11.78125 -6.296875 11.820312 -5.316406 11.90625 -4.578125 C 12 -3.847656 12.179688 -3.285156 12.453125 -2.890625 C 12.734375 -2.492188 13.132812 -2.222656 13.65625 -2.078125 C 14.175781 -1.941406 14.878906 -1.859375 15.765625 -1.828125 L 15.765625 0 L 1.328125 0 L 1.328125 -1.828125 C 2.179688 -1.859375 2.875 -1.957031 3.40625 -2.125 C 3.945312 -2.300781 4.363281 -2.578125 4.65625 -2.953125 C 4.945312 -3.335938 5.144531 -3.875 5.25 -4.5625 C 5.351562 -5.25 5.40625 -6.125 5.40625 -7.1875 L 5.40625 -12.828125 C 5.40625 -14.597656 5.375 -16.054688 5.3125 -17.203125 C 5.25 -18.347656 5.175781 -19.132812 5.09375 -19.5625 C 4.9375 -20.332031 4.585938 -20.835938 4.046875 -21.078125 C 3.515625 -21.328125 2.546875 -21.453125 1.140625 -21.453125 L 1.140625 -23 L 11.78125 -24.75 Z M 5.046875 -34.46875 C 5.046875 -35.46875 5.390625 -36.3125 6.078125 -37 C 6.765625 -37.6875 7.59375 -38.03125 8.5625 -38.03125 C 9.570312 -38.03125 10.421875 -37.6875 11.109375 -37 C 11.796875 -36.3125 12.140625 -35.46875 12.140625 -34.46875 C 12.140625 -33.488281 11.796875 -32.65625 11.109375 -31.96875 C 10.421875 -31.28125 9.570312 -30.9375 8.5625 -30.9375 C 7.59375 -30.9375 6.765625 -31.28125 6.078125 -31.96875 C 5.390625 -32.65625 5.046875 -33.488281 5.046875 -34.46875 Z M 5.046875 -34.46875 "/></g></g></g><g fill="#000000" fill-opacity="1"><g transform="translate(619.264092, 45.740674)"><g><path d="M 11.78125 -7.46875 C 11.78125 -6.21875 11.816406 -5.234375 11.890625 -4.515625 C 11.960938 -3.796875 12.128906 -3.242188 12.390625 -2.859375 C 12.648438 -2.484375 13.046875 -2.234375 13.578125 -2.109375 C 14.117188 -1.984375 14.847656 -1.890625 15.765625 -1.828125 L 15.765625 0 L 1.328125 0 L 1.328125 -1.828125 C 2.210938 -1.890625 2.921875 -1.984375 3.453125 -2.109375 C 3.992188 -2.234375 4.40625 -2.476562 4.6875 -2.84375 C 4.976562 -3.207031 5.171875 -3.722656 5.265625 -4.390625 C 5.359375 -5.066406 5.40625 -5.988281 5.40625 -7.15625 L 5.40625 -12.875 C 5.40625 -14.675781 5.375 -16.132812 5.3125 -17.25 C 5.25 -18.363281 5.175781 -19.117188 5.09375 -19.515625 C 5 -19.921875 4.875 -20.25 4.71875 -20.5 C 4.5625 -20.757812 4.332031 -20.957031 4.03125 -21.09375 C 3.726562 -21.238281 3.347656 -21.332031 2.890625 -21.375 C 2.429688 -21.425781 1.847656 -21.453125 1.140625 -21.453125 L 1.140625 -23 L 9.984375 -24.75 L 10.59375 -20.71875 L 10.765625 -20.71875 C 11.773438 -22 12.96875 -22.988281 14.34375 -23.6875 C 15.71875 -24.394531 17.226562 -24.75 18.875 -24.75 C 20.832031 -24.75 22.414062 -24.476562 23.625 -23.9375 C 24.832031 -23.40625 25.910156 -22.515625 26.859375 -21.265625 C 27.378906 -20.554688 27.835938 -19.644531 28.234375 -18.53125 C 28.628906 -17.414062 28.828125 -15.882812 28.828125 -13.9375 L 28.828125 -7.46875 C 28.828125 -6.21875 28.863281 -5.234375 28.9375 -4.515625 C 29.019531 -3.796875 29.1875 -3.242188 29.4375 -2.859375 C 29.695312 -2.484375 30.085938 -2.234375 30.609375 -2.109375 C 31.128906 -1.984375 31.832031 -1.890625 32.71875 -1.828125 L 32.71875 0 L 18.375 0 L 18.375 -1.828125 C 19.289062 -1.859375 20.015625 -1.941406 20.546875 -2.078125 C 21.085938 -2.222656 21.492188 -2.476562 21.765625 -2.84375 C 22.046875 -3.207031 22.226562 -3.734375 22.3125 -4.421875 C 22.40625 -5.109375 22.453125 -6.019531 22.453125 -7.15625 L 22.453125 -13.375 C 22.453125 -14.9375 22.359375 -16.25 22.171875 -17.3125 C 21.992188 -18.382812 21.695312 -19.25 21.28125 -19.90625 C 20.875 -20.5625 20.332031 -21.035156 19.65625 -21.328125 C 18.988281 -21.617188 18.148438 -21.765625 17.140625 -21.765625 C 16.160156 -21.765625 15.316406 -21.488281 14.609375 -20.9375 C 13.910156 -20.394531 13.300781 -19.632812 12.78125 -18.65625 C 12.507812 -18.101562 12.273438 -17.390625 12.078125 -16.515625 C 11.878906 -15.648438 11.78125 -14.742188 11.78125 -13.796875 Z M 11.78125 -7.46875 "/></g></g></g><g fill="#ff6501" fill-opacity="1"><g transform="translate(652.583971, 45.740674)"><g><path d="M 2.46875 -2.9375 C 2.46875 -3.914062 2.796875 -4.75 3.453125 -5.4375 C 4.117188 -6.125 4.9375 -6.46875 5.90625 -6.46875 C 6.914062 -6.46875 7.753906 -6.125 8.421875 -5.4375 C 9.097656 -4.75 9.4375 -3.914062 9.4375 -2.9375 C 9.4375 -1.988281 9.097656 -1.1875 8.421875 -0.53125 C 7.753906 0.125 6.914062 0.453125 5.90625 0.453125 C 4.9375 0.453125 4.117188 0.125 3.453125 -0.53125 C 2.796875 -1.1875 2.46875 -1.988281 2.46875 -2.9375 Z M 2.46875 -2.9375 "/></g></g></g></g></g><path fill="#ff6501" d="M 1106.453125 158.441406 C 1102.597656 173.898438 1086.9375 183.308594 1071.476562 179.453125 C 1056.023438 175.597656 1046.613281 159.941406 1050.46875 144.480469 C 1054.320312 129.019531 1069.980469 119.609375 1085.4375 123.464844 C 1100.898438 127.320312 1110.304688 142.980469 1106.453125 158.441406 Z M 1106.453125 158.441406 " fill-opacity="1" fill-rule="nonzero"/><path fill="#ffffff" d="M 1091.183594 147.347656 C 1091.757812 143.507812 1088.835938 141.445312 1084.835938 140.066406 L 1086.132812 134.867188 L 1082.96875 134.078125 L 1081.703125 139.140625 C 1080.871094 138.933594 1080.015625 138.738281 1079.167969 138.542969 L 1080.4375 133.445312 L 1077.273438 132.65625 L 1075.976562 137.855469 C 1075.289062 137.699219 1074.613281 137.542969 1073.957031 137.382812 L 1073.960938 137.363281 L 1069.59375 136.273438 L 1068.75 139.65625 C 1068.75 139.65625 1071.097656 140.195312 1071.050781 140.226562 C 1072.332031 140.546875 1072.5625 141.398438 1072.523438 142.070312 L 1071.046875 147.996094 C 1071.136719 148.019531 1071.25 148.050781 1071.378906 148.101562 C 1071.273438 148.074219 1071.160156 148.046875 1071.042969 148.019531 L 1068.972656 156.320312 C 1068.816406 156.707031 1068.417969 157.292969 1067.519531 157.070312 C 1067.550781 157.117188 1065.21875 156.496094 1065.21875 156.496094 L 1063.648438 160.121094 L 1067.769531 161.148438 C 1068.535156 161.339844 1069.285156 161.542969 1070.023438 161.730469 L 1068.714844 166.992188 L 1071.878906 167.78125 L 1073.175781 162.574219 C 1074.039062 162.8125 1074.878906 163.027344 1075.699219 163.230469 L 1074.40625 168.410156 L 1077.570312 169.199219 L 1078.882812 163.949219 C 1084.28125 164.972656 1088.339844 164.558594 1090.050781 159.675781 C 1091.425781 155.742188 1089.980469 153.476562 1087.140625 151.996094 C 1089.210938 151.519531 1090.769531 150.160156 1091.183594 147.347656 Z M 1083.949219 157.492188 C 1082.972656 161.425781 1076.351562 159.300781 1074.203125 158.765625 L 1075.941406 151.796875 C 1078.089844 152.332031 1084.972656 153.390625 1083.949219 157.492188 Z M 1084.929688 147.292969 C 1084.035156 150.867188 1078.527344 149.050781 1076.738281 148.605469 L 1078.316406 142.285156 C 1080.101562 142.730469 1085.859375 143.558594 1084.929688 147.292969 Z M 1084.929688 147.292969 " fill-opacity="1" fill-rule="nonzero"/><path stroke-linecap="butt" transform="matrix(0.75, 0.000000000000000097, -0.000000000000000097, 0.75, 227.126454, 242.961445)" fill="none" stroke-linejoin="miter" d="M -0.00193838 1.999324 L 874.529369 1.999324 " stroke="#ff6501" stroke-width="4" stroke-opacity="1" stroke-miterlimit="4"/><path stroke-linecap="butt" transform="matrix(0.75, 0, 0, 0.75, 36.002197, 134.156564)" fill="none" stroke-linejoin="miter" d="M 0.00227861 1.999581 L 1346.497159 1.999581 " stroke="#ff6501" stroke-width="4" stroke-opacity="1" stroke-miterlimit="4"/><path stroke-linecap="butt" transform="matrix(0, 0.75, -0.75, 0, 1088.451038, 183.296165)" fill="none" stroke-linejoin="miter" d="M 0.000946982 2.502426 L 122.219705 2.502426 " stroke="#ff6501" stroke-width="5" stroke-opacity="1" stroke-miterlimit="4"/><path stroke-linecap="butt" transform="matrix(0.75, 0, 0, 0.75, 37.502241, 271.961233)" fill="none" stroke-linejoin="miter" d="M 0.00221986 1.999606 L 1399.997103 1.999606 " stroke="#ff6501" stroke-width="4" stroke-opacity="1" stroke-miterlimit="4"/><path stroke-linecap="butt" transform="matrix(0.00599277, 0.749976, -0.749976, 0.00599277, 38.998312, 134.442018)" fill="none" stroke-linejoin="miter" d="M -0.0011533 1.997804 L 187.353789 2.000046 " stroke="#ff6501" stroke-width="4" stroke-opacity="1" stroke-miterlimit="4"/></svg>