<svg width="2297" height="2681" viewBox="0 0 2297 2681" fill="none" xmlns="http://www.w3.org/2000/svg">
<g clip-path="url(#clip0_159_2406)">
<rect x="406.537" y="352.183" width="1522.69" height="1849.6" rx="53.7674" fill="black"/>
<g filter="url(#filter0_f_159_2406)">
<g filter="url(#filter1_f_159_2406)">
<circle cx="1914.18" cy="2145.86" r="1176.43" fill="#2176C6" fill-opacity="0.5"/>
</g>
<g filter="url(#filter2_f_159_2406)">
<circle cx="1914.18" cy="2145.86" r="915.002" fill="#2176C6" fill-opacity="0.6"/>
</g>
<g filter="url(#filter3_f_159_2406)">
<circle cx="1914.18" cy="2145.86" r="642.135" fill="#2176C6" fill-opacity="0.8"/>
</g>
<circle cx="1914.18" cy="2145.86" r="408.483" fill="#2276C5"/>
<circle cx="1914.17" cy="2145.86" r="187.109" fill="black"/>
</g>
<mask id="path-7-outside-1_159_2406" maskUnits="userSpaceOnUse" x="403.592" y="353.539" width="1528" height="1847" fill="black">
<rect fill="white" x="403.592" y="353.539" width="1528" height="1847"/>
<path d="M1871.16 371.539C1894.92 371.54 1914.18 390.797 1914.18 414.553V2139.41C1914.18 2163.17 1894.92 2182.43 1871.16 2182.43H464.605C440.85 2182.43 421.592 2163.17 421.592 2139.41V414.553C421.592 390.797 440.85 371.539 464.605 371.539H1871.16Z"/>
</mask>
<path d="M1871.16 371.539L1871.16 354.334H1871.16V371.539ZM1914.18 414.553H1931.38V414.553L1914.18 414.553ZM1914.18 2139.41H1931.38H1914.18ZM1871.16 2182.43V2199.63H1871.16L1871.16 2182.43ZM464.605 2182.43L464.605 2199.63H464.605V2182.43ZM421.592 2139.41H404.386H421.592ZM421.592 414.553L404.386 414.553V414.553H421.592ZM464.605 371.539V354.334H464.605L464.605 371.539ZM1871.16 371.539L1871.16 388.745C1885.42 388.745 1896.97 400.3 1896.97 414.553L1914.18 414.553L1931.38 414.553C1931.38 381.295 1904.42 354.334 1871.16 354.334L1871.16 371.539ZM1914.18 414.553H1896.97V2139.41H1914.18H1931.38V414.553H1914.18ZM1914.18 2139.41H1896.97C1896.97 2153.67 1885.42 2165.22 1871.16 2165.22L1871.16 2182.43L1871.16 2199.63C1904.42 2199.63 1931.38 2172.67 1931.38 2139.41H1914.18ZM1871.16 2182.43V2165.22H464.605V2182.43V2199.63H1871.16V2182.43ZM464.605 2182.43L464.606 2165.22C450.352 2165.22 438.797 2153.67 438.797 2139.41H421.592H404.386C404.386 2172.67 431.347 2199.63 464.605 2199.63L464.605 2182.43ZM421.592 2139.41H438.797V414.553H421.592H404.386V2139.41H421.592ZM421.592 414.553L438.797 414.553C438.797 400.3 450.352 388.745 464.606 388.745L464.605 371.539L464.605 354.334C431.347 354.334 404.386 381.295 404.386 414.553L421.592 414.553ZM464.605 371.539V388.745H1871.16V371.539V354.334H464.605V371.539Z" fill="url(#paint0_linear_159_2406)" mask="url(#path-7-outside-1_159_2406)"/>
<path d="M589.044 1046.84L612.409 1149.36L617.423 1177.9L622.727 1149.99L643.19 1046.96L682.646 1047.05L703.584 1149.56L708.961 1178.11L714.507 1150.68L738.735 1047.18L776.734 1047.26L725.814 1226.1L690.121 1226.02L668.826 1121.32L662.617 1086.71L656.2 1121.29L634.275 1225.89L599.553 1225.81L549.345 1046.75L589.044 1046.84ZM798.656 1226.26L799.194 1047.31L836.222 1047.4L836.017 1115.63L905.946 1115.78L906.151 1047.55L943.301 1047.64L942.763 1226.59L905.613 1226.5L905.853 1146.62L835.924 1146.46L835.684 1226.35L798.656 1226.26ZM1027.71 1159.16L1073.11 1159.26L1050.98 1088.79L1027.71 1159.16ZM1030.35 1047.83L1072.6 1047.93L1135.43 1227.02L1094.88 1226.93L1083.46 1190.12L1017.54 1189.97L1005.04 1226.73L965.951 1226.64L1030.35 1047.83ZM1158.79 1048.12L1196.19 1048.21L1195.74 1194.98L1284.37 1195.18L1284.27 1227.35L1158.25 1227.07L1158.79 1048.12ZM1443.03 1080.45L1348.33 1080.23L1348.22 1118.23L1435.14 1118.43L1435.05 1149.51L1348.12 1149.31L1347.98 1195.33L1447.05 1195.55L1446.95 1227.72L1311.35 1227.42L1311.88 1048.47L1443.12 1048.76L1443.03 1080.45ZM664.406 1379.95C664.434 1370.64 661.985 1364 657.06 1360.02C652.216 1356.05 645.383 1354.05 636.561 1354.03L601.718 1353.95L601.559 1406.64L636.402 1406.72C645.224 1406.74 652.07 1404.61 656.939 1400.33C661.889 1396.05 664.378 1389.26 664.406 1379.95ZM701.435 1379.79C701.371 1400.91 695.985 1415.83 685.275 1424.55C674.565 1433.27 659.295 1437.61 639.466 1437.56L601.466 1437.48L601.273 1501.82L564.123 1501.74L564.661 1322.79L642.603 1322.96C660.571 1323 674.882 1327.65 685.538 1336.9C696.194 1346.15 701.493 1360.45 701.435 1379.79ZM759.787 1434.55L805.192 1434.66L783.066 1364.19L759.787 1434.55ZM762.429 1323.23L804.677 1323.33L867.512 1502.42L826.963 1502.33L815.54 1465.52L749.618 1465.37L737.124 1502.12L698.032 1502.04L762.429 1323.23ZM917.575 1447.29C918.684 1455.47 920.891 1461.58 924.197 1465.64C930.245 1473.02 940.635 1476.72 955.365 1476.76C964.187 1476.78 971.353 1475.82 976.862 1473.89C987.314 1470.19 992.555 1463.28 992.586 1453.17C992.604 1447.26 990.027 1442.68 984.857 1439.43C979.687 1436.26 971.561 1433.45 960.48 1431L941.554 1426.71C922.951 1422.46 910.096 1417.85 902.989 1412.9C890.954 1404.62 884.963 1391.7 885.016 1374.13C885.064 1358.11 890.932 1344.81 902.618 1334.23C914.305 1323.65 931.439 1318.39 954.02 1318.44C972.878 1318.48 988.929 1323.54 1002.17 1333.6C1015.5 1343.59 1022.45 1358.09 1023.04 1377.11L987.109 1377.03C986.494 1366.27 981.822 1358.61 973.095 1354.06C967.276 1351.05 960.037 1349.53 951.377 1349.52C941.746 1349.49 934.051 1351.42 928.293 1355.29C922.535 1359.16 919.645 1364.58 919.624 1371.54C919.605 1377.93 922.423 1382.71 928.079 1385.88C931.715 1388 939.478 1390.48 951.367 1393.34L982.181 1400.82C995.688 1404.09 1005.87 1408.44 1012.74 1413.88C1023.39 1422.32 1028.7 1434.51 1028.65 1450.45C1028.6 1466.8 1022.29 1480.39 1009.71 1491.2C997.214 1501.94 979.554 1507.28 956.73 1507.23C933.421 1507.18 915.105 1501.84 901.782 1491.2C888.46 1480.49 881.826 1465.83 881.882 1447.21L917.575 1447.29ZM1083.41 1447.66C1084.52 1455.84 1086.73 1461.96 1090.04 1466.01C1096.08 1473.39 1106.47 1477.1 1121.2 1477.13C1130.02 1477.15 1137.19 1476.19 1142.7 1474.26C1153.15 1470.56 1158.39 1463.66 1158.42 1453.54C1158.44 1447.63 1155.87 1443.05 1150.7 1439.8C1145.52 1436.63 1137.4 1433.82 1126.32 1431.37L1107.39 1427.08C1088.79 1422.83 1075.93 1418.23 1068.83 1413.27C1056.79 1404.99 1050.8 1392.07 1050.85 1374.51C1050.9 1358.48 1056.77 1345.18 1068.46 1334.6C1080.14 1324.03 1097.28 1318.76 1119.86 1318.81C1138.72 1318.86 1154.77 1323.91 1168.01 1333.98C1181.33 1343.96 1188.29 1358.47 1188.88 1377.49L1152.95 1377.41C1152.33 1366.64 1147.66 1358.98 1138.93 1354.43C1133.11 1351.42 1125.88 1349.91 1117.21 1349.89C1107.58 1349.87 1099.89 1351.79 1094.13 1355.66C1088.37 1359.54 1085.48 1364.95 1085.46 1371.91C1085.44 1378.31 1088.26 1383.09 1093.92 1386.26C1097.55 1388.37 1105.32 1390.86 1117.2 1393.72L1148.02 1401.19C1161.53 1404.46 1171.71 1408.81 1178.57 1414.25C1189.23 1422.69 1194.54 1434.88 1194.49 1450.83C1194.44 1467.18 1188.13 1480.76 1175.55 1491.58C1163.05 1502.31 1145.39 1507.66 1122.57 1507.6C1099.26 1507.55 1080.94 1502.21 1067.62 1491.58C1054.3 1480.86 1047.66 1466.2 1047.72 1447.58L1083.41 1447.66Z" fill="white"/>
<path d="M569.932 1569.21L569.887 1584.2L581.509 1584.23C586.748 1584.24 590.307 1582.32 590.324 1576.48C590.341 1571 586.613 1569.25 581.795 1569.23L569.932 1569.21ZM569.872 1589.2L569.817 1607.45L563.976 1607.43L564.106 1564.2L583.556 1564.24C591.566 1564.26 596.368 1569.45 596.347 1576.43C596.328 1582.46 592.875 1589.25 583.481 1589.23L569.872 1589.2ZM610.159 1588.99L610.103 1607.54L604.262 1607.52L604.392 1564.29L624.385 1564.33C631.491 1564.35 638.589 1566.83 638.562 1575.99C638.542 1582.37 635.283 1584.71 632.508 1586.33C634.974 1587.36 637.44 1588.45 637.663 1594.47L638.001 1602.3C638.054 1604.71 638.352 1605.61 640.155 1606.64L640.153 1607.61L632.986 1607.59C632.151 1604.94 631.99 1598.37 631.995 1596.75C632.006 1593.19 631.296 1589.04 624.31 1589.02L610.159 1588.99ZM610.218 1569.3L610.174 1583.99L623.723 1584.02C627.999 1584.03 632.519 1582.96 632.538 1576.58C632.558 1569.89 627.682 1569.34 624.791 1569.33L610.218 1569.3ZM653.873 1564.4L653.743 1607.64L647.902 1607.62L648.032 1564.39L653.873 1564.4ZM679.375 1601.31L691.71 1564.48L698.274 1564.5L682.366 1607.7L676.164 1607.69L660.516 1564.41L667.02 1564.43L679.254 1601.31L679.375 1601.31ZM723.288 1595.21L705.945 1595.17L701.391 1607.74L695.369 1607.73L711.758 1564.53L718.382 1564.54L733.909 1607.82L727.526 1607.8L723.288 1595.21ZM707.767 1589.99L721.196 1590.02L714.87 1570.98L714.749 1570.98L707.767 1589.99ZM728.415 1569.74L728.431 1564.57L763.539 1564.64L763.523 1569.82L748.89 1569.79L748.776 1607.85L742.934 1607.84L743.049 1569.78L728.415 1569.74ZM801.382 1602.79L801.367 1607.97L769.451 1607.9L769.581 1564.66L801.075 1564.73L801.06 1569.91L775.406 1569.85L775.366 1583.1L799.033 1583.15L799.017 1588.33L775.351 1588.28L775.307 1602.73L801.382 1602.79ZM849.96 1595.49L832.617 1595.45L828.063 1608.03L822.041 1608.01L838.43 1564.81L845.054 1564.83L860.581 1608.1L854.198 1608.09L849.96 1595.49ZM834.439 1590.28L847.868 1590.31L841.542 1571.26L841.422 1571.26L834.439 1590.28ZM866.241 1608.11L866.372 1564.88L883.895 1564.92C895.156 1564.94 902.056 1573.51 902.018 1585.97C901.989 1595.67 897.736 1608.18 883.524 1608.15L866.241 1608.11ZM872.198 1569.89L872.098 1603.13L883.419 1603.15C891.007 1603.17 895.963 1597.22 895.995 1586.32C896.028 1575.42 891.046 1569.93 883.097 1569.91L872.198 1569.89ZM950.65 1608.3L944.989 1608.29L945.066 1582.76C945.07 1581.49 945.207 1576.01 945.219 1571.98L945.098 1571.98L932.825 1608.26L927.044 1608.25L914.988 1571.97L914.868 1571.97C914.856 1575.95 914.96 1581.43 914.956 1582.69L914.879 1608.22L909.219 1608.21L909.349 1564.97L917.719 1564.99L929.954 1601.57L930.075 1601.57L942.469 1565.05L950.78 1565.07L950.65 1608.3ZM966.437 1565.1L966.307 1608.34L960.466 1608.33L960.596 1565.09L966.437 1565.1ZM1007.97 1577.84L1002.49 1577.83C1002.21 1571.14 996.675 1569.02 991.797 1569.01C988.124 1569 981.918 1570.01 981.899 1576.58C981.887 1580.25 984.473 1581.46 987.001 1582.07L999.337 1584.93C1004.93 1586.26 1009.14 1589.65 1009.12 1596.51C1009.09 1606.75 999.564 1609.56 992.157 1609.54C984.148 1609.52 981.024 1607.11 979.102 1605.36C975.439 1602.04 974.727 1598.42 974.739 1594.39L980.219 1594.4C980.195 1602.23 986.572 1604.53 992.112 1604.54C996.327 1604.55 1003.44 1603.48 1003.46 1597.28C1003.47 1592.77 1001.37 1591.32 994.265 1589.61L985.419 1587.55C982.59 1586.88 976.213 1584.88 976.236 1577.35C976.256 1570.6 980.672 1563.99 991.15 1564.01C1006.26 1564.05 1007.74 1573.08 1007.97 1577.84ZM1048.14 1577.93L1042.66 1577.92C1042.37 1571.23 1036.84 1569.11 1031.96 1569.1C1028.29 1569.09 1022.08 1570.1 1022.06 1576.67C1022.05 1580.34 1024.64 1581.55 1027.17 1582.16L1039.5 1585.02C1045.1 1586.35 1049.3 1589.74 1049.28 1596.6C1049.25 1606.84 1039.73 1609.65 1032.32 1609.63C1024.31 1609.61 1021.19 1607.2 1019.27 1605.45C1015.6 1602.13 1014.89 1598.51 1014.9 1594.48L1020.38 1594.49C1020.36 1602.32 1026.74 1604.62 1032.28 1604.63C1036.49 1604.64 1043.6 1603.57 1043.62 1597.37C1043.63 1592.86 1041.53 1591.41 1034.43 1589.7L1025.58 1587.64C1022.76 1586.97 1016.38 1584.97 1016.4 1577.44C1016.42 1570.69 1020.84 1564.08 1031.32 1564.1C1046.43 1564.14 1047.91 1573.17 1048.14 1577.93ZM1063.53 1565.32L1063.4 1608.56L1057.56 1608.54L1057.69 1565.31L1063.53 1565.32ZM1107.38 1587.04C1107.41 1576.86 1101.78 1569.44 1092.38 1569.42C1082.99 1569.4 1077.3 1576.79 1077.27 1586.97C1077.24 1597.15 1082.88 1604.57 1092.28 1604.59C1101.67 1604.61 1107.35 1597.21 1107.38 1587.04ZM1113.41 1587.05C1113.38 1596.38 1108.4 1609.8 1092.26 1609.77C1076.12 1609.73 1071.22 1596.29 1071.25 1586.96C1071.28 1577.62 1076.26 1564.2 1092.4 1564.24C1108.54 1564.28 1113.43 1577.72 1113.41 1587.05ZM1148.97 1600.44L1149.08 1565.51L1154.74 1565.52L1154.61 1608.76L1148.05 1608.75L1126.17 1573.77L1126.05 1573.77L1125.95 1608.7L1120.28 1608.68L1120.41 1565.45L1127.34 1565.46L1148.85 1600.44L1148.97 1600.44Z" fill="white"/>
<path d="M658.619 1929.61C660.721 1929.62 662.538 1929.99 664.069 1930.74C665.6 1931.49 666.868 1932.5 667.871 1933.77C668.875 1935.05 669.615 1936.54 670.092 1938.25C670.569 1939.96 670.804 1941.8 670.798 1943.77C670.789 1946.79 670.211 1949.66 669.064 1952.37C667.961 1955.04 666.442 1957.38 664.509 1959.39C662.575 1961.36 660.293 1962.93 657.661 1964.11C655.029 1965.24 652.18 1965.8 649.114 1965.8C648.719 1965.8 648.019 1965.77 647.011 1965.73C646.047 1965.72 644.931 1965.63 643.661 1965.46C642.391 1965.28 641.034 1965.01 639.589 1964.66C638.189 1964.31 636.854 1963.82 635.585 1963.2L647.097 1915.46L657.286 1913.91L653.161 1930.85C654.039 1930.46 654.916 1930.15 655.792 1929.94C656.669 1929.72 657.611 1929.61 658.619 1929.61ZM649.992 1957.72C651.525 1957.72 652.972 1957.35 654.332 1956.61C655.692 1955.87 656.856 1954.89 657.824 1953.66C658.835 1952.39 659.628 1950.97 660.202 1949.39C660.776 1947.82 661.066 1946.18 661.071 1944.47C661.077 1942.37 660.732 1940.72 660.035 1939.54C659.337 1938.35 658.047 1937.76 656.163 1937.76C655.55 1937.75 654.739 1937.86 653.731 1938.08C652.767 1938.3 651.889 1938.75 651.098 1939.45L646.708 1957.45C646.97 1957.49 647.189 1957.54 647.364 1957.58C647.583 1957.62 647.802 1957.67 648.021 1957.71C648.24 1957.71 648.503 1957.71 648.809 1957.71C649.116 1957.71 649.51 1957.72 649.992 1957.72ZM683.101 1964.95L673.376 1964.93L681.693 1930.39L691.484 1930.41L683.101 1964.95ZM687.948 1926.2C686.59 1926.19 685.365 1925.8 684.272 1925.01C683.179 1924.17 682.636 1922.92 682.641 1921.26C682.643 1920.34 682.821 1919.48 683.174 1918.69C683.571 1917.86 684.077 1917.16 684.692 1916.6C685.307 1915.98 686.009 1915.5 686.799 1915.15C687.632 1914.81 688.509 1914.63 689.428 1914.63C690.786 1914.64 692.012 1915.06 693.104 1915.89C694.197 1916.68 694.741 1917.91 694.736 1919.58C694.733 1920.49 694.534 1921.37 694.137 1922.2C693.784 1922.99 693.3 1923.69 692.685 1924.3C692.07 1924.87 691.346 1925.33 690.512 1925.68C689.723 1926.03 688.868 1926.2 687.948 1926.2ZM701.511 1921.82L711.7 1920.27L709.173 1930.45L720.08 1930.47L718.085 1938.49L707.243 1938.46L704.315 1950.55C704.05 1951.55 703.872 1952.49 703.781 1953.37C703.735 1954.25 703.842 1955.01 704.103 1955.67C704.408 1956.28 704.91 1956.77 705.61 1957.12C706.31 1957.47 707.273 1957.65 708.499 1957.65C709.551 1957.65 710.559 1957.57 711.523 1957.4C712.531 1957.18 713.539 1956.9 714.548 1956.55L715.248 1964.04C713.933 1964.52 712.508 1964.93 710.974 1965.28C709.439 1965.63 707.621 1965.8 705.518 1965.79C702.496 1965.79 700.153 1965.34 698.491 1964.46C696.829 1963.54 695.65 1962.31 694.954 1960.77C694.258 1959.2 693.957 1957.4 694.05 1955.38C694.144 1953.37 694.457 1951.25 694.989 1949.01L701.511 1921.82ZM720.371 1951.24C720.379 1948.26 720.87 1945.46 721.841 1942.83C722.813 1940.21 724.2 1937.91 726.002 1935.94C727.804 1933.97 729.977 1932.42 732.521 1931.29C735.109 1930.16 737.98 1929.59 741.134 1929.6C743.105 1929.61 744.857 1929.81 746.389 1930.2C747.965 1930.56 749.387 1931.04 750.656 1931.66L747.281 1939.27C746.406 1938.92 745.487 1938.61 744.524 1938.35C743.605 1938.04 742.467 1937.88 741.109 1937.88C737.824 1937.87 735.236 1938.98 733.345 1941.21C731.455 1943.4 730.504 1946.4 730.493 1950.21C730.486 1952.44 730.962 1954.26 731.922 1955.67C732.882 1957.03 734.654 1957.71 737.238 1957.72C738.509 1957.72 739.736 1957.59 740.919 1957.33C742.103 1957.07 743.155 1956.74 744.076 1956.35L744.775 1964.17C743.547 1964.65 742.188 1965.06 740.698 1965.41C739.251 1965.8 737.476 1966 735.374 1965.99C732.658 1965.99 730.359 1965.59 728.478 1964.79C726.596 1964 725.044 1962.95 723.822 1961.63C722.599 1960.27 721.706 1958.69 721.142 1956.89C720.622 1955.09 720.365 1953.21 720.371 1951.24ZM763.896 1966.06C761.574 1966.05 759.56 1965.7 757.854 1964.99C756.148 1964.29 754.727 1963.3 753.592 1962.02C752.501 1960.75 751.673 1959.26 751.108 1957.55C750.544 1955.8 750.265 1953.87 750.272 1951.77C750.28 1949.14 750.704 1946.51 751.544 1943.88C752.428 1941.26 753.705 1938.89 755.376 1936.8C757.047 1934.7 759.089 1932.99 761.503 1931.68C763.916 1930.33 766.678 1929.66 769.788 1929.67C772.066 1929.67 774.058 1930.03 775.764 1930.73C777.514 1931.44 778.935 1932.42 780.026 1933.7C781.162 1934.97 782.011 1936.48 782.575 1938.24C783.14 1939.95 783.419 1941.85 783.412 1943.96C783.405 1946.58 782.98 1949.21 782.14 1951.84C781.3 1954.46 780.066 1956.83 778.439 1958.93C776.812 1961.02 774.77 1962.75 772.313 1964.1C769.899 1965.41 767.094 1966.06 763.896 1966.06ZM768.843 1937.94C767.398 1937.94 766.126 1938.35 765.028 1939.18C763.931 1940.01 763.008 1941.06 762.259 1942.33C761.511 1943.6 760.937 1945 760.538 1946.53C760.183 1948.02 760.004 1949.44 759.999 1950.8C759.993 1953.04 760.338 1954.77 761.035 1956C761.733 1957.18 763.001 1957.77 764.841 1957.78C766.287 1957.78 767.558 1957.37 768.656 1956.54C769.753 1955.71 770.677 1954.66 771.425 1953.39C772.174 1952.12 772.725 1950.74 773.08 1949.25C773.479 1947.72 773.681 1946.28 773.685 1944.92C773.691 1942.68 773.346 1940.98 772.649 1939.79C771.951 1938.56 770.683 1937.95 768.843 1937.94ZM795.716 1965.21L785.991 1965.19L794.309 1930.64L804.099 1930.66L795.716 1965.21ZM800.564 1926.45C799.206 1926.45 797.98 1926.05 796.888 1925.26C795.795 1924.42 795.251 1923.17 795.256 1921.51C795.259 1920.59 795.437 1919.74 795.79 1918.95C796.186 1918.12 796.692 1917.42 797.307 1916.85C797.922 1916.24 798.625 1915.76 799.414 1915.41C800.248 1915.06 801.124 1914.89 802.044 1914.89C803.402 1914.89 804.627 1915.31 805.72 1916.14C806.813 1916.94 807.357 1918.16 807.352 1919.83C807.349 1920.75 807.149 1921.62 806.752 1922.46C806.4 1923.24 805.916 1923.94 805.301 1924.55C804.686 1925.12 803.961 1925.58 803.128 1925.93C802.338 1926.28 801.484 1926.45 800.564 1926.45ZM812.65 1932.26C813.395 1932.04 814.207 1931.8 815.084 1931.54C816.004 1931.24 817.013 1930.98 818.108 1930.76C819.248 1930.5 820.497 1930.31 821.856 1930.18C823.258 1930.01 824.835 1929.92 826.587 1929.92C831.757 1929.94 835.3 1931.43 837.219 1934.42C839.137 1937.4 839.454 1941.47 838.168 1946.64L833.643 1965.29L823.853 1965.27L828.244 1947.01C828.511 1945.87 828.711 1944.78 828.846 1943.73C829.024 1942.63 829.027 1941.69 828.854 1940.9C828.682 1940.07 828.267 1939.41 827.612 1938.93C827 1938.4 826.037 1938.14 824.723 1938.13C823.453 1938.13 822.16 1938.26 820.845 1938.52L814.391 1965.25L804.6 1965.23L812.65 1932.26ZM853.255 1919.8L863.506 1919.82L852.395 1965.33L842.211 1965.31L853.255 1919.8ZM870.402 1932.39C871.147 1932.17 871.958 1931.93 872.835 1931.67C873.756 1931.37 874.764 1931.11 875.86 1930.89C877 1930.63 878.249 1930.44 879.607 1930.31C881.01 1930.13 882.587 1930.05 884.339 1930.05C889.508 1930.07 893.052 1931.56 894.97 1934.55C896.889 1937.53 897.205 1941.6 895.919 1946.77L891.395 1965.42L881.604 1965.4L885.996 1947.14C886.262 1946 886.463 1944.91 886.597 1943.86C886.776 1942.76 886.779 1941.82 886.606 1941.03C886.433 1940.2 886.019 1939.54 885.363 1939.06C884.752 1938.53 883.789 1938.27 882.475 1938.26C881.204 1938.26 879.912 1938.39 878.597 1938.65L872.142 1965.38L862.352 1965.36L870.402 1932.39ZM913.89 1966.39C911.699 1966.39 909.817 1966.01 908.242 1965.26C906.711 1964.51 905.444 1963.5 904.44 1962.23C903.48 1960.92 902.762 1959.4 902.285 1957.69C901.853 1955.94 901.639 1954.08 901.645 1952.11C901.654 1949.13 902.188 1946.32 903.247 1943.7C904.351 1941.03 905.847 1938.71 907.736 1936.74C909.626 1934.78 911.865 1933.23 914.453 1932.09C917.041 1930.96 919.868 1930.4 922.934 1930.4C923.723 1930.41 924.445 1930.45 925.102 1930.54C925.803 1930.63 926.503 1930.76 927.204 1930.94L930.797 1916.1L940.986 1914.54L932.204 1950.6C931.583 1953.09 931.401 1955.61 931.656 1958.15C931.911 1960.65 932.408 1962.89 933.147 1964.86L924.404 1966.09C924.143 1965.56 923.903 1965.06 923.686 1964.57C923.468 1964.09 923.251 1963.54 923.034 1962.93C921.804 1963.94 920.422 1964.76 918.887 1965.42C917.395 1966.07 915.73 1966.4 913.89 1966.39ZM925.275 1938.75C925.012 1938.71 924.771 1938.67 924.552 1938.62C924.377 1938.58 924.18 1938.56 923.961 1938.55C923.786 1938.51 923.545 1938.49 923.239 1938.49C922.932 1938.49 922.538 1938.49 922.056 1938.48C920.523 1938.48 919.098 1938.85 917.781 1939.59C916.465 1940.29 915.323 1941.25 914.356 1942.48C913.432 1943.7 912.705 1945.1 912.175 1946.68C911.645 1948.21 911.377 1949.78 911.372 1951.41C911.366 1953.51 911.711 1955.17 912.408 1956.4C913.15 1957.59 914.462 1958.18 916.346 1958.18C917.353 1958.19 918.274 1957.99 919.107 1957.6C919.941 1957.21 920.819 1956.55 921.741 1955.63C921.832 1954.54 921.967 1953.4 922.146 1952.22C922.369 1950.99 922.591 1949.88 922.813 1948.87L925.275 1938.75ZM948.116 1965.55L938.391 1965.53L946.709 1930.98L956.5 1931.01L948.116 1965.55ZM952.964 1926.79C951.606 1926.79 950.381 1926.39 949.288 1925.6C948.195 1924.77 947.651 1923.52 947.656 1921.85C947.659 1920.93 947.837 1920.08 948.19 1919.29C948.586 1918.46 949.092 1917.76 949.707 1917.19C950.322 1916.58 951.025 1916.1 951.814 1915.75C952.648 1915.4 953.524 1915.23 954.444 1915.23C955.802 1915.23 957.028 1915.65 958.12 1916.49C959.213 1917.28 959.757 1918.51 959.752 1920.17C959.749 1921.09 959.549 1921.97 959.153 1922.8C958.8 1923.59 958.316 1924.29 957.701 1924.9C957.086 1925.47 956.361 1925.92 955.528 1926.27C954.739 1926.62 953.884 1926.79 952.964 1926.79ZM989.439 1950.73C988.819 1953.22 988.636 1955.74 988.891 1958.28C989.146 1960.78 989.643 1963.01 990.382 1964.99L981.639 1966.22C981.378 1965.69 981.139 1965.19 980.921 1964.7C980.703 1964.22 980.486 1963.67 980.269 1963.06C979.039 1964.06 977.679 1964.89 976.187 1965.55C974.696 1966.2 973.03 1966.53 971.191 1966.52C969 1966.52 967.118 1966.14 965.543 1965.39C964.012 1964.6 962.745 1963.57 961.741 1962.29C960.781 1960.98 960.085 1959.47 959.652 1957.76C959.219 1956 959.006 1954.14 959.012 1952.17C959.021 1949.15 959.555 1946.3 960.615 1943.63C961.718 1940.96 963.214 1938.64 965.104 1936.68C967.037 1934.67 969.298 1933.09 971.886 1931.96C974.474 1930.83 977.279 1930.26 980.302 1930.27C980.696 1930.27 981.375 1930.29 982.339 1930.34C983.346 1930.39 984.485 1930.5 985.754 1930.68C987.024 1930.81 988.36 1931.06 989.76 1931.41C991.161 1931.76 992.496 1932.25 993.764 1932.86L989.439 1950.73ZM982.642 1938.62C982.073 1938.53 981.547 1938.47 981.066 1938.42C980.628 1938.38 980.08 1938.35 979.423 1938.35C977.934 1938.35 976.531 1938.72 975.215 1939.46C973.942 1940.2 972.822 1941.18 971.854 1942.41C970.887 1943.59 970.116 1944.97 969.542 1946.54C969.012 1948.12 968.744 1949.76 968.739 1951.47C968.733 1953.57 969.078 1955.24 969.775 1956.46C970.472 1957.69 971.763 1958.31 973.647 1958.31C974.654 1958.32 975.553 1958.12 976.342 1957.73C977.176 1957.34 978.054 1956.68 978.977 1955.76C979.068 1954.67 979.202 1953.53 979.381 1952.35C979.604 1951.12 979.826 1950 980.048 1949L982.642 1938.62Z" fill="white"/>
<path d="M545.882 1930.44C552.071 1910.38 573.356 1899.13 593.415 1905.32C613.479 1911.51 624.725 1932.8 618.533 1952.87C612.342 1972.93 591.056 1984.18 570.991 1977.98C550.935 1971.79 539.689 1950.51 545.882 1930.44ZM579.926 1923.57C579.031 1923.32 578.152 1923.06 577.3 1922.8L577.306 1922.78L571.639 1921.03L570.285 1925.42C570.285 1925.42 573.332 1926.3 573.271 1926.34C574.934 1926.85 575.179 1927.99 575.078 1928.87L572.705 1936.56C572.82 1936.6 572.968 1936.65 573.131 1936.72L572.697 1936.59L569.37 1947.36C569.135 1947.86 568.57 1948.6 567.407 1948.25C567.441 1948.31 564.42 1947.32 564.42 1947.32L562.089 1951.98L567.438 1953.63C568.432 1953.94 569.406 1954.26 570.364 1954.56L568.259 1961.39L572.363 1962.66L574.449 1955.9C575.568 1956.27 576.656 1956.62 577.721 1956.95L575.644 1963.67L579.753 1964.94L581.857 1958.12C588.888 1959.86 594.261 1959.61 596.861 1953.31C598.958 1948.23 597.22 1945.14 593.59 1942.99C596.347 1942.51 598.497 1940.83 599.248 1937.17C600.281 1932.15 596.583 1929.23 591.423 1927.12L593.506 1920.37L589.396 1919.11L587.367 1925.68C586.288 1925.35 585.178 1925.03 584.074 1924.71L586.116 1918.09L582.01 1916.83L579.926 1923.57ZM578.869 1941.91C581.654 1942.77 590.632 1944.67 588.993 1949.99C587.42 1955.09 578.864 1951.82 576.077 1950.96L578.869 1941.91ZM582.678 1929.57C584.999 1930.28 592.514 1931.8 591.02 1936.64C589.586 1941.28 582.468 1938.49 580.146 1937.77L582.678 1929.57Z" fill="white"/>
<ellipse cx="676.682" cy="594.735" rx="67.6097" ry="65.7873" fill="black"/>
<path d="M591.222 567.42C605.398 521.461 654.149 495.699 700.094 509.88C746.049 524.062 771.806 572.823 757.625 618.78C743.444 664.734 694.691 690.49 648.732 676.308C602.796 662.128 577.038 613.372 591.222 567.42ZM669.197 551.687C667.147 551.1 665.134 550.52 663.183 549.919L663.195 549.871L650.217 545.86L647.117 555.913C647.117 555.913 654.108 557.926 653.953 558.018C657.764 559.196 658.325 561.791 658.094 563.812L652.659 581.427C652.922 581.51 653.262 581.626 653.634 581.799L652.642 581.495L645.021 606.169C644.484 607.318 643.188 609.013 640.523 608.196C640.604 608.337 633.683 606.083 633.683 606.083L628.344 616.748L640.595 620.527C642.873 621.233 645.103 621.964 647.298 622.658L642.476 638.299L651.876 641.203L656.653 625.73C659.215 626.58 661.708 627.371 664.147 628.122L659.39 643.522L668.802 646.425L673.622 630.816C689.724 634.791 702.031 634.222 707.986 619.791C712.789 608.169 708.811 601.093 700.495 596.162C706.809 595.062 711.735 591.22 713.454 582.817C715.82 571.339 707.35 564.632 695.53 559.819L700.302 544.356L690.888 541.453L686.242 556.507C683.771 555.744 681.226 555.013 678.698 554.288L683.377 539.133L673.971 536.23L669.197 551.687ZM666.778 593.693C673.158 595.663 693.719 600.001 689.965 612.19C686.361 623.878 666.765 616.377 660.382 614.412L666.778 593.693ZM675.502 565.417C680.818 567.056 698.03 570.517 694.606 581.607C691.322 592.238 675.018 585.848 669.702 584.209L675.502 565.417Z" fill="white"/>
<path d="M812.194 543.796C815.131 543.802 817.668 544.328 819.806 545.373C821.944 546.418 823.714 547.829 825.115 549.606C826.517 551.383 827.551 553.465 828.216 555.853C828.882 558.24 829.211 560.81 829.203 563.563C829.19 567.784 828.383 571.789 826.781 575.579C825.24 579.307 823.12 582.575 820.42 585.383C817.72 588.13 814.532 590.325 810.856 591.969C807.181 593.551 803.202 594.337 798.92 594.328C798.369 594.326 797.391 594.294 795.984 594.229C794.638 594.226 793.078 594.1 791.305 593.852C789.532 593.603 787.636 593.232 785.619 592.738C783.663 592.244 781.799 591.567 780.028 590.706L796.103 524.03L810.333 521.86L804.573 545.522C805.798 544.974 807.023 544.549 808.247 544.246C809.471 543.943 810.787 543.793 812.194 543.796ZM800.147 583.043C802.288 583.048 804.308 582.533 806.208 581.497C808.107 580.461 809.733 579.089 811.084 577.379C812.496 575.608 813.603 573.622 814.405 571.422C815.207 569.221 815.612 566.928 815.619 564.542C815.628 561.606 815.145 559.31 814.171 557.657C813.197 556.003 811.395 555.173 808.765 555.167C807.908 555.165 806.776 555.315 805.368 555.618C804.021 555.921 802.796 556.56 801.692 557.537L795.56 582.666C795.927 582.728 796.232 582.79 796.477 582.852C796.783 582.914 797.088 582.975 797.394 583.037C797.7 583.038 798.067 583.039 798.495 583.04C798.923 583.041 799.474 583.042 800.147 583.043ZM846.383 593.15L832.802 593.119L844.418 544.878L858.09 544.908L846.383 593.15ZM853.153 539.024C851.256 539.02 849.545 538.466 848.019 537.361C846.493 536.195 845.734 534.45 845.741 532.126C845.745 530.841 845.993 529.648 846.486 528.548C847.04 527.387 847.746 526.41 848.605 525.617C849.464 524.762 850.445 524.092 851.548 523.605C852.711 523.118 853.936 522.876 855.22 522.879C857.117 522.883 858.828 523.468 860.354 524.634C861.88 525.738 862.639 527.453 862.632 529.778C862.629 531.062 862.35 532.285 861.795 533.446C861.303 534.546 860.627 535.524 859.768 536.378C858.909 537.172 857.898 537.812 856.734 538.298C855.631 538.785 854.438 539.027 853.153 539.024ZM872.093 532.919L886.323 530.749L882.793 544.964L898.026 544.998L895.239 556.187L880.099 556.153L876.01 573.028C875.639 574.434 875.39 575.749 875.264 576.972C875.199 578.196 875.349 579.267 875.713 580.185C876.139 581.043 876.841 581.717 877.818 582.209C878.795 582.7 880.14 582.948 881.853 582.952C883.321 582.955 884.729 582.836 886.075 582.594C887.483 582.292 888.892 581.897 890.3 581.411L891.278 591.874C889.441 592.543 887.451 593.12 885.308 593.604C883.166 594.089 880.626 594.328 877.69 594.321C873.469 594.312 870.198 593.693 867.877 592.464C865.556 591.174 863.909 589.457 862.937 587.314C861.965 585.109 861.544 582.6 861.675 579.787C861.806 576.973 862.243 574.007 862.986 570.888L872.093 532.919ZM898.431 573.996C898.444 569.836 899.128 565.923 900.485 562.255C901.842 558.588 903.779 555.38 906.295 552.633C908.812 549.886 911.847 547.721 915.4 546.138C919.014 544.556 923.023 543.77 927.428 543.78C930.181 543.786 932.627 544.067 934.766 544.622C936.967 545.116 938.953 545.794 940.725 546.654L936.013 557.288C934.791 556.796 933.507 556.365 932.163 555.995C930.879 555.564 929.289 555.346 927.393 555.342C922.805 555.331 919.191 556.883 916.551 559.997C913.911 563.05 912.583 567.238 912.567 572.56C912.558 575.68 913.223 578.22 914.563 580.181C915.903 582.08 918.378 583.034 921.987 583.042C923.761 583.046 925.475 582.866 927.128 582.503C928.781 582.14 930.25 581.684 931.536 581.137L932.513 592.059C930.798 592.728 928.9 593.305 926.818 593.789C924.798 594.335 922.32 594.605 919.383 594.598C915.59 594.59 912.38 594.032 909.753 592.925C907.126 591.818 904.959 590.345 903.251 588.506C901.544 586.605 900.296 584.4 899.509 581.89C898.782 579.381 898.423 576.749 898.431 573.996ZM959.215 594.688C955.973 594.681 953.161 594.185 950.778 593.201C948.395 592.217 946.411 590.836 944.826 589.058C943.301 587.281 942.145 585.198 941.357 582.81C940.569 580.362 940.18 577.669 940.189 574.733C940.2 571.062 940.792 567.393 941.965 563.725C943.2 560.057 944.984 556.758 947.317 553.827C949.651 550.895 952.503 548.516 955.873 546.688C959.243 544.799 963.1 543.86 967.443 543.87C970.625 543.877 973.407 544.372 975.789 545.357C978.234 546.341 980.218 547.722 981.742 549.499C983.327 551.277 984.513 553.39 985.301 555.839C986.089 558.227 986.479 560.889 986.47 563.825C986.459 567.496 985.867 571.165 984.694 574.833C983.52 578.501 981.797 581.8 979.525 584.731C977.253 587.663 974.401 590.073 970.969 591.961C967.599 593.789 963.681 594.698 959.215 594.688ZM966.124 555.429C964.105 555.424 962.329 556.001 960.797 557.16C959.264 558.319 957.975 559.785 956.929 561.556C955.884 563.328 955.083 565.284 954.526 567.424C954.03 569.503 953.779 571.49 953.774 573.387C953.764 576.507 954.246 578.924 955.22 580.639C956.194 582.293 957.966 583.123 960.535 583.129C962.554 583.133 964.33 582.556 965.862 581.397C967.395 580.238 968.684 578.773 969.73 577.001C970.775 575.23 971.545 573.304 972.041 571.225C972.598 569.085 972.88 567.067 972.885 565.171C972.895 562.051 972.412 559.664 971.439 558.01C970.465 556.295 968.693 555.435 966.124 555.429ZM1003.65 593.503L990.072 593.473L1001.69 545.231L1015.36 545.262L1003.65 593.503ZM1010.42 539.378C1008.53 539.374 1006.81 538.819 1005.29 537.715C1003.76 536.549 1003 534.804 1003.01 532.479C1003.01 531.194 1003.26 530.002 1003.76 528.902C1004.31 527.741 1005.02 526.764 1005.87 525.97C1006.73 525.116 1007.71 524.445 1008.82 523.958C1009.98 523.471 1011.21 523.229 1012.49 523.232C1014.39 523.237 1016.1 523.822 1017.62 524.987C1019.15 526.092 1019.91 527.807 1019.9 530.131C1019.9 531.416 1019.62 532.639 1019.06 533.8C1018.57 534.9 1017.9 535.877 1017.04 536.732C1016.18 537.525 1015.17 538.165 1014 538.652C1012.9 539.139 1011.71 539.381 1010.42 539.378ZM1027.3 547.491C1028.34 547.188 1029.47 546.854 1030.7 546.489C1031.99 546.064 1033.39 545.7 1034.92 545.398C1036.52 545.034 1038.26 544.763 1040.16 544.584C1042.12 544.343 1044.32 544.226 1046.76 544.231C1053.98 544.248 1058.93 546.339 1061.61 550.505C1064.29 554.671 1064.73 560.361 1062.94 567.576L1056.62 593.622L1042.95 593.592L1049.08 568.095C1049.45 566.505 1049.73 564.977 1049.92 563.509C1050.17 561.98 1050.17 560.665 1049.93 559.563C1049.69 558.4 1049.11 557.481 1048.2 556.806C1047.34 556.07 1046 555.7 1044.16 555.696C1042.39 555.692 1040.58 555.871 1038.75 556.234L1029.73 593.562L1016.06 593.531L1027.3 547.491ZM1084.01 530.092L1098.32 530.124L1082.81 593.681L1068.58 593.649L1084.01 530.092ZM1107.95 547.673C1108.99 547.369 1110.13 547.035 1111.35 546.671C1112.64 546.245 1114.04 545.882 1115.57 545.579C1117.17 545.216 1118.91 544.944 1120.81 544.765C1122.77 544.525 1124.97 544.407 1127.42 544.413C1134.63 544.429 1139.58 546.52 1142.26 550.686C1144.94 554.852 1145.38 560.542 1143.59 567.757L1137.27 593.804L1123.6 593.773L1129.73 568.276C1130.1 566.687 1130.38 565.158 1130.57 563.69C1130.82 562.161 1130.82 560.846 1130.58 559.744C1130.34 558.582 1129.76 557.663 1128.85 556.988C1127.99 556.252 1126.65 555.881 1124.81 555.877C1123.04 555.873 1121.23 556.053 1119.4 556.416L1110.38 593.743L1096.71 593.712L1107.95 547.673ZM1168.68 595.159C1165.62 595.152 1163 594.626 1160.8 593.581C1158.66 592.536 1156.89 591.125 1155.49 589.348C1154.15 587.51 1153.14 585.397 1152.48 583.01C1151.87 580.561 1151.58 577.961 1151.58 575.208C1151.6 571.048 1152.34 567.134 1153.82 563.467C1155.36 559.739 1157.45 556.501 1160.09 553.754C1162.73 551.007 1165.86 548.843 1169.47 547.26C1173.08 545.678 1177.03 544.891 1181.31 544.901C1182.42 544.904 1183.42 544.967 1184.34 545.091C1185.32 545.216 1186.3 545.402 1187.28 545.649L1192.29 524.921L1206.52 522.751L1194.26 573.101C1193.39 576.587 1193.14 580.104 1193.49 583.653C1193.85 587.14 1194.55 590.262 1195.58 593.017L1183.37 594.733C1183 593.998 1182.67 593.294 1182.36 592.62C1182.06 591.947 1181.76 591.181 1181.45 590.324C1179.74 591.727 1177.81 592.885 1175.66 593.798C1173.58 594.711 1171.25 595.165 1168.68 595.159ZM1184.58 556.562C1184.22 556.5 1183.88 556.438 1183.57 556.377C1183.33 556.315 1183.05 556.284 1182.75 556.283C1182.5 556.221 1182.17 556.19 1181.74 556.189C1181.31 556.188 1180.76 556.187 1180.09 556.185C1177.95 556.18 1175.96 556.696 1174.12 557.732C1172.28 558.706 1170.69 560.049 1169.33 561.759C1168.04 563.469 1167.03 565.424 1166.29 567.625C1165.55 569.764 1165.17 571.966 1165.17 574.229C1165.16 577.165 1165.64 579.491 1166.62 581.206C1167.65 582.86 1169.48 583.69 1172.11 583.696C1173.52 583.699 1174.81 583.427 1175.97 582.879C1177.13 582.331 1178.36 581.416 1179.65 580.134C1179.78 578.605 1179.96 577.015 1180.21 575.364C1180.52 573.652 1180.84 572.092 1181.15 570.686L1184.58 556.562ZM1216.48 593.982L1202.9 593.951L1214.52 545.71L1228.19 545.741L1216.48 593.982ZM1223.25 539.857C1221.35 539.852 1219.64 539.298 1218.12 538.193C1216.59 537.028 1215.83 535.282 1215.84 532.958C1215.84 531.673 1216.09 530.481 1216.58 529.381C1217.14 528.219 1217.84 527.242 1218.7 526.449C1219.56 525.594 1220.54 524.924 1221.65 524.437C1222.81 523.95 1224.03 523.708 1225.32 523.711C1227.22 523.715 1228.93 524.3 1230.45 525.466C1231.98 526.571 1232.74 528.285 1232.73 530.61C1232.73 531.894 1232.45 533.117 1231.89 534.278C1231.4 535.378 1230.73 536.356 1229.87 537.21C1229.01 538.004 1228 538.644 1226.83 539.131C1225.73 539.617 1224.54 539.859 1223.25 539.857ZM1274.19 573.281C1273.32 576.766 1273.07 580.283 1273.42 583.832C1273.78 587.32 1274.47 590.442 1275.51 593.197L1263.3 594.913C1262.93 594.178 1262.6 593.474 1262.29 592.8C1261.99 592.126 1261.69 591.361 1261.38 590.504C1259.67 591.907 1257.77 593.065 1255.68 593.978C1253.6 594.891 1251.27 595.345 1248.71 595.339C1245.65 595.332 1243.02 594.806 1240.82 593.761C1238.68 592.655 1236.91 591.214 1235.51 589.436C1234.17 587.598 1233.2 585.485 1232.59 583.098C1231.99 580.65 1231.69 578.049 1231.7 575.296C1231.71 571.075 1232.46 567.1 1233.94 563.372C1235.48 559.644 1237.57 556.406 1240.2 553.659C1242.9 550.851 1246.06 548.656 1249.68 547.074C1253.29 545.491 1257.21 544.705 1261.43 544.714C1261.98 544.715 1262.93 544.748 1264.27 544.812C1265.68 544.877 1267.27 545.033 1269.04 545.282C1270.82 545.469 1272.68 545.81 1274.64 546.304C1276.59 546.798 1278.46 547.475 1280.23 548.335L1274.19 573.281ZM1264.7 556.375C1263.9 556.251 1263.17 556.158 1262.5 556.095C1261.88 556.033 1261.12 556 1260.2 555.998C1258.12 555.994 1256.16 556.509 1254.32 557.545C1252.55 558.581 1250.98 559.954 1249.63 561.664C1248.28 563.313 1247.21 565.237 1246.4 567.438C1245.66 569.638 1245.29 571.932 1245.28 574.317C1245.27 577.254 1245.75 579.58 1246.73 581.295C1247.7 583.01 1249.5 583.87 1252.13 583.876C1253.54 583.879 1254.8 583.607 1255.9 583.059C1257.06 582.511 1258.29 581.596 1259.58 580.314C1259.71 578.785 1259.89 577.195 1260.14 575.544C1260.45 573.831 1260.77 572.272 1261.08 570.866L1264.7 556.375Z" fill="white"/>
<path d="M788.678 649.578C791.563 649.585 793.765 650.155 795.285 651.289C796.828 652.424 797.596 654.041 797.59 656.141C797.585 657.803 797.257 659.221 796.608 660.397C795.981 661.549 795.101 662.494 793.968 663.23C792.858 663.966 791.518 664.505 789.948 664.848C788.4 665.167 786.692 665.325 784.823 665.321L782.953 665.317L780.885 673.793L776.524 673.783L782.237 650.152C783.346 649.924 784.454 649.776 785.562 649.71C786.67 649.62 787.709 649.576 788.678 649.578ZM788.252 653.247C787.813 653.246 787.398 653.256 787.005 653.279C786.613 653.301 786.22 653.335 785.828 653.38L783.83 661.649L785.595 661.653C786.565 661.655 787.5 661.576 788.4 661.417C789.301 661.257 790.098 660.994 790.791 660.626C791.485 660.235 792.04 659.717 792.457 659.072C792.875 658.404 793.085 657.562 793.088 656.546C793.092 655.369 792.656 654.526 791.78 654.016C790.928 653.507 789.752 653.25 788.252 653.247ZM810.751 659.459C810.29 659.297 809.794 659.169 809.263 659.075C808.733 658.982 808.11 658.934 807.394 658.933C807.002 658.932 806.587 658.965 806.148 659.034C805.709 659.079 805.34 659.147 805.039 659.239L801.499 673.84L797.31 673.83L801.517 656.565C802.487 656.244 803.538 655.97 804.669 655.742C805.801 655.49 807.024 655.366 808.34 655.369C808.617 655.37 808.928 655.393 809.274 655.44C809.62 655.464 809.955 655.5 810.278 655.546C810.624 655.593 810.935 655.652 811.212 655.722C811.512 655.792 811.765 655.873 811.973 655.966L810.751 659.459ZM811.988 667.32C811.992 665.774 812.239 664.286 812.728 662.856C813.24 661.404 813.959 660.124 814.886 659.019C815.836 657.89 816.969 656.992 818.287 656.326C819.604 655.66 821.082 655.328 822.721 655.332C824.475 655.336 825.835 655.789 826.801 656.691C827.768 657.594 828.249 658.749 828.245 660.156C828.241 661.61 827.879 662.787 827.161 663.685C826.443 664.583 825.506 665.285 824.351 665.79C823.219 666.296 821.925 666.639 820.471 666.82C819.039 667.002 817.585 667.114 816.108 667.157C816.085 667.203 816.073 667.249 816.073 667.295L816.072 667.641C816.065 669.741 817.389 670.794 820.043 670.8C821.613 670.804 823.183 670.484 824.754 669.842L825.09 673.235C824.535 673.487 823.75 673.74 822.734 673.991C821.718 674.243 820.563 674.367 819.271 674.364C817.979 674.361 816.871 674.174 815.949 673.803C815.027 673.431 814.267 672.922 813.669 672.275C813.094 671.627 812.669 670.888 812.395 670.056C812.121 669.202 811.985 668.29 811.988 667.32ZM822.087 658.758C821.395 658.756 820.737 658.893 820.113 659.169C819.489 659.444 818.934 659.824 818.448 660.307C817.962 660.791 817.533 661.367 817.162 662.035C816.814 662.681 816.558 663.384 816.394 664.145C819.163 664.059 821.172 663.729 822.42 663.155C823.691 662.581 824.329 661.717 824.332 660.563C824.333 660.101 824.162 659.686 823.816 659.316C823.494 658.946 822.918 658.76 822.087 658.758ZM834.493 670.971C835.601 670.974 836.479 670.803 837.126 670.458C837.773 670.09 838.098 669.537 838.1 668.798C838.102 668.198 837.896 667.725 837.481 667.378C837.067 667.008 836.341 666.579 835.304 666.092C834.751 665.837 834.233 665.57 833.749 665.292C833.288 665.014 832.885 664.69 832.54 664.32C832.195 663.95 831.92 663.523 831.713 663.038C831.507 662.529 831.405 661.929 831.407 661.237C831.413 659.437 832.075 658.007 833.393 656.949C834.712 655.89 836.617 655.363 839.11 655.369C840.264 655.372 841.29 655.501 842.19 655.757C843.112 655.99 843.804 656.233 844.265 656.488L842.766 659.739C842.375 659.507 841.81 659.287 841.072 659.078C840.334 658.845 839.561 658.728 838.754 658.726C838.361 658.725 837.969 658.759 837.576 658.827C837.207 658.896 836.872 659.01 836.571 659.171C836.271 659.332 836.016 659.562 835.808 659.862C835.622 660.138 835.529 660.484 835.528 660.9C835.526 661.431 835.732 661.87 836.147 662.217C836.584 662.541 837.206 662.888 838.013 663.259C838.774 663.607 839.419 663.943 839.949 664.268C840.478 664.592 840.916 664.962 841.261 665.378C841.606 665.771 841.858 666.222 842.018 666.73C842.178 667.215 842.257 667.804 842.255 668.496C842.253 669.35 842.077 670.146 841.729 670.884C841.381 671.598 840.871 672.22 840.2 672.75C839.552 673.256 838.743 673.658 837.773 673.956C836.803 674.254 835.695 674.401 834.449 674.398C833.595 674.396 832.822 674.337 832.13 674.22C831.461 674.103 830.873 673.975 830.365 673.835C829.858 673.673 829.432 673.51 829.086 673.348C828.74 673.185 828.475 673.046 828.291 672.93L829.789 669.645C829.951 669.738 830.181 669.865 830.481 670.028C830.803 670.167 831.161 670.306 831.553 670.445C831.968 670.585 832.417 670.713 832.901 670.829C833.409 670.923 833.94 670.97 834.493 670.971ZM845.287 667.395C845.292 665.849 845.538 664.361 846.027 662.931C846.539 661.478 847.259 660.199 848.185 659.093C849.135 657.965 850.268 657.067 851.586 656.401C852.903 655.735 854.381 655.403 856.02 655.407C857.774 655.411 859.134 655.864 860.101 656.766C861.067 657.669 861.548 658.824 861.544 660.231C861.54 661.685 861.179 662.861 860.46 663.76C859.742 664.658 858.805 665.36 857.65 665.865C856.518 666.37 855.224 666.714 853.77 666.895C852.338 667.076 850.884 667.189 849.407 667.231C849.384 667.278 849.372 667.324 849.372 667.37L849.371 667.716C849.364 669.816 850.688 670.869 853.342 670.875C854.912 670.879 856.482 670.559 858.053 669.916L858.389 673.31C857.835 673.562 857.049 673.814 856.033 674.066C855.017 674.318 853.862 674.442 852.57 674.439C851.278 674.436 850.17 674.249 849.248 673.878C848.326 673.506 847.566 672.997 846.968 672.349C846.393 671.702 845.969 670.962 845.694 670.131C845.42 669.276 845.284 668.365 845.287 667.395ZM855.386 658.833C854.694 658.831 854.036 658.968 853.412 659.244C852.788 659.519 852.233 659.899 851.747 660.382C851.261 660.866 850.832 661.442 850.461 662.11C850.113 662.756 849.857 663.459 849.693 664.22C852.463 664.134 854.471 663.804 855.719 663.23C856.99 662.656 857.628 661.792 857.631 660.638C857.633 660.176 857.461 659.761 857.116 659.391C856.794 659.021 856.217 658.835 855.386 658.833ZM866.763 656.643C867.687 656.368 868.738 656.116 869.915 655.888C871.116 655.637 872.42 655.513 873.828 655.516C875.951 655.521 877.508 656.044 878.497 657.085C879.486 658.125 879.978 659.523 879.973 661.277C879.971 661.761 879.924 662.28 879.83 662.834C879.759 663.365 879.665 663.918 879.548 664.495L877.234 674.01L873.046 674L875.219 664.935C875.336 664.428 875.453 663.909 875.57 663.378C875.687 662.848 875.758 662.34 875.782 661.856C875.808 661.048 875.614 660.378 875.2 659.847C874.809 659.315 874.025 659.048 872.848 659.045C871.856 659.043 871.002 659.145 870.286 659.351L866.745 673.986L862.557 673.977L866.763 656.643ZM887.151 651.15L891.515 650.467L890.183 655.934L896.103 655.947L895.261 659.407L889.342 659.394L887.589 666.556C887.472 667.063 887.39 667.49 887.343 667.836C887.296 668.159 887.272 668.459 887.271 668.736C887.27 669.013 887.293 669.29 887.338 669.567C887.407 669.821 887.521 670.052 887.682 670.26C887.866 670.445 888.12 670.607 888.442 670.746C888.788 670.863 889.249 670.921 889.826 670.923C890.45 670.924 891.05 670.845 891.627 670.684C892.205 670.524 892.713 670.352 893.152 670.168L893.453 673.527C892.922 673.757 892.252 673.974 891.444 674.18C890.635 674.386 889.689 674.488 888.604 674.485C886.619 674.481 885.201 674.051 884.35 673.195C883.499 672.316 883.075 671.127 883.08 669.627C883.082 669.073 883.118 668.507 883.189 667.93C883.283 667.331 883.412 666.696 883.575 666.027L887.151 651.15ZM896.808 667.511C896.812 665.965 897.059 664.477 897.548 663.047C898.06 661.594 898.779 660.315 899.706 659.209C900.655 658.081 901.789 657.183 903.106 656.517C904.424 655.85 905.902 655.519 907.541 655.523C909.295 655.527 910.655 655.98 911.621 656.882C912.588 657.784 913.069 658.939 913.065 660.347C913.061 661.801 912.699 662.977 911.981 663.876C911.263 664.774 910.326 665.476 909.171 665.981C908.038 666.486 906.745 666.83 905.29 667.011C903.859 667.192 902.405 667.304 900.928 667.347C900.904 667.393 900.893 667.44 900.893 667.486L900.892 667.832C900.885 669.932 902.209 670.985 904.863 670.991C906.432 670.995 908.003 670.675 909.574 670.032L909.91 673.426C909.355 673.678 908.57 673.93 907.554 674.182C906.537 674.433 905.383 674.558 904.091 674.555C902.798 674.552 901.691 674.365 900.769 673.994C899.847 673.622 899.087 673.113 898.489 672.465C897.914 671.818 897.489 671.078 897.215 670.247C896.94 669.392 896.805 668.48 896.808 667.511ZM906.907 658.949C906.215 658.947 905.557 659.084 904.933 659.36C904.309 659.635 903.754 660.015 903.268 660.498C902.782 660.982 902.353 661.558 901.982 662.226C901.633 662.872 901.377 663.575 901.214 664.336C903.983 664.25 905.992 663.92 907.24 663.346C908.511 662.772 909.148 661.908 909.152 660.754C909.153 660.292 908.981 659.876 908.636 659.506C908.314 659.136 907.738 658.95 906.907 658.949ZM920.999 674.593C919.915 674.59 918.98 674.415 918.197 674.067C917.413 673.696 916.769 673.199 916.263 672.574C915.78 671.95 915.424 671.211 915.196 670.356C914.968 669.502 914.855 668.579 914.858 667.586C914.863 666.04 915.133 664.552 915.668 663.122C916.226 661.67 917.003 660.402 917.999 659.32C919.018 658.214 920.255 657.34 921.711 656.697C923.167 656.031 924.818 655.7 926.664 655.704C926.895 655.705 927.172 655.717 927.495 655.741C927.818 655.765 928.175 655.823 928.568 655.916L930.495 647.959L934.859 647.276L930.058 666.893C929.941 667.424 929.847 667.966 929.776 668.52C929.728 669.051 929.704 669.558 929.702 670.043C929.7 670.666 929.756 671.289 929.87 671.913C929.983 672.536 930.166 673.183 930.418 673.852L926.677 674.398C926.425 673.913 926.207 673.324 926.025 672.631C925.446 673.137 924.741 673.597 923.909 674.011C923.077 674.401 922.107 674.595 920.999 674.593ZM927.727 659.307C927.288 659.214 926.758 659.166 926.135 659.165C925.073 659.163 924.103 659.391 923.225 659.851C922.346 660.287 921.594 660.886 920.969 661.646C920.344 662.383 919.856 663.236 919.507 664.204C919.181 665.173 919.017 666.176 919.014 667.215C919.012 667.746 919.057 668.242 919.148 668.704C919.262 669.166 919.434 669.57 919.663 669.916C919.893 670.263 920.192 670.541 920.561 670.749C920.953 670.958 921.425 671.063 921.979 671.064C922.718 671.066 923.364 670.917 923.919 670.618C924.497 670.32 925.041 669.905 925.55 669.376C925.574 668.891 925.622 668.384 925.693 667.853C925.787 667.322 925.892 666.803 926.009 666.296L927.727 659.307ZM953.998 655.662C955.059 655.664 955.97 655.851 956.731 656.222C957.514 656.57 958.159 657.056 958.665 657.68C959.171 658.305 959.549 659.044 959.801 659.898C960.052 660.73 960.176 661.63 960.173 662.599C960.169 664.192 959.887 665.714 959.329 667.167C958.77 668.62 957.97 669.899 956.929 671.004C955.91 672.11 954.661 672.995 953.182 673.661C951.703 674.304 950.04 674.624 948.194 674.619C947.917 674.619 947.548 674.606 947.086 674.582C946.625 674.558 946.117 674.499 945.564 674.406C945.01 674.312 944.445 674.184 943.869 674.021C943.292 673.858 942.762 673.649 942.278 673.394L948.413 647.999L952.776 647.316L950.533 656.589C951.041 656.336 951.584 656.118 952.162 655.935C952.74 655.751 953.351 655.66 953.998 655.662ZM948.758 671.09C949.82 671.092 950.79 670.875 951.668 670.438C952.57 669.979 953.333 669.369 953.959 668.609C954.607 667.849 955.106 666.984 955.455 666.016C955.804 665.024 955.98 663.998 955.984 662.936C955.985 662.405 955.94 661.921 955.849 661.482C955.758 661.02 955.598 660.627 955.368 660.304C955.139 659.957 954.828 659.691 954.436 659.505C954.044 659.297 953.548 659.192 952.948 659.191C952.441 659.189 951.887 659.281 951.286 659.464C950.685 659.647 950.131 659.934 949.622 660.325L947.063 670.913C947.27 670.959 947.501 671.006 947.755 671.053C948.032 671.077 948.366 671.089 948.758 671.09ZM979.251 656.134C978.785 657.449 978.273 658.821 977.715 660.25C977.157 661.657 976.53 663.075 975.833 664.504C975.159 665.933 974.428 667.363 973.639 668.792C972.85 670.198 972.004 671.569 971.1 672.905C970.427 673.919 969.732 674.887 969.014 675.809C968.296 676.753 967.508 677.582 966.652 678.296C965.819 679.009 964.895 679.584 963.878 680.02C962.861 680.457 961.706 680.673 960.414 680.67C959.699 680.669 959.064 680.587 958.511 680.424C957.934 680.261 957.45 680.075 957.059 679.867L958.419 676.512C958.741 676.697 959.098 676.848 959.49 676.964C959.906 677.081 960.355 677.139 960.84 677.14C961.925 677.143 962.872 676.856 963.681 676.281C964.514 675.729 965.266 674.969 965.938 674.002C965.208 671.438 964.593 668.656 964.094 665.655C963.595 662.653 963.27 659.468 963.119 656.098L967.342 656.107C967.362 657.077 967.405 658.15 967.471 659.327C967.56 660.504 967.66 661.716 967.772 662.963C967.906 664.186 968.064 665.398 968.245 666.599C968.426 667.799 968.631 668.907 968.858 669.923C969.554 668.817 970.204 667.653 970.808 666.431C971.411 665.209 971.969 663.999 972.48 662.8C972.992 661.578 973.434 660.402 973.806 659.272C974.202 658.119 974.54 657.07 974.82 656.124L979.251 656.134Z" fill="white"/>
<path d="M1004.8 678.3C1002.93 678.296 1001.02 678.213 999.059 678.053C997.098 677.893 995.324 677.64 993.737 677.294L1001.3 646.02C1003.08 645.681 1004.93 645.452 1006.86 645.332C1008.83 645.212 1010.62 645.153 1012.23 645.157C1014.1 645.161 1015.71 645.367 1017.04 645.775C1018.41 646.152 1019.52 646.668 1020.35 647.324C1021.22 647.98 1021.86 648.759 1022.26 649.663C1022.7 650.536 1022.91 651.47 1022.91 652.467C1022.91 653.152 1022.83 653.868 1022.67 654.615C1022.54 655.362 1022.26 656.108 1021.82 656.854C1021.41 657.57 1020.84 658.253 1020.09 658.906C1019.37 659.558 1018.42 660.147 1017.23 660.674C1018.63 661.3 1019.66 662.158 1020.31 663.249C1020.96 664.31 1021.28 665.493 1021.28 666.801C1021.27 668.296 1020.97 669.743 1020.38 671.142C1019.78 672.511 1018.83 673.739 1017.52 674.826C1016.21 675.881 1014.51 676.734 1012.42 677.383C1010.33 678.001 1007.79 678.307 1004.8 678.3ZM1004.19 663.727L1002.16 672.129C1002.66 672.224 1003.28 672.303 1004.03 672.367C1004.8 672.4 1005.52 672.417 1006.17 672.418C1007.11 672.42 1008.03 672.36 1008.93 672.238C1009.87 672.084 1010.69 671.821 1011.41 671.449C1012.16 671.077 1012.77 670.565 1013.23 669.912C1013.7 669.259 1013.94 668.419 1013.94 667.392C1013.94 666.956 1013.85 666.52 1013.67 666.083C1013.51 665.647 1013.25 665.257 1012.88 664.914C1012.5 664.571 1012.01 664.289 1011.38 664.07C1010.79 663.851 1010.08 663.74 1009.24 663.738L1004.19 663.727ZM1005.56 658.266L1010.14 658.276C1012.01 658.28 1013.39 657.879 1014.3 657.071C1015.24 656.264 1015.71 655.3 1015.71 654.179C1015.71 653.587 1015.57 653.089 1015.29 652.683C1015.05 652.247 1014.71 651.904 1014.27 651.653C1013.83 651.403 1013.34 651.231 1012.78 651.136C1012.22 651.011 1011.64 650.947 1011.05 650.946C1010.4 650.944 1009.7 650.974 1008.95 651.034C1008.2 651.064 1007.64 651.109 1007.27 651.171L1005.56 658.266ZM1031.15 677.939L1024.24 677.923L1030.15 653.37L1037.11 653.386L1031.15 677.939ZM1034.6 650.391C1033.63 650.389 1032.76 650.107 1031.99 649.545C1031.21 648.952 1030.82 648.063 1030.83 646.88C1030.83 646.226 1030.96 645.62 1031.21 645.06C1031.49 644.469 1031.85 643.971 1032.28 643.568C1032.72 643.133 1033.22 642.791 1033.78 642.543C1034.37 642.296 1035 642.173 1035.65 642.174C1036.62 642.176 1037.49 642.474 1038.26 643.067C1039.04 643.629 1039.43 644.502 1039.42 645.685C1039.42 646.339 1039.28 646.961 1039 647.552C1038.75 648.112 1038.4 648.61 1037.97 649.045C1037.53 649.448 1037.01 649.774 1036.42 650.022C1035.86 650.27 1035.25 650.393 1034.6 650.391ZM1044.24 647.284L1051.48 646.179L1049.68 653.414L1057.44 653.432L1056.02 659.126L1048.31 659.109L1046.23 667.698C1046.04 668.414 1045.92 669.083 1045.85 669.705C1045.82 670.328 1045.9 670.873 1046.08 671.34C1046.3 671.777 1046.66 672.12 1047.15 672.37C1047.65 672.62 1048.33 672.747 1049.21 672.749C1049.95 672.75 1050.67 672.69 1051.36 672.567C1052.07 672.412 1052.79 672.212 1053.51 671.964L1054 677.29C1053.07 677.63 1052.06 677.923 1050.96 678.17C1049.87 678.417 1048.58 678.538 1047.09 678.535C1044.94 678.53 1043.27 678.215 1042.09 677.59C1040.91 676.933 1040.07 676.059 1039.58 674.969C1039.08 673.847 1038.87 672.57 1038.94 671.138C1039 669.705 1039.23 668.196 1039.6 666.609L1044.24 647.284ZM1057.64 668.191C1057.65 666.073 1058 664.081 1058.69 662.215C1059.38 660.348 1060.37 658.716 1061.65 657.318C1062.93 655.919 1064.47 654.818 1066.28 654.012C1068.12 653.207 1070.16 652.807 1072.4 652.812C1073.8 652.815 1075.05 652.958 1076.14 653.24C1077.26 653.492 1078.27 653.837 1079.17 654.275L1076.77 659.687C1076.15 659.436 1075.5 659.217 1074.81 659.029C1074.16 658.809 1073.35 658.698 1072.38 658.696C1070.05 658.691 1068.21 659.481 1066.87 661.066C1065.52 662.619 1064.85 664.751 1064.84 667.459C1064.83 669.047 1065.17 670.34 1065.85 671.338C1066.54 672.305 1067.8 672.79 1069.63 672.794C1070.54 672.796 1071.41 672.705 1072.25 672.52C1073.09 672.335 1073.84 672.103 1074.49 671.825L1074.99 677.383C1074.12 677.724 1073.15 678.018 1072.09 678.264C1071.06 678.542 1069.8 678.679 1068.31 678.676C1066.38 678.672 1064.74 678.388 1063.41 677.824C1062.07 677.261 1060.97 676.511 1060.1 675.575C1059.23 674.608 1058.59 673.486 1058.19 672.208C1057.82 670.931 1057.64 669.592 1057.64 668.191ZM1088.58 678.722C1086.93 678.718 1085.5 678.466 1084.29 677.965C1083.07 677.464 1082.06 676.761 1081.26 675.856C1080.48 674.952 1079.89 673.892 1079.49 672.677C1079.09 671.43 1078.89 670.06 1078.9 668.565C1078.9 666.697 1079.2 664.83 1079.8 662.963C1080.43 661.096 1081.34 659.417 1082.52 657.925C1083.71 656.433 1085.16 655.222 1086.88 654.292C1088.59 653.331 1090.56 652.852 1092.77 652.857C1094.39 652.861 1095.8 653.113 1097.02 653.614C1098.26 654.115 1099.27 654.818 1100.05 655.723C1100.85 656.627 1101.46 657.703 1101.86 658.949C1102.26 660.164 1102.46 661.519 1102.45 663.014C1102.45 664.882 1102.14 666.749 1101.55 668.616C1100.95 670.483 1100.07 672.162 1098.92 673.654C1097.76 675.146 1096.31 676.373 1094.56 677.334C1092.85 678.264 1090.85 678.727 1088.58 678.722ZM1092.1 658.741C1091.07 658.738 1090.17 659.032 1089.38 659.622C1088.6 660.212 1087.95 660.957 1087.42 661.859C1086.88 662.761 1086.48 663.756 1086.19 664.845C1085.94 665.903 1085.81 666.915 1085.81 667.88C1085.81 669.468 1086.05 670.699 1086.55 671.571C1087.04 672.413 1087.94 672.836 1089.25 672.839C1090.28 672.841 1091.18 672.547 1091.96 671.957C1092.74 671.367 1093.4 670.622 1093.93 669.72C1094.46 668.818 1094.86 667.838 1095.11 666.78C1095.39 665.691 1095.53 664.664 1095.54 663.699C1095.54 662.111 1095.3 660.896 1094.8 660.054C1094.31 659.181 1093.4 658.743 1092.1 658.741ZM1111.2 678.119L1104.28 678.103L1110.2 653.55L1117.16 653.566L1111.2 678.119ZM1114.64 650.571C1113.68 650.569 1112.81 650.287 1112.03 649.725C1111.25 649.132 1110.87 648.243 1110.87 647.06C1110.87 646.406 1111 645.799 1111.25 645.24C1111.53 644.649 1111.89 644.151 1112.33 643.748C1112.76 643.313 1113.26 642.971 1113.83 642.723C1114.42 642.476 1115.04 642.353 1115.69 642.354C1116.66 642.356 1117.53 642.654 1118.31 643.247C1119.08 643.809 1119.47 644.682 1119.47 645.865C1119.46 646.519 1119.32 647.141 1119.04 647.732C1118.79 648.292 1118.45 648.79 1118.01 649.225C1117.57 649.628 1117.06 649.954 1116.46 650.202C1115.9 650.45 1115.3 650.573 1114.64 650.571ZM1123.23 654.701C1123.76 654.546 1124.34 654.376 1124.96 654.191C1125.62 653.974 1126.33 653.789 1127.11 653.635C1127.92 653.45 1128.81 653.312 1129.78 653.221C1130.77 653.099 1131.89 653.039 1133.14 653.042C1136.81 653.05 1139.33 654.114 1140.7 656.234C1142.06 658.355 1142.28 661.251 1141.37 664.923L1138.15 678.179L1131.2 678.164L1134.32 665.187C1134.51 664.378 1134.65 663.6 1134.74 662.853C1134.87 662.075 1134.87 661.405 1134.75 660.845C1134.63 660.253 1134.33 659.785 1133.87 659.442C1133.43 659.067 1132.75 658.879 1131.81 658.877C1130.91 658.875 1129.99 658.966 1129.06 659.151L1124.47 678.149L1117.51 678.133L1123.23 654.701ZM1171.98 649.346C1172.04 650.623 1172.11 652.071 1172.2 653.69C1172.32 655.309 1172.44 656.991 1172.56 658.735C1172.71 660.447 1172.86 662.16 1173.01 663.873C1173.16 665.586 1173.31 667.174 1173.46 668.638C1174.28 667.052 1175.11 665.341 1175.95 663.506C1176.8 661.671 1177.64 659.774 1178.49 657.814C1179.34 655.854 1180.17 653.863 1180.98 651.841C1181.83 649.82 1182.63 647.844 1183.38 645.916L1191.09 645.933C1188.64 651.843 1186.15 657.473 1183.61 662.823C1181.08 668.141 1178.35 673.288 1175.44 678.263L1168.62 678.248C1168.38 676.535 1168.15 674.9 1167.94 673.342C1167.75 671.754 1167.57 670.197 1167.39 668.671C1167.24 667.145 1167.09 665.603 1166.94 664.046C1166.82 662.489 1166.7 660.87 1166.58 659.188C1164.79 662.485 1163.02 665.719 1161.27 668.891C1159.55 672.031 1157.7 675.141 1155.73 678.219L1148.91 678.203C1148.67 675.307 1148.5 672.442 1148.38 669.609C1148.29 666.775 1148.26 663.895 1148.26 660.968C1148.27 658.447 1148.33 655.94 1148.43 653.45C1148.53 650.928 1148.66 648.391 1148.82 645.838L1156.16 645.854C1155.99 648.594 1155.83 651.287 1155.67 653.933C1155.53 656.548 1155.46 659.272 1155.45 662.106C1155.45 663.164 1155.45 664.238 1155.44 665.328C1155.44 666.418 1155.47 667.508 1155.53 668.597C1156.4 667.074 1157.33 665.457 1158.3 663.747C1159.27 662.036 1160.22 660.326 1161.16 658.616C1162.1 656.905 1162.99 655.257 1163.84 653.671C1164.68 652.054 1165.41 650.608 1166 649.333L1171.98 649.346ZM1209.85 667.739C1209.41 669.513 1209.28 671.303 1209.46 673.109C1209.64 674.884 1209.99 676.473 1210.52 677.875L1204.3 678.748C1204.12 678.374 1203.95 678.016 1203.79 677.673C1203.64 677.33 1203.48 676.941 1203.33 676.504C1202.46 677.219 1201.49 677.808 1200.43 678.273C1199.37 678.737 1198.18 678.968 1196.88 678.965C1195.32 678.962 1193.98 678.694 1192.86 678.162C1191.77 677.599 1190.87 676.866 1190.16 675.961C1189.48 675.025 1188.98 673.95 1188.68 672.735C1188.37 671.489 1188.22 670.165 1188.22 668.764C1188.23 666.616 1188.61 664.593 1189.36 662.695C1190.14 660.798 1191.21 659.15 1192.55 657.752C1193.92 656.323 1195.53 655.206 1197.37 654.4C1199.21 653.595 1201.2 653.195 1203.35 653.199C1203.63 653.2 1204.12 653.217 1204.8 653.249C1205.52 653.282 1206.33 653.362 1207.23 653.488C1208.13 653.584 1209.08 653.757 1210.08 654.009C1211.07 654.26 1212.02 654.604 1212.92 655.042L1209.85 667.739ZM1205.02 659.135C1204.61 659.071 1204.24 659.024 1203.9 658.992C1203.58 658.96 1203.19 658.944 1202.73 658.943C1201.67 658.94 1200.67 659.203 1199.74 659.73C1198.83 660.257 1198.04 660.956 1197.35 661.826C1196.66 662.665 1196.11 663.645 1195.7 664.765C1195.33 665.885 1195.14 667.052 1195.13 668.266C1195.13 669.761 1195.37 670.944 1195.87 671.817C1196.37 672.69 1197.28 673.128 1198.62 673.131C1199.34 673.133 1199.98 672.994 1200.54 672.715C1201.13 672.436 1201.75 671.971 1202.41 671.318C1202.48 670.54 1202.57 669.731 1202.7 668.89C1202.86 668.019 1203.01 667.225 1203.17 666.51L1205.02 659.135ZM1224.43 678.84C1222.22 678.835 1220.47 678.551 1219.2 677.988C1217.95 677.394 1217.05 676.598 1216.5 675.6C1215.97 674.602 1215.71 673.465 1215.71 672.189C1215.75 670.881 1215.94 669.496 1216.29 668.034L1222.29 643.248L1229.53 642.143L1222.96 669.029C1222.84 669.589 1222.76 670.103 1222.72 670.57C1222.72 671.037 1222.81 671.458 1223 671.832C1223.19 672.174 1223.5 672.455 1223.93 672.674C1224.4 672.893 1225.04 673.035 1225.85 673.099L1224.43 678.84ZM1251.44 667.832C1251 669.606 1250.87 671.396 1251.05 673.202C1251.23 674.977 1251.59 676.566 1252.11 677.968L1245.9 678.842C1245.71 678.468 1245.54 678.109 1245.39 677.767C1245.23 677.424 1245.08 677.034 1244.92 676.598C1244.05 677.312 1243.08 677.901 1242.02 678.366C1240.96 678.831 1239.78 679.062 1238.47 679.059C1236.91 679.055 1235.58 678.788 1234.46 678.256C1233.37 677.693 1232.47 676.959 1231.76 676.055C1231.07 675.119 1230.58 674.044 1230.27 672.829C1229.96 671.583 1229.81 670.259 1229.82 668.858C1229.82 666.71 1230.2 664.687 1230.95 662.789C1231.74 660.892 1232.8 659.244 1234.15 657.846C1235.52 656.416 1237.13 655.299 1238.97 654.494C1240.81 653.688 1242.8 653.288 1244.95 653.293C1245.23 653.294 1245.71 653.31 1246.4 653.343C1247.11 653.376 1247.92 653.455 1248.82 653.582C1249.73 653.677 1250.67 653.851 1251.67 654.102C1252.67 654.353 1253.61 654.698 1254.52 655.136L1251.44 667.832ZM1246.61 659.228C1246.21 659.165 1245.83 659.117 1245.49 659.085C1245.18 659.054 1244.79 659.037 1244.32 659.036C1243.26 659.034 1242.27 659.296 1241.33 659.823C1240.43 660.351 1239.63 661.049 1238.94 661.92C1238.26 662.759 1237.71 663.738 1237.3 664.858C1236.92 665.978 1236.73 667.145 1236.73 668.36C1236.72 669.854 1236.97 671.038 1237.47 671.911C1237.96 672.784 1238.88 673.222 1240.22 673.225C1240.93 673.226 1241.57 673.088 1242.13 672.809C1242.73 672.53 1243.35 672.064 1244.01 671.412C1244.07 670.634 1244.17 669.824 1244.29 668.984C1244.45 668.112 1244.61 667.319 1244.77 666.603L1246.61 659.228Z" fill="white"/>
<path d="M1259.07 621.751L1256.97 630.354C1258.37 630.682 1259.78 631.013 1261.15 631.362L1263.23 622.814L1268.44 624.146L1266.31 632.926C1272.89 635.249 1277.7 638.733 1276.75 645.214C1276.07 649.958 1273.5 652.255 1270.1 653.06C1274.78 655.556 1277.15 659.384 1274.89 666.019C1272.07 674.261 1265.39 674.957 1256.5 673.232L1252.19 672.233L1253.29 665.621C1257.85 666.602 1263.7 667.06 1264.85 662.336C1266.15 656.968 1259.63 654.689 1254.99 653.514L1255.01 653.419C1254.11 652.981 1253.16 652.636 1252.17 652.385C1251.17 652.133 1250.22 651.961 1249.32 651.865C1248.42 651.739 1247.61 651.659 1246.89 651.626C1246.21 651.593 1245.72 651.577 1245.44 651.576C1244.34 651.574 1243.27 651.678 1242.25 651.891L1243.61 646.307L1246.04 636.306C1246.11 635.171 1245.72 633.739 1243.61 633.198C1243.69 633.142 1239.86 632.242 1239.83 632.233L1241.21 626.524L1248.4 628.365L1248.39 628.393C1249.48 628.668 1250.59 628.93 1251.72 629.195L1253.86 620.419L1259.07 621.751ZM1244.82 657.319C1245.29 657.32 1245.68 657.336 1245.99 657.368C1246.33 657.4 1246.7 657.448 1247.11 657.511L1246.57 659.668H1240.36L1240.5 659.071C1240.91 658.703 1241.36 658.381 1241.83 658.106C1242.76 657.579 1243.76 657.317 1244.82 657.319ZM1252.98 647.335C1255.92 648.087 1264.99 651.154 1266.46 645.118C1267.99 638.821 1258.51 637.418 1255.57 636.666L1252.98 647.335Z" fill="white"/>
</g>
<defs>
<filter id="filter0_f_159_2406" x="717.958" y="949.647" width="2392.44" height="2392.44" filterUnits="userSpaceOnUse" color-interpolation-filters="sRGB">
<feFlood flood-opacity="0" result="BackgroundImageFix"/>
<feBlend mode="normal" in="SourceGraphic" in2="BackgroundImageFix" result="shape"/>
<feGaussianBlur stdDeviation="9.89321" result="effect1_foregroundBlur_159_2406"/>
</filter>
<filter id="filter1_f_159_2406" x="609.132" y="840.821" width="2610.09" height="2610.09" filterUnits="userSpaceOnUse" color-interpolation-filters="sRGB">
<feFlood flood-opacity="0" result="BackgroundImageFix"/>
<feBlend mode="normal" in="SourceGraphic" in2="BackgroundImageFix" result="shape"/>
<feGaussianBlur stdDeviation="64.3058" result="effect1_foregroundBlur_159_2406"/>
</filter>
<filter id="filter2_f_159_2406" x="963.256" y="1194.95" width="1901.84" height="1901.84" filterUnits="userSpaceOnUse" color-interpolation-filters="sRGB">
<feFlood flood-opacity="0" result="BackgroundImageFix"/>
<feBlend mode="normal" in="SourceGraphic" in2="BackgroundImageFix" result="shape"/>
<feGaussianBlur stdDeviation="17.9583" result="effect1_foregroundBlur_159_2406"/>
</filter>
<filter id="filter3_f_159_2406" x="1250.75" y="1482.44" width="1326.85" height="1326.85" filterUnits="userSpaceOnUse" color-interpolation-filters="sRGB">
<feFlood flood-opacity="0" result="BackgroundImageFix"/>
<feBlend mode="normal" in="SourceGraphic" in2="BackgroundImageFix" result="shape"/>
<feGaussianBlur stdDeviation="10.646" result="effect1_foregroundBlur_159_2406"/>
</filter>
<linearGradient id="paint0_linear_159_2406" x1="427.363" y1="371.539" x2="1574.2" y2="2240.7" gradientUnits="userSpaceOnUse">
<stop stop-color="#2276C5"/>
<stop offset="1" stop-color="#004E97"/>
</linearGradient>
<clipPath id="clip0_159_2406">
<rect x="406.537" y="352.183" width="1522.69" height="1849.6" rx="53.7674" fill="white"/>
</clipPath>
</defs>
</svg>
