<svg width="2297" height="2681" viewBox="0 0 2297 2681" fill="none" xmlns="http://www.w3.org/2000/svg">
<g clip-path="url(#clip0_183_95)">
<rect x="406.482" y="352.183" width="1522.69" height="1849.6" rx="53.7674" fill="black"/>
<g filter="url(#filter0_f_183_95)">
<g filter="url(#filter1_f_183_95)">
<circle cx="1914.12" cy="2145.86" r="1176.43" fill="#FF9500" fill-opacity="0.5"/>
</g>
<g filter="url(#filter2_f_183_95)">
<circle cx="1914.12" cy="2145.86" r="915.002" fill="#FF9500" fill-opacity="0.5"/>
</g>
<g filter="url(#filter3_f_183_95)">
<circle cx="1914.12" cy="2145.86" r="642.135" fill="#FF9500" fill-opacity="0.8"/>
</g>
<circle cx="1914.12" cy="2145.86" r="408.483" fill="#FF9500"/>
<circle cx="1914.12" cy="2145.86" r="187.109" fill="black"/>
</g>
<mask id="path-7-outside-1_183_95" maskUnits="userSpaceOnUse" x="403.537" y="353.539" width="1528" height="1847" fill="black">
<rect fill="white" x="403.537" y="353.539" width="1528" height="1847"/>
<path d="M1871.11 371.539C1894.86 371.539 1914.12 390.797 1914.12 414.553V2139.41C1914.12 2163.17 1894.86 2182.43 1871.11 2182.43H464.55C440.795 2182.43 421.537 2163.17 421.537 2139.41V414.553C421.537 390.797 440.795 371.539 464.55 371.539H1871.11Z"/>
</mask>
<path d="M1871.11 371.539L1871.11 354.333H1871.11V371.539ZM1914.12 414.553H1931.33V414.553L1914.12 414.553ZM1914.12 2139.41H1931.33H1914.12ZM1871.11 2182.43V2199.63H1871.11L1871.11 2182.43ZM464.55 2182.43L464.55 2199.63H464.55V2182.43ZM421.537 2139.41H404.331H421.537ZM421.537 414.553L404.331 414.553V414.553H421.537ZM464.55 371.539V354.333H464.55L464.55 371.539ZM1871.11 371.539L1871.11 388.745C1885.36 388.745 1896.91 400.3 1896.92 414.553L1914.12 414.553L1931.33 414.553C1931.33 381.295 1904.36 354.334 1871.11 354.333L1871.11 371.539ZM1914.12 414.553H1896.92V2139.41H1914.12H1931.33V414.553H1914.12ZM1914.12 2139.41H1896.92C1896.92 2153.67 1885.36 2165.22 1871.11 2165.22L1871.11 2182.43L1871.11 2199.63C1904.36 2199.63 1931.33 2172.67 1931.33 2139.41H1914.12ZM1871.11 2182.43V2165.22H464.55V2182.43V2199.63H1871.11V2182.43ZM464.55 2182.43L464.55 2165.22C450.297 2165.22 438.742 2153.67 438.742 2139.41H421.537H404.331C404.331 2172.67 431.292 2199.63 464.55 2199.63L464.55 2182.43ZM421.537 2139.41H438.742V414.553H421.537H404.331V2139.41H421.537ZM421.537 414.553L438.742 414.553C438.742 400.299 450.297 388.745 464.55 388.745L464.55 371.539L464.55 354.333C431.292 354.334 404.331 381.295 404.331 414.553L421.537 414.553ZM464.55 371.539V388.745H1871.11V371.539V354.333H464.55V371.539Z" fill="url(#paint0_linear_183_95)" mask="url(#path-7-outside-1_183_95)"/>
<path d="M684.728 1102.9C681.932 1090.67 675.038 1082.12 664.045 1077.24C657.902 1074.55 651.067 1073.2 643.54 1073.19C629.133 1073.15 617.26 1078.59 607.919 1089.5C598.66 1100.32 593.998 1116.66 593.932 1138.51C593.866 1160.53 598.837 1176.12 608.845 1185.29C618.854 1194.45 630.252 1199.05 643.04 1199.08C655.585 1199.11 665.875 1195.53 673.909 1188.35C681.944 1181.08 686.909 1171.58 688.806 1159.85L647.407 1159.76L647.497 1129.89L722.039 1130.06L721.751 1226.09L696.984 1226.03L693.288 1203.69C686.059 1212.17 679.566 1218.14 673.809 1221.61C663.917 1227.66 651.767 1230.67 637.361 1230.63C613.646 1230.58 594.246 1222.32 579.161 1205.86C563.428 1189.31 555.604 1166.71 555.691 1138.06C555.778 1109.09 563.82 1085.88 579.817 1068.43C595.814 1050.98 616.924 1042.29 643.147 1042.35C665.89 1042.4 684.124 1048.23 697.848 1059.83C711.654 1071.36 719.542 1085.74 721.514 1102.98L684.728 1102.9ZM806.694 1158.66L852.099 1158.76L829.972 1088.3L806.694 1158.66ZM809.335 1047.34L851.584 1047.43L914.419 1226.52L873.87 1226.43L862.447 1189.62L796.525 1189.47L784.031 1226.23L744.939 1226.14L809.335 1047.34ZM664.349 1379.95C664.377 1370.64 661.929 1364 657.003 1360.02C652.159 1356.05 645.326 1354.05 636.504 1354.03L601.661 1353.95L601.503 1406.64L636.346 1406.72C645.168 1406.74 652.013 1404.61 656.882 1400.33C661.832 1396.05 664.321 1389.26 664.349 1379.95ZM701.378 1379.79C701.315 1400.91 695.928 1415.83 685.218 1424.55C674.508 1433.27 659.239 1437.61 639.409 1437.56L601.41 1437.48L601.216 1501.82L564.067 1501.74L564.605 1322.79L642.546 1322.96C660.514 1323 674.826 1327.65 685.482 1336.9C696.137 1346.15 701.436 1360.45 701.378 1379.79ZM759.731 1434.55L805.136 1434.66L783.009 1364.19L759.731 1434.55ZM762.372 1323.23L804.621 1323.33L867.455 1502.42L826.906 1502.33L815.484 1465.52L749.561 1465.37L737.067 1502.12L697.975 1502.04L762.372 1323.23ZM917.519 1447.29C918.627 1455.47 920.834 1461.58 924.141 1465.64C930.189 1473.02 940.578 1476.72 955.308 1476.76C964.13 1476.78 971.296 1475.82 976.806 1473.89C987.258 1470.19 992.499 1463.28 992.529 1453.17C992.547 1447.26 989.971 1442.68 984.801 1439.43C979.63 1436.26 971.504 1433.45 960.424 1431L941.497 1426.71C922.895 1422.46 910.04 1417.85 902.932 1412.9C890.897 1404.62 884.906 1391.7 884.959 1374.13C885.007 1358.11 890.875 1344.81 902.562 1334.23C914.248 1323.65 931.382 1318.39 953.963 1318.44C972.821 1318.48 988.872 1323.54 1002.12 1333.6C1015.44 1343.59 1022.4 1358.09 1022.99 1377.11L987.052 1377.03C986.437 1366.27 981.766 1358.61 973.038 1354.06C967.22 1351.05 959.98 1349.53 951.32 1349.52C941.689 1349.49 933.994 1351.42 928.236 1355.29C922.478 1359.16 919.588 1364.58 919.567 1371.54C919.548 1377.93 922.367 1382.71 928.023 1385.88C931.658 1388 939.421 1390.48 951.31 1393.34L982.124 1400.82C995.631 1404.08 1005.82 1408.44 1012.68 1413.88C1023.34 1422.32 1028.64 1434.51 1028.59 1450.45C1028.55 1466.8 1022.23 1480.39 1009.65 1491.2C997.158 1501.94 979.498 1507.28 956.674 1507.23C933.364 1507.18 915.048 1501.84 901.725 1491.2C888.403 1480.49 881.77 1465.83 881.826 1447.21L917.519 1447.29ZM1083.36 1447.66C1084.47 1455.84 1086.67 1461.96 1089.98 1466.01C1096.03 1473.39 1106.42 1477.1 1121.15 1477.13C1129.97 1477.15 1137.13 1476.19 1142.64 1474.26C1153.1 1470.56 1158.34 1463.66 1158.37 1453.54C1158.38 1447.63 1155.81 1443.05 1150.64 1439.8C1145.47 1436.63 1137.34 1433.82 1126.26 1431.37L1107.34 1427.08C1088.73 1422.83 1075.88 1418.23 1068.77 1413.27C1056.74 1404.99 1050.74 1392.07 1050.8 1374.51C1050.85 1358.48 1056.71 1345.18 1068.4 1334.6C1080.09 1324.03 1097.22 1318.76 1119.8 1318.81C1138.66 1318.86 1154.71 1323.91 1167.95 1333.98C1181.28 1343.96 1188.24 1358.47 1188.83 1377.49L1152.89 1377.41C1152.27 1366.64 1147.6 1358.98 1138.88 1354.43C1133.06 1351.42 1125.82 1349.91 1117.16 1349.89C1107.53 1349.87 1099.83 1351.79 1094.07 1355.66C1088.32 1359.54 1085.43 1364.95 1085.41 1371.91C1085.39 1378.31 1088.2 1383.09 1093.86 1386.26C1097.5 1388.37 1105.26 1390.86 1117.15 1393.71L1147.96 1401.19C1161.47 1404.46 1171.65 1408.81 1178.52 1414.25C1189.18 1422.69 1194.48 1434.88 1194.43 1450.83C1194.38 1467.18 1188.07 1480.76 1175.49 1491.58C1163 1502.31 1145.34 1507.66 1122.51 1507.6C1099.2 1507.55 1080.89 1502.21 1067.56 1491.58C1054.24 1480.86 1047.61 1466.2 1047.66 1447.58L1083.36 1447.66Z" fill="white"/>
<path d="M582.22 1589.35L582.235 1584.35L601.204 1584.39L601.134 1607.52L597.341 1607.51L595.972 1601.91C593.009 1605.99 587.582 1608.63 581.68 1608.62C574.273 1608.6 570.668 1605.88 568.447 1603.71C561.841 1597.43 561.683 1590.03 561.697 1585.45C561.728 1574.91 568.147 1563.06 582.239 1563.09C590.308 1563.11 599.267 1567.71 600.502 1577.41L594.842 1577.39C592.998 1569.86 586.679 1568.28 581.922 1568.27C574.154 1568.25 567.752 1574.44 567.718 1585.76C567.691 1594.56 570.555 1603.6 582.057 1603.62C584.224 1603.63 587.718 1603.39 590.917 1600.87C594.72 1597.87 595.695 1594.02 595.709 1589.38L582.22 1589.35ZM642.721 1602.43L642.705 1607.61L610.789 1607.54L610.919 1564.3L642.414 1564.37L642.398 1569.55L616.745 1569.49L616.705 1582.74L640.371 1582.8L640.355 1587.97L616.689 1587.92L616.646 1602.37L642.721 1602.43ZM679.042 1599.38L679.147 1564.46L684.808 1564.47L684.678 1607.71L678.114 1607.69L656.239 1572.71L656.118 1572.71L656.013 1607.64L650.353 1607.63L650.483 1564.39L657.408 1564.41L678.921 1599.38L679.042 1599.38ZM726.346 1602.62L726.33 1607.8L694.414 1607.73L694.544 1564.49L726.039 1564.56L726.023 1569.74L700.37 1569.68L700.33 1582.93L723.996 1582.98L723.98 1588.16L700.314 1588.11L700.271 1602.56L726.346 1602.62ZM740.597 1589.28L740.541 1607.83L734.7 1607.82L734.83 1564.58L754.823 1564.63C761.929 1564.64 769.027 1567.13 769 1576.28C768.981 1582.66 765.722 1585 762.947 1586.62C765.413 1587.65 767.878 1588.74 768.101 1594.77L768.439 1602.59C768.492 1605 768.79 1605.91 770.594 1606.94L770.591 1607.9L763.425 1607.88C762.59 1605.23 762.429 1598.67 762.434 1597.04C762.444 1593.49 761.734 1589.33 754.749 1589.32L740.597 1589.28ZM740.656 1569.59L740.612 1584.29L754.162 1584.32C758.437 1584.33 762.957 1583.25 762.976 1576.87C762.996 1570.18 758.12 1569.63 755.229 1569.62L740.656 1569.59ZM801.622 1595.38L784.279 1595.34L779.725 1607.92L773.703 1607.91L790.092 1564.71L796.716 1564.72L812.243 1607.99L805.86 1607.98L801.622 1595.38ZM786.101 1590.17L799.53 1590.2L793.204 1571.16L793.084 1571.16L786.101 1590.17ZM823.574 1564.78L823.459 1602.84L845.379 1602.89L845.364 1608.07L817.602 1608L817.732 1564.77L823.574 1564.78ZM892.01 1595.59L874.667 1595.55L870.113 1608.12L864.091 1608.11L880.48 1564.91L887.104 1564.92L902.631 1608.2L896.248 1608.18L892.01 1595.59ZM876.489 1590.37L889.918 1590.4L883.592 1571.36L883.472 1571.36L876.489 1590.37ZM908.291 1608.21L908.421 1564.97L925.945 1565.01C937.206 1565.04 944.106 1573.6 944.068 1586.07C944.039 1595.76 939.786 1608.28 925.574 1608.25L908.291 1608.21ZM914.248 1569.98L914.148 1603.22L925.469 1603.25C933.057 1603.27 938.012 1597.32 938.045 1586.42C938.078 1575.52 933.096 1570.02 925.147 1570.01L914.248 1569.98ZM992.7 1608.4L987.039 1608.39L987.116 1582.85C987.12 1581.59 987.257 1576.11 987.269 1572.07L987.148 1572.07L974.875 1608.36L969.094 1608.35L957.038 1572.07L956.918 1572.07C956.906 1576.04 957.01 1581.52 957.006 1582.78L956.929 1608.32L951.269 1608.31L951.399 1565.07L959.769 1565.09L972.004 1601.67L972.125 1601.67L984.519 1565.14L992.83 1565.16L992.7 1608.4ZM1008.49 1565.2L1008.36 1608.43L1002.52 1608.42L1002.65 1565.18L1008.49 1565.2ZM1050.02 1577.94L1044.54 1577.92C1044.26 1571.24 1038.72 1569.12 1033.85 1569.11C1030.17 1569.1 1023.97 1570.11 1023.95 1576.67C1023.94 1580.35 1026.52 1581.56 1029.05 1582.16L1041.39 1585.02C1046.98 1586.36 1051.19 1589.74 1051.17 1596.61C1051.14 1606.84 1041.61 1609.65 1034.21 1609.64C1026.2 1609.62 1023.07 1607.2 1021.15 1605.45C1017.49 1602.13 1016.78 1598.52 1016.79 1594.48L1022.27 1594.49C1022.25 1602.32 1028.62 1604.63 1034.16 1604.64C1038.38 1604.65 1045.49 1603.58 1045.51 1597.38C1045.52 1592.86 1043.42 1591.41 1036.31 1589.71L1027.47 1587.64C1024.64 1586.97 1018.26 1584.97 1018.29 1577.44C1018.31 1570.7 1022.72 1564.08 1033.2 1564.11C1048.31 1564.14 1049.79 1573.18 1050.02 1577.94ZM1090.19 1578.03L1084.71 1578.01C1084.42 1571.33 1078.89 1569.21 1074.01 1569.2C1070.34 1569.19 1064.13 1570.2 1064.11 1576.76C1064.1 1580.44 1066.69 1581.65 1069.22 1582.25L1081.55 1585.11C1087.15 1586.45 1091.35 1589.83 1091.33 1596.7C1091.3 1606.93 1081.78 1609.74 1074.37 1609.73C1066.36 1609.71 1063.24 1607.29 1061.32 1605.54C1057.65 1602.22 1056.94 1598.61 1056.95 1594.57L1062.43 1594.58C1062.41 1602.41 1068.79 1604.72 1074.33 1604.73C1078.54 1604.74 1085.65 1603.67 1085.67 1597.47C1085.68 1592.95 1083.58 1591.5 1076.48 1589.8L1067.63 1587.73C1064.81 1587.06 1058.43 1585.06 1058.45 1577.53C1058.47 1570.79 1062.89 1564.17 1073.37 1564.2C1088.48 1564.23 1089.96 1573.27 1090.19 1578.03ZM1105.58 1565.41L1105.45 1608.65L1099.61 1608.64L1099.74 1565.4L1105.58 1565.41ZM1149.43 1587.13C1149.46 1576.95 1143.83 1569.54 1134.43 1569.51C1125.04 1569.49 1119.35 1576.89 1119.32 1587.06C1119.29 1597.24 1124.93 1604.66 1134.33 1604.68C1143.72 1604.7 1149.4 1597.31 1149.43 1587.13ZM1155.46 1587.15C1155.43 1596.48 1150.45 1609.9 1134.31 1609.86C1118.17 1609.82 1113.27 1596.38 1113.3 1587.05C1113.33 1577.72 1118.31 1564.3 1134.45 1564.34C1150.59 1564.37 1155.48 1577.81 1155.46 1587.15ZM1191.02 1600.53L1191.13 1565.61L1196.79 1565.62L1196.66 1608.86L1190.1 1608.84L1168.22 1573.87L1168.1 1573.87L1168 1608.79L1162.33 1608.78L1162.46 1565.54L1169.39 1565.56L1190.9 1600.53L1191.02 1600.53Z" fill="white"/>
<path d="M578.569 1900.74C582.295 1900.75 585.14 1901.49 587.103 1902.95C589.096 1904.42 590.088 1906.51 590.08 1909.22C590.073 1911.37 589.651 1913.2 588.811 1914.72C588.002 1916.21 586.866 1917.43 585.402 1918.38C583.968 1919.33 582.237 1920.02 580.209 1920.47C578.211 1920.88 576.004 1921.08 573.59 1921.08L571.175 1921.07L568.504 1932.02L562.87 1932.01L570.25 1901.49C571.682 1901.19 573.114 1901 574.545 1900.91C575.976 1900.8 577.317 1900.74 578.569 1900.74ZM578.019 1905.48C577.452 1905.48 576.916 1905.5 576.409 1905.52C575.902 1905.55 575.395 1905.6 574.888 1905.65L572.307 1916.34L574.588 1916.34C575.84 1916.34 577.047 1916.24 578.21 1916.04C579.374 1915.83 580.403 1915.49 581.299 1915.01C582.194 1914.51 582.912 1913.84 583.451 1913.01C583.99 1912.14 584.262 1911.06 584.266 1909.74C584.27 1908.22 583.707 1907.14 582.576 1906.48C581.475 1905.82 579.956 1905.49 578.019 1905.48ZM607.079 1913.51C606.483 1913.3 605.843 1913.13 605.158 1913.01C604.473 1912.89 603.668 1912.83 602.744 1912.83C602.237 1912.83 601.7 1912.87 601.134 1912.96C600.567 1913.02 600.09 1913.1 599.702 1913.22L595.129 1932.08L589.719 1932.07L595.152 1909.77C596.405 1909.35 597.762 1909 599.224 1908.71C600.686 1908.38 602.266 1908.22 603.965 1908.22C604.323 1908.22 604.725 1908.26 605.172 1908.32C605.619 1908.35 606.051 1908.39 606.468 1908.45C606.915 1908.51 607.317 1908.59 607.675 1908.68C608.062 1908.77 608.39 1908.87 608.658 1908.99L607.079 1913.51ZM608.677 1923.66C608.683 1921.66 609.001 1919.74 609.633 1917.89C610.294 1916.02 611.223 1914.37 612.42 1912.94C613.647 1911.48 615.111 1910.32 616.812 1909.46C618.514 1908.6 620.423 1908.17 622.54 1908.18C624.805 1908.18 626.562 1908.77 627.811 1909.93C629.059 1911.1 629.681 1912.59 629.675 1914.41C629.669 1916.29 629.203 1917.8 628.275 1918.97C627.348 1920.13 626.138 1921.03 624.645 1921.68C623.183 1922.34 621.512 1922.78 619.633 1923.01C617.785 1923.25 615.906 1923.39 613.998 1923.45C613.968 1923.51 613.953 1923.57 613.953 1923.63L613.952 1924.07C613.943 1926.79 615.653 1928.15 619.081 1928.16C621.108 1928.16 623.137 1927.75 625.166 1926.92L625.6 1931.3C624.884 1931.63 623.869 1931.95 622.557 1932.28C621.244 1932.6 619.753 1932.76 618.084 1932.76C616.415 1932.75 614.984 1932.51 613.794 1932.03C612.603 1931.55 611.621 1930.9 610.848 1930.06C610.106 1929.22 609.557 1928.27 609.203 1927.19C608.848 1926.09 608.673 1924.91 608.677 1923.66ZM621.722 1912.6C620.827 1912.6 619.977 1912.78 619.171 1913.13C618.365 1913.49 617.648 1913.98 617.021 1914.6C616.393 1915.23 615.839 1915.97 615.359 1916.83C614.91 1917.67 614.579 1918.58 614.368 1919.56C617.945 1919.45 620.54 1919.02 622.152 1918.28C623.793 1917.54 624.616 1916.42 624.621 1914.93C624.623 1914.34 624.401 1913.8 623.955 1913.32C623.539 1912.84 622.795 1912.6 621.722 1912.6ZM637.746 1928.38C639.177 1928.38 640.31 1928.16 641.146 1927.71C641.982 1927.24 642.401 1926.52 642.404 1925.57C642.407 1924.79 642.14 1924.18 641.605 1923.73C641.07 1923.26 640.133 1922.7 638.793 1922.07C638.079 1921.74 637.409 1921.4 636.784 1921.04C636.189 1920.68 635.669 1920.26 635.223 1919.79C634.777 1919.31 634.421 1918.76 634.155 1918.13C633.888 1917.47 633.757 1916.7 633.759 1915.8C633.766 1913.48 634.621 1911.63 636.325 1910.26C638.028 1908.9 640.489 1908.22 643.708 1908.22C645.199 1908.23 646.525 1908.39 647.686 1908.72C648.878 1909.03 649.771 1909.34 650.366 1909.67L648.431 1913.87C647.925 1913.57 647.196 1913.28 646.243 1913.01C645.29 1912.71 644.292 1912.56 643.248 1912.56C642.742 1912.56 642.235 1912.6 641.728 1912.69C641.25 1912.78 640.818 1912.93 640.43 1913.13C640.042 1913.34 639.713 1913.64 639.443 1914.03C639.204 1914.38 639.083 1914.83 639.082 1915.37C639.079 1916.05 639.346 1916.62 639.881 1917.07C640.446 1917.49 641.25 1917.94 642.292 1918.42C643.274 1918.86 644.107 1919.3 644.792 1919.72C645.476 1920.14 646.041 1920.61 646.487 1921.15C646.932 1921.66 647.258 1922.24 647.465 1922.9C647.672 1923.52 647.774 1924.29 647.771 1925.18C647.768 1926.28 647.541 1927.31 647.091 1928.26C646.641 1929.19 645.983 1929.99 645.117 1930.67C644.28 1931.33 643.235 1931.85 641.982 1932.23C640.729 1932.62 639.297 1932.81 637.688 1932.8C636.585 1932.8 635.586 1932.72 634.693 1932.57C633.829 1932.42 633.069 1932.26 632.414 1932.08C631.759 1931.87 631.208 1931.66 630.761 1931.45C630.315 1931.24 629.972 1931.06 629.734 1930.91L631.67 1926.66C631.878 1926.78 632.176 1926.95 632.563 1927.16C632.979 1927.34 633.441 1927.52 633.947 1927.7C634.483 1927.88 635.064 1928.04 635.689 1928.19C636.345 1928.31 637.03 1928.37 637.746 1928.38ZM651.687 1923.76C651.693 1921.76 652.012 1919.84 652.643 1917.99C653.305 1916.12 654.234 1914.46 655.43 1913.03C656.657 1911.58 658.121 1910.42 659.823 1909.56C661.524 1908.7 663.433 1908.27 665.55 1908.27C667.815 1908.28 669.572 1908.86 670.821 1910.03C672.069 1911.19 672.691 1912.69 672.685 1914.5C672.68 1916.38 672.213 1917.9 671.285 1919.06C670.358 1920.22 669.148 1921.13 667.655 1921.78C666.193 1922.43 664.522 1922.88 662.643 1923.11C660.795 1923.35 658.916 1923.49 657.008 1923.55C656.978 1923.61 656.963 1923.66 656.963 1923.72L656.962 1924.17C656.954 1926.88 658.663 1928.24 662.091 1928.25C664.118 1928.26 666.147 1927.84 668.176 1927.01L668.61 1931.4C667.894 1931.72 666.879 1932.05 665.567 1932.37C664.254 1932.7 662.763 1932.86 661.094 1932.86C659.425 1932.85 657.995 1932.61 656.804 1932.13C655.613 1931.65 654.631 1930.99 653.858 1930.16C653.116 1929.32 652.567 1928.36 652.213 1927.29C651.858 1926.19 651.683 1925.01 651.687 1923.76ZM664.732 1912.7C663.837 1912.7 662.987 1912.87 662.181 1913.23C661.375 1913.58 660.659 1914.07 660.031 1914.7C659.403 1915.32 658.849 1916.07 658.37 1916.93C657.92 1917.76 657.589 1918.67 657.378 1919.66C660.955 1919.55 663.55 1919.12 665.162 1918.38C666.803 1917.64 667.626 1916.52 667.631 1915.03C667.633 1914.43 667.411 1913.9 666.965 1913.42C666.549 1912.94 665.805 1912.7 664.732 1912.7ZM679.426 1909.87C680.619 1909.51 681.976 1909.19 683.498 1908.89C685.049 1908.57 686.733 1908.41 688.552 1908.41C691.294 1908.42 693.304 1909.1 694.582 1910.44C695.86 1911.78 696.495 1913.59 696.488 1915.85C696.486 1916.48 696.425 1917.15 696.303 1917.87C696.212 1918.55 696.09 1919.27 695.939 1920.01L692.951 1932.3L687.541 1932.29L690.348 1920.58C690.499 1919.92 690.65 1919.25 690.801 1918.57C690.953 1917.88 691.044 1917.23 691.076 1916.6C691.109 1915.56 690.858 1914.69 690.323 1914.01C689.819 1913.32 688.806 1912.98 687.286 1912.97C686.004 1912.97 684.901 1913.1 683.976 1913.37L679.403 1932.27L673.993 1932.26L679.426 1909.87ZM705.76 1902.77L711.396 1901.89L709.676 1908.95L717.322 1908.97L716.235 1913.44L708.589 1913.42L706.326 1922.67C706.175 1923.33 706.069 1923.88 706.008 1924.33C705.947 1924.74 705.916 1925.13 705.915 1925.49C705.914 1925.85 705.943 1926.2 706.001 1926.56C706.09 1926.89 706.238 1927.19 706.446 1927.46C706.683 1927.7 707.011 1927.91 707.427 1928.09C707.874 1928.24 708.47 1928.31 709.215 1928.31C710.02 1928.32 710.795 1928.21 711.541 1928.01C712.287 1927.8 712.944 1927.58 713.511 1927.34L713.9 1931.68C713.214 1931.97 712.348 1932.26 711.304 1932.52C710.26 1932.79 709.038 1932.92 707.637 1932.92C705.073 1932.91 703.241 1932.35 702.142 1931.25C701.042 1930.11 700.495 1928.58 700.501 1926.64C700.503 1925.92 700.55 1925.19 700.642 1924.45C700.764 1923.67 700.93 1922.85 701.141 1921.99L705.76 1902.77ZM718.232 1923.91C718.238 1921.91 718.557 1919.99 719.189 1918.14C719.85 1916.26 720.779 1914.61 721.976 1913.18C723.202 1911.73 724.666 1910.57 726.368 1909.71C728.07 1908.85 729.979 1908.42 732.095 1908.42C734.361 1908.43 736.118 1909.01 737.366 1910.18C738.615 1911.34 739.236 1912.84 739.231 1914.65C739.225 1916.53 738.758 1918.05 737.831 1919.21C736.903 1920.37 735.693 1921.28 734.201 1921.93C732.738 1922.58 731.068 1923.03 729.189 1923.26C727.34 1923.5 725.462 1923.64 723.554 1923.7C723.524 1923.75 723.509 1923.81 723.509 1923.87L723.507 1924.32C723.499 1927.03 725.209 1928.39 728.637 1928.4C730.664 1928.41 732.692 1927.99 734.722 1927.16L735.156 1931.55C734.439 1931.87 733.425 1932.2 732.112 1932.52C730.8 1932.85 729.309 1933.01 727.64 1933C725.97 1933 724.54 1932.76 723.349 1932.28C722.158 1931.8 721.177 1931.14 720.404 1930.31C719.661 1929.47 719.113 1928.51 718.758 1927.44C718.404 1926.34 718.229 1925.16 718.232 1923.91ZM731.277 1912.85C730.383 1912.85 729.533 1913.02 728.727 1913.38C727.921 1913.73 727.204 1914.22 726.576 1914.85C725.948 1915.47 725.395 1916.22 724.915 1917.08C724.466 1917.91 724.135 1918.82 723.923 1919.81C727.501 1919.69 730.095 1919.27 731.707 1918.53C733.349 1917.79 734.172 1916.67 734.177 1915.18C734.178 1914.58 733.956 1914.05 733.511 1913.57C733.095 1913.09 732.35 1912.85 731.277 1912.85ZM749.479 1933.05C748.078 1933.05 746.871 1932.82 745.859 1932.38C744.847 1931.9 744.015 1931.25 743.361 1930.45C742.738 1929.64 742.278 1928.69 741.984 1927.58C741.689 1926.48 741.543 1925.29 741.547 1924C741.553 1922.01 741.902 1920.09 742.593 1918.24C743.314 1916.36 744.318 1914.72 745.604 1913.33C746.919 1911.9 748.518 1910.77 750.398 1909.94C752.279 1909.08 754.411 1908.65 756.796 1908.66C757.094 1908.66 757.452 1908.67 757.869 1908.7C758.286 1908.73 758.748 1908.81 759.254 1908.93L761.745 1898.65L767.381 1897.77L761.179 1923.11C761.028 1923.79 760.907 1924.49 760.815 1925.21C760.753 1925.9 760.722 1926.55 760.72 1927.18C760.717 1927.98 760.789 1928.79 760.936 1929.59C761.083 1930.4 761.319 1931.23 761.644 1932.1L756.813 1932.8C756.487 1932.18 756.206 1931.41 755.97 1930.52C755.223 1931.17 754.312 1931.77 753.237 1932.3C752.163 1932.81 750.91 1933.06 749.479 1933.05ZM758.168 1913.31C757.602 1913.19 756.917 1913.13 756.112 1913.13C754.741 1913.12 753.488 1913.42 752.353 1914.01C751.219 1914.58 750.248 1915.35 749.44 1916.33C748.632 1917.28 748.003 1918.38 747.552 1919.64C747.131 1920.89 746.918 1922.18 746.914 1923.52C746.912 1924.21 746.97 1924.85 747.087 1925.45C747.235 1926.04 747.457 1926.57 747.753 1927.01C748.05 1927.46 748.437 1927.82 748.913 1928.09C749.419 1928.36 750.029 1928.49 750.745 1928.5C751.699 1928.5 752.534 1928.31 753.25 1927.92C753.997 1927.53 754.699 1927 755.357 1926.32C755.388 1925.69 755.45 1925.03 755.542 1924.35C755.663 1923.66 755.799 1922.99 755.95 1922.34L758.168 1913.31ZM792.1 1908.6C793.472 1908.61 794.648 1908.85 795.631 1909.33C796.643 1909.78 797.476 1910.4 798.129 1911.21C798.782 1912.02 799.271 1912.97 799.596 1914.07C799.921 1915.15 800.081 1916.31 800.077 1917.56C800.071 1919.62 799.707 1921.59 798.986 1923.46C798.265 1925.34 797.232 1926.99 795.886 1928.42C794.57 1929.85 792.957 1930.99 791.047 1931.85C789.137 1932.68 786.989 1933.09 784.604 1933.09C784.247 1933.09 783.77 1933.07 783.174 1933.04C782.578 1933.01 781.922 1932.93 781.207 1932.81C780.492 1932.69 779.762 1932.53 779.018 1932.32C778.273 1932.11 777.588 1931.84 776.963 1931.51L784.887 1898.7L790.523 1897.82L787.626 1909.8C788.282 1909.47 788.984 1909.19 789.73 1908.95C790.476 1908.72 791.266 1908.6 792.1 1908.6ZM785.334 1928.53C786.705 1928.53 787.958 1928.25 789.092 1927.69C790.256 1927.09 791.242 1926.31 792.05 1925.32C792.888 1924.34 793.532 1923.23 793.983 1921.98C794.434 1920.69 794.661 1919.37 794.666 1918C794.668 1917.31 794.61 1916.69 794.492 1916.12C794.375 1915.52 794.168 1915.02 793.871 1914.6C793.574 1914.15 793.173 1913.81 792.667 1913.57C792.161 1913.3 791.52 1913.16 790.745 1913.16C790.09 1913.16 789.374 1913.28 788.598 1913.51C787.822 1913.75 787.106 1914.12 786.448 1914.63L783.143 1928.3C783.411 1928.36 783.709 1928.42 784.037 1928.48C784.395 1928.51 784.827 1928.53 785.334 1928.53ZM824.718 1909.21C824.117 1910.91 823.456 1912.68 822.735 1914.53C822.014 1916.35 821.203 1918.18 820.304 1920.02C819.434 1921.87 818.489 1923.72 817.47 1925.56C816.451 1927.38 815.358 1929.15 814.19 1930.87C813.322 1932.18 812.424 1933.43 811.496 1934.62C810.568 1935.84 809.551 1936.92 808.446 1937.84C807.37 1938.76 806.175 1939.5 804.862 1940.06C803.549 1940.63 802.057 1940.91 800.388 1940.9C799.464 1940.9 798.645 1940.8 797.93 1940.59C797.185 1940.38 796.56 1940.14 796.054 1939.87L797.811 1935.53C798.228 1935.77 798.689 1935.97 799.195 1936.12C799.731 1936.27 800.312 1936.34 800.938 1936.34C802.339 1936.35 803.563 1935.98 804.608 1935.23C805.683 1934.52 806.655 1933.54 807.523 1932.29C806.58 1928.98 805.785 1925.39 805.141 1921.51C804.497 1917.63 804.077 1913.52 803.882 1909.17L809.337 1909.18C809.363 1910.43 809.418 1911.82 809.503 1913.34C809.618 1914.86 809.747 1916.42 809.891 1918.03C810.066 1919.61 810.269 1921.18 810.503 1922.73C810.737 1924.28 811.001 1925.71 811.295 1927.02C812.194 1925.59 813.033 1924.09 813.813 1922.51C814.593 1920.93 815.313 1919.37 815.973 1917.82C816.634 1916.24 817.205 1914.72 817.686 1913.27C818.197 1911.78 818.633 1910.42 818.995 1909.2L824.718 1909.21Z" fill="white"/>
<path d="M577.932 2016.59C575.519 2016.59 573.046 2016.48 570.513 2016.28C567.98 2016.07 565.689 2015.74 563.64 2015.29L573.413 1974.9C575.706 1974.46 578.1 1974.17 580.594 1974.01C583.128 1973.86 585.441 1973.78 587.532 1973.79C589.945 1973.79 592.015 1974.06 593.743 1974.58C595.511 1975.07 596.936 1975.74 598.02 1976.58C599.143 1977.43 599.965 1978.44 600.484 1979.61C601.043 1980.73 601.321 1981.94 601.317 1983.23C601.315 1984.11 601.212 1985.04 601.008 1986C600.844 1986.97 600.479 1987.93 599.913 1988.89C599.387 1989.82 598.641 1990.7 597.673 1991.54C596.746 1992.39 595.517 1993.15 593.986 1993.83C595.794 1994.64 597.118 1995.75 597.958 1997.15C598.798 1998.52 599.216 2000.05 599.211 2001.74C599.205 2003.67 598.817 2005.54 598.048 2007.35C597.278 2009.12 596.047 2010.7 594.354 2012.11C592.661 2013.47 590.466 2014.57 587.769 2015.41C585.072 2016.21 581.793 2016.6 577.932 2016.59ZM577.144 1997.77L574.518 2008.62C575.161 2008.75 575.965 2008.85 576.93 2008.93C577.935 2008.97 578.86 2009 579.705 2009C580.911 2009 582.098 2008.92 583.264 2008.76C584.471 2008.57 585.538 2008.23 586.465 2007.75C587.431 2007.27 588.217 2006.6 588.823 2005.76C589.429 2004.92 589.734 2003.83 589.738 2002.5C589.739 2001.94 589.62 2001.38 589.381 2000.81C589.182 2000.25 588.841 1999.75 588.36 1999.3C587.879 1998.86 587.236 1998.5 586.433 1998.21C585.67 1997.93 584.745 1997.79 583.659 1997.79L577.144 1997.77ZM578.915 1990.72L584.827 1990.73C587.24 1990.74 589.031 1990.22 590.2 1989.17C591.41 1988.13 592.017 1986.89 592.021 1985.44C592.023 1984.67 591.844 1984.03 591.484 1983.51C591.164 1982.94 590.723 1982.5 590.161 1982.18C589.599 1981.85 588.956 1981.63 588.232 1981.51C587.509 1981.35 586.765 1981.26 586.001 1981.26C585.157 1981.26 584.252 1981.3 583.286 1981.38C582.321 1981.42 581.597 1981.47 581.114 1981.55L578.915 1990.72ZM611.968 2016.13L603.041 2016.11L610.676 1984.39L619.665 1984.41L611.968 2016.13ZM616.419 1980.55C615.172 1980.54 614.047 1980.18 613.044 1979.45C612.041 1978.69 611.542 1977.54 611.546 1976.01C611.549 1975.17 611.712 1974.38 612.036 1973.66C612.4 1972.9 612.864 1972.25 613.429 1971.73C613.994 1971.17 614.638 1970.73 615.363 1970.41C616.128 1970.09 616.933 1969.93 617.778 1969.93C619.024 1969.94 620.149 1970.32 621.152 1971.09C622.156 1971.81 622.655 1972.94 622.65 1974.47C622.648 1975.31 622.464 1976.12 622.1 1976.88C621.776 1977.6 621.332 1978.25 620.767 1978.81C620.203 1979.33 619.538 1979.75 618.773 1980.07C618.048 1980.39 617.263 1980.55 616.419 1980.55ZM628.87 1976.53L638.224 1975.11L635.904 1984.45L645.917 1984.47L644.085 1991.83L634.132 1991.81L631.445 2002.9C631.201 2003.82 631.037 2004.69 630.954 2005.49C630.912 2006.3 631.01 2007 631.249 2007.6C631.529 2008.17 631.99 2008.61 632.633 2008.94C633.275 2009.26 634.16 2009.42 635.286 2009.42C636.251 2009.43 637.176 2009.35 638.061 2009.19C638.987 2008.99 639.913 2008.73 640.838 2008.41L641.481 2015.29C640.274 2015.73 638.965 2016.11 637.557 2016.43C636.148 2016.74 634.479 2016.9 632.549 2016.9C629.774 2016.89 627.623 2016.48 626.098 2015.68C624.572 2014.83 623.49 2013.7 622.85 2012.29C622.211 2010.84 621.935 2009.19 622.021 2007.34C622.107 2005.49 622.394 2003.54 622.883 2001.49L628.87 1976.53ZM646.184 2003.54C646.192 2000.8 646.642 1998.23 647.534 1995.82C648.426 1993.41 649.699 1991.3 651.353 1989.49C653.008 1987.69 655.003 1986.26 657.338 1985.22C659.714 1984.18 662.35 1983.67 665.245 1983.67C667.055 1983.68 668.663 1983.86 670.07 1984.23C671.516 1984.55 672.822 1985 673.987 1985.56L670.889 1992.55C670.086 1992.23 669.242 1991.95 668.358 1991.7C667.514 1991.42 666.469 1991.28 665.223 1991.27C662.206 1991.27 659.831 1992.29 658.095 1994.33C656.36 1996.34 655.487 1999.09 655.476 2002.59C655.47 2004.64 655.908 2006.31 656.788 2007.6C657.669 2008.85 659.296 2009.48 661.669 2009.48C662.835 2009.49 663.962 2009.37 665.048 2009.13C666.135 2008.89 667.101 2008.59 667.946 2008.23L668.588 2015.41C667.461 2015.85 666.213 2016.23 664.845 2016.55C663.517 2016.91 661.887 2017.08 659.957 2017.08C657.464 2017.07 655.354 2016.71 653.626 2015.98C651.899 2015.25 650.475 2014.28 649.352 2013.07C648.23 2011.83 647.41 2010.38 646.892 2008.73C646.414 2007.08 646.178 2005.35 646.184 2003.54ZM686.142 2017.14C684.011 2017.13 682.162 2016.81 680.595 2016.16C679.029 2015.51 677.724 2014.61 676.682 2013.44C675.681 2012.27 674.921 2010.9 674.402 2009.33C673.884 2007.72 673.628 2005.95 673.634 2004.02C673.641 2001.61 674.031 1999.2 674.802 1996.78C675.614 1994.37 676.786 1992.2 678.32 1990.28C679.854 1988.35 681.729 1986.79 683.945 1985.58C686.16 1984.34 688.696 1983.73 691.551 1983.73C693.642 1983.74 695.471 1984.06 697.037 1984.71C698.644 1985.36 699.948 1986.26 700.95 1987.43C701.992 1988.6 702.772 1989.99 703.29 1991.6C703.808 1993.17 704.065 1994.92 704.059 1996.85C704.052 1999.26 703.662 2001.68 702.891 2004.09C702.12 2006.5 700.987 2008.67 699.493 2010.59C697.999 2012.52 696.125 2014.1 693.869 2015.35C691.653 2016.55 689.078 2017.15 686.142 2017.14ZM690.684 1991.33C689.356 1991.33 688.189 1991.71 687.181 1992.47C686.174 1993.23 685.326 1994.19 684.639 1995.36C683.952 1996.52 683.425 1997.81 683.059 1999.22C682.733 2000.58 682.569 2001.89 682.565 2003.14C682.559 2005.19 682.876 2006.78 683.516 2007.9C684.156 2008.99 685.32 2009.54 687.009 2009.54C688.337 2009.54 689.504 2009.16 690.512 2008.4C691.519 2007.64 692.367 2006.68 693.054 2005.51C693.741 2004.35 694.248 2003.08 694.573 2001.72C694.94 2000.31 695.125 1998.98 695.128 1997.73C695.134 1995.68 694.817 1994.11 694.177 1993.03C693.537 1991.9 692.373 1991.33 690.684 1991.33ZM715.354 2016.36L706.426 2016.34L714.062 1984.63L723.05 1984.65L715.354 2016.36ZM719.804 1980.78C718.558 1980.78 717.433 1980.41 716.43 1979.69C715.427 1978.92 714.927 1977.77 714.932 1976.24C714.934 1975.4 715.098 1974.62 715.422 1973.89C715.786 1973.13 716.25 1972.49 716.815 1971.97C717.379 1971.4 718.024 1970.96 718.749 1970.64C719.514 1970.32 720.319 1970.16 721.163 1970.17C722.41 1970.17 723.535 1970.55 724.538 1971.32C725.541 1972.05 726.041 1973.17 726.036 1974.7C726.034 1975.55 725.85 1976.35 725.486 1977.11C725.162 1977.84 724.718 1978.48 724.153 1979.04C723.588 1979.56 722.924 1979.98 722.158 1980.3C721.434 1980.62 720.649 1980.78 719.804 1980.78ZM730.9 1986.11C731.584 1985.91 732.329 1985.69 733.134 1985.45C733.979 1985.17 734.905 1984.94 735.911 1984.74C736.957 1984.5 738.104 1984.32 739.351 1984.2C740.639 1984.04 742.087 1983.97 743.695 1983.97C748.441 1983.98 751.694 1985.36 753.455 1988.09C755.216 1990.83 755.507 1994.57 754.326 1999.32L750.173 2016.44L741.185 2016.42L745.216 1999.66C745.461 1998.61 745.645 1997.61 745.768 1996.64C745.932 1995.64 745.935 1994.77 745.776 1994.05C745.618 1993.28 745.237 1992.68 744.636 1992.24C744.074 1991.75 743.19 1991.51 741.983 1991.51C740.817 1991.5 739.631 1991.62 738.423 1991.86L732.498 2016.4L723.51 2016.38L730.9 1986.11ZM793.861 1979.2C793.937 1980.85 794.032 1982.72 794.146 1984.81C794.301 1986.9 794.455 1989.07 794.609 1991.32C794.804 1993.54 794.998 1995.75 795.193 1997.96C795.387 2000.17 795.582 2002.22 795.777 2004.11C796.829 2002.07 797.901 1999.86 798.994 1997.49C800.087 1995.12 801.18 1992.66 802.274 1990.13C803.367 1987.6 804.441 1985.03 805.494 1982.42C806.588 1979.81 807.621 1977.26 808.594 1974.77L818.547 1974.79C815.387 1982.42 812.168 1989.69 808.89 1996.6C805.612 2003.47 802.093 2010.12 798.334 2016.55L789.527 2016.53C789.212 2014.31 788.916 2012.2 788.641 2010.19C788.406 2008.14 788.17 2006.13 787.935 2004.16C787.74 2002.19 787.545 2000.19 787.35 1998.18C787.195 1996.17 787.04 1994.08 786.886 1991.91C784.581 1996.17 782.296 2000.34 780.032 2004.44C777.808 2008.5 775.423 2012.51 772.877 2016.49L764.07 2016.47C763.76 2012.73 763.53 2009.03 763.38 2005.37C763.27 2001.71 763.221 1997.99 763.232 1994.21C763.242 1990.95 763.312 1987.71 763.443 1984.5C763.573 1981.24 763.744 1977.96 763.955 1974.67L773.425 1974.69C773.214 1978.22 773.002 1981.7 772.791 1985.12C772.62 1988.5 772.529 1992.02 772.518 1995.68C772.514 1997.04 772.509 1998.43 772.505 1999.84C772.501 2001.25 772.537 2002.65 772.613 2004.06C773.745 2002.09 774.938 2000.01 776.191 1997.8C777.444 1995.59 778.678 1993.38 779.891 1991.17C781.104 1988.96 782.256 1986.83 783.348 1984.78C784.44 1982.69 785.371 1980.83 786.14 1979.18L793.861 1979.2ZM842.774 2002.95C842.204 2005.24 842.036 2007.56 842.27 2009.89C842.505 2012.18 842.961 2014.23 843.639 2016.05L835.613 2017.17C835.373 2016.69 835.153 2016.23 834.953 2015.78C834.754 2015.34 834.554 2014.84 834.355 2014.27C833.226 2015.2 831.977 2015.96 830.608 2016.56C829.239 2017.16 827.71 2017.46 826.02 2017.45C824.01 2017.45 822.281 2017.1 820.836 2016.42C819.43 2015.69 818.267 2014.74 817.346 2013.57C816.464 2012.36 815.825 2010.98 815.428 2009.41C815.03 2007.8 814.834 2006.09 814.84 2004.28C814.848 2001.5 815.339 1998.89 816.311 1996.44C817.324 1993.99 818.698 1991.86 820.432 1990.05C822.207 1988.21 824.283 1986.76 826.659 1985.72C829.035 1984.68 831.61 1984.17 834.385 1984.17C834.747 1984.17 835.37 1984.2 836.255 1984.24C837.18 1984.28 838.225 1984.38 839.391 1984.55C840.556 1984.67 841.782 1984.89 843.068 1985.22C844.354 1985.54 845.579 1985.99 846.744 1986.55L842.774 2002.95ZM836.533 1991.84C836.011 1991.76 835.528 1991.7 835.086 1991.66C834.684 1991.61 834.182 1991.59 833.578 1991.59C832.211 1991.59 830.923 1991.93 829.715 1992.61C828.546 1993.29 827.518 1994.19 826.63 1995.32C825.742 1996.4 825.034 1997.67 824.507 1999.11C824.02 2000.56 823.774 2002.07 823.77 2003.63C823.764 2005.56 824.081 2007.09 824.721 2008.22C825.361 2009.35 826.546 2009.91 828.275 2009.92C829.2 2009.92 830.025 2009.74 830.75 2009.38C831.515 2009.02 832.321 2008.42 833.168 2007.58C833.252 2006.57 833.376 2005.53 833.54 2004.44C833.744 2003.31 833.948 2002.29 834.152 2001.37L836.533 1991.84ZM861.605 2017.29C858.75 2017.29 856.499 2016.92 854.852 2016.19C853.246 2015.42 852.083 2014.4 851.363 2013.11C850.683 2011.82 850.346 2010.35 850.351 2008.7C850.396 2007.01 850.643 2005.22 851.091 2003.33L858.848 1971.32L868.202 1969.89L859.713 2004.62C859.55 2005.34 859.447 2006.01 859.405 2006.61C859.404 2007.21 859.523 2007.76 859.762 2008.24C860.002 2008.68 860.403 2009.05 860.966 2009.33C861.568 2009.61 862.392 2009.79 863.437 2009.88L861.605 2017.29ZM896.499 2003.07C895.929 2005.36 895.761 2007.68 895.995 2010.01C896.23 2012.3 896.686 2014.35 897.364 2016.17L889.338 2017.29C889.098 2016.81 888.878 2016.35 888.679 2015.91C888.479 2015.46 888.279 2014.96 888.08 2014.4C886.951 2015.32 885.702 2016.08 884.333 2016.68C882.964 2017.28 881.435 2017.58 879.746 2017.57C877.735 2017.57 876.007 2017.22 874.561 2016.54C873.156 2015.81 871.992 2014.86 871.071 2013.69C870.19 2012.49 869.55 2011.1 869.153 2009.53C868.756 2007.92 868.56 2006.21 868.565 2004.4C868.573 2001.62 869.064 1999.01 870.036 1996.56C871.049 1994.11 872.423 1991.98 874.158 1990.17C875.933 1988.33 878.008 1986.89 880.384 1985.85C882.76 1984.81 885.335 1984.29 888.11 1984.29C888.472 1984.3 889.095 1984.32 889.98 1984.36C890.905 1984.4 891.95 1984.5 893.116 1984.67C894.282 1984.79 895.508 1985.01 896.794 1985.34C898.079 1985.66 899.305 1986.11 900.469 1986.67L896.499 2003.07ZM890.259 1991.96C889.736 1991.88 889.254 1991.82 888.811 1991.78C888.409 1991.74 887.907 1991.71 887.304 1991.71C885.936 1991.71 884.648 1992.05 883.44 1992.73C882.272 1993.41 881.243 1994.31 880.355 1995.44C879.467 1996.52 878.76 1997.79 878.232 1999.23C877.745 2000.68 877.5 2002.19 877.495 2003.76C877.489 2005.69 877.806 2007.21 878.446 2008.34C879.086 2009.47 880.271 2010.03 882 2010.04C882.925 2010.04 883.75 2009.86 884.475 2009.5C885.24 2009.14 886.047 2008.54 886.894 2007.7C886.977 2006.69 887.101 2005.65 887.265 2004.56C887.469 2003.44 887.674 2002.41 887.877 2001.49L890.259 1991.96Z" fill="white"/>
<path d="M906.699 1943.39L903.995 1954.5C905.802 1954.92 907.619 1955.35 909.39 1955.8L912.073 1944.76L918.807 1946.48L916.048 1957.82C924.548 1960.82 930.765 1965.32 929.544 1973.69C928.66 1979.82 925.346 1982.79 920.948 1983.82C926.988 1987.05 930.06 1991.99 927.134 2000.56C923.499 2011.21 914.867 2012.11 903.389 2009.88L897.817 2008.59L899.241 2000.05C905.121 2001.32 912.68 2001.91 914.162 1995.81C915.862 1988.82 907.291 1985.88 901.288 1984.38C900.175 1983.85 899.008 1983.43 897.785 1983.12C896.499 1982.8 895.273 1982.57 894.107 1982.45C892.942 1982.29 891.896 1982.18 890.971 1982.14C890.087 1982.1 889.463 1982.08 889.102 1982.08C887.658 1982.07 886.268 1982.21 884.933 1982.49L886.731 1975.1L889.871 1962.18C889.955 1960.72 889.462 1958.87 886.734 1958.17C886.84 1958.1 881.878 1956.93 881.846 1956.92L883.637 1949.55L892.92 1951.93L892.913 1951.96C894.31 1952.32 895.747 1952.66 897.213 1953L899.971 1941.67L906.699 1943.39ZM888.295 1989.49C888.898 1989.5 889.401 1989.52 889.803 1989.56C890.245 1989.6 890.727 1989.66 891.25 1989.74L890.596 1992.36H882.532L882.667 1991.81C883.215 1991.31 883.802 1990.88 884.431 1990.51C885.639 1989.83 886.928 1989.49 888.295 1989.49ZM898.83 1976.43C902.631 1977.4 914.346 1981.36 916.243 1973.57C918.22 1965.43 905.981 1963.62 902.182 1962.65L898.83 1976.43Z" fill="white"/>
</g>
<g clip-path="url(#clip1_183_95)">
<ellipse cx="638.809" cy="578.736" rx="67.6097" ry="65.7873" fill="black"/>
<path d="M547.037 557.081C558.088 521.253 596.091 501.171 631.907 512.226C667.732 523.281 687.811 561.292 676.756 597.117C665.701 632.941 627.696 653.018 591.869 641.963C556.06 630.909 535.981 592.902 547.037 557.081ZM607.822 544.815C606.224 544.358 604.655 543.906 603.134 543.438L603.144 543.399L593.026 540.273L590.61 548.11C590.666 548.126 596.059 549.679 595.938 549.751C598.91 550.669 599.347 552.692 599.167 554.268L594.93 567.999C595.134 568.063 595.399 568.155 595.689 568.29L594.916 568.052L588.977 587.287C588.558 588.182 587.547 589.503 585.47 588.866C585.538 588.978 580.177 587.231 580.138 587.219L575.976 595.533L585.525 598.479C587.301 599.03 589.04 599.599 590.751 600.14L586.992 612.334L594.32 614.597L598.044 602.535C600.041 603.198 601.984 603.814 603.886 604.399L600.178 616.404L607.514 618.668L611.271 606.5C623.824 609.599 633.417 609.155 638.06 597.905C641.803 588.846 638.703 583.33 632.221 579.485C637.143 578.628 640.982 575.632 642.322 569.082C644.166 560.135 637.564 554.907 628.351 551.154L632.069 539.102L624.73 536.838L621.109 548.573C619.183 547.978 617.2 547.408 615.229 546.843L618.876 535.029L611.543 532.767L607.822 544.815ZM605.937 577.561C610.91 579.097 626.938 582.478 624.012 591.98C621.202 601.092 605.926 595.244 600.95 593.712L605.937 577.561ZM612.737 555.519C616.881 556.797 630.299 559.495 627.63 568.14C625.07 576.427 612.36 571.445 608.216 570.167L612.737 555.519Z" fill="white"/>
<path d="M734.091 563.81C737.028 563.816 739.565 564.342 741.703 565.387C743.841 566.432 745.611 567.843 747.012 569.62C748.414 571.397 749.448 573.479 750.113 575.867C750.779 578.254 751.108 580.824 751.1 583.577C751.087 587.798 750.28 591.803 748.678 595.593C747.137 599.321 745.017 602.589 742.317 605.397C739.617 608.144 736.429 610.339 732.753 611.982C729.078 613.565 725.099 614.351 720.817 614.341C720.266 614.34 719.288 614.307 717.881 614.243C716.535 614.24 714.975 614.114 713.202 613.865C711.429 613.617 709.533 613.245 707.516 612.752C705.56 612.258 703.696 611.581 701.925 610.72L718 544.044L732.23 541.874L726.47 565.536C727.695 564.988 728.919 564.563 730.144 564.26C731.368 563.956 732.684 563.807 734.091 563.81ZM722.044 603.057C724.185 603.062 726.205 602.547 728.105 601.511C730.004 600.475 731.63 599.102 732.981 597.393C734.393 595.622 735.5 593.636 736.302 591.435C737.104 589.235 737.509 586.942 737.516 584.556C737.525 581.619 737.042 579.324 736.068 577.67C735.094 576.016 733.292 575.187 730.662 575.181C729.805 575.179 728.673 575.329 727.265 575.632C725.918 575.935 724.693 576.574 723.589 577.551L717.457 602.68C717.824 602.742 718.129 602.804 718.374 602.866C718.68 602.927 718.985 602.989 719.291 603.051C719.597 603.052 719.964 603.053 720.392 603.054C720.82 603.055 721.371 603.056 722.044 603.057ZM768.28 613.163L754.699 613.133L766.315 564.892L779.987 564.922L768.28 613.163ZM775.05 559.038C773.153 559.034 771.442 558.48 769.916 557.375C768.39 556.209 767.631 554.464 767.638 552.139C767.642 550.855 767.89 549.662 768.383 548.562C768.937 547.401 769.643 546.424 770.502 545.631C771.361 544.776 772.342 544.105 773.445 543.618C774.608 543.132 775.833 542.89 777.117 542.893C779.014 542.897 780.725 543.482 782.251 544.648C783.777 545.752 784.536 547.467 784.529 549.792C784.525 551.076 784.247 552.299 783.692 553.46C783.2 554.56 782.524 555.538 781.665 556.392C780.806 557.185 779.795 557.825 778.631 558.312C777.528 558.799 776.335 559.041 775.05 559.038ZM793.99 552.933L808.22 550.762L804.69 564.978L819.923 565.012L817.136 576.201L801.996 576.167L797.907 593.042C797.536 594.448 797.287 595.763 797.161 596.986C797.096 598.21 797.246 599.281 797.61 600.199C798.036 601.056 798.738 601.731 799.715 602.223C800.692 602.714 802.037 602.962 803.75 602.966C805.218 602.969 806.626 602.85 807.972 602.608C809.38 602.305 810.789 601.911 812.197 601.425L813.175 611.888C811.338 612.557 809.348 613.133 807.205 613.618C805.063 614.103 802.523 614.342 799.587 614.335C795.366 614.326 792.095 613.706 789.774 612.478C787.453 611.188 785.806 609.471 784.834 607.328C783.862 605.123 783.441 602.614 783.572 599.8C783.703 596.987 784.14 594.021 784.883 590.902L793.99 552.933ZM820.328 594.01C820.341 589.85 821.025 585.937 822.382 582.269C823.739 578.602 825.676 575.394 828.192 572.647C830.709 569.9 833.744 567.735 837.297 566.152C840.911 564.57 844.92 563.784 849.325 563.793C852.078 563.8 854.524 564.08 856.663 564.636C858.864 565.13 860.85 565.808 862.622 566.668L857.91 577.302C856.688 576.81 855.404 576.379 854.06 576.009C852.776 575.578 851.186 575.36 849.29 575.356C844.702 575.345 841.088 576.897 838.448 580.011C835.808 583.064 834.48 587.252 834.464 592.574C834.455 595.694 835.12 598.234 836.46 600.195C837.8 602.094 840.275 603.048 843.884 603.056C845.658 603.06 847.372 602.88 849.025 602.517C850.677 602.154 852.147 601.698 853.433 601.15L854.41 612.072C852.695 612.742 850.797 613.318 848.715 613.803C846.695 614.349 844.217 614.619 841.28 614.612C837.487 614.604 834.277 614.046 831.65 612.939C829.023 611.832 826.855 610.359 825.148 608.52C823.441 606.619 822.193 604.414 821.406 601.904C820.679 599.394 820.32 596.763 820.328 594.01ZM881.112 614.702C877.87 614.695 875.058 614.199 872.675 613.215C870.292 612.23 868.308 610.85 866.722 609.072C865.198 607.294 864.042 605.212 863.254 602.824C862.466 600.375 862.077 597.683 862.086 594.746C862.097 591.076 862.689 587.407 863.862 583.739C865.097 580.071 866.881 576.772 869.214 573.84C871.548 570.909 874.4 568.53 877.77 566.702C881.14 564.813 884.997 563.874 889.34 563.883C892.522 563.891 895.304 564.386 897.686 565.37C900.13 566.355 902.115 567.736 903.639 569.513C905.224 571.291 906.41 573.404 907.198 575.853C907.986 578.24 908.376 580.902 908.367 583.839C908.356 587.509 907.764 591.179 906.591 594.846C905.417 598.514 903.694 601.814 901.422 604.745C899.15 607.677 896.298 610.087 892.866 611.975C889.496 613.803 885.578 614.712 881.112 614.702ZM888.021 575.443C886.002 575.438 884.226 576.015 882.693 577.174C881.161 578.333 879.872 579.798 878.826 581.57C877.781 583.342 876.98 585.298 876.423 587.438C875.927 589.516 875.676 591.504 875.671 593.401C875.661 596.52 876.143 598.938 877.117 600.653C878.091 602.307 879.863 603.137 882.432 603.143C884.451 603.147 886.226 602.57 887.759 601.411C889.292 600.252 890.581 598.787 891.627 597.015C892.672 595.243 893.442 593.318 893.938 591.239C894.495 589.099 894.776 587.081 894.782 585.185C894.792 582.065 894.309 579.678 893.336 578.024C892.362 576.309 890.59 575.448 888.021 575.443ZM925.55 613.517L911.969 613.487L923.584 565.245L937.257 565.276L925.55 613.517ZM932.319 559.392C930.423 559.388 928.712 558.833 927.186 557.729C925.66 556.563 924.9 554.818 924.907 552.493C924.911 551.208 925.159 550.016 925.652 548.916C926.206 547.755 926.913 546.778 927.771 545.984C928.631 545.13 929.611 544.459 930.714 543.972C931.878 543.485 933.102 543.243 934.387 543.246C936.283 543.25 937.994 543.835 939.52 545.001C941.046 546.106 941.806 547.82 941.799 550.145C941.795 551.43 941.516 552.653 940.962 553.814C940.469 554.914 939.793 555.891 938.934 556.746C938.075 557.539 937.064 558.179 935.9 558.666C934.798 559.153 933.604 559.395 932.319 559.392ZM949.198 567.505C950.239 567.202 951.372 566.868 952.596 566.503C953.882 566.078 955.29 565.714 956.821 565.412C958.412 565.048 960.157 564.777 962.054 564.598C964.012 564.357 966.215 564.24 968.662 564.245C975.88 564.262 980.829 566.353 983.509 570.519C986.188 574.685 986.629 580.375 984.834 587.59L978.515 613.636L964.843 613.605L970.976 588.109C971.348 586.519 971.628 584.991 971.816 583.523C972.065 581.994 972.069 580.679 971.827 579.577C971.586 578.414 971.008 577.495 970.092 576.82C969.238 576.084 967.893 575.714 966.058 575.71C964.284 575.706 962.479 575.885 960.642 576.248L951.629 613.576L937.956 613.545L949.198 567.505ZM1005.9 550.106L1020.22 550.138L1004.7 613.695L990.48 613.663L1005.9 550.106ZM1029.85 567.686C1030.89 567.383 1032.02 567.049 1033.25 566.685C1034.53 566.259 1035.94 565.895 1037.47 565.593C1039.06 565.229 1040.81 564.958 1042.7 564.779C1044.66 564.539 1046.87 564.421 1049.31 564.427C1056.53 564.443 1061.48 566.534 1064.16 570.7C1066.84 574.866 1067.28 580.556 1065.48 587.771L1059.17 613.818L1045.49 613.787L1051.63 588.29C1052 586.701 1052.28 585.172 1052.47 583.704C1052.72 582.175 1052.72 580.86 1052.48 579.758C1052.24 578.595 1051.66 577.676 1050.74 577.001C1049.89 576.265 1048.54 575.895 1046.71 575.891C1044.93 575.887 1043.13 576.067 1041.29 576.43L1032.28 613.757L1018.61 613.726L1029.85 567.686ZM1090.58 615.173C1087.52 615.166 1084.89 614.64 1082.69 613.595C1080.56 612.55 1078.79 611.139 1077.38 609.362C1076.04 607.524 1075.04 605.411 1074.38 603.024C1073.77 600.575 1073.47 597.975 1073.48 595.222C1073.49 591.062 1074.24 587.148 1075.72 583.481C1077.26 579.753 1079.35 576.515 1081.99 573.768C1084.63 571.021 1087.75 568.857 1091.37 567.274C1094.98 565.692 1098.93 564.905 1103.21 564.915C1104.31 564.917 1105.32 564.981 1106.24 565.105C1107.22 565.23 1108.2 565.416 1109.17 565.662L1114.19 544.935L1128.42 542.765L1116.16 593.115C1115.29 596.6 1115.04 600.117 1115.39 603.666C1115.75 607.154 1116.44 610.276 1117.47 613.031L1105.26 614.747C1104.9 614.012 1104.56 613.308 1104.26 612.634C1103.96 611.961 1103.65 611.195 1103.35 610.338C1101.63 611.741 1099.7 612.899 1097.56 613.812C1095.48 614.725 1093.15 615.179 1090.58 615.173ZM1106.48 576.576C1106.11 576.514 1105.78 576.452 1105.47 576.39C1105.23 576.329 1104.95 576.297 1104.65 576.297C1104.4 576.235 1104.06 576.204 1103.64 576.203C1103.21 576.202 1102.66 576.201 1101.98 576.199C1099.84 576.194 1097.85 576.71 1096.02 577.746C1094.18 578.72 1092.58 580.063 1091.23 581.772C1089.94 583.482 1088.93 585.438 1088.19 587.638C1087.45 589.778 1087.07 591.979 1087.06 594.243C1087.06 597.179 1087.54 599.505 1088.51 601.22C1089.55 602.874 1091.38 603.704 1094.01 603.71C1095.42 603.713 1096.7 603.441 1097.87 602.893C1099.03 602.345 1100.26 601.43 1101.55 600.148C1101.67 598.619 1101.86 597.029 1102.11 595.378C1102.42 593.666 1102.73 592.106 1103.04 590.7L1106.48 576.576ZM1138.38 613.996L1124.8 613.965L1136.41 565.724L1150.09 565.754L1138.38 613.996ZM1145.15 559.87C1143.25 559.866 1141.54 559.312 1140.01 558.207C1138.49 557.041 1137.73 555.296 1137.74 552.972C1137.74 551.687 1137.99 550.494 1138.48 549.394C1139.04 548.233 1139.74 547.256 1140.6 546.463C1141.46 545.608 1142.44 544.938 1143.54 544.451C1144.71 543.964 1145.93 543.722 1147.22 543.725C1149.11 543.729 1150.82 544.314 1152.35 545.48C1153.88 546.584 1154.63 548.299 1154.63 550.624C1154.62 551.908 1154.34 553.131 1153.79 554.292C1153.3 555.392 1152.62 556.37 1151.76 557.224C1150.9 558.018 1149.89 558.658 1148.73 559.144C1147.63 559.631 1146.43 559.873 1145.15 559.87ZM1196.09 593.295C1195.22 596.78 1194.96 600.297 1195.32 603.846C1195.68 607.334 1196.37 610.455 1197.4 613.211L1185.19 614.927C1184.83 614.192 1184.49 613.488 1184.19 612.814C1183.89 612.14 1183.58 611.375 1183.28 610.518C1181.56 611.921 1179.66 613.079 1177.58 613.992C1175.5 614.905 1173.17 615.359 1170.6 615.353C1167.54 615.346 1164.91 614.82 1162.72 613.775C1160.58 612.669 1158.81 611.227 1157.41 609.45C1156.07 607.612 1155.09 605.499 1154.49 603.112C1153.88 600.664 1153.59 598.063 1153.59 595.31C1153.61 591.089 1154.35 587.114 1155.83 583.386C1157.37 579.658 1159.46 576.42 1162.1 573.673C1164.8 570.865 1167.96 568.67 1171.57 567.087C1175.19 565.505 1179.1 564.718 1183.33 564.728C1183.88 564.729 1184.82 564.762 1186.17 564.826C1187.58 564.89 1189.17 565.047 1190.94 565.296C1192.71 565.483 1194.58 565.824 1196.54 566.318C1198.49 566.811 1200.36 567.489 1202.13 568.349L1196.09 593.295ZM1186.59 576.389C1185.8 576.265 1185.07 576.172 1184.39 576.109C1183.78 576.046 1183.02 576.014 1182.1 576.012C1180.02 576.007 1178.06 576.523 1176.22 577.559C1174.44 578.595 1172.88 579.968 1171.53 581.678C1170.18 583.326 1169.1 585.251 1168.3 587.452C1167.56 589.652 1167.19 591.945 1167.18 594.331C1167.17 597.268 1167.65 599.593 1168.63 601.309C1169.6 603.024 1171.4 603.884 1174.03 603.89C1175.44 603.893 1176.69 603.621 1177.8 603.073C1178.96 602.525 1180.19 601.61 1181.48 600.328C1181.6 598.799 1181.79 597.209 1182.04 595.558C1182.35 593.845 1182.66 592.286 1182.97 590.88L1186.59 576.389Z" fill="white"/>
</g>
<defs>
<filter id="filter0_f_183_95" x="717.903" y="949.646" width="2392.44" height="2392.44" filterUnits="userSpaceOnUse" color-interpolation-filters="sRGB">
<feFlood flood-opacity="0" result="BackgroundImageFix"/>
<feBlend mode="normal" in="SourceGraphic" in2="BackgroundImageFix" result="shape"/>
<feGaussianBlur stdDeviation="9.89321" result="effect1_foregroundBlur_183_95"/>
</filter>
<filter id="filter1_f_183_95" x="609.077" y="840.821" width="2610.09" height="2610.09" filterUnits="userSpaceOnUse" color-interpolation-filters="sRGB">
<feFlood flood-opacity="0" result="BackgroundImageFix"/>
<feBlend mode="normal" in="SourceGraphic" in2="BackgroundImageFix" result="shape"/>
<feGaussianBlur stdDeviation="64.3058" result="effect1_foregroundBlur_183_95"/>
</filter>
<filter id="filter2_f_183_95" x="963.201" y="1194.95" width="1901.84" height="1901.84" filterUnits="userSpaceOnUse" color-interpolation-filters="sRGB">
<feFlood flood-opacity="0" result="BackgroundImageFix"/>
<feBlend mode="normal" in="SourceGraphic" in2="BackgroundImageFix" result="shape"/>
<feGaussianBlur stdDeviation="17.9583" result="effect1_foregroundBlur_183_95"/>
</filter>
<filter id="filter3_f_183_95" x="1250.69" y="1482.44" width="1326.85" height="1326.85" filterUnits="userSpaceOnUse" color-interpolation-filters="sRGB">
<feFlood flood-opacity="0" result="BackgroundImageFix"/>
<feBlend mode="normal" in="SourceGraphic" in2="BackgroundImageFix" result="shape"/>
<feGaussianBlur stdDeviation="10.646" result="effect1_foregroundBlur_183_95"/>
</filter>
<linearGradient id="paint0_linear_183_95" x1="427.308" y1="371.539" x2="1574.15" y2="2240.7" gradientUnits="userSpaceOnUse">
<stop stop-color="#FF9500"/>
<stop offset="1" stop-color="#C94D00"/>
</linearGradient>
<clipPath id="clip0_183_95">
<rect x="406.482" y="352.183" width="1522.69" height="1849.6" rx="53.7674" fill="white"/>
</clipPath>
<clipPath id="clip1_183_95">
<rect width="722.634" height="234.426" fill="white" transform="translate(544.126 462)"/>
</clipPath>
</defs>
</svg>
