<svg width="1523" height="1850" viewBox="0 0 1523 1850" fill="none" xmlns="http://www.w3.org/2000/svg">
<g clip-path="url(#clip0_183_174)">
<rect width="1522.69" height="1849.6" rx="53.7674" fill="black"/>
<g filter="url(#filter0_f_183_174)">
<g filter="url(#filter1_f_183_174)">
<circle cx="1507.64" cy="1793.68" r="1176.43" fill="#2176C6" fill-opacity="0.5"/>
</g>
<g filter="url(#filter2_f_183_174)">
<circle cx="1507.64" cy="1793.68" r="915.002" fill="#2176C6" fill-opacity="0.6"/>
</g>
<g filter="url(#filter3_f_183_174)">
<circle cx="1507.64" cy="1793.68" r="642.135" fill="#2176C6" fill-opacity="0.8"/>
</g>
<circle cx="1507.64" cy="1793.68" r="408.483" fill="#2276C5"/>
<circle cx="1507.64" cy="1793.68" r="187.109" fill="black"/>
</g>
<mask id="path-7-outside-1_183_174" maskUnits="userSpaceOnUse" x="-2.94531" y="1.35645" width="1528" height="1847" fill="black">
<rect fill="white" x="-2.94531" y="1.35645" width="1528" height="1847"/>
<path d="M1464.62 19.3564C1488.38 19.3567 1507.64 38.6145 1507.64 62.3701V1787.23C1507.64 1810.99 1488.38 1830.24 1464.62 1830.24H58.0684C34.3126 1830.24 15.0547 1810.99 15.0547 1787.23V62.3701C15.0549 38.6144 34.3126 19.3566 58.0684 19.3564H1464.62Z"/>
</mask>
<path d="M1464.62 19.3564L1464.63 2.15087H1464.62V19.3564ZM1507.64 62.3701H1524.84V62.37L1507.64 62.3701ZM1507.64 1787.23H1524.84H1507.64ZM1464.62 1830.24V1847.45H1464.63L1464.62 1830.24ZM58.0684 1830.24L58.0682 1847.45H58.0684V1830.24ZM15.0547 1787.23H-2.15089H15.0547ZM15.0547 62.3701L-2.15089 62.37V62.3701H15.0547ZM58.0684 19.3564V2.15087H58.0683L58.0684 19.3564ZM1464.62 19.3564L1464.62 36.562C1478.88 36.5622 1490.43 48.1169 1490.43 62.3702L1507.64 62.3701L1524.84 62.37C1524.84 29.112 1497.88 2.15122 1464.63 2.15087L1464.62 19.3564ZM1507.64 62.3701H1490.43V1787.23H1507.64H1524.84V62.3701H1507.64ZM1507.64 1787.23H1490.43C1490.43 1801.48 1478.88 1813.04 1464.62 1813.04L1464.62 1830.24L1464.63 1847.45C1497.88 1847.45 1524.84 1820.49 1524.84 1787.23H1507.64ZM1464.62 1830.24V1813.04H58.0684V1830.24V1847.45H1464.62V1830.24ZM58.0684 1830.24L58.0685 1813.04C43.8149 1813.04 32.2603 1801.48 32.2603 1787.23H15.0547H-2.15089C-2.15087 1820.49 24.8103 1847.45 58.0682 1847.45L58.0684 1830.24ZM15.0547 1787.23H32.2603V62.3701H15.0547H-2.15089V1787.23H15.0547ZM15.0547 62.3701L32.2603 62.3702C32.2604 48.1168 43.8151 36.5621 58.0685 36.562L58.0684 19.3564L58.0683 2.15087C24.8102 2.15108 -2.15066 29.112 -2.15089 62.37L15.0547 62.3701ZM58.0684 19.3564V36.562H1464.62V19.3564V2.15087H58.0684V19.3564Z" fill="url(#paint0_linear_183_174)" mask="url(#path-7-outside-1_183_174)"/>
<path d="M276.537 695.176L330.319 695.297L329.781 874.247L294.938 874.168L295.302 753.129C295.313 749.648 295.368 744.792 295.468 738.56C295.567 732.248 295.623 727.392 295.633 723.992L261.309 874.093L225.01 874.011L191.832 723.759C191.822 727.158 191.848 732.014 191.91 738.328C191.972 744.56 191.998 749.416 191.987 752.896L191.624 873.936L156.781 873.858L157.319 694.908L211.708 695.031L243.821 835.811L276.537 695.176ZM443.739 847.794C458.55 847.827 470.302 842.39 478.995 831.483C487.769 820.577 492.186 805.047 492.247 784.894C492.307 764.822 487.983 749.313 479.275 738.367C470.648 727.34 458.929 721.81 444.118 721.777C429.306 721.743 417.473 727.18 408.618 738.086C399.763 748.993 395.306 764.523 395.245 784.676C395.184 804.829 399.549 820.378 408.338 831.325C417.127 842.271 428.927 847.76 443.739 847.794ZM529.639 784.978C529.543 817.109 520.444 841.694 502.344 858.731C488.786 872.621 469.219 879.538 443.643 879.48C418.068 879.423 398.542 872.418 385.068 858.467C366.99 841.349 357.999 816.724 358.095 784.592C358.194 751.813 367.333 727.229 385.512 710.84C399.07 696.949 418.637 690.033 444.213 690.09C469.789 690.148 489.314 697.152 502.788 711.104C520.788 727.574 529.738 752.199 529.639 784.978ZM637.257 848.229C652.068 848.262 663.82 842.825 672.513 831.919C681.287 821.012 685.704 805.482 685.765 785.329C685.825 765.257 681.501 749.748 672.793 738.802C664.166 727.775 652.447 722.245 637.636 722.212C622.824 722.178 610.991 727.615 602.136 738.522C593.282 749.428 588.824 764.958 588.763 785.111C588.703 805.264 593.067 820.813 601.856 831.76C610.645 842.706 622.445 848.196 637.257 848.229ZM723.157 785.413C723.061 817.545 713.962 842.129 695.862 859.166C682.304 873.056 662.737 879.973 637.161 879.915C611.586 879.858 592.061 872.853 578.586 858.902C560.508 841.784 551.517 817.159 551.614 785.027C551.712 752.248 560.851 727.664 579.03 711.275C592.588 697.384 612.155 690.468 637.731 690.525C663.307 690.583 682.832 697.587 696.306 711.539C714.306 728.009 723.256 752.634 723.157 785.413ZM751.47 696.244L790.684 696.332L861.572 821.417L861.948 696.493L896.791 696.571L896.253 875.52L858.86 875.436L786.157 748.162L785.775 875.272L750.932 875.193L751.47 696.244ZM257.69 1028.07C257.718 1018.77 255.269 1012.12 250.344 1008.15C245.5 1004.17 238.667 1002.17 229.845 1002.15L195.002 1002.07L194.843 1054.76L229.686 1054.84C238.508 1054.86 245.354 1052.73 250.223 1048.45C255.173 1044.17 257.662 1037.38 257.69 1028.07ZM294.719 1027.91C294.655 1049.04 289.269 1063.96 278.559 1072.68C267.849 1081.39 252.579 1085.73 232.75 1085.68L194.751 1085.6L194.557 1149.94L157.408 1149.86L157.946 970.91L235.887 971.086C253.855 971.126 268.167 975.772 278.822 985.022C289.478 994.273 294.777 1008.57 294.719 1027.91ZM353.071 1082.68L398.477 1082.78L376.35 1012.31L353.071 1082.68ZM355.713 971.355L397.961 971.45L460.796 1150.54L420.247 1150.45L408.825 1113.64L342.902 1113.49L330.408 1150.25L291.316 1150.16L355.713 971.355ZM510.859 1095.42C511.968 1103.59 514.175 1109.71 517.482 1113.76C523.53 1121.14 533.919 1124.85 548.649 1124.88C557.471 1124.9 564.637 1123.94 570.146 1122.01C580.598 1118.32 585.84 1111.41 585.87 1101.29C585.888 1095.38 583.312 1090.8 578.141 1087.55C572.971 1084.39 564.845 1081.58 553.764 1079.12L534.838 1074.83C516.235 1070.58 503.38 1065.98 496.273 1061.02C484.238 1052.74 478.247 1039.82 478.3 1022.26C478.348 1006.23 484.216 992.93 495.902 982.354C507.589 971.777 524.723 966.515 547.304 966.565C566.162 966.608 582.213 971.662 595.456 981.728C608.781 991.713 615.738 1006.22 616.328 1025.24L580.393 1025.16C579.778 1014.39 575.106 1006.73 566.379 1002.18C560.561 999.172 553.321 997.659 544.661 997.639C535.03 997.617 527.335 999.543 521.577 1003.41C515.819 1007.29 512.929 1012.7 512.908 1019.66C512.889 1026.06 515.707 1030.84 521.363 1034.01C524.999 1036.12 532.762 1038.61 544.651 1041.47L575.465 1048.94C588.972 1052.21 599.157 1056.56 606.02 1062C616.678 1070.44 621.983 1082.63 621.935 1098.58C621.886 1114.93 615.573 1128.51 602.995 1139.33C590.499 1150.06 572.838 1155.41 550.014 1155.36C526.705 1155.3 508.389 1149.96 495.066 1139.33C481.744 1128.61 475.111 1113.95 475.167 1095.33L510.859 1095.42ZM676.697 1095.79C677.806 1103.97 680.013 1110.08 683.319 1114.14C689.368 1121.51 699.757 1125.22 714.487 1125.25C723.309 1125.27 730.475 1124.32 735.984 1122.39C746.436 1118.69 751.677 1111.78 751.708 1101.66C751.726 1095.75 749.149 1091.18 743.979 1087.93C738.809 1084.76 730.683 1081.95 719.602 1079.49L700.676 1075.2C682.073 1070.95 669.218 1066.35 662.111 1061.4C650.076 1053.12 644.085 1040.19 644.138 1022.63C644.186 1006.6 650.054 993.303 661.74 982.727C673.427 972.15 690.561 966.888 713.142 966.938C732 966.981 748.051 972.035 761.294 982.101C774.619 992.086 781.576 1006.59 782.166 1025.61L746.231 1025.53C745.616 1014.76 740.944 1007.1 732.217 1002.55C726.399 999.545 719.159 998.031 710.499 998.012C700.868 997.99 693.173 999.915 687.415 1003.79C681.657 1007.66 678.767 1013.08 678.746 1020.04C678.727 1026.43 681.545 1031.21 687.201 1034.38C690.837 1036.49 698.6 1038.98 710.489 1041.84L741.303 1049.31C754.81 1052.58 764.995 1056.93 771.858 1062.37C782.516 1070.81 787.821 1083.01 787.773 1098.95C787.724 1115.3 781.411 1128.88 768.833 1139.7C756.337 1150.44 738.676 1155.78 715.852 1155.73C692.543 1155.68 674.227 1150.33 660.904 1139.7C647.582 1128.99 640.949 1114.32 641.005 1095.71L676.697 1095.79Z" fill="white"/>
<path d="M163.395 1217.03L163.35 1232.02L174.972 1232.05C180.211 1232.06 183.77 1230.14 183.787 1224.3C183.804 1218.82 180.075 1217.06 175.258 1217.05L163.395 1217.03ZM163.335 1237.02L163.28 1255.26L157.438 1255.25L157.568 1212.01L177.019 1212.06C185.028 1212.08 189.83 1217.27 189.809 1224.25C189.791 1230.27 186.338 1237.07 176.944 1237.05L163.335 1237.02ZM203.622 1236.81L203.566 1255.36L197.725 1255.34L197.855 1212.1L217.848 1212.15C224.953 1212.17 232.052 1214.65 232.024 1223.8C232.005 1230.19 228.746 1232.53 225.971 1234.15C228.437 1235.18 230.903 1236.27 231.126 1242.29L231.464 1250.12C231.516 1252.53 231.815 1253.43 233.618 1254.46L233.615 1255.42L226.449 1255.41C225.614 1252.76 225.453 1246.19 225.458 1244.57C225.469 1241.01 224.759 1236.86 217.773 1236.84L203.622 1236.81ZM203.681 1217.12L203.637 1231.81L217.186 1231.84C221.462 1231.85 225.981 1230.78 226.001 1224.39C226.021 1217.71 221.145 1217.16 218.254 1217.15L203.681 1217.12ZM247.336 1212.22L247.206 1255.45L241.364 1255.44L241.494 1212.2L247.336 1212.22ZM272.837 1249.13L285.173 1212.3L291.737 1212.32L275.829 1255.52L269.627 1255.5L253.979 1212.23L260.483 1212.25L272.717 1249.13L272.837 1249.13ZM316.751 1243.02L299.408 1242.98L294.853 1255.56L288.831 1255.55L305.221 1212.35L311.845 1212.36L327.372 1255.63L320.989 1255.62L316.751 1243.02ZM301.23 1237.81L314.659 1237.84L308.333 1218.8L308.212 1218.8L301.23 1237.81ZM321.878 1217.56L321.894 1212.38L357.002 1212.46L356.986 1217.64L342.353 1217.61L342.239 1255.67L336.397 1255.65L336.512 1217.6L321.878 1217.56ZM394.845 1250.61L394.83 1255.79L362.914 1255.71L363.044 1212.48L394.538 1212.55L394.523 1217.73L368.869 1217.67L368.829 1230.92L392.496 1230.97L392.48 1236.15L368.814 1236.1L368.77 1250.55L394.845 1250.61ZM443.423 1243.31L426.08 1243.27L421.526 1255.85L415.504 1255.83L431.893 1212.63L438.517 1212.65L454.044 1255.92L447.661 1255.9L443.423 1243.31ZM427.902 1238.09L441.331 1238.13L435.005 1219.08L434.885 1219.08L427.902 1238.09ZM459.704 1255.93L459.834 1212.69L477.358 1212.73C488.619 1212.76 495.519 1221.33 495.481 1233.79C495.452 1243.49 491.199 1256 476.987 1255.97L459.704 1255.93ZM465.661 1217.71L465.561 1250.95L476.882 1250.97C484.47 1250.99 489.425 1245.04 489.458 1234.14C489.491 1223.24 484.509 1217.75 476.56 1217.73L465.661 1217.71ZM544.113 1256.12L538.452 1256.11L538.529 1230.58C538.533 1229.31 538.67 1223.83 538.682 1219.8L538.561 1219.8L526.288 1256.08L520.507 1256.07L508.451 1219.79L508.331 1219.79C508.319 1223.76 508.423 1229.24 508.419 1230.51L508.342 1256.04L502.682 1256.03L502.812 1212.79L511.182 1212.81L523.417 1249.39L523.538 1249.39L535.932 1212.86L544.243 1212.88L544.113 1256.12ZM559.9 1212.92L559.77 1256.16L553.929 1256.14L554.059 1212.91L559.9 1212.92ZM601.433 1225.66L595.953 1225.65C595.672 1218.96 590.138 1216.84 585.26 1216.83C581.587 1216.82 575.381 1217.83 575.361 1224.4C575.35 1228.07 577.936 1229.28 580.464 1229.89L592.8 1232.74C598.396 1234.08 602.602 1237.46 602.581 1244.33C602.55 1254.57 593.027 1257.38 585.62 1257.36C577.611 1257.34 574.487 1254.92 572.565 1253.17C568.902 1249.85 568.19 1246.24 568.202 1242.2L573.682 1242.22C573.658 1250.05 580.035 1252.35 585.575 1252.36C589.79 1252.37 596.899 1251.3 596.918 1245.1C596.932 1240.58 594.828 1239.13 587.727 1237.43L578.881 1235.36C576.053 1234.69 569.676 1232.69 569.698 1225.17C569.719 1218.42 574.135 1211.81 584.613 1211.83C599.728 1211.86 601.206 1220.9 601.433 1225.66ZM641.599 1225.75L636.119 1225.74C635.838 1219.05 630.304 1216.93 625.426 1216.92C621.753 1216.91 615.547 1217.92 615.527 1224.49C615.516 1228.16 618.102 1229.37 620.629 1229.98L632.966 1232.84C638.562 1234.17 642.768 1237.55 642.747 1244.42C642.716 1254.66 633.193 1257.47 625.786 1257.45C617.777 1257.43 614.653 1255.02 612.731 1253.26C609.067 1249.94 608.356 1246.33 608.368 1242.29L613.848 1242.31C613.824 1250.14 620.201 1252.44 625.741 1252.45C629.956 1252.46 637.065 1251.39 637.084 1245.19C637.097 1240.67 634.994 1239.22 627.893 1237.52L619.047 1235.45C616.219 1234.78 609.842 1232.78 609.864 1225.26C609.885 1218.51 614.301 1211.9 624.779 1211.92C639.894 1211.95 641.372 1220.99 641.599 1225.75ZM656.992 1213.14L656.862 1256.37L651.021 1256.36L651.151 1213.12L656.992 1213.14ZM700.846 1234.85C700.877 1224.68 695.239 1217.26 685.844 1217.24C676.45 1217.22 670.767 1224.61 670.737 1234.79C670.706 1244.96 676.344 1252.38 685.739 1252.4C695.133 1252.43 700.816 1245.03 700.846 1234.85ZM706.868 1234.87C706.84 1244.2 701.862 1257.62 685.723 1257.58C669.584 1257.55 664.687 1244.11 664.715 1234.77C664.743 1225.44 669.721 1212.02 685.86 1212.06C701.999 1212.09 706.896 1225.53 706.868 1234.87ZM742.437 1248.26L742.542 1213.33L748.203 1213.34L748.073 1256.58L741.509 1256.56L719.634 1221.59L719.513 1221.59L719.408 1256.52L713.748 1256.5L713.878 1213.27L720.803 1213.28L742.317 1248.26L742.437 1248.26Z" fill="white"/>
<g clip-path="url(#clip1_183_174)">
<ellipse cx="232.145" cy="226.553" rx="67.6097" ry="65.7873" fill="black"/>
<path d="M140.373 204.897C151.424 169.07 189.427 148.988 225.243 160.043C261.068 171.098 281.147 209.109 270.092 244.935C259.037 280.758 221.032 300.835 185.205 289.78C149.396 278.726 129.316 240.719 140.373 204.897ZM201.158 192.633C199.56 192.175 197.991 191.723 196.47 191.255L196.479 191.217L186.362 188.091L183.946 195.927C183.982 195.937 189.395 197.496 189.274 197.567C192.246 198.485 192.683 200.51 192.503 202.085L188.266 215.816C188.47 215.881 188.735 215.972 189.025 216.106L188.253 215.869L182.312 235.104C181.893 235.999 180.883 237.321 178.806 236.684C178.874 236.795 173.514 235.049 173.474 235.036L169.312 243.351L178.861 246.297C180.637 246.847 182.376 247.417 184.087 247.957L180.328 260.15L187.656 262.414L191.38 250.352C193.377 251.014 195.32 251.632 197.222 252.217L193.514 264.222L200.85 266.485L204.607 254.316C217.16 257.415 226.753 256.972 231.396 245.723C235.139 236.663 232.039 231.147 225.557 227.303C230.479 226.445 234.318 223.45 235.658 216.899C237.502 207.952 230.9 202.724 221.687 198.972L225.405 186.918L218.066 184.654L214.445 196.391C212.519 195.796 210.536 195.225 208.565 194.66L212.212 182.847L204.879 180.584L201.158 192.633ZM199.272 225.378C204.246 226.914 220.274 230.296 217.348 239.798C214.538 248.909 199.262 243.061 194.286 241.529L199.272 225.378ZM206.073 203.336C210.217 204.614 223.635 207.312 220.966 215.957C218.406 224.244 205.695 219.262 201.552 217.984L206.073 203.336Z" fill="white"/>
<path d="M327.428 211.627C330.364 211.634 332.901 212.159 335.039 213.204C337.177 214.249 338.947 215.66 340.349 217.437C341.75 219.214 342.784 221.297 343.45 223.684C344.116 226.071 344.444 228.642 344.436 231.394C344.423 235.616 343.616 239.621 342.014 243.41C340.474 247.138 338.353 250.406 335.653 253.214C332.953 255.961 329.765 258.156 326.09 259.8C322.414 261.382 318.436 262.168 314.153 262.159C313.603 262.158 312.624 262.125 311.217 262.06C309.871 262.057 308.312 261.932 306.538 261.683C304.765 261.434 302.87 261.063 300.852 260.569C298.896 260.075 297.033 259.398 295.261 258.538L311.337 191.862L325.566 189.691L319.806 213.353C321.031 212.806 322.256 212.38 323.48 212.077C324.705 211.774 326.02 211.624 327.428 211.627ZM315.38 250.875C317.521 250.879 319.542 250.364 321.441 249.328C323.341 248.293 324.966 246.92 326.317 245.21C327.73 243.439 328.837 241.453 329.639 239.253C330.44 237.052 330.845 234.759 330.852 232.373C330.861 229.437 330.378 227.142 329.405 225.488C328.431 223.834 326.629 223.004 323.998 222.998C323.142 222.996 322.009 223.146 320.601 223.449C319.255 223.752 318.029 224.392 316.925 225.368L310.793 250.497C311.16 250.559 311.466 250.621 311.71 250.683C312.016 250.745 312.322 250.807 312.627 250.868C312.933 250.869 313.3 250.87 313.729 250.871C314.157 250.872 314.707 250.873 315.38 250.875ZM361.617 260.981L348.036 260.95L359.651 212.709L373.324 212.74L361.617 260.981ZM368.386 206.856C366.49 206.851 364.779 206.297 363.253 205.192C361.727 204.027 360.967 202.281 360.974 199.957C360.978 198.672 361.226 197.48 361.719 196.38C362.273 195.219 362.98 194.241 363.838 193.448C364.697 192.593 365.678 191.923 366.781 191.436C367.945 190.949 369.169 190.707 370.454 190.71C372.35 190.714 374.061 191.299 375.587 192.465C377.113 193.57 377.873 195.284 377.866 197.609C377.862 198.894 377.583 200.116 377.029 201.278C376.536 202.378 375.86 203.355 375.001 204.209C374.142 205.003 373.131 205.643 371.967 206.13C370.865 206.617 369.671 206.859 368.386 206.856ZM387.327 200.75L401.556 198.58L398.027 212.795L413.259 212.829L410.473 224.018L395.332 223.984L391.244 240.86C390.872 242.266 390.624 243.58 390.498 244.804C390.433 246.027 390.582 247.098 390.947 248.016C391.372 248.874 392.074 249.548 393.051 250.04C394.029 250.532 395.374 250.779 397.087 250.783C398.555 250.786 399.962 250.667 401.309 250.426C402.717 250.123 404.125 249.728 405.534 249.242L406.511 259.705C404.674 260.374 402.684 260.951 400.542 261.435C398.399 261.92 395.859 262.159 392.923 262.152C388.702 262.143 385.431 261.524 383.11 260.295C380.789 259.005 379.143 257.289 378.17 255.145C377.198 252.941 376.777 250.432 376.908 247.618C377.039 244.804 377.476 241.838 378.22 238.72L387.327 200.75ZM413.665 241.828C413.677 237.668 414.362 233.754 415.719 230.086C417.076 226.419 419.012 223.212 421.529 220.464C424.045 217.717 427.08 215.552 430.633 213.97C434.247 212.387 438.256 211.601 442.661 211.611C445.414 211.617 447.86 211.898 450 212.453C452.2 212.948 454.187 213.625 455.958 214.485L451.246 225.119C450.024 224.627 448.741 224.196 447.396 223.826C446.113 223.395 444.523 223.177 442.626 223.173C438.038 223.163 434.424 224.714 431.784 227.829C429.144 230.881 427.817 235.069 427.801 240.391C427.791 243.511 428.456 246.051 429.796 248.012C431.137 249.911 433.611 250.865 437.221 250.873C438.995 250.877 440.708 250.698 442.361 250.334C444.014 249.971 445.484 249.515 446.77 248.968L447.746 259.89C446.031 260.559 444.133 261.136 442.052 261.621C440.031 262.167 437.553 262.436 434.617 262.43C430.824 262.421 427.614 261.863 424.986 260.756C422.359 259.649 420.192 258.176 418.485 256.337C416.777 254.437 415.53 252.232 414.742 249.722C414.016 247.212 413.656 244.58 413.665 241.828ZM474.449 262.519C471.207 262.512 468.394 262.016 466.011 261.032C463.628 260.048 461.644 258.667 460.059 256.889C458.535 255.112 457.379 253.029 456.591 250.642C455.803 248.193 455.413 245.5 455.422 242.564C455.433 238.893 456.025 235.224 457.199 231.556C458.433 227.888 460.217 224.589 462.551 221.658C464.884 218.727 467.736 216.347 471.106 214.519C474.477 212.631 478.333 211.691 482.677 211.701C485.858 211.708 488.64 212.204 491.023 213.188C493.467 214.172 495.451 215.553 496.975 217.331C498.56 219.108 499.747 221.221 500.535 223.67C501.323 226.058 501.712 228.72 501.704 231.656C501.693 235.327 501.1 238.996 499.927 242.664C498.754 246.332 497.031 249.631 494.759 252.563C492.486 255.494 489.634 257.904 486.203 259.793C482.833 261.62 478.915 262.529 474.449 262.519ZM481.357 223.26C479.339 223.256 477.563 223.833 476.03 224.992C474.497 226.15 473.208 227.616 472.163 229.388C471.117 231.159 470.316 233.115 469.759 235.255C469.263 237.334 469.013 239.321 469.007 241.218C468.998 244.338 469.48 246.755 470.454 248.47C471.427 250.124 473.199 250.954 475.768 250.96C477.787 250.965 479.563 250.387 481.096 249.228C482.629 248.07 483.918 246.604 484.963 244.833C486.008 243.061 486.779 241.136 487.275 239.057C487.832 236.917 488.113 234.899 488.119 233.002C488.128 229.882 487.646 227.495 486.672 225.841C485.698 224.126 483.927 223.266 481.357 223.26ZM518.886 261.334L505.305 261.304L516.921 213.063L530.593 213.093L518.886 261.334ZM525.656 207.209C523.759 207.205 522.048 206.651 520.522 205.546C518.996 204.38 518.237 202.635 518.244 200.31C518.248 199.026 518.496 197.833 518.989 196.733C519.543 195.572 520.249 194.595 521.108 193.802C521.967 192.947 522.948 192.276 524.05 191.789C525.214 191.303 526.438 191.061 527.723 191.064C529.62 191.068 531.331 191.653 532.857 192.819C534.383 193.923 535.142 195.638 535.135 197.963C535.131 199.247 534.852 200.47 534.298 201.631C533.806 202.731 533.13 203.709 532.271 204.563C531.412 205.356 530.401 205.996 529.237 206.483C528.134 206.97 526.94 207.212 525.656 207.209ZM542.534 215.322C543.575 215.019 544.708 214.685 545.933 214.321C547.219 213.895 548.627 213.531 550.157 213.229C551.749 212.866 553.493 212.594 555.39 212.415C557.348 212.175 559.551 212.057 561.998 212.063C569.217 212.079 574.166 214.17 576.845 218.336C579.524 222.502 579.966 228.192 578.17 235.407L571.852 261.454L558.179 261.423L564.312 235.926C564.684 234.337 564.964 232.808 565.152 231.34C565.401 229.811 565.405 228.496 565.164 227.394C564.923 226.231 564.344 225.312 563.429 224.638C562.574 223.901 561.23 223.531 559.394 223.527C557.62 223.523 555.815 223.703 553.979 224.066L544.965 261.393L531.293 261.362L542.534 215.322ZM599.24 197.923L613.555 197.955L598.039 261.512L583.816 261.48L599.24 197.923ZM623.186 215.504C624.226 215.2 625.359 214.866 626.584 214.502C627.87 214.077 629.278 213.713 630.808 213.41C632.4 213.047 634.144 212.776 636.041 212.596C637.999 212.356 640.202 212.239 642.649 212.244C649.868 212.26 654.817 214.351 657.496 218.517C660.175 222.683 660.617 228.374 658.821 235.588L652.503 261.635L638.83 261.604L644.963 236.108C645.335 234.518 645.615 232.989 645.803 231.521C646.052 229.993 646.056 228.677 645.815 227.576C645.574 226.413 644.995 225.494 644.08 224.819C643.225 224.083 641.881 223.713 640.045 223.709C638.271 223.705 636.466 223.884 634.63 224.247L625.616 261.574L611.944 261.544L623.186 215.504ZM683.917 262.99C680.858 262.983 678.229 262.457 676.03 261.412C673.892 260.368 672.122 258.957 670.721 257.179C669.38 255.341 668.377 253.228 667.711 250.841C667.107 248.393 666.809 245.792 666.817 243.039C666.83 238.879 667.576 234.966 669.055 231.298C670.595 227.57 672.685 224.333 675.324 221.586C677.963 218.839 681.089 216.674 684.703 215.092C688.318 213.509 692.266 212.723 696.548 212.732C697.649 212.735 698.658 212.798 699.576 212.923C700.554 213.047 701.532 213.233 702.51 213.48L707.528 192.753L721.758 190.582L709.494 240.933C708.627 244.418 708.371 247.935 708.728 251.484C709.084 254.972 709.779 258.093 710.81 260.848L698.601 262.564C698.236 261.829 697.901 261.125 697.597 260.452C697.294 259.778 696.99 259.013 696.687 258.155C694.97 259.559 693.039 260.717 690.895 261.629C688.812 262.542 686.486 262.996 683.917 262.99ZM699.816 224.394C699.45 224.332 699.113 224.27 698.808 224.208C698.563 224.146 698.288 224.115 697.982 224.114C697.737 224.052 697.401 224.021 696.973 224.02C696.545 224.019 695.994 224.018 695.321 224.016C693.18 224.012 691.19 224.527 689.352 225.563C687.514 226.538 685.919 227.88 684.568 229.59C683.278 231.3 682.263 233.255 681.522 235.456C680.782 237.595 680.408 239.797 680.401 242.06C680.392 244.997 680.875 247.322 681.848 249.038C682.883 250.692 684.716 251.522 687.347 251.527C688.754 251.531 690.039 251.258 691.203 250.71C692.367 250.162 693.594 249.247 694.882 247.966C695.009 246.437 695.197 244.846 695.447 243.195C695.758 241.483 696.069 239.924 696.379 238.517L699.816 224.394ZM731.715 261.813L718.134 261.782L729.75 213.541L743.422 213.572L731.715 261.813ZM738.485 207.688C736.588 207.684 734.877 207.129 733.351 206.025C731.825 204.859 731.066 203.114 731.073 200.789C731.077 199.504 731.325 198.312 731.818 197.212C732.372 196.051 733.078 195.074 733.937 194.28C734.796 193.426 735.777 192.755 736.879 192.268C738.043 191.781 739.267 191.539 740.552 191.542C742.449 191.546 744.16 192.131 745.686 193.297C747.212 194.402 747.971 196.116 747.964 198.441C747.96 199.726 747.681 200.949 747.127 202.11C746.635 203.21 745.959 204.187 745.1 205.042C744.241 205.835 743.23 206.475 742.066 206.962C740.963 207.449 739.769 207.691 738.485 207.688ZM789.423 241.112C788.556 244.598 788.301 248.115 788.658 251.664C789.014 255.151 789.708 258.273 790.74 261.028L778.53 262.744C778.165 262.009 777.831 261.305 777.527 260.631C777.223 259.958 776.92 259.192 776.617 258.335C774.899 259.738 772.999 260.896 770.917 261.809C768.834 262.722 766.508 263.176 763.939 263.17C760.88 263.163 758.251 262.637 756.052 261.592C753.914 260.486 752.144 259.045 750.742 257.268C749.402 255.429 748.43 253.317 747.825 250.929C747.221 248.481 746.923 245.88 746.931 243.127C746.944 238.906 747.69 234.932 749.169 231.203C750.71 227.475 752.799 224.237 755.438 221.49C758.138 218.682 761.295 216.487 764.91 214.905C768.524 213.322 772.441 212.536 776.662 212.545C777.213 212.547 778.161 212.579 779.507 212.644C780.914 212.708 782.504 212.864 784.277 213.113C786.051 213.301 787.915 213.641 789.872 214.135C791.828 214.629 793.692 215.306 795.463 216.166L789.423 241.112ZM779.931 224.207C779.136 224.083 778.402 223.989 777.729 223.926C777.118 223.864 776.353 223.832 775.436 223.829C773.356 223.825 771.396 224.34 769.558 225.376C767.781 226.412 766.217 227.785 764.866 229.495C763.515 231.144 762.439 233.068 761.637 235.269C760.896 237.47 760.522 239.763 760.515 242.149C760.506 245.085 760.988 247.411 761.962 249.126C762.936 250.841 764.738 251.702 767.368 251.707C768.775 251.711 770.03 251.438 771.133 250.89C772.297 250.342 773.523 249.427 774.812 248.145C774.939 246.616 775.127 245.026 775.377 243.375C775.688 241.663 775.998 240.103 776.309 238.697L779.931 224.207Z" fill="white"/>
</g>
<path d="M184.032 1548.56C187.758 1548.57 190.603 1549.31 192.566 1550.77C194.559 1552.24 195.551 1554.33 195.543 1557.04C195.536 1559.18 195.113 1561.02 194.274 1562.54C193.465 1564.02 192.329 1565.24 190.865 1566.19C189.431 1567.14 187.7 1567.84 185.672 1568.28C183.674 1568.7 181.467 1568.9 179.053 1568.9L176.638 1568.89L173.967 1579.84L168.333 1579.83L175.713 1549.3C177.145 1549.01 178.576 1548.82 180.007 1548.73C181.439 1548.62 182.78 1548.56 184.032 1548.56ZM183.481 1553.3C182.915 1553.3 182.378 1553.31 181.872 1553.34C181.365 1553.37 180.858 1553.41 180.351 1553.47L177.77 1564.15L180.051 1564.16C181.302 1564.16 182.51 1564.06 183.673 1563.85C184.836 1563.65 185.866 1563.31 186.762 1562.83C187.657 1562.33 188.375 1561.66 188.914 1560.82C189.453 1559.96 189.725 1558.87 189.728 1557.56C189.733 1556.04 189.17 1554.95 188.039 1554.29C186.938 1553.64 185.419 1553.3 183.481 1553.3ZM212.542 1561.32C211.946 1561.11 211.306 1560.95 210.621 1560.83C209.935 1560.71 209.131 1560.65 208.207 1560.64C207.7 1560.64 207.163 1560.69 206.597 1560.77C206.03 1560.83 205.553 1560.92 205.165 1561.04L200.592 1579.9L195.182 1579.89L200.615 1557.59C201.868 1557.17 203.225 1556.82 204.687 1556.52C206.148 1556.2 207.729 1556.04 209.428 1556.04C209.786 1556.04 210.188 1556.07 210.635 1556.13C211.082 1556.16 211.514 1556.21 211.931 1556.27C212.378 1556.33 212.78 1556.41 213.138 1556.5C213.525 1556.59 213.853 1556.69 214.12 1556.81L212.542 1561.32ZM214.14 1571.48C214.146 1569.48 214.464 1567.56 215.096 1565.71C215.757 1563.84 216.686 1562.18 217.883 1560.76C219.11 1559.3 220.574 1558.14 222.275 1557.28C223.977 1556.42 225.886 1555.99 228.003 1555.99C230.268 1556 232.025 1556.58 233.273 1557.75C234.522 1558.91 235.143 1560.41 235.138 1562.22C235.132 1564.1 234.666 1565.62 233.738 1566.78C232.811 1567.94 231.601 1568.85 230.108 1569.5C228.646 1570.15 226.975 1570.6 225.096 1570.83C223.247 1571.07 221.369 1571.21 219.461 1571.27C219.431 1571.33 219.416 1571.39 219.416 1571.45L219.414 1571.89C219.406 1574.6 221.116 1575.97 224.544 1575.97C226.571 1575.98 228.599 1575.56 230.629 1574.73L231.063 1579.12C230.347 1579.44 229.332 1579.77 228.02 1580.09C226.707 1580.42 225.216 1580.58 223.547 1580.58C221.877 1580.57 220.447 1580.33 219.256 1579.85C218.066 1579.37 217.084 1578.71 216.311 1577.88C215.569 1577.04 215.02 1576.09 214.666 1575.01C214.311 1573.91 214.136 1572.73 214.14 1571.48ZM227.184 1560.42C226.29 1560.42 225.44 1560.59 224.634 1560.95C223.828 1561.31 223.111 1561.8 222.483 1562.42C221.856 1563.04 221.302 1563.79 220.822 1564.65C220.373 1565.49 220.042 1566.39 219.83 1567.38C223.408 1567.27 226.003 1566.84 227.614 1566.1C229.256 1565.36 230.079 1564.24 230.084 1562.75C230.086 1562.15 229.864 1561.62 229.418 1561.14C229.002 1560.66 228.258 1560.42 227.184 1560.42ZM243.209 1576.19C244.639 1576.2 245.773 1575.98 246.609 1575.53C247.445 1575.06 247.864 1574.34 247.867 1573.39C247.87 1572.61 247.603 1572 247.068 1571.55C246.533 1571.07 245.595 1570.52 244.256 1569.89C243.542 1569.56 242.872 1569.22 242.247 1568.86C241.652 1568.5 241.131 1568.08 240.686 1567.6C240.24 1567.12 239.884 1566.57 239.618 1565.95C239.351 1565.29 239.22 1564.51 239.222 1563.62C239.229 1561.3 240.084 1559.45 241.788 1558.08C243.491 1556.71 245.952 1556.03 249.171 1556.04C250.662 1556.04 251.988 1556.21 253.149 1556.54C254.341 1556.84 255.234 1557.16 255.829 1557.49L253.894 1561.69C253.388 1561.39 252.659 1561.1 251.706 1560.83C250.753 1560.53 249.755 1560.38 248.711 1560.38C248.204 1560.38 247.698 1560.42 247.191 1560.51C246.713 1560.6 246.281 1560.74 245.893 1560.95C245.504 1561.16 245.176 1561.46 244.906 1561.84C244.667 1562.2 244.546 1562.65 244.544 1563.18C244.542 1563.87 244.809 1564.44 245.344 1564.89C245.909 1565.3 246.713 1565.75 247.755 1566.23C248.737 1566.68 249.57 1567.12 250.255 1567.54C250.939 1567.95 251.504 1568.43 251.949 1568.97C252.395 1569.48 252.721 1570.06 252.928 1570.72C253.135 1571.34 253.237 1572.1 253.234 1573C253.231 1574.1 253.004 1575.13 252.554 1576.08C252.104 1577 251.446 1577.81 250.579 1578.49C249.743 1579.14 248.698 1579.66 247.445 1580.05C246.192 1580.43 244.76 1580.62 243.151 1580.62C242.048 1580.62 241.049 1580.54 240.156 1580.39C239.291 1580.24 238.532 1580.07 237.877 1579.89C237.221 1579.68 236.671 1579.47 236.224 1579.26C235.778 1579.05 235.435 1578.87 235.197 1578.72L237.133 1574.48C237.341 1574.6 237.639 1574.77 238.026 1574.97C238.442 1575.15 238.904 1575.33 239.41 1575.51C239.946 1575.69 240.527 1575.86 241.152 1576.01C241.808 1576.13 242.493 1576.19 243.209 1576.19ZM257.15 1571.57C257.156 1569.58 257.474 1567.66 258.106 1565.81C258.767 1563.93 259.696 1562.28 260.893 1560.85C262.12 1559.39 263.584 1558.23 265.285 1557.37C266.987 1556.51 268.896 1556.09 271.013 1556.09C273.278 1556.1 275.035 1556.68 276.284 1557.85C277.532 1559.01 278.154 1560.5 278.148 1562.32C278.142 1564.2 277.676 1565.72 276.748 1566.88C275.821 1568.04 274.611 1568.95 273.118 1569.6C271.656 1570.25 269.985 1570.69 268.106 1570.93C266.258 1571.16 264.379 1571.31 262.471 1571.36C262.441 1571.42 262.426 1571.48 262.426 1571.54L262.425 1571.99C262.416 1574.7 264.126 1576.06 267.554 1576.07C269.581 1576.07 271.61 1575.66 273.639 1574.83L274.073 1579.21C273.357 1579.54 272.342 1579.87 271.03 1580.19C269.717 1580.52 268.226 1580.68 266.557 1580.67C264.888 1580.67 263.457 1580.43 262.267 1579.95C261.076 1579.47 260.094 1578.81 259.321 1577.97C258.579 1577.14 258.03 1576.18 257.676 1575.11C257.321 1574 257.146 1572.83 257.15 1571.57ZM270.195 1560.52C269.3 1560.51 268.45 1560.69 267.644 1561.05C266.838 1561.4 266.121 1561.89 265.494 1562.52C264.866 1563.14 264.312 1563.89 263.832 1564.75C263.383 1565.58 263.052 1566.49 262.841 1567.47C266.418 1567.36 269.013 1566.94 270.625 1566.19C272.266 1565.45 273.089 1564.34 273.094 1562.85C273.096 1562.25 272.874 1561.71 272.428 1561.24C272.012 1560.76 271.268 1560.52 270.195 1560.52ZM284.889 1557.69C286.082 1557.33 287.439 1557.01 288.96 1556.71C290.511 1556.39 292.196 1556.23 294.014 1556.23C296.757 1556.24 298.767 1556.91 300.045 1558.26C301.322 1559.6 301.958 1561.41 301.951 1563.67C301.949 1564.3 301.888 1564.97 301.766 1565.68C301.675 1566.37 301.553 1567.08 301.402 1567.83L298.414 1580.12L293.004 1580.11L295.811 1568.4C295.962 1567.74 296.113 1567.07 296.264 1566.39C296.415 1565.7 296.507 1565.05 296.538 1564.42C296.571 1563.38 296.321 1562.51 295.786 1561.82C295.281 1561.14 294.269 1560.79 292.749 1560.79C291.467 1560.79 290.364 1560.92 289.439 1561.18L284.866 1580.09L279.456 1580.08L284.889 1557.69ZM311.223 1550.59L316.859 1549.71L315.139 1556.77L322.785 1556.79L321.698 1561.26L314.052 1561.24L311.789 1570.49C311.638 1571.15 311.532 1571.7 311.471 1572.14C311.41 1572.56 311.379 1572.95 311.378 1573.31C311.377 1573.66 311.406 1574.02 311.464 1574.38C311.553 1574.71 311.701 1575.01 311.909 1575.27C312.146 1575.51 312.474 1575.72 312.89 1575.9C313.337 1576.05 313.933 1576.13 314.678 1576.13C315.483 1576.13 316.258 1576.03 317.004 1575.82C317.75 1575.62 318.407 1575.39 318.974 1575.16L319.363 1579.49C318.676 1579.79 317.811 1580.07 316.767 1580.34C315.723 1580.6 314.5 1580.74 313.099 1580.73C310.536 1580.73 308.704 1580.17 307.605 1579.07C306.505 1577.93 305.958 1576.39 305.964 1574.46C305.966 1573.74 306.013 1573.01 306.105 1572.27C306.226 1571.49 306.393 1570.67 306.604 1569.81L311.223 1550.59ZM323.695 1571.72C323.701 1569.73 324.02 1567.81 324.652 1565.96C325.313 1564.08 326.242 1562.43 327.439 1561C328.665 1559.54 330.129 1558.38 331.831 1557.52C333.533 1556.66 335.442 1556.24 337.558 1556.24C339.824 1556.25 341.581 1556.83 342.829 1558C344.078 1559.16 344.699 1560.65 344.694 1562.47C344.688 1564.35 344.221 1565.87 343.294 1567.03C342.366 1568.19 341.156 1569.1 339.664 1569.75C338.201 1570.4 336.531 1570.84 334.652 1571.08C332.803 1571.31 330.925 1571.46 329.017 1571.51C328.987 1571.57 328.972 1571.63 328.972 1571.69L328.97 1572.14C328.962 1574.85 330.672 1576.21 334.1 1576.22C336.127 1576.22 338.155 1575.81 340.185 1574.98L340.619 1579.36C339.902 1579.69 338.888 1580.02 337.575 1580.34C336.263 1580.67 334.772 1580.83 333.102 1580.82C331.433 1580.82 330.003 1580.58 328.812 1580.1C327.621 1579.62 326.639 1578.96 325.867 1578.12C325.124 1577.29 324.576 1576.33 324.221 1575.26C323.867 1574.15 323.691 1572.98 323.695 1571.72ZM336.74 1560.66C335.846 1560.66 334.996 1560.84 334.19 1561.2C333.384 1561.55 332.667 1562.04 332.039 1562.67C331.411 1563.29 330.858 1564.03 330.378 1564.9C329.928 1565.73 329.598 1566.64 329.386 1567.62C332.964 1567.51 335.558 1567.09 337.17 1566.34C338.812 1565.6 339.635 1564.49 339.639 1563C339.641 1562.4 339.419 1561.86 338.974 1561.39C338.558 1560.91 337.813 1560.67 336.74 1560.66ZM354.942 1580.87C353.541 1580.87 352.334 1580.64 351.322 1580.19C350.31 1579.71 349.477 1579.07 348.824 1578.26C348.2 1577.46 347.741 1576.5 347.447 1575.4C347.152 1574.3 347.006 1573.1 347.01 1571.82C347.016 1569.82 347.365 1567.9 348.056 1566.06C348.777 1564.18 349.78 1562.54 351.066 1561.14C352.382 1559.72 353.981 1558.59 355.861 1557.76C357.742 1556.9 359.874 1556.47 362.259 1556.47C362.557 1556.48 362.915 1556.49 363.332 1556.52C363.749 1556.55 364.211 1556.63 364.717 1556.75L367.207 1546.47L372.844 1545.59L366.642 1570.93C366.491 1571.61 366.37 1572.31 366.278 1573.03C366.216 1573.71 366.185 1574.37 366.183 1574.99C366.18 1575.8 366.252 1576.6 366.399 1577.41C366.546 1578.21 366.782 1579.05 367.107 1579.92L362.276 1580.62C361.95 1579.99 361.669 1579.23 361.433 1578.34C360.686 1578.99 359.775 1579.59 358.7 1580.12C357.625 1580.62 356.373 1580.87 354.942 1580.87ZM363.631 1561.13C363.065 1561.01 362.38 1560.95 361.575 1560.94C360.204 1560.94 358.951 1561.24 357.816 1561.83C356.682 1562.39 355.711 1563.17 354.903 1564.15C354.095 1565.1 353.466 1566.2 353.015 1567.45C352.594 1568.7 352.381 1570 352.377 1571.34C352.375 1572.03 352.433 1572.67 352.55 1573.26C352.698 1573.86 352.92 1574.38 353.216 1574.83C353.513 1575.28 353.899 1575.64 354.376 1575.91C354.882 1576.18 355.492 1576.31 356.208 1576.31C357.161 1576.32 357.997 1576.12 358.713 1575.74C359.46 1575.35 360.162 1574.82 360.82 1574.13C360.851 1573.51 360.913 1572.85 361.004 1572.17C361.126 1571.48 361.262 1570.81 361.413 1570.15L363.631 1561.13ZM397.563 1556.42C398.935 1556.42 400.111 1556.66 401.094 1557.14C402.106 1557.59 402.938 1558.22 403.592 1559.03C404.245 1559.83 404.734 1560.79 405.059 1561.89C405.383 1562.97 405.544 1564.13 405.54 1565.38C405.534 1567.44 405.17 1569.4 404.449 1571.28C403.728 1573.16 402.695 1574.81 401.349 1576.24C400.033 1577.66 398.42 1578.81 396.51 1579.67C394.599 1580.5 392.452 1580.91 390.067 1580.91C389.71 1580.9 389.233 1580.89 388.637 1580.86C388.041 1580.83 387.385 1580.75 386.67 1580.63C385.955 1580.51 385.225 1580.34 384.48 1580.13C383.736 1579.92 383.051 1579.65 382.426 1579.32L390.35 1546.52L395.986 1545.64L393.088 1557.62C393.745 1557.29 394.447 1557.01 395.192 1556.77C395.938 1556.54 396.729 1556.42 397.563 1556.42ZM390.796 1576.35C392.168 1576.35 393.42 1576.07 394.555 1575.51C395.719 1574.91 396.705 1574.12 397.513 1573.14C398.351 1572.16 398.995 1571.04 399.446 1569.79C399.897 1568.51 400.124 1567.19 400.128 1565.82C400.131 1565.13 400.073 1564.5 399.955 1563.94C399.838 1563.34 399.631 1562.83 399.334 1562.42C399.037 1561.97 398.636 1561.62 398.13 1561.38C397.624 1561.11 396.983 1560.98 396.208 1560.98C395.552 1560.98 394.837 1561.09 394.061 1561.33C393.285 1561.57 392.569 1561.94 391.911 1562.44L388.606 1576.12C388.874 1576.18 389.172 1576.24 389.5 1576.3C389.858 1576.33 390.29 1576.35 390.796 1576.35ZM430.181 1557.03C429.58 1558.73 428.919 1560.5 428.198 1562.35C427.477 1564.16 426.666 1565.99 425.767 1567.84C424.897 1569.69 423.952 1571.53 422.933 1573.38C421.914 1575.19 420.821 1576.97 419.653 1578.69C418.784 1580 417.886 1581.25 416.959 1582.44C416.031 1583.66 415.014 1584.73 413.909 1585.65C412.833 1586.58 411.638 1587.32 410.325 1587.88C409.012 1588.45 407.52 1588.73 405.851 1588.72C404.927 1588.72 404.108 1588.61 403.393 1588.4C402.648 1588.19 402.023 1587.95 401.517 1587.68L403.274 1583.35C403.69 1583.59 404.152 1583.78 404.658 1583.93C405.194 1584.08 405.775 1584.16 406.401 1584.16C407.802 1584.16 409.026 1583.8 410.071 1583.05C411.146 1582.34 412.118 1581.36 412.986 1580.11C412.042 1576.8 411.248 1573.2 410.604 1569.33C409.96 1565.45 409.54 1561.34 409.345 1556.98L414.8 1556.99C414.826 1558.25 414.881 1559.63 414.966 1561.15C415.081 1562.67 415.21 1564.24 415.354 1565.85C415.528 1567.43 415.732 1569 415.966 1570.55C416.2 1572.1 416.464 1573.53 416.758 1574.84C417.657 1573.41 418.496 1571.91 419.276 1570.33C420.055 1568.75 420.776 1567.19 421.436 1565.64C422.096 1564.06 422.667 1562.54 423.149 1561.08C423.66 1559.59 424.096 1558.24 424.458 1557.02L430.181 1557.03Z" fill="white"/>
<path d="M183.396 1664.41C180.983 1664.41 178.51 1664.3 175.977 1664.09C173.444 1663.89 171.153 1663.56 169.103 1663.11L178.877 1622.72C181.17 1622.28 183.564 1621.98 186.058 1621.83C188.592 1621.67 190.904 1621.6 192.996 1621.6C195.409 1621.61 197.479 1621.87 199.207 1622.4C200.975 1622.89 202.4 1623.55 203.484 1624.4C204.607 1625.25 205.428 1626.26 205.948 1627.42C206.507 1628.55 206.785 1629.76 206.781 1631.04C206.779 1631.93 206.675 1632.85 206.471 1633.82C206.308 1634.78 205.943 1635.75 205.377 1636.71C204.851 1637.64 204.105 1638.52 203.137 1639.36C202.209 1640.2 200.981 1640.96 199.45 1641.65C201.258 1642.45 202.581 1643.56 203.422 1644.97C204.262 1646.34 204.68 1647.87 204.675 1649.56C204.669 1651.49 204.281 1653.36 203.512 1655.17C202.742 1656.93 201.511 1658.52 199.818 1659.92C198.124 1661.29 195.929 1662.39 193.232 1663.23C190.536 1664.03 187.257 1664.42 183.396 1664.41ZM182.608 1645.59L179.982 1656.44C180.625 1656.56 181.429 1656.67 182.394 1656.75C183.399 1656.79 184.324 1656.81 185.168 1656.81C186.375 1656.82 187.561 1656.74 188.728 1656.58C189.935 1656.38 191.002 1656.04 191.928 1655.56C192.895 1655.08 193.681 1654.42 194.287 1653.58C194.893 1652.73 195.198 1651.65 195.202 1650.32C195.203 1649.76 195.084 1649.2 194.845 1648.63C194.645 1648.07 194.305 1647.57 193.824 1647.12C193.343 1646.68 192.7 1646.32 191.897 1646.03C191.133 1645.75 190.209 1645.61 189.123 1645.6L182.608 1645.59ZM184.379 1638.53L190.29 1638.55C192.703 1638.55 194.495 1638.03 195.664 1636.99C196.874 1635.95 197.481 1634.7 197.485 1633.26C197.487 1632.49 197.308 1631.85 196.948 1631.32C196.628 1630.76 196.187 1630.32 195.625 1629.99C195.063 1629.67 194.42 1629.45 193.696 1629.33C192.973 1629.16 192.229 1629.08 191.465 1629.08C190.621 1629.08 189.716 1629.12 188.75 1629.19C187.785 1629.23 187.061 1629.29 186.578 1629.37L184.379 1638.53ZM217.432 1663.94L208.504 1663.92L216.14 1632.21L225.128 1632.23L217.432 1663.94ZM221.883 1628.36C220.636 1628.36 219.511 1628 218.508 1627.27C217.505 1626.5 217.005 1625.36 217.01 1623.83C217.013 1622.98 217.176 1622.2 217.5 1621.48C217.864 1620.71 218.328 1620.07 218.893 1619.55C219.458 1618.99 220.102 1618.55 220.827 1618.23C221.592 1617.91 222.397 1617.75 223.242 1617.75C224.488 1617.75 225.613 1618.14 226.616 1618.9C227.619 1619.63 228.119 1620.76 228.114 1622.29C228.112 1623.13 227.928 1623.93 227.564 1624.7C227.24 1625.42 226.796 1626.06 226.231 1626.62C225.666 1627.15 225.002 1627.57 224.237 1627.89C223.512 1628.21 222.727 1628.37 221.883 1628.36ZM234.334 1624.35L243.688 1622.92L241.368 1632.27L251.381 1632.29L249.549 1639.65L239.596 1639.62L236.908 1650.72C236.664 1651.64 236.501 1652.51 236.418 1653.31C236.375 1654.11 236.474 1654.82 236.713 1655.42C236.993 1655.99 237.454 1656.43 238.097 1656.75C238.739 1657.08 239.624 1657.24 240.75 1657.24C241.715 1657.24 242.64 1657.16 243.525 1657.01C244.451 1656.81 245.376 1656.55 246.302 1656.23L246.945 1663.11C245.737 1663.55 244.429 1663.93 243.021 1664.24C241.612 1664.56 239.943 1664.72 238.013 1664.72C235.238 1664.71 233.087 1664.3 231.562 1663.49C230.036 1662.65 228.954 1661.52 228.314 1660.11C227.675 1658.66 227.399 1657.01 227.485 1655.16C227.571 1653.31 227.858 1651.36 228.347 1649.31L234.334 1624.35ZM251.648 1651.35C251.656 1648.62 252.106 1646.05 252.998 1643.64C253.89 1641.22 255.163 1639.12 256.817 1637.31C258.472 1635.5 260.467 1634.08 262.802 1633.04C265.178 1632 267.814 1631.48 270.709 1631.49C272.519 1631.49 274.127 1631.68 275.533 1632.04C276.98 1632.37 278.286 1632.81 279.45 1633.38L276.353 1640.37C275.55 1640.05 274.706 1639.76 273.822 1639.52C272.978 1639.24 271.933 1639.09 270.686 1639.09C267.67 1639.08 265.294 1640.1 263.559 1642.15C261.824 1644.16 260.951 1646.91 260.94 1650.41C260.934 1652.46 261.371 1654.13 262.252 1655.42C263.133 1656.67 264.76 1657.3 267.133 1657.3C268.299 1657.3 269.426 1657.18 270.512 1656.95C271.599 1656.71 272.565 1656.41 273.41 1656.05L274.052 1663.23C272.925 1663.67 271.677 1664.05 270.309 1664.37C268.981 1664.72 267.351 1664.9 265.421 1664.9C262.928 1664.89 260.817 1664.53 259.09 1663.8C257.363 1663.07 255.939 1662.1 254.816 1660.89C253.694 1659.64 252.874 1658.19 252.356 1656.54C251.878 1654.89 251.642 1653.16 251.648 1651.35ZM291.606 1664.96C289.475 1664.95 287.626 1664.63 286.059 1663.98C284.493 1663.33 283.188 1662.42 282.146 1661.26C281.144 1660.09 280.384 1658.72 279.866 1657.15C279.348 1655.54 279.092 1653.77 279.098 1651.84C279.105 1649.43 279.495 1647.01 280.266 1644.6C281.078 1642.19 282.25 1640.02 283.784 1638.09C285.318 1636.17 287.193 1634.6 289.409 1633.4C291.624 1632.16 294.16 1631.54 297.015 1631.55C299.106 1631.55 300.935 1631.88 302.501 1632.53C304.108 1633.17 305.412 1634.08 306.414 1635.25C307.456 1636.42 308.236 1637.81 308.754 1639.42C309.272 1640.99 309.528 1642.74 309.523 1644.67C309.515 1647.08 309.126 1649.49 308.355 1651.9C307.583 1654.31 306.451 1656.48 304.957 1658.41C303.463 1660.34 301.589 1661.92 299.333 1663.16C297.117 1664.37 294.542 1664.96 291.606 1664.96ZM296.147 1639.15C294.82 1639.15 293.653 1639.52 292.645 1640.29C291.638 1641.05 290.79 1642.01 290.103 1643.18C289.416 1644.34 288.889 1645.63 288.523 1647.03C288.197 1648.4 288.032 1649.71 288.029 1650.95C288.022 1653 288.339 1654.59 288.979 1655.72C289.62 1656.81 290.784 1657.35 292.473 1657.36C293.8 1657.36 294.968 1656.98 295.975 1656.22C296.983 1655.46 297.831 1654.49 298.518 1653.33C299.205 1652.16 299.711 1650.9 300.037 1649.53C300.403 1648.13 300.588 1646.8 300.592 1645.55C300.598 1643.5 300.281 1641.93 299.641 1640.84C299.001 1639.72 297.837 1639.15 296.147 1639.15ZM320.818 1664.18L311.89 1664.16L319.526 1632.44L328.514 1632.46L320.818 1664.18ZM325.268 1628.6C324.022 1628.59 322.897 1628.23 321.893 1627.5C320.89 1626.74 320.391 1625.59 320.396 1624.06C320.398 1623.22 320.562 1622.43 320.885 1621.71C321.25 1620.95 321.714 1620.3 322.279 1619.78C322.843 1619.22 323.488 1618.78 324.213 1618.46C324.978 1618.14 325.783 1617.98 326.627 1617.98C327.874 1617.99 328.999 1618.37 330.002 1619.14C331.005 1619.86 331.505 1620.99 331.5 1622.52C331.497 1623.36 331.314 1624.17 330.95 1624.93C330.626 1625.65 330.182 1626.3 329.617 1626.86C329.052 1627.38 328.387 1627.8 327.622 1628.12C326.898 1628.44 326.113 1628.6 325.268 1628.6ZM336.364 1633.93C337.048 1633.73 337.793 1633.51 338.598 1633.27C339.443 1632.99 340.369 1632.75 341.375 1632.55C342.421 1632.31 343.568 1632.14 344.815 1632.02C346.102 1631.86 347.55 1631.78 349.159 1631.79C353.904 1631.8 357.158 1633.17 358.919 1635.91C360.68 1638.65 360.971 1642.39 359.79 1647.13L355.637 1664.26L346.649 1664.24L350.68 1647.47C350.925 1646.43 351.109 1645.42 351.232 1644.46C351.396 1643.45 351.399 1642.59 351.24 1641.87C351.082 1641.1 350.701 1640.5 350.099 1640.05C349.538 1639.57 348.654 1639.33 347.447 1639.32C346.281 1639.32 345.094 1639.44 343.887 1639.68L337.962 1664.22L328.974 1664.2L336.364 1633.93ZM399.325 1627.01C399.401 1628.66 399.496 1630.53 399.61 1632.62C399.765 1634.72 399.919 1636.89 400.073 1639.14C400.268 1641.35 400.462 1643.56 400.656 1645.78C400.851 1647.99 401.046 1650.04 401.241 1651.93C402.293 1649.88 403.365 1647.67 404.458 1645.3C405.551 1642.93 406.644 1640.48 407.738 1637.95C408.831 1635.42 409.905 1632.85 410.958 1630.24C412.052 1627.63 413.085 1625.07 414.058 1622.58L424.011 1622.61C420.851 1630.24 417.632 1637.51 414.354 1644.42C411.076 1651.29 407.557 1657.94 403.798 1664.36L394.99 1664.34C394.675 1662.13 394.38 1660.02 394.105 1658.01C393.87 1655.96 393.634 1653.95 393.399 1651.97C393.204 1650 393.009 1648.01 392.814 1646C392.659 1643.99 392.504 1641.9 392.35 1639.73C390.045 1643.98 387.76 1648.16 385.496 1652.26C383.272 1656.31 380.887 1660.33 378.341 1664.31L369.534 1664.29C369.224 1660.55 368.993 1656.85 368.844 1653.19C368.734 1649.53 368.685 1645.81 368.696 1642.03C368.706 1638.77 368.776 1635.53 368.906 1632.31C369.037 1629.06 369.208 1625.78 369.419 1622.48L378.889 1622.5C378.678 1626.04 378.466 1629.52 378.255 1632.94C378.084 1636.32 377.993 1639.83 377.982 1643.49C377.977 1644.86 377.973 1646.25 377.969 1647.66C377.965 1649.06 378.001 1650.47 378.077 1651.88C379.209 1649.91 380.402 1647.82 381.655 1645.61C382.908 1643.4 384.142 1641.2 385.355 1638.99C386.568 1636.78 387.72 1634.65 388.812 1632.6C389.904 1630.51 390.835 1628.64 391.604 1627L399.325 1627.01ZM448.238 1650.77C447.668 1653.06 447.5 1655.37 447.734 1657.71C447.968 1660 448.425 1662.05 449.103 1663.86L441.077 1664.99C440.837 1664.51 440.617 1664.04 440.417 1663.6C440.217 1663.16 440.018 1662.66 439.819 1662.09C438.69 1663.01 437.441 1663.78 436.072 1664.38C434.702 1664.98 433.173 1665.27 431.484 1665.27C429.474 1665.27 427.745 1664.92 426.3 1664.23C424.894 1663.51 423.731 1662.56 422.809 1661.39C421.928 1660.18 421.289 1658.79 420.892 1657.22C420.494 1655.61 420.298 1653.9 420.304 1652.1C420.312 1649.32 420.803 1646.71 421.775 1644.26C422.788 1641.81 424.162 1639.68 425.896 1637.87C427.671 1636.03 429.747 1634.58 432.123 1633.54C434.498 1632.5 437.074 1631.98 439.849 1631.99C440.211 1631.99 440.834 1632.01 441.719 1632.06C442.643 1632.1 443.689 1632.2 444.854 1632.36C446.02 1632.49 447.246 1632.71 448.532 1633.04C449.818 1633.36 451.043 1633.81 452.208 1634.37L448.238 1650.77ZM441.997 1639.66C441.475 1639.58 440.992 1639.51 440.55 1639.47C440.148 1639.43 439.645 1639.41 439.042 1639.41C437.675 1639.41 436.387 1639.74 435.178 1640.43C434.01 1641.11 432.982 1642.01 432.094 1643.13C431.206 1644.22 430.498 1645.48 429.971 1646.93C429.484 1648.38 429.238 1649.88 429.234 1651.45C429.228 1653.38 429.545 1654.91 430.185 1656.04C430.825 1657.17 432.01 1657.73 433.739 1657.74C434.664 1657.74 435.489 1657.56 436.214 1657.2C436.979 1656.84 437.785 1656.24 438.632 1655.39C438.716 1654.39 438.839 1653.34 439.004 1652.26C439.208 1651.13 439.412 1650.11 439.616 1649.18L441.997 1639.66ZM467.069 1665.11C464.214 1665.1 461.963 1664.74 460.316 1664.01C458.71 1663.24 457.547 1662.21 456.827 1660.92C456.147 1659.64 455.809 1658.17 455.814 1656.52C455.86 1654.83 456.106 1653.04 456.554 1651.15L464.312 1619.14L473.666 1617.71L465.177 1652.44C465.014 1653.16 464.911 1653.82 464.869 1654.43C464.867 1655.03 464.986 1655.57 465.226 1656.06C465.466 1656.5 465.867 1656.86 466.429 1657.15C467.032 1657.43 467.856 1657.61 468.901 1657.69L467.069 1665.11ZM501.963 1650.89C501.393 1653.18 501.225 1655.49 501.459 1657.83C501.694 1660.12 502.15 1662.17 502.828 1663.98L494.802 1665.11C494.562 1664.63 494.342 1664.17 494.142 1663.72C493.943 1663.28 493.743 1662.78 493.544 1662.21C492.415 1663.14 491.166 1663.9 489.797 1664.5C488.428 1665.1 486.899 1665.4 485.21 1665.39C483.199 1665.39 481.471 1665.04 480.025 1664.35C478.619 1663.63 477.456 1662.68 476.535 1661.51C475.654 1660.3 475.014 1658.91 474.617 1657.34C474.22 1655.74 474.024 1654.03 474.029 1652.22C474.037 1649.44 474.528 1646.83 475.5 1644.38C476.513 1641.93 477.887 1639.8 479.622 1637.99C481.397 1636.15 483.472 1634.7 485.848 1633.66C488.224 1632.62 490.799 1632.11 493.574 1632.11C493.936 1632.11 494.559 1632.13 495.444 1632.18C496.369 1632.22 497.414 1632.32 498.58 1632.49C499.746 1632.61 500.971 1632.83 502.257 1633.16C503.543 1633.48 504.769 1633.93 505.933 1634.49L501.963 1650.89ZM495.723 1639.78C495.2 1639.7 494.718 1639.63 494.275 1639.59C493.873 1639.55 493.371 1639.53 492.767 1639.53C491.4 1639.53 490.112 1639.87 488.904 1640.55C487.735 1641.23 486.707 1642.13 485.819 1643.25C484.931 1644.34 484.223 1645.6 483.696 1647.05C483.209 1648.5 482.964 1650 482.959 1651.57C482.953 1653.5 483.27 1655.03 483.91 1656.16C484.55 1657.29 485.735 1657.85 487.464 1657.86C488.389 1657.86 489.214 1657.68 489.939 1657.32C490.704 1656.96 491.51 1656.36 492.357 1655.51C492.441 1654.51 492.565 1653.46 492.729 1652.38C492.933 1651.25 493.137 1650.23 493.341 1649.3L495.723 1639.78Z" fill="white"/>
<path d="M512.162 1591.2L509.458 1602.32C511.265 1602.74 513.082 1603.17 514.853 1603.62L517.536 1592.58L524.27 1594.3L521.511 1605.64C530.011 1608.64 536.228 1613.14 535.007 1621.51C534.123 1627.64 530.809 1630.6 526.411 1631.64C532.45 1634.87 535.523 1639.81 532.597 1648.38C528.962 1659.03 520.33 1659.93 508.852 1657.7L503.28 1656.41L504.704 1647.87C510.583 1649.13 518.143 1649.73 519.625 1643.62C521.325 1636.64 512.754 1633.7 506.751 1632.19C505.638 1631.67 504.471 1631.25 503.248 1630.94C501.962 1630.61 500.736 1630.39 499.57 1630.27C498.405 1630.1 497.358 1630 496.434 1629.96C495.549 1629.92 494.926 1629.89 494.564 1629.89C493.121 1629.89 491.731 1630.03 490.396 1630.31L492.194 1622.92L495.334 1610C495.418 1608.54 494.925 1606.69 492.197 1605.99C492.303 1605.92 487.341 1604.75 487.309 1604.74L489.1 1597.37L498.383 1599.75L498.376 1599.78C499.773 1600.14 501.21 1600.48 502.676 1600.82L505.434 1589.48L512.162 1591.2ZM493.758 1637.31C494.361 1637.31 494.864 1637.33 495.266 1637.38C495.708 1637.42 496.19 1637.48 496.713 1637.56L496.059 1640.18H487.995L488.13 1639.62C488.678 1639.13 489.264 1638.69 489.894 1638.33C491.102 1637.65 492.39 1637.31 493.758 1637.31ZM504.293 1624.25C508.094 1625.22 519.809 1629.18 521.706 1621.38C523.683 1613.25 511.444 1611.44 507.645 1610.47L504.293 1624.25Z" fill="white"/>
</g>
<defs>
<filter id="filter0_f_183_174" x="311.421" y="597.464" width="2392.44" height="2392.44" filterUnits="userSpaceOnUse" color-interpolation-filters="sRGB">
<feFlood flood-opacity="0" result="BackgroundImageFix"/>
<feBlend mode="normal" in="SourceGraphic" in2="BackgroundImageFix" result="shape"/>
<feGaussianBlur stdDeviation="9.89321" result="effect1_foregroundBlur_183_174"/>
</filter>
<filter id="filter1_f_183_174" x="202.595" y="488.638" width="2610.09" height="2610.09" filterUnits="userSpaceOnUse" color-interpolation-filters="sRGB">
<feFlood flood-opacity="0" result="BackgroundImageFix"/>
<feBlend mode="normal" in="SourceGraphic" in2="BackgroundImageFix" result="shape"/>
<feGaussianBlur stdDeviation="64.3058" result="effect1_foregroundBlur_183_174"/>
</filter>
<filter id="filter2_f_183_174" x="556.719" y="842.763" width="1901.84" height="1901.84" filterUnits="userSpaceOnUse" color-interpolation-filters="sRGB">
<feFlood flood-opacity="0" result="BackgroundImageFix"/>
<feBlend mode="normal" in="SourceGraphic" in2="BackgroundImageFix" result="shape"/>
<feGaussianBlur stdDeviation="17.9583" result="effect1_foregroundBlur_183_174"/>
</filter>
<filter id="filter3_f_183_174" x="844.213" y="1130.25" width="1326.85" height="1326.85" filterUnits="userSpaceOnUse" color-interpolation-filters="sRGB">
<feFlood flood-opacity="0" result="BackgroundImageFix"/>
<feBlend mode="normal" in="SourceGraphic" in2="BackgroundImageFix" result="shape"/>
<feGaussianBlur stdDeviation="10.646" result="effect1_foregroundBlur_183_174"/>
</filter>
<linearGradient id="paint0_linear_183_174" x1="20.8263" y1="19.3564" x2="1167.67" y2="1888.52" gradientUnits="userSpaceOnUse">
<stop stop-color="#2276C5"/>
<stop offset="1" stop-color="#004E97"/>
</linearGradient>
<clipPath id="clip0_183_174">
<rect width="1522.69" height="1849.6" rx="53.7674" fill="white"/>
</clipPath>
<clipPath id="clip1_183_174">
<rect width="722.634" height="234.426" fill="white" transform="translate(137.463 109.817)"/>
</clipPath>
</defs>
</svg>
