<svg width="2297" height="2681" viewBox="0 0 2297 2681" fill="none" xmlns="http://www.w3.org/2000/svg">
<g clip-path="url(#clip0_183_134)">
<rect x="406.77" y="352.183" width="1522.69" height="1849.6" rx="53.7674" fill="black"/>
<g filter="url(#filter0_f_183_134)">
<g filter="url(#filter1_f_183_134)">
<circle cx="1914.41" cy="2145.86" r="1176.43" fill="#A21D52" fill-opacity="0.5"/>
</g>
<g filter="url(#filter2_f_183_134)">
<circle cx="1914.41" cy="2145.86" r="915.002" fill="#A21D52" fill-opacity="0.5"/>
</g>
<g filter="url(#filter3_f_183_134)">
<circle cx="1914.41" cy="2145.86" r="642.135" fill="#A21E50" fill-opacity="0.6"/>
</g>
<circle cx="1914.41" cy="2145.86" r="408.483" fill="#A21D52"/>
<circle cx="1914.41" cy="2145.86" r="187.109" fill="black"/>
</g>
<mask id="path-7-outside-1_183_134" maskUnits="userSpaceOnUse" x="403.824" y="353.539" width="1528" height="1847" fill="black">
<rect fill="white" x="403.824" y="353.539" width="1528" height="1847"/>
<path d="M1871.39 371.539C1895.15 371.539 1914.41 390.797 1914.41 414.553V2139.41C1914.41 2163.17 1895.15 2182.43 1871.39 2182.43H464.838C441.082 2182.43 421.824 2163.17 421.824 2139.41V414.553C421.824 390.797 441.082 371.539 464.838 371.539H1871.39Z"/>
</mask>
<path d="M1871.39 371.539L1871.39 354.333H1871.39V371.539ZM1914.41 414.553H1931.61V414.553L1914.41 414.553ZM1914.41 2139.41H1931.61H1914.41ZM1871.39 2182.43V2199.63H1871.39L1871.39 2182.43ZM464.838 2182.43L464.838 2199.63H464.838V2182.43ZM421.824 2139.41H404.619H421.824ZM421.824 414.553L404.619 414.553V414.553H421.824ZM464.838 371.539V354.333H464.838L464.838 371.539ZM1871.39 371.539L1871.39 388.745C1885.65 388.745 1897.2 400.3 1897.2 414.553L1914.41 414.553L1931.61 414.553C1931.61 381.295 1904.65 354.334 1871.39 354.333L1871.39 371.539ZM1914.41 414.553H1897.2V2139.41H1914.41H1931.61V414.553H1914.41ZM1914.41 2139.41H1897.2C1897.2 2153.67 1885.65 2165.22 1871.39 2165.22L1871.39 2182.43L1871.39 2199.63C1904.65 2199.63 1931.61 2172.67 1931.61 2139.41H1914.41ZM1871.39 2182.43V2165.22H464.838V2182.43V2199.63H1871.39V2182.43ZM464.838 2182.43L464.838 2165.22C450.584 2165.22 439.03 2153.67 439.03 2139.41H421.824H404.619C404.619 2172.67 431.58 2199.63 464.838 2199.63L464.838 2182.43ZM421.824 2139.41H439.03V414.553H421.824H404.619V2139.41H421.824ZM421.824 414.553L439.03 414.553C439.03 400.299 450.585 388.745 464.838 388.745L464.838 371.539L464.838 354.333C431.58 354.334 404.619 381.295 404.619 414.553L421.824 414.553ZM464.838 371.539V388.745H1871.39V371.539V354.333H464.838V371.539Z" fill="url(#paint0_linear_183_134)" mask="url(#path-7-outside-1_183_134)"/>
<path d="M669.645 1047.02L708.494 1047.11L646.89 1225.92L611.561 1225.84L551.64 1046.76L591.582 1046.85L630.023 1182.78L669.645 1047.02ZM764.409 1226.18L727.259 1226.1L727.797 1047.15L764.947 1047.24L764.409 1226.18ZM900.505 1104.48C900.533 1095.17 898.085 1088.53 893.16 1084.55C888.315 1080.58 881.482 1078.58 872.66 1078.56L837.817 1078.48L837.659 1131.17L872.502 1131.25C881.324 1131.27 888.169 1129.14 893.038 1124.86C897.988 1120.58 900.477 1113.79 900.505 1104.48ZM937.534 1104.32C937.471 1125.44 932.084 1140.36 921.374 1149.08C910.664 1157.8 895.395 1162.13 875.566 1162.09L837.566 1162L837.373 1226.35L800.223 1226.27L800.761 1047.32L878.702 1047.49C896.67 1047.53 910.982 1052.18 921.638 1061.43C932.294 1070.68 937.592 1084.98 937.534 1104.32ZM664.637 1379.95C664.665 1370.64 662.217 1364 657.291 1360.02C652.447 1356.05 645.614 1354.05 636.792 1354.03L601.949 1353.95L601.791 1406.64L636.634 1406.72C645.456 1406.74 652.301 1404.61 657.17 1400.33C662.12 1396.05 664.609 1389.26 664.637 1379.95ZM701.666 1379.79C701.603 1400.91 696.216 1415.83 685.506 1424.55C674.796 1433.27 659.527 1437.61 639.697 1437.56L601.698 1437.48L601.504 1501.82L564.355 1501.74L564.893 1322.79L642.834 1322.96C660.802 1323 675.114 1327.65 685.77 1336.9C696.426 1346.15 701.724 1360.45 701.666 1379.79ZM760.019 1434.55L805.424 1434.66L783.297 1364.19L760.019 1434.55ZM762.66 1323.23L804.909 1323.33L867.744 1502.42L827.195 1502.33L815.772 1465.52L749.849 1465.37L737.356 1502.12L698.263 1502.04L762.66 1323.23ZM917.807 1447.29C918.915 1455.47 921.123 1461.58 924.429 1465.64C930.477 1473.02 940.866 1476.72 955.596 1476.76C964.418 1476.78 971.584 1475.82 977.094 1473.89C987.546 1470.19 992.787 1463.28 992.817 1453.17C992.835 1447.26 990.259 1442.68 985.089 1439.43C979.918 1436.26 971.793 1433.45 960.712 1431L941.785 1426.71C923.183 1422.46 910.328 1417.85 903.22 1412.9C891.185 1404.62 885.195 1391.7 885.247 1374.13C885.296 1358.11 891.163 1344.81 902.85 1334.23C914.536 1323.65 931.67 1318.39 954.251 1318.44C973.109 1318.48 989.16 1323.54 1002.4 1333.6C1015.73 1343.59 1022.69 1358.09 1023.28 1377.11L987.34 1377.03C986.725 1366.27 982.054 1358.61 973.326 1354.06C967.508 1351.05 960.269 1349.53 951.608 1349.52C941.977 1349.49 934.282 1351.42 928.524 1355.29C922.766 1359.16 919.876 1364.58 919.856 1371.54C919.836 1377.93 922.655 1382.71 928.311 1385.88C931.947 1388 939.709 1390.48 951.598 1393.34L982.412 1400.82C995.919 1404.08 1006.1 1408.44 1012.97 1413.88C1023.63 1422.32 1028.93 1434.51 1028.88 1450.45C1028.83 1466.8 1022.52 1480.39 1009.94 1491.2C997.446 1501.94 979.786 1507.28 956.962 1507.23C933.652 1507.18 915.336 1501.84 902.013 1491.2C888.691 1480.49 882.058 1465.83 882.114 1447.21L917.807 1447.29ZM1083.64 1447.66C1084.75 1455.84 1086.96 1461.96 1090.27 1466.01C1096.31 1473.39 1106.7 1477.1 1121.43 1477.13C1130.26 1477.15 1137.42 1476.19 1142.93 1474.26C1153.38 1470.56 1158.62 1463.66 1158.66 1453.54C1158.67 1447.63 1156.1 1443.05 1150.93 1439.8C1145.76 1436.63 1137.63 1433.82 1126.55 1431.37L1107.62 1427.08C1089.02 1422.83 1076.17 1418.23 1069.06 1413.27C1057.02 1404.99 1051.03 1392.07 1051.09 1374.51C1051.13 1358.48 1057 1345.18 1068.69 1334.6C1080.37 1324.03 1097.51 1318.76 1120.09 1318.81C1138.95 1318.86 1155 1323.91 1168.24 1333.98C1181.57 1343.96 1188.52 1358.47 1189.11 1377.49L1153.18 1377.41C1152.56 1366.64 1147.89 1358.98 1139.16 1354.43C1133.35 1351.42 1126.11 1349.91 1117.45 1349.89C1107.81 1349.87 1100.12 1351.79 1094.36 1355.66C1088.6 1359.54 1085.71 1364.95 1085.69 1371.91C1085.67 1378.31 1088.49 1383.09 1094.15 1386.26C1097.78 1388.37 1105.55 1390.86 1117.44 1393.71L1148.25 1401.19C1161.76 1404.46 1171.94 1408.81 1178.81 1414.25C1189.46 1422.69 1194.77 1434.88 1194.72 1450.83C1194.67 1467.18 1188.36 1480.76 1175.78 1491.58C1163.28 1502.31 1145.62 1507.66 1122.8 1507.6C1099.49 1507.55 1081.17 1502.21 1067.85 1491.58C1054.53 1480.86 1047.9 1466.2 1047.95 1447.58L1083.64 1447.66Z" fill="white"/>
<path d="M579.221 1601.08L591.556 1564.26L598.12 1564.27L582.213 1607.47L576.01 1607.46L560.363 1564.19L566.866 1564.2L579.1 1601.08L579.221 1601.08ZM610.645 1564.3L610.515 1607.54L604.674 1607.53L604.804 1564.29L610.645 1564.3ZM627.089 1569.34L627.044 1584.33L638.667 1584.36C643.906 1584.37 647.464 1582.45 647.482 1576.61C647.498 1571.13 643.77 1569.37 638.953 1569.36L627.089 1569.34ZM627.029 1589.33L626.974 1607.58L621.133 1607.56L621.263 1564.32L640.714 1564.37C648.723 1564.39 653.525 1569.58 653.504 1576.56C653.486 1582.58 650.033 1589.38 640.639 1589.36L627.029 1589.33ZM701.643 1595.16L684.3 1595.12L679.745 1607.69L673.723 1607.68L690.113 1564.48L696.737 1564.49L712.264 1607.77L705.881 1607.75L701.643 1595.16ZM686.122 1589.94L699.551 1589.97L693.225 1570.93L693.104 1570.93L686.122 1589.94ZM717.924 1607.78L718.054 1564.54L735.578 1564.58C746.839 1564.61 753.738 1573.17 753.701 1585.64C753.672 1595.33 749.419 1607.85 735.207 1607.82L717.924 1607.78ZM723.88 1569.55L723.78 1602.79L735.102 1602.82C742.689 1602.84 747.645 1596.89 747.678 1585.99C747.711 1575.09 742.729 1569.6 734.78 1569.58L723.88 1569.55ZM802.332 1607.97L796.672 1607.96L796.748 1582.42C796.752 1581.16 796.889 1575.68 796.901 1571.64L796.781 1571.64L784.507 1607.93L778.726 1607.92L766.671 1571.64L766.551 1571.64C766.539 1575.61 766.643 1581.09 766.639 1582.36L766.562 1607.89L760.901 1607.88L761.031 1564.64L769.402 1564.66L781.637 1601.24L781.757 1601.24L794.152 1564.71L802.462 1564.73L802.332 1607.97ZM818.12 1564.77L817.99 1608L812.148 1607.99L812.278 1564.75L818.12 1564.77ZM859.652 1577.51L854.172 1577.49C853.891 1570.81 848.358 1568.69 843.48 1568.68C839.806 1568.67 833.601 1569.68 833.581 1576.24C833.57 1579.92 836.156 1581.13 838.683 1581.74L851.02 1584.59C856.616 1585.93 860.821 1589.31 860.801 1596.18C860.77 1606.41 851.247 1609.22 843.84 1609.21C835.831 1609.19 832.706 1606.77 830.785 1605.02C827.121 1601.7 826.409 1598.09 826.422 1594.05L831.902 1594.07C831.878 1601.89 838.254 1604.2 843.795 1604.21C848.01 1604.22 855.119 1603.15 855.138 1596.95C855.151 1592.43 853.048 1590.98 845.947 1589.28L837.101 1587.21C834.273 1586.54 827.895 1584.54 827.918 1577.01C827.938 1570.27 832.354 1563.66 842.832 1563.68C857.948 1563.71 859.426 1572.75 859.652 1577.51ZM899.818 1577.6L894.338 1577.58C894.057 1570.9 888.523 1568.78 883.646 1568.77C879.972 1568.76 873.767 1569.77 873.747 1576.33C873.736 1580.01 876.322 1581.22 878.849 1581.83L891.186 1584.68C896.782 1586.02 900.987 1589.4 900.967 1596.27C900.936 1606.51 891.413 1609.31 884.006 1609.3C875.996 1609.28 872.872 1606.86 870.95 1605.11C867.287 1601.79 866.575 1598.18 866.587 1594.14L872.067 1594.16C872.044 1601.98 878.42 1604.29 883.96 1604.3C888.176 1604.31 895.285 1603.24 895.304 1597.04C895.317 1592.52 893.214 1591.07 886.113 1589.37L877.267 1587.3C874.439 1586.63 868.061 1584.63 868.084 1577.1C868.104 1570.36 872.52 1563.75 882.998 1563.77C898.113 1563.8 899.592 1572.84 899.818 1577.6ZM915.212 1564.99L915.082 1608.22L909.24 1608.21L909.37 1564.97L915.212 1564.99ZM959.066 1586.7C959.097 1576.53 953.458 1569.11 944.064 1569.09C934.67 1569.06 928.987 1576.46 928.956 1586.64C928.926 1596.81 934.564 1604.23 943.958 1604.25C953.352 1604.27 959.035 1596.88 959.066 1586.7ZM965.088 1586.72C965.06 1596.05 960.081 1609.47 943.943 1609.43C927.804 1609.4 922.906 1595.96 922.934 1586.62C922.962 1577.29 927.941 1563.87 944.08 1563.91C960.218 1563.94 965.116 1577.38 965.088 1586.72ZM1000.66 1600.11L1000.76 1565.18L1006.42 1565.19L1006.29 1608.43L999.729 1608.41L977.853 1573.44L977.733 1573.44L977.628 1608.36L971.967 1608.35L972.097 1565.11L979.023 1565.13L1000.54 1600.1L1000.66 1600.11Z" fill="white"/>
<g clip-path="url(#clip1_183_134)">
<ellipse cx="653.682" cy="578.736" rx="67.6097" ry="65.7873" fill="black"/>
<path d="M561.911 557.08C572.961 521.253 610.965 501.171 646.781 512.226C682.605 523.281 702.684 561.292 691.629 597.117C680.575 632.94 642.569 653.018 606.743 641.963C570.933 630.909 550.854 592.901 561.911 557.08ZM622.696 544.815C621.098 544.358 619.529 543.906 618.007 543.438L618.017 543.399L607.9 540.273L605.484 548.109C605.52 548.12 610.932 549.678 610.812 549.75C613.783 550.668 614.221 552.692 614.041 554.268L609.803 567.999C610.008 568.063 610.273 568.154 610.563 568.289L609.791 568.052L603.85 587.287C603.431 588.182 602.42 589.503 600.343 588.866C600.411 588.978 595.052 587.232 595.011 587.219L590.849 595.533L600.399 598.479C602.175 599.03 603.914 599.599 605.625 600.14L601.866 612.333L609.194 614.597L612.917 602.534C614.915 603.197 616.858 603.814 618.759 604.399L615.051 616.404L622.387 618.668L626.145 606.499C638.697 609.598 648.291 609.155 652.933 597.905C656.677 588.846 653.577 583.33 647.094 579.485C652.016 578.628 655.856 575.632 657.196 569.082C659.04 560.135 652.438 554.907 643.224 551.154L646.943 539.101L639.604 536.837L635.983 548.573C634.057 547.978 632.074 547.408 630.103 546.843L633.75 535.029L626.417 532.767L622.696 544.815ZM620.81 577.561C625.783 579.097 641.812 582.478 638.885 591.98C636.076 601.091 620.799 595.244 615.824 593.712L620.81 577.561ZM627.611 555.519C631.755 556.797 645.172 559.495 642.503 568.14C639.943 576.427 627.233 571.445 623.089 570.167L627.611 555.519Z" fill="white"/>
<path d="M748.965 563.81C751.901 563.816 754.438 564.342 756.576 565.387C758.714 566.432 760.484 567.843 761.886 569.62C763.288 571.397 764.321 573.479 764.987 575.867C765.653 578.254 765.981 580.824 765.973 583.577C765.961 587.798 765.153 591.803 763.551 595.593C762.011 599.321 759.89 602.589 757.19 605.397C754.49 608.144 751.302 610.339 747.627 611.982C743.952 613.565 739.973 614.351 735.691 614.341C735.14 614.34 734.161 614.307 732.754 614.243C731.409 614.24 729.849 614.114 728.076 613.865C726.302 613.617 724.407 613.245 722.39 612.752C720.433 612.258 718.57 611.581 716.798 610.72L732.874 544.044L747.104 541.874L741.343 565.536C742.568 564.988 743.793 564.563 745.017 564.26C746.242 563.956 747.558 563.807 748.965 563.81ZM736.917 603.057C739.058 603.062 741.079 602.547 742.978 601.511C744.878 600.475 746.503 599.102 747.854 597.393C749.267 595.622 750.374 593.636 751.176 591.435C751.978 589.235 752.382 586.942 752.389 584.556C752.398 581.619 751.916 579.324 750.942 577.67C749.968 576.016 748.166 575.187 745.535 575.181C744.679 575.179 743.547 575.329 742.139 575.632C740.792 575.935 739.566 576.574 738.462 577.551L732.33 602.68C732.697 602.742 733.003 602.804 733.247 602.866C733.553 602.927 733.859 602.989 734.164 603.051C734.47 603.052 734.837 603.053 735.266 603.054C735.694 603.055 736.244 603.056 736.917 603.057ZM783.154 613.163L769.573 613.133L781.188 564.892L794.861 564.922L783.154 613.163ZM789.923 559.038C788.027 559.034 786.316 558.48 784.79 557.375C783.264 556.209 782.504 554.464 782.511 552.139C782.515 550.855 782.763 549.662 783.256 548.562C783.81 547.401 784.517 546.424 785.376 545.631C786.235 544.776 787.215 544.105 788.318 543.618C789.482 543.132 790.706 542.89 791.991 542.893C793.887 542.897 795.598 543.482 797.124 544.648C798.65 545.752 799.41 547.467 799.403 549.792C799.399 551.076 799.12 552.299 798.566 553.46C798.073 554.56 797.397 555.538 796.538 556.392C795.68 557.185 794.668 557.825 793.504 558.312C792.402 558.799 791.208 559.041 789.923 559.038ZM808.864 552.933L823.094 550.762L819.564 564.978L834.796 565.012L832.01 576.201L816.869 576.167L812.781 593.042C812.409 594.448 812.161 595.763 812.035 596.986C811.97 598.21 812.12 599.281 812.484 600.199C812.91 601.056 813.611 601.731 814.588 602.223C815.566 602.714 816.911 602.962 818.624 602.966C820.092 602.969 821.499 602.85 822.846 602.608C824.254 602.305 825.662 601.911 827.071 601.425L828.049 611.888C826.211 612.557 824.221 613.133 822.079 613.618C819.936 614.103 817.397 614.342 814.46 614.335C810.239 614.326 806.968 613.706 804.647 612.478C802.326 611.188 800.68 609.471 799.707 607.328C798.735 605.123 798.314 602.614 798.445 599.8C798.576 596.987 799.013 594.021 799.757 590.902L808.864 552.933ZM835.202 594.01C835.214 589.85 835.899 585.937 837.256 582.269C838.613 578.602 840.549 575.394 843.066 572.647C845.582 569.9 848.617 567.735 852.17 566.152C855.784 564.57 859.794 563.784 864.198 563.793C866.951 563.8 869.397 564.08 871.537 564.636C873.738 565.13 875.724 565.808 877.495 566.668L872.783 577.302C871.561 576.81 870.278 576.379 868.933 576.009C867.65 575.578 866.06 575.36 864.163 575.356C859.575 575.345 855.961 576.897 853.321 580.011C850.682 583.064 849.354 587.252 849.338 592.574C849.328 595.694 849.994 598.234 851.334 600.195C852.674 602.094 855.148 603.048 858.758 603.056C860.532 603.06 862.245 602.88 863.898 602.517C865.551 602.154 867.021 601.698 868.307 601.15L869.284 612.072C867.569 612.742 865.67 613.318 863.589 613.803C861.569 614.349 859.09 614.619 856.154 614.612C852.361 614.604 849.151 614.046 846.524 612.939C843.896 611.832 841.729 610.359 840.022 608.52C838.314 606.619 837.067 604.414 836.279 601.904C835.553 599.394 835.194 596.763 835.202 594.01ZM895.986 614.702C892.744 614.695 889.931 614.199 887.548 613.215C885.165 612.23 883.181 610.85 881.596 609.072C880.072 607.294 878.916 605.212 878.128 602.824C877.34 600.375 876.95 597.683 876.959 594.746C876.97 591.076 877.562 587.407 878.736 583.739C879.97 580.071 881.754 576.772 884.088 573.84C886.421 570.909 889.273 568.53 892.643 566.702C896.014 564.813 899.871 563.874 904.214 563.883C907.395 563.891 910.177 564.386 912.56 565.37C915.004 566.355 916.988 567.736 918.512 569.513C920.097 571.291 921.284 573.404 922.072 575.853C922.86 578.24 923.25 580.902 923.241 583.839C923.23 587.509 922.638 591.179 921.464 594.846C920.291 598.514 918.568 601.814 916.296 604.745C914.023 607.677 911.171 610.087 907.74 611.975C904.37 613.803 900.452 614.712 895.986 614.702ZM902.895 575.443C900.876 575.438 899.1 576.015 897.567 577.174C896.034 578.333 894.745 579.798 893.7 581.57C892.654 583.342 891.853 585.298 891.296 587.438C890.801 589.516 890.55 591.504 890.544 593.401C890.535 596.52 891.017 598.938 891.991 600.653C892.964 602.307 894.736 603.137 897.305 603.143C899.324 603.147 901.1 602.57 902.633 601.411C904.166 600.252 905.455 598.787 906.5 597.015C907.546 595.243 908.316 593.318 908.812 591.239C909.369 589.099 909.65 587.081 909.656 585.185C909.665 582.065 909.183 579.678 908.209 578.024C907.235 576.309 905.464 575.448 902.895 575.443ZM940.423 613.517L926.842 613.487L938.458 565.245L952.13 565.276L940.423 613.517ZM947.193 559.392C945.296 559.388 943.585 558.833 942.059 557.729C940.533 556.563 939.774 554.818 939.781 552.493C939.785 551.208 940.033 550.016 940.526 548.916C941.08 547.755 941.786 546.778 942.645 545.984C943.504 545.13 944.485 544.459 945.587 543.972C946.751 543.485 947.976 543.243 949.26 543.246C951.157 543.25 952.868 543.835 954.394 545.001C955.92 546.106 956.679 547.82 956.672 550.145C956.668 551.43 956.389 552.653 955.835 553.814C955.343 554.914 954.667 555.891 953.808 556.746C952.949 557.539 951.938 558.179 950.774 558.666C949.671 559.153 948.478 559.395 947.193 559.392ZM964.072 567.505C965.113 567.202 966.245 566.868 967.47 566.503C968.756 566.078 970.164 565.714 971.694 565.412C973.286 565.048 975.03 564.777 976.927 564.598C978.886 564.357 981.088 564.24 983.535 564.245C990.754 564.262 995.703 566.353 998.382 570.519C1001.06 574.685 1001.5 580.375 999.707 587.59L993.389 613.636L979.716 613.605L985.849 588.109C986.221 586.519 986.501 584.991 986.689 583.523C986.938 581.994 986.942 580.679 986.701 579.577C986.46 578.414 985.881 577.495 984.966 576.82C984.111 576.084 982.767 575.714 980.931 575.71C979.157 575.706 977.352 575.885 975.516 576.248L966.502 613.576L952.83 613.545L964.072 567.505ZM1020.78 550.106L1035.09 550.138L1019.58 613.695L1005.35 613.663L1020.78 550.106ZM1044.72 567.686C1045.76 567.383 1046.9 567.049 1048.12 566.685C1049.41 566.259 1050.81 565.895 1052.35 565.593C1053.94 565.229 1055.68 564.958 1057.58 564.779C1059.54 564.539 1061.74 564.421 1064.19 564.427C1071.4 564.443 1076.35 566.534 1079.03 570.7C1081.71 574.866 1082.15 580.556 1080.36 587.771L1074.04 613.818L1060.37 613.787L1066.5 588.29C1066.87 586.701 1067.15 585.172 1067.34 583.704C1067.59 582.175 1067.59 580.86 1067.35 579.758C1067.11 578.595 1066.53 577.676 1065.62 577.001C1064.76 576.265 1063.42 575.895 1061.58 575.891C1059.81 575.887 1058 576.067 1056.17 576.43L1047.15 613.757L1033.48 613.726L1044.72 567.686ZM1105.45 615.173C1102.4 615.166 1099.77 614.64 1097.57 613.595C1095.43 612.55 1093.66 611.139 1092.26 609.362C1090.92 607.524 1089.91 605.411 1089.25 603.024C1088.64 600.575 1088.35 597.975 1088.35 595.222C1088.37 591.062 1089.11 587.148 1090.59 583.481C1092.13 579.753 1094.22 576.515 1096.86 573.768C1099.5 571.021 1102.63 568.857 1106.24 567.274C1109.85 565.692 1113.8 564.905 1118.09 564.915C1119.19 564.917 1120.2 564.981 1121.11 565.105C1122.09 565.23 1123.07 565.416 1124.05 565.662L1129.07 544.935L1143.29 542.765L1131.03 593.115C1130.16 596.6 1129.91 600.117 1130.26 603.666C1130.62 607.154 1131.32 610.276 1132.35 613.031L1120.14 614.747C1119.77 614.012 1119.44 613.308 1119.13 612.634C1118.83 611.961 1118.53 611.195 1118.22 610.338C1116.51 611.741 1114.58 612.899 1112.43 613.812C1110.35 614.725 1108.02 615.179 1105.45 615.173ZM1121.35 576.576C1120.99 576.514 1120.65 576.452 1120.34 576.39C1120.1 576.329 1119.82 576.297 1119.52 576.297C1119.27 576.235 1118.94 576.204 1118.51 576.203C1118.08 576.202 1117.53 576.201 1116.86 576.199C1114.72 576.194 1112.73 576.71 1110.89 577.746C1109.05 578.72 1107.46 580.063 1106.11 581.772C1104.82 583.482 1103.8 585.438 1103.06 587.638C1102.32 589.778 1101.95 591.979 1101.94 594.243C1101.93 597.179 1102.41 599.505 1103.39 601.22C1104.42 602.874 1106.25 603.704 1108.88 603.71C1110.29 603.713 1111.58 603.441 1112.74 602.893C1113.9 602.345 1115.13 601.43 1116.42 600.148C1116.55 598.619 1116.73 597.029 1116.98 595.378C1117.3 593.666 1117.61 592.106 1117.92 590.7L1121.35 576.576ZM1153.25 613.996L1139.67 613.965L1151.29 565.724L1164.96 565.754L1153.25 613.996ZM1160.02 559.87C1158.13 559.866 1156.41 559.312 1154.89 558.207C1153.36 557.041 1152.6 555.296 1152.61 552.972C1152.61 551.687 1152.86 550.494 1153.35 549.394C1153.91 548.233 1154.62 547.256 1155.47 546.463C1156.33 545.608 1157.31 544.938 1158.42 544.451C1159.58 543.964 1160.8 543.722 1162.09 543.725C1163.99 543.729 1165.7 544.314 1167.22 545.48C1168.75 546.584 1169.51 548.299 1169.5 550.624C1169.5 551.908 1169.22 553.131 1168.66 554.292C1168.17 555.392 1167.5 556.37 1166.64 557.224C1165.78 558.018 1164.77 558.658 1163.6 559.144C1162.5 559.631 1161.31 559.873 1160.02 559.87ZM1210.96 593.295C1210.09 596.78 1209.84 600.297 1210.19 603.846C1210.55 607.334 1211.25 610.455 1212.28 613.211L1200.07 614.927C1199.7 614.192 1199.37 613.488 1199.06 612.814C1198.76 612.14 1198.46 611.375 1198.15 610.518C1196.44 611.921 1194.54 613.079 1192.45 613.992C1190.37 614.905 1188.05 615.359 1185.48 615.353C1182.42 615.346 1179.79 614.82 1177.59 613.775C1175.45 612.669 1173.68 611.227 1172.28 609.45C1170.94 607.612 1169.97 605.499 1169.36 603.112C1168.76 600.664 1168.46 598.063 1168.47 595.31C1168.48 591.089 1169.23 587.114 1170.71 583.386C1172.25 579.658 1174.34 576.42 1176.98 573.673C1179.68 570.865 1182.83 568.67 1186.45 567.087C1190.06 565.505 1193.98 564.718 1198.2 564.728C1198.75 564.729 1199.7 564.762 1201.04 564.826C1202.45 564.89 1204.04 565.047 1205.81 565.296C1207.59 565.483 1209.45 565.824 1211.41 566.318C1213.36 566.811 1215.23 567.489 1217 568.349L1210.96 593.295ZM1201.47 576.389C1200.67 576.265 1199.94 576.172 1199.27 576.109C1198.65 576.046 1197.89 576.014 1196.97 576.012C1194.89 576.007 1192.93 576.523 1191.1 577.559C1189.32 578.595 1187.75 579.968 1186.4 581.678C1185.05 583.326 1183.98 585.251 1183.17 587.452C1182.43 589.652 1182.06 591.945 1182.05 594.331C1182.04 597.268 1182.53 599.593 1183.5 601.309C1184.47 603.024 1186.27 603.884 1188.91 603.89C1190.31 603.893 1191.57 603.621 1192.67 603.073C1193.83 602.525 1195.06 601.61 1196.35 600.328C1196.48 598.799 1196.66 597.209 1196.91 595.558C1197.22 593.845 1197.54 592.286 1197.85 590.88L1201.47 576.389Z" fill="white"/>
</g>
<path d="M578.569 1900.74C582.295 1900.75 585.14 1901.49 587.103 1902.95C589.096 1904.42 590.088 1906.51 590.08 1909.22C590.073 1911.37 589.651 1913.2 588.811 1914.72C588.002 1916.21 586.866 1917.43 585.402 1918.38C583.968 1919.33 582.237 1920.02 580.209 1920.47C578.211 1920.88 576.004 1921.08 573.59 1921.08L571.175 1921.07L568.504 1932.02L562.87 1932.01L570.25 1901.49C571.682 1901.19 573.114 1901 574.545 1900.91C575.976 1900.8 577.317 1900.74 578.569 1900.74ZM578.019 1905.48C577.452 1905.48 576.916 1905.5 576.409 1905.52C575.902 1905.55 575.395 1905.6 574.888 1905.65L572.307 1916.34L574.588 1916.34C575.84 1916.34 577.047 1916.24 578.21 1916.04C579.374 1915.83 580.403 1915.49 581.299 1915.01C582.194 1914.51 582.912 1913.84 583.451 1913.01C583.99 1912.14 584.262 1911.06 584.266 1909.74C584.27 1908.22 583.707 1907.14 582.576 1906.48C581.475 1905.82 579.956 1905.49 578.019 1905.48ZM607.079 1913.51C606.483 1913.3 605.843 1913.13 605.158 1913.01C604.473 1912.89 603.668 1912.83 602.744 1912.83C602.237 1912.83 601.7 1912.87 601.134 1912.96C600.567 1913.02 600.09 1913.1 599.702 1913.22L595.129 1932.08L589.719 1932.07L595.152 1909.77C596.405 1909.35 597.762 1909 599.224 1908.71C600.686 1908.38 602.266 1908.22 603.965 1908.22C604.323 1908.22 604.725 1908.26 605.172 1908.32C605.619 1908.35 606.051 1908.39 606.468 1908.45C606.915 1908.51 607.317 1908.59 607.675 1908.68C608.062 1908.77 608.39 1908.87 608.658 1908.99L607.079 1913.51ZM608.677 1923.66C608.683 1921.66 609.001 1919.74 609.633 1917.89C610.294 1916.02 611.223 1914.37 612.42 1912.94C613.647 1911.48 615.111 1910.32 616.812 1909.46C618.514 1908.6 620.423 1908.17 622.54 1908.18C624.805 1908.18 626.562 1908.77 627.811 1909.93C629.059 1911.1 629.681 1912.59 629.675 1914.41C629.669 1916.29 629.203 1917.8 628.275 1918.97C627.348 1920.13 626.138 1921.03 624.645 1921.68C623.183 1922.34 621.512 1922.78 619.633 1923.01C617.785 1923.25 615.906 1923.39 613.998 1923.45C613.968 1923.51 613.953 1923.57 613.953 1923.63L613.952 1924.07C613.943 1926.79 615.653 1928.15 619.081 1928.16C621.108 1928.16 623.137 1927.75 625.166 1926.92L625.6 1931.3C624.884 1931.63 623.869 1931.95 622.557 1932.28C621.244 1932.6 619.753 1932.76 618.084 1932.76C616.415 1932.75 614.984 1932.51 613.794 1932.03C612.603 1931.55 611.621 1930.9 610.848 1930.06C610.106 1929.22 609.557 1928.27 609.203 1927.19C608.848 1926.09 608.673 1924.91 608.677 1923.66ZM621.722 1912.6C620.827 1912.6 619.977 1912.78 619.171 1913.13C618.365 1913.49 617.648 1913.98 617.021 1914.6C616.393 1915.23 615.839 1915.97 615.359 1916.83C614.91 1917.67 614.579 1918.58 614.368 1919.56C617.945 1919.45 620.54 1919.02 622.152 1918.28C623.793 1917.54 624.616 1916.42 624.621 1914.93C624.623 1914.34 624.401 1913.8 623.955 1913.32C623.539 1912.84 622.795 1912.6 621.722 1912.6ZM637.746 1928.38C639.177 1928.38 640.31 1928.16 641.146 1927.71C641.982 1927.24 642.401 1926.52 642.404 1925.57C642.407 1924.79 642.14 1924.18 641.605 1923.73C641.07 1923.26 640.133 1922.7 638.793 1922.07C638.079 1921.74 637.409 1921.4 636.784 1921.04C636.189 1920.68 635.669 1920.26 635.223 1919.79C634.777 1919.31 634.421 1918.76 634.155 1918.13C633.888 1917.47 633.757 1916.7 633.759 1915.8C633.766 1913.48 634.621 1911.63 636.325 1910.26C638.028 1908.9 640.489 1908.22 643.708 1908.22C645.199 1908.23 646.525 1908.39 647.686 1908.72C648.878 1909.03 649.771 1909.34 650.366 1909.67L648.431 1913.87C647.925 1913.57 647.196 1913.28 646.243 1913.01C645.29 1912.71 644.292 1912.56 643.248 1912.56C642.742 1912.56 642.235 1912.6 641.728 1912.69C641.25 1912.78 640.818 1912.93 640.43 1913.13C640.042 1913.34 639.713 1913.64 639.443 1914.03C639.204 1914.38 639.083 1914.83 639.082 1915.37C639.079 1916.05 639.346 1916.62 639.881 1917.07C640.446 1917.49 641.25 1917.94 642.292 1918.42C643.274 1918.86 644.107 1919.3 644.792 1919.72C645.476 1920.14 646.041 1920.61 646.487 1921.15C646.932 1921.66 647.258 1922.24 647.465 1922.9C647.672 1923.52 647.774 1924.29 647.771 1925.18C647.768 1926.28 647.541 1927.31 647.091 1928.26C646.641 1929.19 645.983 1929.99 645.117 1930.67C644.28 1931.33 643.235 1931.85 641.982 1932.23C640.729 1932.62 639.297 1932.81 637.688 1932.8C636.585 1932.8 635.586 1932.72 634.693 1932.57C633.829 1932.42 633.069 1932.26 632.414 1932.08C631.759 1931.87 631.208 1931.66 630.761 1931.45C630.315 1931.24 629.972 1931.06 629.734 1930.91L631.67 1926.66C631.878 1926.78 632.176 1926.95 632.563 1927.16C632.979 1927.34 633.441 1927.52 633.947 1927.7C634.483 1927.88 635.064 1928.04 635.689 1928.19C636.345 1928.31 637.03 1928.37 637.746 1928.38ZM651.687 1923.76C651.693 1921.76 652.012 1919.84 652.643 1917.99C653.305 1916.12 654.234 1914.46 655.43 1913.03C656.657 1911.58 658.121 1910.42 659.823 1909.56C661.524 1908.7 663.433 1908.27 665.55 1908.27C667.815 1908.28 669.572 1908.86 670.821 1910.03C672.069 1911.19 672.691 1912.69 672.685 1914.5C672.68 1916.38 672.213 1917.9 671.285 1919.06C670.358 1920.22 669.148 1921.13 667.655 1921.78C666.193 1922.43 664.522 1922.88 662.643 1923.11C660.795 1923.35 658.916 1923.49 657.008 1923.55C656.978 1923.61 656.963 1923.66 656.963 1923.72L656.962 1924.17C656.954 1926.88 658.663 1928.24 662.091 1928.25C664.118 1928.26 666.147 1927.84 668.176 1927.01L668.61 1931.4C667.894 1931.72 666.879 1932.05 665.567 1932.37C664.254 1932.7 662.763 1932.86 661.094 1932.86C659.425 1932.85 657.995 1932.61 656.804 1932.13C655.613 1931.65 654.631 1930.99 653.858 1930.16C653.116 1929.32 652.567 1928.36 652.213 1927.29C651.858 1926.19 651.683 1925.01 651.687 1923.76ZM664.732 1912.7C663.837 1912.7 662.987 1912.87 662.181 1913.23C661.375 1913.58 660.659 1914.07 660.031 1914.7C659.403 1915.32 658.849 1916.07 658.37 1916.93C657.92 1917.76 657.589 1918.67 657.378 1919.66C660.955 1919.55 663.55 1919.12 665.162 1918.38C666.803 1917.64 667.626 1916.52 667.631 1915.03C667.633 1914.43 667.411 1913.9 666.965 1913.42C666.549 1912.94 665.805 1912.7 664.732 1912.7ZM679.426 1909.87C680.619 1909.51 681.976 1909.19 683.498 1908.89C685.049 1908.57 686.733 1908.41 688.552 1908.41C691.294 1908.42 693.304 1909.1 694.582 1910.44C695.86 1911.78 696.495 1913.59 696.488 1915.85C696.486 1916.48 696.425 1917.15 696.303 1917.87C696.212 1918.55 696.09 1919.27 695.939 1920.01L692.951 1932.3L687.541 1932.29L690.348 1920.58C690.499 1919.92 690.65 1919.25 690.801 1918.57C690.953 1917.88 691.044 1917.23 691.076 1916.6C691.109 1915.56 690.858 1914.69 690.323 1914.01C689.819 1913.32 688.806 1912.98 687.286 1912.97C686.004 1912.97 684.901 1913.1 683.976 1913.37L679.403 1932.27L673.993 1932.26L679.426 1909.87ZM705.76 1902.77L711.396 1901.89L709.676 1908.95L717.322 1908.97L716.235 1913.44L708.589 1913.42L706.326 1922.67C706.175 1923.33 706.069 1923.88 706.008 1924.33C705.947 1924.74 705.916 1925.13 705.915 1925.49C705.914 1925.85 705.943 1926.2 706.001 1926.56C706.09 1926.89 706.238 1927.19 706.446 1927.46C706.683 1927.7 707.011 1927.91 707.427 1928.09C707.874 1928.24 708.47 1928.31 709.215 1928.31C710.02 1928.32 710.795 1928.21 711.541 1928.01C712.287 1927.8 712.944 1927.58 713.511 1927.34L713.9 1931.68C713.214 1931.97 712.348 1932.26 711.304 1932.52C710.26 1932.79 709.038 1932.92 707.637 1932.92C705.073 1932.91 703.241 1932.35 702.142 1931.25C701.042 1930.11 700.495 1928.58 700.501 1926.64C700.503 1925.92 700.55 1925.19 700.642 1924.45C700.764 1923.67 700.93 1922.85 701.141 1921.99L705.76 1902.77ZM718.232 1923.91C718.238 1921.91 718.557 1919.99 719.189 1918.14C719.85 1916.26 720.779 1914.61 721.976 1913.18C723.202 1911.73 724.666 1910.57 726.368 1909.71C728.07 1908.85 729.979 1908.42 732.095 1908.42C734.361 1908.43 736.118 1909.01 737.366 1910.18C738.615 1911.34 739.236 1912.84 739.231 1914.65C739.225 1916.53 738.758 1918.05 737.831 1919.21C736.903 1920.37 735.693 1921.28 734.201 1921.93C732.738 1922.58 731.068 1923.03 729.189 1923.26C727.34 1923.5 725.462 1923.64 723.554 1923.7C723.524 1923.75 723.509 1923.81 723.509 1923.87L723.507 1924.32C723.499 1927.03 725.209 1928.39 728.637 1928.4C730.664 1928.41 732.692 1927.99 734.722 1927.16L735.156 1931.55C734.439 1931.87 733.425 1932.2 732.112 1932.52C730.8 1932.85 729.309 1933.01 727.64 1933C725.97 1933 724.54 1932.76 723.349 1932.28C722.158 1931.8 721.177 1931.14 720.404 1930.31C719.661 1929.47 719.113 1928.51 718.758 1927.44C718.404 1926.34 718.229 1925.16 718.232 1923.91ZM731.277 1912.85C730.383 1912.85 729.533 1913.02 728.727 1913.38C727.921 1913.73 727.204 1914.22 726.576 1914.85C725.948 1915.47 725.395 1916.22 724.915 1917.08C724.466 1917.91 724.135 1918.82 723.923 1919.81C727.501 1919.69 730.095 1919.27 731.707 1918.53C733.349 1917.79 734.172 1916.67 734.177 1915.18C734.178 1914.58 733.956 1914.05 733.511 1913.57C733.095 1913.09 732.35 1912.85 731.277 1912.85ZM749.479 1933.05C748.078 1933.05 746.871 1932.82 745.859 1932.38C744.847 1931.9 744.015 1931.25 743.361 1930.45C742.738 1929.64 742.278 1928.69 741.984 1927.58C741.689 1926.48 741.543 1925.29 741.547 1924C741.553 1922.01 741.902 1920.09 742.593 1918.24C743.314 1916.36 744.318 1914.72 745.604 1913.33C746.919 1911.9 748.518 1910.77 750.398 1909.94C752.279 1909.08 754.411 1908.65 756.796 1908.66C757.094 1908.66 757.452 1908.67 757.869 1908.7C758.286 1908.73 758.748 1908.81 759.254 1908.93L761.745 1898.65L767.381 1897.77L761.179 1923.11C761.028 1923.79 760.907 1924.49 760.815 1925.21C760.753 1925.9 760.722 1926.55 760.72 1927.18C760.717 1927.98 760.789 1928.79 760.936 1929.59C761.083 1930.4 761.319 1931.23 761.644 1932.1L756.813 1932.8C756.487 1932.18 756.206 1931.41 755.97 1930.52C755.223 1931.17 754.312 1931.77 753.237 1932.3C752.163 1932.81 750.91 1933.06 749.479 1933.05ZM758.168 1913.31C757.602 1913.19 756.917 1913.13 756.112 1913.13C754.741 1913.12 753.488 1913.42 752.353 1914.01C751.219 1914.58 750.248 1915.35 749.44 1916.33C748.632 1917.28 748.003 1918.38 747.552 1919.64C747.131 1920.89 746.918 1922.18 746.914 1923.52C746.912 1924.21 746.97 1924.85 747.087 1925.45C747.235 1926.04 747.457 1926.57 747.753 1927.01C748.05 1927.46 748.437 1927.82 748.913 1928.09C749.419 1928.36 750.029 1928.49 750.745 1928.5C751.699 1928.5 752.534 1928.31 753.25 1927.92C753.997 1927.53 754.699 1927 755.357 1926.32C755.388 1925.69 755.45 1925.03 755.542 1924.35C755.663 1923.66 755.799 1922.99 755.95 1922.34L758.168 1913.31ZM792.1 1908.6C793.472 1908.61 794.648 1908.85 795.631 1909.33C796.643 1909.78 797.476 1910.4 798.129 1911.21C798.782 1912.02 799.271 1912.97 799.596 1914.07C799.921 1915.15 800.081 1916.31 800.077 1917.56C800.071 1919.62 799.707 1921.59 798.986 1923.46C798.265 1925.34 797.232 1926.99 795.886 1928.42C794.57 1929.85 792.957 1930.99 791.047 1931.85C789.137 1932.68 786.989 1933.09 784.604 1933.09C784.247 1933.09 783.77 1933.07 783.174 1933.04C782.578 1933.01 781.922 1932.93 781.207 1932.81C780.492 1932.69 779.762 1932.53 779.018 1932.32C778.273 1932.11 777.588 1931.84 776.963 1931.51L784.887 1898.7L790.523 1897.82L787.626 1909.8C788.282 1909.47 788.984 1909.19 789.73 1908.95C790.476 1908.72 791.266 1908.6 792.1 1908.6ZM785.334 1928.53C786.705 1928.53 787.958 1928.25 789.092 1927.69C790.256 1927.09 791.242 1926.31 792.05 1925.32C792.888 1924.34 793.532 1923.23 793.983 1921.98C794.434 1920.69 794.661 1919.37 794.666 1918C794.668 1917.31 794.61 1916.69 794.492 1916.12C794.375 1915.52 794.168 1915.02 793.871 1914.6C793.574 1914.15 793.173 1913.81 792.667 1913.57C792.161 1913.3 791.52 1913.16 790.745 1913.16C790.09 1913.16 789.374 1913.28 788.598 1913.51C787.822 1913.75 787.106 1914.12 786.448 1914.63L783.143 1928.3C783.411 1928.36 783.709 1928.42 784.037 1928.48C784.395 1928.51 784.827 1928.53 785.334 1928.53ZM824.718 1909.21C824.117 1910.91 823.456 1912.68 822.735 1914.53C822.014 1916.35 821.203 1918.18 820.304 1920.02C819.434 1921.87 818.489 1923.72 817.47 1925.56C816.451 1927.38 815.358 1929.15 814.19 1930.87C813.322 1932.18 812.424 1933.43 811.496 1934.62C810.568 1935.84 809.551 1936.92 808.446 1937.84C807.37 1938.76 806.175 1939.5 804.862 1940.06C803.549 1940.63 802.057 1940.91 800.388 1940.9C799.464 1940.9 798.645 1940.8 797.93 1940.59C797.185 1940.38 796.56 1940.14 796.054 1939.87L797.811 1935.53C798.228 1935.77 798.689 1935.97 799.195 1936.12C799.731 1936.27 800.312 1936.34 800.938 1936.34C802.339 1936.35 803.563 1935.98 804.608 1935.23C805.683 1934.52 806.655 1933.54 807.523 1932.29C806.58 1928.98 805.785 1925.39 805.141 1921.51C804.497 1917.63 804.077 1913.52 803.882 1909.17L809.337 1909.18C809.363 1910.43 809.418 1911.82 809.503 1913.34C809.618 1914.86 809.747 1916.42 809.891 1918.03C810.066 1919.61 810.269 1921.18 810.503 1922.73C810.737 1924.28 811.001 1925.71 811.295 1927.02C812.194 1925.59 813.033 1924.09 813.813 1922.51C814.593 1920.93 815.313 1919.37 815.973 1917.82C816.634 1916.24 817.205 1914.72 817.686 1913.27C818.197 1911.78 818.633 1910.42 818.995 1909.2L824.718 1909.21Z" fill="white"/>
<path d="M577.932 2016.59C575.519 2016.59 573.046 2016.48 570.513 2016.28C567.98 2016.07 565.689 2015.74 563.64 2015.29L573.413 1974.9C575.706 1974.46 578.1 1974.17 580.594 1974.01C583.128 1973.86 585.441 1973.78 587.532 1973.79C589.945 1973.79 592.015 1974.06 593.743 1974.58C595.511 1975.07 596.936 1975.74 598.02 1976.58C599.143 1977.43 599.965 1978.44 600.484 1979.61C601.043 1980.73 601.321 1981.94 601.317 1983.23C601.315 1984.11 601.212 1985.04 601.008 1986C600.844 1986.97 600.479 1987.93 599.913 1988.89C599.387 1989.82 598.641 1990.7 597.673 1991.54C596.746 1992.39 595.517 1993.15 593.986 1993.83C595.794 1994.64 597.118 1995.75 597.958 1997.15C598.798 1998.52 599.216 2000.05 599.211 2001.74C599.205 2003.67 598.817 2005.54 598.048 2007.35C597.278 2009.12 596.047 2010.7 594.354 2012.11C592.661 2013.47 590.466 2014.57 587.769 2015.41C585.072 2016.21 581.793 2016.6 577.932 2016.59ZM577.144 1997.77L574.518 2008.62C575.161 2008.75 575.965 2008.85 576.93 2008.93C577.935 2008.97 578.86 2009 579.705 2009C580.911 2009 582.098 2008.92 583.264 2008.76C584.471 2008.57 585.538 2008.23 586.465 2007.75C587.431 2007.27 588.217 2006.6 588.823 2005.76C589.429 2004.92 589.734 2003.83 589.738 2002.5C589.739 2001.94 589.62 2001.38 589.381 2000.81C589.182 2000.25 588.841 1999.75 588.36 1999.3C587.879 1998.86 587.236 1998.5 586.433 1998.21C585.67 1997.93 584.745 1997.79 583.659 1997.79L577.144 1997.77ZM578.915 1990.72L584.827 1990.73C587.24 1990.74 589.031 1990.22 590.2 1989.17C591.41 1988.13 592.017 1986.89 592.021 1985.44C592.023 1984.67 591.844 1984.03 591.484 1983.51C591.164 1982.94 590.723 1982.5 590.161 1982.18C589.599 1981.85 588.956 1981.63 588.232 1981.51C587.509 1981.35 586.765 1981.26 586.001 1981.26C585.157 1981.26 584.252 1981.3 583.286 1981.38C582.321 1981.42 581.597 1981.47 581.114 1981.55L578.915 1990.72ZM611.968 2016.13L603.041 2016.11L610.676 1984.39L619.665 1984.41L611.968 2016.13ZM616.419 1980.55C615.172 1980.54 614.047 1980.18 613.044 1979.45C612.041 1978.69 611.542 1977.54 611.546 1976.01C611.549 1975.17 611.712 1974.38 612.036 1973.66C612.4 1972.9 612.864 1972.25 613.429 1971.73C613.994 1971.17 614.638 1970.73 615.363 1970.41C616.128 1970.09 616.933 1969.93 617.778 1969.93C619.024 1969.94 620.149 1970.32 621.152 1971.09C622.156 1971.81 622.655 1972.94 622.65 1974.47C622.648 1975.31 622.464 1976.12 622.1 1976.88C621.776 1977.6 621.332 1978.25 620.767 1978.81C620.203 1979.33 619.538 1979.75 618.773 1980.07C618.048 1980.39 617.263 1980.55 616.419 1980.55ZM628.87 1976.53L638.224 1975.11L635.904 1984.45L645.917 1984.47L644.085 1991.83L634.132 1991.81L631.445 2002.9C631.201 2003.82 631.037 2004.69 630.954 2005.49C630.912 2006.3 631.01 2007 631.249 2007.6C631.529 2008.17 631.99 2008.61 632.633 2008.94C633.275 2009.26 634.16 2009.42 635.286 2009.42C636.251 2009.43 637.176 2009.35 638.061 2009.19C638.987 2008.99 639.913 2008.73 640.838 2008.41L641.481 2015.29C640.274 2015.73 638.965 2016.11 637.557 2016.43C636.148 2016.74 634.479 2016.9 632.549 2016.9C629.774 2016.89 627.623 2016.48 626.098 2015.68C624.572 2014.83 623.49 2013.7 622.85 2012.29C622.211 2010.84 621.935 2009.19 622.021 2007.34C622.107 2005.49 622.394 2003.54 622.883 2001.49L628.87 1976.53ZM646.184 2003.54C646.192 2000.8 646.642 1998.23 647.534 1995.82C648.426 1993.41 649.699 1991.3 651.353 1989.49C653.008 1987.69 655.003 1986.26 657.338 1985.22C659.714 1984.18 662.35 1983.67 665.245 1983.67C667.055 1983.68 668.663 1983.86 670.07 1984.23C671.516 1984.55 672.822 1985 673.987 1985.56L670.889 1992.55C670.086 1992.23 669.242 1991.95 668.358 1991.7C667.514 1991.42 666.469 1991.28 665.223 1991.27C662.206 1991.27 659.831 1992.29 658.095 1994.33C656.36 1996.34 655.487 1999.09 655.476 2002.59C655.47 2004.64 655.908 2006.31 656.788 2007.6C657.669 2008.85 659.296 2009.48 661.669 2009.48C662.835 2009.49 663.962 2009.37 665.048 2009.13C666.135 2008.89 667.101 2008.59 667.946 2008.23L668.588 2015.41C667.461 2015.85 666.213 2016.23 664.845 2016.55C663.517 2016.91 661.887 2017.08 659.957 2017.08C657.464 2017.07 655.354 2016.71 653.626 2015.98C651.899 2015.25 650.475 2014.28 649.352 2013.07C648.23 2011.83 647.41 2010.38 646.892 2008.73C646.414 2007.08 646.178 2005.35 646.184 2003.54ZM686.142 2017.14C684.011 2017.13 682.162 2016.81 680.595 2016.16C679.029 2015.51 677.724 2014.61 676.682 2013.44C675.681 2012.27 674.921 2010.9 674.402 2009.33C673.884 2007.72 673.628 2005.95 673.634 2004.02C673.641 2001.61 674.031 1999.2 674.802 1996.78C675.614 1994.37 676.786 1992.2 678.32 1990.28C679.854 1988.35 681.729 1986.79 683.945 1985.58C686.16 1984.34 688.696 1983.73 691.551 1983.73C693.642 1983.74 695.471 1984.06 697.037 1984.71C698.644 1985.36 699.948 1986.26 700.95 1987.43C701.992 1988.6 702.772 1989.99 703.29 1991.6C703.808 1993.17 704.065 1994.92 704.059 1996.85C704.052 1999.26 703.662 2001.68 702.891 2004.09C702.12 2006.5 700.987 2008.67 699.493 2010.59C697.999 2012.52 696.125 2014.1 693.869 2015.35C691.653 2016.55 689.078 2017.15 686.142 2017.14ZM690.684 1991.33C689.356 1991.33 688.189 1991.71 687.181 1992.47C686.174 1993.23 685.326 1994.19 684.639 1995.36C683.952 1996.52 683.425 1997.81 683.059 1999.22C682.733 2000.58 682.569 2001.89 682.565 2003.14C682.559 2005.19 682.876 2006.78 683.516 2007.9C684.156 2008.99 685.32 2009.54 687.009 2009.54C688.337 2009.54 689.504 2009.16 690.512 2008.4C691.519 2007.64 692.367 2006.68 693.054 2005.51C693.741 2004.35 694.248 2003.08 694.573 2001.72C694.94 2000.31 695.125 1998.98 695.128 1997.73C695.134 1995.68 694.817 1994.11 694.177 1993.03C693.537 1991.9 692.373 1991.33 690.684 1991.33ZM715.354 2016.36L706.426 2016.34L714.062 1984.63L723.05 1984.65L715.354 2016.36ZM719.804 1980.78C718.558 1980.78 717.433 1980.41 716.43 1979.69C715.427 1978.92 714.927 1977.77 714.932 1976.24C714.934 1975.4 715.098 1974.62 715.422 1973.89C715.786 1973.13 716.25 1972.49 716.815 1971.97C717.379 1971.4 718.024 1970.96 718.749 1970.64C719.514 1970.32 720.319 1970.16 721.163 1970.17C722.41 1970.17 723.535 1970.55 724.538 1971.32C725.541 1972.05 726.041 1973.17 726.036 1974.7C726.034 1975.55 725.85 1976.35 725.486 1977.11C725.162 1977.84 724.718 1978.48 724.153 1979.04C723.588 1979.56 722.924 1979.98 722.158 1980.3C721.434 1980.62 720.649 1980.78 719.804 1980.78ZM730.9 1986.11C731.584 1985.91 732.329 1985.69 733.134 1985.45C733.979 1985.17 734.905 1984.94 735.911 1984.74C736.957 1984.5 738.104 1984.32 739.351 1984.2C740.639 1984.04 742.087 1983.97 743.695 1983.97C748.441 1983.98 751.694 1985.36 753.455 1988.09C755.216 1990.83 755.507 1994.57 754.326 1999.32L750.173 2016.44L741.185 2016.42L745.216 1999.66C745.461 1998.61 745.645 1997.61 745.768 1996.64C745.932 1995.64 745.935 1994.77 745.776 1994.05C745.618 1993.28 745.237 1992.68 744.636 1992.24C744.074 1991.75 743.19 1991.51 741.983 1991.51C740.817 1991.5 739.631 1991.62 738.423 1991.86L732.498 2016.4L723.51 2016.38L730.9 1986.11ZM793.861 1979.2C793.937 1980.85 794.032 1982.72 794.146 1984.81C794.301 1986.9 794.455 1989.07 794.609 1991.32C794.804 1993.54 794.998 1995.75 795.193 1997.96C795.387 2000.17 795.582 2002.22 795.777 2004.11C796.829 2002.07 797.901 1999.86 798.994 1997.49C800.087 1995.12 801.18 1992.66 802.274 1990.13C803.367 1987.6 804.441 1985.03 805.494 1982.42C806.588 1979.81 807.621 1977.26 808.594 1974.77L818.547 1974.79C815.387 1982.42 812.168 1989.69 808.89 1996.6C805.612 2003.47 802.093 2010.12 798.334 2016.55L789.527 2016.53C789.212 2014.31 788.916 2012.2 788.641 2010.19C788.406 2008.14 788.17 2006.13 787.935 2004.16C787.74 2002.19 787.545 2000.19 787.35 1998.18C787.195 1996.17 787.04 1994.08 786.886 1991.91C784.581 1996.17 782.296 2000.34 780.032 2004.44C777.808 2008.5 775.423 2012.51 772.877 2016.49L764.07 2016.47C763.76 2012.73 763.53 2009.03 763.38 2005.37C763.27 2001.71 763.221 1997.99 763.232 1994.21C763.242 1990.95 763.312 1987.71 763.443 1984.5C763.573 1981.24 763.744 1977.96 763.955 1974.67L773.425 1974.69C773.214 1978.22 773.002 1981.7 772.791 1985.12C772.62 1988.5 772.529 1992.02 772.518 1995.68C772.514 1997.04 772.509 1998.43 772.505 1999.84C772.501 2001.25 772.537 2002.65 772.613 2004.06C773.745 2002.09 774.938 2000.01 776.191 1997.8C777.444 1995.59 778.678 1993.38 779.891 1991.17C781.104 1988.96 782.256 1986.83 783.348 1984.78C784.44 1982.69 785.371 1980.83 786.14 1979.18L793.861 1979.2ZM842.774 2002.95C842.204 2005.24 842.036 2007.56 842.27 2009.89C842.505 2012.18 842.961 2014.23 843.639 2016.05L835.613 2017.17C835.373 2016.69 835.153 2016.23 834.953 2015.78C834.754 2015.34 834.554 2014.84 834.355 2014.27C833.226 2015.2 831.977 2015.96 830.608 2016.56C829.239 2017.16 827.71 2017.46 826.02 2017.45C824.01 2017.45 822.281 2017.1 820.836 2016.42C819.43 2015.69 818.267 2014.74 817.346 2013.57C816.464 2012.36 815.825 2010.98 815.428 2009.41C815.03 2007.8 814.834 2006.09 814.84 2004.28C814.848 2001.5 815.339 1998.89 816.311 1996.44C817.324 1993.99 818.698 1991.86 820.432 1990.05C822.207 1988.21 824.283 1986.76 826.659 1985.72C829.035 1984.68 831.61 1984.17 834.385 1984.17C834.747 1984.17 835.37 1984.2 836.255 1984.24C837.18 1984.28 838.225 1984.38 839.391 1984.55C840.556 1984.67 841.782 1984.89 843.068 1985.22C844.354 1985.54 845.579 1985.99 846.744 1986.55L842.774 2002.95ZM836.533 1991.84C836.011 1991.76 835.528 1991.7 835.086 1991.66C834.684 1991.61 834.182 1991.59 833.578 1991.59C832.211 1991.59 830.923 1991.93 829.715 1992.61C828.546 1993.29 827.518 1994.19 826.63 1995.32C825.742 1996.4 825.034 1997.67 824.507 1999.11C824.02 2000.56 823.774 2002.07 823.77 2003.63C823.764 2005.56 824.081 2007.09 824.721 2008.22C825.361 2009.35 826.546 2009.91 828.275 2009.92C829.2 2009.92 830.025 2009.74 830.75 2009.38C831.515 2009.02 832.321 2008.42 833.168 2007.58C833.252 2006.57 833.376 2005.53 833.54 2004.44C833.744 2003.31 833.948 2002.29 834.152 2001.37L836.533 1991.84ZM861.605 2017.29C858.75 2017.29 856.499 2016.92 854.852 2016.19C853.246 2015.42 852.083 2014.4 851.363 2013.11C850.683 2011.82 850.346 2010.35 850.351 2008.7C850.396 2007.01 850.643 2005.22 851.091 2003.33L858.848 1971.32L868.202 1969.89L859.713 2004.62C859.55 2005.34 859.447 2006.01 859.405 2006.61C859.404 2007.21 859.523 2007.76 859.762 2008.24C860.002 2008.68 860.403 2009.05 860.966 2009.33C861.568 2009.61 862.392 2009.79 863.437 2009.88L861.605 2017.29ZM896.499 2003.07C895.929 2005.36 895.761 2007.68 895.995 2010.01C896.23 2012.3 896.686 2014.35 897.364 2016.17L889.338 2017.29C889.098 2016.81 888.878 2016.35 888.679 2015.91C888.479 2015.46 888.279 2014.96 888.08 2014.4C886.951 2015.32 885.702 2016.08 884.333 2016.68C882.964 2017.28 881.435 2017.58 879.746 2017.57C877.735 2017.57 876.007 2017.22 874.561 2016.54C873.156 2015.81 871.992 2014.86 871.071 2013.69C870.19 2012.49 869.55 2011.1 869.153 2009.53C868.756 2007.92 868.56 2006.21 868.565 2004.4C868.573 2001.62 869.064 1999.01 870.036 1996.56C871.049 1994.11 872.423 1991.98 874.158 1990.17C875.933 1988.33 878.008 1986.89 880.384 1985.85C882.76 1984.81 885.335 1984.29 888.11 1984.29C888.472 1984.3 889.095 1984.32 889.98 1984.36C890.905 1984.4 891.95 1984.5 893.116 1984.67C894.282 1984.79 895.508 1985.01 896.794 1985.34C898.079 1985.66 899.305 1986.11 900.469 1986.67L896.499 2003.07ZM890.259 1991.96C889.736 1991.88 889.254 1991.82 888.811 1991.78C888.409 1991.74 887.907 1991.71 887.304 1991.71C885.936 1991.71 884.648 1992.05 883.44 1992.73C882.272 1993.41 881.243 1994.31 880.355 1995.44C879.467 1996.52 878.76 1997.79 878.232 1999.23C877.745 2000.68 877.5 2002.19 877.495 2003.76C877.489 2005.69 877.806 2007.21 878.446 2008.34C879.086 2009.47 880.271 2010.03 882 2010.04C882.925 2010.04 883.75 2009.86 884.475 2009.5C885.24 2009.14 886.047 2008.54 886.894 2007.7C886.977 2006.69 887.101 2005.65 887.265 2004.56C887.469 2003.44 887.674 2002.41 887.877 2001.49L890.259 1991.96Z" fill="white"/>
<path d="M906.699 1943.39L903.995 1954.5C905.802 1954.92 907.619 1955.35 909.39 1955.8L912.073 1944.76L918.807 1946.48L916.048 1957.82C924.548 1960.82 930.765 1965.32 929.544 1973.69C928.66 1979.82 925.346 1982.79 920.948 1983.82C926.988 1987.05 930.06 1991.99 927.134 2000.56C923.499 2011.21 914.867 2012.11 903.389 2009.88L897.817 2008.59L899.241 2000.05C905.121 2001.32 912.68 2001.91 914.162 1995.81C915.862 1988.82 907.291 1985.88 901.288 1984.38C900.175 1983.85 899.008 1983.43 897.785 1983.12C896.499 1982.8 895.273 1982.57 894.107 1982.45C892.942 1982.29 891.896 1982.18 890.971 1982.14C890.087 1982.1 889.463 1982.08 889.102 1982.08C887.658 1982.07 886.268 1982.21 884.933 1982.49L886.731 1975.1L889.871 1962.18C889.955 1960.72 889.462 1958.87 886.734 1958.17C886.84 1958.1 881.878 1956.93 881.846 1956.92L883.637 1949.55L892.92 1951.93L892.913 1951.96C894.31 1952.32 895.747 1952.66 897.213 1953L899.971 1941.67L906.699 1943.39ZM888.295 1989.49C888.898 1989.5 889.401 1989.52 889.803 1989.56C890.245 1989.6 890.727 1989.66 891.25 1989.74L890.596 1992.36H882.532L882.667 1991.81C883.215 1991.31 883.802 1990.88 884.431 1990.51C885.639 1989.83 886.928 1989.49 888.295 1989.49ZM898.83 1976.43C902.631 1977.4 914.346 1981.36 916.243 1973.57C918.22 1965.43 905.981 1963.62 902.182 1962.65L898.83 1976.43Z" fill="white"/>
</g>
<defs>
<filter id="filter0_f_183_134" x="718.191" y="949.646" width="2392.44" height="2392.44" filterUnits="userSpaceOnUse" color-interpolation-filters="sRGB">
<feFlood flood-opacity="0" result="BackgroundImageFix"/>
<feBlend mode="normal" in="SourceGraphic" in2="BackgroundImageFix" result="shape"/>
<feGaussianBlur stdDeviation="9.89321" result="effect1_foregroundBlur_183_134"/>
</filter>
<filter id="filter1_f_183_134" x="609.365" y="840.821" width="2610.09" height="2610.09" filterUnits="userSpaceOnUse" color-interpolation-filters="sRGB">
<feFlood flood-opacity="0" result="BackgroundImageFix"/>
<feBlend mode="normal" in="SourceGraphic" in2="BackgroundImageFix" result="shape"/>
<feGaussianBlur stdDeviation="64.3058" result="effect1_foregroundBlur_183_134"/>
</filter>
<filter id="filter2_f_183_134" x="963.489" y="1194.95" width="1901.84" height="1901.84" filterUnits="userSpaceOnUse" color-interpolation-filters="sRGB">
<feFlood flood-opacity="0" result="BackgroundImageFix"/>
<feBlend mode="normal" in="SourceGraphic" in2="BackgroundImageFix" result="shape"/>
<feGaussianBlur stdDeviation="17.9583" result="effect1_foregroundBlur_183_134"/>
</filter>
<filter id="filter3_f_183_134" x="1250.98" y="1482.44" width="1326.85" height="1326.85" filterUnits="userSpaceOnUse" color-interpolation-filters="sRGB">
<feFlood flood-opacity="0" result="BackgroundImageFix"/>
<feBlend mode="normal" in="SourceGraphic" in2="BackgroundImageFix" result="shape"/>
<feGaussianBlur stdDeviation="10.646" result="effect1_foregroundBlur_183_134"/>
</filter>
<linearGradient id="paint0_linear_183_134" x1="427.596" y1="371.539" x2="1574.44" y2="2240.7" gradientUnits="userSpaceOnUse">
<stop stop-color="#A21D52"/>
<stop offset="1" stop-color="#840035"/>
</linearGradient>
<clipPath id="clip0_183_134">
<rect x="406.77" y="352.183" width="1522.69" height="1849.6" rx="53.7674" fill="white"/>
</clipPath>
<clipPath id="clip1_183_134">
<rect width="722.634" height="234.426" fill="white" transform="translate(559 462)"/>
</clipPath>
</defs>
</svg>
