<svg width="2297" height="2681" viewBox="0 0 2297 2681" fill="none" xmlns="http://www.w3.org/2000/svg">
<g clip-path="url(#clip0_605_66)">
<rect x="406.537" y="352.183" width="1522.69" height="1849.6" rx="53.7674" fill="black"/>
<g filter="url(#filter0_f_605_66)">
<g filter="url(#filter1_f_605_66)">
<circle cx="1914.18" cy="2145.86" r="1176.43" fill="#2176C6" fill-opacity="0.5"/>
</g>
<g filter="url(#filter2_f_605_66)">
<circle cx="1914.18" cy="2145.86" r="915.002" fill="#2176C6" fill-opacity="0.6"/>
</g>
<g filter="url(#filter3_f_605_66)">
<circle cx="1914.18" cy="2145.86" r="642.135" fill="#2176C6" fill-opacity="0.8"/>
</g>
<circle cx="1914.18" cy="2145.86" r="408.483" fill="#2276C5"/>
<circle cx="1914.17" cy="2145.86" r="187.109" fill="black"/>
</g>
<mask id="path-7-outside-1_605_66" maskUnits="userSpaceOnUse" x="403.592" y="353.539" width="1528" height="1847" fill="black">
<rect fill="white" x="403.592" y="353.539" width="1528" height="1847"/>
<path d="M1871.16 371.539C1894.92 371.539 1914.18 390.797 1914.18 414.553V2139.41C1914.18 2163.17 1894.92 2182.43 1871.16 2182.43H464.605C440.85 2182.43 421.592 2163.17 421.592 2139.41V414.553C421.592 390.797 440.85 371.539 464.605 371.539H1871.16Z"/>
</mask>
<path d="M1871.16 371.539L1871.16 354.333H1871.16V371.539ZM1914.18 414.553H1931.38V414.553L1914.18 414.553ZM1914.18 2139.41H1931.38H1914.18ZM1871.16 2182.43V2199.63H1871.16L1871.16 2182.43ZM464.605 2182.43L464.605 2199.63H464.605V2182.43ZM421.592 2139.41H404.386H421.592ZM421.592 414.553L404.386 414.553V414.553H421.592ZM464.605 371.539V354.333H464.605L464.605 371.539ZM1871.16 371.539L1871.16 388.745C1885.42 388.745 1896.97 400.3 1896.97 414.553L1914.18 414.553L1931.38 414.553C1931.38 381.295 1904.42 354.334 1871.16 354.333L1871.16 371.539ZM1914.18 414.553H1896.97V2139.41H1914.18H1931.38V414.553H1914.18ZM1914.18 2139.41H1896.97C1896.97 2153.67 1885.42 2165.22 1871.16 2165.22L1871.16 2182.43L1871.16 2199.63C1904.42 2199.63 1931.38 2172.67 1931.38 2139.41H1914.18ZM1871.16 2182.43V2165.22H464.605V2182.43V2199.63H1871.16V2182.43ZM464.605 2182.43L464.606 2165.22C450.352 2165.22 438.797 2153.67 438.797 2139.41H421.592H404.386C404.386 2172.67 431.347 2199.63 464.605 2199.63L464.605 2182.43ZM421.592 2139.41H438.797V414.553H421.592H404.386V2139.41H421.592ZM421.592 414.553L438.797 414.553C438.797 400.299 450.352 388.745 464.606 388.745L464.605 371.539L464.605 354.333C431.347 354.334 404.386 381.295 404.386 414.553L421.592 414.553ZM464.605 371.539V388.745H1871.16V371.539V354.333H464.605V371.539Z" fill="url(#paint0_linear_605_66)" mask="url(#path-7-outside-1_605_66)"/>
<path d="M591.164 1170.86C592.272 1179.04 594.48 1185.16 597.786 1189.21C603.834 1196.59 614.223 1200.3 628.954 1200.33C637.776 1200.35 644.941 1199.39 650.451 1197.46C660.903 1193.76 666.144 1186.86 666.174 1176.74C666.192 1170.83 663.616 1166.25 658.446 1163C653.275 1159.83 645.15 1157.02 634.069 1154.57L615.143 1150.28C596.54 1146.03 583.685 1141.43 576.577 1136.47C564.543 1128.19 558.552 1115.27 558.605 1097.7C558.653 1081.68 564.52 1068.38 576.207 1057.8C587.893 1047.23 605.027 1041.96 627.609 1042.01C646.467 1042.06 662.517 1047.11 675.761 1057.18C689.085 1067.16 696.043 1081.66 696.633 1100.69L660.697 1100.61C660.082 1089.84 655.411 1082.18 646.683 1077.63C640.865 1074.62 633.626 1073.11 624.966 1073.09C615.334 1073.07 607.639 1074.99 601.881 1078.86C596.123 1082.74 593.234 1088.15 593.213 1095.11C593.194 1101.51 596.012 1106.29 601.668 1109.46C605.304 1111.57 613.066 1114.06 624.955 1116.91L655.77 1124.39C669.276 1127.66 679.461 1132.01 686.324 1137.45C696.983 1145.89 702.288 1158.08 702.24 1174.03C702.191 1190.38 695.877 1203.96 683.3 1214.78C670.803 1225.51 653.143 1230.86 630.319 1230.8C607.009 1230.75 588.693 1225.41 575.371 1214.78C562.048 1204.06 555.415 1189.4 555.471 1170.78L591.164 1170.86ZM778.892 1158.9L824.297 1159L802.17 1088.54L778.892 1158.9ZM781.533 1047.58L823.782 1047.68L886.617 1226.77L846.068 1226.68L834.645 1189.86L768.723 1189.72L756.229 1226.47L717.137 1226.39L781.533 1047.58ZM1021.55 1048.12L1021.45 1079.81L967.915 1079.69L967.472 1226.95L929.837 1226.86L930.279 1079.6L876.497 1079.48L876.593 1047.79L1021.55 1048.12ZM1117.85 1200.58C1132.66 1200.61 1144.41 1195.17 1153.11 1184.27C1161.88 1173.36 1166.3 1157.83 1166.36 1137.68C1166.42 1117.61 1162.1 1102.1 1153.39 1091.15C1144.76 1080.12 1133.04 1074.59 1118.23 1074.56C1103.42 1074.53 1091.58 1079.96 1082.73 1090.87C1073.88 1101.78 1069.42 1117.31 1069.36 1137.46C1069.3 1157.61 1073.66 1173.16 1082.45 1184.11C1091.24 1195.05 1103.04 1200.54 1117.85 1200.58ZM1203.75 1137.76C1203.65 1169.89 1194.56 1194.48 1176.46 1211.51C1162.9 1225.41 1143.33 1232.32 1117.76 1232.26C1092.18 1232.21 1072.65 1225.2 1059.18 1211.25C1041.1 1194.13 1032.11 1169.51 1032.21 1137.38C1032.31 1104.6 1041.44 1080.01 1059.62 1063.62C1073.18 1049.73 1092.75 1042.82 1118.32 1042.87C1143.9 1042.93 1163.43 1049.94 1176.9 1063.89C1194.9 1080.36 1203.85 1104.98 1203.75 1137.76ZM1259.37 1172.37C1260.48 1180.54 1262.69 1186.66 1265.99 1190.71C1272.04 1198.09 1282.43 1201.8 1297.16 1201.83C1305.98 1201.85 1313.15 1200.9 1318.66 1198.97C1329.11 1195.27 1334.35 1188.36 1334.38 1178.24C1334.4 1172.33 1331.82 1167.75 1326.65 1164.5C1321.48 1161.34 1313.36 1158.53 1302.28 1156.07L1283.35 1151.78C1264.75 1147.53 1251.89 1142.93 1244.79 1137.98C1232.75 1129.69 1226.76 1116.77 1226.81 1099.21C1226.86 1083.18 1232.73 1069.88 1244.41 1059.3C1256.1 1048.73 1273.24 1043.47 1295.82 1043.52C1314.67 1043.56 1330.73 1048.61 1343.97 1058.68C1357.29 1068.66 1364.25 1083.17 1364.84 1102.19L1328.91 1102.11C1328.29 1091.34 1323.62 1083.68 1314.89 1079.13C1309.07 1076.12 1301.83 1074.61 1293.17 1074.59C1283.54 1074.57 1275.85 1076.49 1270.09 1080.37C1264.33 1084.24 1261.44 1089.65 1261.42 1096.61C1261.4 1103.01 1264.22 1107.79 1269.88 1110.96C1273.51 1113.07 1281.27 1115.56 1293.16 1118.42L1323.98 1125.89C1337.48 1129.16 1347.67 1133.51 1354.53 1138.95C1365.19 1147.39 1370.5 1159.59 1370.45 1175.53C1370.4 1191.88 1364.09 1205.46 1351.51 1216.28C1339.01 1227.02 1321.35 1232.36 1298.53 1232.31C1275.22 1232.25 1256.9 1226.91 1243.58 1216.28C1230.26 1205.57 1223.62 1190.9 1223.68 1172.29L1259.37 1172.37ZM1397.73 1227.92L1398.27 1048.97L1435.29 1049.05L1435.09 1117.28L1505.02 1117.44L1505.22 1049.21L1542.37 1049.29L1541.83 1228.24L1504.68 1228.16L1504.92 1148.27L1435 1148.12L1434.76 1228L1397.73 1227.92ZM1611.88 1228.4L1574.73 1228.31L1575.27 1049.37L1612.42 1049.45L1611.88 1228.4ZM664.227 1380.26C664.255 1370.95 661.806 1364.31 656.881 1360.33C652.037 1356.35 645.204 1354.35 636.382 1354.33L601.539 1354.26L601.38 1406.95L636.223 1407.02C645.045 1407.04 651.891 1404.91 656.76 1400.64C661.71 1396.36 664.199 1389.56 664.227 1380.26ZM701.256 1380.1C701.192 1401.22 695.806 1416.14 685.096 1424.86C674.386 1433.58 659.117 1437.91 639.287 1437.87L601.288 1437.78L601.094 1502.13L563.945 1502.04L564.483 1323.09L642.424 1323.27C660.392 1323.31 674.704 1327.95 685.36 1337.2C696.015 1346.46 701.314 1360.75 701.256 1380.1ZM759.608 1434.86L805.014 1434.96L782.887 1364.5L759.608 1434.86ZM762.25 1323.54L804.499 1323.63L867.333 1502.72L826.784 1502.63L815.362 1465.82L749.439 1465.67L736.945 1502.43L697.853 1502.34L762.25 1323.54ZM917.397 1447.6C918.505 1455.77 920.712 1461.89 924.019 1465.94C930.067 1473.32 940.456 1477.03 955.186 1477.06C964.008 1477.08 971.174 1476.13 976.684 1474.2C987.135 1470.5 992.377 1463.59 992.407 1453.47C992.425 1447.56 989.849 1442.99 984.678 1439.74C979.508 1436.57 971.382 1433.76 960.301 1431.3L941.375 1427.01C922.773 1422.76 909.917 1418.16 902.81 1413.21C890.775 1404.92 884.784 1392 884.837 1374.44C884.885 1358.41 890.753 1345.11 902.439 1334.54C914.126 1323.96 931.26 1318.7 953.841 1318.75C972.699 1318.79 988.75 1323.84 1001.99 1333.91C1015.32 1343.9 1022.28 1358.4 1022.87 1377.42L986.93 1377.34C986.315 1366.57 981.644 1358.91 972.916 1354.36C967.098 1351.35 959.858 1349.84 951.198 1349.82C941.567 1349.8 933.872 1351.73 928.114 1355.6C922.356 1359.47 919.466 1364.89 919.445 1371.85C919.426 1378.24 922.245 1383.02 927.901 1386.19C931.536 1388.3 939.299 1390.79 951.188 1393.65L982.002 1401.12C995.509 1404.39 1005.69 1408.74 1012.56 1414.18C1023.22 1422.62 1028.52 1434.82 1028.47 1450.76C1028.42 1467.11 1022.11 1480.69 1009.53 1491.51C997.036 1502.25 979.375 1507.59 956.551 1507.54C933.242 1507.49 914.926 1502.14 901.603 1491.51C888.281 1480.8 881.648 1466.13 881.704 1447.52L917.397 1447.6ZM1083.23 1447.97C1084.34 1456.15 1086.55 1462.26 1089.86 1466.32C1095.9 1473.7 1106.29 1477.4 1121.02 1477.44C1129.85 1477.46 1137.01 1476.5 1142.52 1474.57C1152.97 1470.87 1158.21 1463.96 1158.25 1453.85C1158.26 1447.94 1155.69 1443.36 1150.52 1440.11C1145.35 1436.94 1137.22 1434.13 1126.14 1431.68L1107.21 1427.39C1088.61 1423.14 1075.76 1418.53 1068.65 1413.58C1056.61 1405.3 1050.62 1392.37 1050.68 1374.81C1050.72 1358.79 1056.59 1345.49 1068.28 1334.91C1079.96 1324.33 1097.1 1319.07 1119.68 1319.12C1138.54 1319.16 1154.59 1324.22 1167.83 1334.28C1181.16 1344.27 1188.11 1358.77 1188.7 1377.79L1152.77 1377.71C1152.15 1366.95 1147.48 1359.29 1138.75 1354.74C1132.94 1351.73 1125.7 1350.21 1117.04 1350.19C1107.4 1350.17 1099.71 1352.1 1093.95 1355.97C1088.19 1359.84 1085.3 1365.26 1085.28 1372.22C1085.26 1378.61 1088.08 1383.39 1093.74 1386.56C1097.37 1388.68 1105.14 1391.16 1117.03 1394.02L1147.84 1401.5C1161.35 1404.76 1171.53 1409.12 1178.39 1414.56C1189.05 1423 1194.36 1435.19 1194.31 1451.13C1194.26 1467.48 1187.95 1481.07 1175.37 1491.88C1162.87 1502.62 1145.21 1507.96 1122.39 1507.91C1099.08 1507.86 1080.76 1502.52 1067.44 1491.88C1054.12 1481.17 1047.49 1466.51 1047.54 1447.89L1083.23 1447.97Z" fill="white"/>
<path d="M569.932 1569.21L569.887 1584.2L581.509 1584.23C586.748 1584.24 590.307 1582.32 590.324 1576.48C590.341 1571 586.613 1569.25 581.795 1569.23L569.932 1569.21ZM569.872 1589.2L569.817 1607.45L563.976 1607.43L564.106 1564.2L583.556 1564.24C591.566 1564.26 596.368 1569.45 596.347 1576.43C596.328 1582.46 592.875 1589.25 583.481 1589.23L569.872 1589.2ZM610.159 1588.99L610.103 1607.54L604.262 1607.52L604.392 1564.29L624.385 1564.33C631.491 1564.35 638.589 1566.83 638.562 1575.99C638.542 1582.37 635.283 1584.71 632.508 1586.33C634.974 1587.36 637.44 1588.45 637.663 1594.47L638.001 1602.3C638.054 1604.71 638.352 1605.61 640.155 1606.64L640.153 1607.61L632.986 1607.59C632.151 1604.94 631.99 1598.37 631.995 1596.75C632.006 1593.19 631.296 1589.04 624.31 1589.02L610.159 1588.99ZM610.218 1569.3L610.174 1583.99L623.723 1584.02C627.999 1584.03 632.519 1582.96 632.538 1576.58C632.558 1569.89 627.682 1569.34 624.791 1569.33L610.218 1569.3ZM653.873 1564.4L653.743 1607.64L647.902 1607.62L648.032 1564.39L653.873 1564.4ZM679.375 1601.31L691.71 1564.48L698.274 1564.5L682.366 1607.7L676.164 1607.69L660.516 1564.41L667.02 1564.43L679.254 1601.31L679.375 1601.31ZM723.288 1595.21L705.945 1595.17L701.391 1607.74L695.369 1607.73L711.758 1564.53L718.382 1564.54L733.909 1607.82L727.526 1607.8L723.288 1595.21ZM707.767 1589.99L721.196 1590.02L714.87 1570.98L714.749 1570.98L707.767 1589.99ZM728.415 1569.75L728.431 1564.57L763.539 1564.65L763.523 1569.82L748.89 1569.79L748.776 1607.85L742.934 1607.84L743.049 1569.78L728.415 1569.75ZM801.382 1602.79L801.367 1607.97L769.451 1607.9L769.581 1564.66L801.075 1564.73L801.06 1569.91L775.406 1569.85L775.366 1583.1L799.033 1583.15L799.017 1588.33L775.351 1588.28L775.307 1602.73L801.382 1602.79ZM849.96 1595.49L832.617 1595.45L828.063 1608.03L822.041 1608.01L838.43 1564.81L845.054 1564.83L860.581 1608.1L854.198 1608.09L849.96 1595.49ZM834.439 1590.28L847.868 1590.31L841.542 1571.26L841.422 1571.26L834.439 1590.28ZM866.241 1608.11L866.372 1564.88L883.895 1564.92C895.156 1564.94 902.056 1573.51 902.018 1585.97C901.989 1595.67 897.736 1608.18 883.524 1608.15L866.241 1608.11ZM872.198 1569.89L872.098 1603.13L883.419 1603.15C891.007 1603.17 895.963 1597.22 895.995 1586.32C896.028 1575.42 891.046 1569.93 883.097 1569.91L872.198 1569.89ZM950.65 1608.3L944.989 1608.29L945.066 1582.76C945.07 1581.49 945.207 1576.01 945.219 1571.98L945.098 1571.98L932.825 1608.26L927.044 1608.25L914.988 1571.97L914.868 1571.97C914.856 1575.95 914.96 1581.43 914.956 1582.69L914.879 1608.22L909.219 1608.21L909.349 1564.97L917.719 1564.99L929.954 1601.57L930.075 1601.57L942.469 1565.05L950.78 1565.07L950.65 1608.3ZM966.437 1565.1L966.307 1608.34L960.466 1608.33L960.596 1565.09L966.437 1565.1ZM1007.97 1577.84L1002.49 1577.83C1002.21 1571.14 996.675 1569.02 991.797 1569.01C988.124 1569 981.918 1570.01 981.899 1576.58C981.887 1580.25 984.473 1581.46 987.001 1582.07L999.337 1584.93C1004.93 1586.26 1009.14 1589.65 1009.12 1596.51C1009.09 1606.75 999.564 1609.56 992.157 1609.54C984.148 1609.52 981.024 1607.11 979.102 1605.36C975.439 1602.04 974.727 1598.42 974.739 1594.39L980.219 1594.4C980.195 1602.23 986.572 1604.53 992.112 1604.54C996.327 1604.55 1003.44 1603.48 1003.46 1597.28C1003.47 1592.77 1001.37 1591.32 994.265 1589.61L985.419 1587.55C982.59 1586.88 976.213 1584.88 976.236 1577.35C976.256 1570.6 980.672 1563.99 991.15 1564.01C1006.26 1564.05 1007.74 1573.08 1007.97 1577.84ZM1048.14 1577.93L1042.66 1577.92C1042.37 1571.23 1036.84 1569.11 1031.96 1569.1C1028.29 1569.09 1022.08 1570.1 1022.06 1576.67C1022.05 1580.34 1024.64 1581.55 1027.17 1582.16L1039.5 1585.02C1045.1 1586.36 1049.3 1589.74 1049.28 1596.6C1049.25 1606.84 1039.73 1609.65 1032.32 1609.63C1024.31 1609.61 1021.19 1607.2 1019.27 1605.45C1015.6 1602.13 1014.89 1598.51 1014.9 1594.48L1020.38 1594.49C1020.36 1602.32 1026.74 1604.62 1032.28 1604.63C1036.49 1604.64 1043.6 1603.57 1043.62 1597.37C1043.63 1592.86 1041.53 1591.41 1034.43 1589.7L1025.58 1587.64C1022.76 1586.97 1016.38 1584.97 1016.4 1577.44C1016.42 1570.69 1020.84 1564.08 1031.32 1564.1C1046.43 1564.14 1047.91 1573.17 1048.14 1577.93ZM1063.53 1565.32L1063.4 1608.56L1057.56 1608.54L1057.69 1565.31L1063.53 1565.32ZM1107.38 1587.04C1107.41 1576.86 1101.78 1569.44 1092.38 1569.42C1082.99 1569.4 1077.3 1576.79 1077.27 1586.97C1077.24 1597.15 1082.88 1604.57 1092.28 1604.59C1101.67 1604.61 1107.35 1597.21 1107.38 1587.04ZM1113.41 1587.05C1113.38 1596.38 1108.4 1609.8 1092.26 1609.77C1076.12 1609.73 1071.22 1596.29 1071.25 1586.96C1071.28 1577.62 1076.26 1564.2 1092.4 1564.24C1108.54 1564.28 1113.43 1577.72 1113.41 1587.05ZM1148.97 1600.44L1149.08 1565.51L1154.74 1565.52L1154.61 1608.76L1148.05 1608.75L1126.17 1573.77L1126.05 1573.77L1125.95 1608.7L1120.28 1608.69L1120.41 1565.45L1127.34 1565.46L1148.85 1600.44L1148.97 1600.44Z" fill="white"/>
<g clip-path="url(#clip1_605_66)">
<ellipse cx="638.682" cy="578.736" rx="67.6097" ry="65.7873" fill="black"/>
<path d="M546.91 557.08C557.961 521.253 595.965 501.171 631.78 512.226C667.605 523.281 687.684 561.292 676.629 597.117C665.574 632.94 627.569 653.018 591.742 641.963C555.933 630.909 535.853 592.901 546.91 557.08ZM607.695 544.815C606.097 544.358 604.528 543.906 603.007 543.438L603.017 543.399L592.899 540.273L590.483 548.109C590.519 548.12 595.932 549.678 595.812 549.75C598.783 550.668 599.22 552.692 599.04 554.268L594.803 567.999C595.007 568.063 595.273 568.154 595.562 568.289L594.79 568.052L588.85 587.287C588.431 588.182 587.42 589.503 585.343 588.866C585.411 588.978 580.051 587.232 580.011 587.219L575.849 595.533L585.398 598.479C587.174 599.03 588.913 599.599 590.624 600.14L586.865 612.333L594.193 614.597L597.917 602.534C599.914 603.197 601.857 603.814 603.759 604.399L600.051 616.404L607.387 618.668L611.145 606.499C623.697 609.598 633.29 609.155 637.933 597.905C641.676 588.846 638.576 583.33 632.094 579.485C637.016 578.628 640.855 575.632 642.195 569.082C644.039 560.135 637.438 554.907 628.224 551.154L631.942 539.101L624.604 536.837L620.982 548.573C619.056 547.978 617.073 547.408 615.103 546.843L618.749 535.029L611.416 532.767L607.695 544.815ZM605.81 577.561C610.783 579.097 626.811 582.478 623.885 591.98C621.075 601.091 605.799 595.244 600.823 593.712L605.81 577.561ZM612.61 555.519C616.754 556.797 630.172 559.495 627.503 568.14C624.943 576.427 612.233 571.445 608.089 570.167L612.61 555.519Z" fill="white"/>
<path d="M733.965 563.81C736.901 563.816 739.438 564.342 741.576 565.387C743.714 566.432 745.484 567.843 746.886 569.62C748.288 571.397 749.321 573.479 749.987 575.867C750.653 578.254 750.981 580.824 750.973 583.577C750.961 587.798 750.153 591.803 748.551 595.593C747.011 599.321 744.89 602.589 742.19 605.397C739.49 608.144 736.302 610.339 732.627 611.982C728.952 613.565 724.973 614.351 720.691 614.341C720.14 614.34 719.161 614.307 717.754 614.243C716.409 614.24 714.849 614.114 713.076 613.865C711.302 613.617 709.407 613.245 707.39 612.752C705.433 612.258 703.57 611.581 701.798 610.72L717.874 544.044L732.104 541.874L726.343 565.536C727.568 564.988 728.793 564.563 730.017 564.26C731.242 563.956 732.558 563.807 733.965 563.81ZM721.917 603.057C724.058 603.062 726.079 602.547 727.978 601.511C729.878 600.475 731.503 599.102 732.854 597.393C734.267 595.622 735.374 593.636 736.176 591.435C736.978 589.235 737.382 586.942 737.389 584.556C737.398 581.619 736.916 579.324 735.942 577.67C734.968 576.016 733.166 575.187 730.535 575.181C729.679 575.179 728.547 575.329 727.139 575.632C725.792 575.935 724.566 576.574 723.462 577.551L717.33 602.68C717.697 602.742 718.003 602.804 718.247 602.866C718.553 602.927 718.859 602.989 719.164 603.051C719.47 603.052 719.837 603.053 720.266 603.054C720.694 603.055 721.244 603.056 721.917 603.057ZM768.154 613.163L754.573 613.133L766.188 564.892L779.861 564.922L768.154 613.163ZM774.923 559.038C773.027 559.034 771.316 558.48 769.79 557.375C768.264 556.209 767.504 554.464 767.511 552.139C767.515 550.855 767.763 549.662 768.256 548.562C768.81 547.401 769.517 546.424 770.376 545.631C771.235 544.776 772.215 544.105 773.318 543.618C774.482 543.132 775.706 542.89 776.991 542.893C778.887 542.897 780.598 543.482 782.124 544.648C783.65 545.752 784.41 547.467 784.403 549.792C784.399 551.076 784.12 552.299 783.566 553.46C783.073 554.56 782.397 555.538 781.538 556.392C780.68 557.185 779.668 557.825 778.504 558.312C777.402 558.799 776.208 559.041 774.923 559.038ZM793.864 552.933L808.094 550.762L804.564 564.978L819.796 565.012L817.01 576.201L801.869 576.167L797.781 593.042C797.409 594.448 797.161 595.763 797.035 596.986C796.97 598.21 797.12 599.281 797.484 600.199C797.91 601.056 798.611 601.731 799.588 602.223C800.566 602.714 801.911 602.962 803.624 602.966C805.092 602.969 806.499 602.85 807.846 602.608C809.254 602.305 810.662 601.911 812.071 601.425L813.049 611.888C811.211 612.557 809.221 613.133 807.079 613.618C804.936 614.103 802.397 614.342 799.46 614.335C795.239 614.326 791.968 613.706 789.647 612.478C787.326 611.188 785.68 609.471 784.707 607.328C783.735 605.123 783.314 602.614 783.445 599.8C783.576 596.987 784.013 594.021 784.757 590.902L793.864 552.933ZM820.202 594.01C820.214 589.85 820.899 585.937 822.256 582.269C823.613 578.602 825.549 575.394 828.066 572.647C830.582 569.9 833.617 567.735 837.17 566.152C840.784 564.57 844.794 563.784 849.198 563.793C851.951 563.8 854.397 564.08 856.537 564.636C858.738 565.13 860.724 565.808 862.495 566.668L857.783 577.302C856.561 576.81 855.278 576.379 853.933 576.009C852.65 575.578 851.06 575.36 849.163 575.356C844.575 575.345 840.961 576.897 838.321 580.011C835.682 583.064 834.354 587.252 834.338 592.574C834.328 595.694 834.994 598.234 836.334 600.195C837.674 602.094 840.148 603.048 843.758 603.056C845.532 603.06 847.245 602.88 848.898 602.517C850.551 602.154 852.021 601.698 853.307 601.15L854.284 612.072C852.569 612.742 850.67 613.318 848.589 613.803C846.569 614.349 844.09 614.619 841.154 614.612C837.361 614.604 834.151 614.046 831.524 612.939C828.896 611.832 826.729 610.359 825.022 608.52C823.314 606.619 822.067 604.414 821.279 601.904C820.553 599.394 820.194 596.763 820.202 594.01ZM880.986 614.702C877.744 614.695 874.931 614.199 872.548 613.215C870.165 612.23 868.181 610.85 866.596 609.072C865.072 607.294 863.916 605.212 863.128 602.824C862.34 600.375 861.95 597.683 861.959 594.746C861.97 591.076 862.562 587.407 863.736 583.739C864.97 580.071 866.754 576.772 869.088 573.84C871.421 570.909 874.273 568.53 877.643 566.702C881.014 564.813 884.871 563.874 889.214 563.883C892.395 563.891 895.177 564.386 897.56 565.37C900.004 566.355 901.988 567.736 903.512 569.513C905.097 571.291 906.284 573.404 907.072 575.853C907.86 578.24 908.25 580.902 908.241 583.839C908.23 587.509 907.638 591.179 906.464 594.846C905.291 598.514 903.568 601.814 901.296 604.745C899.023 607.677 896.171 610.087 892.74 611.975C889.37 613.803 885.452 614.712 880.986 614.702ZM887.895 575.443C885.876 575.438 884.1 576.015 882.567 577.174C881.034 578.333 879.745 579.798 878.7 581.57C877.654 583.342 876.853 585.298 876.296 587.438C875.801 589.516 875.55 591.504 875.544 593.401C875.535 596.52 876.017 598.938 876.991 600.653C877.964 602.307 879.736 603.137 882.305 603.143C884.324 603.147 886.1 602.57 887.633 601.411C889.166 600.252 890.455 598.787 891.5 597.015C892.546 595.243 893.316 593.318 893.812 591.239C894.369 589.099 894.65 587.081 894.656 585.185C894.665 582.065 894.183 579.678 893.209 578.024C892.235 576.309 890.464 575.448 887.895 575.443ZM925.423 613.517L911.842 613.487L923.458 565.245L937.13 565.276L925.423 613.517ZM932.193 559.392C930.296 559.388 928.585 558.833 927.059 557.729C925.533 556.563 924.774 554.818 924.781 552.493C924.785 551.208 925.033 550.016 925.526 548.916C926.08 547.755 926.786 546.778 927.645 545.984C928.504 545.13 929.485 544.459 930.587 543.972C931.751 543.485 932.976 543.243 934.26 543.246C936.157 543.25 937.868 543.835 939.394 545.001C940.92 546.106 941.679 547.82 941.672 550.145C941.668 551.43 941.389 552.653 940.835 553.814C940.343 554.914 939.667 555.891 938.808 556.746C937.949 557.539 936.938 558.179 935.774 558.666C934.671 559.153 933.478 559.395 932.193 559.392ZM949.072 567.505C950.113 567.202 951.245 566.868 952.47 566.503C953.756 566.078 955.164 565.714 956.694 565.412C958.286 565.048 960.03 564.777 961.927 564.598C963.886 564.357 966.088 564.24 968.535 564.245C975.754 564.262 980.703 566.353 983.382 570.519C986.061 574.685 986.503 580.375 984.707 587.59L978.389 613.636L964.716 613.605L970.849 588.109C971.221 586.519 971.501 584.991 971.689 583.523C971.938 581.994 971.942 580.679 971.701 579.577C971.46 578.414 970.881 577.495 969.966 576.82C969.111 576.084 967.767 575.714 965.931 575.71C964.157 575.706 962.352 575.885 960.516 576.248L951.502 613.576L937.83 613.545L949.072 567.505ZM1005.78 550.106L1020.09 550.138L1004.58 613.695L990.353 613.663L1005.78 550.106ZM1029.72 567.686C1030.76 567.383 1031.9 567.049 1033.12 566.685C1034.41 566.259 1035.81 565.895 1037.35 565.593C1038.94 565.229 1040.68 564.958 1042.58 564.779C1044.54 564.539 1046.74 564.421 1049.19 564.427C1056.4 564.443 1061.35 566.534 1064.03 570.7C1066.71 574.866 1067.15 580.556 1065.36 587.771L1059.04 613.818L1045.37 613.787L1051.5 588.29C1051.87 586.701 1052.15 585.172 1052.34 583.704C1052.59 582.175 1052.59 580.86 1052.35 579.758C1052.11 578.595 1051.53 577.676 1050.62 577.001C1049.76 576.265 1048.42 575.895 1046.58 575.891C1044.81 575.887 1043 576.067 1041.17 576.43L1032.15 613.757L1018.48 613.726L1029.72 567.686ZM1090.45 615.173C1087.4 615.166 1084.77 614.64 1082.57 613.595C1080.43 612.55 1078.66 611.139 1077.26 609.362C1075.92 607.524 1074.91 605.411 1074.25 603.024C1073.64 600.575 1073.35 597.975 1073.35 595.222C1073.37 591.062 1074.11 587.148 1075.59 583.481C1077.13 579.753 1079.22 576.515 1081.86 573.768C1084.5 571.021 1087.63 568.857 1091.24 567.274C1094.85 565.692 1098.8 564.905 1103.09 564.915C1104.19 564.917 1105.2 564.981 1106.11 565.105C1107.09 565.23 1108.07 565.416 1109.05 565.662L1114.07 544.935L1128.29 542.765L1116.03 593.115C1115.16 596.6 1114.91 600.117 1115.26 603.666C1115.62 607.154 1116.32 610.276 1117.35 613.031L1105.14 614.747C1104.77 614.012 1104.44 613.308 1104.13 612.634C1103.83 611.961 1103.53 611.195 1103.22 610.338C1101.51 611.741 1099.58 612.899 1097.43 613.812C1095.35 614.725 1093.02 615.179 1090.45 615.173ZM1106.35 576.576C1105.99 576.514 1105.65 576.452 1105.34 576.39C1105.1 576.329 1104.82 576.297 1104.52 576.297C1104.27 576.235 1103.94 576.204 1103.51 576.203C1103.08 576.202 1102.53 576.201 1101.86 576.199C1099.72 576.194 1097.73 576.71 1095.89 577.746C1094.05 578.72 1092.46 580.063 1091.11 581.772C1089.82 583.482 1088.8 585.438 1088.06 587.638C1087.32 589.778 1086.95 591.979 1086.94 594.243C1086.93 597.179 1087.41 599.505 1088.39 601.22C1089.42 602.874 1091.25 603.704 1093.88 603.71C1095.29 603.713 1096.58 603.441 1097.74 602.893C1098.9 602.345 1100.13 601.43 1101.42 600.148C1101.55 598.619 1101.73 597.029 1101.98 595.378C1102.3 593.666 1102.61 592.106 1102.92 590.7L1106.35 576.576ZM1138.25 613.996L1124.67 613.965L1136.29 565.724L1149.96 565.754L1138.25 613.996ZM1145.02 559.87C1143.13 559.866 1141.41 559.312 1139.89 558.207C1138.36 557.041 1137.6 555.296 1137.61 552.972C1137.61 551.687 1137.86 550.494 1138.35 549.394C1138.91 548.233 1139.62 547.256 1140.47 546.463C1141.33 545.608 1142.31 544.938 1143.42 544.451C1144.58 543.964 1145.8 543.722 1147.09 543.725C1148.99 543.729 1150.7 544.314 1152.22 545.48C1153.75 546.584 1154.51 548.299 1154.5 550.624C1154.5 551.908 1154.22 553.131 1153.66 554.292C1153.17 555.392 1152.5 556.37 1151.64 557.224C1150.78 558.018 1149.77 558.658 1148.6 559.144C1147.5 559.631 1146.31 559.873 1145.02 559.87ZM1195.96 593.295C1195.09 596.78 1194.84 600.297 1195.19 603.846C1195.55 607.334 1196.25 610.455 1197.28 613.211L1185.07 614.927C1184.7 614.192 1184.37 613.488 1184.06 612.814C1183.76 612.14 1183.46 611.375 1183.15 610.518C1181.44 611.921 1179.54 613.079 1177.45 613.992C1175.37 614.905 1173.05 615.359 1170.48 615.353C1167.42 615.346 1164.79 614.82 1162.59 613.775C1160.45 612.669 1158.68 611.227 1157.28 609.45C1155.94 607.612 1154.97 605.499 1154.36 603.112C1153.76 600.664 1153.46 598.063 1153.47 595.31C1153.48 591.089 1154.23 587.114 1155.71 583.386C1157.25 579.658 1159.34 576.42 1161.98 573.673C1164.68 570.865 1167.83 568.67 1171.45 567.087C1175.06 565.505 1178.98 564.718 1183.2 564.728C1183.75 564.729 1184.7 564.762 1186.04 564.826C1187.45 564.89 1189.04 565.047 1190.81 565.296C1192.59 565.483 1194.45 565.824 1196.41 566.318C1198.36 566.811 1200.23 567.489 1202 568.349L1195.96 593.295ZM1186.47 576.389C1185.67 576.265 1184.94 576.172 1184.27 576.109C1183.65 576.046 1182.89 576.014 1181.97 576.012C1179.89 576.007 1177.93 576.523 1176.1 577.559C1174.32 578.595 1172.75 579.968 1171.4 581.678C1170.05 583.326 1168.98 585.251 1168.17 587.452C1167.43 589.652 1167.06 591.945 1167.05 594.331C1167.04 597.268 1167.53 599.593 1168.5 601.309C1169.47 603.024 1171.27 603.884 1173.91 603.89C1175.31 603.893 1176.57 603.621 1177.67 603.073C1178.83 602.525 1180.06 601.61 1181.35 600.328C1181.48 598.799 1181.66 597.209 1181.91 595.558C1182.22 593.845 1182.54 592.286 1182.85 590.88L1186.47 576.389Z" fill="white"/>
</g>
<path d="M590.569 1900.74C594.295 1900.75 597.14 1901.49 599.103 1902.95C601.096 1904.42 602.088 1906.51 602.08 1909.22C602.073 1911.37 601.651 1913.2 600.811 1914.72C600.002 1916.21 598.866 1917.43 597.402 1918.38C595.968 1919.33 594.237 1920.02 592.209 1920.47C590.211 1920.88 588.004 1921.08 585.59 1921.08L583.175 1921.07L580.504 1932.02L574.87 1932.01L582.25 1901.49C583.682 1901.19 585.114 1901 586.545 1900.91C587.976 1900.8 589.317 1900.74 590.569 1900.74ZM590.019 1905.48C589.452 1905.48 588.916 1905.5 588.409 1905.52C587.902 1905.55 587.395 1905.6 586.888 1905.65L584.307 1916.34L586.588 1916.34C587.84 1916.34 589.047 1916.24 590.21 1916.04C591.374 1915.83 592.403 1915.49 593.299 1915.01C594.194 1914.51 594.912 1913.84 595.451 1913.01C595.99 1912.14 596.262 1911.06 596.266 1909.74C596.27 1908.22 595.707 1907.14 594.576 1906.48C593.475 1905.82 591.956 1905.49 590.019 1905.48ZM619.079 1913.51C618.483 1913.3 617.843 1913.13 617.158 1913.01C616.473 1912.89 615.668 1912.83 614.744 1912.83C614.237 1912.83 613.7 1912.87 613.134 1912.96C612.567 1913.02 612.09 1913.1 611.702 1913.22L607.129 1932.08L601.719 1932.07L607.152 1909.77C608.405 1909.35 609.762 1909 611.224 1908.71C612.686 1908.38 614.266 1908.22 615.965 1908.22C616.323 1908.22 616.725 1908.26 617.172 1908.32C617.619 1908.35 618.051 1908.39 618.468 1908.45C618.915 1908.51 619.317 1908.59 619.675 1908.68C620.062 1908.77 620.39 1908.87 620.658 1908.99L619.079 1913.51ZM620.677 1923.66C620.683 1921.66 621.001 1919.74 621.633 1917.89C622.294 1916.02 623.223 1914.37 624.42 1912.94C625.647 1911.48 627.111 1910.32 628.812 1909.46C630.514 1908.6 632.423 1908.17 634.54 1908.18C636.805 1908.18 638.562 1908.77 639.811 1909.93C641.059 1911.1 641.681 1912.59 641.675 1914.41C641.669 1916.29 641.203 1917.8 640.275 1918.97C639.348 1920.13 638.138 1921.03 636.645 1921.68C635.183 1922.34 633.512 1922.78 631.633 1923.01C629.785 1923.25 627.906 1923.39 625.998 1923.45C625.968 1923.51 625.953 1923.57 625.953 1923.63L625.952 1924.07C625.943 1926.79 627.653 1928.15 631.081 1928.16C633.108 1928.16 635.137 1927.75 637.166 1926.92L637.6 1931.3C636.884 1931.63 635.869 1931.95 634.557 1932.28C633.244 1932.6 631.753 1932.76 630.084 1932.76C628.415 1932.75 626.984 1932.51 625.794 1932.03C624.603 1931.55 623.621 1930.9 622.848 1930.06C622.106 1929.22 621.557 1928.27 621.203 1927.19C620.848 1926.09 620.673 1924.91 620.677 1923.66ZM633.722 1912.6C632.827 1912.6 631.977 1912.78 631.171 1913.13C630.365 1913.49 629.648 1913.98 629.021 1914.6C628.393 1915.23 627.839 1915.97 627.359 1916.83C626.91 1917.67 626.579 1918.58 626.368 1919.56C629.945 1919.45 632.54 1919.02 634.152 1918.28C635.793 1917.54 636.616 1916.42 636.621 1914.93C636.623 1914.34 636.401 1913.8 635.955 1913.32C635.539 1912.84 634.795 1912.6 633.722 1912.6ZM649.746 1928.38C651.177 1928.38 652.31 1928.16 653.146 1927.71C653.982 1927.24 654.401 1926.52 654.404 1925.57C654.407 1924.79 654.14 1924.18 653.605 1923.73C653.07 1923.26 652.133 1922.7 650.793 1922.07C650.079 1921.74 649.409 1921.4 648.784 1921.04C648.189 1920.68 647.669 1920.26 647.223 1919.79C646.777 1919.31 646.421 1918.76 646.155 1918.13C645.888 1917.47 645.757 1916.7 645.759 1915.8C645.766 1913.48 646.621 1911.63 648.325 1910.26C650.028 1908.9 652.489 1908.22 655.708 1908.22C657.199 1908.23 658.525 1908.39 659.686 1908.72C660.878 1909.03 661.771 1909.34 662.366 1909.67L660.431 1913.87C659.925 1913.57 659.196 1913.28 658.243 1913.01C657.29 1912.71 656.292 1912.56 655.248 1912.56C654.742 1912.56 654.235 1912.6 653.728 1912.69C653.25 1912.78 652.818 1912.93 652.43 1913.13C652.042 1913.34 651.713 1913.64 651.443 1914.03C651.204 1914.38 651.083 1914.83 651.082 1915.37C651.079 1916.05 651.346 1916.62 651.881 1917.07C652.446 1917.49 653.25 1917.94 654.292 1918.42C655.274 1918.86 656.107 1919.3 656.792 1919.72C657.476 1920.14 658.041 1920.61 658.487 1921.15C658.932 1921.66 659.258 1922.24 659.465 1922.9C659.672 1923.52 659.774 1924.29 659.771 1925.18C659.768 1926.28 659.541 1927.31 659.091 1928.26C658.641 1929.19 657.983 1929.99 657.117 1930.67C656.28 1931.33 655.235 1931.85 653.982 1932.23C652.729 1932.62 651.297 1932.81 649.688 1932.8C648.585 1932.8 647.586 1932.72 646.693 1932.57C645.829 1932.42 645.069 1932.26 644.414 1932.08C643.759 1931.87 643.208 1931.66 642.761 1931.45C642.315 1931.24 641.972 1931.06 641.734 1930.91L643.67 1926.66C643.878 1926.78 644.176 1926.95 644.563 1927.16C644.979 1927.34 645.441 1927.52 645.947 1927.7C646.483 1927.88 647.064 1928.04 647.689 1928.19C648.345 1928.31 649.03 1928.37 649.746 1928.38ZM663.687 1923.76C663.693 1921.76 664.012 1919.84 664.643 1917.99C665.305 1916.12 666.234 1914.46 667.43 1913.03C668.657 1911.58 670.121 1910.42 671.823 1909.56C673.524 1908.7 675.433 1908.27 677.55 1908.27C679.815 1908.28 681.572 1908.86 682.821 1910.03C684.069 1911.19 684.691 1912.69 684.685 1914.5C684.68 1916.38 684.213 1917.9 683.285 1919.06C682.358 1920.22 681.148 1921.13 679.655 1921.78C678.193 1922.43 676.522 1922.88 674.643 1923.11C672.795 1923.35 670.916 1923.49 669.008 1923.55C668.978 1923.61 668.963 1923.66 668.963 1923.72L668.962 1924.17C668.954 1926.88 670.663 1928.24 674.091 1928.25C676.118 1928.26 678.147 1927.84 680.176 1927.01L680.61 1931.4C679.894 1931.72 678.879 1932.05 677.567 1932.37C676.254 1932.7 674.763 1932.86 673.094 1932.86C671.425 1932.85 669.995 1932.61 668.804 1932.13C667.613 1931.65 666.631 1930.99 665.858 1930.16C665.116 1929.32 664.567 1928.36 664.213 1927.29C663.858 1926.19 663.683 1925.01 663.687 1923.76ZM676.732 1912.7C675.837 1912.7 674.987 1912.87 674.181 1913.23C673.375 1913.58 672.659 1914.07 672.031 1914.7C671.403 1915.32 670.849 1916.07 670.37 1916.93C669.92 1917.76 669.589 1918.67 669.378 1919.66C672.955 1919.55 675.55 1919.12 677.162 1918.38C678.803 1917.64 679.626 1916.52 679.631 1915.03C679.633 1914.43 679.411 1913.9 678.965 1913.42C678.549 1912.94 677.805 1912.7 676.732 1912.7ZM691.426 1909.87C692.619 1909.51 693.976 1909.19 695.498 1908.89C697.049 1908.57 698.733 1908.41 700.552 1908.41C703.294 1908.42 705.304 1909.1 706.582 1910.44C707.86 1911.78 708.495 1913.59 708.488 1915.85C708.486 1916.48 708.425 1917.15 708.303 1917.87C708.212 1918.55 708.09 1919.27 707.939 1920.01L704.951 1932.3L699.541 1932.29L702.348 1920.58C702.499 1919.92 702.65 1919.25 702.801 1918.57C702.953 1917.88 703.044 1917.23 703.076 1916.6C703.109 1915.56 702.858 1914.69 702.323 1914.01C701.819 1913.32 700.806 1912.98 699.286 1912.97C698.004 1912.97 696.901 1913.1 695.976 1913.37L691.403 1932.27L685.993 1932.26L691.426 1909.87ZM717.76 1902.77L723.396 1901.89L721.676 1908.95L729.322 1908.97L728.235 1913.44L720.589 1913.42L718.326 1922.67C718.175 1923.33 718.069 1923.88 718.008 1924.33C717.947 1924.74 717.916 1925.13 717.915 1925.49C717.914 1925.85 717.943 1926.2 718.001 1926.56C718.09 1926.89 718.238 1927.19 718.446 1927.46C718.683 1927.7 719.011 1927.91 719.427 1928.09C719.874 1928.24 720.47 1928.31 721.215 1928.31C722.02 1928.32 722.795 1928.21 723.541 1928.01C724.287 1927.8 724.944 1927.58 725.511 1927.34L725.9 1931.68C725.214 1931.97 724.348 1932.26 723.304 1932.52C722.26 1932.79 721.038 1932.92 719.637 1932.92C717.073 1932.91 715.241 1932.35 714.142 1931.25C713.042 1930.11 712.495 1928.58 712.501 1926.64C712.503 1925.92 712.55 1925.19 712.642 1924.45C712.764 1923.67 712.93 1922.85 713.141 1921.99L717.76 1902.77ZM730.232 1923.91C730.238 1921.91 730.557 1919.99 731.189 1918.14C731.85 1916.26 732.779 1914.61 733.976 1913.18C735.202 1911.73 736.666 1910.57 738.368 1909.71C740.07 1908.85 741.979 1908.42 744.095 1908.42C746.361 1908.43 748.118 1909.01 749.366 1910.18C750.615 1911.34 751.236 1912.84 751.231 1914.65C751.225 1916.53 750.758 1918.05 749.831 1919.21C748.903 1920.37 747.693 1921.28 746.201 1921.93C744.738 1922.58 743.068 1923.03 741.189 1923.26C739.34 1923.5 737.462 1923.64 735.554 1923.7C735.524 1923.75 735.509 1923.81 735.509 1923.87L735.507 1924.32C735.499 1927.03 737.209 1928.39 740.637 1928.4C742.664 1928.41 744.692 1927.99 746.722 1927.16L747.156 1931.55C746.439 1931.87 745.425 1932.2 744.112 1932.52C742.8 1932.85 741.309 1933.01 739.64 1933C737.97 1933 736.54 1932.76 735.349 1932.28C734.158 1931.8 733.177 1931.14 732.404 1930.31C731.661 1929.47 731.113 1928.51 730.758 1927.44C730.404 1926.34 730.229 1925.16 730.232 1923.91ZM743.277 1912.85C742.383 1912.85 741.533 1913.02 740.727 1913.38C739.921 1913.73 739.204 1914.22 738.576 1914.85C737.948 1915.47 737.395 1916.22 736.915 1917.08C736.466 1917.91 736.135 1918.82 735.923 1919.81C739.501 1919.69 742.095 1919.27 743.707 1918.53C745.349 1917.79 746.172 1916.67 746.177 1915.18C746.178 1914.58 745.956 1914.05 745.511 1913.57C745.095 1913.09 744.35 1912.85 743.277 1912.85ZM761.479 1933.05C760.078 1933.05 758.871 1932.82 757.859 1932.38C756.847 1931.9 756.015 1931.25 755.361 1930.45C754.738 1929.64 754.278 1928.69 753.984 1927.58C753.689 1926.48 753.543 1925.29 753.547 1924C753.553 1922.01 753.902 1920.09 754.593 1918.24C755.314 1916.36 756.318 1914.72 757.604 1913.33C758.919 1911.9 760.518 1910.77 762.398 1909.94C764.279 1909.08 766.411 1908.65 768.796 1908.66C769.094 1908.66 769.452 1908.67 769.869 1908.7C770.286 1908.73 770.748 1908.81 771.254 1908.93L773.745 1898.65L779.381 1897.77L773.179 1923.11C773.028 1923.79 772.907 1924.49 772.815 1925.21C772.753 1925.9 772.722 1926.55 772.72 1927.18C772.717 1927.98 772.789 1928.79 772.936 1929.59C773.083 1930.4 773.319 1931.23 773.644 1932.1L768.813 1932.8C768.487 1932.18 768.206 1931.41 767.97 1930.52C767.223 1931.17 766.312 1931.77 765.237 1932.3C764.163 1932.81 762.91 1933.06 761.479 1933.05ZM770.168 1913.31C769.602 1913.19 768.917 1913.13 768.112 1913.13C766.741 1913.12 765.488 1913.42 764.353 1914.01C763.219 1914.58 762.248 1915.35 761.44 1916.33C760.632 1917.28 760.003 1918.38 759.552 1919.64C759.131 1920.89 758.918 1922.18 758.914 1923.52C758.912 1924.21 758.97 1924.85 759.087 1925.45C759.235 1926.04 759.457 1926.57 759.753 1927.01C760.05 1927.46 760.437 1927.82 760.913 1928.09C761.419 1928.36 762.029 1928.49 762.745 1928.5C763.699 1928.5 764.534 1928.31 765.25 1927.92C765.997 1927.53 766.699 1927 767.357 1926.32C767.388 1925.69 767.45 1925.03 767.542 1924.35C767.663 1923.66 767.799 1922.99 767.95 1922.34L770.168 1913.31ZM804.1 1908.6C805.472 1908.61 806.648 1908.85 807.631 1909.33C808.643 1909.78 809.476 1910.4 810.129 1911.21C810.782 1912.02 811.271 1912.97 811.596 1914.07C811.921 1915.15 812.081 1916.31 812.077 1917.56C812.071 1919.62 811.707 1921.59 810.986 1923.46C810.265 1925.34 809.232 1926.99 807.886 1928.42C806.57 1929.85 804.957 1930.99 803.047 1931.85C801.137 1932.68 798.989 1933.09 796.604 1933.09C796.247 1933.09 795.77 1933.07 795.174 1933.04C794.578 1933.01 793.922 1932.93 793.207 1932.81C792.492 1932.69 791.762 1932.53 791.018 1932.32C790.273 1932.11 789.588 1931.84 788.963 1931.51L796.887 1898.7L802.523 1897.82L799.626 1909.8C800.282 1909.47 800.984 1909.19 801.73 1908.95C802.476 1908.72 803.266 1908.6 804.1 1908.6ZM797.334 1928.53C798.705 1928.53 799.958 1928.25 801.092 1927.69C802.256 1927.09 803.242 1926.31 804.05 1925.32C804.888 1924.34 805.532 1923.23 805.983 1921.98C806.434 1920.69 806.661 1919.37 806.666 1918C806.668 1917.31 806.61 1916.69 806.492 1916.12C806.375 1915.52 806.168 1915.02 805.871 1914.6C805.574 1914.15 805.173 1913.81 804.667 1913.57C804.161 1913.3 803.52 1913.16 802.745 1913.16C802.09 1913.16 801.374 1913.28 800.598 1913.51C799.822 1913.75 799.106 1914.12 798.448 1914.63L795.143 1928.3C795.411 1928.36 795.709 1928.42 796.037 1928.48C796.395 1928.51 796.827 1928.53 797.334 1928.53ZM836.718 1909.21C836.117 1910.91 835.456 1912.68 834.735 1914.53C834.014 1916.35 833.203 1918.18 832.304 1920.02C831.434 1921.87 830.489 1923.72 829.47 1925.56C828.451 1927.38 827.358 1929.15 826.19 1930.87C825.322 1932.18 824.424 1933.43 823.496 1934.62C822.568 1935.84 821.551 1936.92 820.446 1937.84C819.37 1938.76 818.175 1939.5 816.862 1940.06C815.549 1940.63 814.057 1940.91 812.388 1940.9C811.464 1940.9 810.645 1940.8 809.93 1940.59C809.185 1940.38 808.56 1940.14 808.054 1939.87L809.811 1935.53C810.228 1935.77 810.689 1935.97 811.195 1936.12C811.731 1936.27 812.312 1936.34 812.938 1936.34C814.339 1936.35 815.563 1935.98 816.608 1935.23C817.683 1934.52 818.655 1933.54 819.523 1932.29C818.58 1928.98 817.785 1925.39 817.141 1921.51C816.497 1917.63 816.077 1913.52 815.882 1909.17L821.337 1909.18C821.363 1910.43 821.418 1911.82 821.503 1913.34C821.618 1914.86 821.747 1916.42 821.891 1918.03C822.066 1919.61 822.269 1921.18 822.503 1922.73C822.737 1924.28 823.001 1925.71 823.295 1927.02C824.194 1925.59 825.033 1924.09 825.813 1922.51C826.593 1920.93 827.313 1919.37 827.973 1917.82C828.634 1916.24 829.205 1914.72 829.686 1913.27C830.197 1911.78 830.633 1910.42 830.995 1909.2L836.718 1909.21Z" fill="white"/>
<path d="M589.932 2016.59C587.519 2016.59 585.046 2016.48 582.513 2016.28C579.98 2016.07 577.689 2015.74 575.64 2015.29L585.413 1974.9C587.706 1974.46 590.1 1974.17 592.594 1974.01C595.128 1973.86 597.441 1973.78 599.532 1973.79C601.945 1973.79 604.015 1974.06 605.743 1974.58C607.511 1975.07 608.936 1975.74 610.02 1976.58C611.143 1977.43 611.965 1978.44 612.484 1979.61C613.043 1980.73 613.321 1981.94 613.317 1983.23C613.315 1984.11 613.212 1985.04 613.008 1986C612.844 1986.97 612.479 1987.93 611.913 1988.89C611.387 1989.82 610.641 1990.7 609.673 1991.54C608.746 1992.39 607.517 1993.15 605.986 1993.83C607.794 1994.64 609.118 1995.75 609.958 1997.15C610.798 1998.52 611.216 2000.05 611.211 2001.74C611.205 2003.67 610.817 2005.54 610.048 2007.35C609.278 2009.12 608.047 2010.7 606.354 2012.11C604.661 2013.47 602.466 2014.57 599.769 2015.41C597.072 2016.21 593.793 2016.6 589.932 2016.59ZM589.144 1997.77L586.518 2008.62C587.161 2008.75 587.965 2008.85 588.93 2008.93C589.935 2008.97 590.86 2009 591.705 2009C592.911 2009 594.098 2008.92 595.264 2008.76C596.471 2008.57 597.538 2008.23 598.465 2007.75C599.431 2007.27 600.217 2006.6 600.823 2005.76C601.429 2004.92 601.734 2003.83 601.738 2002.5C601.739 2001.94 601.62 2001.38 601.381 2000.81C601.182 2000.25 600.841 1999.75 600.36 1999.3C599.879 1998.86 599.236 1998.5 598.433 1998.21C597.67 1997.93 596.745 1997.79 595.659 1997.79L589.144 1997.77ZM590.915 1990.72L596.827 1990.73C599.24 1990.74 601.031 1990.22 602.2 1989.17C603.41 1988.13 604.017 1986.89 604.021 1985.44C604.023 1984.67 603.844 1984.03 603.484 1983.51C603.164 1982.94 602.723 1982.5 602.161 1982.18C601.599 1981.85 600.956 1981.63 600.232 1981.51C599.509 1981.35 598.765 1981.26 598.001 1981.26C597.157 1981.26 596.252 1981.3 595.286 1981.38C594.321 1981.42 593.597 1981.47 593.114 1981.55L590.915 1990.72ZM623.968 2016.13L615.041 2016.11L622.676 1984.39L631.665 1984.41L623.968 2016.13ZM628.419 1980.55C627.172 1980.54 626.047 1980.18 625.044 1979.45C624.041 1978.69 623.542 1977.54 623.546 1976.01C623.549 1975.17 623.712 1974.38 624.036 1973.66C624.4 1972.9 624.864 1972.25 625.429 1971.73C625.994 1971.17 626.638 1970.73 627.363 1970.41C628.128 1970.09 628.933 1969.93 629.778 1969.93C631.024 1969.94 632.149 1970.32 633.152 1971.09C634.156 1971.81 634.655 1972.94 634.65 1974.47C634.648 1975.31 634.464 1976.12 634.1 1976.88C633.776 1977.6 633.332 1978.25 632.767 1978.81C632.203 1979.33 631.538 1979.75 630.773 1980.07C630.048 1980.39 629.263 1980.55 628.419 1980.55ZM640.87 1976.53L650.224 1975.11L647.904 1984.45L657.917 1984.47L656.085 1991.83L646.132 1991.81L643.445 2002.9C643.201 2003.82 643.037 2004.69 642.954 2005.49C642.912 2006.3 643.01 2007 643.249 2007.6C643.529 2008.17 643.99 2008.61 644.633 2008.94C645.275 2009.26 646.16 2009.42 647.286 2009.42C648.251 2009.43 649.176 2009.35 650.061 2009.19C650.987 2008.99 651.913 2008.73 652.838 2008.41L653.481 2015.29C652.274 2015.73 650.965 2016.11 649.557 2016.43C648.148 2016.74 646.479 2016.9 644.549 2016.9C641.774 2016.89 639.623 2016.48 638.098 2015.68C636.572 2014.83 635.49 2013.7 634.85 2012.29C634.211 2010.84 633.935 2009.19 634.021 2007.34C634.107 2005.49 634.394 2003.54 634.883 2001.49L640.87 1976.53ZM658.184 2003.54C658.192 2000.8 658.642 1998.23 659.534 1995.82C660.426 1993.41 661.699 1991.3 663.353 1989.49C665.008 1987.69 667.003 1986.26 669.338 1985.22C671.714 1984.18 674.35 1983.67 677.245 1983.67C679.055 1983.68 680.663 1983.86 682.07 1984.23C683.516 1984.55 684.822 1985 685.987 1985.56L682.889 1992.55C682.086 1992.23 681.242 1991.95 680.358 1991.7C679.514 1991.42 678.469 1991.28 677.223 1991.27C674.206 1991.27 671.831 1992.29 670.095 1994.33C668.36 1996.34 667.487 1999.09 667.476 2002.59C667.47 2004.64 667.908 2006.31 668.788 2007.6C669.669 2008.85 671.296 2009.48 673.669 2009.48C674.835 2009.49 675.962 2009.37 677.048 2009.13C678.135 2008.89 679.101 2008.59 679.946 2008.23L680.588 2015.41C679.461 2015.85 678.213 2016.23 676.845 2016.55C675.517 2016.91 673.887 2017.08 671.957 2017.08C669.464 2017.07 667.354 2016.71 665.626 2015.98C663.899 2015.25 662.475 2014.28 661.352 2013.07C660.23 2011.83 659.41 2010.38 658.892 2008.73C658.414 2007.08 658.178 2005.35 658.184 2003.54ZM698.142 2017.14C696.011 2017.13 694.162 2016.81 692.595 2016.16C691.029 2015.51 689.724 2014.61 688.682 2013.44C687.681 2012.27 686.921 2010.9 686.402 2009.33C685.884 2007.72 685.628 2005.95 685.634 2004.02C685.641 2001.61 686.031 1999.2 686.802 1996.78C687.614 1994.37 688.786 1992.2 690.32 1990.28C691.854 1988.35 693.729 1986.79 695.945 1985.58C698.16 1984.34 700.696 1983.73 703.551 1983.73C705.642 1983.74 707.471 1984.06 709.037 1984.71C710.644 1985.36 711.948 1986.26 712.95 1987.43C713.992 1988.6 714.772 1989.99 715.29 1991.6C715.808 1993.17 716.065 1994.92 716.059 1996.85C716.052 1999.26 715.662 2001.68 714.891 2004.09C714.12 2006.5 712.987 2008.67 711.493 2010.59C709.999 2012.52 708.125 2014.1 705.869 2015.35C703.653 2016.55 701.078 2017.15 698.142 2017.14ZM702.684 1991.33C701.356 1991.33 700.189 1991.71 699.181 1992.47C698.174 1993.23 697.326 1994.19 696.639 1995.36C695.952 1996.52 695.425 1997.81 695.059 1999.22C694.733 2000.58 694.569 2001.89 694.565 2003.14C694.559 2005.19 694.876 2006.78 695.516 2007.9C696.156 2008.99 697.32 2009.54 699.009 2009.54C700.337 2009.54 701.504 2009.16 702.512 2008.4C703.519 2007.64 704.367 2006.68 705.054 2005.51C705.741 2004.35 706.248 2003.08 706.573 2001.72C706.94 2000.31 707.125 1998.98 707.128 1997.73C707.134 1995.68 706.817 1994.11 706.177 1993.03C705.537 1991.9 704.373 1991.33 702.684 1991.33ZM727.354 2016.36L718.426 2016.34L726.062 1984.63L735.05 1984.65L727.354 2016.36ZM731.804 1980.78C730.558 1980.78 729.433 1980.41 728.43 1979.69C727.427 1978.92 726.927 1977.77 726.932 1976.24C726.934 1975.4 727.098 1974.62 727.422 1973.89C727.786 1973.13 728.25 1972.49 728.815 1971.97C729.379 1971.4 730.024 1970.96 730.749 1970.64C731.514 1970.32 732.319 1970.16 733.163 1970.17C734.41 1970.17 735.535 1970.55 736.538 1971.32C737.541 1972.05 738.041 1973.17 738.036 1974.7C738.034 1975.55 737.85 1976.35 737.486 1977.11C737.162 1977.84 736.718 1978.48 736.153 1979.04C735.588 1979.56 734.924 1979.98 734.158 1980.3C733.434 1980.62 732.649 1980.78 731.804 1980.78ZM742.9 1986.11C743.584 1985.91 744.329 1985.69 745.134 1985.45C745.979 1985.17 746.905 1984.94 747.911 1984.74C748.957 1984.5 750.104 1984.32 751.351 1984.2C752.639 1984.04 754.087 1983.97 755.695 1983.97C760.441 1983.98 763.694 1985.36 765.455 1988.09C767.216 1990.83 767.507 1994.57 766.326 1999.32L762.173 2016.44L753.185 2016.42L757.216 1999.66C757.461 1998.61 757.645 1997.61 757.768 1996.64C757.932 1995.64 757.935 1994.77 757.776 1994.05C757.618 1993.28 757.237 1992.68 756.636 1992.24C756.074 1991.75 755.19 1991.51 753.983 1991.51C752.817 1991.5 751.631 1991.62 750.423 1991.86L744.498 2016.4L735.51 2016.38L742.9 1986.11ZM805.861 1979.2C805.937 1980.85 806.032 1982.72 806.146 1984.81C806.301 1986.9 806.455 1989.07 806.609 1991.32C806.804 1993.54 806.998 1995.75 807.193 1997.96C807.387 2000.17 807.582 2002.22 807.777 2004.11C808.829 2002.07 809.901 1999.86 810.994 1997.49C812.087 1995.12 813.18 1992.66 814.274 1990.13C815.367 1987.6 816.441 1985.03 817.494 1982.42C818.588 1979.81 819.621 1977.26 820.594 1974.77L830.547 1974.79C827.387 1982.42 824.168 1989.69 820.89 1996.6C817.612 2003.47 814.093 2010.12 810.334 2016.55L801.527 2016.53C801.212 2014.31 800.916 2012.2 800.641 2010.19C800.406 2008.14 800.17 2006.13 799.935 2004.16C799.74 2002.19 799.545 2000.19 799.35 1998.18C799.195 1996.17 799.04 1994.08 798.886 1991.91C796.581 1996.17 794.296 2000.34 792.032 2004.44C789.808 2008.5 787.423 2012.51 784.877 2016.49L776.07 2016.47C775.76 2012.73 775.53 2009.03 775.38 2005.37C775.27 2001.71 775.221 1997.99 775.232 1994.21C775.242 1990.95 775.312 1987.71 775.443 1984.5C775.573 1981.24 775.744 1977.96 775.955 1974.67L785.425 1974.69C785.214 1978.22 785.002 1981.7 784.791 1985.12C784.62 1988.5 784.529 1992.02 784.518 1995.68C784.514 1997.04 784.509 1998.43 784.505 1999.84C784.501 2001.25 784.537 2002.65 784.613 2004.06C785.745 2002.09 786.938 2000.01 788.191 1997.8C789.444 1995.59 790.678 1993.38 791.891 1991.17C793.104 1988.96 794.256 1986.83 795.348 1984.78C796.44 1982.69 797.371 1980.83 798.14 1979.18L805.861 1979.2ZM854.774 2002.95C854.204 2005.24 854.036 2007.56 854.27 2009.89C854.505 2012.18 854.961 2014.23 855.639 2016.05L847.613 2017.17C847.373 2016.69 847.153 2016.23 846.953 2015.78C846.754 2015.34 846.554 2014.84 846.355 2014.27C845.226 2015.2 843.977 2015.96 842.608 2016.56C841.239 2017.16 839.71 2017.46 838.02 2017.45C836.01 2017.45 834.281 2017.1 832.836 2016.42C831.43 2015.69 830.267 2014.74 829.346 2013.57C828.464 2012.36 827.825 2010.98 827.428 2009.41C827.03 2007.8 826.834 2006.09 826.84 2004.28C826.848 2001.5 827.339 1998.89 828.311 1996.44C829.324 1993.99 830.698 1991.86 832.432 1990.05C834.207 1988.21 836.283 1986.76 838.659 1985.72C841.035 1984.68 843.61 1984.17 846.385 1984.17C846.747 1984.17 847.37 1984.2 848.255 1984.24C849.18 1984.28 850.225 1984.38 851.391 1984.55C852.556 1984.67 853.782 1984.89 855.068 1985.22C856.354 1985.54 857.579 1985.99 858.744 1986.55L854.774 2002.95ZM848.533 1991.84C848.011 1991.76 847.528 1991.7 847.086 1991.66C846.684 1991.61 846.182 1991.59 845.578 1991.59C844.211 1991.59 842.923 1991.93 841.715 1992.61C840.546 1993.29 839.518 1994.19 838.63 1995.32C837.742 1996.4 837.034 1997.67 836.507 1999.11C836.02 2000.56 835.774 2002.07 835.77 2003.63C835.764 2005.56 836.081 2007.09 836.721 2008.22C837.361 2009.35 838.546 2009.91 840.275 2009.92C841.2 2009.92 842.025 2009.74 842.75 2009.38C843.515 2009.02 844.321 2008.42 845.168 2007.58C845.252 2006.57 845.376 2005.53 845.54 2004.44C845.744 2003.31 845.948 2002.29 846.152 2001.37L848.533 1991.84ZM873.605 2017.29C870.75 2017.29 868.499 2016.92 866.852 2016.19C865.246 2015.42 864.083 2014.4 863.363 2013.11C862.683 2011.82 862.346 2010.35 862.351 2008.7C862.396 2007.01 862.643 2005.22 863.091 2003.33L870.848 1971.32L880.202 1969.89L871.713 2004.62C871.55 2005.34 871.447 2006.01 871.405 2006.61C871.404 2007.21 871.523 2007.76 871.762 2008.24C872.002 2008.68 872.403 2009.05 872.966 2009.33C873.568 2009.61 874.392 2009.79 875.437 2009.88L873.605 2017.29ZM908.499 2003.07C907.929 2005.36 907.761 2007.68 907.995 2010.01C908.23 2012.3 908.686 2014.35 909.364 2016.17L901.338 2017.29C901.098 2016.81 900.878 2016.35 900.679 2015.91C900.479 2015.46 900.279 2014.96 900.08 2014.4C898.951 2015.32 897.702 2016.08 896.333 2016.68C894.964 2017.28 893.435 2017.58 891.746 2017.57C889.735 2017.57 888.007 2017.22 886.561 2016.54C885.156 2015.81 883.992 2014.86 883.071 2013.69C882.19 2012.49 881.55 2011.1 881.153 2009.53C880.756 2007.92 880.56 2006.21 880.565 2004.4C880.573 2001.62 881.064 1999.01 882.036 1996.56C883.049 1994.11 884.423 1991.98 886.158 1990.17C887.933 1988.33 890.008 1986.89 892.384 1985.85C894.76 1984.81 897.335 1984.29 900.11 1984.29C900.472 1984.3 901.095 1984.32 901.98 1984.36C902.905 1984.4 903.95 1984.5 905.116 1984.67C906.282 1984.79 907.508 1985.01 908.794 1985.34C910.079 1985.66 911.305 1986.11 912.469 1986.67L908.499 2003.07ZM902.259 1991.96C901.736 1991.88 901.254 1991.82 900.811 1991.78C900.409 1991.74 899.907 1991.71 899.304 1991.71C897.936 1991.71 896.648 1992.05 895.44 1992.73C894.272 1993.41 893.243 1994.31 892.355 1995.44C891.467 1996.52 890.76 1997.79 890.232 1999.23C889.745 2000.68 889.5 2002.19 889.495 2003.76C889.489 2005.69 889.806 2007.21 890.446 2008.34C891.086 2009.47 892.271 2010.03 894 2010.04C894.925 2010.04 895.75 2009.86 896.475 2009.5C897.24 2009.14 898.047 2008.54 898.894 2007.7C898.977 2006.69 899.101 2005.65 899.265 2004.56C899.469 2003.44 899.674 2002.41 899.877 2001.49L902.259 1991.96Z" fill="white"/>
<path d="M918.699 1943.39L915.995 1954.5C917.802 1954.92 919.619 1955.35 921.39 1955.8L924.073 1944.76L930.807 1946.48L928.048 1957.82C936.548 1960.82 942.765 1965.32 941.544 1973.69C940.66 1979.82 937.346 1982.79 932.948 1983.82C938.988 1987.05 942.06 1991.99 939.134 2000.56C935.499 2011.21 926.867 2012.11 915.389 2009.88L909.817 2008.59L911.241 2000.05C917.121 2001.32 924.68 2001.91 926.162 1995.81C927.862 1988.82 919.291 1985.88 913.288 1984.38C912.175 1983.85 911.008 1983.43 909.785 1983.12C908.499 1982.8 907.273 1982.57 906.107 1982.45C904.942 1982.29 903.896 1982.18 902.971 1982.14C902.087 1982.1 901.463 1982.08 901.102 1982.08C899.658 1982.07 898.268 1982.21 896.933 1982.49L898.731 1975.1L901.871 1962.18C901.955 1960.72 901.462 1958.87 898.734 1958.17C898.84 1958.1 893.878 1956.93 893.846 1956.92L895.637 1949.55L904.92 1951.93L904.913 1951.96C906.31 1952.32 907.747 1952.66 909.213 1953L911.971 1941.67L918.699 1943.39ZM900.295 1989.49C900.898 1989.5 901.401 1989.52 901.803 1989.56C902.245 1989.6 902.727 1989.66 903.25 1989.74L902.596 1992.36H894.532L894.667 1991.81C895.215 1991.31 895.802 1990.88 896.431 1990.51C897.639 1989.83 898.928 1989.49 900.295 1989.49ZM910.83 1976.43C914.631 1977.4 926.346 1981.36 928.243 1973.57C930.22 1965.43 917.981 1963.62 914.182 1962.65L910.83 1976.43Z" fill="white"/>
</g>
<defs>
<filter id="filter0_f_605_66" x="717.958" y="949.646" width="2392.44" height="2392.44" filterUnits="userSpaceOnUse" color-interpolation-filters="sRGB">
<feFlood flood-opacity="0" result="BackgroundImageFix"/>
<feBlend mode="normal" in="SourceGraphic" in2="BackgroundImageFix" result="shape"/>
<feGaussianBlur stdDeviation="9.89321" result="effect1_foregroundBlur_605_66"/>
</filter>
<filter id="filter1_f_605_66" x="609.132" y="840.821" width="2610.09" height="2610.09" filterUnits="userSpaceOnUse" color-interpolation-filters="sRGB">
<feFlood flood-opacity="0" result="BackgroundImageFix"/>
<feBlend mode="normal" in="SourceGraphic" in2="BackgroundImageFix" result="shape"/>
<feGaussianBlur stdDeviation="64.3058" result="effect1_foregroundBlur_605_66"/>
</filter>
<filter id="filter2_f_605_66" x="963.256" y="1194.95" width="1901.84" height="1901.84" filterUnits="userSpaceOnUse" color-interpolation-filters="sRGB">
<feFlood flood-opacity="0" result="BackgroundImageFix"/>
<feBlend mode="normal" in="SourceGraphic" in2="BackgroundImageFix" result="shape"/>
<feGaussianBlur stdDeviation="17.9583" result="effect1_foregroundBlur_605_66"/>
</filter>
<filter id="filter3_f_605_66" x="1250.75" y="1482.44" width="1326.85" height="1326.85" filterUnits="userSpaceOnUse" color-interpolation-filters="sRGB">
<feFlood flood-opacity="0" result="BackgroundImageFix"/>
<feBlend mode="normal" in="SourceGraphic" in2="BackgroundImageFix" result="shape"/>
<feGaussianBlur stdDeviation="10.646" result="effect1_foregroundBlur_605_66"/>
</filter>
<linearGradient id="paint0_linear_605_66" x1="427.363" y1="371.539" x2="1574.2" y2="2240.7" gradientUnits="userSpaceOnUse">
<stop stop-color="#2276C5"/>
<stop offset="1" stop-color="#004E97"/>
</linearGradient>
<clipPath id="clip0_605_66">
<rect x="406.537" y="352.183" width="1522.69" height="1849.6" rx="53.7674" fill="white"/>
</clipPath>
<clipPath id="clip1_605_66">
<rect width="722.634" height="234.426" fill="white" transform="translate(544 462)"/>
</clipPath>
</defs>
</svg>
