<svg width="278" height="62" viewBox="0 0 278 62" fill="none" xmlns="http://www.w3.org/2000/svg">
<mask id="mask0_136_11363" style="mask-type:luminance" maskUnits="userSpaceOnUse" x="0" y="0" width="278" height="62">
<path d="M278 0H0V61.9127H278V0Z" fill="white"/>
</mask>
<g mask="url(#mask0_136_11363)">
<path d="M58.5703 23.2048L61.5294 8.37156H70.8239L70.2358 11.4255H64.3557L63.6159 15.1243H68.946L68.358 18.1023H63.0089L62.0036 23.2048H58.5703Z" fill="white"/>
<path d="M81.8135 23.5083C80.5853 23.5083 79.5563 23.2475 78.7217 22.7306C77.8871 22.2137 77.2896 21.4976 76.9386 20.5872C76.583 19.6767 76.5261 18.6287 76.7679 17.4384C77.005 16.3145 77.4555 15.3282 78.1147 14.4794C78.7691 13.6353 79.58 12.9761 80.5426 12.5067C81.5148 12.0277 82.5817 11.7859 83.7483 11.7859C85.0381 11.7859 86.1004 12.0799 86.935 12.6584C87.7791 13.2417 88.3576 14.0383 88.6611 15.0484C88.9741 16.0632 88.9741 17.2298 88.6611 18.5576H79.746C79.7317 19.2926 79.9356 19.8664 80.3529 20.2837C80.7702 20.701 81.3488 20.9096 82.098 20.9096C83.2361 20.9096 84.1561 20.5113 84.8674 19.7146H88.3007C87.6178 20.9191 86.6979 21.8533 85.5503 22.5219C84.4122 23.1811 83.165 23.5083 81.8135 23.5083ZM80.2391 16.5279H85.9486C85.9107 15.8214 85.683 15.2855 85.2657 14.9156C84.8484 14.5363 84.2794 14.3466 83.5586 14.3466C82.8236 14.3466 82.1644 14.5505 81.5859 14.9536C81.0168 15.3472 80.5663 15.8735 80.2391 16.5279Z" fill="white"/>
<path d="M103.186 23.5083C102.337 23.5083 101.583 23.3613 100.929 23.072C100.27 22.7828 99.734 22.3797 99.3167 21.858L98.7477 23.2048H96.168L99.2977 7.51798H102.579L101.555 12.6963C102.527 12.0894 103.641 11.7859 104.893 11.7859C106.069 11.7859 107.056 12.0514 107.852 12.5825C108.649 13.1042 109.218 13.825 109.56 14.7449C109.901 15.6696 109.948 16.7319 109.711 17.9316C109.493 19.0318 109.076 19.9992 108.459 20.8338C107.852 21.6684 107.094 22.3275 106.183 22.8065C105.282 23.2712 104.286 23.5083 103.186 23.5083ZM100.474 17.704C100.294 18.5765 100.426 19.2973 100.872 19.8664C101.327 20.4354 101.982 20.7199 102.845 20.7199C103.438 20.7199 103.988 20.5872 104.495 20.3216C105.012 20.0561 105.448 19.6909 105.804 19.2214C106.169 18.7425 106.411 18.1972 106.525 17.5902C106.686 16.7081 106.548 15.9779 106.107 15.4088C105.676 14.8303 105.026 14.5363 104.154 14.5363C103.556 14.5363 103.001 14.6785 102.484 14.9536C101.963 15.2334 101.527 15.6127 101.176 16.0917C100.834 16.5611 100.597 17.097 100.474 17.704Z" fill="white"/>
<path d="M127.537 23.2048L127.973 20.8338L135.105 15.5795C135.75 15.1006 136.234 14.6501 136.566 14.2328C136.893 13.8155 137.097 13.3887 137.173 12.9429C137.296 12.3359 137.201 11.857 136.889 11.5013C136.585 11.1362 136.111 10.9512 135.466 10.9512C134.769 10.9512 134.181 11.1694 133.702 11.5962C133.232 12.0135 132.91 12.6015 132.734 13.3602H129.586C129.951 11.6815 130.667 10.3775 131.729 9.45275C132.791 8.53279 134.124 8.06806 135.731 8.06806C136.855 8.06806 137.799 8.29094 138.558 8.73195C139.326 9.16348 139.876 9.7515 140.208 10.496C140.549 11.2453 140.616 12.1036 140.417 13.0757C140.236 13.9388 139.857 14.7544 139.279 15.5226C138.709 16.2814 137.865 17.0685 136.756 17.8747L133.588 20.2647H139.26L138.653 23.2048H127.537Z" fill="#FF9500"/>
<path d="M153.737 23.5083C152.395 23.5083 151.29 23.1858 150.418 22.5409C149.545 21.896 148.948 20.9808 148.635 19.7905C148.317 18.605 148.322 17.1871 148.654 15.5416C149.133 13.1895 150.029 11.3591 151.347 10.0408C152.675 8.72721 154.311 8.06806 156.26 8.06806C157.597 8.06806 158.707 8.39052 159.579 9.03545C160.461 9.68037 161.064 10.6003 161.381 11.7859C161.694 12.9761 161.685 14.394 161.343 16.0348C160.874 18.3868 159.978 20.222 158.65 21.5356C157.322 22.8539 155.681 23.5083 153.737 23.5083ZM151.916 15.8451C151.622 17.3388 151.655 18.4912 152.011 19.2973C152.376 20.094 153.04 20.4923 154.003 20.4923C154.998 20.4923 155.852 20.075 156.563 19.2404C157.27 18.3963 157.777 17.225 158.081 15.7313C158.384 14.2423 158.351 13.0947 157.986 12.298C157.63 11.4918 156.971 11.084 156.013 11.084C155.013 11.084 154.159 11.5108 153.453 12.3549C152.741 13.1895 152.229 14.3561 151.916 15.8451Z" fill="#FF9500"/>
<path d="M168.059 23.2048L168.495 20.8338L175.627 15.5795C176.272 15.1006 176.756 14.6501 177.088 14.2328C177.415 13.8155 177.619 13.3887 177.695 12.9429C177.818 12.3359 177.723 11.857 177.41 11.5013C177.106 11.1362 176.632 10.9512 175.987 10.9512C175.29 10.9512 174.702 11.1694 174.223 11.5962C173.754 12.0135 173.431 12.6015 173.256 13.3602H170.107C170.472 11.6815 171.188 10.3775 172.251 9.45275C173.313 8.53279 174.645 8.06806 176.253 8.06806C177.377 8.06806 178.32 8.29094 179.079 8.73195C179.847 9.16348 180.397 9.7515 180.729 10.496C181.071 11.2453 181.137 12.1036 180.938 13.0757C180.758 13.9388 180.379 14.7544 179.8 15.5226C179.231 16.2814 178.387 17.0685 177.277 17.8747L174.109 20.2647H179.781L179.174 23.2048H168.059Z" fill="#FF9500"/>
<path d="M193.502 23.5083C192.326 23.5083 191.33 23.2807 190.524 22.8254C189.713 22.3607 189.129 21.7205 188.779 20.9096C188.437 20.1035 188.371 19.174 188.589 18.1213C188.84 16.7698 189.509 15.461 190.6 14.1948L195.607 8.37156H199.439L195.304 13.2275C195.417 13.218 195.522 13.2085 195.626 13.2085C195.74 13.199 195.84 13.1895 195.93 13.1895C196.925 13.1895 197.77 13.4266 198.452 13.8913C199.145 14.3608 199.647 15.0057 199.951 15.8261C200.254 16.637 200.297 17.5428 200.084 18.5386C199.894 19.5249 199.481 20.3927 198.851 21.1373C198.23 21.8865 197.457 22.465 196.537 22.8823C195.626 23.2996 194.611 23.5083 193.502 23.5083ZM191.757 18.3299C191.614 19.0413 191.742 19.6293 192.136 20.094C192.525 20.5492 193.089 20.7769 193.824 20.7769C194.583 20.7769 195.251 20.5398 195.835 20.0561C196.428 19.5771 196.793 18.9843 196.935 18.273C197.087 17.5522 196.963 16.9642 196.575 16.509C196.195 16.0537 195.631 15.8261 194.886 15.8261C194.099 15.8261 193.416 16.068 192.838 16.5469C192.269 17.0164 191.908 17.6091 191.757 18.3299Z" fill="#FF9500"/>
<path d="M207.691 24.9499C208.526 24.746 209.076 24.2338 209.341 23.4135H209.171C208.564 23.4135 208.094 23.2143 207.767 22.8254C207.435 22.4224 207.335 21.9292 207.463 21.3459C207.577 20.8148 207.824 20.3928 208.203 20.075C208.592 19.7621 209.076 19.6008 209.645 19.6008C210.366 19.6008 210.906 19.8806 211.276 20.4354C211.655 20.995 211.75 21.7395 211.561 22.6737C211.433 23.366 211.167 24.0015 210.764 24.5705C210.37 25.1396 209.877 25.6043 209.284 25.9742C208.701 26.3393 208.056 26.5527 207.35 26.6191L207.691 24.9499Z" fill="#FF9500"/>
<path d="M10.448 52.7288L11.643 46.7538H5.93353L4.75749 52.7288H1.32422L4.28328 37.8955H7.71655L6.57845 43.605H12.269L13.426 37.8955H16.8593L13.8813 52.7288H10.448Z" fill="#FF9500"/>
<path d="M22.4551 56.9587L23.0052 54.1894H24.1812C24.7882 54.1894 25.2482 54.085 25.5659 53.8859C25.8931 53.6962 26.2298 53.3073 26.5712 52.7288L26.8368 52.2546L24.0674 41.6133H27.4438L28.3922 45.6536L29.075 48.4989L30.5925 45.6536L32.8877 41.6133H36.5675L29.1319 54.2273C28.7241 54.9196 28.3021 55.465 27.8611 55.8586C27.4153 56.2616 26.9126 56.5462 26.3436 56.7121C25.7745 56.8734 25.0632 56.9587 24.2191 56.9587H22.4551Z" fill="#FF9500"/>
<path d="M47.3199 53.0323C46.1534 53.0323 45.167 52.7715 44.3608 52.2546C43.5499 51.7235 42.9809 50.9979 42.6537 50.0732C42.3217 49.1533 42.2743 48.091 42.5019 46.8865C42.7296 45.7627 43.1469 44.7905 43.7539 43.9654C44.3608 43.1308 45.1196 42.4811 46.0301 42.0117C46.9405 41.5469 47.9364 41.3098 49.0271 41.3098C49.7716 41.3098 50.4402 41.4331 51.0377 41.6702C51.6447 41.8979 52.1568 42.2156 52.5741 42.6187L53.6933 37.042H56.9938L53.864 52.7288H51.5119L51.4171 51.5907C50.8575 52.0364 50.2315 52.3874 49.5392 52.6529C48.8563 52.9042 48.1166 53.0323 47.3199 53.0323ZM45.6697 47.228C45.5037 48.1005 45.6412 48.8213 46.087 49.3904C46.528 49.9594 47.1776 50.2439 48.0407 50.2439C48.6335 50.2439 49.1883 50.1112 49.7099 49.8456C50.2268 49.5706 50.6631 49.1959 51.0187 48.7265C51.3839 48.2475 51.6257 47.7117 51.7395 47.1142C51.9008 46.2321 51.7632 45.5018 51.3222 44.9328C50.8907 44.3543 50.241 44.0603 49.3685 44.0603C48.771 44.0603 48.2162 44.2025 47.6993 44.4776C47.1776 44.7573 46.7414 45.1367 46.3905 45.6157C46.0348 46.0851 45.793 46.621 45.6697 47.228Z" fill="#FF9500"/>
<path d="M68.4561 53.0323C67.2279 53.0323 66.1989 52.7715 65.3642 52.2546C64.5296 51.7377 63.9321 51.0216 63.5812 50.1112C63.2256 49.2007 63.1687 48.1527 63.4105 46.9624C63.6476 45.8385 64.0981 44.8522 64.7573 44.0034C65.4117 43.1593 66.2226 42.5001 67.1852 42.0306C68.1573 41.5517 69.2243 41.3099 70.3909 41.3099C71.6807 41.3099 72.7429 41.6039 73.5775 42.1824C74.4216 42.7657 75.0002 43.5623 75.3037 44.5724C75.6166 45.5872 75.6166 46.7538 75.3037 48.0816H66.3885C66.3743 48.8166 66.5782 49.3904 66.9955 49.8077C67.4128 50.225 67.9914 50.4336 68.7406 50.4336C69.8787 50.4336 70.7987 50.0353 71.51 49.2386H74.9433C74.2604 50.4431 73.3404 51.3773 72.1928 52.0459C71.0547 52.7051 69.8076 53.0323 68.4561 53.0323ZM66.8817 46.0519H72.5912C72.5532 45.3454 72.3256 44.8095 71.9083 44.4396C71.491 44.0603 70.922 43.8706 70.2012 43.8706C69.4661 43.8706 68.807 44.0745 68.2285 44.4776C67.6594 44.8712 67.2089 45.3975 66.8817 46.0519Z" fill="#FF9500"/>
<path d="M82.8125 52.7288L85.0318 41.6133H87.4028L87.5166 43.017C87.9814 42.5001 88.4935 42.1397 89.0531 41.9358C89.6221 41.7224 90.3145 41.6133 91.1396 41.6133H92.4294L91.8604 44.5345H90.6654C89.7549 44.5345 88.9772 44.7905 88.3323 45.2932C87.6968 45.8006 87.2606 46.6542 87.0235 47.8539L86.0561 52.7288H82.8125Z" fill="#FF9500"/>
<path d="M102.421 52.9374C101.056 52.9374 100.031 52.6055 99.3486 51.9321C98.6752 51.2635 98.4571 50.372 98.6847 49.2576C98.8744 48.2617 99.3486 47.484 100.107 46.9245C100.876 46.3697 101.843 46.0899 103.009 46.0899H107.107L107.22 45.5588C107.334 45.0039 107.23 44.5677 106.917 44.2499C106.599 43.937 106.13 43.7757 105.513 43.7757C104.982 43.7757 104.508 43.8895 104.091 44.1172C103.673 44.3448 103.389 44.6672 103.237 45.0846H100.069C100.435 43.8848 101.122 42.9554 102.137 42.2962C103.161 41.6418 104.38 41.3099 105.798 41.3099C106.898 41.3099 107.813 41.5138 108.548 41.9168C109.278 42.3247 109.8 42.8842 110.104 43.605C110.407 44.3258 110.464 45.1794 110.274 46.1657L108.947 52.7288H106.576L106.5 51.5148C105.371 52.4632 104.015 52.9374 102.421 52.9374ZM101.833 49.3524C101.758 49.7602 101.838 50.0732 102.08 50.3008C102.331 50.519 102.734 50.6233 103.294 50.6233C104.114 50.6233 104.84 50.3957 105.475 49.9404C106.12 49.4757 106.538 48.8593 106.727 48.1005H103.768C102.64 48.1005 101.995 48.5178 101.833 49.3524Z" fill="#FF9500"/>
<path d="M124.993 53.0323C124.144 53.0323 123.39 52.8853 122.736 52.596C122.077 52.3067 121.541 51.9037 121.123 51.382L120.554 52.7288H117.975L121.104 37.042H124.386L123.362 42.2203C124.334 41.6133 125.448 41.3098 126.7 41.3098C127.876 41.3098 128.862 41.5754 129.659 42.1065C130.456 42.6281 131.025 43.3489 131.366 44.2689C131.708 45.1936 131.755 46.2558 131.518 47.4556C131.3 48.5558 130.883 49.5231 130.266 50.3577C129.659 51.1924 128.9 51.8515 127.99 52.3305C127.089 52.7952 126.093 53.0323 124.993 53.0323ZM122.28 47.228C122.1 48.1005 122.233 48.8213 122.679 49.3904C123.134 49.9594 123.788 50.2439 124.651 50.2439C125.244 50.2439 125.794 50.1112 126.302 49.8456C126.819 49.58 127.255 49.2149 127.611 48.7454C127.976 48.2665 128.218 47.7211 128.331 47.1142C128.493 46.2321 128.355 45.5018 127.914 44.9328C127.482 44.3543 126.833 44.0603 125.96 44.0603C125.363 44.0603 124.808 44.2025 124.291 44.4776C123.769 44.7573 123.333 45.1367 122.982 45.6157C122.641 46.0851 122.404 46.621 122.28 47.228Z" fill="#FF9500"/>
<path d="M142.752 52.9374C141.386 52.9374 140.362 52.6055 139.679 51.9321C139.005 51.2635 138.787 50.372 139.015 49.2576C139.204 48.2617 139.679 47.484 140.437 46.9245C141.206 46.3697 142.173 46.0899 143.34 46.0899H147.437L147.551 45.5588C147.664 45.0039 147.56 44.5677 147.247 44.2499C146.929 43.937 146.46 43.7757 145.843 43.7757C145.312 43.7757 144.838 43.8895 144.421 44.1172C144.003 44.3448 143.719 44.6672 143.567 45.0846H140.399C140.765 43.8848 141.452 42.9554 142.467 42.2962C143.491 41.6418 144.71 41.3099 146.128 41.3099C147.228 41.3099 148.143 41.5138 148.878 41.9168C149.609 42.3247 150.13 42.8842 150.434 43.605C150.737 44.3258 150.794 45.1794 150.604 46.1657L149.277 52.7288H146.906L146.83 51.5148C145.701 52.4632 144.345 52.9374 142.752 52.9374ZM142.163 49.3524C142.088 49.7602 142.168 50.0732 142.41 50.3008C142.661 50.519 143.064 50.6233 143.624 50.6233C144.444 50.6233 145.17 50.3957 145.805 49.9404C146.45 49.4757 146.868 48.8593 147.057 48.1005H144.098C142.97 48.1005 142.325 48.5178 142.163 49.3524Z" fill="#FF9500"/>
<path d="M163.486 53.0323C162.319 53.0323 161.333 52.7715 160.527 52.2546C159.716 51.7235 159.147 50.9979 158.82 50.0732C158.488 49.1533 158.44 48.091 158.668 46.8865C158.896 45.7627 159.313 44.7905 159.92 43.9654C160.527 43.1308 161.286 42.4811 162.196 42.0117C163.107 41.5469 164.102 41.3098 165.193 41.3098C165.938 41.3098 166.606 41.4331 167.204 41.6702C167.811 41.8979 168.323 42.2156 168.74 42.6187L169.859 37.042H173.16L170.03 52.7288H167.678L167.583 51.5907C167.024 52.0364 166.398 52.3874 165.705 52.6529C165.022 52.9042 164.283 53.0323 163.486 53.0323ZM161.836 47.228C161.67 48.1005 161.807 48.8213 162.253 49.3904C162.694 49.9594 163.344 50.2439 164.207 50.2439C164.799 50.2439 165.354 50.1112 165.876 49.8456C166.393 49.5706 166.829 49.1959 167.185 48.7265C167.55 48.2475 167.792 47.7117 167.906 47.1142C168.067 46.2321 167.929 45.5018 167.488 44.9328C167.057 44.3543 166.407 44.0603 165.535 44.0603C164.937 44.0603 164.382 44.2025 163.865 44.4776C163.344 44.7573 162.907 45.1367 162.556 45.6157C162.201 46.0851 161.959 46.621 161.836 47.228Z" fill="#FF9500"/>
<path d="M179.086 54.4739C179.92 54.27 180.47 53.7578 180.736 52.9374H180.565C179.958 52.9374 179.489 52.7383 179.161 52.3494C178.829 51.9464 178.73 51.4532 178.858 50.8699C178.972 50.3388 179.218 49.9167 179.598 49.599C179.987 49.286 180.47 49.1248 181.039 49.1248C181.76 49.1248 182.301 49.4046 182.671 49.9594C183.05 50.519 183.145 51.2635 182.955 52.1977C182.827 52.89 182.562 53.5255 182.158 54.0945C181.765 54.6636 181.272 55.1283 180.679 55.4982C180.096 55.8633 179.451 56.0767 178.744 56.1431L179.086 54.4739Z" fill="white"/>
<path d="M191.504 52.7288L194.463 37.8955H197.896L194.937 52.7288H191.504Z" fill="white"/>
<path d="M204.318 52.7288L206.538 41.6133H208.909L209.004 42.7514C209.52 42.2725 210.108 41.9121 210.768 41.6703C211.422 41.4331 212.114 41.3099 212.835 41.3099C213.821 41.3099 214.637 41.528 215.282 41.9548C215.927 42.3863 216.368 42.9886 216.61 43.7568C216.861 44.5297 216.88 45.426 216.667 46.4503L215.415 52.7288H212.133L213.347 46.621C213.509 45.7864 213.461 45.1557 213.196 44.7242C212.93 44.2831 212.456 44.0603 211.773 44.0603C211.024 44.0603 210.379 44.3258 209.838 44.8569C209.293 45.3786 208.928 46.0709 208.738 46.9434L207.6 52.7288H204.318Z" fill="white"/>
<path d="M229.599 53.0323C228.433 53.0323 227.446 52.7715 226.64 52.2546C225.829 51.7235 225.26 50.9979 224.933 50.0732C224.601 49.1533 224.554 48.091 224.781 46.8865C225.009 45.7627 225.426 44.7905 226.033 43.9654C226.64 43.1308 227.399 42.4811 228.309 42.0117C229.22 41.5469 230.216 41.3098 231.306 41.3098C232.051 41.3098 232.719 41.4331 233.317 41.6702C233.924 41.8979 234.436 42.2156 234.853 42.6187L235.973 37.042H239.273L236.143 52.7288H233.791L233.696 51.5907C233.137 52.0364 232.511 52.3874 231.818 52.6529C231.136 52.9042 230.396 53.0323 229.599 53.0323ZM227.949 47.228C227.783 48.1005 227.921 48.8213 228.366 49.3904C228.807 49.9594 229.457 50.2439 230.32 50.2439C230.913 50.2439 231.468 50.1112 231.989 49.8456C232.506 49.5706 232.942 49.1959 233.298 48.7265C233.663 48.2475 233.905 47.7117 234.019 47.1142C234.18 46.2321 234.043 45.5018 233.602 44.9328C233.17 44.3543 232.52 44.0603 231.648 44.0603C231.05 44.0603 230.495 44.2025 229.979 44.4776C229.457 44.7573 229.021 45.1367 228.67 45.6157C228.314 46.0851 228.072 46.621 227.949 47.228Z" fill="white"/>
<path d="M245.311 52.7288L247.53 41.6133H250.811L248.592 52.7288H245.311ZM247.871 37.8007C247.985 37.2317 248.236 36.7906 248.63 36.4729C249.019 36.1599 249.503 35.9987 250.072 35.9987C250.726 35.9987 251.229 36.2216 251.57 36.6626C251.912 37.0941 252.016 37.6205 251.893 38.237C251.779 38.7965 251.518 39.2328 251.115 39.5458C250.721 39.8635 250.247 40.02 249.692 40.02C249.019 40.02 248.516 39.8066 248.175 39.3751C247.833 38.9483 247.729 38.4219 247.871 37.8007Z" fill="white"/>
<path d="M261.632 52.9374C260.267 52.9374 259.242 52.6055 258.56 51.9321C257.886 51.2635 257.668 50.372 257.896 49.2576C258.085 48.2617 258.56 47.484 259.318 46.9245C260.086 46.3697 261.054 46.0899 262.22 46.0899H266.318L266.431 45.5588C266.545 45.0039 266.441 44.5677 266.128 44.2499C265.81 43.937 265.341 43.7757 264.724 43.7757C264.193 43.7757 263.719 43.8895 263.302 44.1172C262.884 44.3448 262.6 44.6672 262.448 45.0846H259.28C259.645 43.8848 260.333 42.9554 261.348 42.2962C262.372 41.6418 263.591 41.3099 265.009 41.3099C266.109 41.3099 267.024 41.5138 267.759 41.9168C268.489 42.3247 269.011 42.8842 269.315 43.605C269.618 44.3258 269.675 45.1794 269.485 46.1657L268.157 52.7288H265.786L265.711 51.5148C264.582 52.4632 263.226 52.9374 261.632 52.9374ZM261.044 49.3524C260.968 49.7602 261.049 50.0732 261.291 50.3008C261.542 50.519 261.945 50.6233 262.505 50.6233C263.325 50.6233 264.051 50.3957 264.686 49.9404C265.331 49.4757 265.749 48.8593 265.938 48.1005H262.979C261.851 48.1005 261.206 48.5178 261.044 49.3524Z" fill="white"/>
</g>
</svg>
