<svg width="268" height="50" viewBox="0 0 268 50" fill="none" xmlns="http://www.w3.org/2000/svg">
<path d="M36.0444 15.6403L39.0102 0.841797H41.655L45.3699 8.5162L52.1576 0.841797H55.2457L52.2799 15.6403H48.8861L49.8492 10.7788L50.6747 6.80398L46.119 11.9865H43.78L41.2728 6.74283L40.432 10.7788L39.4536 15.6403H36.0444Z" fill="white"/>
<path d="M65.5288 15.8533C64.1606 15.8533 63.1363 15.517 62.456 14.8443C61.7834 14.1717 61.5579 13.2812 61.7834 12.169C61.9859 11.1715 62.4637 10.3956 63.2204 9.84528C63.9848 9.29493 64.9517 9.01975 66.125 9.01975H70.2069L70.3139 8.49997C70.4247 7.9305 70.3215 7.48716 70.0081 7.16994C69.7024 6.85655 69.2361 6.69603 68.6169 6.69603C68.0857 6.69603 67.6118 6.81451 67.1952 7.04764C66.7748 7.2846 66.4919 7.60564 66.3391 8.01076H63.1898C63.5567 6.81068 64.2447 5.88196 65.2536 5.22841C66.2703 4.57868 67.4856 4.25 68.8921 4.25C69.9928 4.25 70.9101 4.44874 71.6439 4.84622C72.3777 5.2437 72.8898 5.80552 73.1879 6.52786C73.4937 7.24256 73.5472 8.09485 73.3561 9.0809L72.0414 15.6393H69.6718L69.5953 14.4316C68.4832 15.3794 67.1264 15.8533 65.5288 15.8533ZM64.9479 12.276C64.8753 12.6735 64.9632 12.9869 65.2078 13.2086C65.4524 13.4341 65.8499 13.5449 66.4002 13.5449C67.2143 13.5449 67.9443 13.3156 68.5864 12.857C69.2284 12.3907 69.6412 11.783 69.8247 11.0377H66.8589C65.7467 11.0377 65.1084 11.4505 64.9479 12.276Z" fill="white"/>
<path d="M81.0425 15.6399L83.2592 4.54102H85.6288L85.7358 5.96277C86.2021 5.43534 86.718 5.06844 87.2798 4.86206C87.8378 4.64803 88.5334 4.54102 89.359 4.54102H90.6431L90.0775 7.46096H88.8851C87.9678 7.46096 87.1919 7.71703 86.5613 8.22534C85.9269 8.72601 85.4912 9.5783 85.2466 10.7784L84.2835 15.6399H81.0425Z" fill="white"/>
<path d="M102.159 15.9298C100.936 15.9298 99.8998 15.6699 99.0551 15.1501C98.2181 14.6303 97.6257 13.9118 97.2818 12.9945C96.9454 12.0773 96.8881 11.0339 97.1136 9.86057C97.3353 8.75222 97.7748 7.77381 98.4283 6.92534C99.0781 6.0807 99.896 5.42333 100.874 4.95323C101.86 4.48696 102.938 4.25 104.1 4.25C105.128 4.25 106.034 4.4411 106.821 4.81564C107.605 5.19401 108.216 5.72526 108.656 6.40556C109.103 7.08968 109.328 7.88846 109.328 8.80572H106.286C106.141 8.23626 105.858 7.79292 105.43 7.4757C105.002 7.15083 104.475 6.98649 103.855 6.98649C102.976 6.98649 102.204 7.28842 101.532 7.88846C100.867 8.48086 100.435 9.24142 100.232 10.1663C100.049 11.0645 100.163 11.7868 100.584 12.3372C101.012 12.8875 101.646 13.1627 102.495 13.1627C103.156 13.1627 103.783 12.9907 104.375 12.6429C104.975 12.2875 105.453 11.7945 105.812 11.16H109.007C108.434 12.6391 107.54 13.8048 106.317 14.6609C105.094 15.5094 103.706 15.9298 102.159 15.9298Z" fill="white"/>
<path d="M116.488 15.6393L119.622 0H122.832L121.777 5.25895C122.733 4.5863 123.818 4.24997 125.034 4.24997C126.501 4.24997 127.575 4.72006 128.259 5.65643C128.94 6.59662 129.123 7.83875 128.81 9.38662L127.571 15.6393H124.3L125.492 9.55479C125.848 7.84257 125.328 6.98646 123.933 6.98646C123.188 6.98646 122.542 7.25399 121.991 7.78142C121.449 8.3012 121.089 8.99679 120.906 9.86054L119.775 15.6393H116.488Z" fill="white"/>
<path d="M147.01 15.6397L147.454 13.2701L154.562 8.02645C155.204 7.54871 155.686 7.10537 156.015 6.69642C156.34 6.27983 156.542 5.85178 156.626 5.41226C156.756 4.80075 156.664 4.31919 156.351 3.95993C156.045 3.60449 155.564 3.42486 154.914 3.42486C154.218 3.42486 153.637 3.63889 153.171 4.06694C152.701 4.48735 152.376 5.06828 152.193 5.80974H149.059C149.426 4.12809 150.137 2.83629 151.199 1.92667C152.258 1.00941 153.588 0.550781 155.189 0.550781C156.298 0.550781 157.238 0.764808 158.002 1.19286C158.774 1.62092 159.324 2.21331 159.653 2.96623C159.989 3.71151 160.058 4.56761 159.867 5.53456C159.684 6.39067 159.305 7.20091 158.736 7.9653C158.163 8.72968 157.322 9.50935 156.213 10.3043L153.064 12.7045H158.705L158.109 15.6397H147.01Z" fill="#F7931A"/>
<path d="M173.153 15.9302C171.815 15.9302 170.711 15.6168 169.835 14.9823C168.956 14.3403 168.368 13.4306 168.062 12.2458C167.756 11.0534 167.76 9.63165 168.077 7.98058C168.555 5.64922 169.453 3.82998 170.768 2.52289C172.09 1.20815 173.726 0.550781 175.675 0.550781C177.009 0.550781 178.114 0.871822 178.993 1.5139C179.868 2.14834 180.464 3.05796 180.781 4.25039C181.095 5.43519 181.087 6.8493 180.751 8.50036C180.281 10.8356 179.382 12.6586 178.06 13.9733C176.734 15.2804 175.098 15.9302 173.153 15.9302ZM171.334 8.30162C171.035 9.78071 171.066 10.9235 171.425 11.7261C171.792 12.5325 172.453 12.9338 173.413 12.9338C174.41 12.9338 175.262 12.5172 175.966 11.6802C176.669 10.8356 177.177 9.66987 177.494 8.17932C177.789 6.70406 177.754 5.56131 177.387 4.75489C177.028 3.95229 176.371 3.54716 175.415 3.54716C174.437 3.54716 173.588 3.9714 172.878 4.81604C172.163 5.65304 171.647 6.8149 171.334 8.30162Z" fill="#F7931A"/>
<path d="M187.443 15.6397L187.886 13.2701L194.995 8.02645C195.637 7.54871 196.119 7.10537 196.447 6.69642C196.772 6.27983 196.975 5.85178 197.059 5.41226C197.189 4.80075 197.097 4.31919 196.784 3.95993C196.478 3.60449 195.996 3.42486 195.347 3.42486C194.651 3.42486 194.07 3.63889 193.604 4.06694C193.134 4.48735 192.809 5.06828 192.625 5.80974H189.491C189.858 4.12809 190.569 2.83629 191.632 1.92667C192.69 1.00941 194.02 0.550781 195.622 0.550781C196.73 0.550781 197.67 0.764808 198.435 1.19286C199.207 1.62092 199.757 2.21331 200.086 2.96623C200.422 3.71151 200.491 4.56761 200.3 5.53456C200.116 6.39067 199.738 7.20091 199.169 7.9653C198.595 8.72968 197.754 9.50935 196.646 10.3043L193.497 12.7045H199.138L198.542 15.6397H187.443Z" fill="#F7931A"/>
<path d="M212.835 15.9307C211.662 15.9307 210.668 15.7014 209.854 15.2428C209.048 14.7841 208.471 14.1535 208.127 13.3471C207.779 12.533 207.714 11.6043 207.928 10.5647C208.18 9.21179 208.849 7.9047 209.931 6.65111L214.915 0.841797H218.752L214.624 5.68798C214.735 5.66888 214.842 5.65741 214.945 5.65741C215.056 5.64977 215.163 5.64212 215.266 5.64212C216.245 5.64212 217.078 5.8829 217.773 6.36064C218.465 6.83074 218.958 7.47282 219.256 8.28689C219.562 9.09331 219.612 9.99528 219.409 10.9928C219.203 11.9827 218.79 12.8503 218.171 13.5917C217.559 14.3255 216.795 14.9026 215.878 15.3192C214.96 15.7243 213.944 15.9307 212.835 15.9307ZM211.093 10.7788C210.947 11.482 211.07 12.0629 211.46 12.5216C211.846 12.9802 212.407 13.2095 213.141 13.2095C213.906 13.2095 214.578 12.9726 215.159 12.491C215.748 12.0133 216.115 11.4209 216.26 10.7176C216.413 9.99528 216.294 9.41053 215.908 8.95954C215.518 8.51238 214.949 8.28689 214.196 8.28689C213.42 8.28689 212.744 8.52385 212.163 8.99012C211.589 9.46021 211.234 10.0564 211.093 10.7788Z" fill="#F7931A"/>
<path d="M226.995 17.367C227.821 17.1721 228.363 16.6676 228.631 15.8535H228.463C227.859 15.8535 227.393 15.6548 227.056 15.2573C226.728 14.8522 226.628 14.3553 226.751 13.7744C226.861 13.2546 227.11 12.838 227.5 12.5208C227.886 12.2074 228.363 12.0469 228.937 12.0469C229.648 12.0469 230.194 12.3297 230.572 12.8877C230.947 13.4381 231.046 14.1795 230.863 15.1044C230.729 15.7962 230.458 16.4268 230.053 17.0001C229.655 17.5695 229.166 18.0396 228.585 18.4065C228.004 18.7734 227.354 18.9875 226.644 19.0486L226.995 17.367Z" fill="#F7931A"/>
<path d="M9.11145 44.9606L10.3039 38.9984H4.61687L3.42444 44.9606H0L2.96581 30.1621H6.39024L5.24367 35.8491H10.9307L12.0773 30.1621H15.5017L12.5359 44.9606H9.11145Z" fill="#F7931A"/>
<path d="M21.0928 49.1949L21.6431 46.4125H22.805C23.4165 46.4125 23.8789 46.3131 24.1962 46.122C24.521 45.9271 24.8574 45.5411 25.2052 44.9602L25.4803 44.5015L22.698 33.8613H26.0613L27.0091 37.8973L27.697 40.7255L29.2105 37.8973L31.5037 33.8613H35.1727L27.7582 46.4584C27.3492 47.1501 26.925 47.689 26.4893 48.0789C26.0498 48.4763 25.5453 48.7592 24.9758 48.935C24.4026 49.1069 23.6955 49.1949 22.8509 49.1949H21.0928Z" fill="#F7931A"/>
<path d="M45.9119 45.2501C44.7386 45.2501 43.7487 44.9902 42.9461 44.4704C42.1512 43.9506 41.5855 43.2321 41.2492 42.3148C40.9205 41.3899 40.8708 40.3236 41.0963 39.1197C41.318 38.0113 41.7308 37.0406 42.3346 36.215C42.9461 35.3819 43.7029 34.7321 44.6125 34.2735C45.5183 33.8072 46.5158 33.5703 47.6089 33.5703C48.3503 33.5703 49.023 33.6888 49.6268 33.9219C50.2269 34.1474 50.7352 34.4646 51.1556 34.8697L52.2563 29.3203H55.5585L52.4245 44.9596H50.0702L49.9937 43.813C49.4434 44.2716 48.8204 44.6309 48.1287 44.8832C47.4331 45.1278 46.6954 45.2501 45.9119 45.2501ZM44.2609 39.456C44.0965 40.3351 44.2341 41.0574 44.6736 41.6269C45.1208 42.2002 45.7744 42.483 46.6305 42.483C47.219 42.483 47.7694 42.3454 48.2815 42.0702C48.8013 41.795 49.237 41.4243 49.5963 40.9542C49.9632 40.4879 50.2001 39.9567 50.3148 39.3643C50.4753 38.47 50.3377 37.7362 49.902 37.1629C49.474 36.5934 48.8204 36.3068 47.9452 36.3068C47.3528 36.3068 46.7986 36.4444 46.2788 36.7195C45.7667 36.9947 45.3348 37.3731 44.9794 37.8508C44.6316 38.3209 44.3908 38.856 44.2609 39.456Z" fill="#F7931A"/>
<path d="M66.9767 45.252C65.7728 45.252 64.7485 44.996 63.9039 44.4877C63.0669 43.9679 62.4707 43.257 62.1152 42.3474C61.7674 41.4416 61.7101 40.3982 61.9471 39.2134C62.1917 38.0821 62.6388 37.0961 63.2924 36.2476C63.9421 35.403 64.7523 34.7456 65.7231 34.2755C66.6901 33.8092 67.7602 33.5723 68.9335 33.5723C70.2177 33.5723 71.2764 33.8627 72.1134 34.4437C72.9465 35.0169 73.5198 35.8119 73.8256 36.8285C74.139 37.8375 74.1466 39.007 73.8409 40.3294H64.9282C64.9167 41.0632 65.1192 41.6403 65.5397 42.0569C65.9562 42.4773 66.5372 42.6837 67.2825 42.6837C68.4023 42.6837 69.3234 42.2824 70.0495 41.476H73.474C72.7784 42.6684 71.8611 43.5971 70.7222 44.2583C69.5794 44.9234 68.3297 45.252 66.9767 45.252ZM65.4174 38.2962H71.1349C71.0814 37.5929 70.8483 37.0579 70.4317 36.6909C70.0228 36.3164 69.4571 36.1253 68.7348 36.1253C68.001 36.1253 67.3436 36.324 66.7627 36.7215C66.1894 37.1114 65.7422 37.635 65.4174 38.2962Z" fill="#F7931A"/>
<path d="M81.3096 44.9602L83.5263 33.8613H85.8959L86.0029 35.2831C86.4692 34.7557 86.9851 34.3888 87.5469 34.1824C88.1049 33.9683 88.8005 33.8613 89.6261 33.8613H90.9102L90.3446 36.7813H89.1521C88.2349 36.7813 87.459 37.0373 86.8284 37.5457C86.194 38.0463 85.7583 38.8986 85.5137 40.0987L84.5506 44.9602H81.3096Z" fill="#F7931A"/>
<path d="M100.882 45.1756C99.5136 45.1756 98.4893 44.8393 97.809 44.1666C97.1364 43.494 96.9109 42.6035 97.1364 41.4913C97.3389 40.4938 97.8167 39.7179 98.5734 39.1675C99.3378 38.6172 100.305 38.342 101.478 38.342H105.56L105.667 37.8222C105.778 37.2528 105.675 36.8094 105.361 36.4922C105.055 36.1788 104.589 36.0183 103.97 36.0183C103.439 36.0183 102.965 36.1368 102.548 36.3699C102.128 36.6069 101.845 36.9279 101.692 37.333H98.5428C98.9097 36.1329 99.5977 35.2042 100.607 34.5507C101.623 33.9009 102.839 33.5723 104.245 33.5723C105.346 33.5723 106.263 33.771 106.997 34.1685C107.731 34.566 108.243 35.1278 108.541 35.8501C108.847 36.5648 108.9 37.4171 108.709 38.4032L107.394 44.9616H105.025L104.948 43.7538C103.836 44.7017 102.479 45.1756 100.882 45.1756ZM100.301 41.5983C100.228 41.9958 100.316 42.3092 100.561 42.5308C100.805 42.7563 101.203 42.8672 101.753 42.8672C102.567 42.8672 103.297 42.6378 103.939 42.1792C104.581 41.7129 104.994 41.1053 105.178 40.36H102.212C101.1 40.36 100.461 40.7728 100.301 41.5983Z" fill="#F7931A"/>
<path d="M123.397 45.2501C122.549 45.2501 121.796 45.1048 121.135 44.822C120.481 44.5392 119.95 44.1302 119.545 43.599L118.979 44.9596H116.396L119.529 29.3203H122.801L121.761 34.4723C122.74 33.8722 123.856 33.5703 125.109 33.5703C126.279 33.5703 127.265 33.8302 128.06 34.35C128.855 34.8697 129.421 35.5959 129.757 36.5208C130.093 37.4381 130.143 38.5006 129.91 39.7006C129.696 40.8013 129.283 41.7721 128.671 42.6053C128.06 43.4308 127.299 44.0805 126.394 44.5468C125.495 45.0131 124.498 45.2501 123.397 45.2501ZM120.691 39.456C120.516 40.3351 120.649 41.0574 121.089 41.6269C121.536 42.2002 122.193 42.483 123.061 42.483C123.65 42.483 124.2 42.353 124.712 42.0855C125.232 41.8218 125.667 41.4549 126.027 40.9848C126.382 40.5071 126.615 39.9682 126.73 39.3643C126.902 38.47 126.768 37.7362 126.332 37.1629C125.893 36.5934 125.239 36.3068 124.376 36.3068C123.772 36.3068 123.218 36.4444 122.709 36.7195C122.197 36.9947 121.765 37.3731 121.41 37.8508C121.051 38.3209 120.814 38.856 120.691 39.456Z" fill="#F7931A"/>
<path d="M141.124 45.1756C139.755 45.1756 138.731 44.8393 138.051 44.1666C137.378 43.494 137.153 42.6035 137.378 41.4913C137.581 40.4938 138.058 39.7179 138.815 39.1675C139.579 38.6172 140.546 38.342 141.72 38.342H145.802L145.909 37.8222C146.019 37.2528 145.916 36.8094 145.603 36.4922C145.297 36.1788 144.831 36.0183 144.212 36.0183C143.68 36.0183 143.206 36.1368 142.79 36.3699C142.369 36.6069 142.087 36.9279 141.934 37.333H138.785C139.151 36.1329 139.839 35.2042 140.848 34.5507C141.865 33.9009 143.08 33.5723 144.487 33.5723C145.588 33.5723 146.505 33.771 147.239 34.1685C147.972 34.566 148.485 35.1278 148.783 35.8501C149.088 36.5648 149.142 37.4171 148.951 38.4032L147.636 44.9616H145.267L145.19 43.7538C144.078 44.7017 142.721 45.1756 141.124 45.1756ZM140.543 41.5983C140.47 41.9958 140.558 42.3092 140.803 42.5308C141.047 42.7563 141.445 42.8672 141.995 42.8672C142.809 42.8672 143.539 42.6378 144.181 42.1792C144.823 41.7129 145.236 41.1053 145.419 40.36H142.454C141.341 40.36 140.703 40.7728 140.543 41.5983Z" fill="#F7931A"/>
<path d="M161.82 45.2501C160.647 45.2501 159.657 44.9902 158.854 44.4704C158.059 43.9506 157.494 43.2321 157.157 42.3148C156.829 41.3899 156.779 40.3236 157.005 39.1197C157.226 38.0113 157.639 37.0406 158.243 36.215C158.854 35.3819 159.611 34.7321 160.521 34.2735C161.426 33.8072 162.424 33.5703 163.517 33.5703C164.259 33.5703 164.931 33.6888 165.535 33.9219C166.135 34.1474 166.643 34.4646 167.064 34.8697L168.165 29.3203H171.467L168.333 44.9596H165.978L165.902 43.813C165.352 44.2716 164.729 44.6309 164.037 44.8832C163.341 45.1278 162.604 45.2501 161.82 45.2501ZM160.169 39.456C160.005 40.3351 160.142 41.0574 160.582 41.6269C161.029 42.2002 161.683 42.483 162.539 42.483C163.127 42.483 163.678 42.3454 164.19 42.0702C164.71 41.795 165.145 41.4243 165.504 40.9542C165.871 40.4879 166.108 39.9567 166.223 39.3643C166.384 38.47 166.246 37.7362 165.81 37.1629C165.382 36.5934 164.729 36.3068 163.853 36.3068C163.261 36.3068 162.707 36.4444 162.187 36.7195C161.675 36.9947 161.243 37.3731 160.888 37.8508C160.54 38.3209 160.299 38.856 160.169 39.456Z" fill="#F7931A"/>
<path d="M177.386 46.6892C178.211 46.4943 178.754 45.9898 179.022 45.1758H178.853C178.25 45.1758 177.783 44.977 177.447 44.5795C177.118 44.1744 177.019 43.6776 177.141 43.0966C177.252 42.5769 177.5 42.1603 177.89 41.8431C178.276 41.5297 178.754 41.3691 179.327 41.3691C180.038 41.3691 180.585 41.652 180.963 42.21C181.338 42.7603 181.437 43.5018 181.254 44.4267C181.12 45.1184 180.848 45.7491 180.443 46.3223C180.046 46.8918 179.557 47.3619 178.976 47.7288C178.395 48.0957 177.745 48.3097 177.034 48.3709L177.386 46.6892Z" fill="white"/>
<path d="M189.761 44.9606L192.727 30.1621H196.151L193.186 44.9606H189.761Z" fill="white"/>
<path d="M202.551 44.9616L204.767 33.8627H207.137L207.229 35.0093C207.749 34.5316 208.333 34.1761 208.987 33.9392C209.648 33.6946 210.336 33.5723 211.051 33.5723C212.037 33.5723 212.855 33.7863 213.497 34.2143C214.139 34.6424 214.582 35.2463 214.827 36.0183C215.071 36.7827 215.087 37.6808 214.873 38.7089L213.634 44.9616H210.363L211.555 38.8771C211.727 38.0439 211.678 37.4056 211.402 36.9661C211.135 36.5304 210.669 36.3088 209.996 36.3088C209.251 36.3088 208.605 36.5763 208.054 37.1037C207.512 37.6235 207.152 38.3191 206.969 39.1828L205.838 44.9616H202.551Z" fill="white"/>
<path d="M227.791 45.2501C226.618 45.2501 225.628 44.9902 224.825 44.4704C224.03 43.9506 223.464 43.2321 223.128 42.3148C222.799 41.3899 222.75 40.3236 222.975 39.1197C223.197 38.0113 223.61 37.0406 224.214 36.215C224.825 35.3819 225.582 34.7321 226.491 34.2735C227.397 33.8072 228.395 33.5703 229.488 33.5703C230.229 33.5703 230.902 33.6888 231.506 33.9219C232.106 34.1474 232.614 34.4646 233.035 34.8697L234.135 29.3203H237.437L234.303 44.9596H231.949L231.873 43.813C231.322 44.2716 230.699 44.6309 230.008 44.8832C229.312 45.1278 228.574 45.2501 227.791 45.2501ZM226.14 39.456C225.975 40.3351 226.113 41.0574 226.553 41.6269C227 42.2002 227.653 42.483 228.509 42.483C229.098 42.483 229.648 42.3454 230.16 42.0702C230.68 41.795 231.116 41.4243 231.475 40.9542C231.842 40.4879 232.079 39.9567 232.194 39.3643C232.354 38.47 232.217 37.7362 231.781 37.1629C231.353 36.5934 230.699 36.3068 229.824 36.3068C229.232 36.3068 228.678 36.4444 228.158 36.7195C227.646 36.9947 227.214 37.3731 226.858 37.8508C226.511 38.3209 226.27 38.856 226.14 39.456Z" fill="white"/>
<path d="M243.444 44.9614L245.676 33.8625H248.948L246.731 44.9614H243.444ZM246.013 30.0559C246.123 29.4979 246.372 29.0584 246.762 28.7412C247.159 28.4163 247.641 28.252 248.214 28.252C248.875 28.252 249.376 28.4736 249.712 28.9093C250.049 29.3488 250.156 29.8801 250.033 30.4992C249.911 31.0496 249.651 31.4853 249.254 31.7987C248.864 32.1159 248.39 32.2726 247.832 32.2726C247.167 32.2726 246.662 32.0586 246.318 31.6305C245.971 31.2025 245.867 30.6789 246.013 30.0559Z" fill="white"/>
<path d="M259.745 45.1756C258.376 45.1756 257.352 44.8393 256.672 44.1666C255.999 43.494 255.774 42.6035 255.999 41.4913C256.202 40.4938 256.679 39.7179 257.436 39.1675C258.201 38.6172 259.168 38.342 260.341 38.342H264.423L264.53 37.8222C264.641 37.2528 264.537 36.8094 264.224 36.4922C263.918 36.1788 263.452 36.0183 262.833 36.0183C262.302 36.0183 261.828 36.1368 261.411 36.3699C260.991 36.6069 260.708 36.9279 260.555 37.333H257.406C257.773 36.1329 258.46 35.2042 259.469 34.5507C260.486 33.9009 261.701 33.5723 263.108 33.5723C264.209 33.5723 265.126 33.771 265.86 34.1685C266.594 34.566 267.106 35.1278 267.404 35.8501C267.71 36.5648 267.763 37.4171 267.572 38.4032L266.257 44.9616H263.888L263.811 43.7538C262.699 44.7017 261.342 45.1756 259.745 45.1756ZM259.164 41.5983C259.091 41.9958 259.179 42.3092 259.424 42.5308C259.668 42.7563 260.066 42.8672 260.616 42.8672C261.43 42.8672 262.16 42.6378 262.802 42.1792C263.444 41.7129 263.857 41.1053 264.04 40.36H261.075C259.962 40.36 259.324 40.7728 259.164 41.5983Z" fill="white"/>
</svg>
