<svg width="338" height="259" viewBox="0 0 338 259" fill="none" xmlns="http://www.w3.org/2000/svg">
<g clip-path="url(#clip0_138_14638)">
<mask id="mask0_138_14638" style="mask-type:luminance" maskUnits="userSpaceOnUse" x="0" y="4" width="339" height="277">
<path d="M0 3.99994H338.019V280.63H0V3.99994Z" fill="white"/>
</mask>
<g mask="url(#mask0_138_14638)">
<path d="M77.6383 279.763C76.7303 278.852 76.6929 278.31 77.4701 277.2L78.0568 276.363H168.097C249.446 276.363 258.194 276.419 258.732 276.957C259.584 277.809 259.464 279.244 258.485 279.928C257.73 280.458 248.527 280.518 168.019 280.518C78.8975 280.518 78.3893 280.514 77.6383 279.763ZM1.33726 271.341C0.604892 270.971 0.391907 270.571 0.391907 269.563C0.391907 268.554 0.604892 268.158 1.33726 267.788C2.802 267.052 335.997 267.265 336.89 268.004C337.66 268.647 337.674 269.884 336.92 270.885C336.352 271.64 335.855 271.64 169.315 271.73C35.1272 271.801 2.09579 271.726 1.33726 271.341ZM1.04207 262.93C0.575 262.605 0.205078 261.947 0.205078 261.443C0.205078 260.938 0.575 260.281 1.04207 259.952C1.8006 259.421 18.3537 259.365 168.942 259.365C335.5 259.365 336.004 259.369 336.759 260.12C337.174 260.535 337.514 261.129 337.514 261.443C337.514 261.753 337.174 262.347 336.759 262.766C336.004 263.517 335.5 263.52 168.942 263.52C18.3537 263.52 1.8006 263.461 1.04207 262.93ZM1.04207 255.378C0.459166 254.967 0.205078 254.403 0.205078 253.514C0.205078 251.982 0.941185 251.16 2.57781 250.868C3.24666 250.749 78.5537 250.7 169.932 250.76L336.068 250.865L336.979 251.926C338.13 253.264 338.127 253.876 336.964 255.038L336.038 255.965H168.96C18.3537 255.965 1.8006 255.909 1.04207 255.378ZM10.0286 244.161C10.0323 243.279 10.1892 238.9 10.3798 234.435C10.5704 229.97 10.9179 220.281 11.1533 212.905C11.3887 205.529 11.6652 198.773 11.7698 197.891L11.9604 196.284H31.8278L32.0594 199.401C32.1865 201.116 32.4779 208.298 32.7059 215.36C32.9338 222.422 33.2514 231.943 33.4121 236.512C33.569 241.082 33.6251 245.036 33.5316 245.293C33.4009 245.66 30.6881 245.768 21.6942 245.768H10.0248L10.0286 244.161ZM41.3859 243.029C41.3972 240.118 41.939 225.62 42.3612 216.966L42.6153 211.773H56.0072L56.2949 220.363C56.8442 236.826 57.0497 245.024 56.9264 245.394C56.8479 245.622 53.8288 245.768 49.087 245.768H41.3747L41.3859 243.029ZM71.5962 234.114C71.5962 222.653 71.6074 222.437 72.4444 221.2C72.9115 220.509 74.1072 219.358 75.1011 218.644L76.9096 217.348L78.9124 218.678C82.1745 220.845 82.1707 220.826 82.1707 234.207V245.768H71.5962V234.114ZM88.4669 245.514C88.3286 245.376 88.2128 227.941 88.2128 206.766V168.268L85.287 168.518C83.6766 168.656 79.7233 169.007 76.5061 169.303C73.2851 169.601 70.1763 169.841 69.5934 169.844H68.5397L68.6518 167.109L68.7601 164.374L75.5607 163.75C79.301 163.406 83.6766 163.006 85.287 162.864L88.2128 162.603V158.728C88.2128 155.451 88.3211 154.756 88.9041 154.225C90.7013 152.6 91.6131 154.188 91.6131 158.934V162.588L94.5426 162.797C98.9555 163.107 126.483 162.902 127.025 162.551C127.383 162.319 127.499 159.991 127.499 153.056V143.868L129.244 143.606C130.204 143.46 131.139 143.494 131.322 143.677C131.512 143.868 131.613 165.783 131.561 194.794L131.464 245.577L129.293 245.689L127.118 245.805V168.335H93.1264V206.822C93.1264 241.568 93.0666 245.331 92.5285 245.536C91.7214 245.846 88.7807 245.831 88.4669 245.518V245.514ZM101.437 235.664C101.437 229.779 101.605 224.963 101.836 224.133C102.374 222.19 104.097 220.333 107.348 218.177L110.076 216.372L113.188 218.51C114.899 219.687 116.824 221.301 117.463 222.1L118.621 223.55L118.853 245.768H101.433L101.437 235.664ZM135.981 245.293C135.884 245.036 135.847 224.425 135.899 199.494L135.996 154.169H202.855L202.948 199.987L203.045 245.802L198.322 245.577L198.225 202.61C198.15 168.641 198.031 159.64 197.657 159.614C197.399 159.595 184.527 159.587 169.046 159.591L140.906 159.595L140.839 180.677C140.798 192.271 140.757 211.66 140.742 223.763L140.719 245.764H138.44C136.964 245.764 136.097 245.596 135.981 245.293ZM146.373 243.406C146.369 242.106 146.373 229.215 146.384 214.758C146.403 190.358 146.451 188.296 147.101 186.031C147.979 182.956 148.719 181.521 150.771 178.902C152.725 176.406 154.72 174.84 160.146 171.548C165.676 168.197 165.99 167.954 167.925 165.529L169.614 163.41L170.347 164.456C171.946 166.739 174.539 168.813 179.292 171.597C186.717 175.954 189.781 179.193 191.854 184.877C192.62 186.977 192.647 187.743 192.759 215.55C192.826 231.233 192.777 244.456 192.661 244.935C192.46 245.738 192.273 245.794 190.094 245.689L187.744 245.577L187.557 217.419L187.367 189.256L185.928 186.345C184.135 182.721 181.911 180.456 177.304 177.572C175.361 176.353 172.869 174.698 171.766 173.899C170.668 173.095 169.648 172.49 169.502 172.557C169.356 172.624 166.513 174.485 163.184 176.694C156.424 181.174 154.926 182.612 153.11 186.345L151.862 188.92L151.664 217.247C151.555 232.828 151.428 245.618 151.38 245.671C151.331 245.723 150.188 245.768 148.839 245.768H146.384L146.373 243.406ZM207.892 243.235C207.821 241.822 207.813 218.823 207.869 192.129L207.978 143.591H211.92L212.021 153.131L212.122 162.666L218.253 162.749C228.592 162.883 246.244 162.864 247.141 162.715C247.952 162.584 247.993 162.412 247.996 159.128C248.004 155.552 248.482 153.885 249.562 153.68C250.956 153.411 251.393 154.599 251.393 158.679V162.569L253.187 162.786C254.173 162.906 258.253 163.302 262.252 163.66L269.523 164.314V169.844H268.271C267.143 169.844 256.714 168.959 253.187 168.563L251.774 168.406L251.677 206.99L251.58 245.577L246.857 245.802V168.335H212.488L212.394 206.956L212.297 245.577L210.156 245.689L208.019 245.802L207.892 243.235ZM221.179 235.859C221.179 230.399 221.287 225.303 221.414 224.533C221.728 222.635 223.709 220.415 227.087 218.181L229.863 216.339L233.237 218.577C235.804 220.273 236.869 221.245 237.676 222.616L238.737 224.425V245.577L221.175 245.779L221.179 235.859ZM256.837 245.252C256.725 244.968 256.692 239.655 256.755 233.448C256.845 224.682 256.987 221.929 257.398 221.125C257.689 220.557 258.829 219.474 259.927 218.719L261.926 217.34L263.884 218.779C267.165 221.189 267.24 221.521 267.247 233.93C267.251 239.782 267.154 244.841 267.027 245.17C266.833 245.671 266.018 245.768 261.915 245.768C258.138 245.768 256.99 245.648 256.837 245.252ZM281.241 244.352C281.245 243.571 281.495 236.475 281.798 228.58C282.1 220.684 282.351 213.674 282.354 212.998L282.366 211.773H295.537L295.739 213.376C295.963 215.192 296.725 237.873 296.722 242.652L296.718 245.768H281.233L281.241 244.352ZM305.271 245.476C305.174 245.32 305.245 240.94 305.428 235.75C306.112 216.327 306.538 202.42 306.538 199.401L306.541 196.284H326.936L326.939 197.323C326.943 197.895 327.111 202.102 327.317 206.672C328.064 223.27 328.785 245.148 328.595 245.454C328.352 245.846 305.514 245.869 305.271 245.476ZM71.5962 196.654C71.5962 181.794 71.5402 182.078 74.9143 179.582L76.9881 178.054L78.1614 178.722C78.8078 179.092 79.7345 179.754 80.224 180.191C82.1408 181.914 82.1707 182.145 82.1707 195.675C82.1707 207.397 82.1222 208.335 81.5094 208.507C81.1469 208.611 79.2338 208.802 77.2609 208.933C75.2879 209.06 73.2029 209.258 72.6312 209.366L71.5962 209.564V196.654ZM261.968 209.06C259.58 208.88 257.401 208.652 257.132 208.555C256.74 208.417 256.665 205.828 256.755 195.623C256.863 183.602 256.912 182.795 257.629 181.667C258.291 180.621 261.213 178.155 261.792 178.155C262.341 178.155 265.383 180.755 266.175 181.902L267.068 183.195V196.225C267.068 204.61 266.933 209.276 266.691 209.321C266.481 209.362 264.355 209.243 261.968 209.06ZM40.407 207.883C40.108 207.715 39.8652 207.064 39.8652 206.433C39.8652 205.51 40.0819 205.204 40.9674 204.867C41.995 204.479 42.0847 204.284 42.279 201.975C42.3948 200.611 42.5817 196.86 42.6937 193.639C42.8058 190.422 43.0001 185.96 43.1235 183.726L43.3476 179.664H55.2636L55.4878 182.403C55.6148 183.909 55.8091 188.964 55.9287 193.639C56.1641 203.167 56.3061 204.595 57.0123 204.595C57.6438 204.595 58.7536 205.82 58.7461 206.511C58.7274 208.07 58.3986 208.129 49.5018 208.156C44.7937 208.174 40.7022 208.047 40.407 207.879V207.883ZM280.157 207.674C279.085 206.601 279.78 204.595 281.222 204.595C281.809 204.595 281.902 203.907 282.126 198.078C282.261 194.495 282.481 188.886 282.616 185.613L282.855 179.664H295.096L295.35 188.636C295.728 202.214 295.933 204.595 296.714 204.595C297.768 204.595 298.732 205.94 298.455 207.035L298.216 207.995L292.084 207.999C288.714 207.999 284.828 208.107 283.453 208.234C281.233 208.447 280.863 208.383 280.157 207.674ZM101.433 197.177C101.433 190.168 101.586 185.856 101.866 184.925C102.49 182.844 104.138 181.035 107.325 178.935L110.124 177.09L112.859 178.906C115.983 180.979 117.829 182.777 118.408 184.316C118.658 184.981 118.812 189.633 118.812 196.688V207.995H101.437L101.433 197.177ZM221.175 197.136C221.175 190.721 221.34 185.691 221.575 184.847C222.113 182.904 223.836 181.047 227.105 178.883L229.852 177.063L233.349 179.403C238.73 183.005 238.73 183.001 238.775 194.02C238.797 198.9 238.734 204.042 238.633 205.446L238.453 207.995H221.175V197.136ZM9.13924 190.683C8.79548 190.302 8.51524 189.622 8.51524 189.174C8.51524 188.172 9.77446 186.842 10.7236 186.842C11.5157 186.842 11.5307 186.603 12.3004 163.421C12.5321 156.464 12.8011 150.388 12.8908 149.917L13.0627 149.069H31.1776L31.1813 151.43C31.1851 153.755 31.6671 168.14 32.1566 180.516C32.3808 186.147 32.4779 186.842 33.0571 186.842C33.9838 186.842 34.9553 188.056 34.9553 189.211C34.9553 191.285 34.3985 191.375 21.5185 191.375C10.6115 191.375 9.71842 191.326 9.13924 190.683ZM304.273 190.62C303.858 190.205 303.518 189.704 303.518 189.51C303.518 188.482 304.355 187.212 305.17 187.01C306.003 186.801 306.112 186.532 306.31 184.26C306.429 182.874 306.713 174.605 306.941 165.876C307.169 157.151 307.419 149.801 307.502 149.54C307.614 149.181 309.785 149.069 316.682 149.069H325.714L325.945 153.317C326.072 155.657 326.353 162.752 326.566 169.09C326.779 175.423 327.048 181.981 327.163 183.655C327.369 186.685 327.376 186.704 328.565 187.055C330.156 187.526 330.721 189.032 329.824 190.399L329.185 191.375H317.108C305.532 191.375 304.998 191.341 304.273 190.62ZM40.8479 175.774C39.8353 175.034 40.179 173.181 41.442 172.58C42.0548 172.288 42.5331 171.69 42.6564 171.066C42.7685 170.498 43.1347 161.874 43.4672 151.901C43.8035 141.928 44.1921 130.797 44.3304 127.161L44.5882 120.551L49.1842 120.447L53.7802 120.338L54.0006 122.711C54.1202 124.015 54.3967 131.032 54.6134 138.304C54.8302 145.575 55.1665 155.69 55.3645 160.779C55.5588 165.869 55.7232 170.502 55.7232 171.07C55.7269 171.743 55.9325 172.109 56.2949 172.109C57.0273 172.109 58.3724 173.454 58.3724 174.186C58.3724 174.5 58.0324 175.094 57.6177 175.509C56.9114 176.215 56.3584 176.264 49.1917 176.264C43.4971 176.264 41.3486 176.14 40.8479 175.774ZM280.759 175.857C279.645 175.21 279.903 173.319 281.207 172.572C282.683 171.724 282.511 174.1 283.494 140.759C283.692 134.007 283.965 126.657 284.096 124.422L284.335 120.361H293.583L293.818 126.691C293.949 130.169 294.326 141.431 294.659 151.714C294.991 161.998 295.328 170.752 295.414 171.167C295.496 171.582 296.079 172.21 296.707 172.565C298.108 173.353 298.25 174.81 297.013 175.677C296.322 176.163 294.876 176.264 288.796 176.253C284.492 176.249 281.144 176.081 280.759 175.857ZM263.328 160.503C263.204 160.376 263.1 156.053 263.1 150.896V141.514H266.5V160.69L265.028 160.712C264.221 160.723 263.455 160.63 263.328 160.503ZM71.5962 150.956V141.514H73.2926C74.4061 141.514 74.9928 141.678 74.989 141.988C74.9853 142.246 75.0638 146.494 75.1684 151.43L75.3552 160.402H71.5925L71.5962 150.956ZM102.946 156.949C102.946 153.923 102.21 152.72 100.364 152.72C98.3314 152.72 97.6589 153.71 97.6589 156.68V159.266H94.2586V147.937H122.586V159.528L121.169 159.445L119.753 159.36L119.641 156.763C119.51 153.743 118.815 152.72 116.884 152.72C114.941 152.72 114.167 154.001 114.35 156.901L114.503 159.266H111.29L111.178 156.568C111.077 154.158 110.961 153.788 110.072 153.131C108.779 152.163 107 152.503 106.399 153.826C106.16 154.345 105.969 155.832 105.969 157.132V159.494L104.459 159.475L102.946 159.457V156.949ZM226.933 159.371L225.708 159.221V156.77C225.708 154.674 225.573 154.188 224.777 153.396C223.645 152.264 222.722 152.223 221.414 153.25C220.51 153.964 220.417 154.274 220.417 156.65V159.266H218.814L217.207 159.262L217.177 153.598L217.147 147.937H231.343L245.538 147.933L245.426 153.788L245.31 159.647H242.324L242.313 156.908C242.298 153.594 241.775 152.693 239.862 152.693C237.837 152.693 237.265 153.538 237.101 156.755L236.962 159.52L235.584 159.475L234.205 159.427L234.093 156.718C233.996 154.3 233.876 153.923 232.975 153.217C231.798 152.29 230.401 152.462 229.388 153.661C228.899 154.24 228.727 155.115 228.727 157.043C228.727 158.474 228.6 159.617 228.443 159.584C228.29 159.55 227.61 159.457 226.933 159.371ZM135.129 146.33L135.241 143.591L169.708 143.569L204.178 143.55V149.069H135.021L135.129 146.33ZM8.76185 143.845C8.41808 143.464 8.13784 142.627 8.13784 141.977C8.13784 140.508 9.28871 139.627 11.2056 139.627H12.5956L12.8123 135.378C13.3055 125.809 14.9309 83.8394 14.9347 80.6073V78.4326H28.831L29.0552 82.1169C29.1785 84.1421 29.3691 88.6036 29.4812 92.0338C29.7166 99.2528 30.6844 125.435 31.0244 133.865L31.2561 139.627H32.3098C34.6339 139.627 35.8782 142.134 34.3761 143.793C33.7334 144.503 33.158 144.536 21.5447 144.536C10.2453 144.536 9.34102 144.488 8.76185 143.845ZM92.2109 142.937C91.8896 140.942 92.6107 136.802 93.6831 134.444C95.4169 130.648 99.3553 127.273 104.833 124.897C108.211 123.432 108.218 123.429 107.381 122.958C106.533 122.483 106.548 121.676 107.423 120.421C107.811 119.868 108.226 118.425 108.345 117.207C108.465 115.989 108.663 114.898 108.783 114.775C109.253 114.304 109.777 115.417 110.001 117.368C110.139 118.564 110.61 119.968 111.126 120.738L112.015 122.053L111.163 122.715C110.434 123.283 110.393 123.432 110.879 123.754C111.189 123.959 111.589 124.131 111.768 124.135C111.948 124.135 113.386 124.777 114.963 125.555C121.962 129.011 125.836 135.438 125.041 142.283L124.79 144.428L108.615 144.402L92.4389 144.372L92.2109 142.937ZM214.812 140.393C214.939 136.63 215.044 136.17 216.366 133.491C218.126 129.93 220.589 127.61 224.744 125.596C226.392 124.796 227.957 124.138 228.215 124.138C229.011 124.138 229.254 123.294 228.596 122.812C227.77 122.207 227.808 121.426 228.727 120.26C229.183 119.681 229.485 118.72 229.489 117.846C229.497 116.086 229.837 114.696 230.266 114.696C230.644 114.696 231.365 117.144 231.38 118.474C231.384 118.993 231.72 119.841 232.127 120.361C233.106 121.613 233.073 122.491 232.041 122.76C230.875 123.066 231.402 123.462 234.825 124.875C241.895 127.789 246.076 132.374 247.234 138.476C247.679 140.819 247.72 143.43 247.324 143.972C247.145 144.219 241.293 144.368 230.861 144.391L214.674 144.428L214.812 140.393ZM304.06 143.606C302.775 141.644 304.139 139.627 306.754 139.627C307.666 139.627 307.673 139.604 307.677 135.756C307.681 133.626 308.103 120.835 308.619 107.331C309.131 93.8273 309.557 81.7993 309.557 80.6073L309.56 78.4326H323.913V80.7941C323.909 84.5345 325.781 134.653 326.016 137.22L326.229 139.533L327.978 139.731C330.538 140.019 331.479 141.76 330.127 143.696C329.536 144.536 329.525 144.536 317.101 144.536H304.669L304.06 143.606ZM70.4603 138.767C70.4603 137.067 71.4654 136.226 73.4944 136.226C75.1684 136.226 75.4075 136.335 75.9269 137.34C77.018 139.444 76.8237 139.627 73.4832 139.627C70.5911 139.627 70.4603 139.589 70.4603 138.767ZM261.878 139.41C261.549 139.081 262.263 136.891 262.812 136.544C263.074 136.376 264.004 136.234 264.875 136.234C266.085 136.23 266.597 136.424 267.046 137.067C267.8 138.143 267.797 139.103 267.038 139.395C266.276 139.686 262.166 139.698 261.878 139.41ZM127.865 136.746C127.29 133.981 126.374 131.358 124.865 128.174C124.192 126.762 123.703 125.547 123.778 125.484C123.901 125.372 130.907 124.138 131.415 124.138C131.546 124.138 131.654 127.453 131.654 131.503V138.872H128.306L127.865 136.746ZM135.241 131.414V123.963L137.128 123.701C147.071 122.323 175.275 121.833 190.39 122.778C195.789 123.115 201.102 123.496 202.193 123.619L204.178 123.847V138.872L169.708 138.868L135.241 138.864V131.414ZM207.877 131.843C207.813 127.98 207.854 124.673 207.966 124.497C208.142 124.209 214.887 125.076 215.514 125.465C215.649 125.547 215.107 126.941 214.311 128.559C212.97 131.294 212.14 133.973 211.557 137.456C211.322 138.842 211.285 138.872 209.652 138.872H207.985L207.877 131.843ZM72.3622 133.865C72.3697 133.607 72.5976 132.998 72.8666 132.512L73.3561 131.63L73.9839 132.594C74.8807 133.962 74.776 134.339 73.4832 134.339C72.8218 134.339 72.3547 134.141 72.3622 133.865ZM263.477 133.869C263.477 133.585 263.724 133.02 264.023 132.617C264.561 131.892 264.572 131.892 265.144 132.639C265.91 133.641 265.715 134.123 264.49 134.268C263.825 134.347 263.477 134.209 263.477 133.869ZM121.136 119.931C119.727 116.647 118.389 112.189 117.814 108.848C116.984 104.058 117.268 95.2248 118.378 91.122C120.829 82.0758 126.984 73.1491 135.888 65.7357C140.077 62.2495 142.457 60.6427 148.073 57.5264L152.598 55.0155L152.486 53.7002C152.344 52.0636 153.678 50.681 155.744 50.3148C158.064 49.9038 158.386 49.7394 158.61 48.8501C158.819 48.0168 160.609 47.0827 161.992 47.0827C162.69 47.0827 162.844 46.5073 162.249 46.1373C161.607 45.7413 161.831 44.1271 162.634 43.3797C163.057 42.9874 164.077 42.4419 164.902 42.1691C166.404 41.6721 166.733 41.2873 166.027 40.8501C165.601 40.5885 165.526 39.1574 165.881 38.2233C166.012 37.887 166.606 37.3601 167.204 37.05C168.12 36.5754 168.291 36.2541 168.291 35.0135C168.291 33.6347 168.116 33.3209 166.606 32.0542C165.624 31.2284 165.889 29.3825 167.159 28.198C168.497 26.9463 168.635 25.4442 167.537 24.0429C166.457 22.6604 166.584 20.9939 167.899 19.3386L169.02 17.9299L167.922 15.8748C165.429 11.204 166.341 6.95928 170.309 4.76591C171.856 3.91023 171.871 3.90649 171.165 4.70986C170.059 5.96909 169.951 8.80141 170.892 11.8916C171.83 14.978 171.86 15.6655 171.113 16.6557C170.347 17.6683 170.414 18.1429 171.505 19.4432C172.936 21.1471 173.052 22.4736 171.905 24.0205C170.66 25.6908 170.687 26.2662 172.069 28.0074C173.661 30.0103 173.71 31.2956 172.237 32.6184C170.754 33.9523 170.952 35.9253 172.727 37.461C174.128 38.6716 174.139 38.6978 173.639 40.0803C173.358 40.8463 173.19 41.504 173.261 41.5413C173.332 41.575 174.24 42.0308 175.279 42.5502C176.788 43.305 177.192 43.7086 177.289 44.5568C177.356 45.1397 177.218 45.8534 176.979 46.1411C176.628 46.5633 176.837 46.7389 178.066 47.0715C179.696 47.5087 180.757 48.3307 180.757 49.1528C180.757 49.4554 181.403 49.7693 182.363 49.9262C185.588 50.4643 187.445 52.1458 187.023 54.1486C186.814 55.1313 186.956 55.2808 189.097 56.3382C196.615 60.0412 205.104 66.3448 209.951 71.8226C216.28 78.9782 219.916 85.8086 221.609 93.7339C222.326 97.0894 222.222 105.519 221.414 109.584C220.895 112.193 217.868 120.712 217.207 121.426C217.091 121.549 208.889 120.406 208.049 120.152C207.701 120.047 207.798 119.546 208.415 118.28C209.409 116.232 209.08 115.328 207.275 115.145C205.609 114.98 204.555 116.146 204.555 118.149V119.714L201.626 119.471C200.015 119.337 196.406 119.019 193.599 118.765C182.334 117.738 145.181 118.28 136.848 119.591C135.055 119.871 135.051 119.871 135.051 118.776C135.051 117.162 134.053 115.5 132.91 115.212C130.978 114.73 129.879 116.49 131.06 118.175C132.26 119.883 131.92 120.174 128.161 120.66C126.236 120.91 124.032 121.22 123.254 121.351C121.876 121.586 121.831 121.557 121.136 119.931ZM41.7708 116.295L40.945 115.627L44.8759 112.428H53.5112L55.3757 114.035C56.4033 114.917 57.2403 115.742 57.2403 115.862C57.2403 116.635 54.7666 116.964 48.9563 116.964C43.4373 116.964 42.4845 116.875 41.7708 116.295ZM282.108 116.71C281.656 116.617 281.095 116.307 280.86 116.023C280.52 115.615 280.86 115.193 282.515 113.968L284.6 112.428H293.243L295.152 114.035C296.845 115.458 296.998 115.705 296.501 116.206C296.049 116.662 294.663 116.785 289.435 116.83C285.859 116.86 282.56 116.807 282.108 116.71ZM43.2654 108.142C43.2654 106.091 44.7003 104.35 47.996 102.407C48.5938 102.052 48.6088 101.868 48.1529 100.609C47.7568 99.5219 47.7456 99.1109 48.1006 98.7559C48.3472 98.5055 48.5527 97.8367 48.5527 97.2687C48.5527 96.002 49.2402 94.1038 49.5765 94.4401C49.711 94.5784 49.9577 95.4938 50.1183 96.4766C50.279 97.4593 50.5256 98.8157 50.6601 99.492C50.8208 100.292 50.7573 100.721 50.4845 100.721C49.4159 100.721 50.2491 102.152 51.9717 103.281C54.1613 104.712 55.3496 106.435 55.3496 108.18L55.3533 109.409H43.2654V108.142ZM282.915 109.005C282.515 108.355 283.076 106.166 283.92 105.093C284.35 104.544 285.374 103.755 286.196 103.337C287.959 102.436 288.307 101.756 287.638 100.505C287.268 99.8133 287.249 99.3762 287.563 98.7372C287.791 98.2701 288.086 97.0782 288.217 96.0917C288.501 93.9432 289.047 93.7601 289.346 95.7143C289.465 96.4953 289.73 97.6536 289.932 98.2925C290.403 99.7834 290.399 100.721 289.917 100.721C288.949 100.721 289.704 102.145 291.158 103.064C293.661 104.645 294.513 105.751 294.734 107.686L294.928 109.409H289.047C285.295 109.409 283.076 109.263 282.915 109.005ZM15.2336 71.0678L15.1252 68.0487L12.5321 67.9851C8.67591 67.8917 8.6236 67.5442 11.979 64.3046L14.8562 61.5283L21.8735 61.4611L28.8871 61.3975L31.8278 64.2523C34.6713 67.0174 34.7423 67.1257 34.0099 67.6937C33.4308 68.1458 32.7582 68.2243 31.0991 68.0337L28.9431 67.7871L28.831 70.9184L28.7227 74.0496L22.0305 74.072L15.342 74.0907L15.2336 71.0678ZM309.938 71.2023C309.938 67.873 309.923 67.8581 306.508 67.8581C303.511 67.8581 303.559 67.2266 306.788 64.2299C309.766 61.4611 309.822 61.4461 318.005 61.4424L323.995 61.4386L326.797 64.1514C328.337 65.646 329.536 67.0473 329.465 67.2677C329.39 67.4882 328.071 67.7535 326.528 67.8581L323.726 68.0487L323.853 70.0141C323.924 71.0977 323.879 72.4541 323.752 73.037L323.52 74.0907H309.942L309.938 71.2023ZM13.0477 56.3569C13.0552 53.1098 14.8375 50.3485 18.2528 48.2971C19.441 47.5834 20.5358 46.8024 20.689 46.567C21.0963 45.9356 21.0403 44.142 20.6031 43.873C20.0276 43.518 20.151 41.8814 20.8235 40.8538C21.1524 40.3494 21.328 39.7889 21.2159 39.6058C21.1 39.419 21.1897 38.6119 21.4102 37.8048C21.7876 36.4372 21.8474 36.3886 22.3406 37.0649C22.632 37.461 22.8674 38.3615 22.8674 39.0715C22.8674 39.7777 23.1626 40.8538 23.5213 41.4629C24.0519 42.3634 24.0893 42.6885 23.7082 43.2191C22.3966 45.0537 22.8787 46.2644 25.6437 48.0804C29.2832 50.4643 30.6171 52.37 30.8525 55.4975L30.987 57.3022L22.0192 57.4069L13.0477 57.5115V56.3569ZM308.051 55.688C308.051 52.5605 309.721 50.1878 313.383 48.1028C315.565 46.8622 316.26 45.4386 315.453 43.8804C314.964 42.9351 314.96 42.6399 315.438 41.4965C315.737 40.7791 315.984 39.8001 315.984 39.3181C315.984 38.1747 316.69 36.3325 317.007 36.6502C317.142 36.7847 317.374 37.7001 317.519 38.6829C317.665 39.6693 318.009 41.0145 318.282 41.6796C318.685 42.6661 318.689 43.0509 318.289 43.7945C317.377 45.5021 317.871 46.3914 320.8 48.3232C324.234 50.5876 325.516 52.4111 325.725 55.3331L325.878 57.4704L316.963 57.4965L308.051 57.5227V55.688Z" fill="white" fill-opacity="0.45"/>
</g>
</g>
<defs>
<clipPath id="clip0_138_14638">
<rect width="338" height="259" fill="white"/>
</clipPath>
</defs>
</svg>
