<svg width="2297" height="2681" viewBox="0 0 2297 2681" fill="none" xmlns="http://www.w3.org/2000/svg">
<g clip-path="url(#clip0_159_2130)">
<rect x="406.482" y="352.183" width="1522.69" height="1849.6" rx="53.7674" fill="black"/>
<g filter="url(#filter0_f_159_2130)">
<g filter="url(#filter1_f_159_2130)">
<circle cx="1914.12" cy="2145.86" r="1176.43" fill="#FF9500" fill-opacity="0.5"/>
</g>
<g filter="url(#filter2_f_159_2130)">
<circle cx="1914.12" cy="2145.86" r="915.002" fill="#FF9500" fill-opacity="0.5"/>
</g>
<g filter="url(#filter3_f_159_2130)">
<circle cx="1914.12" cy="2145.86" r="642.135" fill="#FF9500" fill-opacity="0.8"/>
</g>
<circle cx="1914.12" cy="2145.86" r="408.483" fill="#FF9500"/>
<circle cx="1914.12" cy="2145.86" r="187.109" fill="black"/>
</g>
<mask id="path-7-outside-1_159_2130" maskUnits="userSpaceOnUse" x="403.537" y="353.539" width="1528" height="1847" fill="black">
<rect fill="white" x="403.537" y="353.539" width="1528" height="1847"/>
<path d="M1871.11 371.539C1894.86 371.54 1914.12 390.797 1914.12 414.553V2139.41C1914.12 2163.17 1894.86 2182.43 1871.11 2182.43H464.55C440.795 2182.43 421.537 2163.17 421.537 2139.41V414.553C421.537 390.797 440.795 371.539 464.55 371.539H1871.11Z"/>
</mask>
<path d="M1871.11 371.539L1871.11 354.334H1871.11V371.539ZM1914.12 414.553H1931.33V414.553L1914.12 414.553ZM1914.12 2139.41H1931.33H1914.12ZM1871.11 2182.43V2199.63H1871.11L1871.11 2182.43ZM464.55 2182.43L464.55 2199.63H464.55V2182.43ZM421.537 2139.41H404.331H421.537ZM421.537 414.553L404.331 414.553V414.553H421.537ZM464.55 371.539V354.334H464.55L464.55 371.539ZM1871.11 371.539L1871.11 388.745C1885.36 388.745 1896.91 400.3 1896.92 414.553L1914.12 414.553L1931.33 414.553C1931.33 381.295 1904.36 354.334 1871.11 354.334L1871.11 371.539ZM1914.12 414.553H1896.92V2139.41H1914.12H1931.33V414.553H1914.12ZM1914.12 2139.41H1896.92C1896.92 2153.67 1885.36 2165.22 1871.11 2165.22L1871.11 2182.43L1871.11 2199.63C1904.36 2199.63 1931.33 2172.67 1931.33 2139.41H1914.12ZM1871.11 2182.43V2165.22H464.55V2182.43V2199.63H1871.11V2182.43ZM464.55 2182.43L464.55 2165.22C450.297 2165.22 438.742 2153.67 438.742 2139.41H421.537H404.331C404.331 2172.67 431.292 2199.63 464.55 2199.63L464.55 2182.43ZM421.537 2139.41H438.742V414.553H421.537H404.331V2139.41H421.537ZM421.537 414.553L438.742 414.553C438.742 400.3 450.297 388.745 464.55 388.745L464.55 371.539L464.55 354.334C431.292 354.334 404.331 381.295 404.331 414.553L421.537 414.553ZM464.55 371.539V388.745H1871.11V371.539V354.334H464.55V371.539Z" fill="url(#paint0_linear_159_2130)" mask="url(#path-7-outside-1_159_2130)"/>
<path d="M684.729 1102.9C681.933 1090.67 675.038 1082.12 664.046 1077.24C657.903 1074.55 651.068 1073.2 643.541 1073.19C629.134 1073.15 617.26 1078.59 607.92 1089.5C598.661 1100.32 593.998 1116.66 593.932 1138.51C593.866 1160.53 598.837 1176.12 608.846 1185.29C618.854 1194.45 630.253 1199.05 643.041 1199.08C655.586 1199.11 665.875 1195.53 673.91 1188.35C681.944 1181.08 686.91 1171.58 688.807 1159.85L647.408 1159.76L647.498 1129.89L722.04 1130.06L721.751 1226.09L696.985 1226.03L693.288 1203.69C686.059 1212.17 679.567 1218.14 673.81 1221.61C663.917 1227.66 651.768 1230.67 637.361 1230.63C613.647 1230.58 594.247 1222.32 579.161 1205.86C563.428 1189.31 555.605 1166.71 555.691 1138.06C555.778 1109.09 563.82 1085.88 579.817 1068.43C595.814 1050.98 616.924 1042.29 643.148 1042.35C665.891 1042.4 684.124 1048.23 697.849 1059.83C711.654 1071.36 719.543 1085.74 721.514 1102.98L684.729 1102.9ZM806.694 1158.66L852.1 1158.76L829.973 1088.3L806.694 1158.66ZM809.336 1047.34L851.585 1047.43L914.419 1226.52L873.87 1226.43L862.448 1189.62L796.525 1189.47L784.031 1226.23L744.939 1226.14L809.336 1047.34ZM664.35 1379.95C664.378 1370.64 661.929 1364 657.004 1360.02C652.16 1356.05 645.326 1354.05 636.504 1354.03L601.661 1353.95L601.503 1406.64L636.346 1406.72C645.168 1406.74 652.014 1404.61 656.883 1400.33C661.833 1396.05 664.322 1389.26 664.35 1379.95ZM701.379 1379.79C701.315 1400.91 695.928 1415.83 685.219 1424.55C674.509 1433.27 659.239 1437.61 639.41 1437.56L601.41 1437.48L601.217 1501.82L564.067 1501.74L564.605 1322.79L642.547 1322.96C660.514 1323 674.826 1327.65 685.482 1336.9C696.138 1346.15 701.437 1360.45 701.379 1379.79ZM759.731 1434.55L805.136 1434.66L783.01 1364.19L759.731 1434.55ZM762.372 1323.23L804.621 1323.33L867.456 1502.42L826.907 1502.33L815.484 1465.52L749.562 1465.37L737.068 1502.12L697.976 1502.04L762.372 1323.23ZM917.519 1447.29C918.628 1455.47 920.835 1461.58 924.141 1465.64C930.189 1473.02 940.578 1476.72 955.309 1476.76C964.131 1476.78 971.297 1475.82 976.806 1473.89C987.258 1470.19 992.499 1463.28 992.53 1453.17C992.547 1447.26 989.971 1442.68 984.801 1439.43C979.631 1436.26 971.505 1433.45 960.424 1431L941.498 1426.71C922.895 1422.46 910.04 1417.85 902.932 1412.9C890.898 1404.62 884.907 1391.7 884.96 1374.13C885.008 1358.11 890.875 1344.81 902.562 1334.23C914.249 1323.65 931.383 1318.39 953.964 1318.44C972.822 1318.48 988.873 1323.54 1002.12 1333.6C1015.44 1343.59 1022.4 1358.09 1022.99 1377.11L987.053 1377.03C986.437 1366.27 981.766 1358.61 973.039 1354.06C967.22 1351.05 959.981 1349.53 951.321 1349.52C941.689 1349.49 933.995 1351.42 928.237 1355.29C922.478 1359.16 919.589 1364.58 919.568 1371.54C919.549 1377.93 922.367 1382.71 928.023 1385.88C931.659 1388 939.421 1390.48 951.31 1393.34L982.125 1400.82C995.631 1404.09 1005.82 1408.44 1012.68 1413.88C1023.34 1422.32 1028.64 1434.51 1028.6 1450.45C1028.55 1466.8 1022.23 1480.39 1009.65 1491.2C997.158 1501.94 979.498 1507.28 956.674 1507.23C933.364 1507.18 915.048 1501.84 901.726 1491.2C888.403 1480.49 881.77 1465.83 881.826 1447.21L917.519 1447.29ZM1083.36 1447.66C1084.47 1455.84 1086.67 1461.96 1089.98 1466.01C1096.03 1473.39 1106.42 1477.1 1121.15 1477.13C1129.97 1477.15 1137.13 1476.19 1142.64 1474.26C1153.1 1470.56 1158.34 1463.66 1158.37 1453.54C1158.39 1447.63 1155.81 1443.05 1150.64 1439.8C1145.47 1436.63 1137.34 1433.82 1126.26 1431.37L1107.34 1427.08C1088.73 1422.83 1075.88 1418.23 1068.77 1413.27C1056.74 1404.99 1050.74 1392.07 1050.8 1374.51C1050.85 1358.48 1056.71 1345.18 1068.4 1334.6C1080.09 1324.03 1097.22 1318.76 1119.8 1318.81C1138.66 1318.86 1154.71 1323.91 1167.95 1333.98C1181.28 1343.96 1188.24 1358.47 1188.83 1377.49L1152.89 1377.41C1152.28 1366.64 1147.6 1358.98 1138.88 1354.43C1133.06 1351.42 1125.82 1349.91 1117.16 1349.89C1107.53 1349.87 1099.83 1351.79 1094.07 1355.66C1088.32 1359.54 1085.43 1364.95 1085.41 1371.91C1085.39 1378.31 1088.21 1383.09 1093.86 1386.26C1097.5 1388.37 1105.26 1390.86 1117.15 1393.72L1147.96 1401.19C1161.47 1404.46 1171.65 1408.81 1178.52 1414.25C1189.18 1422.69 1194.48 1434.88 1194.43 1450.83C1194.38 1467.18 1188.07 1480.76 1175.49 1491.58C1163 1502.31 1145.34 1507.66 1122.51 1507.6C1099.2 1507.55 1080.89 1502.21 1067.56 1491.58C1054.24 1480.86 1047.61 1466.2 1047.66 1447.58L1083.36 1447.66Z" fill="white"/>
<path d="M582.22 1589.35L582.235 1584.35L601.205 1584.39L601.135 1607.52L597.341 1607.51L595.973 1601.91C593.01 1605.99 587.582 1608.63 581.681 1608.62C574.274 1608.6 570.669 1605.88 568.447 1603.71C561.842 1597.43 561.683 1590.03 561.697 1585.45C561.729 1574.91 568.148 1563.06 582.239 1563.09C590.308 1563.11 599.267 1567.71 600.503 1577.41L594.842 1577.39C592.998 1569.86 586.68 1568.28 581.922 1568.27C574.154 1568.25 567.752 1574.44 567.718 1585.76C567.692 1594.56 570.555 1603.59 582.057 1603.62C584.225 1603.63 587.718 1603.39 590.918 1600.87C594.72 1597.87 595.696 1594.02 595.71 1589.38L582.22 1589.35ZM642.721 1602.43L642.706 1607.61L610.789 1607.54L610.919 1564.3L642.414 1564.37L642.399 1569.55L616.745 1569.49L616.705 1582.74L640.371 1582.8L640.356 1587.97L616.69 1587.92L616.646 1602.37L642.721 1602.43ZM679.042 1599.38L679.147 1564.46L684.808 1564.47L684.678 1607.71L678.114 1607.69L656.239 1572.71L656.119 1572.71L656.014 1607.64L650.353 1607.63L650.483 1564.39L657.408 1564.41L678.922 1599.38L679.042 1599.38ZM726.346 1602.62L726.331 1607.8L694.414 1607.73L694.544 1564.49L726.039 1564.56L726.023 1569.74L700.37 1569.68L700.33 1582.93L723.996 1582.98L723.981 1588.16L700.315 1588.11L700.271 1602.56L726.346 1602.62ZM740.598 1589.28L740.542 1607.83L734.701 1607.82L734.831 1564.58L754.823 1564.63C761.929 1564.64 769.028 1567.13 769 1576.28C768.981 1582.66 765.722 1585 762.947 1586.62C765.413 1587.65 767.879 1588.74 768.102 1594.77L768.439 1602.59C768.492 1605 768.791 1605.91 770.594 1606.94L770.591 1607.9L763.425 1607.88C762.59 1605.23 762.429 1598.67 762.434 1597.04C762.445 1593.49 761.735 1589.33 754.749 1589.32L740.598 1589.28ZM740.657 1569.59L740.613 1584.29L754.162 1584.32C758.438 1584.33 762.957 1583.25 762.977 1576.87C762.997 1570.18 758.12 1569.63 755.23 1569.62L740.657 1569.59ZM801.623 1595.38L784.28 1595.34L779.725 1607.92L773.703 1607.91L790.093 1564.7L796.717 1564.72L812.244 1607.99L805.861 1607.98L801.623 1595.38ZM786.102 1590.17L799.531 1590.2L793.205 1571.16L793.084 1571.16L786.102 1590.17ZM823.574 1564.78L823.46 1602.84L845.38 1602.89L845.364 1608.07L817.603 1608L817.733 1564.77L823.574 1564.78ZM892.011 1595.59L874.668 1595.55L870.113 1608.12L864.091 1608.11L880.481 1564.91L887.105 1564.92L902.632 1608.2L896.248 1608.18L892.011 1595.59ZM876.49 1590.37L889.919 1590.4L883.593 1571.36L883.472 1571.36L876.49 1590.37ZM908.292 1608.21L908.422 1564.97L925.946 1565.01C937.207 1565.04 944.106 1573.6 944.069 1586.07C944.04 1595.76 939.787 1608.28 925.575 1608.25L908.292 1608.21ZM914.248 1569.98L914.148 1603.22L925.469 1603.25C933.057 1603.27 938.013 1597.32 938.046 1586.42C938.079 1575.52 933.097 1570.02 925.148 1570.01L914.248 1569.98ZM992.7 1608.4L987.04 1608.39L987.116 1582.85C987.12 1581.59 987.257 1576.11 987.269 1572.07L987.149 1572.07L974.875 1608.36L969.094 1608.35L957.039 1572.07L956.918 1572.07C956.906 1576.04 957.01 1581.52 957.007 1582.78L956.93 1608.32L951.269 1608.3L951.399 1565.07L959.77 1565.09L972.005 1601.67L972.125 1601.67L984.52 1565.14L992.83 1565.16L992.7 1608.4ZM1008.49 1565.2L1008.36 1608.43L1002.52 1608.42L1002.65 1565.18L1008.49 1565.2ZM1050.02 1577.94L1044.54 1577.92C1044.26 1571.24 1038.73 1569.12 1033.85 1569.11C1030.17 1569.1 1023.97 1570.11 1023.95 1576.67C1023.94 1580.35 1026.52 1581.56 1029.05 1582.16L1041.39 1585.02C1046.98 1586.36 1051.19 1589.74 1051.17 1596.61C1051.14 1606.84 1041.61 1609.65 1034.21 1609.64C1026.2 1609.62 1023.07 1607.2 1021.15 1605.45C1017.49 1602.13 1016.78 1598.52 1016.79 1594.48L1022.27 1594.49C1022.25 1602.32 1028.62 1604.62 1034.16 1604.64C1038.38 1604.65 1045.49 1603.58 1045.51 1597.38C1045.52 1592.86 1043.42 1591.41 1036.31 1589.71L1027.47 1587.64C1024.64 1586.97 1018.26 1584.97 1018.29 1577.44C1018.31 1570.7 1022.72 1564.08 1033.2 1564.11C1048.32 1564.14 1049.79 1573.18 1050.02 1577.94ZM1090.19 1578.03L1084.71 1578.01C1084.43 1571.33 1078.89 1569.21 1074.01 1569.2C1070.34 1569.19 1064.13 1570.2 1064.11 1576.76C1064.1 1580.44 1066.69 1581.65 1069.22 1582.25L1081.55 1585.11C1087.15 1586.45 1091.36 1589.83 1091.33 1596.7C1091.3 1606.93 1081.78 1609.74 1074.37 1609.73C1066.36 1609.71 1063.24 1607.29 1061.32 1605.54C1057.65 1602.22 1056.94 1598.61 1056.96 1594.57L1062.44 1594.58C1062.41 1602.41 1068.79 1604.72 1074.33 1604.73C1078.54 1604.74 1085.65 1603.67 1085.67 1597.47C1085.68 1592.95 1083.58 1591.5 1076.48 1589.8L1067.63 1587.73C1064.81 1587.06 1058.43 1585.06 1058.45 1577.53C1058.47 1570.79 1062.89 1564.17 1073.37 1564.2C1088.48 1564.23 1089.96 1573.27 1090.19 1578.03ZM1105.58 1565.41L1105.45 1608.65L1099.61 1608.64L1099.74 1565.4L1105.58 1565.41ZM1149.43 1587.13C1149.46 1576.95 1143.83 1569.53 1134.43 1569.51C1125.04 1569.49 1119.35 1576.89 1119.32 1587.06C1119.29 1597.24 1124.93 1604.66 1134.33 1604.68C1143.72 1604.7 1149.4 1597.31 1149.43 1587.13ZM1155.46 1587.15C1155.43 1596.48 1150.45 1609.9 1134.31 1609.86C1118.17 1609.82 1113.27 1596.38 1113.3 1587.05C1113.33 1577.72 1118.31 1564.3 1134.45 1564.33C1150.59 1564.37 1155.48 1577.81 1155.46 1587.15ZM1191.02 1600.53L1191.13 1565.61L1196.79 1565.62L1196.66 1608.86L1190.1 1608.84L1168.22 1573.87L1168.1 1573.87L1168 1608.79L1162.34 1608.78L1162.47 1565.54L1169.39 1565.56L1190.9 1600.53L1191.02 1600.53Z" fill="white"/>
<path d="M658.564 1929.61C660.667 1929.62 662.484 1929.99 664.015 1930.74C665.546 1931.49 666.813 1932.5 667.817 1933.77C668.82 1935.05 669.561 1936.54 670.037 1938.25C670.514 1939.96 670.749 1941.8 670.743 1943.77C670.734 1946.79 670.156 1949.66 669.009 1952.37C667.906 1955.04 666.388 1957.38 664.454 1959.39C662.521 1961.36 660.238 1962.93 657.606 1964.11C654.974 1965.24 652.125 1965.8 649.059 1965.8C648.665 1965.8 647.964 1965.77 646.956 1965.73C645.993 1965.72 644.876 1965.63 643.606 1965.46C642.336 1965.28 640.979 1965.01 639.535 1964.66C638.134 1964.31 636.799 1963.82 635.531 1963.2L647.042 1915.46L657.231 1913.91L653.107 1930.85C653.984 1930.46 654.861 1930.15 655.738 1929.94C656.614 1929.72 657.557 1929.61 658.564 1929.61ZM649.937 1957.72C651.471 1957.72 652.917 1957.35 654.278 1956.61C655.638 1955.87 656.802 1954.89 657.769 1953.66C658.78 1952.39 659.573 1950.97 660.147 1949.39C660.722 1947.82 661.011 1946.18 661.016 1944.47C661.023 1942.37 660.677 1940.72 659.98 1939.54C659.283 1938.35 657.992 1937.76 656.108 1937.76C655.495 1937.75 654.684 1937.86 653.676 1938.08C652.712 1938.3 651.834 1938.75 651.044 1939.45L646.653 1957.45C646.916 1957.49 647.134 1957.54 647.31 1957.58C647.528 1957.62 647.747 1957.67 647.966 1957.71C648.185 1957.71 648.448 1957.71 648.755 1957.71C649.061 1957.71 649.456 1957.72 649.937 1957.72ZM683.046 1964.95L673.321 1964.93L681.638 1930.39L691.429 1930.41L683.046 1964.95ZM687.893 1926.2C686.535 1926.19 685.31 1925.8 684.217 1925.01C683.125 1924.17 682.581 1922.92 682.586 1921.26C682.589 1920.34 682.766 1919.48 683.119 1918.69C683.516 1917.86 684.022 1917.16 684.637 1916.6C685.252 1915.98 685.954 1915.5 686.744 1915.15C687.577 1914.81 688.454 1914.63 689.374 1914.63C690.732 1914.64 691.957 1915.06 693.05 1915.89C694.142 1916.68 694.686 1917.91 694.681 1919.58C694.679 1920.49 694.479 1921.37 694.082 1922.2C693.729 1922.99 693.245 1923.69 692.63 1924.3C692.015 1924.87 691.291 1925.33 690.458 1925.68C689.668 1926.03 688.813 1926.2 687.893 1926.2ZM701.456 1921.82L711.646 1920.27L709.118 1930.45L720.026 1930.47L718.03 1938.49L707.188 1938.46L704.261 1950.55C703.995 1951.55 703.817 1952.49 703.727 1953.37C703.68 1954.25 703.787 1955.01 704.048 1955.67C704.353 1956.28 704.855 1956.77 705.555 1957.12C706.255 1957.47 707.218 1957.65 708.445 1957.65C709.496 1957.65 710.504 1957.57 711.468 1957.4C712.476 1957.18 713.485 1956.9 714.493 1956.55L715.194 1964.04C713.878 1964.52 712.453 1964.93 710.919 1965.28C709.385 1965.63 707.566 1965.8 705.463 1965.79C702.441 1965.79 700.099 1965.34 698.437 1964.46C696.775 1963.54 695.596 1962.31 694.899 1960.77C694.203 1959.2 693.902 1957.4 693.996 1955.38C694.089 1953.37 694.402 1951.25 694.935 1949.01L701.456 1921.82ZM720.316 1951.24C720.325 1948.26 720.815 1945.46 721.787 1942.83C722.758 1940.21 724.145 1937.91 725.947 1935.94C727.749 1933.97 729.922 1932.42 732.466 1931.29C735.054 1930.16 737.925 1929.59 741.079 1929.6C743.05 1929.61 744.802 1929.81 746.334 1930.2C747.91 1930.56 749.332 1931.04 750.601 1931.66L747.227 1939.27C746.352 1938.92 745.433 1938.61 744.47 1938.35C743.551 1938.04 742.412 1937.88 741.054 1937.88C737.769 1937.87 735.181 1938.98 733.291 1941.21C731.4 1943.4 730.45 1946.4 730.438 1950.21C730.431 1952.44 730.908 1954.26 731.867 1955.67C732.827 1957.03 734.599 1957.71 737.184 1957.72C738.454 1957.72 739.681 1957.59 740.864 1957.33C742.048 1957.07 743.1 1956.74 744.021 1956.35L744.721 1964.17C743.493 1964.65 742.133 1965.06 740.643 1965.41C739.196 1965.8 737.421 1966 735.319 1965.99C732.603 1965.99 730.304 1965.59 728.423 1964.79C726.542 1964 724.99 1962.95 723.767 1961.63C722.545 1960.27 721.651 1958.69 721.087 1956.89C720.567 1955.09 720.31 1953.21 720.316 1951.24ZM763.841 1966.06C761.52 1966.05 759.506 1965.7 757.799 1964.99C756.093 1964.29 754.672 1963.3 753.537 1962.02C752.446 1960.75 751.618 1959.26 751.054 1957.55C750.49 1955.8 750.211 1953.87 750.217 1951.77C750.225 1949.14 750.649 1946.51 751.489 1943.88C752.373 1941.26 753.651 1938.89 755.322 1936.8C756.992 1934.7 759.035 1932.99 761.448 1931.68C763.861 1930.33 766.623 1929.66 769.733 1929.67C772.011 1929.67 774.003 1930.03 775.71 1930.73C777.46 1931.44 778.88 1932.42 779.972 1933.7C781.107 1934.97 781.957 1936.48 782.521 1938.24C783.085 1939.95 783.364 1941.85 783.358 1943.96C783.35 1946.58 782.926 1949.21 782.086 1951.84C781.245 1954.46 780.012 1956.83 778.385 1958.93C776.757 1961.02 774.715 1962.75 772.258 1964.1C769.845 1965.41 767.039 1966.06 763.841 1966.06ZM768.788 1937.94C767.343 1937.94 766.071 1938.35 764.974 1939.18C763.876 1940.01 762.953 1941.06 762.204 1942.33C761.456 1943.6 760.882 1945 760.483 1946.53C760.128 1948.02 759.949 1949.44 759.945 1950.8C759.938 1953.04 760.283 1954.77 760.981 1956C761.678 1957.18 762.946 1957.77 764.786 1957.78C766.232 1957.78 767.503 1957.37 768.601 1956.54C769.699 1955.71 770.622 1954.66 771.37 1953.39C772.119 1952.12 772.671 1950.74 773.026 1949.25C773.424 1947.72 773.626 1946.28 773.63 1944.92C773.637 1942.68 773.291 1940.98 772.594 1939.79C771.897 1938.56 770.628 1937.95 768.788 1937.94ZM795.662 1965.21L785.937 1965.19L794.254 1930.64L804.045 1930.66L795.662 1965.21ZM800.509 1926.45C799.151 1926.45 797.926 1926.05 796.833 1925.26C795.74 1924.42 795.197 1923.17 795.202 1921.51C795.204 1920.59 795.382 1919.74 795.735 1918.95C796.132 1918.12 796.638 1917.42 797.253 1916.85C797.868 1916.24 798.57 1915.76 799.36 1915.41C800.193 1915.06 801.07 1914.89 801.989 1914.89C803.347 1914.89 804.573 1915.31 805.665 1916.14C806.758 1916.94 807.302 1918.16 807.297 1919.83C807.294 1920.75 807.095 1921.62 806.698 1922.46C806.345 1923.24 805.861 1923.94 805.246 1924.55C804.631 1925.12 803.907 1925.58 803.073 1925.93C802.284 1926.28 801.429 1926.45 800.509 1926.45ZM812.595 1932.26C813.341 1932.04 814.152 1931.8 815.029 1931.54C815.95 1931.24 816.958 1930.98 818.054 1930.76C819.194 1930.5 820.443 1930.31 821.801 1930.18C823.203 1930.01 824.781 1929.92 826.533 1929.92C831.702 1929.94 835.246 1931.43 837.164 1934.42C839.083 1937.4 839.399 1941.47 838.113 1946.64L833.589 1965.29L823.798 1965.27L828.19 1947.01C828.456 1945.87 828.656 1944.78 828.791 1943.73C828.97 1942.63 828.972 1941.69 828.8 1940.9C828.627 1940.07 828.213 1939.41 827.557 1938.93C826.945 1938.4 825.982 1938.14 824.668 1938.13C823.398 1938.13 822.105 1938.26 820.79 1938.52L814.336 1965.25L804.546 1965.23L812.595 1932.26ZM853.2 1919.8L863.451 1919.82L852.341 1965.33L842.156 1965.31L853.2 1919.8ZM870.347 1932.39C871.092 1932.17 871.904 1931.93 872.78 1931.67C873.701 1931.37 874.71 1931.11 875.805 1930.89C876.945 1930.63 878.194 1930.44 879.553 1930.31C880.955 1930.13 882.532 1930.05 884.284 1930.05C889.453 1930.07 892.997 1931.56 894.916 1934.55C896.834 1937.53 897.151 1941.6 895.865 1946.77L891.34 1965.42L881.55 1965.4L885.941 1947.14C886.208 1946 886.408 1944.91 886.543 1943.86C886.721 1942.76 886.724 1941.82 886.551 1941.03C886.378 1940.2 885.964 1939.54 885.309 1939.06C884.697 1938.53 883.734 1938.27 882.42 1938.26C881.149 1938.26 879.857 1938.39 878.542 1938.65L872.088 1965.38L862.297 1965.36L870.347 1932.39ZM913.835 1966.39C911.645 1966.39 909.762 1966.01 908.187 1965.26C906.656 1964.51 905.389 1963.5 904.385 1962.23C903.426 1960.92 902.707 1959.4 902.231 1957.69C901.798 1955.94 901.584 1954.08 901.59 1952.11C901.599 1949.13 902.133 1946.32 903.193 1943.7C904.296 1941.03 905.792 1938.71 907.682 1936.74C909.571 1934.78 911.81 1933.23 914.398 1932.09C916.986 1930.96 919.813 1930.4 922.88 1930.4C923.668 1930.41 924.391 1930.45 925.048 1930.54C925.748 1930.63 926.449 1930.76 927.149 1930.94L930.742 1916.1L940.932 1914.54L932.15 1950.6C931.529 1953.09 931.346 1955.61 931.601 1958.15C931.857 1960.65 932.354 1962.89 933.092 1964.86L924.349 1966.09C924.088 1965.56 923.849 1965.06 923.631 1964.57C923.414 1964.09 923.196 1963.54 922.979 1962.93C921.749 1963.94 920.367 1964.76 918.832 1965.42C917.34 1966.07 915.675 1966.4 913.835 1966.39ZM925.22 1938.75C924.957 1938.71 924.717 1938.67 924.498 1938.62C924.323 1938.58 924.126 1938.56 923.906 1938.55C923.731 1938.51 923.491 1938.49 923.184 1938.49C922.877 1938.49 922.483 1938.49 922.001 1938.48C920.468 1938.48 919.043 1938.85 917.727 1939.59C916.41 1940.29 915.269 1941.25 914.301 1942.48C913.378 1943.7 912.651 1945.1 912.12 1946.68C911.59 1948.21 911.322 1949.78 911.317 1951.41C911.311 1953.51 911.657 1955.17 912.354 1956.4C913.095 1957.59 914.407 1958.18 916.291 1958.18C917.298 1958.19 918.219 1957.99 919.052 1957.6C919.886 1957.21 920.764 1956.55 921.687 1955.63C921.778 1954.54 921.912 1953.4 922.091 1952.22C922.314 1950.99 922.536 1949.88 922.758 1948.87L925.22 1938.75ZM948.062 1965.55L938.337 1965.53L946.654 1930.98L956.445 1931.01L948.062 1965.55ZM952.909 1926.79C951.551 1926.79 950.326 1926.39 949.233 1925.6C948.14 1924.77 947.597 1923.52 947.602 1921.85C947.604 1920.93 947.782 1920.08 948.135 1919.29C948.532 1918.46 949.038 1917.76 949.653 1917.19C950.268 1916.58 950.97 1916.1 951.76 1915.75C952.593 1915.4 953.47 1915.23 954.39 1915.23C955.748 1915.23 956.973 1915.65 958.066 1916.49C959.158 1917.28 959.702 1918.51 959.697 1920.17C959.694 1921.09 959.495 1921.97 959.098 1922.8C958.745 1923.59 958.261 1924.29 957.646 1924.9C957.031 1925.47 956.307 1925.92 955.473 1926.27C954.684 1926.62 953.829 1926.79 952.909 1926.79ZM989.385 1950.73C988.764 1953.22 988.581 1955.74 988.836 1958.28C989.092 1960.78 989.589 1963.01 990.328 1964.99L981.585 1966.22C981.323 1965.69 981.084 1965.19 980.866 1964.7C980.649 1964.22 980.431 1963.67 980.214 1963.06C978.985 1964.06 977.624 1964.89 976.133 1965.55C974.641 1966.2 972.976 1966.53 971.136 1966.52C968.946 1966.52 967.063 1966.14 965.488 1965.39C963.958 1964.6 962.69 1963.57 961.687 1962.29C960.727 1960.98 960.03 1959.47 959.597 1957.76C959.165 1956 958.951 1954.14 958.957 1952.17C958.966 1949.15 959.501 1946.3 960.56 1943.63C961.663 1940.96 963.159 1938.64 965.049 1936.68C966.983 1934.67 969.243 1933.09 971.831 1931.96C974.419 1930.83 977.224 1930.26 980.247 1930.27C980.641 1930.27 981.32 1930.29 982.284 1930.34C983.291 1930.39 984.43 1930.5 985.7 1930.68C986.97 1930.81 988.305 1931.06 989.706 1931.41C991.106 1931.76 992.441 1932.25 993.71 1932.86L989.385 1950.73ZM982.587 1938.62C982.018 1938.53 981.493 1938.47 981.011 1938.42C980.573 1938.38 980.026 1938.35 979.369 1938.35C977.879 1938.35 976.476 1938.72 975.16 1939.46C973.887 1940.2 972.767 1941.18 971.8 1942.41C970.833 1943.59 970.062 1944.97 969.488 1946.54C968.957 1948.12 968.689 1949.76 968.684 1951.47C968.678 1953.57 969.023 1955.24 969.721 1956.46C970.418 1957.69 971.708 1958.31 973.592 1958.31C974.599 1958.32 975.498 1958.12 976.288 1957.73C977.121 1957.34 977.999 1956.68 978.922 1955.76C979.013 1954.67 979.148 1953.53 979.326 1952.35C979.549 1951.12 979.772 1950 979.994 1949L982.587 1938.62Z" fill="white"/>
<path d="M545.827 1930.44C552.016 1910.38 573.301 1899.13 593.36 1905.32C613.424 1911.51 624.67 1932.8 618.479 1952.87C612.287 1972.93 591.002 1984.18 570.937 1977.98C550.881 1971.79 539.635 1950.51 545.827 1930.44ZM579.87 1923.57C578.975 1923.32 578.096 1923.07 577.244 1922.8L577.25 1922.78L571.584 1921.03L570.23 1925.42C570.257 1925.43 573.282 1926.3 573.215 1926.34C574.879 1926.85 575.123 1927.99 575.022 1928.87L572.649 1936.56C572.764 1936.59 572.913 1936.65 573.075 1936.72L572.643 1936.59L569.315 1947.36C569.081 1947.86 568.515 1948.6 567.352 1948.25C567.387 1948.31 564.393 1947.33 564.365 1947.32L562.034 1951.98L567.383 1953.63C568.377 1953.94 569.352 1954.26 570.31 1954.56L568.204 1961.39L572.309 1962.66L574.395 1955.9C575.513 1956.27 576.601 1956.62 577.666 1956.95L575.589 1963.67L579.698 1964.94L581.803 1958.12C588.833 1959.86 594.206 1959.61 596.806 1953.31C598.902 1948.23 597.166 1945.15 593.535 1942.99C596.292 1942.51 598.442 1940.83 599.192 1937.17C600.225 1932.15 596.528 1929.23 591.367 1927.13L593.451 1920.37L589.341 1919.11L587.312 1925.68C586.233 1925.35 585.122 1925.03 584.019 1924.71L586.062 1918.09L581.954 1916.83L579.87 1923.57ZM578.814 1941.91C581.6 1942.77 590.577 1944.67 588.938 1949.99C587.364 1955.09 578.808 1951.82 576.021 1950.96L578.814 1941.91ZM582.623 1929.57C584.944 1930.29 592.459 1931.8 590.964 1936.64C589.53 1941.28 582.412 1938.49 580.091 1937.77L582.623 1929.57Z" fill="white"/>
</g>
<ellipse cx="638.809" cy="594.735" rx="67.6097" ry="65.7873" fill="black"/>
<path d="M553.348 567.42C567.524 521.461 616.275 495.699 662.22 509.88C708.175 524.062 733.933 572.823 719.752 618.78C705.571 664.734 656.817 690.49 610.858 676.308C564.922 662.128 539.164 613.372 553.348 567.42ZM631.323 551.687C629.273 551.1 627.26 550.52 625.309 549.919L625.322 549.871L612.343 545.86L609.243 555.913C609.243 555.913 616.234 557.926 616.079 558.018C619.891 559.196 620.451 561.792 620.22 563.813L614.785 581.427C615.048 581.51 615.388 581.626 615.76 581.799L614.768 581.495L607.147 606.169C606.61 607.318 605.314 609.013 602.649 608.196C602.736 608.339 595.809 606.082 595.809 606.082L590.471 616.748L602.721 620.527C604.999 621.233 607.229 621.964 609.424 622.658L604.602 638.299L614.003 641.203L618.78 625.73C621.342 626.58 623.834 627.371 626.273 628.122L621.517 643.522L630.928 646.425L635.748 630.816C651.85 634.791 664.157 634.222 670.112 619.791C674.915 608.169 670.937 601.094 662.621 596.163C668.935 595.063 673.861 591.22 675.58 582.817C677.946 571.339 669.477 564.632 657.657 559.819L662.428 544.357L653.014 541.453L648.368 556.507C645.897 555.744 643.353 555.013 640.825 554.288L645.503 539.133L636.097 536.23L631.323 551.687ZM628.904 593.693C635.284 595.663 655.846 600.002 652.092 612.191C648.488 623.878 628.89 616.377 622.508 614.412L628.904 593.693ZM637.628 565.416C642.944 567.056 660.156 570.517 656.732 581.607C653.448 592.238 637.144 585.848 631.828 584.208L637.628 565.416Z" fill="white"/>
<path d="M774.321 543.796C777.257 543.802 779.795 544.328 781.933 545.373C784.071 546.418 785.841 547.829 787.242 549.606C788.644 551.383 789.678 553.465 790.343 555.853C791.009 558.24 791.338 560.81 791.33 563.563C791.317 567.784 790.51 571.789 788.908 575.579C787.367 579.307 785.247 582.575 782.547 585.383C779.847 588.13 776.659 590.325 772.983 591.969C769.308 593.551 765.329 594.337 761.047 594.328C760.496 594.326 759.518 594.294 758.111 594.229C756.765 594.226 755.205 594.1 753.432 593.852C751.659 593.603 749.763 593.232 747.746 592.738C745.79 592.244 743.926 591.567 742.155 590.706L758.23 524.03L772.46 521.86L766.7 545.522C767.925 544.974 769.149 544.549 770.374 544.246C771.598 543.943 772.914 543.793 774.321 543.796ZM762.274 583.043C764.415 583.048 766.435 582.533 768.335 581.497C770.234 580.461 771.86 579.089 773.211 577.379C774.623 575.608 775.73 573.622 776.532 571.422C777.334 569.221 777.739 566.928 777.746 564.542C777.755 561.606 777.272 559.31 776.298 557.657C775.324 556.003 773.522 555.173 770.892 555.167C770.035 555.165 768.903 555.315 767.495 555.618C766.148 555.921 764.923 556.56 763.819 557.537L757.687 582.666C758.054 582.728 758.359 582.79 758.604 582.852C758.91 582.914 759.215 582.975 759.521 583.037C759.827 583.038 760.194 583.039 760.622 583.04C761.05 583.041 761.601 583.042 762.274 583.043ZM808.51 593.15L794.929 593.119L806.545 544.878L820.217 544.908L808.51 593.15ZM815.28 539.024C813.383 539.02 811.672 538.466 810.146 537.361C808.62 536.195 807.861 534.45 807.868 532.126C807.872 530.841 808.12 529.648 808.613 528.548C809.167 527.387 809.873 526.41 810.732 525.617C811.591 524.762 812.572 524.092 813.674 523.605C814.838 523.118 816.063 522.876 817.347 522.879C819.244 522.883 820.955 523.468 822.481 524.634C824.007 525.738 824.766 527.453 824.759 529.778C824.755 531.062 824.476 532.285 823.922 533.446C823.43 534.546 822.754 535.524 821.895 536.378C821.036 537.172 820.025 537.812 818.861 538.298C817.758 538.785 816.565 539.027 815.28 539.024ZM834.22 532.919L848.45 530.749L844.92 544.964L860.153 544.998L857.366 556.187L842.225 556.153L838.137 573.028C837.766 574.434 837.517 575.749 837.391 576.972C837.326 578.196 837.476 579.267 837.84 580.185C838.266 581.043 838.967 581.717 839.945 582.209C840.922 582.7 842.267 582.948 843.98 582.952C845.448 582.955 846.856 582.836 848.202 582.594C849.61 582.292 851.019 581.897 852.427 581.411L853.405 591.874C851.568 592.543 849.578 593.12 847.435 593.604C845.293 594.089 842.753 594.328 839.817 594.321C835.596 594.312 832.325 593.693 830.004 592.464C827.683 591.174 826.036 589.457 825.064 587.314C824.092 585.109 823.671 582.6 823.802 579.787C823.933 576.973 824.37 574.007 825.113 570.888L834.22 532.919ZM860.558 573.996C860.571 569.836 861.255 565.923 862.612 562.255C863.969 558.588 865.906 555.38 868.422 552.633C870.939 549.886 873.974 547.721 877.526 546.138C881.141 544.556 885.15 543.77 889.555 543.78C892.307 543.786 894.754 544.067 896.893 544.622C899.094 545.116 901.08 545.794 902.852 546.654L898.14 557.288C896.918 556.796 895.634 556.365 894.29 555.995C893.006 555.564 891.416 555.346 889.52 555.342C884.932 555.331 881.318 556.883 878.678 559.997C876.038 563.05 874.71 567.238 874.694 572.56C874.685 575.68 875.35 578.22 876.69 580.181C878.03 582.08 880.505 583.034 884.114 583.042C885.888 583.046 887.602 582.866 889.255 582.503C890.907 582.14 892.377 581.684 893.663 581.137L894.64 592.059C892.925 592.728 891.027 593.305 888.945 593.789C886.925 594.335 884.447 594.605 881.51 594.598C877.717 594.59 874.507 594.032 871.88 592.925C869.253 591.818 867.085 590.345 865.378 588.506C863.671 586.605 862.423 584.4 861.636 581.89C860.909 579.381 860.55 576.749 860.558 573.996ZM921.342 594.688C918.1 594.681 915.288 594.185 912.905 593.201C910.522 592.217 908.538 590.836 906.952 589.058C905.428 587.281 904.272 585.198 903.484 582.81C902.696 580.362 902.307 577.669 902.316 574.733C902.327 571.062 902.919 567.393 904.092 563.725C905.327 560.057 907.111 556.758 909.444 553.827C911.778 550.895 914.63 548.516 918 546.688C921.37 544.799 925.227 543.86 929.57 543.87C932.752 543.877 935.534 544.372 937.916 545.357C940.36 546.341 942.345 547.722 943.869 549.499C945.454 551.277 946.64 553.39 947.428 555.839C948.216 558.227 948.606 560.889 948.597 563.825C948.586 567.496 947.994 571.165 946.821 574.833C945.647 578.501 943.924 581.8 941.652 584.731C939.38 587.663 936.528 590.073 933.096 591.961C929.726 593.789 925.808 594.698 921.342 594.688ZM928.251 555.429C926.232 555.424 924.456 556.001 922.923 557.16C921.391 558.319 920.101 559.785 919.056 561.556C918.011 563.328 917.21 565.284 916.653 567.424C916.157 569.503 915.906 571.49 915.901 573.387C915.891 576.507 916.373 578.924 917.347 580.639C918.321 582.293 920.092 583.123 922.662 583.129C924.681 583.133 926.456 582.556 927.989 581.397C929.522 580.238 930.811 578.773 931.857 577.001C932.902 575.23 933.672 573.304 934.168 571.225C934.725 569.085 935.006 567.067 935.012 565.171C935.022 562.051 934.539 559.664 933.565 558.01C932.592 556.295 930.82 555.435 928.251 555.429ZM965.78 593.503L952.199 593.473L963.814 545.231L977.487 545.262L965.78 593.503ZM972.549 539.378C970.653 539.374 968.942 538.819 967.416 537.715C965.89 536.549 965.13 534.804 965.137 532.479C965.141 531.194 965.389 530.002 965.882 528.902C966.436 527.741 967.143 526.764 968.001 525.97C968.86 525.116 969.841 524.445 970.944 523.958C972.108 523.471 973.332 523.229 974.617 523.232C976.513 523.237 978.224 523.822 979.75 524.987C981.276 526.092 982.036 527.807 982.029 530.131C982.025 531.416 981.746 532.639 981.192 533.8C980.699 534.9 980.023 535.877 979.164 536.732C978.305 537.525 977.294 538.165 976.13 538.652C975.028 539.139 973.834 539.381 972.549 539.378ZM989.428 547.491C990.469 547.188 991.602 546.854 992.826 546.489C994.112 546.064 995.52 545.7 997.051 545.398C998.642 545.034 1000.39 544.763 1002.28 544.584C1004.24 544.343 1006.44 544.226 1008.89 544.231C1016.11 544.248 1021.06 546.339 1023.74 550.505C1026.42 554.671 1026.86 560.361 1025.06 567.576L1018.75 593.622L1005.07 593.592L1011.21 568.095C1011.58 566.505 1011.86 564.977 1012.05 563.509C1012.29 561.98 1012.3 560.665 1012.06 559.563C1011.82 558.4 1011.24 557.481 1010.32 556.806C1009.47 556.07 1008.12 555.7 1006.29 555.696C1004.51 555.692 1002.71 555.871 1000.87 556.234L991.859 593.562L978.186 593.531L989.428 547.491ZM1046.13 530.092L1060.45 530.124L1044.93 593.681L1030.71 593.649L1046.13 530.092ZM1070.08 547.673C1071.12 547.369 1072.25 547.035 1073.48 546.671C1074.76 546.245 1076.17 545.882 1077.7 545.579C1079.29 545.216 1081.04 544.944 1082.93 544.765C1084.89 544.525 1087.1 544.407 1089.54 544.413C1096.76 544.429 1101.71 546.52 1104.39 550.686C1107.07 554.852 1107.51 560.542 1105.71 567.757L1099.4 593.804L1085.72 593.773L1091.86 568.276C1092.23 566.687 1092.51 565.158 1092.7 563.69C1092.95 562.161 1092.95 560.846 1092.71 559.744C1092.47 558.582 1091.89 557.663 1090.97 556.988C1090.12 556.252 1088.77 555.881 1086.94 555.877C1085.16 555.873 1083.36 556.053 1081.52 556.416L1072.51 593.743L1058.84 593.712L1070.08 547.673ZM1130.81 595.159C1127.75 595.152 1125.12 594.626 1122.92 593.581C1120.79 592.536 1119.02 591.125 1117.61 589.348C1116.27 587.51 1115.27 585.397 1114.6 583.01C1114 580.561 1113.7 577.961 1113.71 575.208C1113.72 571.048 1114.47 567.134 1115.95 563.467C1117.49 559.739 1119.58 556.501 1122.22 553.754C1124.86 551.007 1127.98 548.843 1131.6 547.26C1135.21 545.678 1139.16 544.891 1143.44 544.901C1144.54 544.904 1145.55 544.967 1146.47 545.091C1147.45 545.216 1148.43 545.402 1149.4 545.649L1154.42 524.921L1168.65 522.751L1156.39 573.101C1155.52 576.587 1155.26 580.104 1155.62 583.653C1155.98 587.14 1156.67 590.262 1157.7 593.017L1145.49 594.733C1145.13 593.998 1144.79 593.294 1144.49 592.62C1144.19 591.947 1143.88 591.181 1143.58 590.324C1141.86 591.727 1139.93 592.885 1137.79 593.798C1135.71 594.711 1133.38 595.165 1130.81 595.159ZM1146.71 556.562C1146.34 556.5 1146.01 556.438 1145.7 556.377C1145.46 556.315 1145.18 556.284 1144.88 556.283C1144.63 556.221 1144.29 556.19 1143.87 556.189C1143.44 556.188 1142.89 556.187 1142.21 556.185C1140.07 556.18 1138.08 556.696 1136.25 557.732C1134.41 558.706 1132.81 560.049 1131.46 561.759C1130.17 563.469 1129.16 565.424 1128.42 567.625C1127.68 569.764 1127.3 571.966 1127.29 574.229C1127.29 577.165 1127.77 579.491 1128.74 581.206C1129.78 582.86 1131.61 583.69 1134.24 583.696C1135.65 583.699 1136.93 583.427 1138.1 582.879C1139.26 582.331 1140.49 581.416 1141.78 580.134C1141.9 578.605 1142.09 577.015 1142.34 575.364C1142.65 573.652 1142.96 572.092 1143.27 570.686L1146.71 556.562ZM1178.61 593.982L1165.03 593.951L1176.64 545.71L1190.32 545.741L1178.61 593.982ZM1185.38 539.857C1183.48 539.852 1181.77 539.298 1180.24 538.193C1178.72 537.028 1177.96 535.282 1177.97 532.958C1177.97 531.673 1178.22 530.481 1178.71 529.381C1179.27 528.219 1179.97 527.242 1180.83 526.449C1181.69 525.594 1182.67 524.924 1183.77 524.437C1184.94 523.95 1186.16 523.708 1187.45 523.711C1189.34 523.715 1191.05 524.3 1192.58 525.466C1194.11 526.571 1194.86 528.285 1194.86 530.61C1194.85 531.894 1194.57 533.117 1194.02 534.278C1193.53 535.378 1192.85 536.356 1191.99 537.21C1191.13 538.004 1190.12 538.644 1188.96 539.131C1187.86 539.617 1186.66 539.859 1185.38 539.857ZM1236.32 573.281C1235.45 576.766 1235.19 580.283 1235.55 583.832C1235.91 587.32 1236.6 590.442 1237.63 593.197L1225.42 594.913C1225.06 594.178 1224.72 593.474 1224.42 592.8C1224.12 592.126 1223.81 591.361 1223.51 590.504C1221.79 591.907 1219.89 593.065 1217.81 593.978C1215.73 594.891 1213.4 595.345 1210.83 595.339C1207.77 595.332 1205.14 594.806 1202.95 593.761C1200.81 592.655 1199.04 591.214 1197.64 589.436C1196.3 587.598 1195.32 585.485 1194.72 583.098C1194.11 580.65 1193.82 578.049 1193.82 575.296C1193.84 571.075 1194.58 567.1 1196.06 563.372C1197.6 559.644 1199.69 556.406 1202.33 553.659C1205.03 550.851 1208.19 548.656 1211.8 547.074C1215.42 545.491 1219.33 544.705 1223.56 544.714C1224.11 544.715 1225.05 544.748 1226.4 544.812C1227.81 544.877 1229.4 545.033 1231.17 545.282C1232.94 545.469 1234.81 545.81 1236.77 546.304C1238.72 546.798 1240.59 547.475 1242.36 548.335L1236.32 573.281ZM1226.82 556.375C1226.03 556.251 1225.3 556.158 1224.62 556.095C1224.01 556.033 1223.25 556 1222.33 555.998C1220.25 555.994 1218.29 556.509 1216.45 557.545C1214.67 558.581 1213.11 559.954 1211.76 561.664C1210.41 563.313 1209.33 565.237 1208.53 567.438C1207.79 569.638 1207.42 571.932 1207.41 574.317C1207.4 577.254 1207.88 579.58 1208.86 581.295C1209.83 583.01 1211.63 583.87 1214.26 583.876C1215.67 583.879 1216.92 583.607 1218.03 583.059C1219.19 582.511 1220.42 581.596 1221.71 580.314C1221.83 578.785 1222.02 577.195 1222.27 575.544C1222.58 573.831 1222.89 572.272 1223.2 570.866L1226.82 556.375Z" fill="white"/>
<path d="M750.805 649.578C753.689 649.585 755.892 650.155 757.411 651.289C758.954 652.424 759.723 654.041 759.716 656.141C759.711 657.803 759.384 659.221 758.734 660.397C758.108 661.549 757.228 662.494 756.095 663.23C754.985 663.966 753.644 664.505 752.074 664.848C750.527 665.167 748.819 665.325 746.949 665.321L745.08 665.317L743.012 673.793L738.65 673.783L744.364 650.152C745.472 649.924 746.581 649.776 747.689 649.71C748.797 649.62 749.835 649.576 750.805 649.578ZM750.378 653.247C749.94 653.246 749.524 653.256 749.132 653.279C748.739 653.301 748.347 653.335 747.954 653.38L745.956 661.649L747.722 661.653C748.691 661.655 749.626 661.576 750.527 661.417C751.427 661.257 752.224 660.994 752.918 660.626C753.611 660.235 754.167 659.717 754.584 659.072C755.001 658.404 755.212 657.562 755.215 656.546C755.218 655.369 754.782 654.526 753.907 654.016C753.054 653.507 751.878 653.25 750.378 653.247ZM772.877 659.459C772.416 659.297 771.92 659.169 771.39 659.075C770.859 658.982 770.236 658.934 769.521 658.933C769.129 658.932 768.713 658.965 768.274 659.034C767.836 659.079 767.466 659.147 767.166 659.239L763.626 673.84L759.437 673.83L763.643 656.565C764.613 656.244 765.664 655.97 766.796 655.742C767.927 655.49 769.151 655.366 770.466 655.369C770.743 655.37 771.055 655.393 771.401 655.44C771.747 655.464 772.081 655.5 772.404 655.546C772.75 655.593 773.062 655.652 773.339 655.722C773.638 655.792 773.892 655.873 774.099 655.966L772.877 659.459ZM774.114 667.32C774.119 665.774 774.366 664.286 774.855 662.856C775.367 661.404 776.086 660.124 777.012 659.019C777.962 657.89 779.096 656.992 780.413 656.326C781.731 655.66 783.209 655.328 784.847 655.332C786.601 655.336 787.961 655.789 788.928 656.691C789.895 657.594 790.376 658.749 790.371 660.156C790.367 661.61 790.006 662.787 789.288 663.685C788.57 664.583 787.633 665.285 786.477 665.79C785.345 666.296 784.052 666.639 782.597 666.82C781.166 667.002 779.711 667.114 778.234 667.157C778.211 667.203 778.199 667.249 778.199 667.295L778.198 667.641C778.192 669.741 779.516 670.794 782.17 670.8C783.739 670.804 785.309 670.484 786.881 669.842L787.217 673.235C786.662 673.487 785.876 673.74 784.86 673.991C783.844 674.243 782.69 674.367 781.397 674.364C780.105 674.361 778.998 674.174 778.076 673.803C777.154 673.431 776.394 672.922 775.796 672.275C775.221 671.627 774.796 670.888 774.521 670.056C774.247 669.202 774.111 668.29 774.114 667.32ZM784.214 658.758C783.521 658.756 782.863 658.893 782.239 659.169C781.615 659.444 781.06 659.824 780.574 660.307C780.088 660.791 779.659 661.367 779.288 662.035C778.94 662.681 778.684 663.384 778.52 664.145C781.29 664.059 783.299 663.729 784.547 663.155C785.818 662.581 786.455 661.717 786.458 660.563C786.46 660.101 786.288 659.686 785.943 659.316C785.621 658.946 785.045 658.76 784.214 658.758ZM796.62 670.971C797.728 670.974 798.605 670.803 799.252 670.458C799.9 670.09 800.225 669.537 800.227 668.798C800.229 668.198 800.022 667.725 799.608 667.378C799.194 667.008 798.468 666.579 797.431 666.092C796.878 665.837 796.359 665.57 795.875 665.292C795.415 665.014 795.012 664.69 794.667 664.32C794.322 663.95 794.046 663.523 793.84 663.038C793.634 662.529 793.532 661.929 793.534 661.237C793.539 659.437 794.201 658.007 795.52 656.949C796.838 655.89 798.744 655.363 801.236 655.369C802.39 655.372 803.417 655.501 804.316 655.757C805.239 655.99 805.93 656.233 806.391 656.488L804.893 659.739C804.501 659.507 803.936 659.287 803.198 659.078C802.461 658.845 801.688 658.728 800.88 658.726C800.488 658.725 800.095 658.759 799.703 658.827C799.333 658.896 798.998 659.01 798.698 659.171C798.397 659.332 798.143 659.562 797.934 659.862C797.749 660.138 797.655 660.484 797.654 660.9C797.653 661.431 797.859 661.87 798.273 662.217C798.711 662.541 799.333 662.888 800.14 663.259C800.9 663.607 801.545 663.943 802.075 664.268C802.605 664.592 803.042 664.962 803.387 665.378C803.732 665.771 803.985 666.222 804.145 666.73C804.305 667.215 804.384 667.804 804.382 668.496C804.379 669.35 804.204 670.146 803.855 670.884C803.507 671.598 802.997 672.22 802.327 672.75C801.679 673.256 800.87 673.658 799.9 673.956C798.929 674.254 797.821 674.401 796.575 674.398C795.721 674.396 794.948 674.337 794.256 674.22C793.587 674.103 792.999 673.975 792.492 673.835C791.985 673.673 791.558 673.51 791.212 673.348C790.867 673.185 790.602 673.046 790.417 672.93L791.916 669.645C792.077 669.738 792.308 669.865 792.607 670.028C792.93 670.167 793.287 670.306 793.679 670.445C794.094 670.585 794.544 670.713 795.028 670.829C795.535 670.923 796.066 670.97 796.62 670.971ZM807.413 667.395C807.418 665.849 807.665 664.361 808.154 662.931C808.666 661.478 809.385 660.199 810.312 659.093C811.261 657.965 812.395 657.067 813.712 656.401C815.03 655.735 816.508 655.403 818.146 655.407C819.9 655.411 821.261 655.864 822.227 656.766C823.194 657.669 823.675 658.824 823.671 660.231C823.666 661.685 823.305 662.861 822.587 663.76C821.869 664.658 820.932 665.36 819.777 665.865C818.644 666.37 817.351 666.714 815.896 666.895C814.465 667.076 813.011 667.189 811.533 667.231C811.51 667.278 811.498 667.324 811.498 667.37L811.497 667.716C811.491 669.816 812.815 670.869 815.469 670.875C817.038 670.879 818.608 670.559 820.18 669.916L820.516 673.31C819.961 673.562 819.176 673.814 818.159 674.066C817.143 674.318 815.989 674.442 814.697 674.439C813.404 674.436 812.297 674.249 811.375 673.878C810.453 673.506 809.693 672.997 809.095 672.349C808.52 671.702 808.095 670.962 807.821 670.131C807.546 669.276 807.41 668.365 807.413 667.395ZM817.513 658.833C816.821 658.831 816.162 658.968 815.538 659.244C814.914 659.519 814.359 659.899 813.873 660.382C813.387 660.866 812.959 661.442 812.587 662.11C812.239 662.756 811.983 663.459 811.819 664.22C814.589 664.134 816.598 663.804 817.846 663.23C819.117 662.656 819.754 661.792 819.758 660.638C819.759 660.176 819.587 659.761 819.242 659.391C818.92 659.021 818.344 658.835 817.513 658.833ZM828.889 656.643C829.813 656.368 830.864 656.116 832.042 655.888C833.243 655.637 834.547 655.513 835.955 655.516C838.078 655.521 839.634 656.044 840.623 657.085C841.613 658.125 842.105 659.523 842.099 661.277C842.098 661.761 842.05 662.28 841.956 662.834C841.885 663.365 841.791 663.918 841.674 664.495L839.361 674.01L835.172 674L837.346 664.935C837.463 664.428 837.58 663.909 837.697 663.378C837.814 662.848 837.884 662.34 837.909 661.856C837.934 661.048 837.74 660.378 837.326 659.847C836.936 659.315 836.152 659.048 834.975 659.045C833.982 659.043 833.128 659.145 832.412 659.351L828.872 673.986L824.683 673.977L828.889 656.643ZM849.278 651.15L853.641 650.467L852.31 655.934L858.229 655.947L857.388 659.407L851.468 659.394L849.716 666.556C849.599 667.063 849.517 667.49 849.47 667.836C849.423 668.159 849.399 668.459 849.398 668.736C849.397 669.013 849.419 669.29 849.465 669.567C849.533 669.821 849.648 670.052 849.809 670.26C849.993 670.445 850.246 670.607 850.569 670.746C850.915 670.863 851.376 670.921 851.953 670.923C852.576 670.924 853.176 670.845 853.754 670.684C854.331 670.524 854.839 670.352 855.278 670.168L855.58 673.527C855.048 673.757 854.379 673.974 853.57 674.18C852.762 674.386 851.815 674.488 850.731 674.485C848.746 674.481 847.328 674.051 846.476 673.195C845.625 672.316 845.202 671.127 845.206 669.627C845.208 669.073 845.244 668.507 845.315 667.93C845.409 667.331 845.538 666.696 845.702 666.027L849.278 651.15ZM858.934 667.511C858.939 665.965 859.186 664.477 859.674 663.047C860.187 661.594 860.906 660.315 861.832 659.209C862.782 658.081 863.915 657.183 865.233 656.517C866.55 655.85 868.028 655.519 869.667 655.523C871.421 655.527 872.781 655.98 873.748 656.882C874.714 657.784 875.196 658.939 875.191 660.347C875.187 661.801 874.826 662.977 874.108 663.876C873.389 664.774 872.453 665.476 871.297 665.981C870.165 666.486 868.871 666.83 867.417 667.011C865.986 667.192 864.531 667.304 863.054 667.347C863.031 667.393 863.019 667.44 863.019 667.486L863.018 667.832C863.012 669.932 864.336 670.985 866.99 670.991C868.559 670.995 870.129 670.675 871.7 670.032L872.036 673.426C871.482 673.678 870.696 673.93 869.68 674.182C868.664 674.433 867.51 674.558 866.217 674.555C864.925 674.552 863.818 674.365 862.896 673.994C861.974 673.622 861.214 673.113 860.615 672.465C860.04 671.818 859.616 671.078 859.341 670.247C859.067 669.392 858.931 668.48 858.934 667.511ZM869.034 658.949C868.341 658.947 867.683 659.084 867.059 659.36C866.435 659.635 865.88 660.015 865.394 660.498C864.908 660.982 864.479 661.558 864.108 662.226C863.76 662.872 863.504 663.575 863.34 664.336C866.11 664.25 868.119 663.92 869.367 663.346C870.638 662.772 871.275 661.908 871.278 660.754C871.28 660.292 871.108 659.876 870.763 659.506C870.441 659.136 869.864 658.95 869.034 658.949ZM883.126 674.593C882.041 674.59 881.107 674.415 880.323 674.067C879.54 673.696 878.895 673.199 878.389 672.574C877.906 671.95 877.551 671.211 877.323 670.356C877.095 669.502 876.982 668.579 876.985 667.586C876.99 666.04 877.259 664.552 877.795 663.122C878.353 661.67 879.13 660.402 880.125 659.32C881.144 658.214 882.381 657.34 883.837 656.697C885.293 656.031 886.944 655.7 888.791 655.704C889.021 655.705 889.298 655.717 889.621 655.741C889.944 655.765 890.302 655.823 890.694 655.916L892.622 647.959L896.986 647.276L892.184 666.893C892.067 667.424 891.973 667.966 891.902 668.52C891.855 669.051 891.83 669.558 891.829 670.043C891.827 670.666 891.882 671.289 891.996 671.913C892.11 672.536 892.292 673.183 892.544 673.852L888.804 674.398C888.551 673.913 888.334 673.324 888.151 672.631C887.573 673.137 886.868 673.597 886.035 674.011C885.203 674.401 884.234 674.595 883.126 674.593ZM889.853 659.307C889.415 659.214 888.884 659.166 888.261 659.165C887.199 659.163 886.229 659.391 885.351 659.851C884.473 660.287 883.721 660.886 883.095 661.646C882.47 662.383 881.983 663.236 881.634 664.204C881.308 665.173 881.143 666.176 881.14 667.215C881.139 667.746 881.183 668.242 881.274 668.704C881.388 669.166 881.56 669.57 881.79 669.916C882.019 670.263 882.319 670.541 882.687 670.749C883.079 670.958 883.552 671.063 884.106 671.064C884.844 671.066 885.491 670.917 886.046 670.618C886.623 670.32 887.167 669.905 887.676 669.376C887.701 668.891 887.749 668.384 887.819 667.853C887.913 667.322 888.019 666.803 888.136 666.296L889.853 659.307ZM916.124 655.662C917.186 655.664 918.097 655.851 918.857 656.222C919.641 656.57 920.286 657.056 920.791 657.68C921.297 658.305 921.676 659.044 921.927 659.898C922.178 660.73 922.303 661.63 922.3 662.599C922.295 664.192 922.013 665.714 921.455 667.167C920.897 668.62 920.097 669.899 919.055 671.004C918.036 672.11 916.787 672.995 915.308 673.661C913.829 674.304 912.167 674.624 910.32 674.619C910.044 674.619 909.674 674.606 909.213 674.582C908.751 674.558 908.244 674.499 907.69 674.406C907.137 674.312 906.572 674.184 905.995 674.021C905.419 673.858 904.888 673.649 904.404 673.394L910.539 647.999L914.903 647.316L912.659 656.589C913.168 656.336 913.711 656.118 914.288 655.935C914.866 655.751 915.478 655.66 916.124 655.662ZM910.885 671.09C911.947 671.092 912.917 670.875 913.795 670.438C914.696 669.979 915.46 669.369 916.085 668.609C916.734 667.849 917.232 666.984 917.581 666.016C917.931 665.024 918.107 663.998 918.11 662.936C918.112 662.405 918.067 661.921 917.976 661.482C917.885 661.02 917.725 660.627 917.495 660.304C917.265 659.957 916.954 659.691 916.563 659.505C916.171 659.297 915.675 659.192 915.075 659.191C914.567 659.189 914.013 659.281 913.412 659.464C912.812 659.647 912.257 659.934 911.748 660.325L909.189 670.913C909.397 670.959 909.627 671.006 909.881 671.053C910.158 671.077 910.493 671.089 910.885 671.09ZM941.377 656.134C940.912 657.449 940.4 658.821 939.842 660.25C939.283 661.657 938.656 663.075 937.959 664.504C937.286 665.933 936.555 667.363 935.766 668.792C934.977 670.198 934.13 671.569 933.226 672.905C932.554 673.919 931.859 674.887 931.14 675.809C930.422 676.753 929.635 677.582 928.779 678.296C927.946 679.009 927.021 679.584 926.004 680.02C924.987 680.457 923.833 680.673 922.54 680.67C921.825 680.669 921.191 680.587 920.637 680.424C920.061 680.261 919.577 680.075 919.185 679.867L920.545 676.512C920.868 676.697 921.225 676.848 921.617 676.964C922.032 677.081 922.482 677.139 922.967 677.14C924.051 677.143 924.998 676.856 925.808 676.281C926.64 675.729 927.393 674.969 928.065 674.002C927.334 671.438 926.719 668.656 926.221 665.655C925.722 662.653 925.397 659.468 925.245 656.098L929.469 656.107C929.489 657.077 929.532 658.15 929.597 659.327C929.686 660.504 929.786 661.716 929.898 662.963C930.033 664.186 930.191 665.398 930.372 666.599C930.553 667.799 930.757 668.907 930.985 669.923C931.681 668.817 932.33 667.653 932.934 666.431C933.538 665.209 934.095 663.999 934.607 662.8C935.118 661.578 935.56 660.402 935.933 659.272C936.328 658.119 936.666 657.07 936.946 656.124L941.377 656.134Z" fill="white"/>
<path d="M966.928 678.3C965.06 678.296 963.146 678.213 961.185 678.053C959.224 677.893 957.45 677.64 955.863 677.294L963.429 646.02C965.205 645.681 967.058 645.452 968.989 645.332C970.951 645.212 972.741 645.153 974.36 645.157C976.229 645.161 977.831 645.367 979.169 645.775C980.538 646.152 981.642 646.668 982.48 647.324C983.35 647.98 983.986 648.759 984.388 649.663C984.821 650.536 985.037 651.47 985.034 652.467C985.032 653.152 984.952 653.868 984.794 654.615C984.667 655.362 984.384 656.108 983.946 656.854C983.539 657.57 982.961 658.253 982.212 658.906C981.494 659.558 980.543 660.147 979.358 660.674C980.757 661.3 981.782 662.158 982.433 663.249C983.083 664.31 983.407 665.493 983.403 666.801C983.398 668.296 983.098 669.743 982.502 671.142C981.906 672.511 980.953 673.739 979.642 674.826C978.331 675.881 976.632 676.734 974.544 677.383C972.456 678.001 969.917 678.307 966.928 678.3ZM966.318 663.727L964.285 672.129C964.783 672.224 965.405 672.303 966.152 672.367C966.931 672.4 967.647 672.417 968.3 672.418C969.235 672.42 970.153 672.36 971.057 672.238C971.991 672.084 972.817 671.821 973.534 671.449C974.283 671.077 974.891 670.565 975.36 669.912C975.829 669.259 976.065 668.419 976.068 667.392C976.07 666.956 975.978 666.52 975.792 666.083C975.638 665.647 975.374 665.257 975.002 664.914C974.629 664.571 974.132 664.289 973.51 664.07C972.919 663.851 972.203 663.74 971.362 663.738L966.318 663.727ZM967.689 658.266L972.266 658.276C974.134 658.28 975.521 657.879 976.426 657.071C977.363 656.264 977.833 655.3 977.836 654.179C977.838 653.587 977.699 653.089 977.42 652.683C977.173 652.247 976.831 651.904 976.396 651.653C975.961 651.403 975.463 651.231 974.903 651.136C974.343 651.011 973.767 650.947 973.176 650.946C972.522 650.944 971.821 650.974 971.074 651.034C970.326 651.064 969.766 651.109 969.392 651.171L967.689 658.266ZM993.28 677.939L986.368 677.923L992.279 653.37L999.238 653.386L993.28 677.939ZM996.725 650.391C995.76 650.389 994.889 650.107 994.112 649.545C993.336 648.952 992.949 648.063 992.953 646.88C992.955 646.226 993.081 645.62 993.332 645.06C993.614 644.469 993.973 643.971 994.411 643.568C994.848 643.133 995.347 642.791 995.908 642.543C996.5 642.296 997.124 642.173 997.777 642.174C998.743 642.176 999.614 642.474 1000.39 643.067C1001.17 643.629 1001.55 644.502 1001.55 645.685C1001.55 646.339 1001.41 646.961 1001.12 647.552C1000.87 648.112 1000.53 648.61 1000.09 649.045C999.655 649.448 999.14 649.774 998.548 650.022C997.987 650.27 997.379 650.393 996.725 650.391ZM1006.36 647.284L1013.61 646.179L1011.81 653.414L1019.56 653.432L1018.15 659.126L1010.44 659.109L1008.36 667.698C1008.17 668.414 1008.04 669.083 1007.98 669.705C1007.95 670.328 1008.02 670.873 1008.21 671.34C1008.42 671.777 1008.78 672.12 1009.28 672.37C1009.78 672.62 1010.46 672.747 1011.33 672.749C1012.08 672.75 1012.8 672.69 1013.48 672.567C1014.2 672.412 1014.91 672.212 1015.63 671.964L1016.13 677.29C1015.19 677.63 1014.18 677.923 1013.09 678.17C1012 678.417 1010.71 678.538 1009.21 678.535C1007.06 678.53 1005.4 678.215 1004.22 677.59C1003.04 676.933 1002.2 676.059 1001.7 674.969C1001.21 673.847 1001 672.57 1001.06 671.138C1001.13 669.705 1001.35 668.196 1001.73 666.609L1006.36 647.284ZM1019.77 668.191C1019.78 666.073 1020.12 664.081 1020.82 662.215C1021.51 660.348 1022.49 658.716 1023.77 657.318C1025.05 655.919 1026.6 654.818 1028.41 654.012C1030.25 653.207 1032.29 652.807 1034.53 652.812C1035.93 652.815 1037.17 652.958 1038.26 653.24C1039.38 653.492 1040.39 653.837 1041.3 654.275L1038.9 659.687C1038.28 659.436 1037.62 659.217 1036.94 659.029C1036.28 658.809 1035.48 658.698 1034.51 658.696C1032.17 658.691 1030.34 659.481 1028.99 661.066C1027.65 662.619 1026.97 664.751 1026.96 667.459C1026.96 669.047 1027.3 670.34 1027.98 671.338C1028.66 672.305 1029.92 672.79 1031.76 672.794C1032.66 672.796 1033.53 672.705 1034.38 672.52C1035.22 672.335 1035.96 672.103 1036.62 671.825L1037.12 677.383C1036.24 677.724 1035.28 678.018 1034.22 678.264C1033.19 678.542 1031.93 678.679 1030.43 678.676C1028.5 678.672 1026.87 678.388 1025.53 677.824C1024.19 677.261 1023.09 676.511 1022.22 675.575C1021.35 674.608 1020.72 673.486 1020.32 672.208C1019.95 670.931 1019.77 669.592 1019.77 668.191ZM1050.71 678.722C1049.06 678.718 1047.62 678.466 1046.41 677.965C1045.2 677.464 1044.19 676.761 1043.38 675.856C1042.61 674.952 1042.02 673.892 1041.62 672.677C1041.22 671.43 1041.02 670.06 1041.02 668.565C1041.03 666.697 1041.33 664.83 1041.93 662.963C1042.55 661.096 1043.46 659.417 1044.65 657.925C1045.84 656.433 1047.29 655.222 1049 654.292C1050.72 653.331 1052.68 652.852 1054.89 652.857C1056.51 652.861 1057.93 653.113 1059.14 653.614C1060.39 654.115 1061.4 654.818 1062.17 655.723C1062.98 656.627 1063.58 657.703 1063.98 658.949C1064.38 660.164 1064.58 661.519 1064.58 663.014C1064.57 664.882 1064.27 666.749 1063.67 668.616C1063.08 670.483 1062.2 672.162 1061.04 673.654C1059.89 675.146 1058.43 676.373 1056.69 677.334C1054.97 678.264 1052.98 678.727 1050.71 678.722ZM1054.22 658.741C1053.19 658.738 1052.29 659.032 1051.51 659.622C1050.73 660.212 1050.07 660.957 1049.54 661.859C1049.01 662.761 1048.6 663.756 1048.32 664.845C1048.07 665.903 1047.94 666.915 1047.94 667.88C1047.93 669.468 1048.18 670.699 1048.67 671.571C1049.17 672.413 1050.07 672.836 1051.38 672.839C1052.41 672.841 1053.31 672.547 1054.09 671.957C1054.87 671.367 1055.53 670.622 1056.06 669.72C1056.59 668.818 1056.98 667.838 1057.23 666.78C1057.52 665.691 1057.66 664.664 1057.66 663.699C1057.67 662.111 1057.42 660.896 1056.93 660.054C1056.43 659.181 1055.53 658.743 1054.22 658.741ZM1073.32 678.119L1066.41 678.103L1072.32 653.55L1079.28 653.566L1073.32 678.119ZM1076.77 650.571C1075.8 650.569 1074.93 650.287 1074.16 649.725C1073.38 649.132 1072.99 648.243 1073 647.06C1073 646.406 1073.12 645.799 1073.37 645.24C1073.66 644.649 1074.02 644.151 1074.45 643.748C1074.89 643.313 1075.39 642.971 1075.95 642.723C1076.54 642.476 1077.17 642.353 1077.82 642.354C1078.79 642.356 1079.66 642.654 1080.43 643.247C1081.21 643.809 1081.6 644.682 1081.59 645.865C1081.59 646.519 1081.45 647.141 1081.17 647.732C1080.92 648.292 1080.57 648.79 1080.13 649.225C1079.7 649.628 1079.18 649.954 1078.59 650.202C1078.03 650.45 1077.42 650.573 1076.77 650.571ZM1085.36 654.701C1085.89 654.546 1086.47 654.376 1087.09 654.191C1087.74 653.974 1088.46 653.789 1089.24 653.635C1090.05 653.45 1090.94 653.312 1091.9 653.221C1092.9 653.099 1094.02 653.039 1095.26 653.042C1098.94 653.05 1101.46 654.114 1102.82 656.234C1104.18 658.355 1104.41 661.251 1103.5 664.923L1100.28 678.179L1093.32 678.164L1096.44 665.187C1096.63 664.378 1096.77 663.6 1096.87 662.853C1097 662.075 1097 661.405 1096.88 660.845C1096.75 660.253 1096.46 659.785 1095.99 659.442C1095.56 659.067 1094.87 658.879 1093.94 658.877C1093.04 658.875 1092.12 658.966 1091.18 659.151L1086.6 678.149L1079.64 678.133L1085.36 654.701ZM1134.1 649.346C1134.16 650.623 1134.24 652.071 1134.32 653.69C1134.44 655.309 1134.56 656.991 1134.68 658.735C1134.83 660.447 1134.98 662.16 1135.13 663.873C1135.29 665.586 1135.44 667.174 1135.59 668.638C1136.4 667.052 1137.23 665.341 1138.08 663.506C1138.92 661.671 1139.77 659.774 1140.62 657.814C1141.46 655.854 1142.3 653.863 1143.11 651.841C1143.96 649.82 1144.76 647.844 1145.51 645.916L1153.22 645.933C1150.77 651.843 1148.28 657.473 1145.74 662.823C1143.2 668.141 1140.48 673.288 1137.57 678.263L1130.75 678.248C1130.5 676.535 1130.28 674.9 1130.06 673.342C1129.88 671.754 1129.7 670.197 1129.52 668.671C1129.37 667.145 1129.21 665.603 1129.06 664.046C1128.94 662.489 1128.82 660.87 1128.7 659.188C1126.92 662.485 1125.15 665.719 1123.4 668.891C1121.68 672.031 1119.83 675.141 1117.86 678.219L1111.04 678.203C1110.8 675.307 1110.62 672.442 1110.5 669.609C1110.42 666.775 1110.38 663.895 1110.39 660.968C1110.4 658.447 1110.45 655.94 1110.55 653.45C1110.65 650.928 1110.79 648.391 1110.95 645.838L1118.28 645.854C1118.12 648.594 1117.95 651.287 1117.79 653.933C1117.66 656.548 1117.59 659.272 1117.58 662.106C1117.58 663.164 1117.57 664.238 1117.57 665.328C1117.57 666.418 1117.59 667.508 1117.65 668.597C1118.53 667.074 1119.45 665.457 1120.42 663.747C1121.39 662.036 1122.35 660.326 1123.29 658.616C1124.23 656.905 1125.12 655.257 1125.97 653.671C1126.81 652.054 1127.53 650.608 1128.13 649.333L1134.1 649.346ZM1171.97 667.739C1171.53 669.513 1171.4 671.303 1171.58 673.109C1171.76 674.884 1172.12 676.473 1172.64 677.875L1166.43 678.748C1166.24 678.374 1166.07 678.016 1165.92 677.673C1165.76 677.33 1165.61 676.941 1165.45 676.504C1164.58 677.219 1163.61 677.808 1162.55 678.273C1161.49 678.737 1160.31 678.968 1159 678.965C1157.45 678.962 1156.11 678.694 1154.99 678.162C1153.9 677.599 1153 676.866 1152.29 675.961C1151.6 675.025 1151.11 673.95 1150.8 672.735C1150.49 671.489 1150.34 670.165 1150.35 668.764C1150.35 666.616 1150.73 664.593 1151.49 662.695C1152.27 660.798 1153.33 659.15 1154.68 657.752C1156.05 656.323 1157.66 655.206 1159.5 654.4C1161.34 653.595 1163.33 653.195 1165.48 653.199C1165.76 653.2 1166.24 653.217 1166.93 653.249C1167.64 653.282 1168.45 653.362 1169.35 653.488C1170.26 653.584 1171.21 653.757 1172.2 654.009C1173.2 654.26 1174.15 654.604 1175.05 655.042L1171.97 667.739ZM1167.14 659.135C1166.74 659.071 1166.36 659.024 1166.02 658.992C1165.71 658.96 1165.32 658.944 1164.85 658.943C1163.8 658.94 1162.8 659.203 1161.86 659.73C1160.96 660.257 1160.16 660.956 1159.47 661.826C1158.79 662.665 1158.24 663.645 1157.83 664.765C1157.45 665.885 1157.26 667.052 1157.26 668.266C1157.26 669.761 1157.5 670.944 1158 671.817C1158.49 672.69 1159.41 673.128 1160.75 673.131C1161.46 673.133 1162.1 672.994 1162.66 672.715C1163.26 672.436 1163.88 671.971 1164.54 671.318C1164.6 670.54 1164.7 669.731 1164.82 668.89C1164.98 668.019 1165.14 667.225 1165.3 666.51L1167.14 659.135ZM1186.55 678.84C1184.34 678.835 1182.6 678.551 1181.32 677.988C1180.08 677.394 1179.18 676.598 1178.62 675.6C1178.1 674.602 1177.84 673.465 1177.84 672.189C1177.87 670.881 1178.07 669.496 1178.41 668.034L1184.42 643.248L1191.66 642.143L1185.09 669.029C1184.96 669.589 1184.88 670.103 1184.85 670.57C1184.85 671.037 1184.94 671.458 1185.13 671.832C1185.31 672.174 1185.62 672.455 1186.06 672.674C1186.52 672.893 1187.16 673.035 1187.97 673.099L1186.55 678.84ZM1213.57 667.832C1213.13 669.606 1213 671.396 1213.18 673.202C1213.36 674.977 1213.71 676.566 1214.24 677.968L1208.02 678.842C1207.84 678.468 1207.67 678.109 1207.51 677.767C1207.36 677.424 1207.2 677.034 1207.05 676.598C1206.18 677.312 1205.21 677.901 1204.15 678.366C1203.09 678.831 1201.91 679.062 1200.6 679.059C1199.04 679.055 1197.7 678.788 1196.58 678.256C1195.5 677.693 1194.59 676.959 1193.88 676.055C1193.2 675.119 1192.7 674.044 1192.4 672.829C1192.09 671.583 1191.94 670.259 1191.94 668.858C1191.95 666.71 1192.33 664.687 1193.08 662.789C1193.86 660.892 1194.93 659.244 1196.27 657.846C1197.65 656.416 1199.25 655.299 1201.09 654.494C1202.93 653.688 1204.93 653.288 1207.07 653.293C1207.35 653.294 1207.84 653.31 1208.52 653.343C1209.24 653.376 1210.05 653.455 1210.95 653.582C1211.85 653.677 1212.8 653.851 1213.8 654.102C1214.79 654.353 1215.74 654.698 1216.64 655.136L1213.57 667.832ZM1208.74 659.228C1208.33 659.165 1207.96 659.117 1207.62 659.085C1207.31 659.054 1206.92 659.037 1206.45 659.036C1205.39 659.034 1204.39 659.296 1203.46 659.823C1202.55 660.351 1201.76 661.049 1201.07 661.92C1200.38 662.759 1199.83 663.738 1199.43 664.858C1199.05 665.978 1198.86 667.145 1198.85 668.36C1198.85 669.854 1199.1 671.038 1199.59 671.911C1200.09 672.784 1201 673.222 1202.34 673.225C1203.06 673.226 1203.7 673.088 1204.26 672.809C1204.85 672.53 1205.48 672.064 1206.13 671.412C1206.2 670.634 1206.29 669.824 1206.42 668.984C1206.58 668.112 1206.74 667.319 1206.89 666.603L1208.74 659.228Z" fill="white"/>
<path d="M1221.19 621.751L1219.1 630.354C1220.5 630.682 1221.91 631.013 1223.28 631.362L1225.35 622.814L1230.57 624.146L1228.43 632.926C1235.01 635.249 1239.83 638.733 1238.88 645.214C1238.2 649.958 1235.63 652.255 1232.23 653.06C1236.9 655.556 1239.28 659.384 1237.02 666.019C1234.2 674.261 1227.52 674.957 1218.63 673.232L1214.32 672.233L1215.42 665.621C1219.97 666.602 1225.82 667.06 1226.97 662.336C1228.28 656.968 1221.76 654.689 1217.12 653.514L1217.14 653.419C1216.24 652.981 1215.29 652.636 1214.29 652.385C1213.3 652.133 1212.35 651.961 1211.45 651.865C1210.54 651.739 1209.73 651.659 1209.02 651.626C1208.33 651.593 1207.85 651.577 1207.57 651.576C1206.46 651.574 1205.4 651.678 1204.38 651.891L1205.73 646.307L1208.17 636.306C1208.23 635.171 1207.85 633.739 1205.74 633.198C1205.82 633.142 1201.99 632.242 1201.95 632.233L1203.34 626.524L1210.53 628.365L1210.52 628.393C1211.6 628.668 1212.72 628.93 1213.85 629.195L1215.99 620.419L1221.19 621.751ZM1206.95 657.319C1207.41 657.32 1207.8 657.336 1208.11 657.368C1208.46 657.4 1208.83 657.448 1209.23 657.511L1208.69 659.668H1202.48L1202.63 659.071C1203.04 658.703 1203.48 658.381 1203.95 658.106C1204.89 657.579 1205.89 657.317 1206.95 657.319ZM1215.1 647.335C1218.04 648.087 1227.11 651.154 1228.58 645.118C1230.11 638.821 1220.64 637.418 1217.7 636.666L1215.1 647.335Z" fill="white"/>
<defs>
<filter id="filter0_f_159_2130" x="717.903" y="949.647" width="2392.44" height="2392.44" filterUnits="userSpaceOnUse" color-interpolation-filters="sRGB">
<feFlood flood-opacity="0" result="BackgroundImageFix"/>
<feBlend mode="normal" in="SourceGraphic" in2="BackgroundImageFix" result="shape"/>
<feGaussianBlur stdDeviation="9.89321" result="effect1_foregroundBlur_159_2130"/>
</filter>
<filter id="filter1_f_159_2130" x="609.077" y="840.821" width="2610.09" height="2610.09" filterUnits="userSpaceOnUse" color-interpolation-filters="sRGB">
<feFlood flood-opacity="0" result="BackgroundImageFix"/>
<feBlend mode="normal" in="SourceGraphic" in2="BackgroundImageFix" result="shape"/>
<feGaussianBlur stdDeviation="64.3058" result="effect1_foregroundBlur_159_2130"/>
</filter>
<filter id="filter2_f_159_2130" x="963.201" y="1194.95" width="1901.84" height="1901.84" filterUnits="userSpaceOnUse" color-interpolation-filters="sRGB">
<feFlood flood-opacity="0" result="BackgroundImageFix"/>
<feBlend mode="normal" in="SourceGraphic" in2="BackgroundImageFix" result="shape"/>
<feGaussianBlur stdDeviation="17.9583" result="effect1_foregroundBlur_159_2130"/>
</filter>
<filter id="filter3_f_159_2130" x="1250.69" y="1482.44" width="1326.85" height="1326.85" filterUnits="userSpaceOnUse" color-interpolation-filters="sRGB">
<feFlood flood-opacity="0" result="BackgroundImageFix"/>
<feBlend mode="normal" in="SourceGraphic" in2="BackgroundImageFix" result="shape"/>
<feGaussianBlur stdDeviation="10.646" result="effect1_foregroundBlur_159_2130"/>
</filter>
<linearGradient id="paint0_linear_159_2130" x1="427.308" y1="371.539" x2="1574.15" y2="2240.7" gradientUnits="userSpaceOnUse">
<stop stop-color="#FF9500"/>
<stop offset="1" stop-color="#C94D00"/>
</linearGradient>
<clipPath id="clip0_159_2130">
<rect x="406.482" y="352.183" width="1522.69" height="1849.6" rx="53.7674" fill="white"/>
</clipPath>
</defs>
</svg>
