<svg width="2297" height="2681" viewBox="0 0 2297 2681" fill="none" xmlns="http://www.w3.org/2000/svg">
<g clip-path="url(#clip0_159_2268)">
<rect x="406.77" y="352.183" width="1522.69" height="1849.6" rx="53.7674" fill="black"/>
<g filter="url(#filter0_f_159_2268)">
<g filter="url(#filter1_f_159_2268)">
<circle cx="1914.41" cy="2145.86" r="1176.43" fill="#A21D52" fill-opacity="0.5"/>
</g>
<g filter="url(#filter2_f_159_2268)">
<circle cx="1914.41" cy="2145.86" r="915.002" fill="#A21D52" fill-opacity="0.5"/>
</g>
<g filter="url(#filter3_f_159_2268)">
<circle cx="1914.41" cy="2145.86" r="642.135" fill="#A21E50" fill-opacity="0.6"/>
</g>
<circle cx="1914.41" cy="2145.86" r="408.483" fill="#A21D52"/>
<circle cx="1914.41" cy="2145.86" r="187.109" fill="black"/>
</g>
<mask id="path-7-outside-1_159_2268" maskUnits="userSpaceOnUse" x="403.824" y="353.539" width="1528" height="1847" fill="black">
<rect fill="white" x="403.824" y="353.539" width="1528" height="1847"/>
<path d="M1871.39 371.539C1895.15 371.54 1914.41 390.797 1914.41 414.553V2139.41C1914.41 2163.17 1895.15 2182.43 1871.39 2182.43H464.838C441.082 2182.43 421.824 2163.17 421.824 2139.41V414.553C421.824 390.797 441.082 371.539 464.838 371.539H1871.39Z"/>
</mask>
<path d="M1871.39 371.539L1871.39 354.334H1871.39V371.539ZM1914.41 414.553H1931.61V414.553L1914.41 414.553ZM1914.41 2139.41H1931.61H1914.41ZM1871.39 2182.43V2199.63H1871.39L1871.39 2182.43ZM464.838 2182.43L464.838 2199.63H464.838V2182.43ZM421.824 2139.41H404.619H421.824ZM421.824 414.553L404.619 414.553V414.553H421.824ZM464.838 371.539V354.334H464.838L464.838 371.539ZM1871.39 371.539L1871.39 388.745C1885.65 388.745 1897.2 400.3 1897.2 414.553L1914.41 414.553L1931.61 414.553C1931.61 381.295 1904.65 354.334 1871.39 354.334L1871.39 371.539ZM1914.41 414.553H1897.2V2139.41H1914.41H1931.61V414.553H1914.41ZM1914.41 2139.41H1897.2C1897.2 2153.67 1885.65 2165.22 1871.39 2165.22L1871.39 2182.43L1871.39 2199.63C1904.65 2199.63 1931.61 2172.67 1931.61 2139.41H1914.41ZM1871.39 2182.43V2165.22H464.838V2182.43V2199.63H1871.39V2182.43ZM464.838 2182.43L464.838 2165.22C450.584 2165.22 439.03 2153.67 439.03 2139.41H421.824H404.619C404.619 2172.67 431.58 2199.63 464.838 2199.63L464.838 2182.43ZM421.824 2139.41H439.03V414.553H421.824H404.619V2139.41H421.824ZM421.824 414.553L439.03 414.553C439.03 400.3 450.585 388.745 464.838 388.745L464.838 371.539L464.838 354.334C431.58 354.334 404.619 381.295 404.619 414.553L421.824 414.553ZM464.838 371.539V388.745H1871.39V371.539V354.334H464.838V371.539Z" fill="url(#paint0_linear_159_2268)" mask="url(#path-7-outside-1_159_2268)"/>
<path d="M669.645 1047.02L708.494 1047.11L646.89 1225.92L611.561 1225.84L551.64 1046.76L591.582 1046.85L630.023 1182.78L669.645 1047.02ZM764.409 1226.18L727.259 1226.1L727.797 1047.15L764.947 1047.24L764.409 1226.18ZM900.505 1104.48C900.533 1095.17 898.085 1088.53 893.16 1084.55C888.315 1080.58 881.482 1078.58 872.66 1078.56L837.817 1078.48L837.659 1131.17L872.502 1131.25C881.324 1131.27 888.169 1129.14 893.038 1124.86C897.988 1120.58 900.477 1113.79 900.505 1104.48ZM937.534 1104.32C937.471 1125.44 932.084 1140.36 921.374 1149.08C910.664 1157.8 895.395 1162.13 875.566 1162.09L837.566 1162L837.373 1226.35L800.223 1226.27L800.761 1047.32L878.702 1047.49C896.67 1047.53 910.982 1052.18 921.638 1061.43C932.294 1070.68 937.592 1084.98 937.534 1104.32ZM664.637 1379.95C664.665 1370.64 662.217 1364 657.291 1360.02C652.447 1356.05 645.614 1354.05 636.792 1354.03L601.949 1353.95L601.791 1406.64L636.634 1406.72C645.456 1406.74 652.301 1404.61 657.17 1400.33C662.12 1396.05 664.609 1389.26 664.637 1379.95ZM701.666 1379.79C701.603 1400.91 696.216 1415.83 685.506 1424.55C674.796 1433.27 659.527 1437.61 639.697 1437.56L601.698 1437.48L601.504 1501.82L564.355 1501.74L564.893 1322.79L642.834 1322.96C660.802 1323 675.114 1327.65 685.77 1336.9C696.426 1346.15 701.724 1360.45 701.666 1379.79ZM760.019 1434.55L805.424 1434.66L783.297 1364.19L760.019 1434.55ZM762.66 1323.23L804.909 1323.33L867.744 1502.42L827.195 1502.33L815.772 1465.52L749.849 1465.37L737.356 1502.12L698.263 1502.04L762.66 1323.23ZM917.807 1447.29C918.915 1455.47 921.123 1461.58 924.429 1465.64C930.477 1473.02 940.866 1476.72 955.596 1476.76C964.418 1476.78 971.584 1475.82 977.094 1473.89C987.546 1470.19 992.787 1463.28 992.817 1453.17C992.835 1447.26 990.259 1442.68 985.089 1439.43C979.918 1436.26 971.793 1433.45 960.712 1431L941.785 1426.71C923.183 1422.46 910.328 1417.85 903.22 1412.9C891.185 1404.62 885.195 1391.7 885.247 1374.13C885.296 1358.11 891.163 1344.81 902.85 1334.23C914.536 1323.65 931.67 1318.39 954.251 1318.44C973.109 1318.48 989.16 1323.54 1002.4 1333.6C1015.73 1343.59 1022.69 1358.09 1023.28 1377.11L987.34 1377.03C986.725 1366.27 982.054 1358.61 973.326 1354.06C967.508 1351.05 960.269 1349.53 951.608 1349.52C941.977 1349.49 934.282 1351.42 928.524 1355.29C922.766 1359.16 919.876 1364.58 919.856 1371.54C919.836 1377.93 922.655 1382.71 928.311 1385.88C931.947 1388 939.709 1390.48 951.598 1393.34L982.412 1400.82C995.919 1404.09 1006.1 1408.44 1012.97 1413.88C1023.63 1422.32 1028.93 1434.51 1028.88 1450.45C1028.83 1466.8 1022.52 1480.39 1009.94 1491.2C997.446 1501.94 979.786 1507.28 956.962 1507.23C933.652 1507.18 915.336 1501.84 902.013 1491.2C888.691 1480.49 882.058 1465.83 882.114 1447.21L917.807 1447.29ZM1083.64 1447.66C1084.75 1455.84 1086.96 1461.96 1090.27 1466.01C1096.31 1473.39 1106.7 1477.1 1121.43 1477.13C1130.26 1477.15 1137.42 1476.19 1142.93 1474.26C1153.38 1470.56 1158.62 1463.66 1158.66 1453.54C1158.67 1447.63 1156.1 1443.05 1150.93 1439.8C1145.76 1436.63 1137.63 1433.82 1126.55 1431.37L1107.62 1427.08C1089.02 1422.83 1076.17 1418.23 1069.06 1413.27C1057.02 1404.99 1051.03 1392.07 1051.09 1374.51C1051.13 1358.48 1057 1345.18 1068.69 1334.6C1080.37 1324.03 1097.51 1318.76 1120.09 1318.81C1138.95 1318.86 1155 1323.91 1168.24 1333.98C1181.57 1343.96 1188.52 1358.47 1189.11 1377.49L1153.18 1377.41C1152.56 1366.64 1147.89 1358.98 1139.16 1354.43C1133.35 1351.42 1126.11 1349.91 1117.45 1349.89C1107.81 1349.87 1100.12 1351.79 1094.36 1355.66C1088.6 1359.54 1085.71 1364.95 1085.69 1371.91C1085.67 1378.31 1088.49 1383.09 1094.15 1386.26C1097.78 1388.37 1105.55 1390.86 1117.44 1393.72L1148.25 1401.19C1161.76 1404.46 1171.94 1408.81 1178.81 1414.25C1189.46 1422.69 1194.77 1434.88 1194.72 1450.83C1194.67 1467.18 1188.36 1480.76 1175.78 1491.58C1163.28 1502.31 1145.62 1507.66 1122.8 1507.6C1099.49 1507.55 1081.17 1502.21 1067.85 1491.58C1054.53 1480.86 1047.9 1466.2 1047.95 1447.58L1083.64 1447.66Z" fill="white"/>
<path d="M579.221 1601.08L591.556 1564.26L598.12 1564.27L582.213 1607.47L576.01 1607.46L560.363 1564.19L566.866 1564.2L579.1 1601.08L579.221 1601.08ZM610.645 1564.3L610.515 1607.54L604.674 1607.52L604.804 1564.29L610.645 1564.3ZM627.089 1569.34L627.044 1584.33L638.667 1584.36C643.906 1584.37 647.464 1582.45 647.482 1576.61C647.498 1571.13 643.77 1569.37 638.953 1569.36L627.089 1569.34ZM627.029 1589.33L626.974 1607.58L621.133 1607.56L621.263 1564.32L640.714 1564.37C648.723 1564.39 653.525 1569.58 653.504 1576.56C653.486 1582.58 650.033 1589.38 640.639 1589.36L627.029 1589.33ZM701.643 1595.16L684.3 1595.12L679.745 1607.69L673.723 1607.68L690.113 1564.48L696.737 1564.49L712.264 1607.77L705.881 1607.75L701.643 1595.16ZM686.122 1589.94L699.551 1589.97L693.225 1570.93L693.104 1570.93L686.122 1589.94ZM717.924 1607.78L718.054 1564.54L735.578 1564.58C746.839 1564.61 753.738 1573.17 753.701 1585.64C753.672 1595.33 749.419 1607.85 735.207 1607.82L717.924 1607.78ZM723.88 1569.55L723.78 1602.79L735.102 1602.82C742.689 1602.84 747.645 1596.89 747.678 1585.99C747.711 1575.09 742.729 1569.6 734.78 1569.58L723.88 1569.55ZM802.332 1607.97L796.672 1607.96L796.748 1582.42C796.752 1581.16 796.889 1575.68 796.901 1571.64L796.781 1571.64L784.507 1607.93L778.726 1607.92L766.671 1571.64L766.551 1571.64C766.539 1575.61 766.643 1581.09 766.639 1582.36L766.562 1607.89L760.901 1607.88L761.031 1564.64L769.402 1564.66L781.637 1601.24L781.757 1601.24L794.152 1564.71L802.462 1564.73L802.332 1607.97ZM818.12 1564.77L817.99 1608L812.148 1607.99L812.278 1564.75L818.12 1564.77ZM859.652 1577.51L854.172 1577.49C853.891 1570.81 848.358 1568.69 843.48 1568.68C839.806 1568.67 833.601 1569.68 833.581 1576.24C833.57 1579.92 836.156 1581.13 838.683 1581.74L851.02 1584.59C856.616 1585.93 860.821 1589.31 860.801 1596.18C860.77 1606.41 851.247 1609.22 843.84 1609.21C835.831 1609.19 832.706 1606.77 830.785 1605.02C827.121 1601.7 826.409 1598.09 826.422 1594.05L831.902 1594.06C831.878 1601.89 838.254 1604.2 843.795 1604.21C848.01 1604.22 855.119 1603.15 855.138 1596.95C855.151 1592.43 853.048 1590.98 845.947 1589.28L837.101 1587.21C834.273 1586.54 827.895 1584.54 827.918 1577.01C827.938 1570.27 832.354 1563.66 842.832 1563.68C857.948 1563.71 859.426 1572.75 859.652 1577.51ZM899.818 1577.6L894.338 1577.58C894.057 1570.9 888.523 1568.78 883.646 1568.77C879.972 1568.76 873.767 1569.77 873.747 1576.33C873.736 1580.01 876.322 1581.22 878.849 1581.83L891.186 1584.68C896.782 1586.02 900.987 1589.4 900.967 1596.27C900.936 1606.5 891.413 1609.31 884.006 1609.3C875.996 1609.28 872.872 1606.86 870.95 1605.11C867.287 1601.79 866.575 1598.18 866.587 1594.14L872.067 1594.16C872.044 1601.98 878.42 1604.29 883.96 1604.3C888.176 1604.31 895.285 1603.24 895.304 1597.04C895.317 1592.52 893.214 1591.07 886.113 1589.37L877.267 1587.3C874.439 1586.63 868.061 1584.63 868.084 1577.1C868.104 1570.36 872.52 1563.75 882.998 1563.77C898.113 1563.8 899.592 1572.84 899.818 1577.6ZM915.212 1564.99L915.082 1608.22L909.24 1608.21L909.37 1564.97L915.212 1564.99ZM959.066 1586.7C959.097 1576.53 953.458 1569.11 944.064 1569.09C934.67 1569.06 928.987 1576.46 928.956 1586.64C928.926 1596.81 934.564 1604.23 943.958 1604.25C953.352 1604.27 959.035 1596.88 959.066 1586.7ZM965.088 1586.72C965.06 1596.05 960.081 1609.47 943.943 1609.43C927.804 1609.4 922.906 1595.96 922.934 1586.62C922.962 1577.29 927.941 1563.87 944.08 1563.91C960.218 1563.94 965.116 1577.38 965.088 1586.72ZM1000.66 1600.11L1000.76 1565.18L1006.42 1565.19L1006.29 1608.43L999.729 1608.41L977.853 1573.44L977.733 1573.44L977.628 1608.36L971.967 1608.35L972.097 1565.11L979.023 1565.13L1000.54 1600.1L1000.66 1600.11Z" fill="white"/>
<path d="M658.852 1929.61C660.954 1929.62 662.771 1929.99 664.302 1930.74C665.833 1931.49 667.1 1932.5 668.104 1933.77C669.108 1935.05 669.848 1936.54 670.325 1938.25C670.802 1939.96 671.037 1941.8 671.031 1943.77C671.022 1946.79 670.444 1949.66 669.297 1952.37C668.194 1955.04 666.675 1957.38 664.742 1959.39C662.808 1961.36 660.526 1962.93 657.894 1964.11C655.262 1965.24 652.413 1965.8 649.347 1965.8C648.952 1965.8 648.251 1965.77 647.244 1965.73C646.28 1965.72 645.164 1965.63 643.894 1965.46C642.624 1965.28 641.267 1965.01 639.822 1964.66C638.421 1964.31 637.087 1963.82 635.818 1963.2L647.329 1915.46L657.519 1913.91L653.394 1930.85C654.271 1930.46 655.148 1930.15 656.025 1929.94C656.902 1929.72 657.844 1929.61 658.852 1929.61ZM650.225 1957.72C651.758 1957.72 653.205 1957.35 654.565 1956.61C655.925 1955.87 657.089 1954.89 658.057 1953.66C659.068 1952.39 659.861 1950.97 660.435 1949.39C661.009 1947.82 661.299 1946.18 661.304 1944.47C661.31 1942.37 660.965 1940.72 660.267 1939.54C659.57 1938.35 658.28 1937.76 656.396 1937.76C655.783 1937.75 654.972 1937.86 653.964 1938.08C652.999 1938.3 652.122 1938.75 651.331 1939.45L646.94 1957.45C647.203 1957.49 647.422 1957.54 647.597 1957.58C647.816 1957.62 648.035 1957.67 648.254 1957.71C648.473 1957.71 648.736 1957.71 649.042 1957.71C649.349 1957.71 649.743 1957.72 650.225 1957.72ZM683.333 1964.95L673.609 1964.93L681.926 1930.39L691.717 1930.41L683.333 1964.95ZM688.181 1926.2C686.823 1926.19 685.598 1925.8 684.505 1925.01C683.412 1924.17 682.868 1922.92 682.873 1921.26C682.876 1920.34 683.054 1919.48 683.407 1918.69C683.804 1917.86 684.309 1917.16 684.924 1916.6C685.54 1915.98 686.242 1915.5 687.031 1915.15C687.865 1914.81 688.741 1914.63 689.661 1914.63C691.019 1914.64 692.245 1915.06 693.337 1915.89C694.43 1916.68 694.974 1917.91 694.969 1919.58C694.966 1920.49 694.766 1921.37 694.37 1922.2C694.017 1922.99 693.533 1923.69 692.918 1924.3C692.303 1924.87 691.579 1925.33 690.745 1925.68C689.956 1926.03 689.101 1926.2 688.181 1926.2ZM701.744 1921.82L711.933 1920.27L709.406 1930.45L720.313 1930.47L718.318 1938.49L707.476 1938.46L704.548 1950.55C704.283 1951.55 704.104 1952.49 704.014 1953.37C703.968 1954.25 704.075 1955.01 704.336 1955.67C704.641 1956.28 705.143 1956.77 705.843 1957.12C706.543 1957.47 707.506 1957.65 708.732 1957.65C709.784 1957.65 710.792 1957.57 711.756 1957.4C712.764 1957.18 713.772 1956.9 714.781 1956.55L715.481 1964.04C714.166 1964.52 712.741 1964.93 711.206 1965.28C709.672 1965.63 707.854 1965.8 705.751 1965.79C702.728 1965.79 700.386 1965.34 698.724 1964.46C697.062 1963.54 695.883 1962.31 695.187 1960.77C694.491 1959.2 694.19 1957.4 694.283 1955.38C694.377 1953.37 694.69 1951.25 695.222 1949.01L701.744 1921.82ZM720.603 1951.24C720.612 1948.26 721.103 1945.46 722.074 1942.83C723.046 1940.21 724.433 1937.91 726.235 1935.94C728.037 1933.97 730.21 1932.42 732.754 1931.29C735.342 1930.16 738.213 1929.59 741.367 1929.6C743.338 1929.61 745.09 1929.81 746.622 1930.2C748.198 1930.56 749.62 1931.04 750.888 1931.66L747.514 1939.27C746.639 1938.92 745.72 1938.61 744.757 1938.35C743.838 1938.04 742.7 1937.88 741.342 1937.88C738.056 1937.87 735.469 1938.98 733.578 1941.21C731.688 1943.4 730.737 1946.4 730.726 1950.21C730.719 1952.44 731.195 1954.26 732.155 1955.67C733.115 1957.03 734.887 1957.71 737.471 1957.72C738.742 1957.72 739.968 1957.59 741.152 1957.33C742.336 1957.07 743.388 1956.74 744.309 1956.35L745.008 1964.17C743.78 1964.65 742.421 1965.06 740.931 1965.41C739.484 1965.8 737.709 1966 735.606 1965.99C732.89 1965.99 730.592 1965.59 728.711 1964.79C726.829 1964 725.277 1962.95 724.055 1961.63C722.832 1960.27 721.939 1958.69 721.375 1956.89C720.855 1955.09 720.597 1953.21 720.603 1951.24ZM764.129 1966.06C761.807 1966.05 759.793 1965.7 758.087 1964.99C756.381 1964.29 754.96 1963.3 753.825 1962.02C752.734 1960.75 751.906 1959.26 751.341 1957.55C750.777 1955.8 750.498 1953.87 750.505 1951.77C750.512 1949.14 750.937 1946.51 751.777 1943.88C752.661 1941.26 753.938 1938.89 755.609 1936.8C757.28 1934.7 759.322 1932.99 761.735 1931.68C764.149 1930.33 766.911 1929.66 770.021 1929.67C772.299 1929.67 774.291 1930.03 775.997 1930.73C777.747 1931.44 779.168 1932.42 780.259 1933.7C781.394 1934.97 782.244 1936.48 782.808 1938.24C783.373 1939.95 783.652 1941.85 783.645 1943.96C783.637 1946.58 783.213 1949.21 782.373 1951.84C781.533 1954.46 780.299 1956.83 778.672 1958.93C777.045 1961.02 775.003 1962.75 772.546 1964.1C770.132 1965.41 767.327 1966.06 764.129 1966.06ZM769.076 1937.94C767.63 1937.94 766.359 1938.35 765.261 1939.18C764.164 1940.01 763.24 1941.06 762.492 1942.33C761.743 1943.6 761.17 1945 760.771 1946.53C760.416 1948.02 760.236 1949.44 760.232 1950.8C760.226 1953.04 760.571 1954.77 761.268 1956C761.965 1957.18 763.234 1957.77 765.074 1957.78C766.519 1957.78 767.791 1957.37 768.889 1956.54C769.986 1955.71 770.909 1954.66 771.658 1953.39C772.406 1952.12 772.958 1950.74 773.313 1949.25C773.712 1947.72 773.913 1946.28 773.918 1944.92C773.924 1942.68 773.579 1940.98 772.882 1939.79C772.184 1938.56 770.916 1937.95 769.076 1937.94ZM795.949 1965.21L786.224 1965.19L794.542 1930.64L804.332 1930.66L795.949 1965.21ZM800.797 1926.45C799.439 1926.45 798.213 1926.05 797.121 1925.26C796.028 1924.42 795.484 1923.17 795.489 1921.51C795.492 1920.59 795.67 1919.74 796.022 1918.95C796.419 1918.12 796.925 1917.42 797.54 1916.85C798.155 1916.24 798.858 1915.76 799.647 1915.41C800.48 1915.06 801.357 1914.89 802.277 1914.89C803.635 1914.89 804.86 1915.31 805.953 1916.14C807.046 1916.94 807.59 1918.16 807.585 1919.83C807.582 1920.75 807.382 1921.62 806.985 1922.46C806.633 1923.24 806.149 1923.94 805.533 1924.55C804.918 1925.12 804.194 1925.58 803.361 1925.93C802.571 1926.28 801.717 1926.45 800.797 1926.45ZM812.883 1932.26C813.628 1932.04 814.44 1931.8 815.316 1931.54C816.237 1931.24 817.246 1930.98 818.341 1930.76C819.481 1930.5 820.73 1930.31 822.089 1930.18C823.491 1930.01 825.068 1929.92 826.82 1929.92C831.989 1929.94 835.533 1931.43 837.452 1934.42C839.37 1937.4 839.686 1941.47 838.401 1946.64L833.876 1965.29L824.086 1965.27L828.477 1947.01C828.744 1945.87 828.944 1944.78 829.079 1943.73C829.257 1942.63 829.26 1941.69 829.087 1940.9C828.914 1940.07 828.5 1939.41 827.845 1938.93C827.233 1938.4 826.27 1938.14 824.956 1938.13C823.685 1938.13 822.393 1938.26 821.078 1938.52L814.624 1965.25L804.833 1965.23L812.883 1932.26ZM853.488 1919.8L863.739 1919.82L852.628 1965.33L842.444 1965.31L853.488 1919.8ZM870.635 1932.39C871.38 1932.17 872.191 1931.93 873.068 1931.67C873.989 1931.37 874.997 1931.11 876.093 1930.89C877.233 1930.63 878.482 1930.44 879.84 1930.31C881.242 1930.13 882.82 1930.05 884.572 1930.05C889.741 1930.07 893.285 1931.56 895.203 1934.55C897.122 1937.53 897.438 1941.6 896.152 1946.77L891.628 1965.42L881.837 1965.4L886.229 1947.14C886.495 1946 886.696 1944.91 886.83 1943.86C887.009 1942.76 887.012 1941.82 886.839 1941.03C886.666 1940.2 886.252 1939.54 885.596 1939.06C884.985 1938.53 884.022 1938.27 882.707 1938.26C881.437 1938.26 880.144 1938.39 878.829 1938.65L872.375 1965.38L862.585 1965.36L870.635 1932.39ZM914.123 1966.39C911.932 1966.39 910.05 1966.01 908.475 1965.26C906.944 1964.51 905.677 1963.5 904.673 1962.23C903.713 1960.92 902.995 1959.4 902.518 1957.69C902.085 1955.94 901.872 1954.08 901.878 1952.11C901.887 1949.13 902.421 1946.32 903.48 1943.7C904.583 1941.03 906.08 1938.71 907.969 1936.74C909.859 1934.78 912.098 1933.23 914.686 1932.09C917.274 1930.96 920.101 1930.4 923.167 1930.4C923.956 1930.41 924.678 1930.45 925.335 1930.54C926.036 1930.63 926.736 1930.76 927.437 1930.94L931.03 1916.1L941.219 1914.54L932.437 1950.6C931.816 1953.09 931.634 1955.61 931.889 1958.15C932.144 1960.65 932.641 1962.89 933.38 1964.86L924.637 1966.09C924.376 1965.56 924.136 1965.06 923.919 1964.57C923.701 1964.09 923.484 1963.54 923.267 1962.93C922.037 1963.94 920.655 1964.76 919.119 1965.42C917.628 1966.07 915.962 1966.4 914.123 1966.39ZM925.508 1938.75C925.245 1938.71 925.004 1938.67 924.785 1938.62C924.61 1938.58 924.413 1938.56 924.194 1938.55C924.019 1938.51 923.778 1938.49 923.471 1938.49C923.165 1938.49 922.771 1938.49 922.289 1938.48C920.756 1938.48 919.331 1938.85 918.014 1939.59C916.698 1940.29 915.556 1941.25 914.589 1942.48C913.665 1943.7 912.938 1945.1 912.408 1946.68C911.877 1948.21 911.61 1949.78 911.605 1951.41C911.599 1953.51 911.944 1955.17 912.641 1956.4C913.382 1957.59 914.695 1958.18 916.579 1958.18C917.586 1958.19 918.507 1957.99 919.34 1957.6C920.174 1957.21 921.052 1956.55 921.974 1955.63C922.065 1954.54 922.2 1953.4 922.379 1952.22C922.602 1950.99 922.824 1949.88 923.046 1948.87L925.508 1938.75ZM948.349 1965.55L938.624 1965.53L946.942 1930.98L956.732 1931.01L948.349 1965.55ZM953.197 1926.79C951.839 1926.79 950.613 1926.39 949.521 1925.6C948.428 1924.77 947.884 1923.52 947.889 1921.85C947.892 1920.93 948.07 1920.08 948.423 1919.29C948.819 1918.46 949.325 1917.76 949.94 1917.19C950.555 1916.58 951.258 1916.1 952.047 1915.75C952.881 1915.4 953.757 1915.23 954.677 1915.23C956.035 1915.23 957.26 1915.65 958.353 1916.49C959.446 1917.28 959.99 1918.51 959.985 1920.17C959.982 1921.09 959.782 1921.97 959.385 1922.8C959.033 1923.59 958.549 1924.29 957.934 1924.9C957.319 1925.47 956.594 1925.92 955.761 1926.27C954.971 1926.62 954.117 1926.79 953.197 1926.79ZM989.672 1950.73C989.052 1953.22 988.869 1955.74 989.124 1958.28C989.379 1960.78 989.876 1963.01 990.615 1964.99L981.872 1966.22C981.611 1965.69 981.371 1965.19 981.154 1964.7C980.936 1964.22 980.719 1963.67 980.502 1963.06C979.272 1964.06 977.912 1964.89 976.42 1965.55C974.929 1966.2 973.263 1966.53 971.424 1966.52C969.233 1966.52 967.351 1966.14 965.776 1965.39C964.245 1964.6 962.978 1963.57 961.974 1962.29C961.014 1960.98 960.318 1959.47 959.885 1957.76C959.452 1956 959.239 1954.14 959.245 1952.17C959.254 1949.15 959.788 1946.3 960.847 1943.63C961.951 1940.96 963.447 1938.64 965.337 1936.68C967.27 1934.67 969.531 1933.09 972.119 1931.96C974.707 1930.83 977.512 1930.26 980.535 1930.27C980.929 1930.27 981.608 1930.29 982.571 1930.34C983.579 1930.39 984.717 1930.5 985.987 1930.68C987.257 1930.81 988.593 1931.06 989.993 1931.41C991.394 1931.76 992.729 1932.25 993.997 1932.86L989.672 1950.73ZM982.875 1938.62C982.306 1938.53 981.78 1938.47 981.299 1938.42C980.861 1938.38 980.313 1938.35 979.656 1938.35C978.167 1938.35 976.764 1938.72 975.447 1939.46C974.175 1940.2 973.055 1941.18 972.087 1942.41C971.12 1943.59 970.349 1944.97 969.775 1946.54C969.245 1948.12 968.977 1949.76 968.972 1951.47C968.966 1953.57 969.311 1955.24 970.008 1956.46C970.705 1957.69 971.996 1958.31 973.879 1958.31C974.887 1958.32 975.786 1958.12 976.575 1957.73C977.409 1957.34 978.287 1956.68 979.21 1955.76C979.3 1954.67 979.435 1953.53 979.614 1952.35C979.837 1951.12 980.059 1950 980.281 1949L982.875 1938.62Z" fill="white"/>
<path d="M546.115 1930.44C552.304 1910.38 573.589 1899.13 593.648 1905.32C613.712 1911.51 624.958 1932.8 618.767 1952.87C612.575 1972.93 591.289 1984.18 571.224 1977.98C551.168 1971.79 539.923 1950.51 546.115 1930.44ZM580.158 1923.57C579.263 1923.32 578.384 1923.07 577.532 1922.8L577.538 1922.78L571.871 1921.03L570.519 1925.42C570.554 1925.43 573.554 1926.29 573.503 1926.34C575.167 1926.85 575.411 1927.99 575.311 1928.87L572.938 1936.56C573.052 1936.59 573.201 1936.65 573.363 1936.72L572.93 1936.59L569.604 1947.36C569.369 1947.86 568.803 1948.6 567.64 1948.25C567.667 1948.31 564.652 1947.32 564.652 1947.32L562.322 1951.98L567.67 1953.63C568.665 1953.94 569.639 1954.26 570.597 1954.56L568.491 1961.39L572.596 1962.66L574.682 1955.9C575.8 1956.27 576.888 1956.62 577.953 1956.95L575.876 1963.67L579.985 1964.94L582.09 1958.12C589.12 1959.86 594.494 1959.61 597.094 1953.31C599.19 1948.23 597.454 1945.15 593.823 1942.99C596.58 1942.51 598.73 1940.83 599.48 1937.17C600.513 1932.15 596.816 1929.23 591.655 1927.13L593.738 1920.37L589.628 1919.11L587.6 1925.68C586.521 1925.35 585.41 1925.03 584.307 1924.71L586.349 1918.09L582.242 1916.83L580.158 1923.57ZM579.103 1941.91C581.888 1942.77 590.865 1944.67 589.226 1949.99C587.652 1955.09 579.096 1951.82 576.31 1950.96L579.103 1941.91ZM582.911 1929.57C585.232 1930.28 592.747 1931.8 591.252 1936.64C589.818 1941.28 582.7 1938.49 580.379 1937.77L582.911 1929.57Z" fill="white"/>
<ellipse cx="643.682" cy="594.735" rx="67.6097" ry="65.7873" fill="black"/>
<path d="M558.221 567.42C572.397 521.461 621.149 495.699 667.093 509.88C713.049 524.062 738.806 572.823 724.625 618.78C710.444 664.734 661.69 690.49 615.732 676.308C569.795 662.128 544.038 613.372 558.221 567.42ZM636.197 551.687C634.147 551.1 632.134 550.52 630.182 549.919L630.195 549.871L617.216 545.86L614.117 555.913C614.117 555.913 621.107 557.926 620.953 558.018C624.764 559.196 625.324 561.791 625.093 563.812L619.659 581.427C619.921 581.51 620.261 581.626 620.633 581.799L619.641 581.495L612.021 606.169C611.483 607.318 610.188 609.013 607.523 608.196C607.604 608.337 600.682 606.083 600.682 606.083L595.343 616.748L607.594 620.527C609.872 621.233 612.103 621.964 614.297 622.658L609.475 638.299L618.875 641.203L623.653 625.73C626.215 626.58 628.708 627.371 631.147 628.122L626.389 643.522L635.801 646.425L640.622 630.816C656.724 634.791 669.031 634.222 674.986 619.791C679.788 608.169 675.81 601.093 667.495 596.162C673.809 595.062 678.734 591.22 680.454 582.817C682.819 571.339 674.35 564.632 662.53 559.819L667.301 544.356L657.887 541.453L653.242 556.507C650.77 555.744 648.226 555.013 645.698 554.288L650.376 539.133L640.97 536.23L636.197 551.687ZM633.778 593.693C640.158 595.663 660.718 600.001 656.964 612.19C653.36 623.878 633.764 616.377 627.381 614.412L633.778 593.693ZM642.501 565.417C647.817 567.056 665.029 570.517 661.606 581.607C658.322 592.238 642.018 585.848 636.702 584.209L642.501 565.417Z" fill="white"/>
<path d="M779.195 543.796C782.131 543.802 784.668 544.328 786.806 545.373C788.944 546.418 790.714 547.829 792.116 549.606C793.517 551.383 794.551 553.465 795.217 555.853C795.883 558.24 796.211 560.81 796.203 563.563C796.19 567.784 795.383 571.789 793.781 575.579C792.241 579.307 790.12 582.575 787.42 585.383C784.72 588.13 781.532 590.325 777.857 591.969C774.182 593.551 770.203 594.337 765.92 594.328C765.37 594.326 764.391 594.294 762.984 594.229C761.638 594.226 760.079 594.1 758.306 593.852C756.532 593.603 754.637 593.232 752.62 592.738C750.663 592.244 748.8 591.567 747.028 590.706L763.104 524.03L777.334 521.86L771.573 545.522C772.798 544.974 774.023 544.549 775.247 544.246C776.472 543.943 777.788 543.793 779.195 543.796ZM767.147 583.043C769.288 583.048 771.309 582.533 773.208 581.497C775.108 580.461 776.733 579.089 778.084 577.379C779.497 575.608 780.604 573.622 781.406 571.422C782.208 569.221 782.612 566.928 782.619 564.542C782.628 561.606 782.146 559.31 781.172 557.657C780.198 556.003 778.396 555.173 775.765 555.167C774.909 555.165 773.777 555.315 772.369 555.618C771.022 555.921 769.796 556.56 768.692 557.537L762.56 582.666C762.927 582.728 763.233 582.79 763.477 582.852C763.783 582.914 764.089 582.975 764.394 583.037C764.7 583.038 765.067 583.039 765.496 583.04C765.924 583.041 766.474 583.042 767.147 583.043ZM813.384 593.15L799.803 593.119L811.418 544.878L825.091 544.908L813.384 593.15ZM820.153 539.024C818.257 539.02 816.546 538.466 815.02 537.361C813.494 536.195 812.734 534.45 812.741 532.126C812.745 530.841 812.993 529.648 813.486 528.548C814.04 527.387 814.747 526.41 815.606 525.617C816.465 524.762 817.445 524.092 818.548 523.605C819.712 523.118 820.936 522.876 822.221 522.879C824.117 522.883 825.828 523.468 827.354 524.634C828.88 525.738 829.64 527.453 829.633 529.778C829.629 531.062 829.35 532.285 828.796 533.446C828.303 534.546 827.627 535.524 826.768 536.378C825.909 537.172 824.898 537.812 823.734 538.298C822.632 538.785 821.438 539.027 820.153 539.024ZM839.094 532.919L853.324 530.749L849.794 544.964L865.026 544.998L862.24 556.187L847.099 556.153L843.011 573.028C842.639 574.434 842.391 575.749 842.265 576.972C842.2 578.196 842.35 579.267 842.714 580.185C843.14 581.043 843.841 581.717 844.818 582.209C845.796 582.7 847.141 582.948 848.854 582.952C850.322 582.955 851.729 582.836 853.076 582.594C854.484 582.292 855.892 581.897 857.301 581.411L858.279 591.874C856.441 592.543 854.451 593.12 852.309 593.604C850.166 594.089 847.627 594.328 844.69 594.321C840.469 594.312 837.198 593.693 834.877 592.464C832.556 591.174 830.91 589.457 829.937 587.314C828.965 585.109 828.544 582.6 828.675 579.787C828.806 576.973 829.243 574.007 829.987 570.888L839.094 532.919ZM865.432 573.996C865.444 569.836 866.129 565.923 867.486 562.255C868.843 558.588 870.779 555.38 873.296 552.633C875.812 549.886 878.847 547.721 882.4 546.138C886.014 544.556 890.024 543.77 894.428 543.78C897.181 543.786 899.627 544.067 901.767 544.622C903.968 545.116 905.954 545.794 907.725 546.654L903.013 557.288C901.791 556.796 900.508 556.365 899.163 555.995C897.88 555.564 896.29 555.346 894.393 555.342C889.805 555.331 886.191 556.883 883.551 559.997C880.912 563.05 879.584 567.238 879.568 572.56C879.558 575.68 880.224 578.22 881.564 580.181C882.904 582.08 885.378 583.034 888.988 583.042C890.762 583.046 892.475 582.866 894.128 582.503C895.781 582.14 897.251 581.684 898.537 581.137L899.513 592.059C897.799 592.728 895.9 593.305 893.819 593.789C891.799 594.335 889.32 594.605 886.384 594.598C882.591 594.59 879.381 594.032 876.754 592.925C874.126 591.818 871.959 590.345 870.252 588.506C868.544 586.605 867.297 584.4 866.509 581.89C865.783 579.381 865.423 576.749 865.432 573.996ZM926.216 594.688C922.974 594.681 920.161 594.185 917.778 593.201C915.395 592.217 913.411 590.836 911.826 589.058C910.302 587.281 909.146 585.198 908.358 582.81C907.57 580.362 907.18 577.669 907.189 574.733C907.2 571.062 907.792 567.393 908.966 563.725C910.2 560.057 911.984 556.758 914.318 553.827C916.651 550.895 919.503 548.516 922.873 546.688C926.244 544.799 930.1 543.86 934.444 543.87C937.625 543.877 940.407 544.372 942.79 545.357C945.234 546.341 947.218 547.722 948.742 549.499C950.327 551.277 951.514 553.39 952.302 555.839C953.09 558.227 953.48 560.889 953.471 563.825C953.46 567.496 952.868 571.165 951.694 574.833C950.521 578.501 948.798 581.8 946.526 584.731C944.253 587.663 941.401 590.073 937.97 591.961C934.6 593.789 930.682 594.698 926.216 594.688ZM933.124 555.429C931.106 555.424 929.33 556.001 927.797 557.16C926.264 558.319 924.975 559.785 923.93 561.556C922.884 563.328 922.083 565.284 921.526 567.424C921.031 569.503 920.78 571.49 920.774 573.387C920.765 576.507 921.247 578.924 922.221 580.639C923.194 582.293 924.966 583.123 927.535 583.129C929.554 583.133 931.33 582.556 932.863 581.397C934.396 580.238 935.685 578.773 936.73 577.001C937.775 575.23 938.546 573.304 939.042 571.225C939.599 569.085 939.88 567.067 939.886 565.171C939.895 562.051 939.413 559.664 938.439 558.01C937.465 556.295 935.694 555.435 933.124 555.429ZM970.653 593.503L957.072 593.473L968.688 545.231L982.36 545.262L970.653 593.503ZM977.423 539.378C975.526 539.374 973.815 538.819 972.289 537.715C970.763 536.549 970.004 534.804 970.011 532.479C970.015 531.194 970.263 530.002 970.756 528.902C971.31 527.741 972.016 526.764 972.875 525.97C973.734 525.116 974.715 524.445 975.817 523.958C976.981 523.471 978.206 523.229 979.49 523.232C981.387 523.237 983.098 523.822 984.624 524.987C986.15 526.092 986.909 527.807 986.902 530.131C986.898 531.416 986.619 532.639 986.065 533.8C985.573 534.9 984.897 535.877 984.038 536.732C983.179 537.525 982.168 538.165 981.004 538.652C979.901 539.139 978.708 539.381 977.423 539.378ZM994.302 547.491C995.342 547.188 996.475 546.854 997.7 546.489C998.986 546.064 1000.39 545.7 1001.92 545.398C1003.52 545.034 1005.26 544.763 1007.16 544.584C1009.12 544.343 1011.32 544.226 1013.77 544.231C1020.98 544.248 1025.93 546.339 1028.61 550.505C1031.29 554.671 1031.73 560.361 1029.94 567.576L1023.62 593.622L1009.95 593.592L1016.08 568.095C1016.45 566.505 1016.73 564.977 1016.92 563.509C1017.17 561.98 1017.17 560.665 1016.93 559.563C1016.69 558.4 1016.11 557.481 1015.2 556.806C1014.34 556.07 1013 555.7 1011.16 555.696C1009.39 555.692 1007.58 555.871 1005.75 556.234L996.732 593.562L983.06 593.531L994.302 547.491ZM1051.01 530.092L1065.32 530.124L1049.81 593.681L1035.58 593.649L1051.01 530.092ZM1074.95 547.673C1075.99 547.369 1077.13 547.035 1078.35 546.671C1079.64 546.245 1081.04 545.882 1082.58 545.579C1084.17 545.216 1085.91 544.944 1087.81 544.765C1089.77 544.525 1091.97 544.407 1094.42 544.413C1101.63 544.429 1106.58 546.52 1109.26 550.686C1111.94 554.852 1112.38 560.542 1110.59 567.757L1104.27 593.804L1090.6 593.773L1096.73 568.276C1097.1 566.687 1097.38 565.158 1097.57 563.69C1097.82 562.161 1097.82 560.846 1097.58 559.744C1097.34 558.582 1096.76 557.663 1095.85 556.988C1094.99 556.252 1093.65 555.881 1091.81 555.877C1090.04 555.873 1088.23 556.053 1086.4 556.416L1077.38 593.743L1063.71 593.712L1074.95 547.673ZM1135.68 595.159C1132.63 595.152 1130 594.626 1127.8 593.581C1125.66 592.536 1123.89 591.125 1122.49 589.348C1121.15 587.51 1120.14 585.397 1119.48 583.01C1118.87 580.561 1118.58 577.961 1118.58 575.208C1118.6 571.048 1119.34 567.134 1120.82 563.467C1122.36 559.739 1124.45 556.501 1127.09 553.754C1129.73 551.007 1132.86 548.843 1136.47 547.26C1140.08 545.678 1144.03 544.891 1148.32 544.901C1149.42 544.904 1150.43 544.967 1151.34 545.091C1152.32 545.216 1153.3 545.402 1154.28 545.649L1159.3 524.921L1173.52 522.751L1161.26 573.101C1160.39 576.587 1160.14 580.104 1160.49 583.653C1160.85 587.14 1161.55 590.262 1162.58 593.017L1150.37 594.733C1150 593.998 1149.67 593.294 1149.36 592.62C1149.06 591.947 1148.76 591.181 1148.45 590.324C1146.74 591.727 1144.81 592.885 1142.66 593.798C1140.58 594.711 1138.25 595.165 1135.68 595.159ZM1151.58 556.562C1151.22 556.5 1150.88 556.438 1150.57 556.377C1150.33 556.315 1150.05 556.284 1149.75 556.283C1149.5 556.221 1149.17 556.19 1148.74 556.189C1148.31 556.188 1147.76 556.187 1147.09 556.185C1144.95 556.18 1142.96 556.696 1141.12 557.732C1139.28 558.706 1137.69 560.049 1136.34 561.759C1135.05 563.469 1134.03 565.424 1133.29 567.625C1132.55 569.764 1132.18 571.966 1132.17 574.229C1132.16 577.165 1132.64 579.491 1133.62 581.206C1134.65 582.86 1136.48 583.69 1139.11 583.696C1140.52 583.699 1141.81 583.427 1142.97 582.879C1144.13 582.331 1145.36 581.416 1146.65 580.134C1146.78 578.605 1146.96 577.015 1147.21 575.364C1147.53 573.652 1147.84 572.092 1148.15 570.686L1151.58 556.562ZM1183.48 593.982L1169.9 593.951L1181.52 545.71L1195.19 545.741L1183.48 593.982ZM1190.25 539.857C1188.36 539.852 1186.64 539.298 1185.12 538.193C1183.59 537.028 1182.83 535.282 1182.84 532.958C1182.84 531.673 1183.09 530.481 1183.58 529.381C1184.14 528.219 1184.85 527.242 1185.7 526.449C1186.56 525.594 1187.54 524.924 1188.65 524.437C1189.81 523.95 1191.03 523.708 1192.32 523.711C1194.22 523.715 1195.93 524.3 1197.45 525.466C1198.98 526.571 1199.74 528.285 1199.73 530.61C1199.73 531.894 1199.45 533.117 1198.89 534.278C1198.4 535.378 1197.73 536.356 1196.87 537.21C1196.01 538.004 1195 538.644 1193.83 539.131C1192.73 539.617 1191.54 539.859 1190.25 539.857ZM1241.19 573.281C1240.32 576.766 1240.07 580.283 1240.42 583.832C1240.78 587.32 1241.48 590.442 1242.51 593.197L1230.3 594.913C1229.93 594.178 1229.6 593.474 1229.29 592.8C1228.99 592.126 1228.69 591.361 1228.38 590.504C1226.67 591.907 1224.77 593.065 1222.68 593.978C1220.6 594.891 1218.28 595.345 1215.71 595.339C1212.65 595.332 1210.02 594.806 1207.82 593.761C1205.68 592.655 1203.91 591.214 1202.51 589.436C1201.17 587.598 1200.2 585.485 1199.59 583.098C1198.99 580.65 1198.69 578.049 1198.7 575.296C1198.71 571.075 1199.46 567.1 1200.94 563.372C1202.48 559.644 1204.57 556.406 1207.21 553.659C1209.91 550.851 1213.06 548.656 1216.68 547.074C1220.29 545.491 1224.21 544.705 1228.43 544.714C1228.98 544.715 1229.93 544.748 1231.27 544.812C1232.68 544.877 1234.27 545.033 1236.04 545.282C1237.82 545.469 1239.68 545.81 1241.64 546.304C1243.59 546.798 1245.46 547.475 1247.23 548.335L1241.19 573.281ZM1231.7 556.375C1230.9 556.251 1230.17 556.158 1229.5 556.095C1228.88 556.033 1228.12 556 1227.2 555.998C1225.12 555.994 1223.16 556.509 1221.33 557.545C1219.55 558.581 1217.98 559.954 1216.63 561.664C1215.28 563.313 1214.21 565.237 1213.4 567.438C1212.66 569.638 1212.29 571.932 1212.28 574.317C1212.27 577.254 1212.76 579.58 1213.73 581.295C1214.7 583.01 1216.5 583.87 1219.14 583.876C1220.54 583.879 1221.8 583.607 1222.9 583.059C1224.06 582.511 1225.29 581.596 1226.58 580.314C1226.71 578.785 1226.89 577.195 1227.14 575.544C1227.45 573.831 1227.77 572.272 1228.08 570.866L1231.7 556.375Z" fill="white"/>
<path d="M755.678 649.578C758.563 649.585 760.765 650.155 762.285 651.289C763.828 652.424 764.596 654.041 764.59 656.141C764.585 657.803 764.257 659.221 763.608 660.397C762.981 661.549 762.101 662.494 760.968 663.23C759.858 663.966 758.518 664.505 756.948 664.848C755.4 665.167 753.692 665.325 751.823 665.321L749.953 665.317L747.885 673.793L743.524 673.783L749.237 650.152C750.346 649.924 751.454 649.776 752.562 649.71C753.67 649.62 754.709 649.576 755.678 649.578ZM755.252 653.247C754.813 653.246 754.398 653.256 754.005 653.279C753.613 653.301 753.22 653.335 752.828 653.38L750.83 661.649L752.595 661.653C753.565 661.655 754.5 661.576 755.4 661.417C756.301 661.257 757.098 660.994 757.791 660.626C758.485 660.235 759.04 659.717 759.457 659.072C759.875 658.404 760.085 657.562 760.088 656.546C760.092 655.369 759.656 654.526 758.78 654.016C757.928 653.507 756.752 653.25 755.252 653.247ZM777.751 659.459C777.29 659.297 776.794 659.169 776.263 659.075C775.733 658.982 775.11 658.934 774.394 658.933C774.002 658.932 773.587 658.965 773.148 659.034C772.709 659.079 772.34 659.147 772.039 659.239L768.499 673.84L764.31 673.83L768.517 656.565C769.487 656.244 770.538 655.97 771.669 655.742C772.801 655.49 774.024 655.366 775.34 655.369C775.617 655.37 775.928 655.393 776.274 655.44C776.62 655.464 776.955 655.5 777.278 655.546C777.624 655.593 777.935 655.652 778.212 655.722C778.512 655.792 778.765 655.873 778.973 655.966L777.751 659.459ZM778.988 667.32C778.992 665.774 779.239 664.286 779.728 662.856C780.24 661.404 780.959 660.124 781.886 659.019C782.836 657.89 783.969 656.992 785.287 656.326C786.604 655.66 788.082 655.328 789.721 655.332C791.475 655.336 792.835 655.789 793.801 656.691C794.768 657.594 795.249 658.749 795.245 660.156C795.241 661.61 794.879 662.787 794.161 663.685C793.443 664.583 792.506 665.285 791.351 665.79C790.219 666.296 788.925 666.639 787.471 666.82C786.039 667.002 784.585 667.114 783.108 667.157C783.085 667.203 783.073 667.249 783.073 667.295L783.072 667.641C783.065 669.741 784.389 670.794 787.043 670.8C788.613 670.804 790.183 670.484 791.754 669.842L792.09 673.235C791.535 673.487 790.75 673.74 789.734 673.991C788.718 674.243 787.563 674.367 786.271 674.364C784.979 674.361 783.871 674.174 782.949 673.803C782.027 673.431 781.267 672.922 780.669 672.275C780.094 671.627 779.669 670.888 779.395 670.056C779.121 669.202 778.985 668.29 778.988 667.32ZM789.087 658.758C788.395 658.756 787.737 658.893 787.113 659.169C786.489 659.444 785.934 659.824 785.448 660.307C784.962 660.791 784.533 661.367 784.162 662.035C783.814 662.681 783.558 663.384 783.394 664.145C786.163 664.059 788.172 663.729 789.42 663.155C790.691 662.581 791.329 661.717 791.332 660.563C791.333 660.101 791.162 659.686 790.816 659.316C790.494 658.946 789.918 658.76 789.087 658.758ZM801.493 670.971C802.601 670.974 803.479 670.803 804.126 670.458C804.773 670.09 805.098 669.537 805.1 668.798C805.102 668.198 804.896 667.725 804.481 667.378C804.067 667.008 803.341 666.579 802.304 666.092C801.751 665.837 801.233 665.57 800.749 665.292C800.288 665.014 799.885 664.69 799.54 664.32C799.195 663.95 798.92 663.523 798.713 663.038C798.507 662.529 798.405 661.929 798.407 661.237C798.413 659.437 799.075 658.007 800.393 656.949C801.712 655.89 803.617 655.363 806.11 655.369C807.264 655.372 808.29 655.501 809.19 655.757C810.112 655.99 810.804 656.233 811.265 656.488L809.766 659.739C809.375 659.507 808.81 659.287 808.072 659.078C807.334 658.845 806.561 658.728 805.754 658.726C805.361 658.725 804.969 658.759 804.576 658.827C804.207 658.896 803.872 659.01 803.571 659.171C803.271 659.332 803.016 659.562 802.808 659.862C802.622 660.138 802.529 660.484 802.528 660.9C802.526 661.431 802.732 661.87 803.147 662.217C803.584 662.541 804.206 662.888 805.013 663.259C805.774 663.607 806.419 663.943 806.949 664.268C807.478 664.592 807.916 664.962 808.261 665.378C808.606 665.771 808.858 666.222 809.018 666.73C809.178 667.215 809.257 667.804 809.255 668.496C809.253 669.35 809.077 670.146 808.729 670.884C808.381 671.598 807.871 672.22 807.2 672.75C806.552 673.256 805.743 673.658 804.773 673.956C803.803 674.254 802.695 674.401 801.449 674.398C800.595 674.396 799.822 674.337 799.13 674.22C798.461 674.103 797.873 673.975 797.365 673.835C796.858 673.673 796.432 673.51 796.086 673.348C795.74 673.185 795.475 673.046 795.291 672.93L796.789 669.645C796.951 669.738 797.181 669.865 797.481 670.028C797.803 670.167 798.161 670.306 798.553 670.445C798.968 670.585 799.417 670.713 799.901 670.829C800.409 670.923 800.94 670.97 801.493 670.971ZM812.287 667.395C812.292 665.849 812.538 664.361 813.027 662.931C813.539 661.478 814.259 660.199 815.185 659.093C816.135 657.965 817.268 657.067 818.586 656.401C819.903 655.735 821.381 655.403 823.02 655.407C824.774 655.411 826.134 655.864 827.101 656.766C828.067 657.669 828.548 658.824 828.544 660.231C828.54 661.685 828.179 662.861 827.46 663.76C826.742 664.658 825.805 665.36 824.65 665.865C823.518 666.37 822.224 666.714 820.77 666.895C819.338 667.076 817.884 667.189 816.407 667.231C816.384 667.278 816.372 667.324 816.372 667.37L816.371 667.716C816.364 669.816 817.688 670.869 820.342 670.875C821.912 670.879 823.482 670.559 825.053 669.916L825.389 673.31C824.835 673.562 824.049 673.814 823.033 674.066C822.017 674.318 820.862 674.442 819.57 674.439C818.278 674.436 817.17 674.249 816.248 673.878C815.326 673.506 814.566 672.997 813.968 672.349C813.393 671.702 812.969 670.962 812.694 670.131C812.42 669.276 812.284 668.365 812.287 667.395ZM822.386 658.833C821.694 658.831 821.036 658.968 820.412 659.244C819.788 659.519 819.233 659.899 818.747 660.382C818.261 660.866 817.832 661.442 817.461 662.11C817.113 662.756 816.857 663.459 816.693 664.22C819.463 664.134 821.471 663.804 822.719 663.23C823.99 662.656 824.628 661.792 824.631 660.638C824.633 660.176 824.461 659.761 824.116 659.391C823.794 659.021 823.217 658.835 822.386 658.833ZM833.763 656.643C834.687 656.368 835.738 656.116 836.915 655.888C838.116 655.637 839.42 655.513 840.828 655.516C842.951 655.521 844.508 656.044 845.497 657.085C846.486 658.125 846.978 659.523 846.973 661.277C846.971 661.761 846.924 662.28 846.83 662.834C846.759 663.365 846.665 663.918 846.548 664.495L844.234 674.01L840.046 674L842.219 664.935C842.336 664.428 842.453 663.909 842.57 663.378C842.687 662.848 842.758 662.34 842.782 661.856C842.808 661.048 842.614 660.378 842.2 659.847C841.809 659.315 841.025 659.048 839.848 659.045C838.856 659.043 838.002 659.145 837.286 659.351L833.745 673.986L829.557 673.977L833.763 656.643ZM854.151 651.15L858.515 650.467L857.183 655.934L863.103 655.947L862.261 659.407L856.342 659.394L854.589 666.556C854.472 667.063 854.39 667.49 854.343 667.836C854.296 668.159 854.272 668.459 854.271 668.736C854.27 669.013 854.293 669.29 854.338 669.567C854.407 669.821 854.521 670.052 854.682 670.26C854.866 670.445 855.12 670.607 855.442 670.746C855.788 670.863 856.249 670.921 856.826 670.923C857.45 670.924 858.05 670.845 858.627 670.684C859.205 670.524 859.713 670.352 860.152 670.168L860.453 673.527C859.922 673.757 859.252 673.974 858.444 674.18C857.635 674.386 856.689 674.488 855.604 674.485C853.619 674.481 852.201 674.051 851.35 673.195C850.499 672.316 850.075 671.127 850.08 669.627C850.082 669.073 850.118 668.507 850.189 667.93C850.283 667.331 850.412 666.696 850.575 666.027L854.151 651.15ZM863.808 667.511C863.812 665.965 864.059 664.477 864.548 663.047C865.06 661.594 865.779 660.315 866.706 659.209C867.655 658.081 868.789 657.183 870.106 656.517C871.424 655.85 872.902 655.519 874.541 655.523C876.295 655.527 877.655 655.98 878.621 656.882C879.588 657.784 880.069 658.939 880.065 660.347C880.061 661.801 879.699 662.977 878.981 663.876C878.263 664.774 877.326 665.476 876.171 665.981C875.038 666.486 873.745 666.83 872.29 667.011C870.859 667.192 869.405 667.304 867.928 667.347C867.904 667.393 867.893 667.44 867.893 667.486L867.892 667.832C867.885 669.932 869.209 670.985 871.863 670.991C873.432 670.995 875.003 670.675 876.574 670.032L876.91 673.426C876.355 673.678 875.57 673.93 874.554 674.182C873.537 674.433 872.383 674.558 871.091 674.555C869.798 674.552 868.691 674.365 867.769 673.994C866.847 673.622 866.087 673.113 865.489 672.465C864.914 671.818 864.489 671.078 864.215 670.247C863.94 669.392 863.805 668.48 863.808 667.511ZM873.907 658.949C873.215 658.947 872.557 659.084 871.933 659.36C871.309 659.635 870.754 660.015 870.268 660.498C869.782 660.982 869.353 661.558 868.982 662.226C868.633 662.872 868.377 663.575 868.214 664.336C870.983 664.25 872.992 663.92 874.24 663.346C875.511 662.772 876.148 661.908 876.152 660.754C876.153 660.292 875.981 659.876 875.636 659.506C875.314 659.136 874.738 658.95 873.907 658.949ZM887.999 674.593C886.915 674.59 885.98 674.415 885.197 674.067C884.413 673.696 883.769 673.199 883.263 672.574C882.78 671.95 882.424 671.211 882.196 670.356C881.968 669.502 881.855 668.579 881.858 667.586C881.863 666.04 882.133 664.552 882.668 663.122C883.226 661.67 884.003 660.402 884.999 659.32C886.018 658.214 887.255 657.34 888.711 656.697C890.167 656.031 891.818 655.7 893.664 655.704C893.895 655.705 894.172 655.717 894.495 655.741C894.818 655.765 895.175 655.823 895.568 655.916L897.495 647.959L901.859 647.276L897.058 666.893C896.941 667.424 896.847 667.966 896.776 668.52C896.728 669.051 896.704 669.558 896.702 670.043C896.7 670.666 896.756 671.289 896.87 671.913C896.983 672.536 897.166 673.183 897.418 673.852L893.677 674.398C893.425 673.913 893.207 673.324 893.025 672.631C892.446 673.137 891.741 673.597 890.909 674.011C890.077 674.401 889.107 674.595 887.999 674.593ZM894.727 659.307C894.288 659.214 893.758 659.166 893.135 659.165C892.073 659.163 891.103 659.391 890.225 659.851C889.346 660.287 888.594 660.886 887.969 661.646C887.344 662.383 886.856 663.236 886.507 664.204C886.181 665.173 886.017 666.176 886.014 667.215C886.012 667.746 886.057 668.242 886.148 668.704C886.262 669.166 886.434 669.57 886.663 669.916C886.893 670.263 887.192 670.541 887.561 670.749C887.953 670.958 888.425 671.063 888.979 671.064C889.718 671.066 890.364 670.917 890.919 670.618C891.497 670.32 892.041 669.905 892.55 669.376C892.574 668.891 892.622 668.384 892.693 667.853C892.787 667.322 892.892 666.803 893.009 666.296L894.727 659.307ZM920.998 655.662C922.059 655.664 922.97 655.851 923.731 656.222C924.514 656.57 925.159 657.056 925.665 657.68C926.171 658.305 926.549 659.044 926.801 659.898C927.052 660.73 927.176 661.63 927.173 662.599C927.169 664.192 926.887 665.714 926.329 667.167C925.77 668.62 924.97 669.899 923.929 671.004C922.91 672.11 921.661 672.995 920.182 673.661C918.703 674.304 917.04 674.624 915.194 674.619C914.917 674.619 914.548 674.606 914.086 674.582C913.625 674.558 913.117 674.499 912.564 674.406C912.01 674.312 911.445 674.184 910.869 674.021C910.292 673.858 909.762 673.649 909.278 673.394L915.413 647.999L919.776 647.316L917.533 656.589C918.041 656.336 918.584 656.118 919.162 655.935C919.74 655.751 920.351 655.66 920.998 655.662ZM915.758 671.09C916.82 671.092 917.79 670.875 918.668 670.438C919.57 669.979 920.333 669.369 920.959 668.609C921.607 667.849 922.106 666.984 922.455 666.016C922.804 665.024 922.98 663.998 922.984 662.936C922.985 662.405 922.94 661.921 922.849 661.482C922.758 661.02 922.598 660.627 922.368 660.304C922.139 659.957 921.828 659.691 921.436 659.505C921.044 659.297 920.548 659.192 919.948 659.191C919.441 659.189 918.887 659.281 918.286 659.464C917.685 659.647 917.131 659.934 916.622 660.325L914.063 670.913C914.27 670.959 914.501 671.006 914.755 671.053C915.032 671.077 915.366 671.089 915.758 671.09ZM946.251 656.134C945.785 657.449 945.273 658.821 944.715 660.25C944.157 661.657 943.53 663.075 942.833 664.504C942.159 665.933 941.428 667.363 940.639 668.792C939.85 670.198 939.004 671.569 938.1 672.905C937.427 673.919 936.732 674.887 936.014 675.809C935.296 676.753 934.508 677.582 933.652 678.296C932.819 679.009 931.895 679.584 930.878 680.02C929.861 680.457 928.706 680.673 927.414 680.67C926.699 680.669 926.064 680.587 925.511 680.424C924.934 680.261 924.45 680.075 924.059 679.867L925.419 676.512C925.741 676.697 926.098 676.848 926.49 676.964C926.906 677.081 927.355 677.139 927.84 677.14C928.925 677.143 929.872 676.856 930.681 676.281C931.514 675.729 932.266 674.969 932.938 674.002C932.208 671.438 931.593 668.656 931.094 665.655C930.595 662.653 930.27 659.468 930.119 656.098L934.342 656.107C934.362 657.077 934.405 658.15 934.471 659.327C934.56 660.504 934.66 661.716 934.772 662.963C934.906 664.186 935.064 665.398 935.245 666.599C935.426 667.799 935.631 668.907 935.858 669.923C936.554 668.817 937.204 667.653 937.808 666.431C938.411 665.209 938.969 663.999 939.48 662.8C939.992 661.578 940.434 660.402 940.806 659.272C941.202 658.119 941.54 657.07 941.82 656.124L946.251 656.134Z" fill="white"/>
<path d="M971.802 678.3C969.934 678.296 968.02 678.213 966.059 678.053C964.098 677.893 962.324 677.64 960.737 677.294L968.303 646.02C970.079 645.681 971.932 645.452 973.863 645.332C975.825 645.212 977.615 645.153 979.235 645.157C981.103 645.161 982.706 645.367 984.043 645.775C985.412 646.152 986.516 646.668 987.354 647.324C988.224 647.98 988.86 648.759 989.262 649.663C989.695 650.536 989.911 651.47 989.908 652.467C989.906 653.152 989.826 653.868 989.668 654.615C989.541 655.362 989.258 656.108 988.82 656.854C988.413 657.57 987.835 658.253 987.086 658.906C986.368 659.558 985.417 660.147 984.232 660.674C985.631 661.3 986.656 662.158 987.307 663.249C987.957 664.31 988.281 665.493 988.277 666.801C988.272 668.296 987.972 669.743 987.376 671.142C986.781 672.511 985.827 673.739 984.516 674.826C983.205 675.881 981.506 676.734 979.418 677.383C977.33 678.001 974.791 678.307 971.802 678.3ZM971.192 663.727L969.159 672.129C969.657 672.224 970.279 672.303 971.026 672.367C971.805 672.4 972.521 672.417 973.175 672.418C974.109 672.42 975.027 672.36 975.931 672.238C976.865 672.084 977.691 671.821 978.408 671.449C979.157 671.077 979.765 670.565 980.234 669.912C980.703 669.259 980.939 668.419 980.942 667.392C980.944 666.956 980.852 666.52 980.666 666.083C980.512 665.647 980.248 665.257 979.876 664.914C979.503 664.571 979.006 664.289 978.384 664.07C977.793 663.851 977.077 663.74 976.236 663.738L971.192 663.727ZM972.563 658.266L977.14 658.276C979.008 658.28 980.395 657.879 981.3 657.071C982.237 656.264 982.707 655.3 982.71 654.179C982.712 653.587 982.573 653.089 982.294 652.683C982.047 652.247 981.705 651.904 981.27 651.653C980.835 651.403 980.337 651.231 979.777 651.136C979.217 651.011 978.641 650.947 978.05 650.946C977.396 650.944 976.695 650.974 975.948 651.034C975.2 651.064 974.64 651.109 974.266 651.171L972.563 658.266ZM998.154 677.939L991.242 677.923L997.153 653.37L1004.11 653.386L998.154 677.939ZM1001.6 650.391C1000.63 650.389 999.763 650.107 998.986 649.545C998.21 648.952 997.823 648.063 997.827 646.88C997.829 646.226 997.955 645.62 998.206 645.06C998.488 644.469 998.847 643.971 999.285 643.568C999.722 643.133 1000.22 642.791 1000.78 642.543C1001.37 642.296 1002 642.173 1002.65 642.174C1003.62 642.176 1004.49 642.474 1005.26 643.067C1006.04 643.629 1006.43 644.502 1006.42 645.685C1006.42 646.339 1006.28 646.961 1006 647.552C1005.75 648.112 1005.4 648.61 1004.97 649.045C1004.53 649.448 1004.01 649.774 1003.42 650.022C1002.86 650.27 1002.25 650.393 1001.6 650.391ZM1011.24 647.284L1018.48 646.179L1016.68 653.414L1024.44 653.432L1023.02 659.126L1015.31 659.109L1013.23 667.698C1013.04 668.414 1012.92 669.083 1012.85 669.705C1012.82 670.328 1012.9 670.873 1013.08 671.34C1013.3 671.777 1013.66 672.12 1014.15 672.37C1014.65 672.62 1015.33 672.747 1016.21 672.749C1016.95 672.75 1017.67 672.69 1018.36 672.567C1019.07 672.412 1019.79 672.212 1020.51 671.964L1021 677.29C1020.07 677.63 1019.06 677.923 1017.96 678.17C1016.87 678.417 1015.58 678.538 1014.09 678.535C1011.94 678.53 1010.27 678.215 1009.09 677.59C1007.91 676.933 1007.07 676.059 1006.58 674.969C1006.08 673.847 1005.87 672.57 1005.94 671.138C1006 669.705 1006.23 668.196 1006.6 666.609L1011.24 647.284ZM1024.64 668.191C1024.65 666.073 1025 664.081 1025.69 662.215C1026.38 660.348 1027.37 658.716 1028.65 657.318C1029.93 655.919 1031.47 654.818 1033.28 654.012C1035.12 653.207 1037.16 652.807 1039.4 652.812C1040.8 652.815 1042.05 652.958 1043.14 653.24C1044.26 653.492 1045.27 653.837 1046.17 654.275L1043.77 659.687C1043.15 659.436 1042.5 659.217 1041.81 659.029C1041.16 658.809 1040.35 658.698 1039.38 658.696C1037.05 658.691 1035.21 659.481 1033.87 661.066C1032.52 662.619 1031.85 664.751 1031.84 667.459C1031.83 669.047 1032.17 670.34 1032.85 671.338C1033.54 672.305 1034.8 672.79 1036.63 672.794C1037.54 672.796 1038.41 672.705 1039.25 672.52C1040.09 672.335 1040.84 672.103 1041.49 671.825L1041.99 677.383C1041.12 677.724 1040.15 678.018 1039.09 678.264C1038.06 678.542 1036.8 678.679 1035.31 678.676C1033.38 678.672 1031.74 678.388 1030.41 677.824C1029.07 677.261 1027.97 676.511 1027.1 675.575C1026.23 674.608 1025.59 673.486 1025.19 672.208C1024.82 670.931 1024.64 669.592 1024.64 668.191ZM1055.58 678.722C1053.93 678.718 1052.5 678.466 1051.29 677.965C1050.07 677.464 1049.06 676.761 1048.26 675.856C1047.48 674.952 1046.89 673.892 1046.49 672.677C1046.09 671.43 1045.89 670.06 1045.9 668.565C1045.9 666.697 1046.2 664.83 1046.8 662.963C1047.43 661.096 1048.34 659.417 1049.52 657.925C1050.71 656.433 1052.16 655.222 1053.88 654.292C1055.59 653.331 1057.56 652.852 1059.77 652.857C1061.39 652.861 1062.8 653.113 1064.02 653.614C1065.26 654.115 1066.27 654.818 1067.05 655.723C1067.85 656.627 1068.46 657.703 1068.86 658.949C1069.26 660.164 1069.46 661.519 1069.45 663.014C1069.45 664.882 1069.14 666.749 1068.55 668.616C1067.95 670.483 1067.07 672.162 1065.92 673.654C1064.76 675.146 1063.31 676.373 1061.56 677.334C1059.85 678.264 1057.85 678.727 1055.58 678.722ZM1059.1 658.741C1058.07 658.738 1057.17 659.032 1056.38 659.622C1055.6 660.212 1054.95 660.957 1054.42 661.859C1053.88 662.761 1053.48 663.756 1053.19 664.845C1052.94 665.903 1052.81 666.915 1052.81 667.88C1052.81 669.468 1053.05 670.699 1053.55 671.571C1054.04 672.413 1054.94 672.836 1056.25 672.839C1057.28 672.841 1058.18 672.547 1058.96 671.957C1059.74 671.367 1060.4 670.622 1060.93 669.72C1061.46 668.818 1061.86 667.838 1062.11 666.78C1062.39 665.691 1062.53 664.664 1062.54 663.699C1062.54 662.111 1062.3 660.896 1061.8 660.054C1061.31 659.181 1060.4 658.743 1059.1 658.741ZM1078.2 678.119L1071.28 678.103L1077.2 653.55L1084.16 653.566L1078.2 678.119ZM1081.64 650.571C1080.68 650.569 1079.81 650.287 1079.03 649.725C1078.25 649.132 1077.87 648.243 1077.87 647.06C1077.87 646.406 1078 645.799 1078.25 645.24C1078.53 644.649 1078.89 644.151 1079.33 643.748C1079.76 643.313 1080.26 642.971 1080.83 642.723C1081.42 642.476 1082.04 642.353 1082.69 642.354C1083.66 642.356 1084.53 642.654 1085.31 643.247C1086.08 643.809 1086.47 644.682 1086.47 645.865C1086.46 646.519 1086.32 647.141 1086.04 647.732C1085.79 648.292 1085.45 648.79 1085.01 649.225C1084.57 649.628 1084.06 649.954 1083.46 650.202C1082.9 650.45 1082.3 650.573 1081.64 650.571ZM1090.23 654.701C1090.76 654.546 1091.34 654.376 1091.96 654.191C1092.62 653.974 1093.33 653.789 1094.11 653.635C1094.92 653.45 1095.81 653.312 1096.78 653.221C1097.77 653.099 1098.89 653.039 1100.14 653.042C1103.81 653.05 1106.33 654.114 1107.7 656.234C1109.06 658.355 1109.28 661.251 1108.37 664.923L1105.15 678.179L1098.2 678.164L1101.32 665.187C1101.51 664.378 1101.65 663.6 1101.74 662.853C1101.87 662.075 1101.87 661.405 1101.75 660.845C1101.63 660.253 1101.33 659.785 1100.87 659.442C1100.43 659.067 1099.75 658.879 1098.81 658.877C1097.91 658.875 1096.99 658.966 1096.06 659.151L1091.47 678.149L1084.51 678.133L1090.23 654.701ZM1138.98 649.346C1139.04 650.623 1139.11 652.071 1139.2 653.69C1139.32 655.309 1139.44 656.991 1139.56 658.735C1139.71 660.447 1139.86 662.16 1140.01 663.873C1140.16 665.586 1140.31 667.174 1140.46 668.638C1141.28 667.052 1142.11 665.341 1142.95 663.506C1143.8 661.671 1144.64 659.774 1145.49 657.814C1146.34 655.854 1147.17 653.863 1147.98 651.841C1148.83 649.82 1149.63 647.844 1150.38 645.916L1158.09 645.933C1155.64 651.843 1153.15 657.473 1150.61 662.823C1148.08 668.141 1145.35 673.288 1142.44 678.263L1135.62 678.248C1135.38 676.535 1135.15 674.9 1134.94 673.342C1134.75 671.754 1134.57 670.197 1134.39 668.671C1134.24 667.145 1134.09 665.603 1133.94 664.046C1133.82 662.489 1133.7 660.87 1133.58 659.188C1131.79 662.485 1130.02 665.719 1128.27 668.891C1126.55 672.031 1124.7 675.141 1122.73 678.219L1115.91 678.203C1115.67 675.307 1115.5 672.442 1115.38 669.609C1115.29 666.775 1115.26 663.895 1115.26 660.968C1115.27 658.447 1115.33 655.94 1115.43 653.45C1115.53 650.928 1115.66 648.391 1115.82 645.838L1123.16 645.854C1122.99 648.594 1122.83 651.287 1122.67 653.933C1122.53 656.548 1122.46 659.272 1122.45 662.106C1122.45 663.164 1122.45 664.238 1122.44 665.328C1122.44 666.418 1122.47 667.508 1122.53 668.597C1123.4 667.074 1124.33 665.457 1125.3 663.747C1126.27 662.036 1127.22 660.326 1128.16 658.616C1129.1 656.905 1129.99 655.257 1130.84 653.671C1131.68 652.054 1132.41 650.608 1133 649.333L1138.98 649.346ZM1176.85 667.739C1176.41 669.513 1176.28 671.303 1176.46 673.109C1176.64 674.884 1176.99 676.473 1177.52 677.875L1171.3 678.748C1171.12 678.374 1170.95 678.016 1170.79 677.673C1170.64 677.33 1170.48 676.941 1170.33 676.504C1169.46 677.219 1168.49 677.808 1167.43 678.273C1166.37 678.737 1165.18 678.968 1163.88 678.965C1162.32 678.962 1160.98 678.694 1159.86 678.162C1158.77 677.599 1157.87 676.866 1157.16 675.961C1156.48 675.025 1155.98 673.95 1155.68 672.735C1155.37 671.489 1155.22 670.165 1155.22 668.764C1155.23 666.616 1155.61 664.593 1156.36 662.695C1157.14 660.798 1158.21 659.15 1159.55 657.752C1160.92 656.323 1162.53 655.206 1164.37 654.4C1166.21 653.595 1168.2 653.195 1170.35 653.199C1170.63 653.2 1171.12 653.217 1171.8 653.249C1172.52 653.282 1173.33 653.362 1174.23 653.488C1175.13 653.584 1176.08 653.757 1177.08 654.009C1178.07 654.26 1179.02 654.604 1179.92 655.042L1176.85 667.739ZM1172.02 659.135C1171.61 659.071 1171.24 659.024 1170.9 658.992C1170.58 658.96 1170.19 658.944 1169.73 658.943C1168.67 658.94 1167.67 659.203 1166.74 659.73C1165.83 660.257 1165.04 660.956 1164.35 661.826C1163.66 662.665 1163.11 663.645 1162.7 664.765C1162.33 665.885 1162.14 667.052 1162.13 668.266C1162.13 669.761 1162.37 670.944 1162.87 671.817C1163.37 672.69 1164.28 673.128 1165.62 673.131C1166.34 673.133 1166.98 672.994 1167.54 672.715C1168.13 672.436 1168.75 671.971 1169.41 671.318C1169.48 670.54 1169.57 669.731 1169.7 668.89C1169.86 668.019 1170.01 667.225 1170.17 666.51L1172.02 659.135ZM1191.43 678.84C1189.22 678.835 1187.47 678.551 1186.2 677.988C1184.95 677.394 1184.05 676.598 1183.5 675.6C1182.97 674.602 1182.71 673.465 1182.71 672.189C1182.75 670.881 1182.94 669.496 1183.29 668.034L1189.29 643.248L1196.53 642.143L1189.96 669.029C1189.84 669.589 1189.76 670.103 1189.72 670.57C1189.72 671.037 1189.81 671.458 1190 671.832C1190.19 672.174 1190.5 672.455 1190.93 672.674C1191.4 672.893 1192.04 673.035 1192.85 673.099L1191.43 678.84ZM1218.44 667.832C1218 669.606 1217.87 671.396 1218.05 673.202C1218.23 674.977 1218.59 676.566 1219.11 677.968L1212.9 678.842C1212.71 678.468 1212.54 678.109 1212.39 677.767C1212.23 677.424 1212.08 677.034 1211.92 676.598C1211.05 677.312 1210.08 677.901 1209.02 678.366C1207.96 678.831 1206.78 679.062 1205.47 679.059C1203.91 679.055 1202.58 678.788 1201.46 678.256C1200.37 677.693 1199.47 676.959 1198.76 676.055C1198.07 675.119 1197.58 674.044 1197.27 672.829C1196.96 671.583 1196.81 670.259 1196.82 668.858C1196.82 666.71 1197.2 664.687 1197.95 662.789C1198.74 660.892 1199.8 659.244 1201.15 657.846C1202.52 656.416 1204.13 655.299 1205.97 654.494C1207.81 653.688 1209.8 653.288 1211.95 653.293C1212.23 653.294 1212.71 653.31 1213.4 653.343C1214.11 653.376 1214.92 653.455 1215.82 653.582C1216.73 653.677 1217.67 653.851 1218.67 654.102C1219.67 654.353 1220.61 654.698 1221.52 655.136L1218.44 667.832ZM1213.61 659.228C1213.21 659.165 1212.83 659.117 1212.49 659.085C1212.18 659.054 1211.79 659.037 1211.32 659.036C1210.26 659.034 1209.27 659.296 1208.33 659.823C1207.43 660.351 1206.63 661.049 1205.94 661.92C1205.26 662.759 1204.71 663.738 1204.3 664.858C1203.92 665.978 1203.73 667.145 1203.73 668.36C1203.72 669.854 1203.97 671.038 1204.47 671.911C1204.96 672.784 1205.88 673.222 1207.22 673.225C1207.93 673.226 1208.57 673.088 1209.13 672.809C1209.73 672.53 1210.35 672.064 1211.01 671.412C1211.07 670.634 1211.17 669.824 1211.29 668.984C1211.45 668.112 1211.61 667.319 1211.77 666.603L1213.61 659.228Z" fill="white"/>
<path d="M1226.07 621.751L1223.97 630.354C1225.37 630.682 1226.78 631.013 1228.15 631.362L1230.23 622.814L1235.44 624.146L1233.31 632.926C1239.89 635.249 1244.7 638.733 1243.75 645.214C1243.07 649.958 1240.5 652.255 1237.1 653.06C1241.78 655.556 1244.15 659.384 1241.89 666.019C1239.07 674.261 1232.39 674.957 1223.5 673.232L1219.19 672.233L1220.29 665.621C1224.85 666.602 1230.7 667.06 1231.85 662.336C1233.15 656.968 1226.63 654.689 1221.99 653.514L1222.01 653.419C1221.11 652.981 1220.16 652.636 1219.17 652.385C1218.17 652.133 1217.22 651.961 1216.32 651.865C1215.42 651.739 1214.61 651.659 1213.89 651.626C1213.21 651.593 1212.72 651.577 1212.44 651.576C1211.34 651.574 1210.27 651.678 1209.25 651.891L1210.61 646.307L1213.04 636.306C1213.11 635.171 1212.72 633.739 1210.61 633.198C1210.69 633.142 1206.86 632.242 1206.83 632.233L1208.21 626.524L1215.4 628.365L1215.39 628.393C1216.48 628.668 1217.59 628.93 1218.72 629.195L1220.86 620.419L1226.07 621.751ZM1211.82 657.319C1212.29 657.32 1212.68 657.336 1212.99 657.368C1213.33 657.4 1213.7 657.448 1214.11 657.511L1213.57 659.668H1207.36L1207.5 659.071C1207.91 658.703 1208.36 658.381 1208.83 658.106C1209.76 657.579 1210.76 657.317 1211.82 657.319ZM1219.98 647.335C1222.92 648.087 1231.99 651.154 1233.46 645.118C1234.99 638.821 1225.51 637.418 1222.57 636.666L1219.98 647.335Z" fill="white"/>
</g>
<defs>
<filter id="filter0_f_159_2268" x="718.191" y="949.647" width="2392.44" height="2392.44" filterUnits="userSpaceOnUse" color-interpolation-filters="sRGB">
<feFlood flood-opacity="0" result="BackgroundImageFix"/>
<feBlend mode="normal" in="SourceGraphic" in2="BackgroundImageFix" result="shape"/>
<feGaussianBlur stdDeviation="9.89321" result="effect1_foregroundBlur_159_2268"/>
</filter>
<filter id="filter1_f_159_2268" x="609.365" y="840.821" width="2610.09" height="2610.09" filterUnits="userSpaceOnUse" color-interpolation-filters="sRGB">
<feFlood flood-opacity="0" result="BackgroundImageFix"/>
<feBlend mode="normal" in="SourceGraphic" in2="BackgroundImageFix" result="shape"/>
<feGaussianBlur stdDeviation="64.3058" result="effect1_foregroundBlur_159_2268"/>
</filter>
<filter id="filter2_f_159_2268" x="963.489" y="1194.95" width="1901.84" height="1901.84" filterUnits="userSpaceOnUse" color-interpolation-filters="sRGB">
<feFlood flood-opacity="0" result="BackgroundImageFix"/>
<feBlend mode="normal" in="SourceGraphic" in2="BackgroundImageFix" result="shape"/>
<feGaussianBlur stdDeviation="17.9583" result="effect1_foregroundBlur_159_2268"/>
</filter>
<filter id="filter3_f_159_2268" x="1250.98" y="1482.44" width="1326.85" height="1326.85" filterUnits="userSpaceOnUse" color-interpolation-filters="sRGB">
<feFlood flood-opacity="0" result="BackgroundImageFix"/>
<feBlend mode="normal" in="SourceGraphic" in2="BackgroundImageFix" result="shape"/>
<feGaussianBlur stdDeviation="10.646" result="effect1_foregroundBlur_159_2268"/>
</filter>
<linearGradient id="paint0_linear_159_2268" x1="427.596" y1="371.539" x2="1574.44" y2="2240.7" gradientUnits="userSpaceOnUse">
<stop stop-color="#A21D52"/>
<stop offset="1" stop-color="#840035"/>
</linearGradient>
<clipPath id="clip0_159_2268">
<rect x="406.77" y="352.183" width="1522.69" height="1849.6" rx="53.7674" fill="white"/>
</clipPath>
</defs>
</svg>
